<svg width="21" height="21" viewBox="0 0 21 21" fill="none" xmlns="http://www.w3.org/2000/svg">
<path d="M10.2162 0.09375C8.22151 0.09375 6.27161 0.685244 4.61309 1.79343C2.95456 2.90163 1.6619 4.47674 0.898564 6.31959C0.135229 8.16245 -0.064494 10.1903 0.324651 12.1466C0.713796 14.103 1.67433 15.9 3.08479 17.3105C4.49525 18.7209 6.29228 19.6815 8.24865 20.0706C10.205 20.4598 12.2328 20.26 14.0757 19.4967C15.9185 18.7334 17.4937 17.4407 18.6018 15.7822C19.71 14.1237 20.3015 12.1738 20.3015 10.1791C20.2987 7.50515 19.2352 4.94155 17.3445 3.05079C15.4537 1.16004 12.8901 0.0965737 10.2162 0.09375ZM7.65898 14.0581H12.7734C12.2527 15.8366 11.3799 17.4396 10.2162 18.7022C9.0525 17.4396 8.17973 15.8366 7.65898 14.0581ZM7.30697 12.5065C7.04966 10.9655 7.04966 9.39262 7.30697 7.8517H13.1254C13.3827 9.39262 13.3827 10.9655 13.1254 12.5065H7.30697ZM1.68245 10.1791C1.68178 9.39208 1.79046 8.60879 2.00538 7.8517H5.73501C5.50357 9.39466 5.50357 10.9635 5.73501 12.5065H2.00538C1.79046 11.7494 1.68178 10.9661 1.68245 10.1791ZM12.7734 6.30011H7.65898C8.17973 4.5216 9.0525 2.91861 10.2162 1.65601C11.3799 2.91861 12.2527 4.5216 12.7734 6.30011ZM14.6974 7.8517H18.427C18.8576 9.37342 18.8576 10.9847 18.427 12.5065H14.6974C14.9288 10.9635 14.9288 9.39466 14.6974 7.8517ZM17.8161 6.30011H14.3803C13.9844 4.74223 13.3195 3.26544 12.4156 1.93626C13.5704 2.2466 14.6475 2.79519 15.5776 3.54674C16.5077 4.2983 17.2702 5.23619 17.8161 6.30011ZM8.01682 1.93626C7.11291 3.26544 6.44803 4.74223 6.05212 6.30011H2.61632C3.16221 5.23619 3.92472 4.2983 4.85482 3.54674C5.78491 2.79519 6.862 2.2466 8.01682 1.93626ZM2.61632 14.0581H6.05212C6.44803 15.6159 7.11291 17.0927 8.01682 18.4219C6.862 18.1116 5.78491 17.563 4.85482 16.8114C3.92472 16.0599 3.16221 15.122 2.61632 14.0581ZM12.4156 18.4219C13.3195 17.0927 13.9844 15.6159 14.3803 14.0581H17.8161C17.2702 15.122 16.5077 16.0599 15.5776 16.8114C14.6475 17.563 13.5704 18.1116 12.4156 18.4219Z" fill="white"/>
</svg>
