<svg width="19" height="19" viewBox="0 0 19 19" fill="none" xmlns="http://www.w3.org/2000/svg">
<path d="M9.25212 6.36565C7.59634 6.36565 6.24511 7.71689 6.24511 9.37266C6.24511 11.0284 7.59634 12.3797 9.25212 12.3797C10.9079 12.3797 12.2591 11.0284 12.2591 9.37266C12.2591 7.71689 10.9079 6.36565 9.25212 6.36565ZM18.2709 9.37266C18.2709 8.12745 18.2822 6.89351 18.2122 5.65055C18.1423 4.20683 17.813 2.92552 16.7572 1.8698C15.6993 0.811816 14.4202 0.484722 12.9765 0.414791C11.7313 0.344861 10.4973 0.35614 9.25437 0.35614C8.00916 0.35614 6.77522 0.344861 5.53227 0.414791C4.08854 0.484722 2.80723 0.814071 1.75151 1.8698C0.69353 2.92778 0.366435 4.20683 0.296505 5.65055C0.226574 6.89577 0.237854 8.1297 0.237854 9.37266C0.237854 10.6156 0.226574 11.8518 0.296505 13.0948C0.366435 14.5385 0.695785 15.8198 1.75151 16.8755C2.80949 17.9335 4.08854 18.2606 5.53227 18.3305C6.77748 18.4005 8.01141 18.3892 9.25437 18.3892C10.4996 18.3892 11.7335 18.4005 12.9765 18.3305C14.4202 18.2606 15.7015 17.9312 16.7572 16.8755C17.8152 15.8175 18.1423 14.5385 18.2122 13.0948C18.2844 11.8518 18.2709 10.6179 18.2709 9.37266ZM9.25212 13.9994C6.69176 13.9994 4.62543 11.933 4.62543 9.37266C4.62543 6.8123 6.69176 4.74597 9.25212 4.74597C11.8125 4.74597 13.8788 6.8123 13.8788 9.37266C13.8788 11.933 11.8125 13.9994 9.25212 13.9994ZM14.0683 5.63702C13.4705 5.63702 12.9878 5.15427 12.9878 4.55648C12.9878 3.95869 13.4705 3.47594 14.0683 3.47594C14.6661 3.47594 15.1488 3.95869 15.1488 4.55648C15.149 4.69843 15.1212 4.83902 15.0669 4.97019C15.0127 5.10137 14.9331 5.22056 14.8327 5.32093C14.7324 5.42131 14.6132 5.50089 14.482 5.55513C14.3508 5.60937 14.2102 5.6372 14.0683 5.63702Z" fill="#AC95CF"/>
</svg>
