<svg width="19" height="19" viewBox="0 0 19 19" fill="none" xmlns="http://www.w3.org/2000/svg">
<path d="M9.76933 6.36565C8.11356 6.36565 6.76232 7.71689 6.76232 9.37266C6.76232 11.0284 8.11356 12.3797 9.76933 12.3797C11.4251 12.3797 12.7763 11.0284 12.7763 9.37266C12.7763 7.71689 11.4251 6.36565 9.76933 6.36565ZM18.7881 9.37266C18.7881 8.12745 18.7994 6.89351 18.7295 5.65055C18.6595 4.20683 18.3302 2.92552 17.2744 1.8698C16.2165 0.811816 14.9374 0.484722 13.4937 0.414791C12.2485 0.344861 11.0145 0.35614 9.77158 0.35614C8.52637 0.35614 7.29244 0.344861 6.04948 0.414791C4.60575 0.484722 3.32445 0.814071 2.26872 1.8698C1.21074 2.92778 0.883647 4.20683 0.813717 5.65055C0.743786 6.89577 0.755066 8.1297 0.755066 9.37266C0.755066 10.6156 0.743786 11.8518 0.813717 13.0948C0.883647 14.5385 1.213 15.8198 2.26872 16.8755C3.3267 17.9335 4.60575 18.2606 6.04948 18.3305C7.29469 18.4005 8.52863 18.3892 9.77158 18.3892C11.0168 18.3892 12.2507 18.4005 13.4937 18.3305C14.9374 18.2606 16.2187 17.9312 17.2744 16.8755C18.3324 15.8175 18.6595 14.5385 18.7295 13.0948C18.8016 11.8518 18.7881 10.6179 18.7881 9.37266ZM9.76933 13.9994C7.20897 13.9994 5.14264 11.933 5.14264 9.37266C5.14264 6.8123 7.20897 4.74597 9.76933 4.74597C12.3297 4.74597 14.396 6.8123 14.396 9.37266C14.396 11.933 12.3297 13.9994 9.76933 13.9994ZM14.5855 5.63702C13.9877 5.63702 13.505 5.15427 13.505 4.55648C13.505 3.95869 13.9877 3.47594 14.5855 3.47594C15.1833 3.47594 15.666 3.95869 15.666 4.55648C15.6662 4.69843 15.6384 4.83902 15.5842 4.97019C15.5299 5.10137 15.4503 5.22056 15.35 5.32093C15.2496 5.42131 15.1304 5.50089 14.9992 5.55513C14.868 5.60937 14.7275 5.6372 14.5855 5.63702Z" fill="white"/>
</svg>
