<svg width="18" height="17" viewBox="0 0 18 17" fill="none" xmlns="http://www.w3.org/2000/svg">
<path d="M4.57096 16.3746V5.36359H0.911119V16.3746H4.57096ZM2.74151 3.85932C4.01776 3.85932 4.81217 3.0138 4.81217 1.95718C4.78839 0.876738 4.01781 0.0546875 2.76573 0.0546875C1.51385 0.0546875 0.69519 0.876754 0.69519 1.95718C0.69519 3.01385 1.4894 3.85932 2.71762 3.85932H2.7414H2.74151ZM6.59667 16.3746H10.2565V10.2255C10.2565 9.89643 10.2803 9.56768 10.3769 9.33243C10.6415 8.67492 11.2437 7.99392 12.2547 7.99392C13.579 7.99392 14.1089 9.00367 14.1089 10.4839V16.3745H17.7685V10.0609C17.7685 6.67876 15.9629 5.10508 13.5549 5.10508C11.5806 5.10508 10.7137 6.20867 10.2322 6.96031H10.2566V5.36336H6.59675C6.64478 6.39658 6.59675 16.3744 6.59675 16.3744L6.59667 16.3746Z" fill="#AC95CF"/>
</svg>
