<svg width="18" height="17" viewBox="0 0 18 17" fill="none" xmlns="http://www.w3.org/2000/svg">
<path d="M4.57108 16.3746V5.36359H0.911241V16.3746H4.57108ZM2.74163 3.85932C4.01788 3.85932 4.81229 3.0138 4.81229 1.95718C4.78851 0.876738 4.01793 0.0546875 2.76585 0.0546875C1.51397 0.0546875 0.695312 0.876754 0.695312 1.95718C0.695312 3.01385 1.48952 3.85932 2.71774 3.85932H2.74152H2.74163ZM6.59679 16.3746H10.2566V10.2255C10.2566 9.89643 10.2804 9.56768 10.3771 9.33243C10.6416 8.67492 11.2438 7.99392 12.2548 7.99392C13.5792 7.99392 14.109 9.00367 14.109 10.4839V16.3745H17.7686V10.0609C17.7686 6.67876 15.963 5.10508 13.5551 5.10508C11.5807 5.10508 10.7139 6.20867 10.2323 6.96031H10.2567V5.36336H6.59687C6.6449 6.39658 6.59687 16.3744 6.59687 16.3744L6.59679 16.3746Z" fill="white"/>
</svg>
