<?xml version="1.0" encoding="UTF-8"?>
<svg width="12px" height="16px" viewBox="0 0 12 16" version="1.1" xmlns="http://www.w3.org/2000/svg" xmlns:xlink="http://www.w3.org/1999/xlink">
    <title>twitter</title>
    <g id="Page-1" stroke="none" stroke-width="1" fill="none" fill-rule="evenodd">
        <g id="twitter" fill="#AB95CF" fill-rule="nonzero">
            <path d="M10,12 L6,12 C4.897,12 4,11.103 4,10 L4,9 L10,9 C11.1045695,9 12,8.1045695 12,7 C12,5.8954305 11.1045695,5 10,5 L4,5 L4,2 C4,0.8954305 3.1045695,0 2,0 C0.8954305,0 0,0.8954305 0,2 L0,10 C0,13.309 2.691,16 6,16 L10,16 C11.1045695,16 12,15.1045695 12,14 C12,12.8954305 11.1045695,12 10,12 Z" id="Path"></path>
        </g>
    </g>
</svg>