<svg width="22" height="22" viewBox="0 0 22 22" fill="none" xmlns="http://www.w3.org/2000/svg">
<path d="M18.295 3.20066C16.331 1.19694 13.6369 0.0728268 10.8315 0.0860529H10.8136C5.03612 0.086071 0.281781 4.84043 0.281781 10.6179C0.281781 10.645 0.282359 10.6716 0.282359 10.6987C0.304121 12.5356 0.779647 14.3386 1.66662 15.9473L0.166992 21.4267L5.75593 19.9847C7.29988 20.8324 9.03564 21.2693 10.7969 21.2536C16.5958 21.2219 21.3495 16.4405 21.3461 10.641C21.3599 7.85463 20.2612 5.17495 18.295 3.20066ZM10.8315 19.4656C9.27028 19.4738 7.73653 19.0549 6.39613 18.2544L6.05007 18.0814L2.72209 18.9465L3.58724 15.6589L3.35655 15.3129C2.49957 13.9291 2.04556 12.3338 2.04553 10.7062C2.04553 5.9063 5.99528 1.95654 10.7952 1.95654C15.5951 1.95654 19.5448 5.9063 19.5448 10.7062C19.5448 13.7285 17.9789 16.5443 15.4111 18.1391C14.053 19.009 12.4732 19.4695 10.8604 19.4656M15.9302 13.0635L15.2957 12.7751C15.2957 12.7751 14.3729 12.3713 13.7961 12.083C13.7384 12.083 13.6808 12.0253 13.6231 12.0253C13.4809 12.0288 13.3419 12.0685 13.2193 12.1406C13.0965 12.2127 13.1617 12.1983 12.3542 13.1211C12.2994 13.229 12.1869 13.2965 12.0658 13.2942H12.0081C11.9214 13.2797 11.8411 13.2395 11.7774 13.1788L11.489 13.0635C10.8702 12.8015 10.3037 12.4303 9.81638 11.9676C9.70103 11.8522 9.52801 11.7369 9.41264 11.6215C8.98566 11.2125 8.61693 10.7467 8.31679 10.2373L8.2591 10.1219C8.20899 10.0514 8.17009 9.9736 8.14375 9.89121C8.12867 9.7913 8.14907 9.68926 8.20142 9.60284C8.25391 9.51631 8.43214 9.31443 8.60516 9.14141C8.7782 8.96838 8.7782 8.85303 8.89355 8.73767C8.95284 8.65533 8.99381 8.56126 9.01371 8.46177C9.0336 8.36228 9.03196 8.25969 9.0089 8.16089C8.74011 7.41457 8.43207 6.68297 8.08607 5.96916C7.99333 5.82493 7.84885 5.72172 7.68233 5.68077H7.04788C6.93253 5.68077 6.81718 5.73845 6.70181 5.73845L6.64414 5.79612C6.52879 5.8538 6.41344 5.96916 6.29807 6.02684C6.18272 6.08451 6.12505 6.25755 6.0097 6.3729C5.60649 6.88243 5.38339 7.51116 5.37524 8.16089C5.38163 8.61792 5.47969 9.06903 5.66362 9.48747L5.72131 9.6605C6.2392 10.7678 6.96349 11.7661 7.85538 12.602L8.08607 12.8328C8.25396 12.9718 8.40844 13.1263 8.54749 13.2942C9.74255 14.3341 11.162 15.0839 12.6945 15.4859C12.8675 15.5436 13.0982 15.5436 13.2713 15.6013H13.848C14.1495 15.5864 14.4444 15.5078 14.7132 15.3705C14.8545 15.3065 14.9895 15.2293 15.1169 15.1398L15.2323 15.0245C15.3476 14.9091 15.463 14.8515 15.5783 14.7361C15.6911 14.6357 15.7883 14.519 15.8667 14.39C15.9775 14.1316 16.0553 13.8606 16.0974 13.5826V13.1788C16.0456 13.1322 15.9873 13.0934 15.9244 13.0635" fill="white"/>
</svg>
