<svg width="62" height="38" viewBox="0 0 62 38" fill="none" xmlns="http://www.w3.org/2000/svg">
<rect width="61.7001" height="38" rx="19" transform="matrix(-1 0 0 1 62 0)" fill="#E0E0E0"/>
<path fill-rule="evenodd" clip-rule="evenodd" d="M27.5565 12.2045C27.6947 12.0732 27.8782 12 28.0689 12C28.2596 12 28.443 12.0732 28.5813 12.2045L34.5753 17.9893C34.7095 18.1168 34.8163 18.2703 34.8893 18.4404C34.9624 18.6105 35 18.7936 35 18.9788C35 19.1639 34.9624 19.347 34.8893 19.5171C34.8163 19.6872 34.7095 19.8407 34.5753 19.9682L28.5379 25.7957C28.2579 26.0652 27.8043 26.0687 27.5201 25.8027C27.4513 25.7393 27.3962 25.6625 27.3583 25.5769C27.3205 25.4914 27.3006 25.399 27.2999 25.3054C27.2993 25.2119 27.3179 25.1192 27.3545 25.0332C27.3912 24.9471 27.4452 24.8695 27.5131 24.8052L33.0381 19.4733C33.1053 19.4095 33.1587 19.3328 33.1953 19.2477C33.2318 19.1626 33.2507 19.071 33.2507 18.9784C33.2507 18.8858 33.2318 18.7942 33.1953 18.7091C33.1587 18.624 33.1053 18.5473 33.0381 18.4835L27.5572 13.1936C27.49 13.1299 27.4366 13.0532 27.4001 12.9682C27.3635 12.8832 27.3447 12.7916 27.3447 12.6991C27.3447 12.6065 27.3635 12.515 27.4001 12.43C27.4366 12.3449 27.4893 12.2682 27.5565 12.2045Z" fill="black"/>
</svg>
