<svg width="17" height="9" viewBox="0 0 17 9" fill="none" xmlns="http://www.w3.org/2000/svg">
<path d="M16.7802 1.2809L9.28104 8.78006C9.21139 8.84978 9.12868 8.9051 9.03764 8.94284C8.9466 8.98058 8.84902 9 8.75047 9C8.65192 9 8.55434 8.98058 8.4633 8.94284C8.37226 8.9051 8.28955 8.84978 8.2199 8.78006L0.720744 1.2809C0.580029 1.14018 0.500977 0.949334 0.500977 0.750333C0.500977 0.551332 0.580029 0.360482 0.720744 0.219767C0.861459 0.0790523 1.05231 0 1.25131 0C1.45031 0 1.64116 0.0790523 1.78188 0.219767L8.75047 7.1893L15.7191 0.219767C15.7887 0.150092 15.8715 0.0948231 15.9625 0.0571154C16.0535 0.0194076 16.1511 0 16.2496 0C16.3482 0 16.4457 0.0194076 16.5368 0.0571154C16.6278 0.0948231 16.7105 0.150092 16.7802 0.219767C16.8499 0.289442 16.9051 0.372158 16.9428 0.463193C16.9806 0.554227 17 0.651798 17 0.750333C17 0.848868 16.9806 0.946439 16.9428 1.03747C16.9051 1.12851 16.8499 1.21122 16.7802 1.2809Z" fill="white"/>
</svg>
