<svg width="63" height="38" viewBox="0 0 63 38" fill="none" xmlns="http://www.w3.org/2000/svg">
<rect x="0.599609" width="61.7001" height="38" rx="19" fill="#E0E0E0"/>
<path fill-rule="evenodd" clip-rule="evenodd" d="M35.0431 12.2045C34.9049 12.0732 34.7214 12 34.5308 12C34.3401 12 34.1566 12.0732 34.0184 12.2045L28.0243 17.9893C27.8901 18.1168 27.7833 18.2703 27.7103 18.4404C27.6373 18.6105 27.5996 18.7936 27.5996 18.9788C27.5996 19.1639 27.6373 19.347 27.7103 19.5171C27.7833 19.6872 27.8901 19.8407 28.0243 19.9682L34.0618 25.7957C34.3418 26.0652 34.7953 26.0687 35.0795 25.8027C35.1484 25.7393 35.2034 25.6625 35.2413 25.5769C35.2791 25.4914 35.299 25.399 35.2997 25.3054C35.3003 25.2119 35.2817 25.1192 35.2451 25.0332C35.2084 24.9471 35.1545 24.8695 35.0865 24.8052L29.5615 19.4733C29.4943 19.4095 29.4409 19.3328 29.4043 19.2477C29.3678 19.1626 29.349 19.071 29.349 18.9784C29.349 18.8858 29.3678 18.7942 29.4043 18.7091C29.4409 18.624 29.4943 18.5473 29.5615 18.4835L35.0424 13.1936C35.1096 13.1299 35.163 13.0532 35.1996 12.9682C35.2361 12.8832 35.2549 12.7916 35.2549 12.6991C35.2549 12.6065 35.2361 12.515 35.1996 12.43C35.163 12.3449 35.1103 12.2682 35.0431 12.2045Z" fill="black"/>
</svg>
