<svg width="659" height="380" viewBox="0 0 659 380" fill="none" xmlns="http://www.w3.org/2000/svg">
<mask id="mask0_279_343" style="mask-type:alpha" maskUnits="userSpaceOnUse" x="0" y="0" width="659" height="380">
<rect width="659" height="380" transform="matrix(1 -8.74228e-08 -8.74228e-08 -1 0 380)" fill="#C4C4C4"/>
</mask>
<g mask="url(#mask0_279_343)">
<g filter="url(#filter0_f_279_343)">
<path d="M1320 651.027C1320 413.62 829.976 433.404 225.5 433.404C-378.976 433.404 -869 530.837 -869 651.027C-869 771.217 -378.976 868.65 225.5 868.65C829.976 868.649 1320 909.454 1320 651.027Z" fill="url(#paint0_linear_279_343)"/>
</g>
<g filter="url(#filter1_f_279_343)">
<ellipse cx="348" cy="83" rx="348" ry="83" transform="matrix(-1 3.39506e-09 -3.53224e-09 1 1122 150)" fill="#1C1C1C"/>
</g>
<g filter="url(#filter2_f_279_343)">
<ellipse cx="571.5" cy="135.5" rx="571.5" ry="135.5" transform="matrix(-1 3.39506e-09 -3.53224e-09 1 581 85)" fill="#1C1C1C" fill-opacity="0.7"/>
</g>
</g>
<defs>
<filter id="filter0_f_279_343" x="-1349" y="-47" width="3149" height="1398" filterUnits="userSpaceOnUse" color-interpolation-filters="sRGB">
<feFlood flood-opacity="0" result="BackgroundImageFix"/>
<feBlend mode="normal" in="SourceGraphic" in2="BackgroundImageFix" result="shape"/>
<feGaussianBlur stdDeviation="240" result="effect1_foregroundBlur_279_343"/>
</filter>
<filter id="filter1_f_279_343" x="356" y="80" width="836" height="306" filterUnits="userSpaceOnUse" color-interpolation-filters="sRGB">
<feFlood flood-opacity="0" result="BackgroundImageFix"/>
<feBlend mode="normal" in="SourceGraphic" in2="BackgroundImageFix" result="shape"/>
<feGaussianBlur stdDeviation="35" result="effect1_foregroundBlur_279_343"/>
</filter>
<filter id="filter2_f_279_343" x="-632" y="15" width="1283" height="411" filterUnits="userSpaceOnUse" color-interpolation-filters="sRGB">
<feFlood flood-opacity="0" result="BackgroundImageFix"/>
<feBlend mode="normal" in="SourceGraphic" in2="BackgroundImageFix" result="shape"/>
<feGaussianBlur stdDeviation="35" result="effect1_foregroundBlur_279_343"/>
</filter>
<linearGradient id="paint0_linear_279_343" x1="1081" y1="974" x2="522.171" y2="374.835" gradientUnits="userSpaceOnUse">
<stop stop-color="#FF7A1A"/>
<stop offset="1" stop-color="#AC95CF"/>
</linearGradient>
</defs>
</svg>
