<svg width="1380" height="437" viewBox="0 0 1380 437" fill="none" xmlns="http://www.w3.org/2000/svg">
<g clip-path="url(#clip0_171_274)">
<path d="M-11 0H1380V437H-11V0Z" fill="black"/>
<path d="M120.5 303.686C99.3664 303.686 76.5664 290.43 76.5664 261.343C76.5664 232.256 99.3664 219 120.5 219C132.241 219 143.073 222.863 151.102 229.908C159.813 237.634 164.433 248.542 164.433 261.343C164.433 274.144 159.813 284.976 151.102 292.702C143.073 299.747 132.165 303.686 120.5 303.686Z" fill="url(#paint0_radial_171_274)"/>
<path d="M156.776 236.175C160.813 242.689 162.919 250.446 162.919 259.073C162.919 271.874 158.298 282.706 149.587 290.433C141.558 297.477 130.65 301.416 118.985 301.416C105.305 301.416 90.9284 295.849 82.4901 284.04C90.6405 297.417 105.964 303.688 120.5 303.688C132.165 303.688 143.073 299.75 151.102 292.705C159.813 284.979 164.434 274.147 164.434 261.346C164.434 251.695 161.805 243.121 156.776 236.175Z" fill="#AC95CF"/>
<path opacity="0.8" d="M92.9659 281.36C100.287 281.36 106.222 275.425 106.222 268.104C106.222 260.783 100.287 254.848 92.9659 254.848C85.6449 254.848 79.7101 260.783 79.7101 268.104C79.7101 275.425 85.6449 281.36 92.9659 281.36Z" fill="url(#paint1_radial_171_274)"/>
<path opacity="0.8" d="M148.639 281.36C155.96 281.36 161.895 275.425 161.895 268.104C161.895 260.783 155.96 254.848 148.639 254.848C141.318 254.848 135.383 260.783 135.383 268.104C135.383 275.425 141.318 281.36 148.639 281.36Z" fill="url(#paint2_radial_171_274)"/>
<path d="M109.413 256.781C109.413 256.781 109.375 256.728 109.292 256.629C109.216 256.531 109.11 256.395 108.974 256.22C108.86 256.099 108.724 255.955 108.565 255.789C108.406 255.607 108.209 255.417 108.012 255.22C107.807 255.031 107.595 254.834 107.376 254.675C107.164 254.501 106.929 254.372 106.739 254.266C106.542 254.145 106.361 254.115 106.247 254.077C106.186 254.054 106.133 254.054 106.088 254.046C106.065 254.054 106.043 254.039 106.02 254.046L105.989 254.054H105.974H105.967C106.058 254.054 105.762 254.061 106.171 254.046L105.755 254.061C105.649 254.061 105.717 254.069 105.724 254.069C105.747 254.069 105.762 254.069 105.777 254.061C105.838 254.039 105.777 254.061 105.762 254.061C105.74 254.061 105.709 254.069 105.679 254.084C105.558 254.122 105.376 254.152 105.187 254.274C104.997 254.38 104.762 254.508 104.55 254.683C104.338 254.849 104.119 255.039 103.914 255.228C103.52 255.614 103.172 256.001 102.929 256.281C102.679 256.569 102.543 256.735 102.543 256.735L102.369 256.94C101.331 258.152 99.4222 258.356 98.1118 257.402C97.2179 256.751 96.8316 255.736 96.9983 254.766C96.9983 254.766 97.0513 254.455 97.2028 253.918C97.3619 253.38 97.627 252.615 98.1496 251.713C98.6723 250.819 99.4298 249.767 100.71 248.805C101.339 248.335 102.104 247.865 103.013 247.547C103.232 247.464 103.467 247.388 103.709 247.328C103.959 247.267 104.156 247.199 104.497 247.153L104.967 247.085C105.111 247.07 105.323 247.047 105.353 247.047L105.77 247.017L106.005 247.009H106.027H106.073L106.171 247.017H106.353L106.739 247.04C106.997 247.062 107.247 247.108 107.497 247.146C107.989 247.237 108.482 247.365 108.928 247.532C109.837 247.85 110.603 248.312 111.231 248.789C112.511 249.751 113.269 250.804 113.791 251.698C114.057 252.145 114.254 252.569 114.397 252.94C114.557 253.296 114.67 253.675 114.761 253.955C114.844 254.228 114.844 254.372 114.882 254.501C114.905 254.622 114.913 254.69 114.913 254.69C115.193 256.22 114.064 257.667 112.405 257.917C111.216 258.106 110.072 257.629 109.413 256.781Z" fill="#422B0D"/>
<path d="M139.33 256.781C139.33 256.781 139.292 256.728 139.209 256.629C139.133 256.531 139.027 256.395 138.891 256.22C138.777 256.099 138.641 255.955 138.482 255.789C138.323 255.607 138.126 255.417 137.929 255.22C137.724 255.031 137.512 254.834 137.293 254.675C137.08 254.501 136.846 254.372 136.656 254.266C136.459 254.145 136.278 254.115 136.164 254.077C136.103 254.054 136.05 254.054 136.005 254.046C135.982 254.054 135.959 254.039 135.937 254.046L135.906 254.054H135.891H135.884H135.876C135.967 254.054 135.672 254.061 136.081 254.046L135.664 254.061C135.558 254.061 135.626 254.069 135.634 254.069C135.656 254.069 135.672 254.069 135.687 254.061C135.747 254.039 135.687 254.061 135.672 254.061C135.649 254.061 135.619 254.069 135.588 254.084C135.467 254.122 135.285 254.152 135.096 254.274C134.907 254.38 134.672 254.508 134.46 254.683C134.248 254.849 134.028 255.039 133.823 255.228C133.429 255.614 133.081 256.001 132.839 256.281C132.589 256.569 132.452 256.735 132.452 256.735L132.278 256.94C131.24 258.152 129.331 258.356 128.021 257.402C127.127 256.751 126.741 255.736 126.908 254.766C126.908 254.766 126.961 254.455 127.112 253.918C127.271 253.38 127.536 252.615 128.059 251.713C128.582 250.819 129.339 249.767 130.619 248.805C131.248 248.335 132.013 247.865 132.922 247.547C133.142 247.464 133.376 247.388 133.619 247.328C133.869 247.267 134.066 247.199 134.407 247.153L134.876 247.085C135.02 247.07 135.232 247.047 135.263 247.047L135.679 247.017L135.914 247.009H135.937H135.982L136.081 247.017H136.262L136.649 247.04C136.906 247.062 137.156 247.108 137.406 247.146C137.899 247.237 138.391 247.365 138.838 247.532C139.747 247.85 140.512 248.312 141.141 248.789C142.421 249.751 143.178 250.804 143.701 251.698C143.966 252.145 144.163 252.569 144.307 252.94C144.466 253.296 144.579 253.675 144.67 253.955C144.754 254.228 144.754 254.372 144.792 254.501C144.814 254.622 144.822 254.69 144.822 254.69C145.102 256.22 143.973 257.667 142.315 257.917C141.125 258.106 139.982 257.629 139.33 256.781Z" fill="#422B0D"/>
<path d="M120.824 284.888C111.303 284.888 103.774 280.381 99.6226 275.556C99.206 275.071 99.1075 274.419 99.3726 273.851C99.6377 273.268 100.213 272.889 100.835 272.889C101.115 272.889 101.403 272.965 101.653 273.109C105.932 275.578 113.121 278.631 120.802 278.631H120.923C128.611 278.631 135.792 275.571 140.072 273.109C140.329 272.965 140.61 272.882 140.89 272.889C141.511 272.889 142.087 273.268 142.352 273.851C142.609 274.419 142.518 275.078 142.102 275.556C137.951 280.373 130.414 284.888 120.9 284.888" fill="#422B0D"/>
<path d="M77.226 354.072C81.098 354.072 83.786 352.12 85.29 348.888L82.378 347.128C81.578 349.304 79.882 350.84 77.226 350.84C73.802 350.84 71.69 348.344 71.69 344.216V340.824C71.69 336.696 73.802 334.2 77.226 334.2C79.818 334.2 81.386 335.576 82.154 337.688L85.194 336.024C83.69 332.696 81.098 330.968 77.226 330.968C71.402 330.968 67.85 335.032 67.85 342.52C67.85 350.008 71.402 354.072 77.226 354.072ZM94.1152 354.072C98.7552 354.072 101.763 350.68 101.763 345.368C101.763 340.056 98.7552 336.664 94.1152 336.664C89.4752 336.664 86.4672 340.056 86.4672 345.368C86.4672 350.68 89.4752 354.072 94.1152 354.072ZM94.1152 351.192C91.7472 351.192 90.1472 349.72 90.1472 346.776V343.96C90.1472 341.016 91.7472 339.544 94.1152 339.544C96.4832 339.544 98.0833 341.016 98.0833 343.96V346.776C98.0833 349.72 96.4832 351.192 94.1152 351.192ZM107.858 353.688V342.552C107.858 340.6 109.65 339.672 111.474 339.672C113.618 339.672 114.61 340.984 114.61 343.576V353.688H118.098V343.128C118.098 339.032 116.082 336.664 112.69 336.664C110.13 336.664 108.722 338.008 108.018 339.8H107.858V337.048H104.37V353.688H107.858ZM129.3 353.688V350.84H126.068V339.896H129.556V337.048H126.068V332.504H122.932V335.416C122.932 336.568 122.548 337.048 121.396 337.048H119.988V339.896H122.58V350.072C122.58 352.344 123.86 353.688 126.26 353.688H129.3ZM138.463 354.072C141.567 354.072 143.999 352.728 145.247 350.712L143.199 348.696C142.239 350.232 140.863 351.192 138.815 351.192C135.999 351.192 134.431 349.368 134.431 346.808V346.264H145.855V344.952C145.855 340.344 143.359 336.664 138.463 336.664C133.727 336.664 130.815 340.056 130.815 345.368C130.815 350.68 133.727 354.072 138.463 354.072ZM138.463 339.384C140.767 339.384 142.175 341.08 142.175 343.64V343.96H134.431V343.736C134.431 341.176 136.063 339.384 138.463 339.384ZM151.924 353.688V342.552C151.924 340.6 153.716 339.672 155.54 339.672C157.684 339.672 158.676 340.984 158.676 343.576V353.688H162.164V343.128C162.164 339.032 160.148 336.664 156.756 336.664C154.196 336.664 152.788 338.008 152.084 339.8H151.924V337.048H148.436V353.688H151.924ZM173.367 353.688V350.84H170.135V339.896H173.623V337.048H170.135V332.504H166.999V335.416C166.999 336.568 166.615 337.048 165.463 337.048H164.055V339.896H166.647V350.072C166.647 352.344 167.927 353.688 170.327 353.688H173.367Z" fill="white"/>
<path d="M301.86 303.688C281.338 303.688 259.198 290.816 259.198 262.571C259.198 234.326 281.338 221.453 301.86 221.453C313.261 221.453 323.78 225.205 331.577 232.045C340.036 239.548 344.523 250.14 344.523 262.571C344.523 275.002 340.036 285.52 331.577 293.023C323.765 299.864 313.188 303.688 301.86 303.688Z" fill="url(#paint3_radial_171_274)"/>
<path d="M287.723 246.418C284.641 246.418 281.839 249.022 281.839 253.347C281.839 257.672 284.641 260.269 287.723 260.269C290.813 260.269 293.608 257.665 293.608 253.347C293.608 249.03 290.842 246.418 287.723 246.418Z" fill="#422B0D"/>
<path d="M287.467 249.309C286.422 248.809 285.165 249.25 284.657 250.295C284.267 251.111 284.444 252.089 285.098 252.722C286.143 253.222 287.401 252.781 287.908 251.736C288.298 250.92 288.122 249.942 287.467 249.309Z" fill="#896024"/>
<path d="M315.967 246.418C312.885 246.418 310.083 249.022 310.083 253.347C310.083 257.672 312.885 260.269 315.967 260.269C319.049 260.269 321.852 257.665 321.852 253.347C321.852 249.03 319.049 246.418 315.967 246.418Z" fill="#422B0D"/>
<path d="M315.674 249.309C314.63 248.809 313.372 249.25 312.864 250.295C312.474 251.111 312.651 252.089 313.306 252.722C314.35 253.222 315.608 252.781 316.115 251.736C316.505 250.92 316.329 249.942 315.674 249.309Z" fill="#896024"/>
<path d="M337.365 238.128C341.286 244.454 343.331 251.986 343.331 260.364C343.331 272.795 338.844 283.313 330.385 290.816C322.588 297.657 311.996 301.482 300.668 301.482C287.384 301.482 273.453 296.075 265.229 284.608C273.144 297.598 288.032 303.688 302.14 303.688C313.467 303.688 324.059 299.863 331.856 293.023C340.315 285.52 344.802 275.002 344.802 262.571C344.802 253.2 342.249 244.873 337.365 238.128Z" fill="#AC95CF"/>
<path d="M330.436 268.984C329.407 267.123 327.171 266.307 325.185 267.057C317.638 269.256 309.811 270.352 301.948 270.316C294.085 270.352 286.259 269.256 278.712 267.057C276.734 266.307 274.498 267.116 273.468 268.969C272.467 270.816 273.188 272.956 274.034 274.802C278.756 285.174 289.164 291.382 301.89 291.419H302.007C314.732 291.419 325.14 285.174 329.87 274.802C330.709 272.941 331.437 270.83 330.436 268.984Z" fill="#422B0D"/>
<path d="M313.725 288.492C313.453 288.242 313.173 288.014 312.894 287.756C309.893 285.116 306.009 283.696 302.008 283.777C297.889 283.711 293.88 285.079 290.665 287.653C290.386 287.881 290.092 288.102 289.82 288.389C289.547 288.676 289.4 288.882 289.224 289.124C293.269 290.706 297.58 291.515 301.927 291.493H302.044C306.208 291.493 310.334 290.75 314.233 289.286C314.085 289.007 313.916 288.742 313.725 288.492Z" fill="#ED7770"/>
<path d="M325.185 267.058C317.638 269.258 309.812 270.353 301.949 270.317C294.086 270.353 286.26 269.258 278.713 267.058C276.734 266.308 274.498 267.117 273.468 268.971C273.321 269.25 273.203 269.544 273.13 269.846C273.373 269.971 273.652 270.096 273.983 270.228C282.839 274.664 292.629 276.915 302.53 276.797C312.026 276.907 321.412 274.84 329.988 270.765C330.334 270.618 330.621 270.479 330.878 270.346C330.819 269.868 330.665 269.397 330.437 268.971C329.407 267.117 327.171 266.301 325.185 267.058Z" fill="white"/>
<path d="M330.466 268.992C329.421 267.131 327.178 266.307 325.177 267.057C317.63 269.256 309.804 270.352 301.948 270.316C294.085 270.352 286.259 269.256 278.712 267.057C276.734 266.307 274.498 267.116 273.468 268.969C272.467 270.816 273.188 272.956 274.034 274.802C274.409 275.634 274.829 276.45 275.292 277.237C275.292 277.237 273.747 271.515 275.086 269.852C275.542 269.146 276.307 268.705 277.146 268.661C277.491 268.661 277.83 268.719 278.161 268.822C285.84 271.081 293.806 272.221 301.816 272.206H302.073C310.084 272.221 318.05 271.081 325.729 268.822C326.06 268.719 326.398 268.661 326.744 268.661C327.582 268.705 328.355 269.146 328.811 269.852C330.172 271.515 328.605 277.259 328.605 277.259C329.061 276.472 329.517 275.663 329.899 274.825C330.738 272.978 331.466 270.845 330.466 268.992Z" fill="#AC95CF"/>
<path d="M273.79 353.688H277.406V331.352H273.79V340.76H263.678V331.352H260.062V353.688H263.678V343.96H273.79V353.688ZM295.514 353.688V350.84H293.754V342.488C293.754 338.776 291.354 336.664 287.066 336.664C283.834 336.664 281.882 338.04 280.794 339.896L282.874 341.784C283.706 340.472 284.89 339.512 286.842 339.512C289.178 339.512 290.266 340.696 290.266 342.712V344.12H287.258C282.618 344.12 280.154 345.816 280.154 349.112C280.154 352.12 282.106 354.072 285.53 354.072C287.962 354.072 289.754 352.984 290.394 350.904H290.554C290.778 352.536 291.738 353.688 293.562 353.688H295.514ZM286.522 351.416C284.794 351.416 283.706 350.648 283.706 349.176V348.6C283.706 347.16 284.89 346.36 287.322 346.36H290.266V348.76C290.266 350.392 288.666 351.416 286.522 351.416ZM297.652 360.088H301.14V350.936H301.3C302.004 352.888 303.764 354.072 305.972 354.072C310.164 354.072 312.596 350.84 312.596 345.368C312.596 339.896 310.164 336.664 305.972 336.664C303.764 336.664 302.004 337.816 301.3 339.8H301.14V337.048H297.652V360.088ZM304.916 351.064C302.804 351.064 301.14 349.912 301.14 348.216V342.52C301.14 340.824 302.804 339.672 304.916 339.672C307.316 339.672 308.916 341.368 308.916 343.928V346.808C308.916 349.368 307.316 351.064 304.916 351.064ZM315.31 360.088H318.798V350.936H318.958C319.662 352.888 321.422 354.072 323.63 354.072C327.822 354.072 330.254 350.84 330.254 345.368C330.254 339.896 327.822 336.664 323.63 336.664C321.422 336.664 319.662 337.816 318.958 339.8H318.798V337.048H315.31V360.088ZM322.574 351.064C320.462 351.064 318.798 349.912 318.798 348.216V342.52C318.798 340.824 320.462 339.672 322.574 339.672C324.974 339.672 326.574 341.368 326.574 343.928V346.808C326.574 349.368 324.974 351.064 322.574 351.064ZM339.629 346.84L338.573 350.456H338.413L337.453 346.84L334.125 337.048H330.637L336.685 354.424L335.725 357.24H332.909V360.088H334.925C337.517 360.088 338.509 359.224 339.309 356.984L346.317 337.048H342.957L339.629 346.84Z" fill="white"/>
<path d="M491.995 309.686C471.522 309.686 449.434 296.844 449.434 268.666C449.434 240.488 471.522 227.646 491.995 227.646C503.369 227.646 513.863 231.388 521.641 238.213C530.08 245.698 534.556 256.265 534.556 268.666C534.556 281.068 530.08 291.561 521.641 299.046C513.863 305.87 503.296 309.686 491.995 309.686Z" fill="url(#paint4_radial_171_274)"/>
<path d="M527.147 244.284C531.058 250.594 533.098 258.109 533.098 266.467C533.098 278.868 528.622 289.362 520.183 296.847C512.405 303.671 501.838 307.487 490.537 307.487C477.285 307.487 463.386 302.093 455.182 290.653C463.078 303.612 477.93 309.688 492.005 309.688C503.306 309.688 513.872 305.873 521.651 299.048C530.09 291.563 534.566 281.07 534.566 268.668C534.566 259.32 532.02 251.013 527.147 244.284Z" fill="#AC95CF"/>
<path d="M481.277 264.257L481.167 264.11L480.852 263.707L480.463 263.288C480.301 263.105 480.111 262.929 479.927 262.738C479.744 262.547 479.516 262.364 479.311 262.21C479.12 262.063 478.914 261.924 478.694 261.813C478.548 261.733 478.386 261.667 478.217 261.63C478.166 261.623 478.115 261.623 478.063 261.63C478.063 261.63 478.019 261.63 477.997 261.63H477.939H478.137H477.733C477.696 261.63 477.623 261.63 477.733 261.63H477.792H477.711C477.542 261.667 477.381 261.725 477.227 261.813C477.014 261.931 476.801 262.063 476.61 262.21C476.398 262.371 476.192 262.547 476.001 262.738C475.612 263.112 475.267 263.472 475.047 263.758L474.666 264.198L474.497 264.397C473.44 265.578 471.657 265.769 470.373 264.844C469.551 264.272 469.133 263.281 469.294 262.29C469.294 262.29 469.346 261.997 469.485 261.476C469.705 260.735 470.013 260.016 470.402 259.341C471.026 258.24 471.87 257.279 472.883 256.515C473.55 256.002 474.291 255.591 475.084 255.305C475.304 255.217 475.532 255.15 475.759 255.092C476.001 255.018 476.243 254.967 476.493 254.923L476.941 254.857L477.315 254.813H477.718H478.298H478.672C478.922 254.813 479.164 254.879 479.406 254.916C479.876 254.996 480.345 255.121 480.793 255.29C481.586 255.576 482.327 255.987 482.994 256.501C484.007 257.264 484.851 258.225 485.475 259.326C485.702 259.707 485.9 260.111 486.062 260.522C486.201 260.852 486.319 261.182 486.414 261.527C486.465 261.703 486.509 261.88 486.531 262.056V262.239C486.752 263.736 485.71 265.13 484.213 265.35C484.176 265.358 484.139 265.358 484.103 265.365C483.031 265.519 481.96 265.094 481.277 264.257Z" fill="#422B0D"/>
<path d="M510.232 264.257L510.115 264.11L509.799 263.707L509.41 263.288C509.249 263.105 509.058 262.929 508.874 262.738C508.691 262.547 508.463 262.364 508.258 262.21C508.067 262.063 507.862 261.924 507.642 261.813C507.495 261.733 507.333 261.667 507.165 261.63C507.113 261.623 507.062 261.623 507.011 261.63C507.011 261.63 506.967 261.63 506.944 261.63H506.886H507.084H506.68C506.644 261.63 506.57 261.63 506.68 261.63H506.739H506.658C506.49 261.667 506.328 261.725 506.174 261.813C505.961 261.924 505.756 262.063 505.565 262.21C505.345 262.371 505.139 262.547 504.949 262.738C504.56 263.112 504.215 263.472 503.995 263.758L503.613 264.198L503.452 264.397C502.388 265.578 500.612 265.769 499.32 264.844C498.498 264.272 498.08 263.281 498.241 262.29C498.241 262.29 498.293 261.997 498.44 261.476C498.66 260.727 498.961 260.008 499.357 259.341C499.981 258.24 500.817 257.279 501.83 256.515C502.498 256.002 503.239 255.591 504.031 255.305C504.251 255.217 504.479 255.15 504.706 255.092C504.949 255.018 505.191 254.967 505.44 254.923L505.895 254.857L506.262 254.813H506.666H507.245H507.62C507.869 254.813 508.111 254.879 508.353 254.916C508.83 254.996 509.293 255.121 509.74 255.29C510.533 255.576 511.274 255.987 511.942 256.501C512.954 257.264 513.798 258.225 514.422 259.326C514.65 259.707 514.848 260.111 515.009 260.522C515.149 260.845 515.266 261.175 515.361 261.513C515.413 261.689 515.457 261.865 515.479 262.041V262.224C515.714 263.721 514.686 265.123 513.189 265.358C513.167 265.358 513.145 265.365 513.123 265.365C512.03 265.549 510.922 265.123 510.232 264.257Z" fill="#422B0D"/>
<path d="M520.223 275.064C519.196 273.207 516.965 272.393 514.984 273.141C507.455 275.335 499.647 276.429 491.803 276.392C483.958 276.429 476.151 275.335 468.622 273.141C466.648 272.393 464.417 273.2 463.39 275.049C462.392 276.891 463.111 279.027 463.955 280.868C468.666 291.215 479.049 297.409 491.744 297.445H491.862C504.557 297.445 514.94 291.215 519.658 280.868C520.495 279.012 521.221 276.906 520.223 275.064Z" fill="#422B0D"/>
<path d="M503.549 294.527C503.278 294.277 502.999 294.05 502.72 293.793C499.726 291.159 495.852 289.742 491.86 289.823C487.75 289.757 483.751 291.122 480.544 293.69C480.265 293.918 479.972 294.138 479.7 294.424C479.429 294.71 479.282 294.916 479.106 295.158C483.142 296.736 487.442 297.543 491.779 297.521H491.896C496.05 297.521 500.166 296.78 504.056 295.319C503.909 295.04 503.74 294.776 503.549 294.527Z" fill="#ED7770"/>
<path d="M514.991 273.141C507.462 275.335 499.654 276.428 491.81 276.391C483.965 276.428 476.158 275.335 468.629 273.141C466.655 272.392 464.424 273.199 463.397 275.049C463.25 275.327 463.132 275.621 463.059 275.922C463.301 276.047 463.58 276.171 463.91 276.303C472.745 280.728 482.512 282.974 492.39 282.856C501.863 282.966 511.227 280.904 519.783 276.839C520.128 276.692 520.414 276.553 520.671 276.421C520.612 275.944 520.458 275.474 520.23 275.049C519.203 273.199 516.972 272.385 514.991 273.141Z" fill="white"/>
<path d="M520.257 275.067C519.215 273.211 516.977 272.389 514.981 273.138C507.452 275.332 499.644 276.425 491.807 276.388C483.963 276.425 476.155 275.332 468.626 273.138C466.652 272.389 464.421 273.196 463.394 275.045C462.396 276.887 463.115 279.023 463.959 280.865C464.333 281.694 464.751 282.508 465.214 283.294C465.214 283.294 463.673 277.584 465.008 275.926C465.463 275.222 466.226 274.781 467.063 274.737C467.408 274.737 467.745 274.796 468.076 274.899C475.737 277.152 483.684 278.289 491.675 278.274H491.932C499.923 278.289 507.87 277.152 515.531 274.899C515.861 274.796 516.199 274.737 516.544 274.737C517.38 274.781 518.151 275.222 518.606 275.926C519.963 277.584 518.4 283.316 518.4 283.316C518.855 282.53 519.31 281.723 519.692 280.887C520.528 279.045 521.255 276.917 520.257 275.067Z" fill="#AC95CF"/>
<path d="M431.548 353.688H434.248V340.338H434.373L435.748 343.163L439.573 350.138L443.398 343.163L444.773 340.338H444.898V353.688H447.598V336.238H444.398L439.723 345.113H439.573L434.898 336.238H431.548V353.688ZM452.084 338.363C453.209 338.363 453.684 337.763 453.684 336.938V336.513C453.684 335.688 453.209 335.088 452.084 335.088C450.959 335.088 450.459 335.688 450.459 336.513V336.938C450.459 337.763 450.959 338.363 452.084 338.363ZM450.709 353.688H453.434V340.688H450.709V353.688ZM459.05 353.688V344.988C459.05 343.463 460.45 342.738 461.875 342.738C463.55 342.738 464.325 343.763 464.325 345.788V353.688H467.05V345.438C467.05 342.238 465.475 340.388 462.825 340.388C460.825 340.388 459.725 341.438 459.175 342.838H459.05V340.688H456.325V353.688H459.05ZM478.002 353.688H480.727V335.188H478.002V342.838H477.877C477.327 341.288 475.952 340.388 474.227 340.388C470.952 340.388 469.052 342.913 469.052 347.188C469.052 351.463 470.952 353.988 474.227 353.988C475.952 353.988 477.327 353.063 477.877 351.538H478.002V353.688ZM475.052 351.638C473.177 351.638 471.927 350.313 471.927 348.313V346.063C471.927 344.063 473.177 342.738 475.052 342.738C476.702 342.738 478.002 343.638 478.002 344.963V349.413C478.002 350.738 476.702 351.638 475.052 351.638ZM488.731 353.688H497.231C499.806 353.688 501.731 351.488 501.731 348.663C501.731 345.738 499.506 344.638 498.081 344.588V344.438C499.506 344.313 501.106 343.363 501.106 340.738C501.106 338.013 499.331 336.238 496.456 336.238H488.731V353.688ZM491.556 345.963H496.406C497.856 345.963 498.756 346.763 498.756 348.188V349.038C498.756 350.463 497.856 351.263 496.406 351.263H491.556V345.963ZM491.556 338.663H495.931C497.306 338.663 498.131 339.413 498.131 340.738V341.538C498.131 342.863 497.306 343.613 495.931 343.613H491.556V338.663ZM508.535 353.688V351.463H506.735V335.188H504.01V350.988C504.01 352.663 504.935 353.688 506.785 353.688H508.535ZM515.239 353.988C518.864 353.988 521.214 351.338 521.214 347.188C521.214 343.038 518.864 340.388 515.239 340.388C511.614 340.388 509.264 343.038 509.264 347.188C509.264 351.338 511.614 353.988 515.239 353.988ZM515.239 351.738C513.389 351.738 512.139 350.588 512.139 348.288V346.088C512.139 343.788 513.389 342.638 515.239 342.638C517.089 342.638 518.339 343.788 518.339 346.088V348.288C518.339 350.588 517.089 351.738 515.239 351.738ZM525.329 353.688H528.329L530.054 347.763L531.079 344.113H531.129L532.179 347.763L533.879 353.688H536.954L540.454 340.688H537.929L536.579 346.138L535.429 351.063H535.354L533.979 346.138L532.379 340.688H529.929L528.354 346.138L527.004 351.063H526.929L525.754 346.138L524.429 340.688H521.779L525.329 353.688ZM544.775 353.688V344.988C544.775 343.463 546.175 342.738 547.6 342.738C549.275 342.738 550.05 343.763 550.05 345.788V353.688H552.775V345.438C552.775 342.238 551.2 340.388 548.55 340.388C546.55 340.388 545.45 341.438 544.9 342.838H544.775V340.688H542.05V353.688H544.775Z" fill="white"/>
<path d="M680.934 309.686C659.8 309.686 637 296.43 637 267.343C637 238.256 659.8 225 680.934 225C692.674 225 703.506 228.863 711.536 235.908C720.246 243.634 724.867 254.542 724.867 267.343C724.867 280.144 720.246 290.976 711.536 298.702C703.506 305.747 692.599 309.686 680.934 309.686Z" fill="url(#paint5_radial_171_274)"/>
<path d="M717.209 242.175C721.247 248.689 723.352 256.446 723.352 265.073C723.352 277.874 718.732 288.706 710.021 296.433C701.992 303.477 691.084 307.416 679.419 307.416C665.739 307.416 651.362 301.849 642.924 290.04C651.074 303.417 666.398 309.688 680.934 309.688C692.599 309.688 703.506 305.75 711.536 298.705C720.247 290.979 724.867 280.147 724.867 267.346C724.867 257.695 722.239 249.121 717.209 242.175Z" fill="#AC95CF"/>
<path opacity="0.8" d="M653.399 287.36C660.72 287.36 666.655 281.425 666.655 274.104C666.655 266.783 660.72 260.848 653.399 260.848C646.078 260.848 640.144 266.783 640.144 274.104C640.144 281.425 646.078 287.36 653.399 287.36Z" fill="url(#paint6_radial_171_274)"/>
<path opacity="0.8" d="M709.072 287.36C716.393 287.36 722.328 281.425 722.328 274.104C722.328 266.783 716.393 260.848 709.072 260.848C701.751 260.848 695.817 266.783 695.817 274.104C695.817 281.425 701.751 287.36 709.072 287.36Z" fill="url(#paint7_radial_171_274)"/>
<path d="M669.847 262.781C669.847 262.781 669.809 262.728 669.726 262.629C669.65 262.531 669.544 262.395 669.408 262.22C669.294 262.099 669.158 261.955 668.999 261.789C668.839 261.607 668.642 261.417 668.446 261.22C668.241 261.031 668.029 260.834 667.809 260.675C667.597 260.501 667.362 260.372 667.173 260.266C666.976 260.145 666.794 260.115 666.681 260.077C666.62 260.054 666.567 260.054 666.522 260.046C666.499 260.054 666.476 260.039 666.453 260.046L666.423 260.054H666.408H666.4C666.491 260.054 666.196 260.061 666.605 260.046L666.188 260.061C666.082 260.061 666.15 260.069 666.158 260.069C666.181 260.069 666.196 260.069 666.211 260.061C666.272 260.039 666.211 260.061 666.196 260.061C666.173 260.061 666.143 260.069 666.113 260.084C665.991 260.122 665.81 260.152 665.62 260.274C665.431 260.38 665.196 260.508 664.984 260.683C664.772 260.849 664.552 261.039 664.348 261.228C663.954 261.614 663.605 262.001 663.363 262.281C663.113 262.569 662.977 262.735 662.977 262.735L662.802 262.94C661.765 264.152 659.856 264.356 658.545 263.402C657.652 262.751 657.265 261.736 657.432 260.766C657.432 260.766 657.485 260.455 657.636 259.918C657.795 259.38 658.061 258.615 658.583 257.713C659.106 256.819 659.863 255.767 661.143 254.805C661.772 254.335 662.537 253.865 663.446 253.547C663.666 253.464 663.901 253.388 664.143 253.328C664.393 253.267 664.59 253.199 664.931 253.153L665.401 253.085C665.544 253.07 665.757 253.047 665.787 253.047L666.203 253.017L666.438 253.009H666.461H666.506L666.605 253.017H666.787L667.173 253.04C667.431 253.062 667.68 253.108 667.93 253.146C668.423 253.237 668.915 253.365 669.362 253.532C670.271 253.85 671.036 254.312 671.665 254.789C672.945 255.751 673.702 256.804 674.225 257.698C674.49 258.145 674.687 258.569 674.831 258.94C674.99 259.296 675.104 259.675 675.195 259.955C675.278 260.228 675.278 260.372 675.316 260.501C675.339 260.622 675.346 260.69 675.346 260.69C675.626 262.22 674.498 263.667 672.839 263.917C671.65 264.106 670.506 263.629 669.847 262.781Z" fill="#422B0D"/>
<path d="M699.764 262.781C699.764 262.781 699.726 262.728 699.643 262.629C699.567 262.531 699.461 262.395 699.324 262.22C699.211 262.099 699.074 261.955 698.915 261.789C698.756 261.607 698.559 261.417 698.362 261.22C698.158 261.031 697.946 260.834 697.726 260.675C697.514 260.501 697.279 260.372 697.09 260.266C696.893 260.145 696.711 260.115 696.598 260.077C696.537 260.054 696.484 260.054 696.438 260.046C696.416 260.054 696.393 260.039 696.37 260.046L696.34 260.054H696.325H696.317H696.31C696.401 260.054 696.105 260.061 696.514 260.046L696.098 260.061C695.992 260.061 696.06 260.069 696.067 260.069C696.09 260.069 696.105 260.069 696.12 260.061C696.181 260.039 696.12 260.061 696.105 260.061C696.082 260.061 696.052 260.069 696.022 260.084C695.901 260.122 695.719 260.152 695.529 260.274C695.34 260.38 695.105 260.508 694.893 260.683C694.681 260.849 694.461 261.039 694.257 261.228C693.863 261.614 693.515 262.001 693.272 262.281C693.022 262.569 692.886 262.735 692.886 262.735L692.712 262.94C691.674 264.152 689.765 264.356 688.455 263.402C687.561 262.751 687.175 261.736 687.341 260.766C687.341 260.766 687.394 260.455 687.546 259.918C687.705 259.38 687.97 258.615 688.493 257.713C689.015 256.819 689.773 255.767 691.053 254.805C691.681 254.335 692.447 253.865 693.356 253.547C693.575 253.464 693.81 253.388 694.052 253.328C694.302 253.267 694.499 253.199 694.84 253.153L695.31 253.085C695.454 253.07 695.666 253.047 695.696 253.047L696.113 253.017L696.348 253.009H696.37H696.416L696.514 253.017H696.696L697.082 253.04C697.34 253.062 697.59 253.108 697.84 253.146C698.332 253.237 698.824 253.365 699.271 253.532C700.18 253.85 700.945 254.312 701.574 254.789C702.854 255.751 703.612 256.804 704.134 257.698C704.4 258.145 704.596 258.569 704.74 258.94C704.899 259.296 705.013 259.675 705.104 259.955C705.187 260.228 705.187 260.372 705.225 260.501C705.248 260.622 705.255 260.69 705.255 260.69C705.536 262.22 704.407 263.667 702.748 263.917C701.559 264.106 700.415 263.629 699.764 262.781Z" fill="#422B0D"/>
<path d="M681.258 290.888C671.736 290.888 664.207 286.381 660.056 281.556C659.64 281.071 659.541 280.419 659.806 279.851C660.071 279.268 660.647 278.889 661.268 278.889C661.548 278.889 661.836 278.965 662.086 279.109C666.366 281.578 673.554 284.631 681.235 284.631H681.356C689.045 284.631 696.226 281.571 700.505 279.109C700.763 278.965 701.043 278.882 701.323 278.889C701.945 278.889 702.52 279.268 702.785 279.851C703.043 280.419 702.952 281.078 702.535 281.556C698.384 286.373 690.848 290.888 681.334 290.888" fill="#422B0D"/>
<path d="M647.126 353.988C650.151 353.988 652.251 352.463 653.426 349.938L651.151 348.563C650.526 350.263 649.201 351.463 647.126 351.463C644.451 351.463 642.801 349.513 642.801 346.288V343.638C642.801 340.413 644.451 338.463 647.126 338.463C649.151 338.463 650.376 339.538 650.976 341.188L653.351 339.888C652.176 337.288 650.151 335.938 647.126 335.938C642.576 335.938 639.801 339.113 639.801 344.963C639.801 350.813 642.576 353.988 647.126 353.988ZM660.321 353.988C663.946 353.988 666.296 351.338 666.296 347.188C666.296 343.038 663.946 340.388 660.321 340.388C656.696 340.388 654.346 343.038 654.346 347.188C654.346 351.338 656.696 353.988 660.321 353.988ZM660.321 351.738C658.471 351.738 657.221 350.588 657.221 348.288V346.088C657.221 343.788 658.471 342.638 660.321 342.638C662.171 342.638 663.421 343.788 663.421 346.088V348.288C663.421 350.588 662.171 351.738 660.321 351.738ZM671.057 353.688V344.988C671.057 343.463 672.457 342.738 673.882 342.738C675.557 342.738 676.332 343.763 676.332 345.788V353.688H679.057V345.438C679.057 342.238 677.482 340.388 674.832 340.388C672.832 340.388 671.732 341.438 671.182 342.838H671.057V340.688H668.332V353.688H671.057ZM687.809 353.688V351.463H685.284V342.913H688.009V340.688H685.284V337.138H682.834V339.413C682.834 340.313 682.534 340.688 681.634 340.688H680.534V342.913H682.559V350.863C682.559 352.638 683.559 353.688 685.434 353.688H687.809ZM694.967 353.988C697.392 353.988 699.292 352.938 700.267 351.363L698.667 349.788C697.917 350.988 696.842 351.738 695.242 351.738C693.042 351.738 691.817 350.313 691.817 348.313V347.888H700.742V346.863C700.742 343.263 698.792 340.388 694.967 340.388C691.267 340.388 688.992 343.038 688.992 347.188C688.992 351.338 691.267 353.988 694.967 353.988ZM694.967 342.513C696.767 342.513 697.867 343.838 697.867 345.838V346.088H691.817V345.913C691.817 343.913 693.092 342.513 694.967 342.513ZM705.484 353.688V344.988C705.484 343.463 706.884 342.738 708.309 342.738C709.984 342.738 710.759 343.763 710.759 345.788V353.688H713.484V345.438C713.484 342.238 711.909 340.388 709.259 340.388C707.259 340.388 706.159 341.438 705.609 342.838H705.484V340.688H702.759V353.688H705.484ZM722.236 353.688V351.463H719.711V342.913H722.436V340.688H719.711V337.138H717.261V339.413C717.261 340.313 716.961 340.688 716.061 340.688H714.961V342.913H716.986V350.863C716.986 352.638 717.986 353.688 719.861 353.688H722.236Z" fill="white"/>
<path d="M849.529 309.688C829.007 309.688 806.867 296.816 806.867 268.571C806.867 240.326 829.007 227.453 849.529 227.453C860.93 227.453 871.449 231.205 879.246 238.045C887.705 245.548 892.192 256.14 892.192 268.571C892.192 281.002 887.705 291.52 879.246 299.023C871.434 305.864 860.857 309.688 849.529 309.688Z" fill="url(#paint8_radial_171_274)"/>
<path d="M835.392 252.418C832.31 252.418 829.508 255.022 829.508 259.347C829.508 263.672 832.31 266.269 835.392 266.269C838.482 266.269 841.277 263.665 841.277 259.347C841.277 255.03 838.511 252.418 835.392 252.418Z" fill="#422B0D"/>
<path d="M835.136 255.309C834.091 254.809 832.834 255.25 832.326 256.295C831.936 257.111 832.113 258.089 832.767 258.722C833.812 259.222 835.07 258.781 835.577 257.736C835.967 256.92 835.791 255.942 835.136 255.309Z" fill="#896024"/>
<path d="M863.636 252.418C860.554 252.418 857.752 255.022 857.752 259.347C857.752 263.672 860.554 266.269 863.636 266.269C866.718 266.269 869.521 263.665 869.521 259.347C869.521 255.03 866.718 252.418 863.636 252.418Z" fill="#422B0D"/>
<path d="M863.343 255.309C862.299 254.809 861.041 255.25 860.533 256.295C860.143 257.111 860.32 258.089 860.975 258.722C862.019 259.222 863.277 258.781 863.784 257.736C864.174 256.92 863.998 255.942 863.343 255.309Z" fill="#896024"/>
<path d="M885.034 244.128C888.955 250.454 891 257.986 891 266.364C891 278.795 886.513 289.313 878.054 296.816C870.257 303.657 859.665 307.482 848.337 307.482C835.053 307.482 821.122 302.075 812.898 290.608C820.813 303.598 835.701 309.688 849.809 309.688C861.136 309.688 871.728 305.863 879.525 299.023C887.984 291.52 892.471 281.002 892.471 268.571C892.471 259.2 889.918 250.873 885.034 244.128Z" fill="#AC95CF"/>
<path d="M878.105 274.984C877.076 273.123 874.84 272.307 872.854 273.057C865.307 275.256 857.48 276.352 849.617 276.316C841.754 276.352 833.928 275.256 826.381 273.057C824.403 272.307 822.167 273.116 821.137 274.969C820.136 276.816 820.857 278.956 821.703 280.802C826.425 291.174 836.833 297.382 849.559 297.419H849.676C862.401 297.419 872.809 291.174 877.539 280.802C878.378 278.941 879.106 276.83 878.105 274.984Z" fill="#422B0D"/>
<path d="M861.394 294.492C861.122 294.242 860.842 294.014 860.563 293.756C857.562 291.116 853.678 289.696 849.677 289.777C845.558 289.711 841.549 291.079 838.335 293.653C838.055 293.881 837.761 294.102 837.489 294.389C837.216 294.676 837.069 294.882 836.893 295.124C840.938 296.706 845.249 297.515 849.596 297.493H849.714C853.877 297.493 858.003 296.75 861.902 295.286C861.755 295.007 861.585 294.742 861.394 294.492Z" fill="#ED7770"/>
<path d="M872.854 273.058C865.307 275.258 857.481 276.353 849.618 276.317C841.755 276.353 833.929 275.258 826.382 273.058C824.403 272.308 822.167 273.117 821.137 274.971C820.99 275.25 820.872 275.544 820.799 275.846C821.042 275.971 821.321 276.096 821.652 276.228C830.508 280.664 840.298 282.915 850.199 282.797C859.695 282.907 869.081 280.84 877.657 276.765C878.003 276.618 878.29 276.479 878.547 276.346C878.488 275.868 878.334 275.397 878.106 274.971C877.076 273.117 874.84 272.301 872.854 273.058Z" fill="white"/>
<path d="M878.135 274.992C877.09 273.131 874.847 272.307 872.846 273.057C865.299 275.256 857.473 276.352 849.617 276.316C841.754 276.352 833.928 275.256 826.381 273.057C824.403 272.307 822.167 273.116 821.137 274.969C820.136 276.816 820.857 278.956 821.703 280.802C822.078 281.634 822.498 282.45 822.961 283.237C822.961 283.237 821.416 277.515 822.755 275.852C823.211 275.146 823.976 274.705 824.815 274.661C825.16 274.661 825.499 274.719 825.83 274.822C833.509 277.081 841.475 278.221 849.485 278.206H849.742C857.753 278.221 865.719 277.081 873.398 274.822C873.729 274.719 874.067 274.661 874.413 274.661C875.251 274.705 876.024 275.146 876.48 275.852C877.841 277.515 876.274 283.259 876.274 283.259C876.73 282.472 877.186 281.663 877.568 280.825C878.407 278.978 879.135 276.845 878.135 274.992Z" fill="#AC95CF"/>
<path d="M827.63 353.688H830.455V336.238H827.63V343.588H819.73V336.238H816.905V353.688H819.73V346.088H827.63V353.688ZM844.602 353.688V351.463H843.227V344.938C843.227 342.038 841.352 340.388 838.002 340.388C835.477 340.388 833.952 341.463 833.102 342.913L834.727 344.388C835.377 343.363 836.302 342.613 837.827 342.613C839.652 342.613 840.502 343.538 840.502 345.113V346.213H838.152C834.527 346.213 832.602 347.538 832.602 350.113C832.602 352.463 834.127 353.988 836.802 353.988C838.702 353.988 840.102 353.138 840.602 351.513H840.727C840.902 352.788 841.652 353.688 843.077 353.688H844.602ZM837.577 351.913C836.227 351.913 835.377 351.313 835.377 350.163V349.713C835.377 348.588 836.302 347.963 838.202 347.963H840.502V349.838C840.502 351.113 839.252 351.913 837.577 351.913ZM846.272 358.688H848.997V351.538H849.122C849.672 353.063 851.047 353.988 852.772 353.988C856.047 353.988 857.947 351.463 857.947 347.188C857.947 342.913 856.047 340.388 852.772 340.388C851.047 340.388 849.672 341.288 849.122 342.838H848.997V340.688H846.272V358.688ZM851.947 351.638C850.297 351.638 848.997 350.738 848.997 349.413V344.963C848.997 343.638 850.297 342.738 851.947 342.738C853.822 342.738 855.072 344.063 855.072 346.063V348.313C855.072 350.313 853.822 351.638 851.947 351.638ZM860.067 358.688H862.792V351.538H862.917C863.467 353.063 864.842 353.988 866.567 353.988C869.842 353.988 871.742 351.463 871.742 347.188C871.742 342.913 869.842 340.388 866.567 340.388C864.842 340.388 863.467 341.288 862.917 342.838H862.792V340.688H860.067V358.688ZM865.742 351.638C864.092 351.638 862.792 350.738 862.792 349.413V344.963C862.792 343.638 864.092 342.738 865.742 342.738C867.617 342.738 868.867 344.063 868.867 346.063V348.313C868.867 350.313 867.617 351.638 865.742 351.638ZM879.066 348.338L878.241 351.163H878.116L877.366 348.338L874.766 340.688H872.041L876.766 354.263L876.016 356.463H873.816V358.688H875.391C877.416 358.688 878.191 358.013 878.816 356.263L884.291 340.688H881.666L879.066 348.338Z" fill="white"/>
<path d="M1054.97 303.686C1034.49 303.686 1012.4 290.844 1012.4 262.666C1012.4 234.488 1034.49 221.646 1054.97 221.646C1066.34 221.646 1076.83 225.388 1084.61 232.213C1093.05 239.698 1097.53 250.265 1097.53 262.666C1097.53 275.068 1093.05 285.561 1084.61 293.046C1076.83 299.87 1066.27 303.686 1054.97 303.686Z" fill="url(#paint9_radial_171_274)"/>
<path d="M1090.12 238.284C1094.03 244.594 1096.07 252.109 1096.07 260.467C1096.07 272.868 1091.59 283.362 1083.15 290.847C1075.38 297.671 1064.81 301.487 1053.51 301.487C1040.26 301.487 1026.36 296.093 1018.15 284.653C1026.05 297.612 1040.9 303.688 1054.98 303.688C1066.28 303.688 1076.84 299.873 1084.62 293.048C1093.06 285.563 1097.54 275.07 1097.54 262.668C1097.54 253.32 1094.99 245.013 1090.12 238.284Z" fill="#AC95CF"/>
<path d="M1044.25 258.257L1044.14 258.11L1043.82 257.707L1043.43 257.288C1043.27 257.105 1043.08 256.929 1042.9 256.738C1042.71 256.547 1042.49 256.364 1042.28 256.21C1042.09 256.063 1041.89 255.924 1041.67 255.813C1041.52 255.733 1041.36 255.667 1041.19 255.63C1041.14 255.623 1041.09 255.623 1041.03 255.63C1041.03 255.63 1040.99 255.63 1040.97 255.63H1040.91H1041.11H1040.7C1040.67 255.63 1040.59 255.63 1040.7 255.63H1040.76H1040.68C1040.51 255.667 1040.35 255.725 1040.2 255.813C1039.98 255.931 1039.77 256.063 1039.58 256.21C1039.37 256.371 1039.16 256.547 1038.97 256.738C1038.58 257.112 1038.24 257.472 1038.02 257.758L1037.64 258.198L1037.47 258.397C1036.41 259.578 1034.63 259.769 1033.34 258.844C1032.52 258.272 1032.1 257.281 1032.26 256.29C1032.26 256.29 1032.32 255.997 1032.46 255.476C1032.68 254.735 1032.98 254.016 1033.37 253.341C1034 252.24 1034.84 251.279 1035.85 250.515C1036.52 250.002 1037.26 249.591 1038.05 249.305C1038.27 249.217 1038.5 249.15 1038.73 249.092C1038.97 249.018 1039.21 248.967 1039.46 248.923L1039.91 248.857L1040.29 248.813H1040.69H1041.27H1041.64C1041.89 248.813 1042.13 248.879 1042.38 248.916C1042.85 248.996 1043.32 249.121 1043.76 249.29C1044.56 249.576 1045.3 249.987 1045.97 250.501C1046.98 251.264 1047.82 252.225 1048.45 253.326C1048.67 253.707 1048.87 254.111 1049.03 254.522C1049.17 254.852 1049.29 255.182 1049.38 255.527C1049.44 255.703 1049.48 255.88 1049.5 256.056V256.239C1049.72 257.736 1048.68 259.13 1047.18 259.35C1047.15 259.358 1047.11 259.358 1047.07 259.365C1046 259.519 1044.93 259.094 1044.25 258.257Z" fill="#422B0D"/>
<path d="M1073.2 258.257L1073.09 258.11L1072.77 257.707L1072.38 257.288C1072.22 257.105 1072.03 256.929 1071.85 256.738C1071.66 256.547 1071.43 256.364 1071.23 256.21C1071.04 256.063 1070.83 255.924 1070.61 255.813C1070.47 255.733 1070.3 255.667 1070.14 255.63C1070.08 255.623 1070.03 255.623 1069.98 255.63C1069.98 255.63 1069.94 255.63 1069.92 255.63H1069.86H1070.05H1069.65C1069.61 255.63 1069.54 255.63 1069.65 255.63H1069.71H1069.63C1069.46 255.667 1069.3 255.725 1069.14 255.813C1068.93 255.924 1068.73 256.063 1068.54 256.21C1068.32 256.371 1068.11 256.547 1067.92 256.738C1067.53 257.112 1067.19 257.472 1066.97 257.758L1066.58 258.198L1066.42 258.397C1065.36 259.578 1063.58 259.769 1062.29 258.844C1061.47 258.272 1061.05 257.281 1061.21 256.29C1061.21 256.29 1061.26 255.997 1061.41 255.476C1061.63 254.727 1061.93 254.008 1062.33 253.341C1062.95 252.24 1063.79 251.279 1064.8 250.515C1065.47 250.002 1066.21 249.591 1067 249.305C1067.22 249.217 1067.45 249.15 1067.68 249.092C1067.92 249.018 1068.16 248.967 1068.41 248.923L1068.87 248.857L1069.23 248.813H1069.64H1070.22H1070.59C1070.84 248.813 1071.08 248.879 1071.32 248.916C1071.8 248.996 1072.26 249.121 1072.71 249.29C1073.5 249.576 1074.24 249.987 1074.91 250.501C1075.93 251.264 1076.77 252.225 1077.39 253.326C1077.62 253.707 1077.82 254.111 1077.98 254.522C1078.12 254.845 1078.24 255.175 1078.33 255.513C1078.38 255.689 1078.43 255.865 1078.45 256.041V256.224C1078.68 257.721 1077.66 259.123 1076.16 259.358C1076.14 259.358 1076.12 259.365 1076.09 259.365C1075 259.549 1073.89 259.123 1073.2 258.257Z" fill="#422B0D"/>
<path d="M1083.19 269.064C1082.17 267.207 1079.94 266.393 1077.95 267.141C1070.43 269.335 1062.62 270.429 1054.77 270.392C1046.93 270.429 1039.12 269.335 1031.59 267.141C1029.62 266.393 1027.39 267.2 1026.36 269.049C1025.36 270.891 1026.08 273.027 1026.93 274.868C1031.64 285.215 1042.02 291.409 1054.71 291.445H1054.83C1067.53 291.445 1077.91 285.215 1082.63 274.868C1083.47 273.012 1084.19 270.906 1083.19 269.064Z" fill="#422B0D"/>
<path d="M1066.52 288.527C1066.25 288.277 1065.97 288.05 1065.69 287.793C1062.7 285.159 1058.82 283.742 1054.83 283.823C1050.72 283.757 1046.72 285.122 1043.51 287.69C1043.24 287.918 1042.94 288.138 1042.67 288.424C1042.4 288.71 1042.25 288.916 1042.08 289.158C1046.11 290.736 1050.41 291.543 1054.75 291.521H1054.87C1059.02 291.521 1063.14 290.78 1067.03 289.319C1066.88 289.04 1066.71 288.776 1066.52 288.527Z" fill="#ED7770"/>
<path d="M1077.96 267.141C1070.43 269.335 1062.63 270.428 1054.78 270.391C1046.94 270.428 1039.13 269.335 1031.6 267.141C1029.63 266.392 1027.39 267.199 1026.37 269.049C1026.22 269.327 1026.1 269.621 1026.03 269.922C1026.27 270.047 1026.55 270.171 1026.88 270.303C1035.72 274.728 1045.48 276.974 1055.36 276.856C1064.83 276.966 1074.2 274.904 1082.75 270.839C1083.1 270.692 1083.38 270.553 1083.64 270.421C1083.58 269.944 1083.43 269.474 1083.2 269.049C1082.17 267.199 1079.94 266.385 1077.96 267.141Z" fill="white"/>
<path d="M1083.23 269.067C1082.19 267.211 1079.95 266.389 1077.95 267.138C1070.42 269.332 1062.61 270.425 1054.78 270.388C1046.93 270.425 1039.13 269.332 1031.6 267.138C1029.62 266.389 1027.39 267.196 1026.36 269.045C1025.37 270.887 1026.09 273.023 1026.93 274.865C1027.3 275.694 1027.72 276.508 1028.18 277.294C1028.18 277.294 1026.64 271.584 1027.98 269.926C1028.43 269.222 1029.2 268.781 1030.03 268.737C1030.38 268.737 1030.72 268.796 1031.05 268.899C1038.71 271.152 1046.65 272.289 1054.65 272.274H1054.9C1062.89 272.289 1070.84 271.152 1078.5 268.899C1078.83 268.796 1079.17 268.737 1079.51 268.737C1080.35 268.781 1081.12 269.222 1081.58 269.926C1082.93 271.584 1081.37 277.316 1081.37 277.316C1081.83 276.53 1082.28 275.723 1082.66 274.887C1083.5 273.045 1084.23 270.917 1083.23 269.067Z" fill="#AC95CF"/>
<path d="M977.592 353.688H981.048V336.6H981.208L982.968 340.216L987.864 349.144L992.76 340.216L994.52 336.6H994.68V353.688H998.136V331.352H994.04L988.056 342.712H987.864L981.88 331.352H977.592V353.688ZM1003.88 334.072C1005.32 334.072 1005.93 333.304 1005.93 332.248V331.704C1005.93 330.648 1005.32 329.88 1003.88 329.88C1002.44 329.88 1001.8 330.648 1001.8 331.704V332.248C1001.8 333.304 1002.44 334.072 1003.88 334.072ZM1002.12 353.688H1005.61V337.048H1002.12V353.688ZM1012.8 353.688V342.552C1012.8 340.6 1014.59 339.672 1016.41 339.672C1018.56 339.672 1019.55 340.984 1019.55 343.576V353.688H1023.04V343.128C1023.04 339.032 1021.02 336.664 1017.63 336.664C1015.07 336.664 1013.66 338.008 1012.96 339.8H1012.8V337.048H1009.31V353.688H1012.8ZM1037.05 353.688H1040.54V330.008H1037.05V339.8H1036.89C1036.19 337.816 1034.43 336.664 1032.22 336.664C1028.03 336.664 1025.6 339.896 1025.6 345.368C1025.6 350.84 1028.03 354.072 1032.22 354.072C1034.43 354.072 1036.19 352.888 1036.89 350.936H1037.05V353.688ZM1033.28 351.064C1030.88 351.064 1029.28 349.368 1029.28 346.808V343.928C1029.28 341.368 1030.88 339.672 1033.28 339.672C1035.39 339.672 1037.05 340.824 1037.05 342.52V348.216C1037.05 349.912 1035.39 351.064 1033.28 351.064ZM1050.79 353.688H1061.67C1064.96 353.688 1067.43 350.872 1067.43 347.256C1067.43 343.512 1064.58 342.104 1062.75 342.04V341.848C1064.58 341.688 1066.63 340.472 1066.63 337.112C1066.63 333.624 1064.35 331.352 1060.67 331.352H1050.79V353.688ZM1054.4 343.8H1060.61C1062.47 343.8 1063.62 344.824 1063.62 346.648V347.736C1063.62 349.56 1062.47 350.584 1060.61 350.584H1054.4V343.8ZM1054.4 334.456H1060C1061.76 334.456 1062.82 335.416 1062.82 337.112V338.136C1062.82 339.832 1061.76 340.792 1060 340.792H1054.4V334.456ZM1076.14 353.688V350.84H1073.83V330.008H1070.34V350.232C1070.34 352.376 1071.53 353.688 1073.9 353.688H1076.14ZM1084.72 354.072C1089.36 354.072 1092.36 350.68 1092.36 345.368C1092.36 340.056 1089.36 336.664 1084.72 336.664C1080.08 336.664 1077.07 340.056 1077.07 345.368C1077.07 350.68 1080.08 354.072 1084.72 354.072ZM1084.72 351.192C1082.35 351.192 1080.75 349.72 1080.75 346.776V343.96C1080.75 341.016 1082.35 339.544 1084.72 339.544C1087.08 339.544 1088.68 341.016 1088.68 343.96V346.776C1088.68 349.72 1087.08 351.192 1084.72 351.192ZM1097.63 353.688H1101.47L1103.68 346.104L1104.99 341.432H1105.06L1106.4 346.104L1108.58 353.688H1112.51L1116.99 337.048H1113.76L1112.03 344.024L1110.56 350.328H1110.46L1108.7 344.024L1106.66 337.048H1103.52L1101.5 344.024L1099.78 350.328H1099.68L1098.18 344.024L1096.48 337.048H1093.09L1097.63 353.688ZM1122.52 353.688V342.552C1122.52 340.6 1124.31 339.672 1126.14 339.672C1128.28 339.672 1129.27 340.984 1129.27 343.576V353.688H1132.76V343.128C1132.76 339.032 1130.75 336.664 1127.35 336.664C1124.79 336.664 1123.39 338.008 1122.68 339.8H1122.52V337.048H1119.03V353.688H1122.52Z" fill="white"/>
<path d="M1262.33 303.688C1241.81 303.688 1219.67 290.816 1219.67 262.571C1219.67 234.326 1241.81 221.453 1262.33 221.453C1273.73 221.453 1284.25 225.205 1292.05 232.045C1300.51 239.548 1304.99 250.14 1304.99 262.571C1304.99 275.002 1300.51 285.52 1292.05 293.023C1284.24 299.864 1273.66 303.688 1262.33 303.688Z" fill="url(#paint10_radial_171_274)"/>
<path d="M1248.19 246.418C1245.11 246.418 1242.31 249.022 1242.31 253.347C1242.31 257.672 1245.11 260.269 1248.19 260.269C1251.28 260.269 1254.08 257.665 1254.08 253.347C1254.08 249.03 1251.31 246.418 1248.19 246.418Z" fill="#422B0D"/>
<path d="M1247.94 249.309C1246.89 248.809 1245.64 249.25 1245.13 250.295C1244.74 251.111 1244.91 252.089 1245.57 252.722C1246.61 253.222 1247.87 252.781 1248.38 251.736C1248.77 250.92 1248.59 249.942 1247.94 249.309Z" fill="#896024"/>
<path d="M1276.44 246.418C1273.36 246.418 1270.55 249.022 1270.55 253.347C1270.55 257.672 1273.36 260.269 1276.44 260.269C1279.52 260.269 1282.32 257.665 1282.32 253.347C1282.32 249.03 1279.52 246.418 1276.44 246.418Z" fill="#422B0D"/>
<path d="M1276.14 249.309C1275.1 248.809 1273.84 249.25 1273.33 250.295C1272.95 251.111 1273.12 252.089 1273.78 252.722C1274.82 253.222 1276.08 252.781 1276.59 251.736C1276.98 250.92 1276.8 249.942 1276.14 249.309Z" fill="#896024"/>
<path d="M1297.84 238.128C1301.76 244.454 1303.8 251.986 1303.8 260.364C1303.8 272.795 1299.31 283.313 1290.86 290.816C1283.06 297.657 1272.47 301.482 1261.14 301.482C1247.86 301.482 1233.92 296.075 1225.7 284.608C1233.61 297.598 1248.5 303.688 1262.61 303.688C1273.94 303.688 1284.53 299.863 1292.33 293.023C1300.79 285.52 1305.27 275.002 1305.27 262.571C1305.27 253.2 1302.72 244.873 1297.84 238.128Z" fill="#AC95CF"/>
<path d="M1290.91 268.984C1289.88 267.123 1287.64 266.307 1285.66 267.057C1278.11 269.256 1270.28 270.352 1262.42 270.316C1254.56 270.352 1246.73 269.256 1239.18 267.057C1237.2 266.307 1234.97 267.116 1233.94 268.969C1232.94 270.816 1233.66 272.956 1234.5 274.802C1239.23 285.174 1249.64 291.382 1262.36 291.419H1262.48C1275.2 291.419 1285.61 285.174 1290.34 274.802C1291.18 272.941 1291.91 270.83 1290.91 268.984Z" fill="#422B0D"/>
<path d="M1274.2 288.492C1273.92 288.242 1273.64 288.014 1273.36 287.756C1270.36 285.116 1266.48 283.696 1262.48 283.777C1258.36 283.711 1254.35 285.079 1251.14 287.653C1250.86 287.881 1250.56 288.102 1250.29 288.389C1250.02 288.676 1249.87 288.882 1249.69 289.124C1253.74 290.706 1258.05 291.515 1262.4 291.493H1262.52C1266.68 291.493 1270.8 290.75 1274.7 289.286C1274.56 289.007 1274.39 288.742 1274.2 288.492Z" fill="#ED7770"/>
<path d="M1285.66 267.058C1278.11 269.258 1270.28 270.353 1262.42 270.317C1254.56 270.353 1246.73 269.258 1239.18 267.058C1237.2 266.308 1234.97 267.117 1233.94 268.971C1233.79 269.25 1233.67 269.544 1233.6 269.846C1233.84 269.971 1234.12 270.096 1234.45 270.228C1243.31 274.664 1253.1 276.915 1263 276.797C1272.5 276.907 1281.88 274.84 1290.46 270.765C1290.8 270.618 1291.09 270.479 1291.35 270.346C1291.29 269.868 1291.14 269.397 1290.91 268.971C1289.88 267.117 1287.64 266.301 1285.66 267.058Z" fill="white"/>
<path d="M1290.94 268.992C1289.89 267.131 1287.65 266.307 1285.65 267.057C1278.1 269.256 1270.27 270.352 1262.42 270.316C1254.56 270.352 1246.73 269.256 1239.18 267.057C1237.2 266.307 1234.97 267.116 1233.94 268.969C1232.94 270.816 1233.66 272.956 1234.5 274.802C1234.88 275.634 1235.3 276.45 1235.76 277.237C1235.76 277.237 1234.22 271.515 1235.56 269.852C1236.01 269.146 1236.78 268.705 1237.62 268.661C1237.96 268.661 1238.3 268.719 1238.63 268.822C1246.31 271.081 1254.28 272.221 1262.29 272.206H1262.54C1270.55 272.221 1278.52 271.081 1286.2 268.822C1286.53 268.719 1286.87 268.661 1287.21 268.661C1288.05 268.705 1288.83 269.146 1289.28 269.852C1290.64 271.515 1289.08 277.259 1289.08 277.259C1289.53 276.472 1289.99 275.663 1290.37 274.825C1291.21 272.978 1291.94 270.845 1290.94 268.992Z" fill="#AC95CF"/>
<path d="M1234.26 353.688H1237.88V331.352H1234.26V340.76H1224.15V331.352H1220.53V353.688H1224.15V343.96H1234.26V353.688ZM1255.98 353.688V350.84H1254.22V342.488C1254.22 338.776 1251.82 336.664 1247.54 336.664C1244.3 336.664 1242.35 338.04 1241.26 339.896L1243.34 341.784C1244.18 340.472 1245.36 339.512 1247.31 339.512C1249.65 339.512 1250.74 340.696 1250.74 342.712V344.12H1247.73C1243.09 344.12 1240.62 345.816 1240.62 349.112C1240.62 352.12 1242.58 354.072 1246 354.072C1248.43 354.072 1250.22 352.984 1250.86 350.904H1251.02C1251.25 352.536 1252.21 353.688 1254.03 353.688H1255.98ZM1246.99 351.416C1245.26 351.416 1244.18 350.648 1244.18 349.176V348.6C1244.18 347.16 1245.36 346.36 1247.79 346.36H1250.74V348.76C1250.74 350.392 1249.14 351.416 1246.99 351.416ZM1258.12 360.088H1261.61V350.936H1261.77C1262.47 352.888 1264.23 354.072 1266.44 354.072C1270.63 354.072 1273.07 350.84 1273.07 345.368C1273.07 339.896 1270.63 336.664 1266.44 336.664C1264.23 336.664 1262.47 337.816 1261.77 339.8H1261.61V337.048H1258.12V360.088ZM1265.39 351.064C1263.27 351.064 1261.61 349.912 1261.61 348.216V342.52C1261.61 340.824 1263.27 339.672 1265.39 339.672C1267.79 339.672 1269.39 341.368 1269.39 343.928V346.808C1269.39 349.368 1267.79 351.064 1265.39 351.064ZM1275.78 360.088H1279.27V350.936H1279.43C1280.13 352.888 1281.89 354.072 1284.1 354.072C1288.29 354.072 1290.72 350.84 1290.72 345.368C1290.72 339.896 1288.29 336.664 1284.1 336.664C1281.89 336.664 1280.13 337.816 1279.43 339.8H1279.27V337.048H1275.78V360.088ZM1283.04 351.064C1280.93 351.064 1279.27 349.912 1279.27 348.216V342.52C1279.27 340.824 1280.93 339.672 1283.04 339.672C1285.44 339.672 1287.04 341.368 1287.04 343.928V346.808C1287.04 349.368 1285.44 351.064 1283.04 351.064ZM1300.1 346.84L1299.04 350.456H1298.88L1297.92 346.84L1294.6 337.048H1291.11L1297.16 354.424L1296.2 357.24H1293.38V360.088H1295.4C1297.99 360.088 1298.98 359.224 1299.78 356.984L1306.79 337.048H1303.43L1300.1 346.84Z" fill="white"/>
<path d="M885.624 65.664V78.848C885.624 85.376 887.864 88.384 893.976 88.384C900.088 88.384 902.328 85.376 902.328 78.848V65.664H898.776V79.424C898.776 83.2 897.464 85.152 893.976 85.152C890.488 85.152 889.176 83.2 889.176 79.424V65.664H885.624ZM908.922 88V76.864C908.922 74.912 910.714 73.984 912.538 73.984C914.682 73.984 915.674 75.296 915.674 77.888V88H919.162V77.44C919.162 73.344 917.146 70.976 913.754 70.976C911.194 70.976 909.786 72.32 909.082 74.112H908.922V71.36H905.434V88H908.922ZM921.996 88H925.484V85.248H925.644C926.348 87.2 928.108 88.384 930.316 88.384C934.508 88.384 936.94 85.152 936.94 79.68C936.94 74.208 934.508 70.976 930.316 70.976C928.108 70.976 926.348 72.128 925.644 74.112H925.484V64.32H921.996V88ZM929.26 85.376C927.148 85.376 925.484 84.224 925.484 82.528V76.832C925.484 75.136 927.148 73.984 929.26 73.984C931.66 73.984 933.26 75.68 933.26 78.24V81.12C933.26 83.68 931.66 85.376 929.26 85.376ZM945.462 88.384C948.566 88.384 950.998 87.04 952.246 85.024L950.198 83.008C949.238 84.544 947.862 85.504 945.814 85.504C942.998 85.504 941.43 83.68 941.43 81.12V80.576H952.854V79.264C952.854 74.656 950.358 70.976 945.462 70.976C940.726 70.976 937.814 74.368 937.814 79.68C937.814 84.992 940.726 88.384 945.462 88.384ZM945.462 73.696C947.766 73.696 949.174 75.392 949.174 77.952V78.272H941.43V78.048C941.43 75.488 943.062 73.696 945.462 73.696ZM958.203 88V77.376C958.203 75.648 959.739 74.72 962.491 74.72H963.867V71.36H962.939C960.283 71.36 958.843 72.864 958.363 74.56H958.203V71.36H954.715V88H958.203ZM968.453 88V77.376C968.453 75.648 969.989 74.72 972.741 74.72H974.117V71.36H973.189C970.533 71.36 969.093 72.864 968.613 74.56H968.453V71.36H964.965V88H968.453ZM982.376 81.152L981.32 84.768H981.16L980.2 81.152L976.872 71.36H973.384L979.432 88.736L978.472 91.552H975.656V94.4H977.672C980.264 94.4 981.256 93.536 982.056 91.296L989.064 71.36H985.704L982.376 81.152Z" fill="white"/>
</g>
<defs>
<radialGradient id="paint0_radial_171_274" cx="0" cy="0" r="1" gradientUnits="userSpaceOnUse" gradientTransform="translate(120.5 261.343) scale(43.1455 43.1455)">
<stop offset="0.5" stop-color="#FDE030"/>
<stop offset="0.9188" stop-color="#F7C02B"/>
<stop offset="1" stop-color="#F4A223"/>
</radialGradient>
<radialGradient id="paint1_radial_171_274" cx="0" cy="0" r="1" gradientUnits="userSpaceOnUse" gradientTransform="translate(92.9663 268.103) scale(14.4208 13.6991)">
<stop stop-color="#ED7770"/>
<stop offset="0.9" stop-color="#ED7770" stop-opacity="0"/>
</radialGradient>
<radialGradient id="paint2_radial_171_274" cx="0" cy="0" r="1" gradientUnits="userSpaceOnUse" gradientTransform="translate(148.641 268.103) scale(14.4208 13.6991)">
<stop stop-color="#ED7770"/>
<stop offset="0.9" stop-color="#ED7770" stop-opacity="0"/>
</radialGradient>
<radialGradient id="paint3_radial_171_274" cx="0" cy="0" r="1" gradientUnits="userSpaceOnUse" gradientTransform="translate(301.86 262.571) scale(41.8969 41.8969)">
<stop offset="0.5" stop-color="#FDE030"/>
<stop offset="0.92" stop-color="#F7C02B"/>
<stop offset="1" stop-color="#F4A223"/>
</radialGradient>
<radialGradient id="paint4_radial_171_274" cx="0" cy="0" r="1" gradientUnits="userSpaceOnUse" gradientTransform="translate(491.995 268.666) scale(41.7977 41.7977)">
<stop offset="0.5" stop-color="#FDE030"/>
<stop offset="0.92" stop-color="#F7C02B"/>
<stop offset="1" stop-color="#F4A223"/>
</radialGradient>
<radialGradient id="paint5_radial_171_274" cx="0" cy="0" r="1" gradientUnits="userSpaceOnUse" gradientTransform="translate(680.934 267.343) scale(43.1455 43.1455)">
<stop offset="0.5" stop-color="#FDE030"/>
<stop offset="0.9188" stop-color="#F7C02B"/>
<stop offset="1" stop-color="#F4A223"/>
</radialGradient>
<radialGradient id="paint6_radial_171_274" cx="0" cy="0" r="1" gradientUnits="userSpaceOnUse" gradientTransform="translate(653.4 274.103) scale(14.4208 13.6991)">
<stop stop-color="#ED7770"/>
<stop offset="0.9" stop-color="#ED7770" stop-opacity="0"/>
</radialGradient>
<radialGradient id="paint7_radial_171_274" cx="0" cy="0" r="1" gradientUnits="userSpaceOnUse" gradientTransform="translate(709.074 274.103) scale(14.4208 13.6991)">
<stop stop-color="#ED7770"/>
<stop offset="0.9" stop-color="#ED7770" stop-opacity="0"/>
</radialGradient>
<radialGradient id="paint8_radial_171_274" cx="0" cy="0" r="1" gradientUnits="userSpaceOnUse" gradientTransform="translate(849.529 268.571) scale(41.8969 41.8969)">
<stop offset="0.5" stop-color="#FDE030"/>
<stop offset="0.92" stop-color="#F7C02B"/>
<stop offset="1" stop-color="#F4A223"/>
</radialGradient>
<radialGradient id="paint9_radial_171_274" cx="0" cy="0" r="1" gradientUnits="userSpaceOnUse" gradientTransform="translate(1054.97 262.666) scale(41.7977 41.7977)">
<stop offset="0.5" stop-color="#FDE030"/>
<stop offset="0.92" stop-color="#F7C02B"/>
<stop offset="1" stop-color="#F4A223"/>
</radialGradient>
<radialGradient id="paint10_radial_171_274" cx="0" cy="0" r="1" gradientUnits="userSpaceOnUse" gradientTransform="translate(1262.33 262.571) scale(41.8969 41.8969)">
<stop offset="0.5" stop-color="#FDE030"/>
<stop offset="0.92" stop-color="#F7C02B"/>
<stop offset="1" stop-color="#F4A223"/>
</radialGradient>
<clipPath id="clip0_171_274">
<rect width="1380" height="437" fill="white"/>
</clipPath>
</defs>
</svg>
