<svg width="1719" height="446" viewBox="0 0 1719 446" fill="none" xmlns="http://www.w3.org/2000/svg">
<path opacity="0.5" d="M1 250.598C21.8333 294.99 94.6 376.814 219 348.976C374.5 314.178 458 235.132 592.5 348.976C727 462.82 867 414.275 910 331.792C953 249.309 963.5 185.728 1129.5 241.576C1295.5 297.424 1341.62 137.011 1398 99.808C1495 35.7976 1672.5 135.035 1718 1" stroke="white" stroke-dasharray="2 2"/>
<path d="M379.763 354V340.04H388.483V342.04H382.023V345.92H387.763V347.92H382.023V354H379.763ZM391.31 341.74C390.856 341.74 390.523 341.633 390.31 341.42C390.11 341.207 390.01 340.933 390.01 340.6V340.26C390.01 339.927 390.11 339.653 390.31 339.44C390.523 339.227 390.856 339.12 391.31 339.12C391.763 339.12 392.09 339.227 392.29 339.44C392.49 339.653 392.59 339.927 392.59 340.26V340.6C392.59 340.933 392.49 341.207 392.29 341.42C392.09 341.633 391.763 341.74 391.31 341.74ZM390.21 343.6H392.39V354H390.21V343.6ZM394.703 354V343.6H396.883V345.32H396.983C397.209 344.76 397.549 344.293 398.003 343.92C398.469 343.547 399.103 343.36 399.903 343.36C400.969 343.36 401.796 343.713 402.383 344.42C402.983 345.113 403.283 346.107 403.283 347.4V354H401.103V347.68C401.103 346.053 400.449 345.24 399.143 345.24C398.863 345.24 398.583 345.28 398.303 345.36C398.036 345.427 397.796 345.533 397.583 345.68C397.369 345.827 397.196 346.013 397.063 346.24C396.943 346.467 396.883 346.733 396.883 347.04V354H394.703ZM412.044 352.28H411.944C411.717 352.893 411.344 353.373 410.824 353.72C410.317 354.067 409.717 354.24 409.024 354.24C407.704 354.24 406.684 353.767 405.964 352.82C405.244 351.86 404.884 350.52 404.884 348.8C404.884 347.08 405.244 345.747 405.964 344.8C406.684 343.84 407.704 343.36 409.024 343.36C409.717 343.36 410.317 343.533 410.824 343.88C411.344 344.213 411.717 344.693 411.944 345.32H412.044V339.2H414.224V354H412.044V352.28ZM409.684 352.36C410.351 352.36 410.911 352.2 411.364 351.88C411.817 351.547 412.044 351.113 412.044 350.58V347.02C412.044 346.487 411.817 346.06 411.364 345.74C410.911 345.407 410.351 345.24 409.684 345.24C408.924 345.24 408.317 345.487 407.864 345.98C407.411 346.46 407.184 347.1 407.184 347.9V349.7C407.184 350.5 407.411 351.147 407.864 351.64C408.317 352.12 408.924 352.36 409.684 352.36ZM420.467 339.2H422.647V345.32H422.747C422.973 344.76 423.313 344.293 423.767 343.92C424.233 343.547 424.867 343.36 425.667 343.36C426.733 343.36 427.56 343.713 428.147 344.42C428.747 345.113 429.047 346.107 429.047 347.4V354H426.867V347.66C426.867 346.047 426.213 345.24 424.907 345.24C424.627 345.24 424.347 345.28 424.067 345.36C423.8 345.427 423.56 345.533 423.347 345.68C423.133 345.827 422.96 346.013 422.827 346.24C422.707 346.467 422.647 346.727 422.647 347.02V354H420.467V339.2ZM432.368 341.74C431.915 341.74 431.582 341.633 431.368 341.42C431.168 341.207 431.068 340.933 431.068 340.6V340.26C431.068 339.927 431.168 339.653 431.368 339.44C431.582 339.227 431.915 339.12 432.368 339.12C432.822 339.12 433.148 339.227 433.348 339.44C433.548 339.653 433.648 339.927 433.648 340.26V340.6C433.648 340.933 433.548 341.207 433.348 341.42C433.148 341.633 432.822 341.74 432.368 341.74ZM431.268 343.6H433.448V354H431.268V343.6ZM444.881 354.98C444.881 356.06 444.468 356.873 443.641 357.42C442.815 357.967 441.468 358.24 439.601 358.24C438.748 358.24 438.021 358.18 437.421 358.06C436.835 357.953 436.348 357.793 435.961 357.58C435.588 357.367 435.315 357.107 435.141 356.8C434.968 356.493 434.881 356.14 434.881 355.74C434.881 355.167 435.035 354.72 435.341 354.4C435.661 354.08 436.101 353.86 436.661 353.74V353.52C435.875 353.267 435.481 352.733 435.481 351.92C435.481 351.387 435.661 350.98 436.021 350.7C436.381 350.407 436.815 350.2 437.321 350.08V350C436.708 349.707 436.235 349.3 435.901 348.78C435.581 348.247 435.421 347.627 435.421 346.92C435.421 345.853 435.775 344.993 436.481 344.34C437.201 343.687 438.228 343.36 439.561 343.36C440.295 343.36 440.921 343.467 441.441 343.68V343.4C441.441 342.933 441.548 342.573 441.761 342.32C441.988 342.053 442.335 341.92 442.801 341.92H444.401V343.68H442.281V344.1C442.748 344.407 443.108 344.807 443.361 345.3C443.615 345.78 443.741 346.32 443.741 346.92C443.741 347.973 443.381 348.827 442.661 349.48C441.941 350.12 440.915 350.44 439.581 350.44C439.075 350.44 438.621 350.387 438.221 350.28C437.955 350.373 437.721 350.507 437.521 350.68C437.321 350.84 437.221 351.053 437.221 351.32C437.221 351.6 437.348 351.8 437.601 351.92C437.855 352.04 438.215 352.1 438.681 352.1H441.241C442.521 352.1 443.448 352.36 444.021 352.88C444.595 353.387 444.881 354.087 444.881 354.98ZM442.841 355.22C442.841 354.86 442.701 354.573 442.421 354.36C442.155 354.147 441.661 354.04 440.941 354.04H437.421C436.941 354.32 436.701 354.72 436.701 355.24C436.701 355.667 436.868 356.007 437.201 356.26C437.548 356.527 438.128 356.66 438.941 356.66H440.301C441.995 356.66 442.841 356.18 442.841 355.22ZM439.581 348.86C440.221 348.86 440.715 348.72 441.061 348.44C441.421 348.147 441.601 347.7 441.601 347.1V346.7C441.601 346.1 441.421 345.66 441.061 345.38C440.715 345.087 440.221 344.94 439.581 344.94C438.941 344.94 438.441 345.087 438.081 345.38C437.735 345.66 437.561 346.1 437.561 346.7V347.1C437.561 347.7 437.735 348.147 438.081 348.44C438.441 348.72 438.941 348.86 439.581 348.86ZM445.703 339.2H447.883V345.32H447.983C448.21 344.76 448.55 344.293 449.003 343.92C449.47 343.547 450.103 343.36 450.903 343.36C451.97 343.36 452.797 343.713 453.383 344.42C453.983 345.113 454.283 346.107 454.283 347.4V354H452.103V347.66C452.103 346.047 451.45 345.24 450.143 345.24C449.863 345.24 449.583 345.28 449.303 345.36C449.037 345.427 448.797 345.533 448.583 345.68C448.37 345.827 448.197 346.013 448.063 346.24C447.943 346.467 447.883 346.727 447.883 347.02V354H445.703V339.2ZM460.431 343.6H462.611V345.32H462.711C462.938 344.693 463.305 344.213 463.811 343.88C464.331 343.533 464.938 343.36 465.631 343.36C466.951 343.36 467.971 343.84 468.691 344.8C469.411 345.747 469.771 347.08 469.771 348.8C469.771 350.52 469.411 351.86 468.691 352.82C467.971 353.767 466.951 354.24 465.631 354.24C464.938 354.24 464.331 354.067 463.811 353.72C463.305 353.373 462.938 352.893 462.711 352.28H462.611V358H460.431V343.6ZM464.971 352.36C465.731 352.36 466.338 352.12 466.791 351.64C467.245 351.147 467.471 350.5 467.471 349.7V347.9C467.471 347.1 467.245 346.46 466.791 345.98C466.338 345.487 465.731 345.24 464.971 345.24C464.305 345.24 463.745 345.407 463.291 345.74C462.838 346.06 462.611 346.487 462.611 347.02V350.58C462.611 351.113 462.838 351.547 463.291 351.88C463.745 352.2 464.305 352.36 464.971 352.36ZM475.547 354.24C474.827 354.24 474.167 354.113 473.567 353.86C472.981 353.607 472.481 353.247 472.067 352.78C471.654 352.3 471.334 351.727 471.107 351.06C470.881 350.38 470.767 349.627 470.767 348.8C470.767 347.973 470.881 347.227 471.107 346.56C471.334 345.88 471.654 345.307 472.067 344.84C472.481 344.36 472.981 343.993 473.567 343.74C474.167 343.487 474.827 343.36 475.547 343.36C476.267 343.36 476.921 343.487 477.507 343.74C478.107 343.993 478.614 344.36 479.027 344.84C479.441 345.307 479.761 345.88 479.987 346.56C480.214 347.227 480.327 347.973 480.327 348.8C480.327 349.627 480.214 350.38 479.987 351.06C479.761 351.727 479.441 352.3 479.027 352.78C478.614 353.247 478.107 353.607 477.507 353.86C476.921 354.113 476.267 354.24 475.547 354.24ZM475.547 352.44C476.294 352.44 476.894 352.213 477.347 351.76C477.801 351.293 478.027 350.6 478.027 349.68V347.92C478.027 347 477.801 346.313 477.347 345.86C476.894 345.393 476.294 345.16 475.547 345.16C474.801 345.16 474.201 345.393 473.747 345.86C473.294 346.313 473.067 347 473.067 347.92V349.68C473.067 350.6 473.294 351.293 473.747 351.76C474.201 352.213 474.801 352.44 475.547 352.44ZM484.778 354C484.018 354 483.445 353.807 483.058 353.42C482.671 353.02 482.478 352.46 482.478 351.74V345.38H480.858V343.6H481.738C482.098 343.6 482.345 343.52 482.478 343.36C482.625 343.2 482.698 342.94 482.698 342.58V340.76H484.658V343.6H486.838V345.38H484.658V352.22H486.678V354H484.778ZM492.404 354.24C491.658 354.24 490.991 354.113 490.404 353.86C489.818 353.607 489.318 353.247 488.904 352.78C488.491 352.3 488.171 351.727 487.944 351.06C487.731 350.38 487.624 349.627 487.624 348.8C487.624 347.973 487.731 347.227 487.944 346.56C488.171 345.88 488.491 345.307 488.904 344.84C489.318 344.36 489.818 343.993 490.404 343.74C490.991 343.487 491.658 343.36 492.404 343.36C493.164 343.36 493.831 343.493 494.404 343.76C494.991 344.027 495.478 344.4 495.864 344.88C496.251 345.347 496.538 345.893 496.724 346.52C496.924 347.147 497.024 347.82 497.024 348.54V349.36H489.884V349.7C489.884 350.5 490.118 351.16 490.584 351.68C491.064 352.187 491.744 352.44 492.624 352.44C493.264 352.44 493.804 352.3 494.244 352.02C494.684 351.74 495.058 351.36 495.364 350.88L496.644 352.14C496.258 352.78 495.698 353.293 494.964 353.68C494.231 354.053 493.378 354.24 492.404 354.24ZM492.404 345.06C492.031 345.06 491.684 345.127 491.364 345.26C491.058 345.393 490.791 345.58 490.564 345.82C490.351 346.06 490.184 346.347 490.064 346.68C489.944 347.013 489.884 347.38 489.884 347.78V347.92H494.724V347.72C494.724 346.92 494.518 346.28 494.104 345.8C493.691 345.307 493.124 345.06 492.404 345.06ZM498.638 354V343.6H500.818V345.32H500.918C501.144 344.76 501.484 344.293 501.938 343.92C502.404 343.547 503.038 343.36 503.838 343.36C504.904 343.36 505.731 343.713 506.318 344.42C506.918 345.113 507.218 346.107 507.218 347.4V354H505.038V347.68C505.038 346.053 504.384 345.24 503.078 345.24C502.798 345.24 502.518 345.28 502.238 345.36C501.971 345.427 501.731 345.533 501.518 345.68C501.304 345.827 501.131 346.013 500.998 346.24C500.878 346.467 500.818 346.733 500.818 347.04V354H498.638ZM512.319 354C511.559 354 510.986 353.807 510.599 353.42C510.213 353.02 510.019 352.46 510.019 351.74V345.38H508.399V343.6H509.279C509.639 343.6 509.886 343.52 510.019 343.36C510.166 343.2 510.239 342.94 510.239 342.58V340.76H512.199V343.6H514.379V345.38H512.199V352.22H514.219V354H512.319ZM517.044 341.74C516.591 341.74 516.257 341.633 516.044 341.42C515.844 341.207 515.744 340.933 515.744 340.6V340.26C515.744 339.927 515.844 339.653 516.044 339.44C516.257 339.227 516.591 339.12 517.044 339.12C517.497 339.12 517.824 339.227 518.024 339.44C518.224 339.653 518.324 339.927 518.324 340.26V340.6C518.324 340.933 518.224 341.207 518.024 341.42C517.824 341.633 517.497 341.74 517.044 341.74ZM515.944 343.6H518.124V354H515.944V343.6ZM528.057 354C527.484 354 527.044 353.84 526.737 353.52C526.43 353.187 526.244 352.767 526.177 352.26H526.077C525.877 352.913 525.51 353.407 524.977 353.74C524.444 354.073 523.797 354.24 523.037 354.24C521.957 354.24 521.124 353.96 520.537 353.4C519.964 352.84 519.677 352.087 519.677 351.14C519.677 350.1 520.05 349.32 520.797 348.8C521.557 348.28 522.664 348.02 524.117 348.02H525.997V347.14C525.997 346.5 525.824 346.007 525.477 345.66C525.13 345.313 524.59 345.14 523.857 345.14C523.244 345.14 522.744 345.273 522.357 345.54C521.97 345.807 521.644 346.147 521.377 346.56L520.077 345.38C520.424 344.793 520.91 344.313 521.537 343.94C522.164 343.553 522.984 343.36 523.997 343.36C525.344 343.36 526.377 343.673 527.097 344.3C527.817 344.927 528.177 345.827 528.177 347V352.22H529.277V354H528.057ZM523.657 352.58C524.337 352.58 524.897 352.433 525.337 352.14C525.777 351.833 525.997 351.427 525.997 350.92V349.42H524.157C522.65 349.42 521.897 349.887 521.897 350.82V351.18C521.897 351.647 522.05 352 522.357 352.24C522.677 352.467 523.11 352.58 523.657 352.58ZM532.834 354C532.087 354 531.527 353.813 531.154 353.44C530.794 353.053 530.614 352.52 530.614 351.84V339.2H532.794V352.22H534.234V354H532.834ZM414.741 378.24C413.994 378.24 413.327 378.113 412.741 377.86C412.154 377.607 411.661 377.247 411.261 376.78C410.861 376.3 410.554 375.727 410.341 375.06C410.127 374.38 410.021 373.627 410.021 372.8C410.021 371.973 410.127 371.227 410.341 370.56C410.554 369.88 410.861 369.307 411.261 368.84C411.661 368.36 412.154 367.993 412.741 367.74C413.327 367.487 413.994 367.36 414.741 367.36C415.781 367.36 416.634 367.593 417.301 368.06C417.967 368.527 418.454 369.147 418.761 369.92L416.961 370.76C416.814 370.28 416.554 369.9 416.181 369.62C415.821 369.327 415.341 369.18 414.741 369.18C413.941 369.18 413.334 369.433 412.921 369.94C412.521 370.433 412.321 371.08 412.321 371.88V373.74C412.321 374.54 412.521 375.193 412.921 375.7C413.334 376.193 413.941 376.44 414.741 376.44C415.381 376.44 415.887 376.287 416.261 375.98C416.647 375.66 416.954 375.24 417.181 374.72L418.841 375.6C418.494 376.453 417.974 377.107 417.281 377.56C416.587 378.013 415.741 378.24 414.741 378.24ZM427.736 378C427.163 378 426.723 377.84 426.416 377.52C426.109 377.187 425.923 376.767 425.856 376.26H425.756C425.556 376.913 425.189 377.407 424.656 377.74C424.123 378.073 423.476 378.24 422.716 378.24C421.636 378.24 420.803 377.96 420.216 377.4C419.643 376.84 419.356 376.087 419.356 375.14C419.356 374.1 419.729 373.32 420.476 372.8C421.236 372.28 422.343 372.02 423.796 372.02H425.676V371.14C425.676 370.5 425.503 370.007 425.156 369.66C424.809 369.313 424.269 369.14 423.536 369.14C422.923 369.14 422.423 369.273 422.036 369.54C421.649 369.807 421.323 370.147 421.056 370.56L419.756 369.38C420.103 368.793 420.589 368.313 421.216 367.94C421.843 367.553 422.663 367.36 423.676 367.36C425.023 367.36 426.056 367.673 426.776 368.3C427.496 368.927 427.856 369.827 427.856 371V376.22H428.956V378H427.736ZM423.336 376.58C424.016 376.58 424.576 376.433 425.016 376.14C425.456 375.833 425.676 375.427 425.676 374.92V373.42H423.836C422.329 373.42 421.576 373.887 421.576 374.82V375.18C421.576 375.647 421.729 376 422.036 376.24C422.356 376.467 422.789 376.58 423.336 376.58ZM430.292 378V367.6H432.472V369.32H432.572C432.799 368.76 433.139 368.293 433.592 367.92C434.059 367.547 434.692 367.36 435.492 367.36C436.559 367.36 437.386 367.713 437.972 368.42C438.572 369.113 438.872 370.107 438.872 371.4V378H436.692V371.68C436.692 370.053 436.039 369.24 434.732 369.24C434.452 369.24 434.172 369.28 433.892 369.36C433.626 369.427 433.386 369.533 433.172 369.68C432.959 369.827 432.786 370.013 432.652 370.24C432.532 370.467 432.472 370.733 432.472 371.04V378H430.292ZM447.634 376.28H447.534C447.307 376.893 446.934 377.373 446.414 377.72C445.907 378.067 445.307 378.24 444.614 378.24C443.294 378.24 442.274 377.767 441.554 376.82C440.834 375.86 440.474 374.52 440.474 372.8C440.474 371.08 440.834 369.747 441.554 368.8C442.274 367.84 443.294 367.36 444.614 367.36C445.307 367.36 445.907 367.533 446.414 367.88C446.934 368.213 447.307 368.693 447.534 369.32H447.634V363.2H449.814V378H447.634V376.28ZM445.274 376.36C445.941 376.36 446.501 376.2 446.954 375.88C447.407 375.547 447.634 375.113 447.634 374.58V371.02C447.634 370.487 447.407 370.06 446.954 369.74C446.501 369.407 445.941 369.24 445.274 369.24C444.514 369.24 443.907 369.487 443.454 369.98C443.001 370.46 442.774 371.1 442.774 371.9V373.7C442.774 374.5 443.001 375.147 443.454 375.64C443.907 376.12 444.514 376.36 445.274 376.36ZM453.23 365.74C452.777 365.74 452.443 365.633 452.23 365.42C452.03 365.207 451.93 364.933 451.93 364.6V364.26C451.93 363.927 452.03 363.653 452.23 363.44C452.443 363.227 452.777 363.12 453.23 363.12C453.683 363.12 454.01 363.227 454.21 363.44C454.41 363.653 454.51 363.927 454.51 364.26V364.6C454.51 364.933 454.41 365.207 454.21 365.42C454.01 365.633 453.683 365.74 453.23 365.74ZM452.13 367.6H454.31V378H452.13V367.6ZM463.163 376.28H463.063C462.836 376.893 462.463 377.373 461.943 377.72C461.436 378.067 460.836 378.24 460.143 378.24C458.823 378.24 457.803 377.767 457.083 376.82C456.363 375.86 456.003 374.52 456.003 372.8C456.003 371.08 456.363 369.747 457.083 368.8C457.803 367.84 458.823 367.36 460.143 367.36C460.836 367.36 461.436 367.533 461.943 367.88C462.463 368.213 462.836 368.693 463.063 369.32H463.163V363.2H465.343V378H463.163V376.28ZM460.803 376.36C461.47 376.36 462.03 376.2 462.483 375.88C462.936 375.547 463.163 375.113 463.163 374.58V371.02C463.163 370.487 462.936 370.06 462.483 369.74C462.03 369.407 461.47 369.24 460.803 369.24C460.043 369.24 459.436 369.487 458.983 369.98C458.53 370.46 458.303 371.1 458.303 371.9V373.7C458.303 374.5 458.53 375.147 458.983 375.64C459.436 376.12 460.043 376.36 460.803 376.36ZM475.279 378C474.705 378 474.265 377.84 473.959 377.52C473.652 377.187 473.465 376.767 473.399 376.26H473.299C473.099 376.913 472.732 377.407 472.199 377.74C471.665 378.073 471.019 378.24 470.259 378.24C469.179 378.24 468.345 377.96 467.759 377.4C467.185 376.84 466.899 376.087 466.899 375.14C466.899 374.1 467.272 373.32 468.019 372.8C468.779 372.28 469.885 372.02 471.339 372.02H473.219V371.14C473.219 370.5 473.045 370.007 472.699 369.66C472.352 369.313 471.812 369.14 471.079 369.14C470.465 369.14 469.965 369.273 469.579 369.54C469.192 369.807 468.865 370.147 468.599 370.56L467.299 369.38C467.645 368.793 468.132 368.313 468.759 367.94C469.385 367.553 470.205 367.36 471.219 367.36C472.565 367.36 473.599 367.673 474.319 368.3C475.039 368.927 475.399 369.827 475.399 371V376.22H476.499V378H475.279ZM470.879 376.58C471.559 376.58 472.119 376.433 472.559 376.14C472.999 375.833 473.219 375.427 473.219 374.92V373.42H471.379C469.872 373.42 469.119 373.887 469.119 374.82V375.18C469.119 375.647 469.272 376 469.579 376.24C469.899 376.467 470.332 376.58 470.879 376.58ZM480.657 378C479.897 378 479.323 377.807 478.937 377.42C478.55 377.02 478.357 376.46 478.357 375.74V369.38H476.737V367.6H477.617C477.977 367.6 478.223 367.52 478.357 367.36C478.503 367.2 478.577 366.94 478.577 366.58V364.76H480.537V367.6H482.717V369.38H480.537V376.22H482.557V378H480.657ZM488.283 378.24C487.537 378.24 486.87 378.113 486.283 377.86C485.697 377.607 485.197 377.247 484.783 376.78C484.37 376.3 484.05 375.727 483.823 375.06C483.61 374.38 483.503 373.627 483.503 372.8C483.503 371.973 483.61 371.227 483.823 370.56C484.05 369.88 484.37 369.307 484.783 368.84C485.197 368.36 485.697 367.993 486.283 367.74C486.87 367.487 487.537 367.36 488.283 367.36C489.043 367.36 489.71 367.493 490.283 367.76C490.87 368.027 491.357 368.4 491.743 368.88C492.13 369.347 492.417 369.893 492.603 370.52C492.803 371.147 492.903 371.82 492.903 372.54V373.36H485.763V373.7C485.763 374.5 485.997 375.16 486.463 375.68C486.943 376.187 487.623 376.44 488.503 376.44C489.143 376.44 489.683 376.3 490.123 376.02C490.563 375.74 490.937 375.36 491.243 374.88L492.523 376.14C492.137 376.78 491.577 377.293 490.843 377.68C490.11 378.053 489.257 378.24 488.283 378.24ZM488.283 369.06C487.91 369.06 487.563 369.127 487.243 369.26C486.937 369.393 486.67 369.58 486.443 369.82C486.23 370.06 486.063 370.347 485.943 370.68C485.823 371.013 485.763 371.38 485.763 371.78V371.92H490.603V371.72C490.603 370.92 490.397 370.28 489.983 369.8C489.57 369.307 489.003 369.06 488.283 369.06ZM497.817 378.24C496.83 378.24 496.003 378.067 495.337 377.72C494.67 377.373 494.09 376.893 493.597 376.28L494.997 375C495.383 375.467 495.81 375.833 496.277 376.1C496.757 376.353 497.31 376.48 497.937 376.48C498.577 376.48 499.05 376.36 499.357 376.12C499.677 375.867 499.837 375.52 499.837 375.08C499.837 374.747 499.723 374.467 499.497 374.24C499.283 374 498.903 373.847 498.357 373.78L497.397 373.66C496.33 373.527 495.49 373.22 494.877 372.74C494.277 372.247 493.977 371.52 493.977 370.56C493.977 370.053 494.07 369.607 494.257 369.22C494.443 368.82 494.703 368.487 495.037 368.22C495.383 367.94 495.79 367.727 496.257 367.58C496.737 367.433 497.263 367.36 497.837 367.36C498.77 367.36 499.53 367.507 500.117 367.8C500.717 368.093 501.25 368.5 501.717 369.02L500.377 370.3C500.11 369.98 499.757 369.707 499.317 369.48C498.89 369.24 498.397 369.12 497.837 369.12C497.237 369.12 496.79 369.24 496.497 369.48C496.217 369.72 496.077 370.033 496.077 370.42C496.077 370.82 496.203 371.12 496.457 371.32C496.71 371.52 497.117 371.667 497.677 371.76L498.637 371.88C499.783 372.053 500.617 372.393 501.137 372.9C501.67 373.393 501.937 374.06 501.937 374.9C501.937 375.407 501.837 375.867 501.637 376.28C501.45 376.68 501.177 377.027 500.817 377.32C500.457 377.613 500.023 377.84 499.517 378C499.01 378.16 498.443 378.24 497.817 378.24Z" fill="white"/>
<path d="M700.224 356V354.16H702.124V343.88H700.224V342.04H706.304V343.88H704.384V354.16H706.304V356H700.224ZM708.185 356V345.6H710.365V347.32H710.465C710.691 346.76 711.031 346.293 711.485 345.92C711.951 345.547 712.585 345.36 713.385 345.36C714.451 345.36 715.278 345.713 715.865 346.42C716.465 347.113 716.765 348.107 716.765 349.4V356H714.585V349.68C714.585 348.053 713.931 347.24 712.625 347.24C712.345 347.24 712.065 347.28 711.785 347.36C711.518 347.427 711.278 347.533 711.065 347.68C710.851 347.827 710.678 348.013 710.545 348.24C710.425 348.467 710.365 348.733 710.365 349.04V356H708.185ZM723.006 356.24C722.26 356.24 721.593 356.113 721.006 355.86C720.42 355.607 719.926 355.247 719.526 354.78C719.126 354.3 718.82 353.727 718.606 353.06C718.393 352.38 718.286 351.627 718.286 350.8C718.286 349.973 718.393 349.227 718.606 348.56C718.82 347.88 719.126 347.307 719.526 346.84C719.926 346.36 720.42 345.993 721.006 345.74C721.593 345.487 722.26 345.36 723.006 345.36C724.046 345.36 724.9 345.593 725.566 346.06C726.233 346.527 726.72 347.147 727.026 347.92L725.226 348.76C725.08 348.28 724.82 347.9 724.446 347.62C724.086 347.327 723.606 347.18 723.006 347.18C722.206 347.18 721.6 347.433 721.186 347.94C720.786 348.433 720.586 349.08 720.586 349.88V351.74C720.586 352.54 720.786 353.193 721.186 353.7C721.6 354.193 722.206 354.44 723.006 354.44C723.646 354.44 724.153 354.287 724.526 353.98C724.913 353.66 725.22 353.24 725.446 352.72L727.106 353.6C726.76 354.453 726.24 355.107 725.546 355.56C724.853 356.013 724.006 356.24 723.006 356.24ZM728.381 356V345.6H730.561V347.6H730.661C730.808 347.067 731.115 346.6 731.581 346.2C732.048 345.8 732.695 345.6 733.521 345.6H734.101V347.7H733.241C732.375 347.7 731.708 347.84 731.241 348.12C730.788 348.4 730.561 348.813 730.561 349.36V356H728.381ZM739.22 356.24C738.473 356.24 737.807 356.113 737.22 355.86C736.633 355.607 736.133 355.247 735.72 354.78C735.307 354.3 734.987 353.727 734.76 353.06C734.547 352.38 734.44 351.627 734.44 350.8C734.44 349.973 734.547 349.227 734.76 348.56C734.987 347.88 735.307 347.307 735.72 346.84C736.133 346.36 736.633 345.993 737.22 345.74C737.807 345.487 738.473 345.36 739.22 345.36C739.98 345.36 740.647 345.493 741.22 345.76C741.807 346.027 742.293 346.4 742.68 346.88C743.067 347.347 743.353 347.893 743.54 348.52C743.74 349.147 743.84 349.82 743.84 350.54V351.36H736.7V351.7C736.7 352.5 736.933 353.16 737.4 353.68C737.88 354.187 738.56 354.44 739.44 354.44C740.08 354.44 740.62 354.3 741.06 354.02C741.5 353.74 741.873 353.36 742.18 352.88L743.46 354.14C743.073 354.78 742.513 355.293 741.78 355.68C741.047 356.053 740.193 356.24 739.22 356.24ZM739.22 347.06C738.847 347.06 738.5 347.127 738.18 347.26C737.873 347.393 737.607 347.58 737.38 347.82C737.167 348.06 737 348.347 736.88 348.68C736.76 349.013 736.7 349.38 736.7 349.78V349.92H741.54V349.72C741.54 348.92 741.333 348.28 740.92 347.8C740.507 347.307 739.94 347.06 739.22 347.06ZM753.073 356C752.5 356 752.06 355.84 751.753 355.52C751.447 355.187 751.26 354.767 751.193 354.26H751.093C750.893 354.913 750.527 355.407 749.993 355.74C749.46 356.073 748.813 356.24 748.053 356.24C746.973 356.24 746.14 355.96 745.553 355.4C744.98 354.84 744.693 354.087 744.693 353.14C744.693 352.1 745.067 351.32 745.813 350.8C746.573 350.28 747.68 350.02 749.133 350.02H751.013V349.14C751.013 348.5 750.84 348.007 750.493 347.66C750.147 347.313 749.607 347.14 748.873 347.14C748.26 347.14 747.76 347.273 747.373 347.54C746.987 347.807 746.66 348.147 746.393 348.56L745.093 347.38C745.44 346.793 745.927 346.313 746.553 345.94C747.18 345.553 748 345.36 749.013 345.36C750.36 345.36 751.393 345.673 752.113 346.3C752.833 346.927 753.193 347.827 753.193 349V354.22H754.293V356H753.073ZM748.673 354.58C749.353 354.58 749.913 354.433 750.353 354.14C750.793 353.833 751.013 353.427 751.013 352.92V351.42H749.173C747.667 351.42 746.913 351.887 746.913 352.82V353.18C746.913 353.647 747.067 354 747.373 354.24C747.693 354.467 748.127 354.58 748.673 354.58ZM758.93 356.24C757.943 356.24 757.117 356.067 756.45 355.72C755.783 355.373 755.203 354.893 754.71 354.28L756.11 353C756.497 353.467 756.923 353.833 757.39 354.1C757.87 354.353 758.423 354.48 759.05 354.48C759.69 354.48 760.163 354.36 760.47 354.12C760.79 353.867 760.95 353.52 760.95 353.08C760.95 352.747 760.837 352.467 760.61 352.24C760.397 352 760.017 351.847 759.47 351.78L758.51 351.66C757.443 351.527 756.603 351.22 755.99 350.74C755.39 350.247 755.09 349.52 755.09 348.56C755.09 348.053 755.183 347.607 755.37 347.22C755.557 346.82 755.817 346.487 756.15 346.22C756.497 345.94 756.903 345.727 757.37 345.58C757.85 345.433 758.377 345.36 758.95 345.36C759.883 345.36 760.643 345.507 761.23 345.8C761.83 346.093 762.363 346.5 762.83 347.02L761.49 348.3C761.223 347.98 760.87 347.707 760.43 347.48C760.003 347.24 759.51 347.12 758.95 347.12C758.35 347.12 757.903 347.24 757.61 347.48C757.33 347.72 757.19 348.033 757.19 348.42C757.19 348.82 757.317 349.12 757.57 349.32C757.823 349.52 758.23 349.667 758.79 349.76L759.75 349.88C760.897 350.053 761.73 350.393 762.25 350.9C762.783 351.393 763.05 352.06 763.05 352.9C763.05 353.407 762.95 353.867 762.75 354.28C762.563 354.68 762.29 355.027 761.93 355.32C761.57 355.613 761.137 355.84 760.63 356C760.123 356.16 759.557 356.24 758.93 356.24ZM768.793 356.24C768.046 356.24 767.379 356.113 766.793 355.86C766.206 355.607 765.706 355.247 765.293 354.78C764.879 354.3 764.559 353.727 764.333 353.06C764.119 352.38 764.013 351.627 764.013 350.8C764.013 349.973 764.119 349.227 764.333 348.56C764.559 347.88 764.879 347.307 765.293 346.84C765.706 346.36 766.206 345.993 766.793 345.74C767.379 345.487 768.046 345.36 768.793 345.36C769.553 345.36 770.219 345.493 770.793 345.76C771.379 346.027 771.866 346.4 772.253 346.88C772.639 347.347 772.926 347.893 773.113 348.52C773.313 349.147 773.413 349.82 773.413 350.54V351.36H766.273V351.7C766.273 352.5 766.506 353.16 766.973 353.68C767.453 354.187 768.133 354.44 769.013 354.44C769.653 354.44 770.193 354.3 770.633 354.02C771.073 353.74 771.446 353.36 771.753 352.88L773.033 354.14C772.646 354.78 772.086 355.293 771.353 355.68C770.619 356.053 769.766 356.24 768.793 356.24ZM768.793 347.06C768.419 347.06 768.073 347.127 767.753 347.26C767.446 347.393 767.179 347.58 766.953 347.82C766.739 348.06 766.573 348.347 766.453 348.68C766.333 349.013 766.273 349.38 766.273 349.78V349.92H771.113V349.72C771.113 348.92 770.906 348.28 770.493 347.8C770.079 347.307 769.513 347.06 768.793 347.06ZM785.333 345.6H787.433L783.053 358.06C782.933 358.407 782.793 358.7 782.633 358.94C782.486 359.193 782.306 359.393 782.093 359.54C781.893 359.7 781.646 359.813 781.353 359.88C781.059 359.96 780.713 360 780.313 360H779.053V358.22H780.813L781.413 356.46L777.633 345.6H779.813L781.893 351.72L782.493 353.98H782.593L783.253 351.72L785.333 345.6ZM792.389 356.24C791.669 356.24 791.009 356.113 790.409 355.86C789.822 355.607 789.322 355.247 788.909 354.78C788.495 354.3 788.175 353.727 787.949 353.06C787.722 352.38 787.609 351.627 787.609 350.8C787.609 349.973 787.722 349.227 787.949 348.56C788.175 347.88 788.495 347.307 788.909 346.84C789.322 346.36 789.822 345.993 790.409 345.74C791.009 345.487 791.669 345.36 792.389 345.36C793.109 345.36 793.762 345.487 794.349 345.74C794.949 345.993 795.455 346.36 795.869 346.84C796.282 347.307 796.602 347.88 796.829 348.56C797.055 349.227 797.169 349.973 797.169 350.8C797.169 351.627 797.055 352.38 796.829 353.06C796.602 353.727 796.282 354.3 795.869 354.78C795.455 355.247 794.949 355.607 794.349 355.86C793.762 356.113 793.109 356.24 792.389 356.24ZM792.389 354.44C793.135 354.44 793.735 354.213 794.189 353.76C794.642 353.293 794.869 352.6 794.869 351.68V349.92C794.869 349 794.642 348.313 794.189 347.86C793.735 347.393 793.135 347.16 792.389 347.16C791.642 347.16 791.042 347.393 790.589 347.86C790.135 348.313 789.909 349 789.909 349.92V351.68C789.909 352.6 790.135 353.293 790.589 353.76C791.042 354.213 791.642 354.44 792.389 354.44ZM805.098 354.28H805.018C804.925 354.533 804.798 354.78 804.638 355.02C804.491 355.26 804.298 355.473 804.058 355.66C803.831 355.833 803.551 355.973 803.218 356.08C802.898 356.187 802.525 356.24 802.098 356.24C801.018 356.24 800.178 355.893 799.578 355.2C798.991 354.507 798.698 353.513 798.698 352.22V345.6H800.878V351.94C800.878 353.553 801.545 354.36 802.878 354.36C803.158 354.36 803.431 354.327 803.698 354.26C803.965 354.18 804.198 354.067 804.398 353.92C804.611 353.773 804.778 353.587 804.898 353.36C805.031 353.133 805.098 352.867 805.098 352.56V345.6H807.278V356H805.098V354.28ZM809.599 356V345.6H811.779V347.6H811.879C812.026 347.067 812.333 346.6 812.799 346.2C813.266 345.8 813.913 345.6 814.739 345.6H815.319V347.7H814.459C813.593 347.7 812.926 347.84 812.459 348.12C812.006 348.4 811.779 348.813 811.779 349.36V356H809.599ZM682.8 380.24C682.053 380.24 681.386 380.113 680.8 379.86C680.213 379.607 679.713 379.247 679.3 378.78C678.886 378.3 678.566 377.727 678.34 377.06C678.126 376.38 678.02 375.627 678.02 374.8C678.02 373.973 678.126 373.227 678.34 372.56C678.566 371.88 678.886 371.307 679.3 370.84C679.713 370.36 680.213 369.993 680.8 369.74C681.386 369.487 682.053 369.36 682.8 369.36C683.56 369.36 684.226 369.493 684.8 369.76C685.386 370.027 685.873 370.4 686.26 370.88C686.646 371.347 686.933 371.893 687.12 372.52C687.32 373.147 687.42 373.82 687.42 374.54V375.36H680.28V375.7C680.28 376.5 680.513 377.16 680.98 377.68C681.46 378.187 682.14 378.44 683.02 378.44C683.66 378.44 684.2 378.3 684.64 378.02C685.08 377.74 685.453 377.36 685.76 376.88L687.04 378.14C686.653 378.78 686.093 379.293 685.36 379.68C684.626 380.053 683.773 380.24 682.8 380.24ZM682.8 371.06C682.426 371.06 682.08 371.127 681.76 371.26C681.453 371.393 681.186 371.58 680.96 371.82C680.746 372.06 680.58 372.347 680.46 372.68C680.34 373.013 680.28 373.38 680.28 373.78V373.92H685.12V373.72C685.12 372.92 684.913 372.28 684.5 371.8C684.086 371.307 683.52 371.06 682.8 371.06ZM689.033 380V369.6H691.213V371.32H691.313C691.42 371.053 691.546 370.8 691.693 370.56C691.853 370.32 692.04 370.113 692.253 369.94C692.48 369.753 692.74 369.613 693.033 369.52C693.34 369.413 693.693 369.36 694.093 369.36C694.8 369.36 695.426 369.533 695.973 369.88C696.52 370.227 696.92 370.76 697.173 371.48H697.233C697.42 370.893 697.78 370.393 698.313 369.98C698.846 369.567 699.533 369.36 700.373 369.36C701.413 369.36 702.22 369.713 702.793 370.42C703.366 371.113 703.653 372.107 703.653 373.4V380H701.473V373.66C701.473 372.86 701.32 372.26 701.013 371.86C700.706 371.447 700.22 371.24 699.553 371.24C699.273 371.24 699.006 371.28 698.753 371.36C698.5 371.427 698.273 371.533 698.073 371.68C697.886 371.827 697.733 372.013 697.613 372.24C697.493 372.467 697.433 372.727 697.433 373.02V380H695.253V373.66C695.253 372.047 694.62 371.24 693.353 371.24C693.086 371.24 692.82 371.28 692.553 371.36C692.3 371.427 692.073 371.533 691.873 371.68C691.673 371.827 691.513 372.013 691.393 372.24C691.273 372.467 691.213 372.727 691.213 373.02V380H689.033ZM705.87 369.6H708.05V371.32H708.15C708.376 370.693 708.743 370.213 709.25 369.88C709.77 369.533 710.376 369.36 711.07 369.36C712.39 369.36 713.41 369.84 714.13 370.8C714.85 371.747 715.21 373.08 715.21 374.8C715.21 376.52 714.85 377.86 714.13 378.82C713.41 379.767 712.39 380.24 711.07 380.24C710.376 380.24 709.77 380.067 709.25 379.72C708.743 379.373 708.376 378.893 708.15 378.28H708.05V384H705.87V369.6ZM710.41 378.36C711.17 378.36 711.776 378.12 712.23 377.64C712.683 377.147 712.91 376.5 712.91 375.7V373.9C712.91 373.1 712.683 372.46 712.23 371.98C711.776 371.487 711.17 371.24 710.41 371.24C709.743 371.24 709.183 371.407 708.73 371.74C708.276 372.06 708.05 372.487 708.05 373.02V376.58C708.05 377.113 708.276 377.547 708.73 377.88C709.183 378.2 709.743 378.36 710.41 378.36ZM719.126 380C718.379 380 717.819 379.813 717.446 379.44C717.086 379.053 716.906 378.52 716.906 377.84V365.2H719.086V378.22H720.526V380H719.126ZM725.889 380.24C725.169 380.24 724.509 380.113 723.909 379.86C723.322 379.607 722.822 379.247 722.409 378.78C721.995 378.3 721.675 377.727 721.449 377.06C721.222 376.38 721.109 375.627 721.109 374.8C721.109 373.973 721.222 373.227 721.449 372.56C721.675 371.88 721.995 371.307 722.409 370.84C722.822 370.36 723.322 369.993 723.909 369.74C724.509 369.487 725.169 369.36 725.889 369.36C726.609 369.36 727.262 369.487 727.849 369.74C728.449 369.993 728.955 370.36 729.369 370.84C729.782 371.307 730.102 371.88 730.329 372.56C730.555 373.227 730.669 373.973 730.669 374.8C730.669 375.627 730.555 376.38 730.329 377.06C730.102 377.727 729.782 378.3 729.369 378.78C728.955 379.247 728.449 379.607 727.849 379.86C727.262 380.113 726.609 380.24 725.889 380.24ZM725.889 378.44C726.635 378.44 727.235 378.213 727.689 377.76C728.142 377.293 728.369 376.6 728.369 375.68V373.92C728.369 373 728.142 372.313 727.689 371.86C727.235 371.393 726.635 371.16 725.889 371.16C725.142 371.16 724.542 371.393 724.089 371.86C723.635 372.313 723.409 373 723.409 373.92V375.68C723.409 376.6 723.635 377.293 724.089 377.76C724.542 378.213 725.142 378.44 725.889 378.44ZM738.541 369.6H740.641L736.261 382.06C736.141 382.407 736.001 382.7 735.841 382.94C735.695 383.193 735.515 383.393 735.301 383.54C735.101 383.7 734.855 383.813 734.561 383.88C734.268 383.96 733.921 384 733.521 384H732.261V382.22H734.021L734.621 380.46L730.841 369.6H733.021L735.101 375.72L735.701 377.98H735.801L736.461 375.72L738.541 369.6ZM745.597 380.24C744.851 380.24 744.184 380.113 743.597 379.86C743.011 379.607 742.511 379.247 742.097 378.78C741.684 378.3 741.364 377.727 741.137 377.06C740.924 376.38 740.817 375.627 740.817 374.8C740.817 373.973 740.924 373.227 741.137 372.56C741.364 371.88 741.684 371.307 742.097 370.84C742.511 370.36 743.011 369.993 743.597 369.74C744.184 369.487 744.851 369.36 745.597 369.36C746.357 369.36 747.024 369.493 747.597 369.76C748.184 370.027 748.671 370.4 749.057 370.88C749.444 371.347 749.731 371.893 749.917 372.52C750.117 373.147 750.217 373.82 750.217 374.54V375.36H743.077V375.7C743.077 376.5 743.311 377.16 743.777 377.68C744.257 378.187 744.937 378.44 745.817 378.44C746.457 378.44 746.997 378.3 747.437 378.02C747.877 377.74 748.251 377.36 748.557 376.88L749.837 378.14C749.451 378.78 748.891 379.293 748.157 379.68C747.424 380.053 746.571 380.24 745.597 380.24ZM745.597 371.06C745.224 371.06 744.877 371.127 744.557 371.26C744.251 371.393 743.984 371.58 743.757 371.82C743.544 372.06 743.377 372.347 743.257 372.68C743.137 373.013 743.077 373.38 743.077 373.78V373.92H747.917V373.72C747.917 372.92 747.711 372.28 747.297 371.8C746.884 371.307 746.317 371.06 745.597 371.06ZM751.831 380V369.6H754.011V371.6H754.111C754.257 371.067 754.564 370.6 755.031 370.2C755.497 369.8 756.144 369.6 756.971 369.6H757.551V371.7H756.691C755.824 371.7 755.157 371.84 754.691 372.12C754.237 372.4 754.011 372.813 754.011 373.36V380H751.831ZM762.614 365.2H764.794V371.32H764.894C765.12 370.693 765.487 370.213 765.994 369.88C766.514 369.533 767.12 369.36 767.814 369.36C769.134 369.36 770.154 369.84 770.874 370.8C771.594 371.747 771.954 373.08 771.954 374.8C771.954 376.52 771.594 377.86 770.874 378.82C770.154 379.767 769.134 380.24 767.814 380.24C767.12 380.24 766.514 380.067 765.994 379.72C765.487 379.373 765.12 378.893 764.894 378.28H764.794V380H762.614V365.2ZM767.154 378.36C767.914 378.36 768.52 378.12 768.974 377.64C769.427 377.147 769.654 376.5 769.654 375.7V373.9C769.654 373.1 769.427 372.46 768.974 371.98C768.52 371.487 767.914 371.24 767.154 371.24C766.487 371.24 765.927 371.407 765.474 371.74C765.02 372.06 764.794 372.487 764.794 373.02V376.58C764.794 377.113 765.02 377.547 765.474 377.88C765.927 378.2 766.487 378.36 767.154 378.36ZM773.649 380V369.6H775.829V371.6H775.929C776.076 371.067 776.383 370.6 776.849 370.2C777.316 369.8 777.963 369.6 778.789 369.6H779.369V371.7H778.509C777.643 371.7 776.976 371.84 776.509 372.12C776.056 372.4 775.829 372.813 775.829 373.36V380H773.649ZM787.969 380C787.396 380 786.956 379.84 786.649 379.52C786.343 379.187 786.156 378.767 786.089 378.26H785.989C785.789 378.913 785.423 379.407 784.889 379.74C784.356 380.073 783.709 380.24 782.949 380.24C781.869 380.24 781.036 379.96 780.449 379.4C779.876 378.84 779.589 378.087 779.589 377.14C779.589 376.1 779.963 375.32 780.709 374.8C781.469 374.28 782.576 374.02 784.029 374.02H785.909V373.14C785.909 372.5 785.736 372.007 785.389 371.66C785.043 371.313 784.503 371.14 783.769 371.14C783.156 371.14 782.656 371.273 782.269 371.54C781.883 371.807 781.556 372.147 781.289 372.56L779.989 371.38C780.336 370.793 780.823 370.313 781.449 369.94C782.076 369.553 782.896 369.36 783.909 369.36C785.256 369.36 786.289 369.673 787.009 370.3C787.729 370.927 788.089 371.827 788.089 373V378.22H789.189V380H787.969ZM783.569 378.58C784.249 378.58 784.809 378.433 785.249 378.14C785.689 377.833 785.909 377.427 785.909 376.92V375.42H784.069C782.563 375.42 781.809 375.887 781.809 376.82V377.18C781.809 377.647 781.963 378 782.269 378.24C782.589 378.467 783.023 378.58 783.569 378.58ZM790.526 380V369.6H792.706V371.32H792.806C793.033 370.76 793.373 370.293 793.826 369.92C794.293 369.547 794.926 369.36 795.726 369.36C796.793 369.36 797.619 369.713 798.206 370.42C798.806 371.113 799.106 372.107 799.106 373.4V380H796.926V373.68C796.926 372.053 796.273 371.24 794.966 371.24C794.686 371.24 794.406 371.28 794.126 371.36C793.859 371.427 793.619 371.533 793.406 371.68C793.193 371.827 793.019 372.013 792.886 372.24C792.766 372.467 792.706 372.733 792.706 373.04V380H790.526ZM807.868 378.28H807.768C807.541 378.893 807.168 379.373 806.648 379.72C806.141 380.067 805.541 380.24 804.848 380.24C803.528 380.24 802.508 379.767 801.788 378.82C801.068 377.86 800.708 376.52 800.708 374.8C800.708 373.08 801.068 371.747 801.788 370.8C802.508 369.84 803.528 369.36 804.848 369.36C805.541 369.36 806.141 369.533 806.648 369.88C807.168 370.213 807.541 370.693 807.768 371.32H807.868V365.2H810.048V380H807.868V378.28ZM805.508 378.36C806.174 378.36 806.734 378.2 807.188 377.88C807.641 377.547 807.868 377.113 807.868 376.58V373.02C807.868 372.487 807.641 372.06 807.188 371.74C806.734 371.407 806.174 371.24 805.508 371.24C804.748 371.24 804.141 371.487 803.688 371.98C803.234 372.46 803.008 373.1 803.008 373.9V375.7C803.008 376.5 803.234 377.147 803.688 377.64C804.141 378.12 804.748 378.36 805.508 378.36ZM813.464 367.74C813.01 367.74 812.677 367.633 812.464 367.42C812.264 367.207 812.164 366.933 812.164 366.6V366.26C812.164 365.927 812.264 365.653 812.464 365.44C812.677 365.227 813.01 365.12 813.464 365.12C813.917 365.12 814.244 365.227 814.444 365.44C814.644 365.653 814.744 365.927 814.744 366.26V366.6C814.744 366.933 814.644 367.207 814.444 367.42C814.244 367.633 813.917 367.74 813.464 367.74ZM812.364 369.6H814.544V380H812.364V369.6ZM816.856 380V369.6H819.036V371.32H819.136C819.363 370.76 819.703 370.293 820.156 369.92C820.623 369.547 821.256 369.36 822.056 369.36C823.123 369.36 823.95 369.713 824.536 370.42C825.136 371.113 825.436 372.107 825.436 373.4V380H823.256V373.68C823.256 372.053 822.603 371.24 821.296 371.24C821.016 371.24 820.736 371.28 820.456 371.36C820.19 371.427 819.95 371.533 819.736 371.68C819.523 371.827 819.35 372.013 819.216 372.24C819.096 372.467 819.036 372.733 819.036 373.04V380H816.856ZM836.778 380.98C836.778 382.06 836.365 382.873 835.538 383.42C834.711 383.967 833.365 384.24 831.498 384.24C830.645 384.24 829.918 384.18 829.318 384.06C828.731 383.953 828.245 383.793 827.858 383.58C827.485 383.367 827.211 383.107 827.038 382.8C826.865 382.493 826.778 382.14 826.778 381.74C826.778 381.167 826.931 380.72 827.238 380.4C827.558 380.08 827.998 379.86 828.558 379.74V379.52C827.771 379.267 827.378 378.733 827.378 377.92C827.378 377.387 827.558 376.98 827.918 376.7C828.278 376.407 828.711 376.2 829.218 376.08V376C828.605 375.707 828.131 375.3 827.798 374.78C827.478 374.247 827.318 373.627 827.318 372.92C827.318 371.853 827.671 370.993 828.378 370.34C829.098 369.687 830.125 369.36 831.458 369.36C832.191 369.36 832.818 369.467 833.338 369.68V369.4C833.338 368.933 833.445 368.573 833.658 368.32C833.885 368.053 834.231 367.92 834.698 367.92H836.298V369.68H834.178V370.1C834.645 370.407 835.005 370.807 835.258 371.3C835.511 371.78 835.638 372.32 835.638 372.92C835.638 373.973 835.278 374.827 834.558 375.48C833.838 376.12 832.811 376.44 831.478 376.44C830.971 376.44 830.518 376.387 830.118 376.28C829.851 376.373 829.618 376.507 829.418 376.68C829.218 376.84 829.118 377.053 829.118 377.32C829.118 377.6 829.245 377.8 829.498 377.92C829.751 378.04 830.111 378.1 830.578 378.1H833.138C834.418 378.1 835.345 378.36 835.918 378.88C836.491 379.387 836.778 380.087 836.778 380.98ZM834.738 381.22C834.738 380.86 834.598 380.573 834.318 380.36C834.051 380.147 833.558 380.04 832.838 380.04H829.318C828.838 380.32 828.598 380.72 828.598 381.24C828.598 381.667 828.765 382.007 829.098 382.26C829.445 382.527 830.025 382.66 830.838 382.66H832.198C833.891 382.66 834.738 382.18 834.738 381.22ZM831.478 374.86C832.118 374.86 832.611 374.72 832.958 374.44C833.318 374.147 833.498 373.7 833.498 373.1V372.7C833.498 372.1 833.318 371.66 832.958 371.38C832.611 371.087 832.118 370.94 831.478 370.94C830.838 370.94 830.338 371.087 829.978 371.38C829.631 371.66 829.458 372.1 829.458 372.7V373.1C829.458 373.7 829.631 374.147 829.978 374.44C830.338 374.72 830.838 374.86 831.478 374.86Z" fill="white"/>
<path d="M1226.98 125L1225.72 121.22H1220.5L1219.28 125H1216.98L1221.74 111.04H1224.58L1229.34 125H1226.98ZM1223.16 113.12H1223.06L1221.04 119.28H1225.16L1223.16 113.12ZM1233.23 125C1232.47 125 1231.9 124.807 1231.51 124.42C1231.12 124.02 1230.93 123.46 1230.93 122.74V116.38H1229.31V114.6H1230.19C1230.55 114.6 1230.8 114.52 1230.93 114.36C1231.08 114.2 1231.15 113.94 1231.15 113.58V111.76H1233.11V114.6H1235.29V116.38H1233.11V123.22H1235.13V125H1233.23ZM1239.6 125C1238.84 125 1238.27 124.807 1237.88 124.42C1237.49 124.02 1237.3 123.46 1237.3 122.74V116.38H1235.68V114.6H1236.56C1236.92 114.6 1237.17 114.52 1237.3 114.36C1237.45 114.2 1237.52 113.94 1237.52 113.58V111.76H1239.48V114.6H1241.66V116.38H1239.48V123.22H1241.5V125H1239.6ZM1243.22 125V114.6H1245.4V116.6H1245.5C1245.65 116.067 1245.96 115.6 1246.42 115.2C1246.89 114.8 1247.54 114.6 1248.36 114.6H1248.94V116.7H1248.08C1247.22 116.7 1246.55 116.84 1246.08 117.12C1245.63 117.4 1245.4 117.813 1245.4 118.36V125H1243.22ZM1257.54 125C1256.97 125 1256.53 124.84 1256.22 124.52C1255.92 124.187 1255.73 123.767 1255.66 123.26H1255.56C1255.36 123.913 1255 124.407 1254.46 124.74C1253.93 125.073 1253.28 125.24 1252.52 125.24C1251.44 125.24 1250.61 124.96 1250.02 124.4C1249.45 123.84 1249.16 123.087 1249.16 122.14C1249.16 121.1 1249.54 120.32 1250.28 119.8C1251.04 119.28 1252.15 119.02 1253.6 119.02H1255.48V118.14C1255.48 117.5 1255.31 117.007 1254.96 116.66C1254.62 116.313 1254.08 116.14 1253.34 116.14C1252.73 116.14 1252.23 116.273 1251.84 116.54C1251.46 116.807 1251.13 117.147 1250.86 117.56L1249.56 116.38C1249.91 115.793 1250.4 115.313 1251.02 114.94C1251.65 114.553 1252.47 114.36 1253.48 114.36C1254.83 114.36 1255.86 114.673 1256.58 115.3C1257.3 115.927 1257.66 116.827 1257.66 118V123.22H1258.76V125H1257.54ZM1253.14 123.58C1253.82 123.58 1254.38 123.433 1254.82 123.14C1255.26 122.833 1255.48 122.427 1255.48 121.92V120.42H1253.64C1252.14 120.42 1251.38 120.887 1251.38 121.82V122.18C1251.38 122.647 1251.54 123 1251.84 123.24C1252.16 123.467 1252.6 123.58 1253.14 123.58ZM1264.12 125.24C1263.37 125.24 1262.71 125.113 1262.12 124.86C1261.53 124.607 1261.04 124.247 1260.64 123.78C1260.24 123.3 1259.93 122.727 1259.72 122.06C1259.51 121.38 1259.4 120.627 1259.4 119.8C1259.4 118.973 1259.51 118.227 1259.72 117.56C1259.93 116.88 1260.24 116.307 1260.64 115.84C1261.04 115.36 1261.53 114.993 1262.12 114.74C1262.71 114.487 1263.37 114.36 1264.12 114.36C1265.16 114.36 1266.01 114.593 1266.68 115.06C1267.35 115.527 1267.83 116.147 1268.14 116.92L1266.34 117.76C1266.19 117.28 1265.93 116.9 1265.56 116.62C1265.2 116.327 1264.72 116.18 1264.12 116.18C1263.32 116.18 1262.71 116.433 1262.3 116.94C1261.9 117.433 1261.7 118.08 1261.7 118.88V120.74C1261.7 121.54 1261.9 122.193 1262.3 122.7C1262.71 123.193 1263.32 123.44 1264.12 123.44C1264.76 123.44 1265.27 123.287 1265.64 122.98C1266.03 122.66 1266.33 122.24 1266.56 121.72L1268.22 122.6C1267.87 123.453 1267.35 124.107 1266.66 124.56C1265.97 125.013 1265.12 125.24 1264.12 125.24ZM1272.38 125C1271.62 125 1271.04 124.807 1270.66 124.42C1270.27 124.02 1270.08 123.46 1270.08 122.74V116.38H1268.46V114.6H1269.34C1269.7 114.6 1269.94 114.52 1270.08 114.36C1270.22 114.2 1270.3 113.94 1270.3 113.58V111.76H1272.26V114.6H1274.44V116.38H1272.26V123.22H1274.28V125H1272.38ZM1288.15 123.58C1287.97 123.753 1287.76 123.94 1287.51 124.14C1287.27 124.327 1286.98 124.507 1286.65 124.68C1286.33 124.84 1285.95 124.973 1285.53 125.08C1285.11 125.187 1284.64 125.24 1284.11 125.24C1283.39 125.24 1282.75 125.14 1282.19 124.94C1281.63 124.74 1281.15 124.467 1280.77 124.12C1280.39 123.773 1280.11 123.367 1279.91 122.9C1279.72 122.42 1279.63 121.907 1279.63 121.36C1279.63 120.867 1279.7 120.427 1279.85 120.04C1280.01 119.64 1280.21 119.287 1280.47 118.98C1280.73 118.66 1281.03 118.38 1281.37 118.14C1281.71 117.887 1282.08 117.653 1282.47 117.44C1282.03 116.973 1281.65 116.467 1281.35 115.92C1281.04 115.373 1280.89 114.787 1280.89 114.16C1280.89 113.693 1280.97 113.253 1281.15 112.84C1281.33 112.427 1281.59 112.073 1281.93 111.78C1282.26 111.473 1282.66 111.233 1283.13 111.06C1283.61 110.887 1284.13 110.8 1284.71 110.8C1285.24 110.8 1285.73 110.873 1286.19 111.02C1286.64 111.167 1287.03 111.373 1287.37 111.64C1287.7 111.907 1287.95 112.233 1288.13 112.62C1288.31 112.993 1288.41 113.413 1288.41 113.88C1288.41 114.333 1288.33 114.747 1288.17 115.12C1288.01 115.48 1287.79 115.813 1287.51 116.12C1287.23 116.413 1286.9 116.693 1286.53 116.96C1286.17 117.213 1285.78 117.46 1285.37 117.7L1288.09 120.64C1288.27 120.16 1288.42 119.653 1288.53 119.12C1288.63 118.587 1288.7 118.047 1288.73 117.5H1291.71V119.34H1290.35C1290.15 120.353 1289.84 121.253 1289.43 122.04L1292.17 125H1289.45L1288.15 123.58ZM1284.71 112.54C1284.23 112.54 1283.82 112.687 1283.49 112.98C1283.15 113.26 1282.99 113.633 1282.99 114.1V114.26C1282.99 114.607 1283.09 114.953 1283.31 115.3C1283.53 115.647 1283.85 116.047 1284.27 116.5C1284.83 116.193 1285.31 115.853 1285.71 115.48C1286.11 115.093 1286.31 114.653 1286.31 114.16V114C1286.31 113.533 1286.16 113.173 1285.87 112.92C1285.57 112.667 1285.19 112.54 1284.71 112.54ZM1284.37 123.38C1284.93 123.38 1285.42 123.287 1285.85 123.1C1286.27 122.913 1286.65 122.653 1286.97 122.32L1283.57 118.66C1283.06 118.94 1282.65 119.253 1282.33 119.6C1282.02 119.947 1281.87 120.42 1281.87 121.02V121.28C1281.87 121.92 1282.09 122.433 1282.53 122.82C1282.97 123.193 1283.58 123.38 1284.37 123.38ZM1297.19 110.2H1299.37V116.32H1299.47C1299.7 115.76 1300.04 115.293 1300.49 114.92C1300.96 114.547 1301.59 114.36 1302.39 114.36C1303.46 114.36 1304.29 114.713 1304.87 115.42C1305.47 116.113 1305.77 117.107 1305.77 118.4V125H1303.59V118.66C1303.59 117.047 1302.94 116.24 1301.63 116.24C1301.35 116.24 1301.07 116.28 1300.79 116.36C1300.53 116.427 1300.29 116.533 1300.07 116.68C1299.86 116.827 1299.69 117.013 1299.55 117.24C1299.43 117.467 1299.37 117.727 1299.37 118.02V125H1297.19V110.2ZM1309.1 112.74C1308.64 112.74 1308.31 112.633 1308.1 112.42C1307.9 112.207 1307.8 111.933 1307.8 111.6V111.26C1307.8 110.927 1307.9 110.653 1308.1 110.44C1308.31 110.227 1308.64 110.12 1309.1 110.12C1309.55 110.12 1309.88 110.227 1310.08 110.44C1310.28 110.653 1310.38 110.927 1310.38 111.26V111.6C1310.38 111.933 1310.28 112.207 1310.08 112.42C1309.88 112.633 1309.55 112.74 1309.1 112.74ZM1308 114.6H1310.18V125H1308V114.6ZM1312.49 125V114.6H1314.67V116.6H1314.77C1314.91 116.067 1315.22 115.6 1315.69 115.2C1316.15 114.8 1316.8 114.6 1317.63 114.6H1318.21V116.7H1317.35C1316.48 116.7 1315.81 116.84 1315.35 117.12C1314.89 117.4 1314.67 117.813 1314.67 118.36V125H1312.49ZM1323.33 125.24C1322.58 125.24 1321.91 125.113 1321.33 124.86C1320.74 124.607 1320.24 124.247 1319.83 123.78C1319.41 123.3 1319.09 122.727 1318.87 122.06C1318.65 121.38 1318.55 120.627 1318.55 119.8C1318.55 118.973 1318.65 118.227 1318.87 117.56C1319.09 116.88 1319.41 116.307 1319.83 115.84C1320.24 115.36 1320.74 114.993 1321.33 114.74C1321.91 114.487 1322.58 114.36 1323.33 114.36C1324.09 114.36 1324.75 114.493 1325.33 114.76C1325.91 115.027 1326.4 115.4 1326.79 115.88C1327.17 116.347 1327.46 116.893 1327.65 117.52C1327.85 118.147 1327.95 118.82 1327.95 119.54V120.36H1320.81V120.7C1320.81 121.5 1321.04 122.16 1321.51 122.68C1321.99 123.187 1322.67 123.44 1323.55 123.44C1324.19 123.44 1324.73 123.3 1325.17 123.02C1325.61 122.74 1325.98 122.36 1326.29 121.88L1327.57 123.14C1327.18 123.78 1326.62 124.293 1325.89 124.68C1325.15 125.053 1324.3 125.24 1323.33 125.24ZM1323.33 116.06C1322.95 116.06 1322.61 116.127 1322.29 116.26C1321.98 116.393 1321.71 116.58 1321.49 116.82C1321.27 117.06 1321.11 117.347 1320.99 117.68C1320.87 118.013 1320.81 118.38 1320.81 118.78V118.92H1325.65V118.72C1325.65 117.92 1325.44 117.28 1325.03 116.8C1324.61 116.307 1324.05 116.06 1323.33 116.06ZM1220.8 147.28H1220.7C1220.47 147.893 1220.1 148.373 1219.58 148.72C1219.07 149.067 1218.47 149.24 1217.78 149.24C1216.46 149.24 1215.44 148.767 1214.72 147.82C1214 146.86 1213.64 145.52 1213.64 143.8C1213.64 142.08 1214 140.747 1214.72 139.8C1215.44 138.84 1216.46 138.36 1217.78 138.36C1218.47 138.36 1219.07 138.533 1219.58 138.88C1220.1 139.213 1220.47 139.693 1220.7 140.32H1220.8V134.2H1222.98V149H1220.8V147.28ZM1218.44 147.36C1219.1 147.36 1219.66 147.2 1220.12 146.88C1220.57 146.547 1220.8 146.113 1220.8 145.58V142.02C1220.8 141.487 1220.57 141.06 1220.12 140.74C1219.66 140.407 1219.1 140.24 1218.44 140.24C1217.68 140.24 1217.07 140.487 1216.62 140.98C1216.16 141.46 1215.94 142.1 1215.94 142.9V144.7C1215.94 145.5 1216.16 146.147 1216.62 146.64C1217.07 147.12 1217.68 147.36 1218.44 147.36ZM1226.39 136.74C1225.94 136.74 1225.61 136.633 1225.39 136.42C1225.19 136.207 1225.09 135.933 1225.09 135.6V135.26C1225.09 134.927 1225.19 134.653 1225.39 134.44C1225.61 134.227 1225.94 134.12 1226.39 134.12C1226.85 134.12 1227.17 134.227 1227.37 134.44C1227.57 134.653 1227.67 134.927 1227.67 135.26V135.6C1227.67 135.933 1227.57 136.207 1227.37 136.42C1227.17 136.633 1226.85 136.74 1226.39 136.74ZM1225.29 138.6H1227.47V149H1225.29V138.6ZM1232.05 149L1228.51 138.6H1230.67L1232.25 143.34L1233.31 146.98H1233.43L1234.49 143.34L1236.11 138.6H1238.19L1234.61 149H1232.05ZM1243.14 149.24C1242.4 149.24 1241.73 149.113 1241.14 148.86C1240.56 148.607 1240.06 148.247 1239.64 147.78C1239.23 147.3 1238.91 146.727 1238.68 146.06C1238.47 145.38 1238.36 144.627 1238.36 143.8C1238.36 142.973 1238.47 142.227 1238.68 141.56C1238.91 140.88 1239.23 140.307 1239.64 139.84C1240.06 139.36 1240.56 138.993 1241.14 138.74C1241.73 138.487 1242.4 138.36 1243.14 138.36C1243.9 138.36 1244.57 138.493 1245.14 138.76C1245.73 139.027 1246.22 139.4 1246.6 139.88C1246.99 140.347 1247.28 140.893 1247.46 141.52C1247.66 142.147 1247.76 142.82 1247.76 143.54V144.36H1240.62V144.7C1240.62 145.5 1240.86 146.16 1241.32 146.68C1241.8 147.187 1242.48 147.44 1243.36 147.44C1244 147.44 1244.54 147.3 1244.98 147.02C1245.42 146.74 1245.8 146.36 1246.1 145.88L1247.38 147.14C1247 147.78 1246.44 148.293 1245.7 148.68C1244.97 149.053 1244.12 149.24 1243.14 149.24ZM1243.14 140.06C1242.77 140.06 1242.42 140.127 1242.1 140.26C1241.8 140.393 1241.53 140.58 1241.3 140.82C1241.09 141.06 1240.92 141.347 1240.8 141.68C1240.68 142.013 1240.62 142.38 1240.62 142.78V142.92H1245.46V142.72C1245.46 141.92 1245.26 141.28 1244.84 140.8C1244.43 140.307 1243.86 140.06 1243.14 140.06ZM1249.38 149V138.6H1251.56V140.6H1251.66C1251.8 140.067 1252.11 139.6 1252.58 139.2C1253.04 138.8 1253.69 138.6 1254.52 138.6H1255.1V140.7H1254.24C1253.37 140.7 1252.7 140.84 1252.24 141.12C1251.78 141.4 1251.56 141.813 1251.56 142.36V149H1249.38ZM1259.53 149.24C1258.55 149.24 1257.72 149.067 1257.05 148.72C1256.39 148.373 1255.81 147.893 1255.31 147.28L1256.71 146C1257.1 146.467 1257.53 146.833 1257.99 147.1C1258.47 147.353 1259.03 147.48 1259.65 147.48C1260.29 147.48 1260.77 147.36 1261.07 147.12C1261.39 146.867 1261.55 146.52 1261.55 146.08C1261.55 145.747 1261.44 145.467 1261.21 145.24C1261 145 1260.62 144.847 1260.07 144.78L1259.11 144.66C1258.05 144.527 1257.21 144.22 1256.59 143.74C1255.99 143.247 1255.69 142.52 1255.69 141.56C1255.69 141.053 1255.79 140.607 1255.97 140.22C1256.16 139.82 1256.42 139.487 1256.75 139.22C1257.1 138.94 1257.51 138.727 1257.97 138.58C1258.45 138.433 1258.98 138.36 1259.55 138.36C1260.49 138.36 1261.25 138.507 1261.83 138.8C1262.43 139.093 1262.97 139.5 1263.43 140.02L1262.09 141.3C1261.83 140.98 1261.47 140.707 1261.03 140.48C1260.61 140.24 1260.11 140.12 1259.55 140.12C1258.95 140.12 1258.51 140.24 1258.21 140.48C1257.93 140.72 1257.79 141.033 1257.79 141.42C1257.79 141.82 1257.92 142.12 1258.17 142.32C1258.43 142.52 1258.83 142.667 1259.39 142.76L1260.35 142.88C1261.5 143.053 1262.33 143.393 1262.85 143.9C1263.39 144.393 1263.65 145.06 1263.65 145.9C1263.65 146.407 1263.55 146.867 1263.35 147.28C1263.17 147.68 1262.89 148.027 1262.53 148.32C1262.17 148.613 1261.74 148.84 1261.23 149C1260.73 149.16 1260.16 149.24 1259.53 149.24ZM1269.4 149.24C1268.65 149.24 1267.98 149.113 1267.4 148.86C1266.81 148.607 1266.31 148.247 1265.9 147.78C1265.48 147.3 1265.16 146.727 1264.94 146.06C1264.72 145.38 1264.62 144.627 1264.62 143.8C1264.62 142.973 1264.72 142.227 1264.94 141.56C1265.16 140.88 1265.48 140.307 1265.9 139.84C1266.31 139.36 1266.81 138.993 1267.4 138.74C1267.98 138.487 1268.65 138.36 1269.4 138.36C1270.16 138.36 1270.82 138.493 1271.4 138.76C1271.98 139.027 1272.47 139.4 1272.86 139.88C1273.24 140.347 1273.53 140.893 1273.72 141.52C1273.92 142.147 1274.02 142.82 1274.02 143.54V144.36H1266.88V144.7C1266.88 145.5 1267.11 146.16 1267.58 146.68C1268.06 147.187 1268.74 147.44 1269.62 147.44C1270.26 147.44 1270.8 147.3 1271.24 147.02C1271.68 146.74 1272.05 146.36 1272.36 145.88L1273.64 147.14C1273.25 147.78 1272.69 148.293 1271.96 148.68C1271.22 149.053 1270.37 149.24 1269.4 149.24ZM1269.4 140.06C1269.02 140.06 1268.68 140.127 1268.36 140.26C1268.05 140.393 1267.78 140.58 1267.56 140.82C1267.34 141.06 1267.18 141.347 1267.06 141.68C1266.94 142.013 1266.88 142.38 1266.88 142.78V142.92H1271.72V142.72C1271.72 141.92 1271.51 141.28 1271.1 140.8C1270.68 140.307 1270.12 140.06 1269.4 140.06ZM1282.44 149C1281.68 149 1281.1 148.807 1280.72 148.42C1280.33 148.02 1280.14 147.46 1280.14 146.74V140.38H1278.52V138.6H1279.4C1279.76 138.6 1280 138.52 1280.14 138.36C1280.28 138.2 1280.36 137.94 1280.36 137.58V135.76H1282.32V138.6H1284.5V140.38H1282.32V147.22H1284.34V149H1282.44ZM1293.68 149C1293.11 149 1292.67 148.84 1292.36 148.52C1292.05 148.187 1291.87 147.767 1291.8 147.26H1291.7C1291.5 147.913 1291.13 148.407 1290.6 148.74C1290.07 149.073 1289.42 149.24 1288.66 149.24C1287.58 149.24 1286.75 148.96 1286.16 148.4C1285.59 147.84 1285.3 147.087 1285.3 146.14C1285.3 145.1 1285.67 144.32 1286.42 143.8C1287.18 143.28 1288.29 143.02 1289.74 143.02H1291.62V142.14C1291.62 141.5 1291.45 141.007 1291.1 140.66C1290.75 140.313 1290.21 140.14 1289.48 140.14C1288.87 140.14 1288.37 140.273 1287.98 140.54C1287.59 140.807 1287.27 141.147 1287 141.56L1285.7 140.38C1286.05 139.793 1286.53 139.313 1287.16 138.94C1287.79 138.553 1288.61 138.36 1289.62 138.36C1290.97 138.36 1292 138.673 1292.72 139.3C1293.44 139.927 1293.8 140.827 1293.8 142V147.22H1294.9V149H1293.68ZM1289.28 147.58C1289.96 147.58 1290.52 147.433 1290.96 147.14C1291.4 146.833 1291.62 146.427 1291.62 145.92V144.42H1289.78C1288.27 144.42 1287.52 144.887 1287.52 145.82V146.18C1287.52 146.647 1287.67 147 1287.98 147.24C1288.3 147.467 1288.73 147.58 1289.28 147.58ZM1298.46 149C1297.71 149 1297.15 148.813 1296.78 148.44C1296.42 148.053 1296.24 147.52 1296.24 146.84V134.2H1298.42V147.22H1299.86V149H1298.46ZM1305.22 149.24C1304.47 149.24 1303.81 149.113 1303.22 148.86C1302.63 148.607 1302.13 148.247 1301.72 147.78C1301.31 147.3 1300.99 146.727 1300.76 146.06C1300.55 145.38 1300.44 144.627 1300.44 143.8C1300.44 142.973 1300.55 142.227 1300.76 141.56C1300.99 140.88 1301.31 140.307 1301.72 139.84C1302.13 139.36 1302.63 138.993 1303.22 138.74C1303.81 138.487 1304.47 138.36 1305.22 138.36C1305.98 138.36 1306.65 138.493 1307.22 138.76C1307.81 139.027 1308.29 139.4 1308.68 139.88C1309.07 140.347 1309.35 140.893 1309.54 141.52C1309.74 142.147 1309.84 142.82 1309.84 143.54V144.36H1302.7V144.7C1302.7 145.5 1302.93 146.16 1303.4 146.68C1303.88 147.187 1304.56 147.44 1305.44 147.44C1306.08 147.44 1306.62 147.3 1307.06 147.02C1307.5 146.74 1307.87 146.36 1308.18 145.88L1309.46 147.14C1309.07 147.78 1308.51 148.293 1307.78 148.68C1307.05 149.053 1306.19 149.24 1305.22 149.24ZM1305.22 140.06C1304.85 140.06 1304.5 140.127 1304.18 140.26C1303.87 140.393 1303.61 140.58 1303.38 140.82C1303.17 141.06 1303 141.347 1302.88 141.68C1302.76 142.013 1302.7 142.38 1302.7 142.78V142.92H1307.54V142.72C1307.54 141.92 1307.33 141.28 1306.92 140.8C1306.51 140.307 1305.94 140.06 1305.22 140.06ZM1311.45 149V138.6H1313.63V140.32H1313.73C1313.96 139.76 1314.3 139.293 1314.75 138.92C1315.22 138.547 1315.85 138.36 1316.65 138.36C1317.72 138.36 1318.55 138.713 1319.13 139.42C1319.73 140.113 1320.03 141.107 1320.03 142.4V149H1317.85V142.68C1317.85 141.053 1317.2 140.24 1315.89 140.24C1315.61 140.24 1315.33 140.28 1315.05 140.36C1314.79 140.427 1314.55 140.533 1314.33 140.68C1314.12 140.827 1313.95 141.013 1313.81 141.24C1313.69 141.467 1313.63 141.733 1313.63 142.04V149H1311.45ZM1325.14 149C1324.38 149 1323.8 148.807 1323.42 148.42C1323.03 148.02 1322.84 147.46 1322.84 146.74V140.38H1321.22V138.6H1322.1C1322.46 138.6 1322.7 138.52 1322.84 138.36C1322.98 138.2 1323.06 137.94 1323.06 137.58V135.76H1325.02V138.6H1327.2V140.38H1325.02V147.22H1327.04V149H1325.14Z" fill="white"/>
<path d="M1055.31 297H1053.05V283.04H1059.07C1060.33 283.04 1061.31 283.42 1062.03 284.18C1062.75 284.927 1063.11 285.947 1063.11 287.24C1063.11 288.24 1062.88 289.073 1062.41 289.74C1061.96 290.393 1061.29 290.853 1060.39 291.12L1063.41 297H1060.89L1058.09 291.36H1055.31V297ZM1058.91 289.46C1059.49 289.46 1059.93 289.313 1060.25 289.02C1060.57 288.713 1060.73 288.28 1060.73 287.72V286.76C1060.73 286.2 1060.57 285.773 1060.25 285.48C1059.93 285.173 1059.49 285.02 1058.91 285.02H1055.31V289.46H1058.91ZM1068.99 297.24C1068.24 297.24 1067.57 297.113 1066.99 296.86C1066.4 296.607 1065.9 296.247 1065.49 295.78C1065.07 295.3 1064.75 294.727 1064.53 294.06C1064.31 293.38 1064.21 292.627 1064.21 291.8C1064.21 290.973 1064.31 290.227 1064.53 289.56C1064.75 288.88 1065.07 288.307 1065.49 287.84C1065.9 287.36 1066.4 286.993 1066.99 286.74C1067.57 286.487 1068.24 286.36 1068.99 286.36C1069.75 286.36 1070.41 286.493 1070.99 286.76C1071.57 287.027 1072.06 287.4 1072.45 287.88C1072.83 288.347 1073.12 288.893 1073.31 289.52C1073.51 290.147 1073.61 290.82 1073.61 291.54V292.36H1066.47V292.7C1066.47 293.5 1066.7 294.16 1067.17 294.68C1067.65 295.187 1068.33 295.44 1069.21 295.44C1069.85 295.44 1070.39 295.3 1070.83 295.02C1071.27 294.74 1071.64 294.36 1071.95 293.88L1073.23 295.14C1072.84 295.78 1072.28 296.293 1071.55 296.68C1070.81 297.053 1069.96 297.24 1068.99 297.24ZM1068.99 288.06C1068.61 288.06 1068.27 288.127 1067.95 288.26C1067.64 288.393 1067.37 288.58 1067.15 288.82C1066.93 289.06 1066.77 289.347 1066.65 289.68C1066.53 290.013 1066.47 290.38 1066.47 290.78V290.92H1071.31V290.72C1071.31 289.92 1071.1 289.28 1070.69 288.8C1070.27 288.307 1069.71 288.06 1068.99 288.06ZM1082.84 297C1082.27 297 1081.83 296.84 1081.52 296.52C1081.21 296.187 1081.03 295.767 1080.96 295.26H1080.86C1080.66 295.913 1080.29 296.407 1079.76 296.74C1079.23 297.073 1078.58 297.24 1077.82 297.24C1076.74 297.24 1075.91 296.96 1075.32 296.4C1074.75 295.84 1074.46 295.087 1074.46 294.14C1074.46 293.1 1074.83 292.32 1075.58 291.8C1076.34 291.28 1077.45 291.02 1078.9 291.02H1080.78V290.14C1080.78 289.5 1080.61 289.007 1080.26 288.66C1079.91 288.313 1079.37 288.14 1078.64 288.14C1078.03 288.14 1077.53 288.273 1077.14 288.54C1076.75 288.807 1076.43 289.147 1076.16 289.56L1074.86 288.38C1075.21 287.793 1075.69 287.313 1076.32 286.94C1076.95 286.553 1077.77 286.36 1078.78 286.36C1080.13 286.36 1081.16 286.673 1081.88 287.3C1082.6 287.927 1082.96 288.827 1082.96 290V295.22H1084.06V297H1082.84ZM1078.44 295.58C1079.12 295.58 1079.68 295.433 1080.12 295.14C1080.56 294.833 1080.78 294.427 1080.78 293.92V292.42H1078.94C1077.43 292.42 1076.68 292.887 1076.68 293.82V294.18C1076.68 294.647 1076.83 295 1077.14 295.24C1077.46 295.467 1077.89 295.58 1078.44 295.58ZM1089.42 297.24C1088.67 297.24 1088 297.113 1087.42 296.86C1086.83 296.607 1086.34 296.247 1085.94 295.78C1085.54 295.3 1085.23 294.727 1085.02 294.06C1084.8 293.38 1084.7 292.627 1084.7 291.8C1084.7 290.973 1084.8 290.227 1085.02 289.56C1085.23 288.88 1085.54 288.307 1085.94 287.84C1086.34 287.36 1086.83 286.993 1087.42 286.74C1088 286.487 1088.67 286.36 1089.42 286.36C1090.46 286.36 1091.31 286.593 1091.98 287.06C1092.64 287.527 1093.13 288.147 1093.44 288.92L1091.64 289.76C1091.49 289.28 1091.23 288.9 1090.86 288.62C1090.5 288.327 1090.02 288.18 1089.42 288.18C1088.62 288.18 1088.01 288.433 1087.6 288.94C1087.2 289.433 1087 290.08 1087 290.88V292.74C1087 293.54 1087.2 294.193 1087.6 294.7C1088.01 295.193 1088.62 295.44 1089.42 295.44C1090.06 295.44 1090.56 295.287 1090.94 294.98C1091.32 294.66 1091.63 294.24 1091.86 293.72L1093.52 294.6C1093.17 295.453 1092.65 296.107 1091.96 296.56C1091.26 297.013 1090.42 297.24 1089.42 297.24ZM1094.79 282.2H1096.97V288.32H1097.07C1097.3 287.76 1097.64 287.293 1098.09 286.92C1098.56 286.547 1099.19 286.36 1099.99 286.36C1101.06 286.36 1101.89 286.713 1102.47 287.42C1103.07 288.113 1103.37 289.107 1103.37 290.4V297H1101.19V290.66C1101.19 289.047 1100.54 288.24 1099.23 288.24C1098.95 288.24 1098.67 288.28 1098.39 288.36C1098.13 288.427 1097.89 288.533 1097.67 288.68C1097.46 288.827 1097.29 289.013 1097.15 289.24C1097.03 289.467 1096.97 289.727 1096.97 290.02V297H1094.79V282.2ZM1115.82 295.28H1115.74C1115.65 295.533 1115.52 295.78 1115.36 296.02C1115.21 296.26 1115.02 296.473 1114.78 296.66C1114.55 296.833 1114.27 296.973 1113.94 297.08C1113.62 297.187 1113.25 297.24 1112.82 297.24C1111.74 297.24 1110.9 296.893 1110.3 296.2C1109.71 295.507 1109.42 294.513 1109.42 293.22V286.6H1111.6V292.94C1111.6 294.553 1112.27 295.36 1113.6 295.36C1113.88 295.36 1114.15 295.327 1114.42 295.26C1114.69 295.18 1114.92 295.067 1115.12 294.92C1115.33 294.773 1115.5 294.587 1115.62 294.36C1115.75 294.133 1115.82 293.867 1115.82 293.56V286.6H1118V297H1115.82V295.28ZM1120.32 297V286.6H1122.5V288.32H1122.6C1122.83 287.76 1123.17 287.293 1123.62 286.92C1124.09 286.547 1124.72 286.36 1125.52 286.36C1126.59 286.36 1127.42 286.713 1128 287.42C1128.6 288.113 1128.9 289.107 1128.9 290.4V297H1126.72V290.68C1126.72 289.053 1126.07 288.24 1124.76 288.24C1124.48 288.24 1124.2 288.28 1123.92 288.36C1123.66 288.427 1123.42 288.533 1123.2 288.68C1122.99 288.827 1122.82 289.013 1122.68 289.24C1122.56 289.467 1122.5 289.733 1122.5 290.04V297H1120.32ZM1134 297C1133.24 297 1132.67 296.807 1132.28 296.42C1131.9 296.02 1131.7 295.46 1131.7 294.74V288.38H1130.08V286.6H1130.96C1131.32 286.6 1131.57 286.52 1131.7 286.36C1131.85 286.2 1131.92 285.94 1131.92 285.58V283.76H1133.88V286.6H1136.06V288.38H1133.88V295.22H1135.9V297H1134ZM1145.25 297C1144.67 297 1144.23 296.84 1143.93 296.52C1143.62 296.187 1143.43 295.767 1143.37 295.26H1143.27C1143.07 295.913 1142.7 296.407 1142.17 296.74C1141.63 297.073 1140.99 297.24 1140.23 297.24C1139.15 297.24 1138.31 296.96 1137.73 296.4C1137.15 295.84 1136.87 295.087 1136.87 294.14C1136.87 293.1 1137.24 292.32 1137.99 291.8C1138.75 291.28 1139.85 291.02 1141.31 291.02H1143.19V290.14C1143.19 289.5 1143.01 289.007 1142.67 288.66C1142.32 288.313 1141.78 288.14 1141.05 288.14C1140.43 288.14 1139.93 288.273 1139.55 288.54C1139.16 288.807 1138.83 289.147 1138.57 289.56L1137.27 288.38C1137.61 287.793 1138.1 287.313 1138.73 286.94C1139.35 286.553 1140.17 286.36 1141.19 286.36C1142.53 286.36 1143.57 286.673 1144.29 287.3C1145.01 287.927 1145.37 288.827 1145.37 290V295.22H1146.47V297H1145.25ZM1140.85 295.58C1141.53 295.58 1142.09 295.433 1142.53 295.14C1142.97 294.833 1143.19 294.427 1143.19 293.92V292.42H1141.35C1139.84 292.42 1139.09 292.887 1139.09 293.82V294.18C1139.09 294.647 1139.24 295 1139.55 295.24C1139.87 295.467 1140.3 295.58 1140.85 295.58ZM1147.8 286.6H1149.98V288.32H1150.08C1150.31 287.693 1150.68 287.213 1151.18 286.88C1151.7 286.533 1152.31 286.36 1153 286.36C1154.32 286.36 1155.34 286.84 1156.06 287.8C1156.78 288.747 1157.14 290.08 1157.14 291.8C1157.14 293.52 1156.78 294.86 1156.06 295.82C1155.34 296.767 1154.32 297.24 1153 297.24C1152.31 297.24 1151.7 297.067 1151.18 296.72C1150.68 296.373 1150.31 295.893 1150.08 295.28H1149.98V301H1147.8V286.6ZM1152.34 295.36C1153.1 295.36 1153.71 295.12 1154.16 294.64C1154.62 294.147 1154.84 293.5 1154.84 292.7V290.9C1154.84 290.1 1154.62 289.46 1154.16 288.98C1153.71 288.487 1153.1 288.24 1152.34 288.24C1151.68 288.24 1151.12 288.407 1150.66 288.74C1150.21 289.06 1149.98 289.487 1149.98 290.02V293.58C1149.98 294.113 1150.21 294.547 1150.66 294.88C1151.12 295.2 1151.68 295.36 1152.34 295.36ZM1158.84 286.6H1161.02V288.32H1161.12C1161.35 287.693 1161.71 287.213 1162.22 286.88C1162.74 286.533 1163.35 286.36 1164.04 286.36C1165.36 286.36 1166.38 286.84 1167.1 287.8C1167.82 288.747 1168.18 290.08 1168.18 291.8C1168.18 293.52 1167.82 294.86 1167.1 295.82C1166.38 296.767 1165.36 297.24 1164.04 297.24C1163.35 297.24 1162.74 297.067 1162.22 296.72C1161.71 296.373 1161.35 295.893 1161.12 295.28H1161.02V301H1158.84V286.6ZM1163.38 295.36C1164.14 295.36 1164.75 295.12 1165.2 294.64C1165.65 294.147 1165.88 293.5 1165.88 292.7V290.9C1165.88 290.1 1165.65 289.46 1165.2 288.98C1164.75 288.487 1164.14 288.24 1163.38 288.24C1162.71 288.24 1162.15 288.407 1161.7 288.74C1161.25 289.06 1161.02 289.487 1161.02 290.02V293.58C1161.02 294.113 1161.25 294.547 1161.7 294.88C1162.15 295.2 1162.71 295.36 1163.38 295.36ZM1173.96 297.24C1173.21 297.24 1172.54 297.113 1171.96 296.86C1171.37 296.607 1170.87 296.247 1170.46 295.78C1170.04 295.3 1169.72 294.727 1169.5 294.06C1169.28 293.38 1169.18 292.627 1169.18 291.8C1169.18 290.973 1169.28 290.227 1169.5 289.56C1169.72 288.88 1170.04 288.307 1170.46 287.84C1170.87 287.36 1171.37 286.993 1171.96 286.74C1172.54 286.487 1173.21 286.36 1173.96 286.36C1174.72 286.36 1175.38 286.493 1175.96 286.76C1176.54 287.027 1177.03 287.4 1177.42 287.88C1177.8 288.347 1178.09 288.893 1178.28 289.52C1178.48 290.147 1178.58 290.82 1178.58 291.54V292.36H1171.44V292.7C1171.44 293.5 1171.67 294.16 1172.14 294.68C1172.62 295.187 1173.3 295.44 1174.18 295.44C1174.82 295.44 1175.36 295.3 1175.8 295.02C1176.24 294.74 1176.61 294.36 1176.92 293.88L1178.2 295.14C1177.81 295.78 1177.25 296.293 1176.52 296.68C1175.78 297.053 1174.93 297.24 1173.96 297.24ZM1173.96 288.06C1173.58 288.06 1173.24 288.127 1172.92 288.26C1172.61 288.393 1172.34 288.58 1172.12 288.82C1171.9 289.06 1171.74 289.347 1171.62 289.68C1171.5 290.013 1171.44 290.38 1171.44 290.78V290.92H1176.28V290.72C1176.28 289.92 1176.07 289.28 1175.66 288.8C1175.24 288.307 1174.68 288.06 1173.96 288.06ZM1186.73 295.28H1186.63C1186.4 295.893 1186.03 296.373 1185.51 296.72C1185 297.067 1184.4 297.24 1183.71 297.24C1182.39 297.24 1181.37 296.767 1180.65 295.82C1179.93 294.86 1179.57 293.52 1179.57 291.8C1179.57 290.08 1179.93 288.747 1180.65 287.8C1181.37 286.84 1182.39 286.36 1183.71 286.36C1184.4 286.36 1185 286.533 1185.51 286.88C1186.03 287.213 1186.4 287.693 1186.63 288.32H1186.73V282.2H1188.91V297H1186.73V295.28ZM1184.37 295.36C1185.04 295.36 1185.6 295.2 1186.05 294.88C1186.5 294.547 1186.73 294.113 1186.73 293.58V290.02C1186.73 289.487 1186.5 289.06 1186.05 288.74C1185.6 288.407 1185.04 288.24 1184.37 288.24C1183.61 288.24 1183 288.487 1182.55 288.98C1182.1 289.46 1181.87 290.1 1181.87 290.9V292.7C1181.87 293.5 1182.1 294.147 1182.55 294.64C1183 295.12 1183.61 295.36 1184.37 295.36ZM1074.97 321C1074.21 321 1073.64 320.807 1073.25 320.42C1072.87 320.02 1072.67 319.46 1072.67 318.74V312.38H1071.05V310.6H1071.93C1072.29 310.6 1072.54 310.52 1072.67 310.36C1072.82 310.2 1072.89 309.94 1072.89 309.58V307.76H1074.85V310.6H1077.03V312.38H1074.85V319.22H1076.87V321H1074.97ZM1086.22 321C1085.65 321 1085.21 320.84 1084.9 320.52C1084.59 320.187 1084.41 319.767 1084.34 319.26H1084.24C1084.04 319.913 1083.67 320.407 1083.14 320.74C1082.61 321.073 1081.96 321.24 1081.2 321.24C1080.12 321.24 1079.29 320.96 1078.7 320.4C1078.13 319.84 1077.84 319.087 1077.84 318.14C1077.84 317.1 1078.21 316.32 1078.96 315.8C1079.72 315.28 1080.83 315.02 1082.28 315.02H1084.16V314.14C1084.16 313.5 1083.99 313.007 1083.64 312.66C1083.29 312.313 1082.75 312.14 1082.02 312.14C1081.41 312.14 1080.91 312.273 1080.52 312.54C1080.13 312.807 1079.81 313.147 1079.54 313.56L1078.24 312.38C1078.59 311.793 1079.07 311.313 1079.7 310.94C1080.33 310.553 1081.15 310.36 1082.16 310.36C1083.51 310.36 1084.54 310.673 1085.26 311.3C1085.98 311.927 1086.34 312.827 1086.34 314V319.22H1087.44V321H1086.22ZM1081.82 319.58C1082.5 319.58 1083.06 319.433 1083.5 319.14C1083.94 318.833 1084.16 318.427 1084.16 317.92V316.42H1082.32C1080.81 316.42 1080.06 316.887 1080.06 317.82V318.18C1080.06 318.647 1080.21 319 1080.52 319.24C1080.84 319.467 1081.27 319.58 1081.82 319.58ZM1091 321C1090.25 321 1089.69 320.813 1089.32 320.44C1088.96 320.053 1088.78 319.52 1088.78 318.84V306.2H1090.96V319.22H1092.4V321H1091ZM1097.76 321.24C1097.01 321.24 1096.35 321.113 1095.76 320.86C1095.17 320.607 1094.67 320.247 1094.26 319.78C1093.85 319.3 1093.53 318.727 1093.3 318.06C1093.09 317.38 1092.98 316.627 1092.98 315.8C1092.98 314.973 1093.09 314.227 1093.3 313.56C1093.53 312.88 1093.85 312.307 1094.26 311.84C1094.67 311.36 1095.17 310.993 1095.76 310.74C1096.35 310.487 1097.01 310.36 1097.76 310.36C1098.52 310.36 1099.19 310.493 1099.76 310.76C1100.35 311.027 1100.83 311.4 1101.22 311.88C1101.61 312.347 1101.89 312.893 1102.08 313.52C1102.28 314.147 1102.38 314.82 1102.38 315.54V316.36H1095.24V316.7C1095.24 317.5 1095.47 318.16 1095.94 318.68C1096.42 319.187 1097.1 319.44 1097.98 319.44C1098.62 319.44 1099.16 319.3 1099.6 319.02C1100.04 318.74 1100.41 318.36 1100.72 317.88L1102 319.14C1101.61 319.78 1101.05 320.293 1100.32 320.68C1099.59 321.053 1098.73 321.24 1097.76 321.24ZM1097.76 312.06C1097.39 312.06 1097.04 312.127 1096.72 312.26C1096.41 312.393 1096.15 312.58 1095.92 312.82C1095.71 313.06 1095.54 313.347 1095.42 313.68C1095.3 314.013 1095.24 314.38 1095.24 314.78V314.92H1100.08V314.72C1100.08 313.92 1099.87 313.28 1099.46 312.8C1099.05 312.307 1098.48 312.06 1097.76 312.06ZM1103.99 321V310.6H1106.17V312.32H1106.27C1106.5 311.76 1106.84 311.293 1107.29 310.92C1107.76 310.547 1108.39 310.36 1109.19 310.36C1110.26 310.36 1111.09 310.713 1111.67 311.42C1112.27 312.113 1112.57 313.107 1112.57 314.4V321H1110.39V314.68C1110.39 313.053 1109.74 312.24 1108.43 312.24C1108.15 312.24 1107.87 312.28 1107.59 312.36C1107.33 312.427 1107.09 312.533 1106.87 312.68C1106.66 312.827 1106.49 313.013 1106.35 313.24C1106.23 313.467 1106.17 313.733 1106.17 314.04V321H1103.99ZM1117.67 321C1116.91 321 1116.34 320.807 1115.95 320.42C1115.57 320.02 1115.37 319.46 1115.37 318.74V312.38H1113.75V310.6H1114.63C1114.99 310.6 1115.24 310.52 1115.37 310.36C1115.52 310.2 1115.59 309.94 1115.59 309.58V307.76H1117.55V310.6H1119.73V312.38H1117.55V319.22H1119.57V321H1117.67ZM1125.23 310.6H1127.41V312.32H1127.51C1127.73 311.693 1128.1 311.213 1128.61 310.88C1129.13 310.533 1129.73 310.36 1130.43 310.36C1131.75 310.36 1132.77 310.84 1133.49 311.8C1134.21 312.747 1134.57 314.08 1134.57 315.8C1134.57 317.52 1134.21 318.86 1133.49 319.82C1132.77 320.767 1131.75 321.24 1130.43 321.24C1129.73 321.24 1129.13 321.067 1128.61 320.72C1128.1 320.373 1127.73 319.893 1127.51 319.28H1127.41V325H1125.23V310.6ZM1129.77 319.36C1130.53 319.36 1131.13 319.12 1131.59 318.64C1132.04 318.147 1132.27 317.5 1132.27 316.7V314.9C1132.27 314.1 1132.04 313.46 1131.59 312.98C1131.13 312.487 1130.53 312.24 1129.77 312.24C1129.1 312.24 1128.54 312.407 1128.09 312.74C1127.63 313.06 1127.41 313.487 1127.41 314.02V317.58C1127.41 318.113 1127.63 318.547 1128.09 318.88C1128.54 319.2 1129.1 319.36 1129.77 319.36ZM1140.34 321.24C1139.62 321.24 1138.96 321.113 1138.36 320.86C1137.77 320.607 1137.27 320.247 1136.86 319.78C1136.45 319.3 1136.13 318.727 1135.9 318.06C1135.67 317.38 1135.56 316.627 1135.56 315.8C1135.56 314.973 1135.67 314.227 1135.9 313.56C1136.13 312.88 1136.45 312.307 1136.86 311.84C1137.27 311.36 1137.77 310.993 1138.36 310.74C1138.96 310.487 1139.62 310.36 1140.34 310.36C1141.06 310.36 1141.71 310.487 1142.3 310.74C1142.9 310.993 1143.41 311.36 1143.82 311.84C1144.23 312.307 1144.55 312.88 1144.78 313.56C1145.01 314.227 1145.12 314.973 1145.12 315.8C1145.12 316.627 1145.01 317.38 1144.78 318.06C1144.55 318.727 1144.23 319.3 1143.82 319.78C1143.41 320.247 1142.9 320.607 1142.3 320.86C1141.71 321.113 1141.06 321.24 1140.34 321.24ZM1140.34 319.44C1141.09 319.44 1141.69 319.213 1142.14 318.76C1142.59 318.293 1142.82 317.6 1142.82 316.68V314.92C1142.82 314 1142.59 313.313 1142.14 312.86C1141.69 312.393 1141.09 312.16 1140.34 312.16C1139.59 312.16 1138.99 312.393 1138.54 312.86C1138.09 313.313 1137.86 314 1137.86 314.92V316.68C1137.86 317.6 1138.09 318.293 1138.54 318.76C1138.99 319.213 1139.59 319.44 1140.34 319.44ZM1150.83 321.24C1150.11 321.24 1149.45 321.113 1148.85 320.86C1148.26 320.607 1147.76 320.247 1147.35 319.78C1146.94 319.3 1146.62 318.727 1146.39 318.06C1146.16 317.38 1146.05 316.627 1146.05 315.8C1146.05 314.973 1146.16 314.227 1146.39 313.56C1146.62 312.88 1146.94 312.307 1147.35 311.84C1147.76 311.36 1148.26 310.993 1148.85 310.74C1149.45 310.487 1150.11 310.36 1150.83 310.36C1151.55 310.36 1152.2 310.487 1152.79 310.74C1153.39 310.993 1153.9 311.36 1154.31 311.84C1154.72 312.307 1155.04 312.88 1155.27 313.56C1155.5 314.227 1155.61 314.973 1155.61 315.8C1155.61 316.627 1155.5 317.38 1155.27 318.06C1155.04 318.727 1154.72 319.3 1154.31 319.78C1153.9 320.247 1153.39 320.607 1152.79 320.86C1152.2 321.113 1151.55 321.24 1150.83 321.24ZM1150.83 319.44C1151.58 319.44 1152.18 319.213 1152.63 318.76C1153.08 318.293 1153.31 317.6 1153.31 316.68V314.92C1153.31 314 1153.08 313.313 1152.63 312.86C1152.18 312.393 1151.58 312.16 1150.83 312.16C1150.08 312.16 1149.48 312.393 1149.03 312.86C1148.58 313.313 1148.35 314 1148.35 314.92V316.68C1148.35 317.6 1148.58 318.293 1149.03 318.76C1149.48 319.213 1150.08 319.44 1150.83 319.44ZM1159.46 321C1158.71 321 1158.15 320.813 1157.78 320.44C1157.42 320.053 1157.24 319.52 1157.24 318.84V306.2H1159.42V319.22H1160.86V321H1159.46ZM1165.44 321.24C1164.46 321.24 1163.63 321.067 1162.96 320.72C1162.3 320.373 1161.72 319.893 1161.22 319.28L1162.62 318C1163.01 318.467 1163.44 318.833 1163.9 319.1C1164.38 319.353 1164.94 319.48 1165.56 319.48C1166.2 319.48 1166.68 319.36 1166.98 319.12C1167.3 318.867 1167.46 318.52 1167.46 318.08C1167.46 317.747 1167.35 317.467 1167.12 317.24C1166.91 317 1166.53 316.847 1165.98 316.78L1165.02 316.66C1163.96 316.527 1163.12 316.22 1162.5 315.74C1161.9 315.247 1161.6 314.52 1161.6 313.56C1161.6 313.053 1161.7 312.607 1161.88 312.22C1162.07 311.82 1162.33 311.487 1162.66 311.22C1163.01 310.94 1163.42 310.727 1163.88 310.58C1164.36 310.433 1164.89 310.36 1165.46 310.36C1166.4 310.36 1167.16 310.507 1167.74 310.8C1168.34 311.093 1168.88 311.5 1169.34 312.02L1168 313.3C1167.74 312.98 1167.38 312.707 1166.94 312.48C1166.52 312.24 1166.02 312.12 1165.46 312.12C1164.86 312.12 1164.42 312.24 1164.12 312.48C1163.84 312.72 1163.7 313.033 1163.7 313.42C1163.7 313.82 1163.83 314.12 1164.08 314.32C1164.34 314.52 1164.74 314.667 1165.3 314.76L1166.26 314.88C1167.41 315.053 1168.24 315.393 1168.76 315.9C1169.3 316.393 1169.56 317.06 1169.56 317.9C1169.56 318.407 1169.46 318.867 1169.26 319.28C1169.08 319.68 1168.8 320.027 1168.44 320.32C1168.08 320.613 1167.65 320.84 1167.14 321C1166.64 321.16 1166.07 321.24 1165.44 321.24Z" fill="white"/>
<circle cx="456.5" cy="293.5" r="22.5" fill="#C9B6E6"/>
<circle cx="757.5" cy="423.5" r="22.5" fill="#C9B6E6"/>
<circle cx="1113.5" cy="238.5" r="22.5" fill="#C9B6E6"/>
<circle cx="1363.5" cy="131.5" r="22.5" fill="#C9B6E6"/>
<g clip-path="url(#clip0_531_110)">
<path d="M453.75 290.25H458.25" stroke="#3D2F52" stroke-width="2" stroke-linecap="round" stroke-linejoin="round"/>
<path d="M465.524 296.467L461.432 287.156C461.01 286.734 460.438 286.497 459.841 286.497C459.244 286.497 458.672 286.734 458.25 287.156V297.75" stroke="#3D2F52" stroke-width="2" stroke-linecap="round" stroke-linejoin="round"/>
<path d="M453.75 297.75V287.156C453.328 286.734 452.756 286.497 452.159 286.497C451.562 286.497 450.99 286.734 450.568 287.156L446.476 296.467" stroke="#3D2F52" stroke-width="2" stroke-linecap="round" stroke-linejoin="round"/>
<path d="M450 301.5C452.071 301.5 453.75 299.821 453.75 297.75C453.75 295.679 452.071 294 450 294C447.929 294 446.25 295.679 446.25 297.75C446.25 299.821 447.929 301.5 450 301.5Z" stroke="#3D2F52" stroke-width="2" stroke-linecap="round" stroke-linejoin="round"/>
<path d="M462 301.5C464.071 301.5 465.75 299.821 465.75 297.75C465.75 295.679 464.071 294 462 294C459.929 294 458.25 295.679 458.25 297.75C458.25 299.821 459.929 301.5 462 301.5Z" stroke="#3D2F52" stroke-width="2" stroke-linecap="round" stroke-linejoin="round"/>
</g>
<g clip-path="url(#clip1_531_110)">
<path d="M766.75 417.25L757.75 426.25L754 422.5L747.25 429.25" stroke="#3D2F52" stroke-width="2" stroke-linecap="round" stroke-linejoin="round"/>
<path d="M766.75 423.25V417.25H760.75" stroke="#3D2F52" stroke-width="2" stroke-linecap="round" stroke-linejoin="round"/>
</g>
<g clip-path="url(#clip2_531_110)">
<path d="M1104 236.75C1105.58 238.701 1108.47 241.25 1113 241.25C1117.53 241.25 1120.42 238.701 1122 236.75" stroke="#3D2F52" stroke-width="2" stroke-linecap="round" stroke-linejoin="round"/>
<path d="M1122 242.75L1119.81 238.915" stroke="#3D2F52" stroke-width="2" stroke-linecap="round" stroke-linejoin="round"/>
<path d="M1116 245L1115.34 241.011" stroke="#3D2F52" stroke-width="2" stroke-linecap="round" stroke-linejoin="round"/>
<path d="M1110 245L1110.66 241.011" stroke="#3D2F52" stroke-width="2" stroke-linecap="round" stroke-linejoin="round"/>
<path d="M1104 242.75L1106.19 238.915" stroke="#3D2F52" stroke-width="2" stroke-linecap="round" stroke-linejoin="round"/>
</g>
<g clip-path="url(#clip3_531_110)">
<path d="M1353.47 132.082L1356.16 134.769C1356.23 134.839 1356.31 134.895 1356.4 134.933C1356.49 134.97 1356.59 134.989 1356.69 134.989C1356.79 134.988 1356.89 134.968 1356.98 134.929C1357.07 134.891 1357.15 134.834 1357.22 134.764L1362.93 128.906C1363.35 128.489 1363.91 128.253 1364.5 128.247C1365.09 128.241 1365.66 128.467 1366.08 128.875C1366.99 129.751 1366.97 131.232 1366.08 132.124L1360.24 137.775C1360.17 137.844 1360.11 137.927 1360.07 138.018C1360.03 138.11 1360.01 138.208 1360.01 138.308C1360.01 138.407 1360.03 138.506 1360.07 138.598C1360.1 138.69 1360.16 138.773 1360.23 138.844L1362.92 141.531C1363.06 141.67 1363.25 141.749 1363.44 141.75C1363.64 141.751 1363.83 141.674 1363.97 141.535L1369.76 135.87C1372.69 132.946 1372.77 128.182 1369.87 125.237C1369.17 124.532 1368.35 123.971 1367.43 123.587C1366.52 123.203 1365.54 123.003 1364.55 123C1363.56 122.996 1362.58 123.188 1361.67 123.565C1360.75 123.942 1359.92 124.497 1359.22 125.197L1353.47 131.025C1353.33 131.166 1353.25 131.356 1353.25 131.554C1353.25 131.752 1353.33 131.942 1353.47 132.082Z" stroke="#3D2F52" stroke-width="2" stroke-linecap="round" stroke-linejoin="round"/>
<path d="M1363.05 135.053L1366.78 138.784" stroke="#3D2F52" stroke-width="2" stroke-linecap="round" stroke-linejoin="round"/>
<path d="M1356.23 128.229L1359.96 131.959" stroke="#3D2F52" stroke-width="2" stroke-linecap="round" stroke-linejoin="round"/>
</g>
<defs>
<clipPath id="clip0_531_110">
<rect width="24" height="24" fill="white" transform="translate(444 282)"/>
</clipPath>
<clipPath id="clip1_531_110">
<rect width="24" height="24" fill="white" transform="translate(745 412)"/>
</clipPath>
<clipPath id="clip2_531_110">
<rect width="24" height="24" fill="white" transform="translate(1101 227)"/>
</clipPath>
<clipPath id="clip3_531_110">
<rect width="24" height="24" fill="white" transform="translate(1351 120)"/>
</clipPath>
</defs>
</svg>
