<svg width="390" height="982" viewBox="0 0 390 982" fill="none" xmlns="http://www.w3.org/2000/svg">
<g filter="url(#filter0_f_523_108)">
<path d="M183.293 531.941C190.889 676.598 76.3985 686.273 18.2039 673.028L-133.455 477.011C-67.1824 402.04 64.0349 280.321 58.7229 393.219C52.0829 534.341 173.799 351.12 183.293 531.941Z" fill="#E4DDEF"/>
</g>
<g filter="url(#filter1_f_523_108)">
<path d="M225.604 104.274C227.195 -38.1408 340.132 -40.5571 396.402 -23.9635L532.948 177.753C463.238 247.223 326.883 358.549 339.154 248.096C354.491 110.029 223.614 282.292 225.604 104.274Z" fill="#FBEFE6"/>
</g>
<path d="M-29.4072 515.01H-29.6572V515.26H-29.4072V515.01ZM-29.4072 452.582H-29.1572V452.332H-29.4072V452.582ZM-28.9361 515.01V515.26H-28.6861V515.01H-28.9361ZM-28.9361 452.582V452.332H-29.1861V452.582H-28.9361ZM89.7964 452.582H90.0464V452.332H89.7964V452.582ZM89.7964 515.01H89.5464V515.26H89.7964V515.01ZM90.2675 515.01V515.26H90.5175V515.01H90.2675ZM90.2675 452.582V452.332H90.0175V452.582H90.2675ZM209 452.582H209.25V452.332H209V452.582ZM209 515.01H208.75V515.26H209V515.01ZM209.471 515.01V515.26H209.721V515.01H209.471ZM209.471 452.582V452.332H209.221V452.582H209.471ZM328.204 452.582H328.454V452.332H328.204V452.582ZM328.204 515.01H327.954V515.26H328.204V515.01ZM328.675 515.01V515.26H328.925V515.01H328.675ZM328.675 452.582V452.332H328.425V452.582H328.675ZM447.407 452.582H447.657V452.332H447.407V452.582ZM447.407 515.01H447.157V515.26H447.407V515.01ZM447.878 515.01V515.26H448.128V515.01H447.878ZM447.878 452.582V452.332H447.628V452.582H447.878ZM548 452.582V452.832H548.25V452.582H548ZM548 452.11H548.25V451.86H548V452.11ZM447.878 452.11H447.628V452.36H447.878V452.11ZM447.878 333.378V333.128H447.628V333.378H447.878ZM548 333.378V333.628H548.25V333.378H548ZM548 332.907H548.25V332.657H548V332.907ZM447.878 332.907H447.628V333.157H447.878V332.907ZM447.878 214.174V213.924H447.628V214.174H447.878ZM548 214.174V214.424H548.25V214.174H548ZM548 213.703H548.25V213.453H548V213.703ZM447.878 213.703H447.628V213.953H447.878V213.703ZM447.878 119H448.128V118.75H447.878V119ZM447.407 119V118.75H447.157V119H447.407ZM447.407 213.703V213.953H447.657V213.703H447.407ZM328.675 213.703H328.425V213.953H328.675V213.703ZM328.675 119H328.925V118.75H328.675V119ZM328.204 119V118.75H327.954V119H328.204ZM328.204 213.703V213.953H328.454V213.703H328.204ZM209.471 213.703H209.221V213.953H209.471V213.703ZM209.471 119H209.721V118.75H209.471V119ZM209 119V118.75H208.75V119H209ZM209 213.703V213.953H209.25V213.703H209ZM90.2675 213.703H90.0175V213.953H90.2675V213.703ZM90.2675 119H90.5175V118.75H90.2675V119ZM89.7964 119V118.75H89.5464V119H89.7964ZM89.7964 213.703V213.953H90.0464V213.703H89.7964ZM-28.9361 213.703H-29.1861V213.953H-28.9361V213.703ZM-28.9361 119H-28.6861V118.75H-28.9361V119ZM-29.4072 119V118.75H-29.6572V119H-29.4072ZM-29.4072 213.703V213.953H-29.1572V213.703H-29.4072ZM-130 213.703V213.453H-130.25V213.703H-130ZM-130 214.174H-130.25V214.424H-130V214.174ZM-29.4072 214.174H-29.1572V213.924H-29.4072V214.174ZM-29.4072 332.907V333.157H-29.1572V332.907H-29.4072ZM-130 332.907V332.657H-130.25V332.907H-130ZM-130 333.378H-130.25V333.628H-130V333.378ZM-29.4072 333.378H-29.1572V333.128H-29.4072V333.378ZM-29.4072 452.11V452.36H-29.1572V452.11H-29.4072ZM-130 452.11V451.86H-130.25V452.11H-130ZM-130 452.582H-130.25V452.832H-130V452.582ZM89.7964 452.11V452.36H90.0464V452.11H89.7964ZM-28.9361 452.11H-29.1861V452.36H-28.9361V452.11ZM89.7964 333.378H90.0464V333.128H89.7964V333.378ZM-28.9361 333.378V333.128H-29.1861V333.378H-28.9361ZM-28.9361 332.907H-29.1861V333.157H-28.9361V332.907ZM89.7964 332.907V333.157H90.0464V332.907H89.7964ZM89.7964 214.174H90.0464V213.924H89.7964V214.174ZM-28.9361 214.174V213.924H-29.1861V214.174H-28.9361ZM90.2675 214.174V213.924H90.0175V214.174H90.2675ZM90.2675 332.907H90.0175V333.157H90.2675V332.907ZM209 332.907V333.157H209.25V332.907H209ZM209 214.174H209.25V213.924H209V214.174ZM209.471 332.907H209.221V333.157H209.471V332.907ZM209.471 214.174V213.924H209.221V214.174H209.471ZM328.204 332.907V333.157H328.454V332.907H328.204ZM328.204 214.174H328.454V213.924H328.204V214.174ZM328.675 214.174V213.924H328.425V214.174H328.675ZM328.675 332.907H328.425V333.157H328.675V332.907ZM447.407 332.907V333.157H447.657V332.907H447.407ZM447.407 214.174H447.657V213.924H447.407V214.174ZM447.407 333.378H447.657V333.128H447.407V333.378ZM328.675 333.378V333.128H328.425V333.378H328.675ZM328.675 452.11H328.425V452.36H328.675V452.11ZM447.407 452.11V452.36H447.657V452.11H447.407ZM328.204 452.11V452.36H328.454V452.11H328.204ZM328.204 333.378H328.454V333.128H328.204V333.378ZM209.471 333.378V333.128H209.221V333.378H209.471ZM209.471 452.11H209.221V452.36H209.471V452.11ZM209 333.378H209.25V333.128H209V333.378ZM209 452.11V452.36H209.25V452.11H209ZM90.2675 333.378V333.128H90.0175V333.378H90.2675ZM90.2675 452.11H90.0175V452.36H90.2675V452.11ZM-29.1572 515.01V512.409H-29.6572V515.01H-29.1572ZM-29.1572 507.207V502.004H-29.6572V507.207H-29.1572ZM-29.1572 496.802V491.6H-29.6572V496.802H-29.1572ZM-29.1572 486.397V481.195H-29.6572V486.397H-29.1572ZM-29.1572 475.992V470.79H-29.6572V475.992H-29.1572ZM-29.1572 465.588V460.385H-29.6572V465.588H-29.1572ZM-29.1572 455.183V452.582H-29.6572V455.183H-29.1572ZM-29.4072 452.332H-32.2015V452.832H-29.4072V452.332ZM-37.79 452.332H-43.3784V452.832H-37.79V452.332ZM-48.9669 452.332H-54.5554V452.832H-48.9669V452.332ZM-60.1439 452.332H-65.7324V452.832H-60.1439V452.332ZM-71.3209 452.332H-76.9094V452.832H-71.3209V452.332ZM-82.4979 452.332H-88.0863V452.832H-82.4979V452.332ZM-93.6748 452.332H-99.2633V452.832H-93.6748V452.332ZM-104.852 452.332H-110.44V452.832H-104.852V452.332ZM-116.029 452.332H-121.617V452.832H-116.029V452.332ZM-127.206 452.332H-130V452.832H-127.206V452.332ZM-129.75 452.582V452.464H-130.25V452.582H-129.75ZM-129.75 452.228V452.11H-130.25V452.228H-129.75ZM-130 452.36H-127.206V451.86H-130V452.36ZM-121.617 452.36H-116.029V451.86H-121.617V452.36ZM-110.44 452.36H-104.852V451.86H-110.44V452.36ZM-99.2633 452.36H-93.6748V451.86H-99.2633V452.36ZM-88.0863 452.36H-82.4979V451.86H-88.0863V452.36ZM-76.9094 452.36H-71.3209V451.86H-76.9094V452.36ZM-65.7324 452.36H-60.1439V451.86H-65.7324V452.36ZM-54.5554 452.36H-48.9669V451.86H-54.5554V452.36ZM-43.3785 452.36H-37.79V451.86H-43.3785V452.36ZM-32.2015 452.36H-29.4072V451.86H-32.2015V452.36ZM-29.1572 452.11V449.412H-29.6572V452.11H-29.1572ZM-29.1572 444.015V438.618H-29.6572V444.015H-29.1572ZM-29.1572 433.221V427.824H-29.6572V433.221H-29.1572ZM-29.1572 422.427V417.03H-29.6572V422.427H-29.1572ZM-29.1572 411.634V406.237H-29.6572V411.634H-29.1572ZM-29.1572 400.84V395.443H-29.6572V400.84H-29.1572ZM-29.1572 390.046V384.649H-29.6572V390.046H-29.1572ZM-29.1572 379.252V373.855H-29.6572V379.252H-29.1572ZM-29.1572 368.458V363.061H-29.6572V368.458H-29.1572ZM-29.1572 357.664V352.267H-29.6572V357.664H-29.1572ZM-29.1572 346.87V341.473H-29.6572V346.87H-29.1572ZM-29.1572 336.077V333.378H-29.6572V336.077H-29.1572ZM-29.4072 333.128H-32.2015V333.628H-29.4072V333.128ZM-37.79 333.128H-43.3784V333.628H-37.79V333.128ZM-48.9669 333.128H-54.5554V333.628H-48.9669V333.128ZM-60.1439 333.128H-65.7324V333.628H-60.1439V333.128ZM-71.3209 333.128H-76.9094V333.628H-71.3209V333.128ZM-82.4979 333.128H-88.0863V333.628H-82.4979V333.128ZM-93.6748 333.128H-99.2633V333.628H-93.6748V333.128ZM-104.852 333.128H-110.44V333.628H-104.852V333.128ZM-116.029 333.128H-121.617V333.628H-116.029V333.128ZM-127.206 333.128H-130V333.628H-127.206V333.128ZM-129.75 333.378V333.26H-130.25V333.378H-129.75ZM-129.75 333.025V332.907H-130.25V333.025H-129.75ZM-130 333.157H-127.206V332.657H-130V333.157ZM-121.617 333.157H-116.029V332.657H-121.617V333.157ZM-110.44 333.157H-104.852V332.657H-110.44V333.157ZM-99.2633 333.157H-93.6748V332.657H-99.2633V333.157ZM-88.0863 333.157H-82.4979V332.657H-88.0863V333.157ZM-76.9094 333.157H-71.3209V332.657H-76.9094V333.157ZM-65.7324 333.157H-60.1439V332.657H-65.7324V333.157ZM-54.5554 333.157H-48.9669V332.657H-54.5554V333.157ZM-43.3785 333.157H-37.79V332.657H-43.3785V333.157ZM-32.2015 333.157H-29.4072V332.657H-32.2015V333.157ZM-29.1572 332.907V329.939H-29.6572V332.907H-29.1572ZM-29.1572 324.002V318.065H-29.6572V324.002H-29.1572ZM-29.1572 312.129V306.192H-29.6572V312.129H-29.1572ZM-29.1572 300.255V294.319H-29.6572V300.255H-29.1572ZM-29.1572 288.382V282.446H-29.6572V288.382H-29.1572ZM-29.1572 276.509V270.572H-29.6572V276.509H-29.1572ZM-29.1572 264.636V258.699H-29.6572V264.636H-29.1572ZM-29.1572 252.762V246.826H-29.6572V252.762H-29.1572ZM-29.1572 240.889V234.953H-29.6572V240.889H-29.1572ZM-29.1572 229.016V223.079H-29.6572V229.016H-29.1572ZM-29.1572 217.143V214.174H-29.6572V217.143H-29.1572ZM-29.4072 213.924H-32.2015V214.424H-29.4072V213.924ZM-37.79 213.924H-43.3784V214.424H-37.79V213.924ZM-48.9669 213.924H-54.5554V214.424H-48.9669V213.924ZM-60.1439 213.924H-65.7324V214.424H-60.1439V213.924ZM-71.3209 213.924H-76.9094V214.424H-71.3209V213.924ZM-82.4979 213.924H-88.0863V214.424H-82.4979V213.924ZM-93.6748 213.924H-99.2633V214.424H-93.6748V213.924ZM-104.852 213.924H-110.44V214.424H-104.852V213.924ZM-116.029 213.924H-121.617V214.424H-116.029V213.924ZM-127.206 213.924H-130V214.424H-127.206V213.924ZM-129.75 214.174V214.057H-130.25V214.174H-129.75ZM-129.75 213.821V213.703H-130.25V213.821H-129.75ZM-130 213.953H-127.206V213.453H-130V213.953ZM-121.617 213.953H-116.029V213.453H-121.617V213.953ZM-110.44 213.953H-104.852V213.453H-110.44V213.953ZM-99.2633 213.953H-93.6748V213.453H-99.2633V213.953ZM-88.0863 213.953H-82.4979V213.453H-88.0863V213.953ZM-76.9094 213.953H-71.3209V213.453H-76.9094V213.953ZM-65.7324 213.953H-60.1439V213.453H-65.7324V213.953ZM-54.5554 213.953H-48.9669V213.453H-54.5554V213.953ZM-43.3785 213.953H-37.79V213.453H-43.3785V213.953ZM-32.2015 213.953H-29.4072V213.453H-32.2015V213.953ZM-29.1572 213.703V210.744H-29.6572V213.703H-29.1572ZM-29.1572 204.825V198.906H-29.6572V204.825H-29.1572ZM-29.1572 192.987V187.068H-29.6572V192.987H-29.1572ZM-29.1572 181.149V175.23H-29.6572V181.149H-29.1572ZM-29.1572 169.311V163.392H-29.6572V169.311H-29.1572ZM-29.1572 157.473V151.554H-29.6572V157.473H-29.1572ZM-29.1572 145.635V139.716H-29.6572V145.635H-29.1572ZM-29.1572 133.797V127.878H-29.6572V133.797H-29.1572ZM-29.1572 121.959V119H-29.6572V121.959H-29.1572ZM-29.4072 119.25H-29.2894V118.75H-29.4072V119.25ZM-29.0539 119.25H-28.9361V118.75H-29.0539V119.25ZM-29.1861 119V121.959H-28.6861V119H-29.1861ZM-29.1861 127.878V133.797H-28.6861V127.878H-29.1861ZM-29.1861 139.716V145.635H-28.6861V139.716H-29.1861ZM-29.1861 151.554V157.473H-28.6861V151.554H-29.1861ZM-29.1861 163.392V169.311H-28.6861V163.392H-29.1861ZM-29.1861 175.23V181.149H-28.6861V175.23H-29.1861ZM-29.1861 187.068V192.987H-28.6861V187.068H-29.1861ZM-29.1861 198.906V204.825H-28.6861V198.906H-29.1861ZM-29.1861 210.744V213.703H-28.6861V210.744H-29.1861ZM-28.9361 213.953H-26.2376V213.453H-28.9361V213.953ZM-20.8407 213.953H-15.4437V213.453H-20.8407V213.953ZM-10.0468 213.953H-4.64988V213.453H-10.0468V213.953ZM0.74704 213.953H6.14398V213.453H0.74704V213.953ZM11.5409 213.953H16.9378V213.453H11.5409V213.953ZM22.3348 213.953H27.7317V213.453H22.3348V213.953ZM33.1286 213.953H38.5256V213.453H33.1286V213.953ZM43.9225 213.953H49.3194V213.453H43.9225V213.953ZM54.7163 213.953H60.1133V213.453H54.7163V213.953ZM65.5102 213.953H70.9071V213.453H65.5102V213.953ZM76.304 213.953H81.701V213.453H76.304V213.953ZM87.0979 213.953H89.7964V213.453H87.0979V213.953ZM90.0464 213.703V210.744H89.5464V213.703H90.0464ZM90.0464 204.825V198.906H89.5464V204.825H90.0464ZM90.0464 192.987V187.068H89.5464V192.987H90.0464ZM90.0464 181.149V175.23H89.5464V181.149H90.0464ZM90.0464 169.311V163.392H89.5464V169.311H90.0464ZM90.0464 157.473V151.554H89.5464V157.473H90.0464ZM90.0464 145.635V139.716H89.5464V145.635H90.0464ZM90.0464 133.797V127.878H89.5464V133.797H90.0464ZM90.0464 121.959V119H89.5464V121.959H90.0464ZM89.7964 119.25H89.9142V118.75H89.7964V119.25ZM90.1497 119.25H90.2675V118.75H90.1497V119.25ZM90.0175 119V121.959H90.5175V119H90.0175ZM90.0175 127.878V133.797H90.5175V127.878H90.0175ZM90.0175 139.716V145.635H90.5175V139.716H90.0175ZM90.0175 151.554V157.473H90.5175V151.554H90.0175ZM90.0175 163.392V169.311H90.5175V163.392H90.0175ZM90.0175 175.23V181.149H90.5175V175.23H90.0175ZM90.0175 187.068V192.987H90.5175V187.068H90.0175ZM90.0175 198.906V204.825H90.5175V198.906H90.0175ZM90.0175 210.744V213.703H90.5175V210.744H90.0175ZM90.2675 213.953H92.966V213.453H90.2675V213.953ZM98.3629 213.953H103.76V213.453H98.3629V213.953ZM109.157 213.953H114.554V213.453H109.157V213.953ZM119.951 213.953H125.348V213.453H119.951V213.953ZM130.745 213.953H136.141V213.453H130.745V213.953ZM141.538 213.953H146.935V213.453H141.538V213.953ZM152.332 213.953H157.729V213.453H152.332V213.953ZM163.126 213.953H168.523V213.453H163.126V213.953ZM173.92 213.953H179.317V213.453H173.92V213.953ZM184.714 213.953H190.111V213.453H184.714V213.953ZM195.508 213.953H200.905V213.453H195.508V213.953ZM206.302 213.953H209V213.453H206.302V213.953ZM209.25 213.703V210.744H208.75V213.703H209.25ZM209.25 204.825V198.906H208.75V204.825H209.25ZM209.25 192.987V187.068H208.75V192.987H209.25ZM209.25 181.149V175.23H208.75V181.149H209.25ZM209.25 169.311V163.392H208.75V169.311H209.25ZM209.25 157.473V151.554H208.75V157.473H209.25ZM209.25 145.635V139.716H208.75V145.635H209.25ZM209.25 133.797V127.878H208.75V133.797H209.25ZM209.25 121.959V119H208.75V121.959H209.25ZM209 119.25H209.118V118.75H209V119.25ZM209.353 119.25H209.471V118.75H209.353V119.25ZM209.221 119V121.959H209.721V119H209.221ZM209.221 127.878V133.797H209.721V127.878H209.221ZM209.221 139.716V145.635H209.721V139.716H209.221ZM209.221 151.554V157.473H209.721V151.554H209.221ZM209.221 163.392V169.311H209.721V163.392H209.221ZM209.221 175.23V181.149H209.721V175.23H209.221ZM209.221 187.068V192.987H209.721V187.068H209.221ZM209.221 198.906V204.825H209.721V198.906H209.221ZM209.221 210.744V213.703H209.721V210.744H209.221ZM209.471 213.953H212.17V213.453H209.471V213.953ZM217.567 213.953H222.964V213.453H217.567V213.953ZM228.36 213.953H233.757V213.453H228.36V213.953ZM239.154 213.953H244.551V213.453H239.154V213.953ZM249.948 213.953H255.345V213.453H249.948V213.953ZM260.742 213.953H266.139V213.453H260.742V213.953ZM271.536 213.953H276.933V213.453H271.536V213.953ZM282.33 213.953H287.727V213.453H282.33V213.953ZM293.124 213.953H298.521V213.453H293.124V213.953ZM303.917 213.953H309.314V213.453H303.917V213.953ZM314.711 213.953H320.108V213.453H314.711V213.953ZM325.505 213.953H328.204V213.453H325.505V213.953ZM328.454 213.703V210.744H327.954V213.703H328.454ZM328.454 204.825V198.906H327.954V204.825H328.454ZM328.454 192.987V187.068H327.954V192.987H328.454ZM328.454 181.149V175.23H327.954V181.149H328.454ZM328.454 169.311V163.392H327.954V169.311H328.454ZM328.454 157.473V151.554H327.954V157.473H328.454ZM328.454 145.635V139.716H327.954V145.635H328.454ZM328.454 133.797V127.878H327.954V133.797H328.454ZM328.454 121.959V119H327.954V121.959H328.454ZM328.204 119.25H328.321V118.75H328.204V119.25ZM328.557 119.25H328.675V118.75H328.557V119.25ZM328.425 119V121.959H328.925V119H328.425ZM328.425 127.878V133.797H328.925V127.878H328.425ZM328.425 139.716V145.635H328.925V139.716H328.425ZM328.425 151.554V157.473H328.925V151.554H328.425ZM328.425 163.392V169.311H328.925V163.392H328.425ZM328.425 175.23V181.149H328.925V175.23H328.425ZM328.425 187.068V192.987H328.925V187.068H328.425ZM328.425 198.906V204.825H328.925V198.906H328.425ZM328.425 210.744V213.703H328.925V210.744H328.425ZM328.675 213.953H331.373V213.453H328.675V213.953ZM336.77 213.953H342.167V213.453H336.77V213.953ZM347.564 213.953H352.961V213.453H347.564V213.953ZM358.358 213.953H363.755V213.453H358.358V213.953ZM369.152 213.953H374.549V213.453H369.152V213.953ZM379.946 213.953H385.343V213.453H379.946V213.953ZM390.739 213.953H396.136V213.453H390.739V213.953ZM401.533 213.953H406.93V213.453H401.533V213.953ZM412.327 213.953H417.724V213.453H412.327V213.953ZM423.121 213.953H428.518V213.453H423.121V213.953ZM433.915 213.953H439.312V213.453H433.915V213.953ZM444.709 213.953H447.407V213.453H444.709V213.953ZM447.657 213.703V210.744H447.157V213.703H447.657ZM447.657 204.825V198.906H447.157V204.825H447.657ZM447.657 192.987V187.068H447.157V192.987H447.657ZM447.657 181.149V175.23H447.157V181.149H447.657ZM447.657 169.311V163.392H447.157V169.311H447.657ZM447.657 157.473V151.554H447.157V157.473H447.657ZM447.657 145.635V139.716H447.157V145.635H447.657ZM447.657 133.797V127.878H447.157V133.797H447.657ZM447.657 121.959V119H447.157V121.959H447.657ZM447.407 119.25H447.525V118.75H447.407V119.25ZM447.761 119.25H447.878V118.75H447.761V119.25ZM447.628 119V121.959H448.128V119H447.628ZM447.628 127.878V133.797H448.128V127.878H447.628ZM447.628 139.716V145.635H448.128V139.716H447.628ZM447.628 151.554V157.473H448.128V151.554H447.628ZM447.628 163.392V169.311H448.128V163.392H447.628ZM447.628 175.23V181.149H448.128V175.23H447.628ZM447.628 187.068V192.987H448.128V187.068H447.628ZM447.628 198.906V204.825H448.128V198.906H447.628ZM447.628 210.744V213.703H448.128V210.744H447.628ZM447.878 213.953H450.66V213.453H447.878V213.953ZM456.222 213.953H461.784V213.453H456.222V213.953ZM467.346 213.953H472.909V213.453H467.346V213.953ZM478.471 213.953H484.033V213.453H478.471V213.953ZM489.596 213.953H495.158V213.453H489.596V213.953ZM500.72 213.953H506.283V213.453H500.72V213.953ZM511.845 213.953H517.407V213.453H511.845V213.953ZM522.97 213.953H528.532V213.453H522.97V213.953ZM534.094 213.953H539.657V213.453H534.094V213.953ZM545.219 213.953H548V213.453H545.219V213.953ZM547.75 213.703V213.821H548.25V213.703H547.75ZM547.75 214.057V214.174H548.25V214.057H547.75ZM548 213.924H545.219V214.424H548V213.924ZM539.657 213.924H534.094V214.424H539.657V213.924ZM528.532 213.924H522.97V214.424H528.532V213.924ZM517.407 213.924H511.845V214.424H517.407V213.924ZM506.283 213.924H500.72V214.424H506.283V213.924ZM495.158 213.924H489.596V214.424H495.158V213.924ZM484.033 213.924H478.471V214.424H484.033V213.924ZM472.909 213.924H467.346V214.424H472.909V213.924ZM461.784 213.924H456.222V214.424H461.784V213.924ZM450.66 213.924H447.878V214.424H450.66V213.924ZM447.628 214.174V217.143H448.128V214.174H447.628ZM447.628 223.079V229.016H448.128V223.079H447.628ZM447.628 234.953V240.889H448.128V234.953H447.628ZM447.628 246.826V252.762H448.128V246.826H447.628ZM447.628 258.699V264.636H448.128V258.699H447.628ZM447.628 270.572V276.509H448.128V270.572H447.628ZM447.628 282.446V288.382H448.128V282.446H447.628ZM447.628 294.319V300.255H448.128V294.319H447.628ZM447.628 306.192V312.129H448.128V306.192H447.628ZM447.628 318.065V324.002H448.128V318.065H447.628ZM447.628 329.939V332.907H448.128V329.939H447.628ZM447.878 333.157H450.66V332.657H447.878V333.157ZM456.222 333.157H461.784V332.657H456.222V333.157ZM467.346 333.157H472.909V332.657H467.346V333.157ZM478.471 333.157H484.033V332.657H478.471V333.157ZM489.596 333.157H495.158V332.657H489.596V333.157ZM500.72 333.157H506.283V332.657H500.72V333.157ZM511.845 333.157H517.407V332.657H511.845V333.157ZM522.97 333.157H528.532V332.657H522.97V333.157ZM534.094 333.157H539.657V332.657H534.094V333.157ZM545.219 333.157H548V332.657H545.219V333.157ZM547.75 332.907V333.025H548.25V332.907H547.75ZM547.75 333.26V333.378H548.25V333.26H547.75ZM548 333.128H545.219V333.628H548V333.128ZM539.657 333.128H534.094V333.628H539.657V333.128ZM528.532 333.128H522.97V333.628H528.532V333.128ZM517.407 333.128H511.845V333.628H517.407V333.128ZM506.283 333.128H500.72V333.628H506.283V333.128ZM495.158 333.128H489.596V333.628H495.158V333.128ZM484.033 333.128H478.471V333.628H484.033V333.128ZM472.909 333.128H467.346V333.628H472.909V333.128ZM461.784 333.128H456.222V333.628H461.784V333.128ZM450.66 333.128H447.878V333.628H450.66V333.128ZM447.628 333.378V336.077H448.128V333.378H447.628ZM447.628 341.473V346.87H448.128V341.473H447.628ZM447.628 352.267V357.664H448.128V352.267H447.628ZM447.628 363.061V368.458H448.128V363.061H447.628ZM447.628 373.855V379.252H448.128V373.855H447.628ZM447.628 384.649V390.046H448.128V384.649H447.628ZM447.628 395.443V400.84H448.128V395.443H447.628ZM447.628 406.237V411.634H448.128V406.237H447.628ZM447.628 417.03V422.427H448.128V417.03H447.628ZM447.628 427.824V433.221H448.128V427.824H447.628ZM447.628 438.618V444.015H448.128V438.618H447.628ZM447.628 449.412V452.11H448.128V449.412H447.628ZM447.878 452.36H450.66V451.86H447.878V452.36ZM456.222 452.36H461.784V451.86H456.222V452.36ZM467.346 452.36H472.909V451.86H467.346V452.36ZM478.471 452.36H484.033V451.86H478.471V452.36ZM489.596 452.36H495.158V451.86H489.596V452.36ZM500.72 452.36H506.283V451.86H500.72V452.36ZM511.845 452.36H517.407V451.86H511.845V452.36ZM522.97 452.36H528.532V451.86H522.97V452.36ZM534.094 452.36H539.657V451.86H534.094V452.36ZM545.219 452.36H548V451.86H545.219V452.36ZM547.75 452.11V452.228H548.25V452.11H547.75ZM547.75 452.464V452.582H548.25V452.464H547.75ZM548 452.332H545.219V452.832H548V452.332ZM539.657 452.332H534.094V452.832H539.657V452.332ZM528.532 452.332H522.97V452.832H528.532V452.332ZM517.407 452.332H511.845V452.832H517.407V452.332ZM506.283 452.332H500.72V452.832H506.283V452.332ZM495.158 452.332H489.596V452.832H495.158V452.332ZM484.033 452.332H478.471V452.832H484.033V452.332ZM472.909 452.332H467.346V452.832H472.909V452.332ZM461.784 452.332H456.222V452.832H461.784V452.332ZM450.66 452.332H447.878V452.832H450.66V452.332ZM447.628 452.582V455.183H448.128V452.582H447.628ZM447.628 460.385V465.588H448.128V460.385H447.628ZM447.628 470.79V475.992H448.128V470.79H447.628ZM447.628 481.195V486.397H448.128V481.195H447.628ZM447.628 491.6V496.802H448.128V491.6H447.628ZM447.628 502.004V507.207H448.128V502.004H447.628ZM447.628 512.409V515.01H448.128V512.409H447.628ZM447.878 514.76H447.761V515.26H447.878V514.76ZM447.525 514.76H447.407V515.26H447.525V514.76ZM447.657 515.01V512.409H447.157V515.01H447.657ZM447.657 507.207V502.004H447.157V507.207H447.657ZM447.657 496.802V491.6H447.157V496.802H447.657ZM447.657 486.397V481.195H447.157V486.397H447.657ZM447.657 475.992V470.79H447.157V475.992H447.657ZM447.657 465.588V460.385H447.157V465.588H447.657ZM447.657 455.183V452.582H447.157V455.183H447.657ZM447.407 452.332H444.709V452.832H447.407V452.332ZM439.312 452.332H433.915V452.832H439.312V452.332ZM428.518 452.332H423.121V452.832H428.518V452.332ZM417.724 452.332H412.327V452.832H417.724V452.332ZM406.93 452.332H401.533V452.832H406.93V452.332ZM396.136 452.332H390.739V452.832H396.136V452.332ZM385.343 452.332H379.946V452.832H385.343V452.332ZM374.549 452.332H369.152V452.832H374.549V452.332ZM363.755 452.332H358.358V452.832H363.755V452.332ZM352.961 452.332H347.564V452.832H352.961V452.332ZM342.167 452.332H336.77V452.832H342.167V452.332ZM331.373 452.332H328.675V452.832H331.373V452.332ZM328.425 452.582V455.183H328.925V452.582H328.425ZM328.425 460.385V465.588H328.925V460.385H328.425ZM328.425 470.79V475.992H328.925V470.79H328.425ZM328.425 481.195V486.397H328.925V481.195H328.425ZM328.425 491.6V496.802H328.925V491.6H328.425ZM328.425 502.004V507.207H328.925V502.004H328.425ZM328.425 512.409V515.01H328.925V512.409H328.425ZM328.675 514.76H328.557V515.26H328.675V514.76ZM328.321 514.76H328.204V515.26H328.321V514.76ZM328.454 515.01V512.409H327.954V515.01H328.454ZM328.454 507.207V502.004H327.954V507.207H328.454ZM328.454 496.802V491.6H327.954V496.802H328.454ZM328.454 486.397V481.195H327.954V486.397H328.454ZM328.454 475.992V470.79H327.954V475.992H328.454ZM328.454 465.588V460.385H327.954V465.588H328.454ZM328.454 455.183V452.582H327.954V455.183H328.454ZM328.204 452.332H325.505V452.832H328.204V452.332ZM320.108 452.332H314.711V452.832H320.108V452.332ZM309.314 452.332H303.917V452.832H309.314V452.332ZM298.521 452.332H293.124V452.832H298.521V452.332ZM287.727 452.332H282.33V452.832H287.727V452.332ZM276.933 452.332H271.536V452.832H276.933V452.332ZM266.139 452.332H260.742V452.832H266.139V452.332ZM255.345 452.332H249.948V452.832H255.345V452.332ZM244.551 452.332H239.154V452.832H244.551V452.332ZM233.757 452.332H228.36V452.832H233.757V452.332ZM222.963 452.332H217.567V452.832H222.963V452.332ZM212.17 452.332H209.471V452.832H212.17V452.332ZM209.221 452.582V455.183H209.721V452.582H209.221ZM209.221 460.385V465.588H209.721V460.385H209.221ZM209.221 470.79V475.992H209.721V470.79H209.221ZM209.221 481.195V486.397H209.721V481.195H209.221ZM209.221 491.6V496.802H209.721V491.6H209.221ZM209.221 502.004V507.207H209.721V502.004H209.221ZM209.221 512.409V515.01H209.721V512.409H209.221ZM209.471 514.76H209.353V515.26H209.471V514.76ZM209.118 514.76H209V515.26H209.118V514.76ZM209.25 515.01V512.409H208.75V515.01H209.25ZM209.25 507.207V502.004H208.75V507.207H209.25ZM209.25 496.802V491.6H208.75V496.802H209.25ZM209.25 486.397V481.195H208.75V486.397H209.25ZM209.25 475.992V470.79H208.75V475.992H209.25ZM209.25 465.588V460.385H208.75V465.588H209.25ZM209.25 455.183V452.582H208.75V455.183H209.25ZM209 452.332H206.302V452.832H209V452.332ZM200.905 452.332H195.508V452.832H200.905V452.332ZM190.111 452.332H184.714V452.832H190.111V452.332ZM179.317 452.332H173.92V452.832H179.317V452.332ZM168.523 452.332H163.126V452.832H168.523V452.332ZM157.729 452.332H152.332V452.832H157.729V452.332ZM146.935 452.332H141.538V452.832H146.935V452.332ZM136.141 452.332H130.745V452.832H136.141V452.332ZM125.348 452.332H119.951V452.832H125.348V452.332ZM114.554 452.332H109.157V452.832H114.554V452.332ZM103.76 452.332H98.363V452.832H103.76V452.332ZM92.966 452.332H90.2675V452.832H92.966V452.332ZM90.0175 452.582V455.183H90.5175V452.582H90.0175ZM90.0175 460.385V465.588H90.5175V460.385H90.0175ZM90.0175 470.79V475.992H90.5175V470.79H90.0175ZM90.0175 481.195V486.397H90.5175V481.195H90.0175ZM90.0175 491.6V496.802H90.5175V491.6H90.0175ZM90.0175 502.004V507.207H90.5175V502.004H90.0175ZM90.0175 512.409V515.01H90.5175V512.409H90.0175ZM90.2675 514.76H90.1497V515.26H90.2675V514.76ZM89.9142 514.76H89.7964V515.26H89.9142V514.76ZM90.0464 515.01V512.409H89.5464V515.01H90.0464ZM90.0464 507.207V502.004H89.5464V507.207H90.0464ZM90.0464 496.802V491.6H89.5464V496.802H90.0464ZM90.0464 486.397V481.195H89.5464V486.397H90.0464ZM90.0464 475.992V470.79H89.5464V475.992H90.0464ZM90.0464 465.588V460.385H89.5464V465.588H90.0464ZM90.0464 455.183V452.582H89.5464V455.183H90.0464ZM89.7964 452.332H87.0979V452.832H89.7964V452.332ZM81.701 452.332H76.3041V452.832H81.701V452.332ZM70.9071 452.332H65.5102V452.832H70.9071V452.332ZM60.1133 452.332H54.7163V452.832H60.1133V452.332ZM49.3194 452.332H43.9225V452.832H49.3194V452.332ZM38.5255 452.332H33.1286V452.832H38.5255V452.332ZM27.7317 452.332H22.3348V452.832H27.7317V452.332ZM16.9378 452.332H11.5409V452.832H16.9378V452.332ZM6.14398 452.332H0.747055V452.832H6.14398V452.332ZM-4.64987 452.332H-10.0468V452.832H-4.64987V452.332ZM-15.4437 452.332H-20.8407V452.832H-15.4437V452.332ZM-26.2376 452.332H-28.9361V452.832H-26.2376V452.332ZM-29.1861 452.582V455.183H-28.6861V452.582H-29.1861ZM-29.1861 460.385V465.588H-28.6861V460.385H-29.1861ZM-29.1861 470.79V475.992H-28.6861V470.79H-29.1861ZM-29.1861 481.195V486.397H-28.6861V481.195H-29.1861ZM-29.1861 491.6V496.802H-28.6861V491.6H-29.1861ZM-29.1861 502.004V507.207H-28.6861V502.004H-29.1861ZM-29.1861 512.409V515.01H-28.6861V512.409H-29.1861ZM-28.9361 514.76H-29.0539V515.26H-28.9361V514.76ZM-29.2894 514.76H-29.4072V515.26H-29.2894V514.76ZM89.7964 451.86H87.0979V452.36H89.7964V451.86ZM81.701 451.86H76.3041V452.36H81.701V451.86ZM70.9071 451.86H65.5102V452.36H70.9071V451.86ZM60.1133 451.86H54.7163V452.36H60.1133V451.86ZM49.3194 451.86H43.9225V452.36H49.3194V451.86ZM38.5255 451.86H33.1286V452.36H38.5255V451.86ZM27.7317 451.86H22.3348V452.36H27.7317V451.86ZM16.9378 451.86H11.5409V452.36H16.9378V451.86ZM6.14398 451.86H0.747055V452.36H6.14398V451.86ZM-4.64987 451.86H-10.0468V452.36H-4.64987V451.86ZM-15.4437 451.86H-20.8407V452.36H-15.4437V451.86ZM-26.2376 451.86H-28.9361V452.36H-26.2376V451.86ZM-28.6861 452.11V449.412H-29.1861V452.11H-28.6861ZM-28.6861 444.015V438.618H-29.1861V444.015H-28.6861ZM-28.6861 433.221V427.824H-29.1861V433.221H-28.6861ZM-28.6861 422.427V417.03H-29.1861V422.427H-28.6861ZM-28.6861 411.634V406.237H-29.1861V411.634H-28.6861ZM-28.6861 400.84V395.443H-29.1861V400.84H-28.6861ZM-28.6861 390.046V384.649H-29.1861V390.046H-28.6861ZM-28.6861 379.252V373.855H-29.1861V379.252H-28.6861ZM-28.6861 368.458V363.061H-29.1861V368.458H-28.6861ZM-28.6861 357.664V352.267H-29.1861V357.664H-28.6861ZM-28.6861 346.87V341.473H-29.1861V346.87H-28.6861ZM-28.6861 336.077V333.378H-29.1861V336.077H-28.6861ZM-28.9361 333.628H-26.2376V333.128H-28.9361V333.628ZM-20.8407 333.628H-15.4437V333.128H-20.8407V333.628ZM-10.0468 333.628H-4.64988V333.128H-10.0468V333.628ZM0.74704 333.628H6.14398V333.128H0.74704V333.628ZM11.5409 333.628H16.9378V333.128H11.5409V333.628ZM22.3348 333.628H27.7317V333.128H22.3348V333.628ZM33.1286 333.628H38.5256V333.128H33.1286V333.628ZM43.9225 333.628H49.3194V333.128H43.9225V333.628ZM54.7163 333.628H60.1133V333.128H54.7163V333.628ZM65.5102 333.628H70.9071V333.128H65.5102V333.628ZM76.304 333.628H81.701V333.128H76.304V333.628ZM87.0979 333.628H89.7964V333.128H87.0979V333.628ZM89.5464 333.378V336.077H90.0464V333.378H89.5464ZM89.5464 341.473V346.87H90.0464V341.473H89.5464ZM89.5464 352.267V357.664H90.0464V352.267H89.5464ZM89.5464 363.061V368.458H90.0464V363.061H89.5464ZM89.5464 373.855V379.252H90.0464V373.855H89.5464ZM89.5464 384.649V390.046H90.0464V384.649H89.5464ZM89.5464 395.443V400.84H90.0464V395.443H89.5464ZM89.5464 406.237V411.634H90.0464V406.237H89.5464ZM89.5464 417.03V422.427H90.0464V417.03H89.5464ZM89.5464 427.824V433.221H90.0464V427.824H89.5464ZM89.5464 438.618V444.015H90.0464V438.618H89.5464ZM89.5464 449.412V452.11H90.0464V449.412H89.5464ZM-28.6861 332.907V329.939H-29.1861V332.907H-28.6861ZM-28.6861 324.002V318.065H-29.1861V324.002H-28.6861ZM-28.6861 312.129V306.192H-29.1861V312.129H-28.6861ZM-28.6861 300.255V294.319H-29.1861V300.255H-28.6861ZM-28.6861 288.382V282.446H-29.1861V288.382H-28.6861ZM-28.6861 276.509V270.572H-29.1861V276.509H-28.6861ZM-28.6861 264.636V258.699H-29.1861V264.636H-28.6861ZM-28.6861 252.762V246.826H-29.1861V252.762H-28.6861ZM-28.6861 240.889V234.953H-29.1861V240.889H-28.6861ZM-28.6861 229.016V223.079H-29.1861V229.016H-28.6861ZM-28.6861 217.143V214.174H-29.1861V217.143H-28.6861ZM-28.9361 214.424H-26.2376V213.924H-28.9361V214.424ZM-20.8407 214.424H-15.4437V213.924H-20.8407V214.424ZM-10.0468 214.424H-4.64988V213.924H-10.0468V214.424ZM0.74704 214.424H6.14398V213.924H0.74704V214.424ZM11.5409 214.424H16.9378V213.924H11.5409V214.424ZM22.3348 214.424H27.7317V213.924H22.3348V214.424ZM33.1286 214.424H38.5256V213.924H33.1286V214.424ZM43.9225 214.424H49.3194V213.924H43.9225V214.424ZM54.7163 214.424H60.1133V213.924H54.7163V214.424ZM65.5102 214.424H70.9071V213.924H65.5102V214.424ZM76.304 214.424H81.701V213.924H76.304V214.424ZM87.0979 214.424H89.7964V213.924H87.0979V214.424ZM89.5464 214.174V217.143H90.0464V214.174H89.5464ZM89.5464 223.079V229.016H90.0464V223.079H89.5464ZM89.5464 234.953V240.889H90.0464V234.953H89.5464ZM89.5464 246.826V252.762H90.0464V246.826H89.5464ZM89.5464 258.699V264.636H90.0464V258.699H89.5464ZM89.5464 270.572V276.509H90.0464V270.572H89.5464ZM89.5464 282.446V288.382H90.0464V282.446H89.5464ZM89.5464 294.319V300.255H90.0464V294.319H89.5464ZM89.5464 306.192V312.129H90.0464V306.192H89.5464ZM89.5464 318.065V324.002H90.0464V318.065H89.5464ZM89.5464 329.939V332.907H90.0464V329.939H89.5464ZM89.7964 332.657H87.0979V333.157H89.7964V332.657ZM81.701 332.657H76.3041V333.157H81.701V332.657ZM70.9071 332.657H65.5102V333.157H70.9071V332.657ZM60.1133 332.657H54.7163V333.157H60.1133V332.657ZM49.3194 332.657H43.9225V333.157H49.3194V332.657ZM38.5255 332.657H33.1286V333.157H38.5255V332.657ZM27.7317 332.657H22.3348V333.157H27.7317V332.657ZM16.9378 332.657H11.5409V333.157H16.9378V332.657ZM6.14398 332.657H0.747055V333.157H6.14398V332.657ZM-4.64987 332.657H-10.0468V333.157H-4.64987V332.657ZM-15.4437 332.657H-20.8407V333.157H-15.4437V332.657ZM-26.2376 332.657H-28.9361V333.157H-26.2376V332.657ZM90.0175 214.174V217.143H90.5175V214.174H90.0175ZM90.0175 223.079V229.016H90.5175V223.079H90.0175ZM90.0175 234.953V240.889H90.5175V234.953H90.0175ZM90.0175 246.826V252.762H90.5175V246.826H90.0175ZM90.0175 258.699V264.636H90.5175V258.699H90.0175ZM90.0175 270.572V276.509H90.5175V270.572H90.0175ZM90.0175 282.446V288.382H90.5175V282.446H90.0175ZM90.0175 294.319V300.255H90.5175V294.319H90.0175ZM90.0175 306.192V312.129H90.5175V306.192H90.0175ZM90.0175 318.065V324.002H90.5175V318.065H90.0175ZM90.0175 329.939V332.907H90.5175V329.939H90.0175ZM90.2675 333.157H92.966V332.657H90.2675V333.157ZM98.3629 333.157H103.76V332.657H98.3629V333.157ZM109.157 333.157H114.554V332.657H109.157V333.157ZM119.951 333.157H125.348V332.657H119.951V333.157ZM130.745 333.157H136.141V332.657H130.745V333.157ZM141.538 333.157H146.935V332.657H141.538V333.157ZM152.332 333.157H157.729V332.657H152.332V333.157ZM163.126 333.157H168.523V332.657H163.126V333.157ZM173.92 333.157H179.317V332.657H173.92V333.157ZM184.714 333.157H190.111V332.657H184.714V333.157ZM195.508 333.157H200.905V332.657H195.508V333.157ZM206.302 333.157H209V332.657H206.302V333.157ZM209.25 332.907V329.939H208.75V332.907H209.25ZM209.25 324.002V318.065H208.75V324.002H209.25ZM209.25 312.129V306.192H208.75V312.129H209.25ZM209.25 300.255V294.319H208.75V300.255H209.25ZM209.25 288.382V282.446H208.75V288.382H209.25ZM209.25 276.509V270.572H208.75V276.509H209.25ZM209.25 264.636V258.699H208.75V264.636H209.25ZM209.25 252.762V246.826H208.75V252.762H209.25ZM209.25 240.889V234.953H208.75V240.889H209.25ZM209.25 229.016V223.079H208.75V229.016H209.25ZM209.25 217.143V214.174H208.75V217.143H209.25ZM209 213.924H206.302V214.424H209V213.924ZM200.905 213.924H195.508V214.424H200.905V213.924ZM190.111 213.924H184.714V214.424H190.111V213.924ZM179.317 213.924H173.92V214.424H179.317V213.924ZM168.523 213.924H163.126V214.424H168.523V213.924ZM157.729 213.924H152.332V214.424H157.729V213.924ZM146.935 213.924H141.538V214.424H146.935V213.924ZM136.141 213.924H130.745V214.424H136.141V213.924ZM125.348 213.924H119.951V214.424H125.348V213.924ZM114.554 213.924H109.157V214.424H114.554V213.924ZM103.76 213.924H98.363V214.424H103.76V213.924ZM92.966 213.924H90.2675V214.424H92.966V213.924ZM209.721 332.907V329.939H209.221V332.907H209.721ZM209.721 324.002V318.065H209.221V324.002H209.721ZM209.721 312.129V306.192H209.221V312.129H209.721ZM209.721 300.255V294.319H209.221V300.255H209.721ZM209.721 288.382V282.446H209.221V288.382H209.721ZM209.721 276.509V270.572H209.221V276.509H209.721ZM209.721 264.636V258.699H209.221V264.636H209.721ZM209.721 252.762V246.826H209.221V252.762H209.721ZM209.721 240.889V234.953H209.221V240.889H209.721ZM209.721 229.016V223.079H209.221V229.016H209.721ZM209.721 217.143V214.174H209.221V217.143H209.721ZM209.471 214.424H212.17V213.924H209.471V214.424ZM217.567 214.424H222.964V213.924H217.567V214.424ZM228.36 214.424H233.757V213.924H228.36V214.424ZM239.154 214.424H244.551V213.924H239.154V214.424ZM249.948 214.424H255.345V213.924H249.948V214.424ZM260.742 214.424H266.139V213.924H260.742V214.424ZM271.536 214.424H276.933V213.924H271.536V214.424ZM282.33 214.424H287.727V213.924H282.33V214.424ZM293.124 214.424H298.521V213.924H293.124V214.424ZM303.917 214.424H309.314V213.924H303.917V214.424ZM314.711 214.424H320.108V213.924H314.711V214.424ZM325.505 214.424H328.204V213.924H325.505V214.424ZM327.954 214.174V217.143H328.454V214.174H327.954ZM327.954 223.079V229.016H328.454V223.079H327.954ZM327.954 234.953V240.889H328.454V234.953H327.954ZM327.954 246.826V252.762H328.454V246.826H327.954ZM327.954 258.699V264.636H328.454V258.699H327.954ZM327.954 270.572V276.509H328.454V270.572H327.954ZM327.954 282.446V288.382H328.454V282.446H327.954ZM327.954 294.319V300.255H328.454V294.319H327.954ZM327.954 306.192V312.129H328.454V306.192H327.954ZM327.954 318.065V324.002H328.454V318.065H327.954ZM327.954 329.939V332.907H328.454V329.939H327.954ZM328.204 332.657H325.505V333.157H328.204V332.657ZM320.108 332.657H314.711V333.157H320.108V332.657ZM309.314 332.657H303.917V333.157H309.314V332.657ZM298.521 332.657H293.124V333.157H298.521V332.657ZM287.727 332.657H282.33V333.157H287.727V332.657ZM276.933 332.657H271.536V333.157H276.933V332.657ZM266.139 332.657H260.742V333.157H266.139V332.657ZM255.345 332.657H249.948V333.157H255.345V332.657ZM244.551 332.657H239.154V333.157H244.551V332.657ZM233.757 332.657H228.36V333.157H233.757V332.657ZM222.963 332.657H217.567V333.157H222.963V332.657ZM212.17 332.657H209.471V333.157H212.17V332.657ZM328.425 214.174V217.143H328.925V214.174H328.425ZM328.425 223.079V229.016H328.925V223.079H328.425ZM328.425 234.953V240.889H328.925V234.953H328.425ZM328.425 246.826V252.762H328.925V246.826H328.425ZM328.425 258.699V264.636H328.925V258.699H328.425ZM328.425 270.572V276.509H328.925V270.572H328.425ZM328.425 282.446V288.382H328.925V282.446H328.425ZM328.425 294.319V300.255H328.925V294.319H328.425ZM328.425 306.192V312.129H328.925V306.192H328.425ZM328.425 318.065V324.002H328.925V318.065H328.425ZM328.425 329.939V332.907H328.925V329.939H328.425ZM328.675 333.157H331.373V332.657H328.675V333.157ZM336.77 333.157H342.167V332.657H336.77V333.157ZM347.564 333.157H352.961V332.657H347.564V333.157ZM358.358 333.157H363.755V332.657H358.358V333.157ZM369.152 333.157H374.549V332.657H369.152V333.157ZM379.946 333.157H385.343V332.657H379.946V333.157ZM390.739 333.157H396.136V332.657H390.739V333.157ZM401.533 333.157H406.93V332.657H401.533V333.157ZM412.327 333.157H417.724V332.657H412.327V333.157ZM423.121 333.157H428.518V332.657H423.121V333.157ZM433.915 333.157H439.312V332.657H433.915V333.157ZM444.709 333.157H447.407V332.657H444.709V333.157ZM447.657 332.907V329.939H447.157V332.907H447.657ZM447.657 324.002V318.065H447.157V324.002H447.657ZM447.657 312.129V306.192H447.157V312.129H447.657ZM447.657 300.255V294.319H447.157V300.255H447.657ZM447.657 288.382V282.446H447.157V288.382H447.657ZM447.657 276.509V270.572H447.157V276.509H447.657ZM447.657 264.636V258.699H447.157V264.636H447.657ZM447.657 252.762V246.826H447.157V252.762H447.657ZM447.657 240.889V234.953H447.157V240.889H447.657ZM447.657 229.016V223.079H447.157V229.016H447.657ZM447.657 217.143V214.174H447.157V217.143H447.657ZM447.407 213.924H444.709V214.424H447.407V213.924ZM439.312 213.924H433.915V214.424H439.312V213.924ZM428.518 213.924H423.121V214.424H428.518V213.924ZM417.724 213.924H412.327V214.424H417.724V213.924ZM406.93 213.924H401.533V214.424H406.93V213.924ZM396.136 213.924H390.739V214.424H396.136V213.924ZM385.343 213.924H379.946V214.424H385.343V213.924ZM374.549 213.924H369.152V214.424H374.549V213.924ZM363.755 213.924H358.358V214.424H363.755V213.924ZM352.961 213.924H347.564V214.424H352.961V213.924ZM342.167 213.924H336.77V214.424H342.167V213.924ZM331.373 213.924H328.675V214.424H331.373V213.924ZM447.407 333.128H444.709V333.628H447.407V333.128ZM439.312 333.128H433.915V333.628H439.312V333.128ZM428.518 333.128H423.121V333.628H428.518V333.128ZM417.724 333.128H412.327V333.628H417.724V333.128ZM406.93 333.128H401.533V333.628H406.93V333.128ZM396.136 333.128H390.739V333.628H396.136V333.128ZM385.343 333.128H379.946V333.628H385.343V333.128ZM374.549 333.128H369.152V333.628H374.549V333.128ZM363.755 333.128H358.358V333.628H363.755V333.128ZM352.961 333.128H347.564V333.628H352.961V333.128ZM342.167 333.128H336.77V333.628H342.167V333.128ZM331.373 333.128H328.675V333.628H331.373V333.128ZM328.425 333.378V336.077H328.925V333.378H328.425ZM328.425 341.473V346.87H328.925V341.473H328.425ZM328.425 352.267V357.664H328.925V352.267H328.425ZM328.425 363.061V368.458H328.925V363.061H328.425ZM328.425 373.855V379.252H328.925V373.855H328.425ZM328.425 384.649V390.046H328.925V384.649H328.425ZM328.425 395.443V400.84H328.925V395.443H328.425ZM328.425 406.237V411.634H328.925V406.237H328.425ZM328.425 417.03V422.427H328.925V417.03H328.425ZM328.425 427.824V433.221H328.925V427.824H328.425ZM328.425 438.618V444.015H328.925V438.618H328.425ZM328.425 449.412V452.11H328.925V449.412H328.425ZM328.675 452.36H331.373V451.86H328.675V452.36ZM336.77 452.36H342.167V451.86H336.77V452.36ZM347.564 452.36H352.961V451.86H347.564V452.36ZM358.358 452.36H363.755V451.86H358.358V452.36ZM369.152 452.36H374.549V451.86H369.152V452.36ZM379.946 452.36H385.343V451.86H379.946V452.36ZM390.739 452.36H396.136V451.86H390.739V452.36ZM401.533 452.36H406.93V451.86H401.533V452.36ZM412.327 452.36H417.724V451.86H412.327V452.36ZM423.121 452.36H428.518V451.86H423.121V452.36ZM433.915 452.36H439.312V451.86H433.915V452.36ZM444.709 452.36H447.407V451.86H444.709V452.36ZM447.657 452.11V449.412H447.157V452.11H447.657ZM447.657 444.015V438.618H447.157V444.015H447.657ZM447.657 433.221V427.824H447.157V433.221H447.657ZM447.657 422.427V417.03H447.157V422.427H447.657ZM447.657 411.634V406.237H447.157V411.634H447.657ZM447.657 400.84V395.443H447.157V400.84H447.657ZM447.657 390.046V384.649H447.157V390.046H447.657ZM447.657 379.252V373.855H447.157V379.252H447.657ZM447.657 368.458V363.061H447.157V368.458H447.657ZM447.657 357.664V352.267H447.157V357.664H447.657ZM447.657 346.87V341.473H447.157V346.87H447.657ZM447.657 336.077V333.378H447.157V336.077H447.657ZM328.204 451.86H325.505V452.36H328.204V451.86ZM320.108 451.86H314.711V452.36H320.108V451.86ZM309.314 451.86H303.917V452.36H309.314V451.86ZM298.521 451.86H293.124V452.36H298.521V451.86ZM287.727 451.86H282.33V452.36H287.727V451.86ZM276.933 451.86H271.536V452.36H276.933V451.86ZM266.139 451.86H260.742V452.36H266.139V451.86ZM255.345 451.86H249.948V452.36H255.345V451.86ZM244.551 451.86H239.154V452.36H244.551V451.86ZM233.757 451.86H228.36V452.36H233.757V451.86ZM222.963 451.86H217.567V452.36H222.963V451.86ZM212.17 451.86H209.471V452.36H212.17V451.86ZM209.721 452.11V449.412H209.221V452.11H209.721ZM209.721 444.015V438.618H209.221V444.015H209.721ZM209.721 433.221V427.824H209.221V433.221H209.721ZM209.721 422.427V417.03H209.221V422.427H209.721ZM209.721 411.634V406.237H209.221V411.634H209.721ZM209.721 400.84V395.443H209.221V400.84H209.721ZM209.721 390.046V384.649H209.221V390.046H209.721ZM209.721 379.252V373.855H209.221V379.252H209.721ZM209.721 368.458V363.061H209.221V368.458H209.721ZM209.721 357.664V352.267H209.221V357.664H209.721ZM209.721 346.87V341.473H209.221V346.87H209.721ZM209.721 336.077V333.378H209.221V336.077H209.721ZM209.471 333.628H212.17V333.128H209.471V333.628ZM217.567 333.628H222.964V333.128H217.567V333.628ZM228.36 333.628H233.757V333.128H228.36V333.628ZM239.154 333.628H244.551V333.128H239.154V333.628ZM249.948 333.628H255.345V333.128H249.948V333.628ZM260.742 333.628H266.139V333.128H260.742V333.628ZM271.536 333.628H276.933V333.128H271.536V333.628ZM282.33 333.628H287.727V333.128H282.33V333.628ZM293.124 333.628H298.521V333.128H293.124V333.628ZM303.917 333.628H309.314V333.128H303.917V333.628ZM314.711 333.628H320.108V333.128H314.711V333.628ZM325.505 333.628H328.204V333.128H325.505V333.628ZM327.954 333.378V336.077H328.454V333.378H327.954ZM327.954 341.473V346.87H328.454V341.473H327.954ZM327.954 352.267V357.664H328.454V352.267H327.954ZM327.954 363.061V368.458H328.454V363.061H327.954ZM327.954 373.855V379.252H328.454V373.855H327.954ZM327.954 384.649V390.046H328.454V384.649H327.954ZM327.954 395.443V400.84H328.454V395.443H327.954ZM327.954 406.237V411.634H328.454V406.237H327.954ZM327.954 417.03V422.427H328.454V417.03H327.954ZM327.954 427.824V433.221H328.454V427.824H327.954ZM327.954 438.618V444.015H328.454V438.618H327.954ZM327.954 449.412V452.11H328.454V449.412H327.954ZM209 333.128H206.302V333.628H209V333.128ZM200.905 333.128H195.508V333.628H200.905V333.128ZM190.111 333.128H184.714V333.628H190.111V333.128ZM179.317 333.128H173.92V333.628H179.317V333.128ZM168.523 333.128H163.126V333.628H168.523V333.128ZM157.729 333.128H152.332V333.628H157.729V333.128ZM146.935 333.128H141.538V333.628H146.935V333.128ZM136.141 333.128H130.745V333.628H136.141V333.128ZM125.348 333.128H119.951V333.628H125.348V333.128ZM114.554 333.128H109.157V333.628H114.554V333.128ZM103.76 333.128H98.363V333.628H103.76V333.128ZM92.966 333.128H90.2675V333.628H92.966V333.128ZM90.0175 333.378V336.077H90.5175V333.378H90.0175ZM90.0175 341.473V346.87H90.5175V341.473H90.0175ZM90.0175 352.267V357.664H90.5175V352.267H90.0175ZM90.0175 363.061V368.458H90.5175V363.061H90.0175ZM90.0175 373.855V379.252H90.5175V373.855H90.0175ZM90.0175 384.649V390.046H90.5175V384.649H90.0175ZM90.0175 395.443V400.84H90.5175V395.443H90.0175ZM90.0175 406.237V411.634H90.5175V406.237H90.0175ZM90.0175 417.03V422.427H90.5175V417.03H90.0175ZM90.0175 427.824V433.221H90.5175V427.824H90.0175ZM90.0175 438.618V444.015H90.5175V438.618H90.0175ZM90.0175 449.412V452.11H90.5175V449.412H90.0175ZM90.2675 452.36H92.966V451.86H90.2675V452.36ZM98.3629 452.36H103.76V451.86H98.3629V452.36ZM109.157 452.36H114.554V451.86H109.157V452.36ZM119.951 452.36H125.348V451.86H119.951V452.36ZM130.745 452.36H136.141V451.86H130.745V452.36ZM141.538 452.36H146.935V451.86H141.538V452.36ZM152.332 452.36H157.729V451.86H152.332V452.36ZM163.126 452.36H168.523V451.86H163.126V452.36ZM173.92 452.36H179.317V451.86H173.92V452.36ZM184.714 452.36H190.111V451.86H184.714V452.36ZM195.508 452.36H200.905V451.86H195.508V452.36ZM206.302 452.36H209V451.86H206.302V452.36ZM209.25 452.11V449.412H208.75V452.11H209.25ZM209.25 444.015V438.618H208.75V444.015H209.25ZM209.25 433.221V427.824H208.75V433.221H209.25ZM209.25 422.427V417.03H208.75V422.427H209.25ZM209.25 411.634V406.237H208.75V411.634H209.25ZM209.25 400.84V395.443H208.75V400.84H209.25ZM209.25 390.046V384.649H208.75V390.046H209.25ZM209.25 379.252V373.855H208.75V379.252H209.25ZM209.25 368.458V363.061H208.75V368.458H209.25ZM209.25 357.664V352.267H208.75V357.664H209.25ZM209.25 346.87V341.473H208.75V346.87H209.25ZM209.25 336.077V333.378H208.75V336.077H209.25Z" fill="url(#paint0_radial_523_108)"/>
<defs>
<filter id="filter0_f_523_108" x="-437.455" y="43.3279" width="925.108" height="938.003" filterUnits="userSpaceOnUse" color-interpolation-filters="sRGB">
<feFlood flood-opacity="0" result="BackgroundImageFix"/>
<feBlend mode="normal" in="SourceGraphic" in2="BackgroundImageFix" result="shape"/>
<feGaussianBlur stdDeviation="152" result="effect1_foregroundBlur_523_108"/>
</filter>
<filter id="filter1_f_523_108" x="-78.4188" y="-334.957" width="915.367" height="933.706" filterUnits="userSpaceOnUse" color-interpolation-filters="sRGB">
<feFlood flood-opacity="0" result="BackgroundImageFix"/>
<feBlend mode="normal" in="SourceGraphic" in2="BackgroundImageFix" result="shape"/>
<feGaussianBlur stdDeviation="152" result="effect1_foregroundBlur_523_108"/>
</filter>
<radialGradient id="paint0_radial_523_108" cx="0" cy="0" r="1" gradientUnits="userSpaceOnUse" gradientTransform="translate(208.764 94.9708) rotate(90.3934) scale(480.359 822.412)">
<stop stop-color="#E8E8E8" stop-opacity="0.35"/>
<stop offset="0.54765" stop-color="#D7D7D7"/>
<stop offset="1" stop-color="#EBEBEB" stop-opacity="0"/>
</radialGradient>
</defs>
</svg>
