<svg width="1440" height="1030" viewBox="0 0 1440 1030" fill="none" xmlns="http://www.w3.org/2000/svg">
<g filter="url(#filter0_f_504_110)">
<path d="M1139.61 31.1504C1195.79 -213.632 1391.29 -175.417 1482.01 -125.712L1641.59 273.081C1495.41 366.619 1218.7 507.27 1281.29 321.563C1359.52 89.4304 1069.38 337.129 1139.61 31.1504Z" fill="#FBEFE6"/>
</g>
<g filter="url(#filter1_f_504_110)">
<path d="M178.876 606.279C49.2889 806.915 -113.045 709.246 -178.014 635.332L-191.32 226.903C-30.3409 190.739 262.579 154.846 146.422 300.575C1.22698 482.738 340.86 355.483 178.876 606.279Z" fill="#E4DDEF"/>
</g>
<path d="M213.5 891H213.25V891.25H213.5V891ZM213.5 758.5H213.75V758.25H213.5V758.5ZM214.5 891V891.25H214.75V891H214.5ZM214.5 758.5V758.25H214.25V758.5H214.5ZM466.5 758.5H466.75V758.25H466.5V758.5ZM466.5 891H466.25V891.25H466.5V891ZM467.5 891V891.25H467.75V891H467.5ZM467.5 758.5V758.25H467.25V758.5H467.5ZM719.5 758.5H719.75V758.25H719.5V758.5ZM719.5 891H719.25V891.25H719.5V891ZM720.5 891V891.25H720.75V891H720.5ZM720.5 758.5V758.25H720.25V758.5H720.5ZM972.5 758.5H972.75V758.25H972.5V758.5ZM972.5 891H972.25V891.25H972.5V891ZM973.5 891V891.25H973.75V891H973.5ZM973.5 758.5V758.25H973.25V758.5H973.5ZM1225.5 758.5H1225.75V758.25H1225.5V758.5ZM1225.5 891H1225.25V891.25H1225.5V891ZM1226.5 891V891.25H1226.75V891H1226.5ZM1226.5 758.5V758.25H1226.25V758.5H1226.5ZM1439 758.5V758.75H1439.25V758.5H1439ZM1439 757.5H1439.25V757.25H1439V757.5ZM1226.5 757.5H1226.25V757.75H1226.5V757.5ZM1226.5 505.5V505.25H1226.25V505.5H1226.5ZM1439 505.5V505.75H1439.25V505.5H1439ZM1439 504.5H1439.25V504.25H1439V504.5ZM1226.5 504.5H1226.25V504.75H1226.5V504.5ZM1226.5 252.5V252.25H1226.25V252.5H1226.5ZM1439 252.5V252.75H1439.25V252.5H1439ZM1439 251.5H1439.25V251.25H1439V251.5ZM1226.5 251.5H1226.25V251.75H1226.5V251.5ZM1226.5 50.5H1226.75V50.25H1226.5V50.5ZM1225.5 50.5V50.25H1225.25V50.5H1225.5ZM1225.5 251.5V251.75H1225.75V251.5H1225.5ZM973.5 251.5H973.25V251.75H973.5V251.5ZM973.5 50.5H973.75V50.25H973.5V50.5ZM972.5 50.5V50.25H972.25V50.5H972.5ZM972.5 251.5V251.75H972.75V251.5H972.5ZM720.5 251.5H720.25V251.75H720.5V251.5ZM720.5 50.5H720.75V50.25H720.5V50.5ZM719.5 50.5V50.25H719.25V50.5H719.5ZM719.5 251.5V251.75H719.75V251.5H719.5ZM467.5 251.5H467.25V251.75H467.5V251.5ZM467.5 50.5H467.75V50.25H467.5V50.5ZM466.5 50.5V50.25H466.25V50.5H466.5ZM466.5 251.5V251.75H466.75V251.5H466.5ZM214.5 251.5H214.25V251.75H214.5V251.5ZM214.5 50.5H214.75V50.25H214.5V50.5ZM213.5 50.5V50.25H213.25V50.5H213.5ZM213.5 251.5V251.75H213.75V251.5H213.5ZM0 251.5V251.25H-0.25V251.5H0ZM0 252.5H-0.25V252.75H0V252.5ZM213.5 252.5H213.75V252.25H213.5V252.5ZM213.5 504.5V504.75H213.75V504.5H213.5ZM0 504.5V504.25H-0.25V504.5H0ZM0 505.5H-0.25V505.75H0V505.5ZM213.5 505.5H213.75V505.25H213.5V505.5ZM213.5 757.5V757.75H213.75V757.5H213.5ZM0 757.5V757.25H-0.25V757.5H0ZM0 758.5H-0.25V758.75H0V758.5ZM466.5 757.5V757.75H466.75V757.5H466.5ZM214.5 757.5H214.25V757.75H214.5V757.5ZM466.5 505.5H466.75V505.25H466.5V505.5ZM214.5 505.5V505.25H214.25V505.5H214.5ZM214.5 504.5H214.25V504.75H214.5V504.5ZM466.5 504.5V504.75H466.75V504.5H466.5ZM466.5 252.5H466.75V252.25H466.5V252.5ZM214.5 252.5V252.25H214.25V252.5H214.5ZM467.5 252.5V252.25H467.25V252.5H467.5ZM467.5 504.5H467.25V504.75H467.5V504.5ZM719.5 504.5V504.75H719.75V504.5H719.5ZM719.5 252.5H719.75V252.25H719.5V252.5ZM720.5 504.5H720.25V504.75H720.5V504.5ZM720.5 252.5V252.25H720.25V252.5H720.5ZM972.5 504.5V504.75H972.75V504.5H972.5ZM972.5 252.5H972.75V252.25H972.5V252.5ZM973.5 252.5V252.25H973.25V252.5H973.5ZM973.5 504.5H973.25V504.75H973.5V504.5ZM1225.5 504.5V504.75H1225.75V504.5H1225.5ZM1225.5 252.5H1225.75V252.25H1225.5V252.5ZM1225.5 505.5H1225.75V505.25H1225.5V505.5ZM973.5 505.5V505.25H973.25V505.5H973.5ZM973.5 757.5H973.25V757.75H973.5V757.5ZM1225.5 757.5V757.75H1225.75V757.5H1225.5ZM972.5 757.5V757.75H972.75V757.5H972.5ZM972.5 505.5H972.75V505.25H972.5V505.5ZM720.5 505.5V505.25H720.25V505.5H720.5ZM720.5 757.5H720.25V757.75H720.5V757.5ZM719.5 505.5H719.75V505.25H719.5V505.5ZM719.5 757.5V757.75H719.75V757.5H719.5ZM467.5 505.5V505.25H467.25V505.5H467.5ZM467.5 757.5H467.25V757.75H467.5V757.5ZM213.75 891V885.479H213.25V891H213.75ZM213.75 874.438V863.396H213.25V874.438H213.75ZM213.75 852.354V841.312H213.25V852.354H213.75ZM213.75 830.271V819.229H213.25V830.271H213.75ZM213.75 808.188V797.146H213.25V808.188H213.75ZM213.75 786.104V775.062H213.25V786.104H213.75ZM213.75 764.021V758.5H213.25V764.021H213.75ZM213.5 758.25H207.569V758.75H213.5V758.25ZM195.708 758.25H183.847V758.75H195.708V758.25ZM171.986 758.25H160.125V758.75H171.986V758.25ZM148.264 758.25H136.403V758.75H148.264V758.25ZM124.542 758.25H112.681V758.75H124.542V758.25ZM100.819 758.25H88.9583V758.75H100.819V758.25ZM77.0972 758.25H65.2361V758.75H77.0972V758.25ZM53.375 758.25H41.5139V758.75H53.375V758.25ZM29.6528 758.25H17.7916V758.75H29.6528V758.25ZM5.93053 758.25H0V758.75H5.93053V758.25ZM0.25 758.5V758.25H-0.25V758.5H0.25ZM0.25 757.75V757.5H-0.25V757.75H0.25ZM0 757.75H5.93056V757.25H0V757.75ZM17.7917 757.75H29.6528V757.25H17.7917V757.75ZM41.5139 757.75H53.375V757.25H41.5139V757.75ZM65.2361 757.75H77.0972V757.25H65.2361V757.75ZM88.9583 757.75H100.819V757.25H88.9583V757.75ZM112.681 757.75H124.542V757.25H112.681V757.75ZM136.403 757.75H148.264V757.25H136.403V757.75ZM160.125 757.75H171.986V757.25H160.125V757.75ZM183.847 757.75H195.708V757.25H183.847V757.75ZM207.569 757.75H213.5V757.25H207.569V757.75ZM213.75 757.5V751.773H213.25V757.5H213.75ZM213.75 740.318V728.864H213.25V740.318H213.75ZM213.75 717.409V705.955H213.25V717.409H213.75ZM213.75 694.5V683.045H213.25V694.5H213.75ZM213.75 671.591V660.136H213.25V671.591H213.75ZM213.75 648.682V637.227H213.25V648.682H213.75ZM213.75 625.773V614.318H213.25V625.773H213.75ZM213.75 602.864V591.409H213.25V602.864H213.75ZM213.75 579.955V568.5H213.25V579.955H213.75ZM213.75 557.045V545.591H213.25V557.045H213.75ZM213.75 534.136V522.682H213.25V534.136H213.75ZM213.75 511.227V505.5H213.25V511.227H213.75ZM213.5 505.25H207.569V505.75H213.5V505.25ZM195.708 505.25H183.847V505.75H195.708V505.25ZM171.986 505.25H160.125V505.75H171.986V505.25ZM148.264 505.25H136.403V505.75H148.264V505.25ZM124.542 505.25H112.681V505.75H124.542V505.25ZM100.819 505.25H88.9583V505.75H100.819V505.25ZM77.0972 505.25H65.2361V505.75H77.0972V505.25ZM53.375 505.25H41.5139V505.75H53.375V505.25ZM29.6528 505.25H17.7916V505.75H29.6528V505.25ZM5.93053 505.25H0V505.75H5.93053V505.25ZM0.25 505.5V505.25H-0.25V505.5H0.25ZM0.25 504.75V504.5H-0.25V504.75H0.25ZM0 504.75H5.93056V504.25H0V504.75ZM17.7917 504.75H29.6528V504.25H17.7917V504.75ZM41.5139 504.75H53.375V504.25H41.5139V504.75ZM65.2361 504.75H77.0972V504.25H65.2361V504.75ZM88.9583 504.75H100.819V504.25H88.9583V504.75ZM112.681 504.75H124.542V504.25H112.681V504.75ZM136.403 504.75H148.264V504.25H136.403V504.75ZM160.125 504.75H171.986V504.25H160.125V504.75ZM183.847 504.75H195.708V504.25H183.847V504.75ZM207.569 504.75H213.5V504.25H207.569V504.75ZM213.75 504.5V498.773H213.25V504.5H213.75ZM213.75 487.318V475.864H213.25V487.318H213.75ZM213.75 464.409V452.955H213.25V464.409H213.75ZM213.75 441.5V430.045H213.25V441.5H213.75ZM213.75 418.591V407.136H213.25V418.591H213.75ZM213.75 395.682V384.227H213.25V395.682H213.75ZM213.75 372.773V361.318H213.25V372.773H213.75ZM213.75 349.864V338.409H213.25V349.864H213.75ZM213.75 326.955V315.5H213.25V326.955H213.75ZM213.75 304.045V292.591H213.25V304.045H213.75ZM213.75 281.136V269.682H213.25V281.136H213.75ZM213.75 258.227V252.5H213.25V258.227H213.75ZM213.5 252.25H207.569V252.75H213.5V252.25ZM195.708 252.25H183.847V252.75H195.708V252.25ZM171.986 252.25H160.125V252.75H171.986V252.25ZM148.264 252.25H136.403V252.75H148.264V252.25ZM124.542 252.25H112.681V252.75H124.542V252.25ZM100.819 252.25H88.9583V252.75H100.819V252.25ZM77.0972 252.25H65.2361V252.75H77.0972V252.25ZM53.375 252.25H41.5139V252.75H53.375V252.25ZM29.6528 252.25H17.7916V252.75H29.6528V252.25ZM5.93053 252.25H0V252.75H5.93053V252.25ZM0.25 252.5V252.25H-0.25V252.5H0.25ZM0.25 251.75V251.5H-0.25V251.75H0.25ZM0 251.75H5.93056V251.25H0V251.75ZM17.7917 251.75H29.6528V251.25H17.7917V251.75ZM41.5139 251.75H53.375V251.25H41.5139V251.75ZM65.2361 251.75H77.0972V251.25H65.2361V251.75ZM88.9583 251.75H100.819V251.25H88.9583V251.75ZM112.681 251.75H124.542V251.25H112.681V251.75ZM136.403 251.75H148.264V251.25H136.403V251.75ZM160.125 251.75H171.986V251.25H160.125V251.75ZM183.847 251.75H195.708V251.25H183.847V251.75ZM207.569 251.75H213.5V251.25H207.569V251.75ZM213.75 251.5V245.219H213.25V251.5H213.75ZM213.75 232.656V220.094H213.25V232.656H213.75ZM213.75 207.531V194.969H213.25V207.531H213.75ZM213.75 182.406V169.844H213.25V182.406H213.75ZM213.75 157.281V144.719H213.25V157.281H213.75ZM213.75 132.156V119.594H213.25V132.156H213.75ZM213.75 107.031V94.4688H213.25V107.031H213.75ZM213.75 81.9062V69.3438H213.25V81.9062H213.75ZM213.75 56.7812V50.5H213.25V56.7812H213.75ZM213.5 50.75H213.75V50.25H213.5V50.75ZM214.25 50.75H214.5V50.25H214.25V50.75ZM214.25 50.5V56.7812H214.75V50.5H214.25ZM214.25 69.3438V81.9062H214.75V69.3438H214.25ZM214.25 94.4688V107.031H214.75V94.4688H214.25ZM214.25 119.594V132.156H214.75V119.594H214.25ZM214.25 144.719V157.281H214.75V144.719H214.25ZM214.25 169.844V182.406H214.75V169.844H214.25ZM214.25 194.969V207.531H214.75V194.969H214.25ZM214.25 220.094V232.656H214.75V220.094H214.25ZM214.25 245.219V251.5H214.75V245.219H214.25ZM214.5 251.75H220.227V251.25H214.5V251.75ZM231.682 251.75H243.136V251.25H231.682V251.75ZM254.591 251.75H266.045V251.25H254.591V251.75ZM277.5 251.75H288.955V251.25H277.5V251.75ZM300.409 251.75H311.864V251.25H300.409V251.75ZM323.318 251.75H334.773V251.25H323.318V251.75ZM346.227 251.75H357.682V251.25H346.227V251.75ZM369.136 251.75H380.591V251.25H369.136V251.75ZM392.045 251.75H403.5V251.25H392.045V251.75ZM414.955 251.75H426.409V251.25H414.955V251.75ZM437.864 251.75H449.318V251.25H437.864V251.75ZM460.773 251.75H466.5V251.25H460.773V251.75ZM466.75 251.5V245.219H466.25V251.5H466.75ZM466.75 232.656V220.094H466.25V232.656H466.75ZM466.75 207.531V194.969H466.25V207.531H466.75ZM466.75 182.406V169.844H466.25V182.406H466.75ZM466.75 157.281V144.719H466.25V157.281H466.75ZM466.75 132.156V119.594H466.25V132.156H466.75ZM466.75 107.031V94.4688H466.25V107.031H466.75ZM466.75 81.9062V69.3438H466.25V81.9062H466.75ZM466.75 56.7812V50.5H466.25V56.7812H466.75ZM466.5 50.75H466.75V50.25H466.5V50.75ZM467.25 50.75H467.5V50.25H467.25V50.75ZM467.25 50.5V56.7812H467.75V50.5H467.25ZM467.25 69.3438V81.9062H467.75V69.3438H467.25ZM467.25 94.4688V107.031H467.75V94.4688H467.25ZM467.25 119.594V132.156H467.75V119.594H467.25ZM467.25 144.719V157.281H467.75V144.719H467.25ZM467.25 169.844V182.406H467.75V169.844H467.25ZM467.25 194.969V207.531H467.75V194.969H467.25ZM467.25 220.094V232.656H467.75V220.094H467.25ZM467.25 245.219V251.5H467.75V245.219H467.25ZM467.5 251.75H473.227V251.25H467.5V251.75ZM484.682 251.75H496.136V251.25H484.682V251.75ZM507.591 251.75H519.045V251.25H507.591V251.75ZM530.5 251.75H541.955V251.25H530.5V251.75ZM553.409 251.75H564.864V251.25H553.409V251.75ZM576.318 251.75H587.773V251.25H576.318V251.75ZM599.227 251.75H610.682V251.25H599.227V251.75ZM622.136 251.75H633.591V251.25H622.136V251.75ZM645.045 251.75H656.5V251.25H645.045V251.75ZM667.955 251.75H679.409V251.25H667.955V251.75ZM690.864 251.75H702.318V251.25H690.864V251.75ZM713.773 251.75H719.5V251.25H713.773V251.75ZM719.75 251.5V245.219H719.25V251.5H719.75ZM719.75 232.656V220.094H719.25V232.656H719.75ZM719.75 207.531V194.969H719.25V207.531H719.75ZM719.75 182.406V169.844H719.25V182.406H719.75ZM719.75 157.281V144.719H719.25V157.281H719.75ZM719.75 132.156V119.594H719.25V132.156H719.75ZM719.75 107.031V94.4688H719.25V107.031H719.75ZM719.75 81.9062V69.3438H719.25V81.9062H719.75ZM719.75 56.7812V50.5H719.25V56.7812H719.75ZM719.5 50.75H719.75V50.25H719.5V50.75ZM720.25 50.75H720.5V50.25H720.25V50.75ZM720.25 50.5V56.7812H720.75V50.5H720.25ZM720.25 69.3438V81.9062H720.75V69.3438H720.25ZM720.25 94.4688V107.031H720.75V94.4688H720.25ZM720.25 119.594V132.156H720.75V119.594H720.25ZM720.25 144.719V157.281H720.75V144.719H720.25ZM720.25 169.844V182.406H720.75V169.844H720.25ZM720.25 194.969V207.531H720.75V194.969H720.25ZM720.25 220.094V232.656H720.75V220.094H720.25ZM720.25 245.219V251.5H720.75V245.219H720.25ZM720.5 251.75H726.227V251.25H720.5V251.75ZM737.682 251.75H749.136V251.25H737.682V251.75ZM760.591 251.75H772.045V251.25H760.591V251.75ZM783.5 251.75H794.955V251.25H783.5V251.75ZM806.409 251.75H817.864V251.25H806.409V251.75ZM829.318 251.75H840.773V251.25H829.318V251.75ZM852.227 251.75H863.682V251.25H852.227V251.75ZM875.136 251.75H886.591V251.25H875.136V251.75ZM898.045 251.75H909.5V251.25H898.045V251.75ZM920.955 251.75H932.409V251.25H920.955V251.75ZM943.864 251.75H955.318V251.25H943.864V251.75ZM966.773 251.75H972.5V251.25H966.773V251.75ZM972.75 251.5V245.219H972.25V251.5H972.75ZM972.75 232.656V220.094H972.25V232.656H972.75ZM972.75 207.531V194.969H972.25V207.531H972.75ZM972.75 182.406V169.844H972.25V182.406H972.75ZM972.75 157.281V144.719H972.25V157.281H972.75ZM972.75 132.156V119.594H972.25V132.156H972.75ZM972.75 107.031V94.4688H972.25V107.031H972.75ZM972.75 81.9062V69.3438H972.25V81.9062H972.75ZM972.75 56.7812V50.5H972.25V56.7812H972.75ZM972.5 50.75H972.75V50.25H972.5V50.75ZM973.25 50.75H973.5V50.25H973.25V50.75ZM973.25 50.5V56.7812H973.75V50.5H973.25ZM973.25 69.3438V81.9062H973.75V69.3438H973.25ZM973.25 94.4688V107.031H973.75V94.4688H973.25ZM973.25 119.594V132.156H973.75V119.594H973.25ZM973.25 144.719V157.281H973.75V144.719H973.25ZM973.25 169.844V182.406H973.75V169.844H973.25ZM973.25 194.969V207.531H973.75V194.969H973.25ZM973.25 220.094V232.656H973.75V220.094H973.25ZM973.25 245.219V251.5H973.75V245.219H973.25ZM973.5 251.75H979.227V251.25H973.5V251.75ZM990.682 251.75H1002.14V251.25H990.682V251.75ZM1013.59 251.75H1025.05V251.25H1013.59V251.75ZM1036.5 251.75H1047.95V251.25H1036.5V251.75ZM1059.41 251.75H1070.86V251.25H1059.41V251.75ZM1082.32 251.75H1093.77V251.25H1082.32V251.75ZM1105.23 251.75H1116.68V251.25H1105.23V251.75ZM1128.14 251.75H1139.59V251.25H1128.14V251.75ZM1151.05 251.75H1162.5V251.25H1151.05V251.75ZM1173.95 251.75H1185.41V251.25H1173.95V251.75ZM1196.86 251.75H1208.32V251.25H1196.86V251.75ZM1219.77 251.75H1225.5V251.25H1219.77V251.75ZM1225.75 251.5V245.219H1225.25V251.5H1225.75ZM1225.75 232.656V220.094H1225.25V232.656H1225.75ZM1225.75 207.531V194.969H1225.25V207.531H1225.75ZM1225.75 182.406V169.844H1225.25V182.406H1225.75ZM1225.75 157.281V144.719H1225.25V157.281H1225.75ZM1225.75 132.156V119.594H1225.25V132.156H1225.75ZM1225.75 107.031V94.4688H1225.25V107.031H1225.75ZM1225.75 81.9062V69.3438H1225.25V81.9062H1225.75ZM1225.75 56.7812V50.5H1225.25V56.7812H1225.75ZM1225.5 50.75H1225.75V50.25H1225.5V50.75ZM1226.25 50.75H1226.5V50.25H1226.25V50.75ZM1226.25 50.5V56.7812H1226.75V50.5H1226.25ZM1226.25 69.3438V81.9062H1226.75V69.3438H1226.25ZM1226.25 94.4688V107.031H1226.75V94.4688H1226.25ZM1226.25 119.594V132.156H1226.75V119.594H1226.25ZM1226.25 144.719V157.281H1226.75V144.719H1226.25ZM1226.25 169.844V182.406H1226.75V169.844H1226.25ZM1226.25 194.969V207.531H1226.75V194.969H1226.25ZM1226.25 220.094V232.656H1226.75V220.094H1226.25ZM1226.25 245.219V251.5H1226.75V245.219H1226.25ZM1226.5 251.75H1232.4V251.25H1226.5V251.75ZM1244.21 251.75H1256.01V251.25H1244.21V251.75ZM1267.82 251.75H1279.62V251.25H1267.82V251.75ZM1291.43 251.75H1303.24V251.25H1291.43V251.75ZM1315.04 251.75H1326.85V251.25H1315.04V251.75ZM1338.65 251.75H1350.46V251.25H1338.65V251.75ZM1362.26 251.75H1374.07V251.25H1362.26V251.75ZM1385.88 251.75H1397.68V251.25H1385.88V251.75ZM1409.49 251.75H1421.29V251.25H1409.49V251.75ZM1433.1 251.75H1439V251.25H1433.1V251.75ZM1438.75 251.5V251.75H1439.25V251.5H1438.75ZM1438.75 252.25V252.5H1439.25V252.25H1438.75ZM1439 252.25H1433.1V252.75H1439V252.25ZM1421.29 252.25H1409.49V252.75H1421.29V252.25ZM1397.68 252.25H1385.88V252.75H1397.68V252.25ZM1374.07 252.25H1362.26V252.75H1374.07V252.25ZM1350.46 252.25H1338.65V252.75H1350.46V252.25ZM1326.85 252.25H1315.04V252.75H1326.85V252.25ZM1303.24 252.25H1291.43V252.75H1303.24V252.25ZM1279.62 252.25H1267.82V252.75H1279.62V252.25ZM1256.01 252.25H1244.21V252.75H1256.01V252.25ZM1232.4 252.25H1226.5V252.75H1232.4V252.25ZM1226.25 252.5V258.227H1226.75V252.5H1226.25ZM1226.25 269.682V281.136H1226.75V269.682H1226.25ZM1226.25 292.591V304.045H1226.75V292.591H1226.25ZM1226.25 315.5V326.955H1226.75V315.5H1226.25ZM1226.25 338.409V349.864H1226.75V338.409H1226.25ZM1226.25 361.318V372.773H1226.75V361.318H1226.25ZM1226.25 384.227V395.682H1226.75V384.227H1226.25ZM1226.25 407.136V418.591H1226.75V407.136H1226.25ZM1226.25 430.045V441.5H1226.75V430.045H1226.25ZM1226.25 452.955V464.409H1226.75V452.955H1226.25ZM1226.25 475.864V487.318H1226.75V475.864H1226.25ZM1226.25 498.773V504.5H1226.75V498.773H1226.25ZM1226.5 504.75H1232.4V504.25H1226.5V504.75ZM1244.21 504.75H1256.01V504.25H1244.21V504.75ZM1267.82 504.75H1279.62V504.25H1267.82V504.75ZM1291.43 504.75H1303.24V504.25H1291.43V504.75ZM1315.04 504.75H1326.85V504.25H1315.04V504.75ZM1338.65 504.75H1350.46V504.25H1338.65V504.75ZM1362.26 504.75H1374.07V504.25H1362.26V504.75ZM1385.88 504.75H1397.68V504.25H1385.88V504.75ZM1409.49 504.75H1421.29V504.25H1409.49V504.75ZM1433.1 504.75H1439V504.25H1433.1V504.75ZM1438.75 504.5V504.75H1439.25V504.5H1438.75ZM1438.75 505.25V505.5H1439.25V505.25H1438.75ZM1439 505.25H1433.1V505.75H1439V505.25ZM1421.29 505.25H1409.49V505.75H1421.29V505.25ZM1397.68 505.25H1385.88V505.75H1397.68V505.25ZM1374.07 505.25H1362.26V505.75H1374.07V505.25ZM1350.46 505.25H1338.65V505.75H1350.46V505.25ZM1326.85 505.25H1315.04V505.75H1326.85V505.25ZM1303.24 505.25H1291.43V505.75H1303.24V505.25ZM1279.62 505.25H1267.82V505.75H1279.62V505.25ZM1256.01 505.25H1244.21V505.75H1256.01V505.25ZM1232.4 505.25H1226.5V505.75H1232.4V505.25ZM1226.25 505.5V511.227H1226.75V505.5H1226.25ZM1226.25 522.682V534.136H1226.75V522.682H1226.25ZM1226.25 545.591V557.045H1226.75V545.591H1226.25ZM1226.25 568.5V579.955H1226.75V568.5H1226.25ZM1226.25 591.409V602.864H1226.75V591.409H1226.25ZM1226.25 614.318V625.773H1226.75V614.318H1226.25ZM1226.25 637.227V648.682H1226.75V637.227H1226.25ZM1226.25 660.136V671.591H1226.75V660.136H1226.25ZM1226.25 683.045V694.5H1226.75V683.045H1226.25ZM1226.25 705.955V717.409H1226.75V705.955H1226.25ZM1226.25 728.864V740.318H1226.75V728.864H1226.25ZM1226.25 751.773V757.5H1226.75V751.773H1226.25ZM1226.5 757.75H1232.4V757.25H1226.5V757.75ZM1244.21 757.75H1256.01V757.25H1244.21V757.75ZM1267.82 757.75H1279.62V757.25H1267.82V757.75ZM1291.43 757.75H1303.24V757.25H1291.43V757.75ZM1315.04 757.75H1326.85V757.25H1315.04V757.75ZM1338.65 757.75H1350.46V757.25H1338.65V757.75ZM1362.26 757.75H1374.07V757.25H1362.26V757.75ZM1385.88 757.75H1397.68V757.25H1385.88V757.75ZM1409.49 757.75H1421.29V757.25H1409.49V757.75ZM1433.1 757.75H1439V757.25H1433.1V757.75ZM1438.75 757.5V757.75H1439.25V757.5H1438.75ZM1438.75 758.25V758.5H1439.25V758.25H1438.75ZM1439 758.25H1433.1V758.75H1439V758.25ZM1421.29 758.25H1409.49V758.75H1421.29V758.25ZM1397.68 758.25H1385.88V758.75H1397.68V758.25ZM1374.07 758.25H1362.26V758.75H1374.07V758.25ZM1350.46 758.25H1338.65V758.75H1350.46V758.25ZM1326.85 758.25H1315.04V758.75H1326.85V758.25ZM1303.24 758.25H1291.43V758.75H1303.24V758.25ZM1279.62 758.25H1267.82V758.75H1279.62V758.25ZM1256.01 758.25H1244.21V758.75H1256.01V758.25ZM1232.4 758.25H1226.5V758.75H1232.4V758.25ZM1226.25 758.5V764.021H1226.75V758.5H1226.25ZM1226.25 775.062V786.104H1226.75V775.062H1226.25ZM1226.25 797.146V808.188H1226.75V797.146H1226.25ZM1226.25 819.229V830.271H1226.75V819.229H1226.25ZM1226.25 841.312V852.354H1226.75V841.312H1226.25ZM1226.25 863.396V874.438H1226.75V863.396H1226.25ZM1226.25 885.479V891H1226.75V885.479H1226.25ZM1226.5 890.75H1226.25V891.25H1226.5V890.75ZM1225.75 890.75H1225.5V891.25H1225.75V890.75ZM1225.75 891V885.479H1225.25V891H1225.75ZM1225.75 874.438V863.396H1225.25V874.438H1225.75ZM1225.75 852.354V841.312H1225.25V852.354H1225.75ZM1225.75 830.271V819.229H1225.25V830.271H1225.75ZM1225.75 808.188V797.146H1225.25V808.188H1225.75ZM1225.75 786.104V775.062H1225.25V786.104H1225.75ZM1225.75 764.021V758.5H1225.25V764.021H1225.75ZM1225.5 758.25H1219.77V758.75H1225.5V758.25ZM1208.32 758.25H1196.86V758.75H1208.32V758.25ZM1185.41 758.25H1173.95V758.75H1185.41V758.25ZM1162.5 758.25H1151.05V758.75H1162.5V758.25ZM1139.59 758.25H1128.14V758.75H1139.59V758.25ZM1116.68 758.25H1105.23V758.75H1116.68V758.25ZM1093.77 758.25H1082.32V758.75H1093.77V758.25ZM1070.86 758.25H1059.41V758.75H1070.86V758.25ZM1047.95 758.25H1036.5V758.75H1047.95V758.25ZM1025.05 758.25H1013.59V758.75H1025.05V758.25ZM1002.14 758.25H990.682V758.75H1002.14V758.25ZM979.227 758.25H973.5V758.75H979.227V758.25ZM973.25 758.5V764.021H973.75V758.5H973.25ZM973.25 775.062V786.104H973.75V775.062H973.25ZM973.25 797.146V808.188H973.75V797.146H973.25ZM973.25 819.229V830.271H973.75V819.229H973.25ZM973.25 841.312V852.354H973.75V841.312H973.25ZM973.25 863.396V874.438H973.75V863.396H973.25ZM973.25 885.479V891H973.75V885.479H973.25ZM973.5 890.75H973.25V891.25H973.5V890.75ZM972.75 890.75H972.5V891.25H972.75V890.75ZM972.75 891V885.479H972.25V891H972.75ZM972.75 874.438V863.396H972.25V874.438H972.75ZM972.75 852.354V841.312H972.25V852.354H972.75ZM972.75 830.271V819.229H972.25V830.271H972.75ZM972.75 808.188V797.146H972.25V808.188H972.75ZM972.75 786.104V775.062H972.25V786.104H972.75ZM972.75 764.021V758.5H972.25V764.021H972.75ZM972.5 758.25H966.773V758.75H972.5V758.25ZM955.318 758.25H943.864V758.75H955.318V758.25ZM932.409 758.25H920.955V758.75H932.409V758.25ZM909.5 758.25H898.045V758.75H909.5V758.25ZM886.591 758.25H875.136V758.75H886.591V758.25ZM863.682 758.25H852.227V758.75H863.682V758.25ZM840.773 758.25H829.318V758.75H840.773V758.25ZM817.864 758.25H806.409V758.75H817.864V758.25ZM794.955 758.25H783.5V758.75H794.955V758.25ZM772.045 758.25H760.591V758.75H772.045V758.25ZM749.136 758.25H737.682V758.75H749.136V758.25ZM726.227 758.25H720.5V758.75H726.227V758.25ZM720.25 758.5V764.021H720.75V758.5H720.25ZM720.25 775.062V786.104H720.75V775.062H720.25ZM720.25 797.146V808.188H720.75V797.146H720.25ZM720.25 819.229V830.271H720.75V819.229H720.25ZM720.25 841.312V852.354H720.75V841.312H720.25ZM720.25 863.396V874.438H720.75V863.396H720.25ZM720.25 885.479V891H720.75V885.479H720.25ZM720.5 890.75H720.25V891.25H720.5V890.75ZM719.75 890.75H719.5V891.25H719.75V890.75ZM719.75 891V885.479H719.25V891H719.75ZM719.75 874.438V863.396H719.25V874.438H719.75ZM719.75 852.354V841.312H719.25V852.354H719.75ZM719.75 830.271V819.229H719.25V830.271H719.75ZM719.75 808.188V797.146H719.25V808.188H719.75ZM719.75 786.104V775.062H719.25V786.104H719.75ZM719.75 764.021V758.5H719.25V764.021H719.75ZM719.5 758.25H713.773V758.75H719.5V758.25ZM702.318 758.25H690.864V758.75H702.318V758.25ZM679.409 758.25H667.955V758.75H679.409V758.25ZM656.5 758.25H645.045V758.75H656.5V758.25ZM633.591 758.25H622.136V758.75H633.591V758.25ZM610.682 758.25H599.227V758.75H610.682V758.25ZM587.773 758.25H576.318V758.75H587.773V758.25ZM564.864 758.25H553.409V758.75H564.864V758.25ZM541.955 758.25H530.5V758.75H541.955V758.25ZM519.045 758.25H507.591V758.75H519.045V758.25ZM496.136 758.25H484.682V758.75H496.136V758.25ZM473.227 758.25H467.5V758.75H473.227V758.25ZM467.25 758.5V764.021H467.75V758.5H467.25ZM467.25 775.062V786.104H467.75V775.062H467.25ZM467.25 797.146V808.188H467.75V797.146H467.25ZM467.25 819.229V830.271H467.75V819.229H467.25ZM467.25 841.312V852.354H467.75V841.312H467.25ZM467.25 863.396V874.438H467.75V863.396H467.25ZM467.25 885.479V891H467.75V885.479H467.25ZM467.5 890.75H467.25V891.25H467.5V890.75ZM466.75 890.75H466.5V891.25H466.75V890.75ZM466.75 891V885.479H466.25V891H466.75ZM466.75 874.438V863.396H466.25V874.438H466.75ZM466.75 852.354V841.312H466.25V852.354H466.75ZM466.75 830.271V819.229H466.25V830.271H466.75ZM466.75 808.188V797.146H466.25V808.188H466.75ZM466.75 786.104V775.062H466.25V786.104H466.75ZM466.75 764.021V758.5H466.25V764.021H466.75ZM466.5 758.25H460.773V758.75H466.5V758.25ZM449.318 758.25H437.864V758.75H449.318V758.25ZM426.409 758.25H414.955V758.75H426.409V758.25ZM403.5 758.25H392.045V758.75H403.5V758.25ZM380.591 758.25H369.136V758.75H380.591V758.25ZM357.682 758.25H346.227V758.75H357.682V758.25ZM334.773 758.25H323.318V758.75H334.773V758.25ZM311.864 758.25H300.409V758.75H311.864V758.25ZM288.955 758.25H277.5V758.75H288.955V758.25ZM266.045 758.25H254.591V758.75H266.045V758.25ZM243.136 758.25H231.682V758.75H243.136V758.25ZM220.227 758.25H214.5V758.75H220.227V758.25ZM214.25 758.5V764.021H214.75V758.5H214.25ZM214.25 775.062V786.104H214.75V775.062H214.25ZM214.25 797.146V808.188H214.75V797.146H214.25ZM214.25 819.229V830.271H214.75V819.229H214.25ZM214.25 841.312V852.354H214.75V841.312H214.25ZM214.25 863.396V874.438H214.75V863.396H214.25ZM214.25 885.479V891H214.75V885.479H214.25ZM214.5 890.75H214.25V891.25H214.5V890.75ZM213.75 890.75H213.5V891.25H213.75V890.75ZM466.5 757.25H460.773V757.75H466.5V757.25ZM449.318 757.25H437.864V757.75H449.318V757.25ZM426.409 757.25H414.955V757.75H426.409V757.25ZM403.5 757.25H392.045V757.75H403.5V757.25ZM380.591 757.25H369.136V757.75H380.591V757.25ZM357.682 757.25H346.227V757.75H357.682V757.25ZM334.773 757.25H323.318V757.75H334.773V757.25ZM311.864 757.25H300.409V757.75H311.864V757.25ZM288.955 757.25H277.5V757.75H288.955V757.25ZM266.045 757.25H254.591V757.75H266.045V757.25ZM243.136 757.25H231.682V757.75H243.136V757.25ZM220.227 757.25H214.5V757.75H220.227V757.25ZM214.75 757.5V751.773H214.25V757.5H214.75ZM214.75 740.318V728.864H214.25V740.318H214.75ZM214.75 717.409V705.955H214.25V717.409H214.75ZM214.75 694.5V683.045H214.25V694.5H214.75ZM214.75 671.591V660.136H214.25V671.591H214.75ZM214.75 648.682V637.227H214.25V648.682H214.75ZM214.75 625.773V614.318H214.25V625.773H214.75ZM214.75 602.864V591.409H214.25V602.864H214.75ZM214.75 579.955V568.5H214.25V579.955H214.75ZM214.75 557.045V545.591H214.25V557.045H214.75ZM214.75 534.136V522.682H214.25V534.136H214.75ZM214.75 511.227V505.5H214.25V511.227H214.75ZM214.5 505.75H220.227V505.25H214.5V505.75ZM231.682 505.75H243.136V505.25H231.682V505.75ZM254.591 505.75H266.045V505.25H254.591V505.75ZM277.5 505.75H288.955V505.25H277.5V505.75ZM300.409 505.75H311.864V505.25H300.409V505.75ZM323.318 505.75H334.773V505.25H323.318V505.75ZM346.227 505.75H357.682V505.25H346.227V505.75ZM369.136 505.75H380.591V505.25H369.136V505.75ZM392.045 505.75H403.5V505.25H392.045V505.75ZM414.955 505.75H426.409V505.25H414.955V505.75ZM437.864 505.75H449.318V505.25H437.864V505.75ZM460.773 505.75H466.5V505.25H460.773V505.75ZM466.25 505.5V511.227H466.75V505.5H466.25ZM466.25 522.682V534.136H466.75V522.682H466.25ZM466.25 545.591V557.045H466.75V545.591H466.25ZM466.25 568.5V579.955H466.75V568.5H466.25ZM466.25 591.409V602.864H466.75V591.409H466.25ZM466.25 614.318V625.773H466.75V614.318H466.25ZM466.25 637.227V648.682H466.75V637.227H466.25ZM466.25 660.136V671.591H466.75V660.136H466.25ZM466.25 683.045V694.5H466.75V683.045H466.25ZM466.25 705.955V717.409H466.75V705.955H466.25ZM466.25 728.864V740.318H466.75V728.864H466.25ZM466.25 751.773V757.5H466.75V751.773H466.25ZM214.75 504.5V498.773H214.25V504.5H214.75ZM214.75 487.318V475.864H214.25V487.318H214.75ZM214.75 464.409V452.955H214.25V464.409H214.75ZM214.75 441.5V430.045H214.25V441.5H214.75ZM214.75 418.591V407.136H214.25V418.591H214.75ZM214.75 395.682V384.227H214.25V395.682H214.75ZM214.75 372.773V361.318H214.25V372.773H214.75ZM214.75 349.864V338.409H214.25V349.864H214.75ZM214.75 326.955V315.5H214.25V326.955H214.75ZM214.75 304.045V292.591H214.25V304.045H214.75ZM214.75 281.136V269.682H214.25V281.136H214.75ZM214.75 258.227V252.5H214.25V258.227H214.75ZM214.5 252.75H220.227V252.25H214.5V252.75ZM231.682 252.75H243.136V252.25H231.682V252.75ZM254.591 252.75H266.045V252.25H254.591V252.75ZM277.5 252.75H288.955V252.25H277.5V252.75ZM300.409 252.75H311.864V252.25H300.409V252.75ZM323.318 252.75H334.773V252.25H323.318V252.75ZM346.227 252.75H357.682V252.25H346.227V252.75ZM369.136 252.75H380.591V252.25H369.136V252.75ZM392.045 252.75H403.5V252.25H392.045V252.75ZM414.955 252.75H426.409V252.25H414.955V252.75ZM437.864 252.75H449.318V252.25H437.864V252.75ZM460.773 252.75H466.5V252.25H460.773V252.75ZM466.25 252.5V258.227H466.75V252.5H466.25ZM466.25 269.682V281.136H466.75V269.682H466.25ZM466.25 292.591V304.045H466.75V292.591H466.25ZM466.25 315.5V326.955H466.75V315.5H466.25ZM466.25 338.409V349.864H466.75V338.409H466.25ZM466.25 361.318V372.773H466.75V361.318H466.25ZM466.25 384.227V395.682H466.75V384.227H466.25ZM466.25 407.136V418.591H466.75V407.136H466.25ZM466.25 430.045V441.5H466.75V430.045H466.25ZM466.25 452.955V464.409H466.75V452.955H466.25ZM466.25 475.864V487.318H466.75V475.864H466.25ZM466.25 498.773V504.5H466.75V498.773H466.25ZM466.5 504.25H460.773V504.75H466.5V504.25ZM449.318 504.25H437.864V504.75H449.318V504.25ZM426.409 504.25H414.955V504.75H426.409V504.25ZM403.5 504.25H392.045V504.75H403.5V504.25ZM380.591 504.25H369.136V504.75H380.591V504.25ZM357.682 504.25H346.227V504.75H357.682V504.25ZM334.773 504.25H323.318V504.75H334.773V504.25ZM311.864 504.25H300.409V504.75H311.864V504.25ZM288.955 504.25H277.5V504.75H288.955V504.25ZM266.045 504.25H254.591V504.75H266.045V504.25ZM243.136 504.25H231.682V504.75H243.136V504.25ZM220.227 504.25H214.5V504.75H220.227V504.25ZM467.25 252.5V258.227H467.75V252.5H467.25ZM467.25 269.682V281.136H467.75V269.682H467.25ZM467.25 292.591V304.045H467.75V292.591H467.25ZM467.25 315.5V326.955H467.75V315.5H467.25ZM467.25 338.409V349.864H467.75V338.409H467.25ZM467.25 361.318V372.773H467.75V361.318H467.25ZM467.25 384.227V395.682H467.75V384.227H467.25ZM467.25 407.136V418.591H467.75V407.136H467.25ZM467.25 430.045V441.5H467.75V430.045H467.25ZM467.25 452.955V464.409H467.75V452.955H467.25ZM467.25 475.864V487.318H467.75V475.864H467.25ZM467.25 498.773V504.5H467.75V498.773H467.25ZM467.5 504.75H473.227V504.25H467.5V504.75ZM484.682 504.75H496.136V504.25H484.682V504.75ZM507.591 504.75H519.045V504.25H507.591V504.75ZM530.5 504.75H541.955V504.25H530.5V504.75ZM553.409 504.75H564.864V504.25H553.409V504.75ZM576.318 504.75H587.773V504.25H576.318V504.75ZM599.227 504.75H610.682V504.25H599.227V504.75ZM622.136 504.75H633.591V504.25H622.136V504.75ZM645.045 504.75H656.5V504.25H645.045V504.75ZM667.955 504.75H679.409V504.25H667.955V504.75ZM690.864 504.75H702.318V504.25H690.864V504.75ZM713.773 504.75H719.5V504.25H713.773V504.75ZM719.75 504.5V498.773H719.25V504.5H719.75ZM719.75 487.318V475.864H719.25V487.318H719.75ZM719.75 464.409V452.955H719.25V464.409H719.75ZM719.75 441.5V430.045H719.25V441.5H719.75ZM719.75 418.591V407.136H719.25V418.591H719.75ZM719.75 395.682V384.227H719.25V395.682H719.75ZM719.75 372.773V361.318H719.25V372.773H719.75ZM719.75 349.864V338.409H719.25V349.864H719.75ZM719.75 326.955V315.5H719.25V326.955H719.75ZM719.75 304.045V292.591H719.25V304.045H719.75ZM719.75 281.136V269.682H719.25V281.136H719.75ZM719.75 258.227V252.5H719.25V258.227H719.75ZM719.5 252.25H713.773V252.75H719.5V252.25ZM702.318 252.25H690.864V252.75H702.318V252.25ZM679.409 252.25H667.955V252.75H679.409V252.25ZM656.5 252.25H645.045V252.75H656.5V252.25ZM633.591 252.25H622.136V252.75H633.591V252.25ZM610.682 252.25H599.227V252.75H610.682V252.25ZM587.773 252.25H576.318V252.75H587.773V252.25ZM564.864 252.25H553.409V252.75H564.864V252.25ZM541.955 252.25H530.5V252.75H541.955V252.25ZM519.045 252.25H507.591V252.75H519.045V252.25ZM496.136 252.25H484.682V252.75H496.136V252.25ZM473.227 252.25H467.5V252.75H473.227V252.25ZM720.75 504.5V498.773H720.25V504.5H720.75ZM720.75 487.318V475.864H720.25V487.318H720.75ZM720.75 464.409V452.955H720.25V464.409H720.75ZM720.75 441.5V430.045H720.25V441.5H720.75ZM720.75 418.591V407.136H720.25V418.591H720.75ZM720.75 395.682V384.227H720.25V395.682H720.75ZM720.75 372.773V361.318H720.25V372.773H720.75ZM720.75 349.864V338.409H720.25V349.864H720.75ZM720.75 326.955V315.5H720.25V326.955H720.75ZM720.75 304.045V292.591H720.25V304.045H720.75ZM720.75 281.136V269.682H720.25V281.136H720.75ZM720.75 258.227V252.5H720.25V258.227H720.75ZM720.5 252.75H726.227V252.25H720.5V252.75ZM737.682 252.75H749.136V252.25H737.682V252.75ZM760.591 252.75H772.045V252.25H760.591V252.75ZM783.5 252.75H794.955V252.25H783.5V252.75ZM806.409 252.75H817.864V252.25H806.409V252.75ZM829.318 252.75H840.773V252.25H829.318V252.75ZM852.227 252.75H863.682V252.25H852.227V252.75ZM875.136 252.75H886.591V252.25H875.136V252.75ZM898.045 252.75H909.5V252.25H898.045V252.75ZM920.955 252.75H932.409V252.25H920.955V252.75ZM943.864 252.75H955.318V252.25H943.864V252.75ZM966.773 252.75H972.5V252.25H966.773V252.75ZM972.25 252.5V258.227H972.75V252.5H972.25ZM972.25 269.682V281.136H972.75V269.682H972.25ZM972.25 292.591V304.045H972.75V292.591H972.25ZM972.25 315.5V326.955H972.75V315.5H972.25ZM972.25 338.409V349.864H972.75V338.409H972.25ZM972.25 361.318V372.773H972.75V361.318H972.25ZM972.25 384.227V395.682H972.75V384.227H972.25ZM972.25 407.136V418.591H972.75V407.136H972.25ZM972.25 430.045V441.5H972.75V430.045H972.25ZM972.25 452.955V464.409H972.75V452.955H972.25ZM972.25 475.864V487.318H972.75V475.864H972.25ZM972.25 498.773V504.5H972.75V498.773H972.25ZM972.5 504.25H966.773V504.75H972.5V504.25ZM955.318 504.25H943.864V504.75H955.318V504.25ZM932.409 504.25H920.955V504.75H932.409V504.25ZM909.5 504.25H898.045V504.75H909.5V504.25ZM886.591 504.25H875.136V504.75H886.591V504.25ZM863.682 504.25H852.227V504.75H863.682V504.25ZM840.773 504.25H829.318V504.75H840.773V504.25ZM817.864 504.25H806.409V504.75H817.864V504.25ZM794.955 504.25H783.5V504.75H794.955V504.25ZM772.045 504.25H760.591V504.75H772.045V504.25ZM749.136 504.25H737.682V504.75H749.136V504.25ZM726.227 504.25H720.5V504.75H726.227V504.25ZM973.25 252.5V258.227H973.75V252.5H973.25ZM973.25 269.682V281.136H973.75V269.682H973.25ZM973.25 292.591V304.045H973.75V292.591H973.25ZM973.25 315.5V326.955H973.75V315.5H973.25ZM973.25 338.409V349.864H973.75V338.409H973.25ZM973.25 361.318V372.773H973.75V361.318H973.25ZM973.25 384.227V395.682H973.75V384.227H973.25ZM973.25 407.136V418.591H973.75V407.136H973.25ZM973.25 430.045V441.5H973.75V430.045H973.25ZM973.25 452.955V464.409H973.75V452.955H973.25ZM973.25 475.864V487.318H973.75V475.864H973.25ZM973.25 498.773V504.5H973.75V498.773H973.25ZM973.5 504.75H979.227V504.25H973.5V504.75ZM990.682 504.75H1002.14V504.25H990.682V504.75ZM1013.59 504.75H1025.05V504.25H1013.59V504.75ZM1036.5 504.75H1047.95V504.25H1036.5V504.75ZM1059.41 504.75H1070.86V504.25H1059.41V504.75ZM1082.32 504.75H1093.77V504.25H1082.32V504.75ZM1105.23 504.75H1116.68V504.25H1105.23V504.75ZM1128.14 504.75H1139.59V504.25H1128.14V504.75ZM1151.05 504.75H1162.5V504.25H1151.05V504.75ZM1173.95 504.75H1185.41V504.25H1173.95V504.75ZM1196.86 504.75H1208.32V504.25H1196.86V504.75ZM1219.77 504.75H1225.5V504.25H1219.77V504.75ZM1225.75 504.5V498.773H1225.25V504.5H1225.75ZM1225.75 487.318V475.864H1225.25V487.318H1225.75ZM1225.75 464.409V452.955H1225.25V464.409H1225.75ZM1225.75 441.5V430.045H1225.25V441.5H1225.75ZM1225.75 418.591V407.136H1225.25V418.591H1225.75ZM1225.75 395.682V384.227H1225.25V395.682H1225.75ZM1225.75 372.773V361.318H1225.25V372.773H1225.75ZM1225.75 349.864V338.409H1225.25V349.864H1225.75ZM1225.75 326.955V315.5H1225.25V326.955H1225.75ZM1225.75 304.045V292.591H1225.25V304.045H1225.75ZM1225.75 281.136V269.682H1225.25V281.136H1225.75ZM1225.75 258.227V252.5H1225.25V258.227H1225.75ZM1225.5 252.25H1219.77V252.75H1225.5V252.25ZM1208.32 252.25H1196.86V252.75H1208.32V252.25ZM1185.41 252.25H1173.95V252.75H1185.41V252.25ZM1162.5 252.25H1151.05V252.75H1162.5V252.25ZM1139.59 252.25H1128.14V252.75H1139.59V252.25ZM1116.68 252.25H1105.23V252.75H1116.68V252.25ZM1093.77 252.25H1082.32V252.75H1093.77V252.25ZM1070.86 252.25H1059.41V252.75H1070.86V252.25ZM1047.95 252.25H1036.5V252.75H1047.95V252.25ZM1025.05 252.25H1013.59V252.75H1025.05V252.25ZM1002.14 252.25H990.682V252.75H1002.14V252.25ZM979.227 252.25H973.5V252.75H979.227V252.25ZM1225.5 505.25H1219.77V505.75H1225.5V505.25ZM1208.32 505.25H1196.86V505.75H1208.32V505.25ZM1185.41 505.25H1173.95V505.75H1185.41V505.25ZM1162.5 505.25H1151.05V505.75H1162.5V505.25ZM1139.59 505.25H1128.14V505.75H1139.59V505.25ZM1116.68 505.25H1105.23V505.75H1116.68V505.25ZM1093.77 505.25H1082.32V505.75H1093.77V505.25ZM1070.86 505.25H1059.41V505.75H1070.86V505.25ZM1047.95 505.25H1036.5V505.75H1047.95V505.25ZM1025.05 505.25H1013.59V505.75H1025.05V505.25ZM1002.14 505.25H990.682V505.75H1002.14V505.25ZM979.227 505.25H973.5V505.75H979.227V505.25ZM973.25 505.5V511.227H973.75V505.5H973.25ZM973.25 522.682V534.136H973.75V522.682H973.25ZM973.25 545.591V557.045H973.75V545.591H973.25ZM973.25 568.5V579.955H973.75V568.5H973.25ZM973.25 591.409V602.864H973.75V591.409H973.25ZM973.25 614.318V625.773H973.75V614.318H973.25ZM973.25 637.227V648.682H973.75V637.227H973.25ZM973.25 660.136V671.591H973.75V660.136H973.25ZM973.25 683.045V694.5H973.75V683.045H973.25ZM973.25 705.955V717.409H973.75V705.955H973.25ZM973.25 728.864V740.318H973.75V728.864H973.25ZM973.25 751.773V757.5H973.75V751.773H973.25ZM973.5 757.75H979.227V757.25H973.5V757.75ZM990.682 757.75H1002.14V757.25H990.682V757.75ZM1013.59 757.75H1025.05V757.25H1013.59V757.75ZM1036.5 757.75H1047.95V757.25H1036.5V757.75ZM1059.41 757.75H1070.86V757.25H1059.41V757.75ZM1082.32 757.75H1093.77V757.25H1082.32V757.75ZM1105.23 757.75H1116.68V757.25H1105.23V757.75ZM1128.14 757.75H1139.59V757.25H1128.14V757.75ZM1151.05 757.75H1162.5V757.25H1151.05V757.75ZM1173.95 757.75H1185.41V757.25H1173.95V757.75ZM1196.86 757.75H1208.32V757.25H1196.86V757.75ZM1219.77 757.75H1225.5V757.25H1219.77V757.75ZM1225.75 757.5V751.773H1225.25V757.5H1225.75ZM1225.75 740.318V728.864H1225.25V740.318H1225.75ZM1225.75 717.409V705.955H1225.25V717.409H1225.75ZM1225.75 694.5V683.045H1225.25V694.5H1225.75ZM1225.75 671.591V660.136H1225.25V671.591H1225.75ZM1225.75 648.682V637.227H1225.25V648.682H1225.75ZM1225.75 625.773V614.318H1225.25V625.773H1225.75ZM1225.75 602.864V591.409H1225.25V602.864H1225.75ZM1225.75 579.955V568.5H1225.25V579.955H1225.75ZM1225.75 557.045V545.591H1225.25V557.045H1225.75ZM1225.75 534.136V522.682H1225.25V534.136H1225.75ZM1225.75 511.227V505.5H1225.25V511.227H1225.75ZM972.5 757.25H966.773V757.75H972.5V757.25ZM955.318 757.25H943.864V757.75H955.318V757.25ZM932.409 757.25H920.955V757.75H932.409V757.25ZM909.5 757.25H898.045V757.75H909.5V757.25ZM886.591 757.25H875.136V757.75H886.591V757.25ZM863.682 757.25H852.227V757.75H863.682V757.25ZM840.773 757.25H829.318V757.75H840.773V757.25ZM817.864 757.25H806.409V757.75H817.864V757.25ZM794.955 757.25H783.5V757.75H794.955V757.25ZM772.045 757.25H760.591V757.75H772.045V757.25ZM749.136 757.25H737.682V757.75H749.136V757.25ZM726.227 757.25H720.5V757.75H726.227V757.25ZM720.75 757.5V751.773H720.25V757.5H720.75ZM720.75 740.318V728.864H720.25V740.318H720.75ZM720.75 717.409V705.955H720.25V717.409H720.75ZM720.75 694.5V683.045H720.25V694.5H720.75ZM720.75 671.591V660.136H720.25V671.591H720.75ZM720.75 648.682V637.227H720.25V648.682H720.75ZM720.75 625.773V614.318H720.25V625.773H720.75ZM720.75 602.864V591.409H720.25V602.864H720.75ZM720.75 579.955V568.5H720.25V579.955H720.75ZM720.75 557.045V545.591H720.25V557.045H720.75ZM720.75 534.136V522.682H720.25V534.136H720.75ZM720.75 511.227V505.5H720.25V511.227H720.75ZM720.5 505.75H726.227V505.25H720.5V505.75ZM737.682 505.75H749.136V505.25H737.682V505.75ZM760.591 505.75H772.045V505.25H760.591V505.75ZM783.5 505.75H794.955V505.25H783.5V505.75ZM806.409 505.75H817.864V505.25H806.409V505.75ZM829.318 505.75H840.773V505.25H829.318V505.75ZM852.227 505.75H863.682V505.25H852.227V505.75ZM875.136 505.75H886.591V505.25H875.136V505.75ZM898.045 505.75H909.5V505.25H898.045V505.75ZM920.955 505.75H932.409V505.25H920.955V505.75ZM943.864 505.75H955.318V505.25H943.864V505.75ZM966.773 505.75H972.5V505.25H966.773V505.75ZM972.25 505.5V511.227H972.75V505.5H972.25ZM972.25 522.682V534.136H972.75V522.682H972.25ZM972.25 545.591V557.045H972.75V545.591H972.25ZM972.25 568.5V579.955H972.75V568.5H972.25ZM972.25 591.409V602.864H972.75V591.409H972.25ZM972.25 614.318V625.773H972.75V614.318H972.25ZM972.25 637.227V648.682H972.75V637.227H972.25ZM972.25 660.136V671.591H972.75V660.136H972.25ZM972.25 683.045V694.5H972.75V683.045H972.25ZM972.25 705.955V717.409H972.75V705.955H972.25ZM972.25 728.864V740.318H972.75V728.864H972.25ZM972.25 751.773V757.5H972.75V751.773H972.25ZM719.5 505.25H713.773V505.75H719.5V505.25ZM702.318 505.25H690.864V505.75H702.318V505.25ZM679.409 505.25H667.955V505.75H679.409V505.25ZM656.5 505.25H645.045V505.75H656.5V505.25ZM633.591 505.25H622.136V505.75H633.591V505.25ZM610.682 505.25H599.227V505.75H610.682V505.25ZM587.773 505.25H576.318V505.75H587.773V505.25ZM564.864 505.25H553.409V505.75H564.864V505.25ZM541.955 505.25H530.5V505.75H541.955V505.25ZM519.045 505.25H507.591V505.75H519.045V505.25ZM496.136 505.25H484.682V505.75H496.136V505.25ZM473.227 505.25H467.5V505.75H473.227V505.25ZM467.25 505.5V511.227H467.75V505.5H467.25ZM467.25 522.682V534.136H467.75V522.682H467.25ZM467.25 545.591V557.045H467.75V545.591H467.25ZM467.25 568.5V579.955H467.75V568.5H467.25ZM467.25 591.409V602.864H467.75V591.409H467.25ZM467.25 614.318V625.773H467.75V614.318H467.25ZM467.25 637.227V648.682H467.75V637.227H467.25ZM467.25 660.136V671.591H467.75V660.136H467.25ZM467.25 683.045V694.5H467.75V683.045H467.25ZM467.25 705.955V717.409H467.75V705.955H467.25ZM467.25 728.864V740.318H467.75V728.864H467.25ZM467.25 751.773V757.5H467.75V751.773H467.25ZM467.5 757.75H473.227V757.25H467.5V757.75ZM484.682 757.75H496.136V757.25H484.682V757.75ZM507.591 757.75H519.045V757.25H507.591V757.75ZM530.5 757.75H541.955V757.25H530.5V757.75ZM553.409 757.75H564.864V757.25H553.409V757.75ZM576.318 757.75H587.773V757.25H576.318V757.75ZM599.227 757.75H610.682V757.25H599.227V757.75ZM622.136 757.75H633.591V757.25H622.136V757.75ZM645.045 757.75H656.5V757.25H645.045V757.75ZM667.955 757.75H679.409V757.25H667.955V757.75ZM690.864 757.75H702.318V757.25H690.864V757.75ZM713.773 757.75H719.5V757.25H713.773V757.75ZM719.75 757.5V751.773H719.25V757.5H719.75ZM719.75 740.318V728.864H719.25V740.318H719.75ZM719.75 717.409V705.955H719.25V717.409H719.75ZM719.75 694.5V683.045H719.25V694.5H719.75ZM719.75 671.591V660.136H719.25V671.591H719.75ZM719.75 648.682V637.227H719.25V648.682H719.75ZM719.75 625.773V614.318H719.25V625.773H719.75ZM719.75 602.864V591.409H719.25V602.864H719.75ZM719.75 579.955V568.5H719.25V579.955H719.75ZM719.75 557.045V545.591H719.25V557.045H719.75ZM719.75 534.136V522.682H719.25V534.136H719.75ZM719.75 511.227V505.5H719.25V511.227H719.75Z" fill="url(#paint0_radial_504_110)"/>
<defs>
<filter id="filter0_f_504_110" x="824.547" y="-466.521" width="1121.04" height="1183.19" filterUnits="userSpaceOnUse" color-interpolation-filters="sRGB">
<feFlood flood-opacity="0" result="BackgroundImageFix"/>
<feBlend mode="normal" in="SourceGraphic" in2="BackgroundImageFix" result="shape"/>
<feGaussianBlur stdDeviation="152" result="effect1_foregroundBlur_504_110"/>
</filter>
<filter id="filter1_f_504_110" x="-495.32" y="-109.234" width="1023.09" height="1138.53" filterUnits="userSpaceOnUse" color-interpolation-filters="sRGB">
<feFlood flood-opacity="0" result="BackgroundImageFix"/>
<feBlend mode="normal" in="SourceGraphic" in2="BackgroundImageFix" result="shape"/>
<feGaussianBlur stdDeviation="152" result="effect1_foregroundBlur_504_110"/>
</filter>
<radialGradient id="paint0_radial_504_110" cx="0" cy="0" r="1" gradientUnits="userSpaceOnUse" gradientTransform="translate(719 -0.500016) rotate(90.3934) scale(1019.52 1745.5)">
<stop stop-color="#E8E8E8" stop-opacity="0.35"/>
<stop offset="0.54765" stop-color="#D7D7D7"/>
<stop offset="1" stop-color="#EBEBEB" stop-opacity="0"/>
</radialGradient>
</defs>
</svg>
