<svg width="1380" height="437" viewBox="0 0 1380 437" fill="none" xmlns="http://www.w3.org/2000/svg">
<g clip-path="url(#clip0_307_201)">
<path d="M-11 0H1380V437H-11V0Z" fill="black"/>
<path d="M-11 -40H1380V447H-11V-40Z" fill="#F4F4F4"/>
<path d="M73.4999 307.898C53.056 307.898 31 295.075 31 266.937C31 238.799 53.056 225.976 73.4999 225.976C84.8576 225.976 95.336 229.713 103.103 236.527C111.53 244.001 116 254.553 116 266.937C116 279.32 111.53 289.799 103.103 297.273C95.336 304.087 84.7843 307.898 73.4999 307.898Z" fill="url(#paint0_radial_307_201)"/>
<path d="M108.592 242.587C112.497 248.889 114.535 256.392 114.535 264.738C114.535 277.122 110.065 287.6 101.638 295.074C93.8708 301.889 83.3191 305.699 72.0347 305.699C58.8011 305.699 44.9227 300.313 36.7305 288.89C44.6149 301.83 59.4459 307.898 73.5002 307.898C84.7846 307.898 95.3363 304.087 103.104 297.273C111.53 289.798 116 279.32 116 266.936C116 257.601 113.457 249.306 108.592 242.587Z" fill="#AC95CF"/>
<path d="M54.7422 261.148H65.7335" stroke="#35220B" stroke-width="5.86205" stroke-linecap="round" stroke-linejoin="round"/>
<path d="M82.5859 261.148H93.5773" stroke="#35220B" stroke-width="5.86205" stroke-linecap="round" stroke-linejoin="round"/>
<path d="M92.1121 285.329H55.4742C53.8548 285.329 52.5432 284.017 52.5432 282.398C52.5432 280.778 53.8548 279.467 55.4742 279.467H92.1121C93.7315 279.467 95.0431 280.778 95.0431 282.398C95.0431 284.017 93.7315 285.329 92.1121 285.329Z" fill="#422B0D"/>
<path d="M55.6 353.898H61.15C65.625 353.898 68.2 350.973 68.2 345.173C68.2 339.373 65.625 336.448 61.15 336.448H55.6V353.898ZM57.1 352.573V337.773H61.175C64.6 337.773 66.6 340.148 66.6 344.023V346.323C66.6 350.198 64.6 352.573 61.175 352.573H57.1ZM79.1004 353.898H80.5254V341.098H79.1004V350.073C79.1004 351.998 77.4254 352.923 75.6504 352.923C73.5254 352.923 72.3504 351.673 72.3504 349.048V341.098H70.9254V349.323C70.9254 352.448 72.5504 354.198 75.2754 354.198C77.4754 354.198 78.5254 353.073 79.0004 351.873H79.1004V353.898ZM87.5873 353.898V352.648H85.6123V335.398H84.1873V352.348C84.1873 353.273 84.7373 353.898 85.7623 353.898H87.5873ZM93.0082 353.898V352.648H91.0332V335.398H89.6082V352.348C89.6082 353.273 90.1582 353.898 91.1832 353.898H93.0082Z" fill="black"/>
<path d="M243.394 307.898C222.995 307.898 200.987 295.103 200.987 267.026C200.987 238.95 222.995 226.155 243.394 226.155C254.727 226.155 265.183 229.883 272.933 236.683C281.341 244.141 285.801 254.67 285.801 267.026C285.801 279.383 281.341 289.838 272.933 297.296C265.183 304.096 254.654 307.898 243.394 307.898Z" fill="url(#paint1_radial_307_201)"/>
<path d="M278.41 242.73C282.307 249.018 284.34 256.505 284.34 264.833C284.34 277.189 279.88 287.645 271.471 295.103C263.721 301.902 253.192 305.704 241.933 305.704C228.728 305.704 214.88 300.33 206.706 288.932C214.573 301.844 229.371 307.898 243.395 307.898C254.655 307.898 265.183 304.096 272.934 297.296C281.342 289.838 285.802 279.383 285.802 267.026C285.802 257.711 283.265 249.435 278.41 242.73Z" fill="#AC95CF"/>
<path d="M243.394 307.898C222.995 307.898 200.987 295.103 200.987 267.026C200.987 238.95 222.995 226.155 243.394 226.155C254.727 226.155 265.183 229.883 272.933 236.683C281.341 244.141 285.801 254.67 285.801 267.026C285.801 279.383 281.341 289.838 272.933 297.296C265.183 304.096 254.654 307.898 243.394 307.898Z" fill="url(#paint2_linear_307_201)"/>
<path d="M243.687 294.079C246.502 294.079 249.295 294.561 251.949 295.49C257.579 297.457 262.456 291.103 259.187 286.131C255.78 280.991 250.479 279.529 243.687 279.529C236.894 279.529 231.601 280.925 228.194 286.109C224.918 291.088 229.802 297.427 235.432 295.468C238.086 294.539 240.879 294.071 243.687 294.079Z" fill="#422B0D"/>
<path d="M211.165 299.27C204.98 299.27 200.198 293.267 200.198 288.127C200.198 284.515 201.814 280.326 204.102 274.52C204.388 273.665 204.768 272.802 205.148 271.851C206.237 269.132 207.195 266.185 208.657 263.633C209.352 262.39 210.924 261.952 212.16 262.646C212.569 262.88 212.913 263.217 213.147 263.633C214.507 266.141 215.443 268.854 216.854 272.02C220.853 280.969 221.972 284.588 221.972 288.2C222.111 293.296 217.256 299.27 211.165 299.27Z" fill="url(#paint3_radial_307_201)"/>
<path d="M217.856 292.434C216.459 294.627 213.286 294.189 213.286 290.599C213.286 288.303 213.754 276.517 215.728 278.169C218.93 280.852 219.844 289.378 217.856 292.434Z" fill="#81D4FA"/>
<path d="M216.92 250.115C215.312 250.4 215.232 252.74 216.986 252.82C220.861 252.879 224.605 251.446 227.456 248.821C228.539 247.885 229.46 246.781 230.169 245.538C230.593 244.931 230.447 244.098 229.847 243.666C229.248 243.235 228.407 243.388 227.976 243.988L227.902 244.061C225.029 247.271 221.161 249.399 216.92 250.115Z" fill="#422B0D"/>
<path d="M259.861 244.083L259.788 244.01C259.364 243.403 258.523 243.257 257.916 243.681C257.31 244.105 257.163 244.946 257.595 245.553C258.311 246.789 259.233 247.893 260.322 248.821C263.173 251.446 266.917 252.872 270.792 252.806C272.547 252.726 272.466 250.386 270.851 250.101C266.61 249.392 262.742 247.271 259.861 244.083Z" fill="#422B0D"/>
<path d="M229.065 257.551C226.001 257.551 223.216 260.139 223.216 264.439C223.216 268.738 226.001 271.319 229.065 271.319C232.136 271.319 234.914 268.73 234.914 264.439C234.914 260.147 232.165 257.551 229.065 257.551Z" fill="#422B0D"/>
<path d="M228.808 260.424C227.77 259.927 226.52 260.365 226.015 261.404C225.628 262.215 225.803 263.188 226.454 263.816C227.492 264.314 228.742 263.875 229.247 262.837C229.634 262.025 229.459 261.053 228.808 260.424Z" fill="#896024"/>
<path d="M257.141 257.551C254.077 257.551 251.292 260.139 251.292 264.439C251.292 268.738 254.077 271.319 257.141 271.319C260.205 271.319 262.99 268.73 262.99 264.439C262.99 260.147 260.205 257.551 257.141 257.551Z" fill="#422B0D"/>
<path d="M256.847 260.424C255.809 259.927 254.559 260.365 254.054 261.404C253.667 262.215 253.842 263.188 254.493 263.816C255.531 264.314 256.781 263.875 257.286 262.837C257.673 262.025 257.498 261.053 256.847 260.424Z" fill="#896024"/>
<path d="M205.26 354.198C208.81 354.198 210.985 352.323 210.985 349.148C210.985 346.748 209.76 345.123 206.285 344.373L204.735 344.048C202.56 343.598 201.16 342.798 201.16 340.723C201.16 338.573 202.71 337.473 205.21 337.473C207.31 337.473 208.71 338.273 209.685 339.648L210.81 338.823C209.66 337.148 207.885 336.148 205.285 336.148C201.935 336.148 199.685 337.723 199.685 340.773C199.685 343.198 201.135 344.773 204.435 345.448L205.985 345.773C208.21 346.248 209.51 347.073 209.51 349.223C209.51 351.523 208.01 352.873 205.31 352.873C203.035 352.873 201.56 351.923 200.335 350.298L199.21 351.223C200.56 353.023 202.41 354.198 205.26 354.198ZM218.542 353.898V352.648H215.842V342.348H218.742V341.098H215.842V337.523H214.542V340.123C214.542 340.848 214.342 341.098 213.642 341.098H212.192V342.348H214.417V352.323C214.417 353.273 214.967 353.898 215.992 353.898H218.542ZM222.591 353.898V345.148C222.591 343.498 224.116 342.498 226.241 342.498H227.366V341.098H226.516C224.316 341.098 223.191 342.198 222.691 343.398H222.591V341.098H221.166V353.898H222.591ZM233.603 354.198C236.028 354.198 237.803 352.948 238.603 351.073L237.553 350.373C236.853 352.048 235.503 352.948 233.678 352.948C231.053 352.948 229.503 351.073 229.503 348.398V347.773H238.978V347.098C238.978 343.348 236.853 340.798 233.578 340.798C230.178 340.798 228.003 343.298 228.003 347.498C228.003 351.698 230.178 354.198 233.603 354.198ZM233.578 341.998C235.878 341.998 237.428 343.773 237.428 346.473V346.673H229.503V346.548C229.503 343.848 231.103 341.998 233.578 341.998ZM245.227 354.198C248.052 354.198 249.777 352.773 249.777 350.398C249.777 348.348 248.552 347.223 245.952 346.823L244.927 346.673C243.102 346.373 242.177 345.798 242.177 344.323C242.177 342.873 243.252 342.023 245.077 342.023C246.852 342.023 247.902 342.848 248.577 343.648L249.527 342.773C248.577 341.623 247.277 340.798 245.152 340.798C242.677 340.798 240.802 341.998 240.802 344.398C240.802 346.698 242.402 347.623 244.727 347.973L245.777 348.148C247.627 348.423 248.402 349.198 248.402 350.548C248.402 352.098 247.277 352.973 245.327 352.973C243.627 352.973 242.402 352.298 241.352 350.923L240.302 351.748C241.452 353.323 243.002 354.198 245.227 354.198ZM255.946 354.198C258.771 354.198 260.496 352.773 260.496 350.398C260.496 348.348 259.271 347.223 256.671 346.823L255.646 346.673C253.821 346.373 252.896 345.798 252.896 344.323C252.896 342.873 253.971 342.023 255.796 342.023C257.571 342.023 258.621 342.848 259.296 343.648L260.246 342.773C259.296 341.623 257.996 340.798 255.871 340.798C253.396 340.798 251.521 341.998 251.521 344.398C251.521 346.698 253.121 347.623 255.446 347.973L256.496 348.148C258.346 348.423 259.121 349.198 259.121 350.548C259.121 352.098 257.996 352.973 256.046 352.973C254.346 352.973 253.121 352.298 252.071 350.923L251.021 351.748C252.171 353.323 253.721 354.198 255.946 354.198ZM267.81 354.198C270.235 354.198 272.01 352.948 272.81 351.073L271.76 350.373C271.06 352.048 269.71 352.948 267.885 352.948C265.26 352.948 263.71 351.073 263.71 348.398V347.773H273.185V347.098C273.185 343.348 271.06 340.798 267.785 340.798C264.385 340.798 262.21 343.298 262.21 347.498C262.21 351.698 264.385 354.198 267.81 354.198ZM267.785 341.998C270.085 341.998 271.635 343.773 271.635 346.473V346.673H263.71V346.548C263.71 343.848 265.31 341.998 267.785 341.998ZM284.084 353.898H285.509V335.398H284.084V343.148H284.009C283.384 341.723 282.059 340.798 280.109 340.798C276.834 340.798 274.834 343.273 274.834 347.498C274.834 351.723 276.834 354.198 280.109 354.198C282.059 354.198 283.334 353.273 284.009 351.848H284.084V353.898ZM280.434 352.923C277.884 352.923 276.359 351.148 276.359 348.398V346.598C276.359 343.848 277.884 342.073 280.434 342.073C282.409 342.073 284.084 343.248 284.084 344.923V349.998C284.084 351.798 282.409 352.923 280.434 352.923Z" fill="black"/>
<path d="M413.937 309.894C392.802 309.894 370 296.637 370 267.548C370 238.459 392.802 225.202 413.937 225.202C425.679 225.202 436.511 229.066 444.541 236.111C453.253 243.837 457.874 254.746 457.874 267.548C457.874 280.351 453.253 291.183 444.541 298.91C436.511 305.955 425.603 309.894 413.937 309.894Z" fill="url(#paint4_radial_307_201)"/>
<path d="M450.215 242.379C454.253 248.894 456.358 256.651 456.358 265.279C456.358 278.081 451.738 288.914 443.026 296.641C434.996 303.686 424.088 307.625 412.422 307.625C398.741 307.625 384.363 302.057 375.924 290.247C384.075 303.625 399.4 309.898 413.937 309.898C425.603 309.898 436.511 305.959 444.541 298.914C453.253 291.187 457.874 280.354 457.874 267.552C457.874 257.901 455.245 249.325 450.215 242.379Z" fill="#AC95CF"/>
<path d="M413.937 309.894C392.802 309.894 370 296.637 370 267.548C370 238.459 392.802 225.202 413.937 225.202C425.679 225.202 436.511 229.066 444.541 236.111C453.253 243.837 457.874 254.746 457.874 267.548C457.874 280.351 453.253 291.183 444.541 298.91C436.511 305.955 425.603 309.894 413.937 309.894Z" fill="url(#paint5_radial_307_201)"/>
<path d="M450.215 242.379C454.253 248.894 456.358 256.651 456.358 265.279C456.358 278.081 451.738 288.914 443.026 296.641C434.996 303.686 424.088 307.625 412.422 307.625C398.741 307.625 384.363 302.057 375.924 290.247C384.075 303.625 399.4 309.898 413.937 309.898C425.603 309.898 436.511 305.959 444.541 298.914C453.253 291.187 457.874 280.354 457.874 267.552C457.874 257.901 455.245 249.325 450.215 242.379Z" fill="#AC95CF"/>
<path d="M427.647 246.178C421.246 247.928 417.753 253.367 418.844 260.321C419.511 264.609 423.806 272.919 435.199 270.404C441.994 268.904 445.433 263.957 445.305 257.48C445.297 257.079 445.04 256.844 444.964 256.829C444.964 256.829 444.805 256.98 444.547 257.942C443.244 262.783 439.843 267.305 433.76 267.98C426.147 268.828 422.268 263.54 421.677 259.753C420.897 254.715 423.457 250.306 428.412 248.95C431.343 248.147 434.192 248.981 436.229 251.238C437.184 252.299 438.214 254.261 437.866 256.2C436.904 261.495 431.987 261.419 430.298 260.162C429.01 259.192 428.556 257.177 431.245 256.518C432.222 256.283 433.063 256.056 433.328 254.761C433.502 253.935 432.821 253.094 432.086 252.723C430.465 251.897 428.412 252.662 427.192 253.723C425.882 254.859 425.336 256.639 425.685 258.601C425.957 260.132 427.2 262.131 429.344 263.2C431.987 264.518 438.957 264.359 440.593 257.526C441.343 254.382 439.972 251.132 438.502 249.458C434.358 244.769 428.692 245.89 427.647 246.178Z" fill="#422B0D"/>
<path d="M400.226 270.543C406.627 268.793 410.119 263.354 409.029 256.4C408.362 252.113 404.067 243.802 392.673 246.317C385.878 247.817 382.439 252.764 382.568 259.241C382.576 259.642 382.833 259.877 382.909 259.892C382.909 259.892 383.068 259.741 383.325 258.779C384.628 253.938 388.03 249.416 394.113 248.741C401.726 247.893 405.604 253.181 406.195 256.968C406.976 262.006 404.415 266.415 399.461 267.771C396.529 268.574 393.681 267.74 391.643 265.483C390.689 264.422 389.658 262.46 390.007 260.521C390.969 255.226 395.885 255.302 397.575 256.559C398.862 257.529 399.317 259.544 396.628 260.203C395.651 260.438 394.81 260.665 394.545 261.96C394.37 262.786 395.052 263.627 395.787 263.998C397.408 264.824 399.461 264.059 400.681 262.998C401.991 261.862 402.536 260.082 402.188 258.12C401.915 256.59 400.673 254.59 398.529 253.522C395.885 252.203 388.916 252.362 387.28 259.195C386.53 262.339 387.901 265.589 389.371 267.263C393.514 271.945 399.181 270.831 400.226 270.543Z" fill="#422B0D"/>
<path d="M440.819 286C439.691 284.697 436.236 282.357 429.964 285.425C428.57 286.106 427.835 286.879 425.313 286.697C423.654 286.584 422.411 285.781 420.987 284.864C419.177 283.697 417.124 282.394 413.942 282.266C410.761 282.394 408.708 283.697 406.897 284.864C405.465 285.788 404.231 286.584 402.572 286.697C400.049 286.879 399.246 286.228 397.852 285.546C391.58 282.478 388.194 284.697 387.065 286C386.057 287.167 386.739 288.409 388.595 287.084C389.739 286.265 391.792 285.228 396.436 287.849C397.928 288.689 399.337 289.962 402.784 289.72C405.223 289.546 406.912 288.462 408.541 287.409C410.132 286.379 411.654 285.417 413.942 285.296C416.237 285.417 417.753 286.379 419.343 287.409C420.972 288.462 422.661 289.553 425.101 289.72C428.547 289.962 429.888 288.568 431.381 287.727C436.024 285.106 438.145 286.265 439.289 287.084C441.138 288.409 441.827 287.167 440.819 286Z" fill="#422B0D"/>
<path d="M387.775 353.898L392 338.123H392.05L396.225 353.898H397.975L402.525 336.448H400.975L397.125 352.048H397.05L392.975 336.448H391.15L387.025 352.048H386.95L383.225 336.448H381.625L386.025 353.898H387.775ZM408.751 354.198C411.176 354.198 412.951 352.948 413.751 351.073L412.701 350.373C412.001 352.048 410.651 352.948 408.826 352.948C406.201 352.948 404.651 351.073 404.651 348.398V347.773H414.126V347.098C414.126 343.348 412.001 340.798 408.726 340.798C405.326 340.798 403.151 343.298 403.151 347.498C403.151 351.698 405.326 354.198 408.751 354.198ZM408.726 341.998C411.026 341.998 412.576 343.773 412.576 346.473V346.673H404.651V346.548C404.651 343.848 406.251 341.998 408.726 341.998ZM427 353.898V352.648H425.275V345.073C425.275 342.373 423.6 340.798 420.625 340.798C418.3 340.798 416.875 341.898 416.175 343.373L417.075 344.123C417.775 342.798 418.875 342.048 420.575 342.048C422.75 342.048 423.85 343.123 423.85 345.223V346.723H420.9C417.2 346.723 415.7 348.148 415.7 350.423C415.7 352.798 417.25 354.198 419.925 354.198C421.925 354.198 423.225 353.298 423.8 351.873H423.925V352.323C424 353.273 424.45 353.898 425.55 353.898H427ZM420.125 352.973C418.375 352.973 417.2 352.173 417.2 350.698V350.098C417.2 348.673 418.3 347.798 420.85 347.798H423.85V350.173C423.85 351.898 422.2 352.973 420.125 352.973ZM430.359 353.898V345.148C430.359 343.498 431.884 342.498 434.009 342.498H435.134V341.098H434.284C432.084 341.098 430.959 342.198 430.459 343.398H430.359V341.098H428.934V353.898H430.359ZM440.961 352.373H440.861L436.936 341.098H435.436L440.186 354.273L438.961 357.648H436.811V358.898H438.261C439.561 358.898 439.986 358.573 440.386 357.498L446.311 341.098H444.861L440.961 352.373Z" fill="black"/>
<path d="M583.306 306.858C562.414 306.858 539.874 293.754 539.874 264.998C539.874 236.243 562.414 223.138 583.306 223.138C594.913 223.138 605.622 226.957 613.559 233.921C622.171 241.56 626.739 252.343 626.739 264.998C626.739 277.654 622.171 288.362 613.559 296C605.622 302.965 594.838 306.858 583.306 306.858Z" fill="url(#paint6_radial_307_201)"/>
<path d="M583.306 306.858C562.414 306.858 539.874 293.754 539.874 264.998C539.874 236.243 562.414 223.138 583.306 223.138C594.913 223.138 605.622 226.957 613.559 233.921C622.171 241.56 626.739 252.343 626.739 264.998C626.739 277.654 622.171 288.362 613.559 296C605.622 302.965 594.838 306.858 583.306 306.858Z" fill="url(#paint7_linear_307_201)"/>
<path d="M619.168 240.115C623.159 246.555 625.241 254.223 625.241 262.752C625.241 275.408 620.673 286.116 612.061 293.754C604.124 300.718 593.34 304.612 581.808 304.612C568.284 304.612 554.101 299.108 545.729 287.434C553.787 300.658 568.943 306.859 583.306 306.859C594.838 306.859 605.621 302.965 613.559 296.001C622.171 288.362 626.739 277.654 626.739 264.999C626.739 255.458 624.14 246.981 619.168 240.115Z" fill="#AC95CF"/>
<path d="M582.783 301.048C594.462 301.048 603.93 292.757 603.93 282.529C603.93 272.301 594.462 264.01 582.783 264.01C571.103 264.01 561.635 272.301 561.635 282.529C561.635 292.757 571.103 301.048 582.783 301.048Z" fill="#422B0D"/>
<path d="M607.426 254.642C607.426 254.642 602.776 246.352 593.161 248.12" stroke="#35220B" stroke-width="4.49305" stroke-miterlimit="10" stroke-linecap="round"/>
<path d="M559.463 254.642C559.463 254.642 564.136 246.352 573.729 248.12" stroke="#35220B" stroke-width="4.49305" stroke-miterlimit="10" stroke-linecap="round"/>
<path opacity="0.66" d="M588.976 280.05C589.313 278.552 589.568 279.234 589.785 277.744C589.95 276.62 591.792 274.134 591.814 273.003C591.814 272.172 592.219 270.854 591.747 270.173C590.1 267.822 588.332 270.869 587.494 271.154C584.603 272.112 582.843 275.025 580.163 276.418C576.755 278.163 569.769 281.772 566.032 282.619C567.634 279.503 571.319 265.463 566.152 266.668C563.793 267.215 562.258 270.899 561.719 271.97C558.791 277.811 554.724 280.589 551.564 286.116C548.404 291.642 548.284 297.603 551.781 303.144C553.054 305.271 554.807 307.068 556.904 308.386C559.105 309.674 561.479 308.716 563.546 307.637C568.638 305.039 573.408 301.864 577.774 298.172C582.057 294.428 585.696 289.748 587.688 284.386C588.213 282.963 588.647 281.518 588.976 280.05Z" fill="url(#paint8_linear_307_201)"/>
<path d="M600.68 282.933C599.017 280.552 594.689 282.986 594.689 282.986C594.689 282.986 596.935 281.031 598.808 279.241C600.006 278.096 601.054 275.654 600.073 273.999C599.092 272.344 596.239 272.449 594.839 273.31L589.35 276.68C589.35 276.68 591.409 275.782 592.031 272.247C592.42 270.817 591.581 269.342 590.151 268.952C589.881 268.877 589.604 268.847 589.327 268.862C588.032 268.975 586.796 269.454 585.755 270.24C581.786 273.056 571.19 280.237 568.816 280.05C567.895 279.975 567.813 279.833 569.753 275.684C571.056 273.198 571.175 270.255 570.082 267.672C569.446 266.174 566.51 265.762 565.589 267.207C564.893 268.271 564.391 270.877 563.178 273.498C561.141 277.804 556.446 283.585 556.064 284.154C553.271 288.287 548.066 295.993 553.518 304.635C558.34 312.288 569.348 312.647 574.987 310.625C585.763 306.806 595.685 299.468 595.872 299.318C597.834 297.76 599.616 295.476 598.808 293.394C597.812 290.818 594.509 292.346 594.509 292.346C596.419 291.185 598.134 289.725 599.579 288.018C600.949 286.25 601.795 284.543 600.68 282.933Z" fill="url(#paint9_radial_307_201)"/>
<path d="M576.163 285.48C575.414 284.671 579.158 283.233 580.656 282.14L585.344 279.145C586.886 278.149 588.317 276.995 589.62 275.707C590.967 274.472 591.814 272.787 591.993 270.967C592.196 271.926 592.143 272.922 591.844 273.85C591.529 274.786 591.057 275.662 590.436 276.426C589.193 277.894 587.747 279.174 586.137 280.23C584.61 281.339 583.015 282.335 581.352 283.226C579.69 284.102 576.59 286.303 576.163 285.48Z" fill="#AC95CF"/>
<path d="M585.39 297.087C584.971 296.48 588.318 295.477 589.741 294.638C591.156 293.814 592.527 292.923 593.844 291.965C595.17 290.984 596.495 290.032 597.723 288.969C598.997 287.921 600.157 286.745 601.198 285.472C600.681 287.119 599.783 288.625 598.585 289.868C597.416 291.111 596.106 292.212 594.691 293.163C593.343 294.144 586.161 298.427 585.39 297.087Z" fill="#AC95CF"/>
<path d="M581.36 291.283C580.724 290.534 585.104 288.909 586.879 287.733C588.654 286.558 590.428 285.442 592.233 284.191C594.015 283.008 595.708 281.705 597.295 280.282C598.067 279.571 598.748 278.77 599.332 277.901C599.939 277.01 600.306 275.976 600.396 274.906C600.583 276.021 600.418 277.175 599.924 278.193C599.452 279.226 598.823 280.177 598.067 281.016C597.34 281.862 596.539 282.641 595.678 283.353C594.832 284.101 593.948 284.738 593.057 285.374C591.297 286.692 589.433 287.861 587.486 288.887C585.509 289.897 582.019 292.144 581.36 291.283Z" fill="#AC95CF"/>
<path d="M558.581 309.255C560.468 309.974 562.445 310.438 564.459 310.633C566.451 310.858 568.458 310.858 570.45 310.633C572.419 310.408 574.359 309.974 576.238 309.338C578.125 308.686 579.96 307.892 581.727 306.956C585.359 305.182 588.961 303.347 592.406 301.265C594.128 300.262 595.738 299.064 597.198 297.701C597.917 297.027 598.456 296.188 598.778 295.252C599.1 294.293 598.883 293.23 598.217 292.474C599.003 293.193 599.34 294.286 599.085 295.319C598.823 296.345 598.337 297.296 597.655 298.105C597.004 298.929 596.27 299.678 595.468 300.352C594.682 301.018 593.866 301.647 593.02 302.231C589.628 304.523 586.078 306.567 582.386 308.334C580.552 309.293 578.642 310.094 576.68 310.738C574.688 311.352 572.629 311.726 570.547 311.846C566.391 312.131 562.242 311.232 558.581 309.255Z" fill="#AC95CF"/>
<path d="M554.542 353.898H561.992C564.667 353.898 566.417 351.848 566.417 348.973C566.417 346.248 564.692 344.948 563.067 344.748V344.648C564.367 344.348 565.742 343.273 565.742 340.848C565.742 338.098 564.092 336.448 561.367 336.448H554.542V353.898ZM556.042 345.473H561.592C563.692 345.473 564.817 346.748 564.817 348.548V349.473C564.817 351.298 563.692 352.573 561.592 352.573H556.042V345.473ZM556.042 337.773H561.217C563.117 337.773 564.142 338.898 564.142 340.498V341.448C564.142 343.023 563.117 344.173 561.217 344.173H556.042V337.773ZM573.884 354.198C577.259 354.198 579.459 351.698 579.459 347.498C579.459 343.298 577.259 340.798 573.884 340.798C570.509 340.798 568.309 343.298 568.309 347.498C568.309 351.698 570.509 354.198 573.884 354.198ZM573.884 352.923C571.409 352.923 569.834 351.273 569.834 348.298V346.698C569.834 343.698 571.409 342.073 573.884 342.073C576.359 342.073 577.934 343.723 577.934 346.698V348.298C577.934 351.298 576.359 352.923 573.884 352.923ZM583.504 353.898V345.148C583.504 343.498 585.029 342.498 587.154 342.498H588.279V341.098H587.429C585.229 341.098 584.104 342.198 583.604 343.398H583.504V341.098H582.079V353.898H583.504ZM594.516 354.198C596.941 354.198 598.716 352.948 599.516 351.073L598.466 350.373C597.766 352.048 596.416 352.948 594.591 352.948C591.966 352.948 590.416 351.073 590.416 348.398V347.773H599.891V347.098C599.891 343.348 597.766 340.798 594.491 340.798C591.091 340.798 588.916 343.298 588.916 347.498C588.916 351.698 591.091 354.198 594.516 354.198ZM594.491 341.998C596.791 341.998 598.341 343.773 598.341 346.473V346.673H590.416V346.548C590.416 343.848 592.016 341.998 594.491 341.998ZM610.791 353.898H612.216V335.398H610.791V343.148H610.716C610.091 341.723 608.766 340.798 606.816 340.798C603.541 340.798 601.541 343.273 601.541 347.498C601.541 351.723 603.541 354.198 606.816 354.198C608.766 354.198 610.041 353.273 610.716 351.848H610.791V353.898ZM607.141 352.923C604.591 352.923 603.066 351.148 603.066 348.398V346.598C603.066 343.848 604.591 342.073 607.141 342.073C609.116 342.073 610.791 343.248 610.791 344.923V349.998C610.791 351.798 609.116 352.923 607.141 352.923Z" fill="black"/>
<path d="M751.856 306.237C731.333 306.237 709.192 293.365 709.192 265.119C709.192 236.873 731.333 224 751.856 224C763.257 224 773.776 227.751 781.573 234.592C790.032 242.095 794.519 252.687 794.519 265.119C794.519 277.55 790.032 288.069 781.573 295.571C773.776 302.412 763.183 306.237 751.856 306.237Z" fill="url(#paint10_radial_307_201)"/>
<path d="M787.074 240.676C790.995 247.002 793.04 254.534 793.04 262.912C793.04 275.343 788.553 285.862 780.094 293.365C772.297 300.206 761.704 304.031 750.376 304.031C737.092 304.031 723.16 298.624 714.937 287.157C722.851 300.147 737.739 306.238 751.848 306.238C763.175 306.238 773.768 302.413 781.565 295.572C790.024 288.069 794.511 277.55 794.511 265.119C794.511 255.748 791.958 247.421 787.074 240.676Z" fill="#AC95CF"/>
<path d="M751.856 306.237C731.333 306.237 709.192 293.365 709.192 265.119C709.192 236.873 731.333 224 751.856 224C763.257 224 773.776 227.751 781.573 234.592C790.032 242.095 794.519 252.687 794.519 265.119C794.519 277.55 790.032 288.069 781.573 295.571C773.776 302.412 763.183 306.237 751.856 306.237Z" fill="url(#paint11_linear_307_201)"/>
<path d="M751.856 306.237C731.333 306.237 709.192 293.365 709.192 265.119C709.192 236.873 731.333 224 751.856 224C763.257 224 773.776 227.751 781.573 234.592C790.032 242.095 794.519 252.687 794.519 265.119C794.519 277.55 790.032 288.069 781.573 295.571C773.776 302.412 763.183 306.237 751.856 306.237Z" fill="url(#paint12_linear_307_201)"/>
<path d="M787.074 240.676C790.995 247.002 793.04 254.534 793.04 262.912C793.04 275.343 788.553 285.862 780.094 293.365C772.297 300.206 761.704 304.031 750.376 304.031C737.092 304.031 723.16 298.624 714.937 287.157C722.851 300.147 737.739 306.238 751.848 306.238C763.175 306.238 773.768 302.413 781.565 295.572C790.024 288.069 794.511 277.55 794.511 265.119C794.511 255.748 791.958 247.421 787.074 240.676Z" fill="#AC95CF"/>
<path d="M752.144 299.569C747.716 299.539 744.134 295.957 744.104 291.529V282.261C744.104 277.818 747.701 274.221 752.144 274.221C756.587 274.221 760.184 277.818 760.184 282.261V291.536C760.155 295.964 756.572 299.539 752.144 299.569Z" fill="#422B0D"/>
<path d="M736.91 249.616C738.411 249.616 739.882 250.05 741.147 250.859C745.295 253.485 747.031 259.686 743.685 266.093C741.375 270.507 737.903 272.544 734.615 272.544C733.114 272.544 731.643 272.11 730.378 271.301C726.229 268.675 724.493 262.474 727.84 256.067C730.15 251.654 733.615 249.616 736.91 249.616Z" fill="white"/>
<path opacity="0.66" d="M792.56 272.554C791.552 271.818 791.677 271.002 788.882 272.127C787.727 272.598 786.403 275.246 786.403 275.246C786.403 275.246 784.41 271.259 780.467 276.563C773.302 286.184 770.169 285.743 765.954 290.156C763.24 292.981 760.893 295.673 761.798 301.021C762.306 304.007 763.725 304.823 763.725 304.823C763.725 304.823 764.593 304.823 773.111 300.41C781.629 295.997 789.066 289.752 793.155 279.748" fill="url(#paint13_linear_307_201)"/>
<path d="M769.612 292.06C772.812 289.632 775.901 287.403 777.358 285.484C778.814 283.564 780.381 279.54 781.322 276.907C782.264 274.273 785 272.986 786.471 275.237C786.854 275.84 786.552 278.179 786.471 279.077C787.273 277.745 787.84 276.282 788.149 274.759C788.884 271.169 792.636 270.007 793.298 274.832C793.298 274.832 796.085 274.943 794.85 283.593C794.232 286.962 793.121 290.228 791.54 293.266C787.575 300.739 784.471 304.204 780.454 306.955C774.173 311.251 768.222 310.228 766.361 307.786C763.183 303.586 764.036 296.289 769.612 292.06Z" fill="url(#paint14_radial_307_201)"/>
<path d="M786.435 275.232C786.435 276.667 785.052 281.661 784.53 282.941C782.728 287.686 779.44 289.892 780.359 290.643C781.279 291.393 783.037 289.797 785.575 283.772C786.354 281.72 786.81 279.565 786.913 277.373C786.906 276.63 786.744 275.902 786.435 275.232Z" fill="#AC95CF"/>
<path d="M791.277 271.6C792.212 272.004 793.602 274.667 791.52 282.126C790.233 287.76 785.952 292.144 786.982 292.637C788.195 293.454 790.968 288.856 792.932 282.486C793.447 280.559 793.771 278.588 793.881 276.602C793.911 275.601 793.572 271.872 791.277 271.6Z" fill="#AC95CF"/>
<path opacity="0.66" d="M711.339 272.554C712.347 271.818 712.222 271.002 715.017 272.127C716.172 272.598 717.496 275.246 717.496 275.246C717.496 275.246 719.489 271.259 723.432 276.562C730.597 286.184 733.73 285.742 737.945 290.156C740.652 292.981 742.998 295.673 742.094 301.02C741.593 304.007 740.174 304.823 740.174 304.823C740.174 304.823 738.761 304.823 731.987 301.366C731.406 301.072 731.457 300.77 730.788 300.417C722.27 296.004 714.833 289.759 710.743 279.755" fill="url(#paint15_linear_307_201)"/>
<path d="M734.293 292.06C731.093 289.632 728.004 287.403 726.547 285.484C725.091 283.564 723.524 279.54 722.575 276.907C721.626 274.273 718.897 272.986 717.463 275.237C717.08 275.84 717.382 278.179 717.463 279.077C716.654 277.745 716.073 276.282 715.756 274.759C715.021 271.169 711.269 270.007 710.607 274.832C710.607 274.832 707.819 274.943 709.055 283.593C709.673 286.962 710.784 290.228 712.365 293.266C716.323 300.739 719.434 304.204 723.45 306.955C729.725 311.251 735.676 310.228 737.544 307.786C740.7 303.586 739.868 296.289 734.293 292.06Z" fill="url(#paint16_radial_307_201)"/>
<path d="M717.462 275.232C717.462 276.667 718.844 281.661 719.367 282.941C721.169 287.686 724.449 289.892 723.537 290.643C722.625 291.393 720.853 289.797 718.315 283.772C717.535 281.72 717.086 279.565 716.983 277.373C716.983 276.63 717.145 275.902 717.462 275.232Z" fill="#AC95CF"/>
<path d="M712.615 271.6C711.688 272.004 710.298 274.667 712.379 282.111C713.667 287.745 717.948 292.13 716.918 292.622C715.704 293.439 712.931 288.841 710.967 282.471C710.452 280.544 710.129 278.573 710.018 276.587C709.989 275.601 710.327 271.872 712.615 271.6Z" fill="#AC95CF"/>
<path d="M743.779 266.138C743.235 268.058 742.227 269.808 740.837 271.243C739.337 272.795 737.358 273.795 735.225 274.089C732.937 274.376 730.62 273.78 728.752 272.434C726.913 271.095 725.53 269.212 724.802 267.057C724.632 266.535 724.493 265.998 724.39 265.454C724.294 264.917 724.228 264.372 724.191 263.828L724.14 262.982L724.176 262.173C724.198 261.636 724.257 261.106 724.36 260.577C724.765 258.547 725.567 256.612 726.714 254.891C727.825 253.133 729.34 251.669 731.128 250.61C732.871 249.558 734.938 249.175 736.946 249.528V249.742C735.085 249.779 733.275 250.411 731.797 251.544C730.326 252.669 729.112 254.104 728.237 255.737C727.317 257.34 726.699 259.091 726.398 260.915C726.118 262.739 726.273 264.6 726.854 266.351C727.413 268.102 728.494 269.646 729.958 270.764C731.422 271.905 733.253 272.471 735.107 272.353C736.946 272.221 738.704 271.515 740.124 270.338C741.558 269.154 742.735 267.697 743.588 266.042L743.779 266.138Z" fill="#AC95CF"/>
<path d="M767.452 249.616C770.747 249.616 774.211 251.676 776.521 256.067C779.883 262.445 778.132 268.675 773.983 271.301C772.718 272.117 771.247 272.551 769.747 272.551C766.459 272.551 762.987 270.492 760.677 266.1C757.293 259.716 759.066 253.485 763.215 250.859C764.48 250.05 765.951 249.616 767.452 249.616Z" fill="white"/>
<path d="M767.455 249.501C769.463 249.148 771.53 249.531 773.273 250.582C775.06 251.642 776.576 253.105 777.686 254.863C778.841 256.607 779.643 258.556 780.04 260.608C780.136 261.138 780.202 261.667 780.224 262.204V263.014V263.83C780.18 264.926 779.974 266.015 779.621 267.059C778.893 269.214 777.517 271.09 775.671 272.429C773.803 273.782 771.493 274.371 769.205 274.084C767.05 273.797 765.057 272.797 763.549 271.237C762.159 269.81 761.143 268.06 760.606 266.14L760.798 266.037C761.644 267.684 762.813 269.148 764.24 270.34C765.667 271.524 767.425 272.23 769.271 272.363C771.125 272.48 772.957 271.914 774.421 270.774C775.877 269.648 776.958 268.111 777.517 266.36C778.098 264.61 778.253 262.749 777.973 260.925C777.686 259.1 777.076 257.335 776.164 255.724C775.288 254.091 774.075 252.657 772.604 251.531C771.125 250.398 769.316 249.766 767.455 249.729V249.501Z" fill="#AC95CF"/>
<path d="M725.994 353.898L719.794 336.448H717.869L711.694 353.898H713.194L715.094 348.473H722.519L724.419 353.898H725.994ZM722.119 347.173H715.469L718.744 337.873H718.844L722.119 347.173ZM729.394 353.898V344.898C729.394 342.998 731.069 342.073 732.869 342.073C734.994 342.073 736.144 343.323 736.144 345.923V353.898H737.569V345.673C737.569 342.548 735.969 340.798 733.244 340.798C731.194 340.798 730.044 341.798 729.469 343.123H729.394V341.098H727.969V353.898H729.394ZM739.381 353.898H740.981L744.906 348.498H744.956L748.731 353.898H750.406L745.731 347.348L750.281 341.098H748.681L744.956 346.323H744.881L741.231 341.098H739.556L744.131 347.448L739.381 353.898ZM753.085 337.623C753.76 337.623 754.06 337.248 754.06 336.723V336.473C754.06 335.948 753.76 335.573 753.085 335.573C752.41 335.573 752.11 335.948 752.11 336.473V336.723C752.11 337.248 752.41 337.623 753.085 337.623ZM752.385 353.898H753.81V341.098H752.385V353.898ZM762.014 354.198C765.389 354.198 767.589 351.698 767.589 347.498C767.589 343.298 765.389 340.798 762.014 340.798C758.639 340.798 756.439 343.298 756.439 347.498C756.439 351.698 758.639 354.198 762.014 354.198ZM762.014 352.923C759.539 352.923 757.964 351.273 757.964 348.298V346.698C757.964 343.698 759.539 342.073 762.014 342.073C764.489 342.073 766.064 343.723 766.064 346.698V348.298C766.064 351.298 764.489 352.923 762.014 352.923ZM778.21 353.898H779.635V341.098H778.21V350.073C778.21 351.998 776.535 352.923 774.76 352.923C772.635 352.923 771.46 351.673 771.46 349.048V341.098H770.035V349.323C770.035 352.448 771.66 354.198 774.385 354.198C776.585 354.198 777.635 353.073 778.11 351.873H778.21V353.898ZM786.921 354.198C789.746 354.198 791.471 352.773 791.471 350.398C791.471 348.348 790.246 347.223 787.646 346.823L786.621 346.673C784.796 346.373 783.871 345.798 783.871 344.323C783.871 342.873 784.946 342.023 786.771 342.023C788.546 342.023 789.596 342.848 790.271 343.648L791.221 342.773C790.271 341.623 788.971 340.798 786.846 340.798C784.371 340.798 782.496 341.998 782.496 344.398C782.496 346.698 784.096 347.623 786.421 347.973L787.471 348.148C789.321 348.423 790.096 349.198 790.096 350.548C790.096 352.098 788.971 352.973 787.021 352.973C785.321 352.973 784.096 352.298 783.046 350.923L781.996 351.748C783.146 353.323 784.696 354.198 786.921 354.198Z" fill="black"/>
<path d="M920.282 306.237C899.759 306.237 877.619 293.365 877.619 265.119C877.619 236.873 899.759 224 920.282 224C931.683 224 942.202 227.751 949.999 234.592C958.458 242.095 962.945 252.687 962.945 265.119C962.945 277.55 958.458 288.069 949.999 295.571C942.202 302.412 931.61 306.237 920.282 306.237Z" fill="url(#paint17_radial_307_201)"/>
<path d="M955.5 240.676C959.421 247.002 961.466 254.534 961.466 262.912C961.466 275.343 956.979 285.862 948.52 293.365C940.723 300.206 930.131 304.031 918.803 304.031C905.518 304.031 891.587 298.624 883.363 287.157C891.278 300.147 906.166 306.238 920.274 306.238C931.602 306.238 942.194 302.413 949.991 295.572C958.45 288.069 962.937 277.55 962.937 265.119C962.937 255.748 960.385 247.421 955.5 240.676Z" fill="#AC95CF"/>
<path d="M920.282 306.237C899.759 306.237 877.619 293.365 877.619 265.119C877.619 236.873 899.759 224 920.282 224C931.683 224 942.202 227.751 949.999 234.592C958.458 242.095 962.945 252.687 962.945 265.119C962.945 277.55 958.458 288.069 949.999 295.571C942.202 302.412 931.61 306.237 920.282 306.237Z" fill="url(#paint18_linear_307_201)"/>
<path d="M920.282 306.237C899.759 306.237 877.619 293.365 877.619 265.119C877.619 236.873 899.759 224 920.282 224C931.683 224 942.202 227.751 949.999 234.592C958.458 242.095 962.945 252.687 962.945 265.119C962.945 277.55 958.458 288.069 949.999 295.571C942.202 302.412 931.61 306.237 920.282 306.237Z" fill="url(#paint19_linear_307_201)"/>
<path d="M955.5 240.676C959.421 247.002 961.466 254.534 961.466 262.912C961.466 275.343 956.979 285.862 948.52 293.365C940.723 300.206 930.131 304.031 918.803 304.031C905.518 304.031 891.587 298.624 883.363 287.157C891.278 300.147 906.166 306.238 920.274 306.238C931.602 306.238 942.194 302.413 949.991 295.572C958.45 288.069 962.937 277.55 962.937 265.119C962.937 255.748 960.385 247.421 955.5 240.676Z" fill="#AC95CF"/>
<path d="M920.571 299.569C916.142 299.539 912.56 295.957 912.531 291.529V282.261C912.531 277.818 916.128 274.221 920.571 274.221C925.013 274.221 928.61 277.818 928.61 282.261V291.536C928.581 295.964 924.999 299.539 920.571 299.569Z" fill="#422B0D"/>
<path d="M905.336 249.616C906.837 249.616 908.308 250.05 909.573 250.859C913.722 253.485 915.458 259.686 912.111 266.093C909.801 270.507 906.329 272.544 903.041 272.544C901.541 272.544 900.07 272.11 898.804 271.301C894.656 268.675 892.92 262.474 896.267 256.067C898.576 251.654 902.041 249.616 905.336 249.616Z" fill="white"/>
<path opacity="0.66" d="M960.986 272.554C959.978 271.818 960.103 271.002 957.308 272.127C956.153 272.598 954.829 275.246 954.829 275.246C954.829 275.246 952.836 271.259 948.893 276.563C941.729 286.184 938.595 285.743 934.38 290.156C931.666 292.981 929.32 295.673 930.224 301.021C930.732 304.007 932.151 304.823 932.151 304.823C932.151 304.823 933.019 304.823 941.537 300.41C950.055 295.997 957.492 289.752 961.582 279.748" fill="url(#paint20_linear_307_201)"/>
<path d="M938.038 292.06C941.238 289.632 944.328 287.403 945.784 285.484C947.24 283.564 948.807 279.54 949.749 276.907C950.69 274.273 953.427 272.986 954.898 275.237C955.28 275.84 954.979 278.179 954.898 279.077C955.7 277.745 956.266 276.282 956.575 274.759C957.31 271.169 961.062 270.007 961.724 274.832C961.724 274.832 964.512 274.943 963.276 283.593C962.658 286.962 961.547 290.228 959.966 293.266C956.001 300.739 952.897 304.204 948.881 306.955C942.599 311.251 936.648 310.228 934.787 307.786C931.609 303.586 932.463 296.289 938.038 292.06Z" fill="url(#paint21_radial_307_201)"/>
<path d="M954.861 275.232C954.861 276.667 953.479 281.661 952.956 282.941C951.154 287.686 947.866 289.892 948.786 290.643C949.705 291.393 951.463 289.797 954.001 283.772C954.78 281.72 955.237 279.565 955.34 277.373C955.332 276.63 955.17 275.902 954.861 275.232Z" fill="#AC95CF"/>
<path d="M959.704 271.6C960.638 272.004 962.028 274.667 959.946 282.126C958.659 287.76 954.378 292.144 955.408 292.637C956.622 293.454 959.395 288.856 961.359 282.486C961.874 280.559 962.197 278.588 962.308 276.602C962.337 275.601 961.999 271.872 959.704 271.6Z" fill="#AC95CF"/>
<path opacity="0.66" d="M879.765 272.554C880.773 271.818 880.648 271.002 883.443 272.127C884.598 272.598 885.922 275.246 885.922 275.246C885.922 275.246 887.916 271.259 891.858 276.562C899.023 286.184 902.156 285.742 906.371 290.156C909.078 292.981 911.425 295.673 910.52 301.02C910.02 304.007 908.6 304.823 908.6 304.823C908.6 304.823 907.188 304.823 900.413 301.366C899.832 301.072 899.883 300.77 899.214 300.417C890.696 296.004 883.259 289.759 879.17 279.755" fill="url(#paint22_linear_307_201)"/>
<path d="M902.719 292.06C899.519 289.632 896.43 287.403 894.973 285.484C893.517 283.564 891.95 279.54 891.001 276.907C890.052 274.273 887.323 272.986 885.889 275.237C885.507 275.84 885.808 278.179 885.889 279.077C885.08 277.745 884.499 276.282 884.183 274.759C883.447 271.169 879.696 270.007 879.034 274.832C879.034 274.832 876.246 274.943 877.481 283.593C878.099 286.962 879.21 290.228 880.792 293.266C884.749 300.739 887.86 304.204 891.877 306.955C898.151 311.251 904.102 310.228 905.97 307.786C909.126 303.586 908.295 296.289 902.719 292.06Z" fill="url(#paint23_radial_307_201)"/>
<path d="M885.888 275.232C885.888 276.667 887.271 281.661 887.793 282.941C889.595 287.686 892.876 289.892 891.964 290.643C891.052 291.393 889.279 289.797 886.741 283.772C885.961 281.72 885.513 279.565 885.41 277.373C885.41 276.63 885.571 275.902 885.888 275.232Z" fill="#AC95CF"/>
<path d="M881.041 271.6C880.114 272.004 878.724 274.667 880.806 282.111C882.093 287.745 886.374 292.13 885.344 292.622C884.131 293.439 881.357 288.841 879.393 282.471C878.879 280.544 878.555 278.573 878.445 276.587C878.415 275.601 878.753 271.872 881.041 271.6Z" fill="#AC95CF"/>
<path d="M912.206 266.138C911.661 268.058 910.654 269.808 909.263 271.243C907.763 272.795 905.784 273.795 903.651 274.089C901.363 274.376 899.046 273.78 897.178 272.434C895.339 271.095 893.956 269.212 893.228 267.057C893.059 266.535 892.919 265.998 892.816 265.454C892.72 264.917 892.654 264.372 892.617 263.828L892.566 262.982L892.603 262.173C892.625 261.636 892.684 261.106 892.787 260.577C893.191 258.547 893.993 256.612 895.14 254.891C896.251 253.133 897.766 251.669 899.554 250.61C901.297 249.558 903.364 249.175 905.372 249.528V249.742C903.511 249.779 901.702 250.411 900.223 251.544C898.752 252.669 897.538 254.104 896.663 255.737C895.744 257.34 895.126 259.091 894.824 260.915C894.545 262.739 894.699 264.6 895.28 266.351C895.839 268.102 896.921 269.646 898.384 270.764C899.848 271.905 901.68 272.471 903.533 272.353C905.372 272.221 907.13 271.515 908.55 270.338C909.984 269.154 911.161 267.697 912.014 266.042L912.206 266.138Z" fill="#AC95CF"/>
<path d="M935.878 249.616C939.173 249.616 942.638 251.676 944.947 256.067C948.309 262.445 946.558 268.675 942.41 271.301C941.144 272.117 939.673 272.551 938.173 272.551C934.885 272.551 931.413 270.492 929.103 266.1C925.72 259.716 927.492 253.485 931.641 250.859C932.906 250.05 934.377 249.616 935.878 249.616Z" fill="white"/>
<path d="M935.881 249.501C937.889 249.148 939.956 249.531 941.699 250.582C943.487 251.642 945.002 253.105 946.113 254.863C947.268 256.607 948.069 258.556 948.467 260.608C948.562 261.138 948.628 261.667 948.65 262.204V263.014V263.83C948.606 264.926 948.4 266.015 948.047 267.059C947.319 269.214 945.944 271.09 944.097 272.429C942.229 273.782 939.919 274.371 937.632 274.084C935.476 273.797 933.483 272.797 931.975 271.237C930.585 269.81 929.57 268.06 929.033 266.14L929.224 266.037C930.07 267.684 931.239 269.148 932.666 270.34C934.093 271.524 935.851 272.23 937.698 272.363C939.551 272.48 941.383 271.914 942.847 270.774C944.303 269.648 945.385 268.111 945.944 266.36C946.525 264.61 946.679 262.749 946.4 260.925C946.113 259.1 945.502 257.335 944.59 255.724C943.715 254.091 942.501 252.657 941.03 251.531C939.551 250.398 937.742 249.766 935.881 249.729V249.501Z" fill="#AC95CF"/>
<path d="M894.421 353.898L888.221 336.448H886.296L880.121 353.898H881.621L883.521 348.473H890.946L892.846 353.898H894.421ZM890.546 347.173H883.896L887.171 337.873H887.271L890.546 347.173ZM897.821 353.898V344.898C897.821 342.998 899.496 342.073 901.296 342.073C903.421 342.073 904.571 343.323 904.571 345.923V353.898H905.996V345.673C905.996 342.548 904.396 340.798 901.671 340.798C899.621 340.798 898.471 341.798 897.896 343.123H897.821V341.098H896.396V353.898H897.821ZM907.807 353.898H909.407L913.332 348.498H913.382L917.157 353.898H918.832L914.157 347.348L918.707 341.098H917.107L913.382 346.323H913.307L909.657 341.098H907.982L912.557 347.448L907.807 353.898ZM921.512 337.623C922.187 337.623 922.487 337.248 922.487 336.723V336.473C922.487 335.948 922.187 335.573 921.512 335.573C920.837 335.573 920.537 335.948 920.537 336.473V336.723C920.537 337.248 920.837 337.623 921.512 337.623ZM920.812 353.898H922.237V341.098H920.812V353.898ZM930.441 354.198C933.816 354.198 936.016 351.698 936.016 347.498C936.016 343.298 933.816 340.798 930.441 340.798C927.066 340.798 924.866 343.298 924.866 347.498C924.866 351.698 927.066 354.198 930.441 354.198ZM930.441 352.923C927.966 352.923 926.391 351.273 926.391 348.298V346.698C926.391 343.698 927.966 342.073 930.441 342.073C932.916 342.073 934.491 343.723 934.491 346.698V348.298C934.491 351.298 932.916 352.923 930.441 352.923ZM946.636 353.898H948.061V341.098H946.636V350.073C946.636 351.998 944.961 352.923 943.186 352.923C941.061 352.923 939.886 351.673 939.886 349.048V341.098H938.461V349.323C938.461 352.448 940.086 354.198 942.811 354.198C945.011 354.198 946.061 353.073 946.536 351.873H946.636V353.898ZM955.348 354.198C958.173 354.198 959.898 352.773 959.898 350.398C959.898 348.348 958.673 347.223 956.073 346.823L955.048 346.673C953.223 346.373 952.298 345.798 952.298 344.323C952.298 342.873 953.373 342.023 955.198 342.023C956.973 342.023 958.023 342.848 958.698 343.648L959.648 342.773C958.698 341.623 957.398 340.798 955.273 340.798C952.798 340.798 950.923 341.998 950.923 344.398C950.923 346.698 952.523 347.623 954.848 347.973L955.898 348.148C957.748 348.423 958.523 349.198 958.523 350.548C958.523 352.098 957.398 352.973 955.448 352.973C953.748 352.973 952.523 352.298 951.473 350.923L950.423 351.748C951.573 353.323 953.123 354.198 955.348 354.198Z" fill="black"/>
<path d="M1098 300.237C1077.47 300.237 1055.33 287.365 1055.33 259.119C1055.33 230.873 1077.47 218 1098 218C1109.4 218 1119.92 221.751 1127.71 228.592C1136.17 236.095 1140.66 246.687 1140.66 259.119C1140.66 271.55 1136.17 282.069 1127.71 289.571C1119.92 296.412 1109.32 300.237 1098 300.237Z" fill="url(#paint24_radial_307_201)"/>
<path d="M1133.21 234.676C1137.13 241.002 1139.18 248.534 1139.18 256.912C1139.18 269.343 1134.69 279.862 1126.23 287.365C1118.44 294.206 1107.84 298.031 1096.52 298.031C1083.23 298.031 1069.3 292.624 1061.08 281.157C1068.99 294.147 1083.88 300.238 1097.99 300.238C1109.31 300.238 1119.91 296.413 1127.7 289.572C1136.16 282.069 1140.65 271.55 1140.65 259.119C1140.65 249.748 1138.1 241.421 1133.21 234.676Z" fill="#AC95CF"/>
<path d="M1098 300.237C1077.47 300.237 1055.33 287.365 1055.33 259.119C1055.33 230.873 1077.47 218 1098 218C1109.4 218 1119.92 221.751 1127.71 228.592C1136.17 236.095 1140.66 246.687 1140.66 259.119C1140.66 271.55 1136.17 282.069 1127.71 289.571C1119.92 296.412 1109.32 300.237 1098 300.237Z" fill="url(#paint25_linear_307_201)"/>
<path d="M1098 300.237C1077.47 300.237 1055.33 287.365 1055.33 259.119C1055.33 230.873 1077.47 218 1098 218C1109.4 218 1119.92 221.751 1127.71 228.592C1136.17 236.095 1140.66 246.687 1140.66 259.119C1140.66 271.55 1136.17 282.069 1127.71 289.571C1119.92 296.412 1109.32 300.237 1098 300.237Z" fill="url(#paint26_linear_307_201)"/>
<path d="M1133.21 234.676C1137.13 241.002 1139.18 248.534 1139.18 256.912C1139.18 269.343 1134.69 279.862 1126.23 287.365C1118.44 294.206 1107.84 298.031 1096.52 298.031C1083.23 298.031 1069.3 292.624 1061.08 281.157C1068.99 294.147 1083.88 300.238 1097.99 300.238C1109.31 300.238 1119.91 296.413 1127.7 289.572C1136.16 282.069 1140.65 271.55 1140.65 259.119C1140.65 249.748 1138.1 241.421 1133.21 234.676Z" fill="#AC95CF"/>
<path d="M1098.28 293.569C1093.86 293.539 1090.27 289.957 1090.24 285.529V276.261C1090.24 271.818 1093.84 268.221 1098.28 268.221C1102.73 268.221 1106.32 271.818 1106.32 276.261V285.536C1106.29 289.964 1102.71 293.539 1098.28 293.569Z" fill="#422B0D"/>
<path d="M1083.05 243.616C1084.55 243.616 1086.02 244.05 1087.29 244.859C1091.44 247.485 1093.17 253.686 1089.82 260.093C1087.51 264.507 1084.04 266.544 1080.75 266.544C1079.25 266.544 1077.78 266.11 1076.52 265.301C1072.37 262.675 1070.63 256.474 1073.98 250.067C1076.29 245.654 1079.75 243.616 1083.05 243.616Z" fill="white"/>
<path opacity="0.66" d="M1138.7 266.554C1137.69 265.818 1137.82 265.002 1135.02 266.127C1133.87 266.598 1132.54 269.246 1132.54 269.246C1132.54 269.246 1130.55 265.259 1126.61 270.563C1119.44 280.184 1116.31 279.743 1112.09 284.156C1109.38 286.981 1107.03 289.673 1107.94 295.021C1108.45 298.007 1109.86 298.823 1109.86 298.823C1109.86 298.823 1110.73 298.823 1119.25 294.41C1127.77 289.997 1135.21 283.752 1139.3 273.748" fill="url(#paint27_linear_307_201)"/>
<path d="M1115.75 286.06C1118.95 283.632 1122.04 281.403 1123.5 279.484C1124.95 277.564 1126.52 273.54 1127.46 270.907C1128.4 268.273 1131.14 266.986 1132.61 269.237C1132.99 269.84 1132.69 272.179 1132.61 273.077C1133.41 271.745 1133.98 270.282 1134.29 268.759C1135.02 265.169 1138.78 264.007 1139.44 268.832C1139.44 268.832 1142.22 268.943 1140.99 277.593C1140.37 280.962 1139.26 284.228 1137.68 287.266C1133.71 294.739 1130.61 298.204 1126.59 300.955C1120.31 305.251 1114.36 304.228 1112.5 301.786C1109.32 297.586 1110.18 290.289 1115.75 286.06Z" fill="url(#paint28_radial_307_201)"/>
<path d="M1132.57 269.232C1132.57 270.667 1131.19 275.661 1130.67 276.941C1128.87 281.686 1125.58 283.892 1126.5 284.643C1127.42 285.393 1129.18 283.797 1131.71 277.772C1132.49 275.72 1132.95 273.565 1133.05 271.373C1133.05 270.63 1132.88 269.902 1132.57 269.232Z" fill="#AC95CF"/>
<path d="M1137.42 265.6C1138.35 266.004 1139.74 268.667 1137.66 276.126C1136.37 281.76 1132.09 286.144 1133.12 286.637C1134.33 287.454 1137.11 282.856 1139.07 276.486C1139.59 274.559 1139.91 272.588 1140.02 270.602C1140.05 269.601 1139.71 265.872 1137.42 265.6Z" fill="#AC95CF"/>
<path opacity="0.66" d="M1057.48 266.554C1058.49 265.818 1058.36 265.002 1061.16 266.127C1062.31 266.598 1063.64 269.246 1063.64 269.246C1063.64 269.246 1065.63 265.259 1069.57 270.562C1076.74 280.184 1079.87 279.742 1084.08 284.156C1086.79 286.981 1089.14 289.673 1088.23 295.02C1087.73 298.007 1086.31 298.823 1086.31 298.823C1086.31 298.823 1084.9 298.823 1078.13 295.366C1077.55 295.072 1077.6 294.77 1076.93 294.417C1068.41 290.004 1060.97 283.759 1056.88 273.755" fill="url(#paint29_linear_307_201)"/>
<path d="M1080.43 286.06C1077.23 283.632 1074.14 281.403 1072.69 279.484C1071.23 277.564 1069.66 273.54 1068.71 270.907C1067.77 268.273 1065.04 266.986 1063.6 269.237C1063.22 269.84 1063.52 272.179 1063.6 273.077C1062.79 271.745 1062.21 270.282 1061.9 268.759C1061.16 265.169 1057.41 264.007 1056.75 268.832C1056.75 268.832 1053.96 268.943 1055.19 277.593C1055.81 280.962 1056.92 284.228 1058.5 287.266C1062.46 294.739 1065.57 298.204 1069.59 300.955C1075.86 305.251 1081.82 304.228 1083.68 301.786C1086.84 297.586 1086.01 290.289 1080.43 286.06Z" fill="url(#paint30_radial_307_201)"/>
<path d="M1063.6 269.232C1063.6 270.667 1064.98 275.661 1065.51 276.941C1067.31 281.686 1070.59 283.892 1069.68 284.643C1068.76 285.393 1066.99 283.797 1064.45 277.772C1063.67 275.72 1063.23 273.565 1063.12 271.373C1063.12 270.63 1063.28 269.902 1063.6 269.232Z" fill="#AC95CF"/>
<path d="M1058.75 265.6C1057.83 266.004 1056.44 268.667 1058.52 276.111C1059.81 281.745 1064.09 286.13 1063.06 286.622C1061.84 287.439 1059.07 282.841 1057.11 276.471C1056.59 274.544 1056.27 272.573 1056.16 270.587C1056.13 269.601 1056.47 265.872 1058.75 265.6Z" fill="#AC95CF"/>
<path d="M1089.92 260.138C1089.37 262.058 1088.37 263.808 1086.98 265.243C1085.48 266.795 1083.5 267.795 1081.36 268.089C1079.08 268.376 1076.76 267.78 1074.89 266.434C1073.05 265.095 1071.67 263.212 1070.94 261.057C1070.77 260.535 1070.63 259.998 1070.53 259.454C1070.43 258.917 1070.37 258.372 1070.33 257.828L1070.28 256.982L1070.32 256.173C1070.34 255.636 1070.4 255.106 1070.5 254.577C1070.9 252.547 1071.71 250.612 1072.85 248.891C1073.96 247.133 1075.48 245.669 1077.27 244.61C1079.01 243.558 1081.08 243.175 1083.09 243.528V243.742C1081.22 243.779 1079.41 244.411 1077.94 245.544C1076.47 246.669 1075.25 248.104 1074.38 249.737C1073.46 251.34 1072.84 253.091 1072.54 254.915C1072.26 256.739 1072.41 258.6 1072.99 260.351C1073.55 262.102 1074.63 263.646 1076.1 264.764C1077.56 265.905 1079.39 266.471 1081.25 266.353C1083.09 266.221 1084.84 265.515 1086.26 264.338C1087.7 263.154 1088.87 261.697 1089.73 260.042L1089.92 260.138Z" fill="#AC95CF"/>
<path d="M1113.59 243.616C1116.89 243.616 1120.35 245.676 1122.66 250.067C1126.02 256.445 1124.27 262.675 1120.12 265.301C1118.86 266.117 1117.39 266.551 1115.89 266.551C1112.6 266.551 1109.13 264.492 1106.82 260.1C1103.43 253.716 1105.21 247.485 1109.35 244.859C1110.62 244.05 1112.09 243.616 1113.59 243.616Z" fill="white"/>
<path d="M1113.59 243.501C1115.6 243.148 1117.67 243.531 1119.41 244.582C1121.2 245.642 1122.72 247.105 1123.83 248.863C1124.98 250.607 1125.78 252.556 1126.18 254.608C1126.28 255.138 1126.34 255.667 1126.36 256.204V257.014V257.83C1126.32 258.926 1126.11 260.015 1125.76 261.059C1125.03 263.214 1123.66 265.09 1121.81 266.429C1119.94 267.782 1117.63 268.371 1115.34 268.084C1113.19 267.797 1111.2 266.797 1109.69 265.237C1108.3 263.81 1107.28 262.06 1106.75 260.14L1106.94 260.037C1107.78 261.684 1108.95 263.148 1110.38 264.34C1111.81 265.524 1113.56 266.23 1115.41 266.363C1117.26 266.48 1119.1 265.914 1120.56 264.774C1122.02 263.648 1123.1 262.111 1123.66 260.36C1124.24 258.61 1124.39 256.749 1124.11 254.925C1123.83 253.1 1123.22 251.335 1122.3 249.724C1121.43 248.091 1120.21 246.657 1118.74 245.531C1117.26 244.398 1115.46 243.766 1113.59 243.729V243.501Z" fill="#AC95CF"/>
<path d="M1064.87 353.898L1056.93 331.562H1054.47L1046.56 353.898H1048.48L1050.91 346.954H1060.42L1062.85 353.898H1064.87ZM1059.91 345.29H1051.39L1055.59 333.386H1055.71L1059.91 345.29ZM1069.22 353.898V342.378C1069.22 339.946 1071.36 338.762 1073.67 338.762C1076.39 338.762 1077.86 340.362 1077.86 343.69V353.898H1079.68V343.37C1079.68 339.37 1077.63 337.13 1074.15 337.13C1071.52 337.13 1070.05 338.41 1069.31 340.106H1069.22V337.514H1067.39V353.898H1069.22ZM1082 353.898H1084.05L1089.07 346.986H1089.14L1093.97 353.898H1096.11L1090.13 345.514L1095.95 337.514H1093.9L1089.14 344.202H1089.04L1084.37 337.514H1082.22L1088.08 345.642L1082 353.898ZM1099.54 333.066C1100.41 333.066 1100.79 332.586 1100.79 331.914V331.594C1100.79 330.922 1100.41 330.442 1099.54 330.442C1098.68 330.442 1098.29 330.922 1098.29 331.594V331.914C1098.29 332.586 1098.68 333.066 1099.54 333.066ZM1098.65 353.898H1100.47V337.514H1098.65V353.898ZM1110.97 354.282C1115.29 354.282 1118.11 351.082 1118.11 345.706C1118.11 340.33 1115.29 337.13 1110.97 337.13C1106.65 337.13 1103.84 340.33 1103.84 345.706C1103.84 351.082 1106.65 354.282 1110.97 354.282ZM1110.97 352.65C1107.8 352.65 1105.79 350.538 1105.79 346.73V344.682C1105.79 340.842 1107.8 338.762 1110.97 338.762C1114.14 338.762 1116.16 340.874 1116.16 344.682V346.73C1116.16 350.57 1114.14 352.65 1110.97 352.65ZM1131.7 353.898H1133.53V337.514H1131.7V349.002C1131.7 351.466 1129.56 352.65 1127.29 352.65C1124.57 352.65 1123.06 351.05 1123.06 347.69V337.514H1121.24V348.042C1121.24 352.042 1123.32 354.282 1126.81 354.282C1129.62 354.282 1130.97 352.842 1131.57 351.306H1131.7V353.898ZM1142.85 354.282C1146.47 354.282 1148.68 352.458 1148.68 349.418C1148.68 346.794 1147.11 345.354 1143.78 344.842L1142.47 344.65C1140.13 344.266 1138.95 343.53 1138.95 341.642C1138.95 339.786 1140.32 338.698 1142.66 338.698C1144.93 338.698 1146.28 339.754 1147.14 340.778L1148.36 339.658C1147.14 338.186 1145.48 337.13 1142.76 337.13C1139.59 337.13 1137.19 338.666 1137.19 341.738C1137.19 344.682 1139.24 345.866 1142.21 346.314L1143.56 346.538C1145.92 346.89 1146.92 347.882 1146.92 349.61C1146.92 351.594 1145.48 352.714 1142.98 352.714C1140.8 352.714 1139.24 351.85 1137.89 350.09L1136.55 351.146C1138.02 353.162 1140 354.282 1142.85 354.282Z" fill="black"/>
<path d="M1285 300.237C1264.47 300.237 1242.33 287.365 1242.33 259.119C1242.33 230.873 1264.47 218 1285 218C1296.4 218 1306.92 221.751 1314.71 228.592C1323.17 236.095 1327.66 246.687 1327.66 259.119C1327.66 271.55 1323.17 282.069 1314.71 289.571C1306.92 296.412 1296.32 300.237 1285 300.237Z" fill="url(#paint31_radial_307_201)"/>
<path d="M1320.21 234.676C1324.13 241.002 1326.18 248.534 1326.18 256.912C1326.18 269.343 1321.69 279.862 1313.23 287.365C1305.44 294.206 1294.84 298.031 1283.52 298.031C1270.23 298.031 1256.3 292.624 1248.08 281.157C1255.99 294.147 1270.88 300.238 1284.99 300.238C1296.31 300.238 1306.91 296.413 1314.7 289.572C1323.16 282.069 1327.65 271.55 1327.65 259.119C1327.65 249.748 1325.1 241.421 1320.21 234.676Z" fill="#AC95CF"/>
<path d="M1285 300.237C1264.47 300.237 1242.33 287.365 1242.33 259.119C1242.33 230.873 1264.47 218 1285 218C1296.4 218 1306.92 221.751 1314.71 228.592C1323.17 236.095 1327.66 246.687 1327.66 259.119C1327.66 271.55 1323.17 282.069 1314.71 289.571C1306.92 296.412 1296.32 300.237 1285 300.237Z" fill="url(#paint32_linear_307_201)"/>
<path d="M1285 300.237C1264.47 300.237 1242.33 287.365 1242.33 259.119C1242.33 230.873 1264.47 218 1285 218C1296.4 218 1306.92 221.751 1314.71 228.592C1323.17 236.095 1327.66 246.687 1327.66 259.119C1327.66 271.55 1323.17 282.069 1314.71 289.571C1306.92 296.412 1296.32 300.237 1285 300.237Z" fill="url(#paint33_linear_307_201)"/>
<path d="M1320.21 234.676C1324.13 241.002 1326.18 248.534 1326.18 256.912C1326.18 269.343 1321.69 279.862 1313.23 287.365C1305.44 294.206 1294.84 298.031 1283.52 298.031C1270.23 298.031 1256.3 292.624 1248.08 281.157C1255.99 294.147 1270.88 300.238 1284.99 300.238C1296.31 300.238 1306.91 296.413 1314.7 289.572C1323.16 282.069 1327.65 271.55 1327.65 259.119C1327.65 249.748 1325.1 241.421 1320.21 234.676Z" fill="#AC95CF"/>
<path d="M1285.28 293.569C1280.86 293.539 1277.27 289.957 1277.24 285.529V276.261C1277.24 271.818 1280.84 268.221 1285.28 268.221C1289.73 268.221 1293.32 271.818 1293.32 276.261V285.536C1293.29 289.964 1289.71 293.539 1285.28 293.569Z" fill="#422B0D"/>
<path d="M1270.05 243.616C1271.55 243.616 1273.02 244.05 1274.29 244.859C1278.44 247.485 1280.17 253.686 1276.82 260.093C1274.51 264.507 1271.04 266.544 1267.75 266.544C1266.25 266.544 1264.78 266.11 1263.52 265.301C1259.37 262.675 1257.63 256.474 1260.98 250.067C1263.29 245.654 1266.75 243.616 1270.05 243.616Z" fill="white"/>
<path opacity="0.66" d="M1325.7 266.554C1324.69 265.818 1324.82 265.002 1322.02 266.127C1320.87 266.598 1319.54 269.246 1319.54 269.246C1319.54 269.246 1317.55 265.259 1313.61 270.563C1306.44 280.184 1303.31 279.743 1299.09 284.156C1296.38 286.981 1294.03 289.673 1294.94 295.021C1295.45 298.007 1296.86 298.823 1296.86 298.823C1296.86 298.823 1297.73 298.823 1306.25 294.41C1314.77 289.997 1322.21 283.752 1326.3 273.748" fill="url(#paint34_linear_307_201)"/>
<path d="M1302.75 286.06C1305.95 283.632 1309.04 281.403 1310.5 279.484C1311.95 277.564 1313.52 273.54 1314.46 270.907C1315.4 268.273 1318.14 266.986 1319.61 269.237C1319.99 269.84 1319.69 272.179 1319.61 273.077C1320.41 271.745 1320.98 270.282 1321.29 268.759C1322.02 265.169 1325.78 264.007 1326.44 268.832C1326.44 268.832 1329.22 268.943 1327.99 277.593C1327.37 280.962 1326.26 284.228 1324.68 287.266C1320.71 294.739 1317.61 298.204 1313.59 300.955C1307.31 305.251 1301.36 304.228 1299.5 301.786C1296.32 297.586 1297.18 290.289 1302.75 286.06Z" fill="url(#paint35_radial_307_201)"/>
<path d="M1319.57 269.232C1319.57 270.667 1318.19 275.661 1317.67 276.941C1315.87 281.686 1312.58 283.892 1313.5 284.643C1314.42 285.393 1316.18 283.797 1318.71 277.772C1319.49 275.72 1319.95 273.565 1320.05 271.373C1320.05 270.63 1319.88 269.902 1319.57 269.232Z" fill="#AC95CF"/>
<path d="M1324.42 265.6C1325.35 266.004 1326.74 268.667 1324.66 276.126C1323.37 281.76 1319.09 286.144 1320.12 286.637C1321.33 287.454 1324.11 282.856 1326.07 276.486C1326.59 274.559 1326.91 272.588 1327.02 270.602C1327.05 269.601 1326.71 265.872 1324.42 265.6Z" fill="#AC95CF"/>
<path opacity="0.66" d="M1244.48 266.554C1245.49 265.818 1245.36 265.002 1248.16 266.127C1249.31 266.598 1250.64 269.246 1250.64 269.246C1250.64 269.246 1252.63 265.259 1256.57 270.562C1263.74 280.184 1266.87 279.742 1271.08 284.156C1273.79 286.981 1276.14 289.673 1275.23 295.02C1274.73 298.007 1273.31 298.823 1273.31 298.823C1273.31 298.823 1271.9 298.823 1265.13 295.366C1264.55 295.072 1264.6 294.77 1263.93 294.417C1255.41 290.004 1247.97 283.759 1243.88 273.755" fill="url(#paint36_linear_307_201)"/>
<path d="M1267.43 286.06C1264.23 283.632 1261.14 281.403 1259.69 279.484C1258.23 277.564 1256.66 273.54 1255.71 270.907C1254.77 268.273 1252.04 266.986 1250.6 269.237C1250.22 269.84 1250.52 272.179 1250.6 273.077C1249.79 271.745 1249.21 270.282 1248.9 268.759C1248.16 265.169 1244.41 264.007 1243.75 268.832C1243.75 268.832 1240.96 268.943 1242.19 277.593C1242.81 280.962 1243.92 284.228 1245.5 287.266C1249.46 294.739 1252.57 298.204 1256.59 300.955C1262.86 305.251 1268.82 304.228 1270.68 301.786C1273.84 297.586 1273.01 290.289 1267.43 286.06Z" fill="url(#paint37_radial_307_201)"/>
<path d="M1250.6 269.232C1250.6 270.667 1251.98 275.661 1252.51 276.941C1254.31 281.686 1257.59 283.892 1256.68 284.643C1255.76 285.393 1253.99 283.797 1251.45 277.772C1250.67 275.72 1250.23 273.565 1250.12 271.373C1250.12 270.63 1250.28 269.902 1250.6 269.232Z" fill="#AC95CF"/>
<path d="M1245.75 265.6C1244.83 266.004 1243.44 268.667 1245.52 276.111C1246.81 281.745 1251.09 286.13 1250.06 286.622C1248.84 287.439 1246.07 282.841 1244.11 276.471C1243.59 274.544 1243.27 272.573 1243.16 270.587C1243.13 269.601 1243.47 265.872 1245.75 265.6Z" fill="#AC95CF"/>
<path d="M1276.92 260.138C1276.37 262.058 1275.37 263.808 1273.98 265.243C1272.48 266.795 1270.5 267.795 1268.36 268.089C1266.08 268.376 1263.76 267.78 1261.89 266.434C1260.05 265.095 1258.67 263.212 1257.94 261.057C1257.77 260.535 1257.63 259.998 1257.53 259.454C1257.43 258.917 1257.37 258.372 1257.33 257.828L1257.28 256.982L1257.32 256.173C1257.34 255.636 1257.4 255.106 1257.5 254.577C1257.9 252.547 1258.71 250.612 1259.85 248.891C1260.96 247.133 1262.48 245.669 1264.27 244.61C1266.01 243.558 1268.08 243.175 1270.09 243.528V243.742C1268.22 243.779 1266.41 244.411 1264.94 245.544C1263.47 246.669 1262.25 248.104 1261.38 249.737C1260.46 251.34 1259.84 253.091 1259.54 254.915C1259.26 256.739 1259.41 258.6 1259.99 260.351C1260.55 262.102 1261.63 263.646 1263.1 264.764C1264.56 265.905 1266.39 266.471 1268.25 266.353C1270.09 266.221 1271.84 265.515 1273.26 264.338C1274.7 263.154 1275.87 261.697 1276.73 260.042L1276.92 260.138Z" fill="#AC95CF"/>
<path d="M1300.59 243.616C1303.89 243.616 1307.35 245.676 1309.66 250.067C1313.02 256.445 1311.27 262.675 1307.12 265.301C1305.86 266.117 1304.39 266.551 1302.89 266.551C1299.6 266.551 1296.13 264.492 1293.82 260.1C1290.43 253.716 1292.21 247.485 1296.35 244.859C1297.62 244.05 1299.09 243.616 1300.59 243.616Z" fill="white"/>
<path d="M1300.59 243.501C1302.6 243.148 1304.67 243.531 1306.41 244.582C1308.2 245.642 1309.72 247.105 1310.83 248.863C1311.98 250.607 1312.78 252.556 1313.18 254.608C1313.28 255.138 1313.34 255.667 1313.36 256.204V257.014V257.83C1313.32 258.926 1313.11 260.015 1312.76 261.059C1312.03 263.214 1310.66 265.09 1308.81 266.429C1306.94 267.782 1304.63 268.371 1302.34 268.084C1300.19 267.797 1298.2 266.797 1296.69 265.237C1295.3 263.81 1294.28 262.06 1293.75 260.14L1293.94 260.037C1294.78 261.684 1295.95 263.148 1297.38 264.34C1298.81 265.524 1300.56 266.23 1302.41 266.363C1304.26 266.48 1306.1 265.914 1307.56 264.774C1309.02 263.648 1310.1 262.111 1310.66 260.36C1311.24 258.61 1311.39 256.749 1311.11 254.925C1310.83 253.1 1310.22 251.335 1309.3 249.724C1308.43 248.091 1307.21 246.657 1305.74 245.531C1304.26 244.398 1302.46 243.766 1300.59 243.729V243.501Z" fill="#AC95CF"/>
<path d="M1251.87 353.898L1243.93 331.562H1241.47L1233.56 353.898H1235.48L1237.91 346.954H1247.42L1249.85 353.898H1251.87ZM1246.91 345.29H1238.39L1242.59 333.386H1242.71L1246.91 345.29ZM1256.22 353.898V342.378C1256.22 339.946 1258.36 338.762 1260.67 338.762C1263.39 338.762 1264.86 340.362 1264.86 343.69V353.898H1266.68V343.37C1266.68 339.37 1264.63 337.13 1261.15 337.13C1258.52 337.13 1257.05 338.41 1256.31 340.106H1256.22V337.514H1254.39V353.898H1256.22ZM1269 353.898H1271.05L1276.07 346.986H1276.14L1280.97 353.898H1283.11L1277.13 345.514L1282.95 337.514H1280.9L1276.14 344.202H1276.04L1271.37 337.514H1269.22L1275.08 345.642L1269 353.898ZM1286.54 333.066C1287.41 333.066 1287.79 332.586 1287.79 331.914V331.594C1287.79 330.922 1287.41 330.442 1286.54 330.442C1285.68 330.442 1285.29 330.922 1285.29 331.594V331.914C1285.29 332.586 1285.68 333.066 1286.54 333.066ZM1285.65 353.898H1287.47V337.514H1285.65V353.898ZM1297.97 354.282C1302.29 354.282 1305.11 351.082 1305.11 345.706C1305.11 340.33 1302.29 337.13 1297.97 337.13C1293.65 337.13 1290.84 340.33 1290.84 345.706C1290.84 351.082 1293.65 354.282 1297.97 354.282ZM1297.97 352.65C1294.8 352.65 1292.79 350.538 1292.79 346.73V344.682C1292.79 340.842 1294.8 338.762 1297.97 338.762C1301.14 338.762 1303.16 340.874 1303.16 344.682V346.73C1303.16 350.57 1301.14 352.65 1297.97 352.65ZM1318.7 353.898H1320.53V337.514H1318.7V349.002C1318.7 351.466 1316.56 352.65 1314.29 352.65C1311.57 352.65 1310.06 351.05 1310.06 347.69V337.514H1308.24V348.042C1308.24 352.042 1310.32 354.282 1313.81 354.282C1316.62 354.282 1317.97 352.842 1318.57 351.306H1318.7V353.898ZM1329.85 354.282C1333.47 354.282 1335.68 352.458 1335.68 349.418C1335.68 346.794 1334.11 345.354 1330.78 344.842L1329.47 344.65C1327.13 344.266 1325.95 343.53 1325.95 341.642C1325.95 339.786 1327.32 338.698 1329.66 338.698C1331.93 338.698 1333.28 339.754 1334.14 340.778L1335.36 339.658C1334.14 338.186 1332.48 337.13 1329.76 337.13C1326.59 337.13 1324.19 338.666 1324.19 341.738C1324.19 344.682 1326.24 345.866 1329.21 346.314L1330.56 346.538C1332.92 346.89 1333.92 347.882 1333.92 349.61C1333.92 351.594 1332.48 352.714 1329.98 352.714C1327.8 352.714 1326.24 351.85 1324.89 350.09L1323.55 351.146C1325.02 353.162 1327 354.282 1329.85 354.282Z" fill="black"/>
</g>
<path d="M60.424 90H64.04V70.864H70.696V67.664H53.768V70.864H60.424V90ZM74.0153 90V79.376C74.0153 77.648 75.5513 76.72 78.3033 76.72H79.6793V73.36H78.7513C76.0953 73.36 74.6553 74.864 74.1753 76.56H74.0153V73.36H70.5273V90H74.0153ZM94.6713 90V87.152H92.9113V78.8C92.9113 75.088 90.5113 72.976 86.2233 72.976C82.9913 72.976 81.0393 74.352 79.9513 76.208L82.0312 78.096C82.8633 76.784 84.0473 75.824 85.9993 75.824C88.3353 75.824 89.4233 77.008 89.4233 79.024V80.432H86.4153C81.7753 80.432 79.3113 82.128 79.3113 85.424C79.3113 88.432 81.2633 90.384 84.6873 90.384C87.1193 90.384 88.9113 89.296 89.5513 87.216H89.7113C89.9353 88.848 90.8953 90 92.7193 90H94.6713ZM85.6793 87.728C83.9513 87.728 82.8633 86.96 82.8633 85.488V84.912C82.8633 83.472 84.0473 82.672 86.4792 82.672H89.4233V85.072C89.4233 86.704 87.8233 87.728 85.6793 87.728ZM106.554 90H110.042V66.32H106.554V76.112H106.394C105.69 74.128 103.93 72.976 101.722 72.976C97.5298 72.976 95.0978 76.208 95.0978 81.68C95.0978 87.152 97.5298 90.384 101.722 90.384C103.93 90.384 105.69 89.2 106.394 87.248H106.554V90ZM102.778 87.376C100.378 87.376 98.7778 85.68 98.7778 83.12V80.24C98.7778 77.68 100.378 75.984 102.778 75.984C104.89 75.984 106.554 77.136 106.554 78.832V84.528C106.554 86.224 104.89 87.376 102.778 87.376ZM114.787 70.384C116.227 70.384 116.835 69.616 116.835 68.56V68.016C116.835 66.96 116.227 66.192 114.787 66.192C113.347 66.192 112.707 66.96 112.707 68.016V68.56C112.707 69.616 113.347 70.384 114.787 70.384ZM113.027 90H116.515V73.36H113.027V90ZM127.144 90V87.152H123.912V76.208H127.4V73.36H123.912V68.816H120.776V71.728C120.776 72.88 120.392 73.36 119.24 73.36H117.832V76.208H120.424V86.384C120.424 88.656 121.704 90 124.104 90H127.144ZM130.944 70.384C132.384 70.384 132.992 69.616 132.992 68.56V68.016C132.992 66.96 132.384 66.192 130.944 66.192C129.504 66.192 128.864 66.96 128.864 68.016V68.56C128.864 69.616 129.504 70.384 130.944 70.384ZM129.184 90H132.672V73.36H129.184V90ZM142.18 90.384C146.82 90.384 149.828 86.992 149.828 81.68C149.828 76.368 146.82 72.976 142.18 72.976C137.54 72.976 134.532 76.368 134.532 81.68C134.532 86.992 137.54 90.384 142.18 90.384ZM142.18 87.504C139.812 87.504 138.212 86.032 138.212 83.088V80.272C138.212 77.328 139.812 75.856 142.18 75.856C144.548 75.856 146.148 77.328 146.148 80.272V83.088C146.148 86.032 144.548 87.504 142.18 87.504ZM155.203 90V78.864C155.203 76.912 156.995 75.984 158.819 75.984C160.963 75.984 161.955 77.296 161.955 79.888V90H165.443V79.44C165.443 75.344 163.427 72.976 160.035 72.976C157.475 72.976 156.067 74.32 155.363 76.112H155.203V73.36H151.715V90H155.203ZM182.421 90V87.152H180.661V78.8C180.661 75.088 178.261 72.976 173.973 72.976C170.741 72.976 168.789 74.352 167.701 76.208L169.781 78.096C170.613 76.784 171.797 75.824 173.749 75.824C176.085 75.824 177.173 77.008 177.173 79.024V80.432H174.165C169.525 80.432 167.061 82.128 167.061 85.424C167.061 88.432 169.013 90.384 172.437 90.384C174.869 90.384 176.661 89.296 177.301 87.216H177.461C177.685 88.848 178.645 90 180.469 90H182.421ZM173.429 87.728C171.701 87.728 170.613 86.96 170.613 85.488V84.912C170.613 83.472 171.797 82.672 174.229 82.672H177.173V85.072C177.173 86.704 175.573 87.728 173.429 87.728ZM189.632 90V87.152H187.328V66.32H183.84V86.544C183.84 88.688 185.024 90 187.392 90H189.632Z" fill="black"/>
<defs>
<radialGradient id="paint0_radial_307_201" cx="0" cy="0" r="1" gradientUnits="userSpaceOnUse" gradientTransform="translate(73.4999 266.937) scale(41.7376 41.7376)">
<stop offset="0.5" stop-color="#FDE030"/>
<stop offset="0.92" stop-color="#F7C02B"/>
<stop offset="1" stop-color="#F4A223"/>
</radialGradient>
<radialGradient id="paint1_radial_307_201" cx="0" cy="0" r="1" gradientUnits="userSpaceOnUse" gradientTransform="translate(243.394 267.026) scale(41.6465 41.6465)">
<stop offset="0.5" stop-color="#FDE030"/>
<stop offset="0.92" stop-color="#F7C02B"/>
<stop offset="1" stop-color="#F4A223"/>
</radialGradient>
<linearGradient id="paint2_linear_307_201" x1="243.394" y1="307.898" x2="243.394" y2="226.155" gradientUnits="userSpaceOnUse">
<stop offset="0.39" stop-color="#40C0E7" stop-opacity="0"/>
<stop offset="1" stop-color="#5F7AFF"/>
</linearGradient>
<radialGradient id="paint3_radial_307_201" cx="0" cy="0" r="1" gradientUnits="userSpaceOnUse" gradientTransform="translate(211.948 267.06) scale(24.4206 37.6078)">
<stop offset="0.46" stop-color="#29B6F6"/>
<stop offset="1" stop-color="#1E88E5"/>
</radialGradient>
<radialGradient id="paint4_radial_307_201" cx="0" cy="0" r="1" gradientUnits="userSpaceOnUse" gradientTransform="translate(413.937 267.548) scale(43.1487 43.1488)">
<stop offset="0.5" stop-color="#FDE030"/>
<stop offset="0.9188" stop-color="#F7C02B"/>
<stop offset="1" stop-color="#F4A223"/>
</radialGradient>
<radialGradient id="paint5_radial_307_201" cx="0" cy="0" r="1" gradientUnits="userSpaceOnUse" gradientTransform="translate(413.937 267.548) scale(43.1487 43.1488)">
<stop offset="0.5" stop-color="#FDE030"/>
<stop offset="0.9188" stop-color="#F7C02B"/>
<stop offset="1" stop-color="#F4A223"/>
</radialGradient>
<radialGradient id="paint6_radial_307_201" cx="0" cy="0" r="1" gradientUnits="userSpaceOnUse" gradientTransform="translate(583.306 264.998) scale(42.6538 42.6538)">
<stop offset="0.5" stop-color="#FDE030"/>
<stop offset="0.92" stop-color="#F7C02B"/>
<stop offset="1" stop-color="#F4A223"/>
</radialGradient>
<linearGradient id="paint7_linear_307_201" x1="583.306" y1="306.858" x2="583.306" y2="223.138" gradientUnits="userSpaceOnUse">
<stop offset="0.16" stop-color="#F4A223"/>
<stop offset="0.33" stop-color="#F7C02B"/>
<stop offset="0.81" stop-color="#FDE030" stop-opacity="0"/>
</linearGradient>
<linearGradient id="paint8_linear_307_201" x1="570.576" y1="305.701" x2="570.576" y2="263.147" gradientUnits="userSpaceOnUse">
<stop offset="0.08" stop-color="#ED6C30"/>
<stop offset="1" stop-color="#BF360C" stop-opacity="0.2"/>
</linearGradient>
<radialGradient id="paint9_radial_307_201" cx="0" cy="0" r="1" gradientUnits="userSpaceOnUse" gradientTransform="translate(576.911 279.256) scale(48.7196 48.7196)">
<stop offset="0.27" stop-color="#FFF176"/>
<stop offset="1" stop-color="#FFC400"/>
</radialGradient>
<radialGradient id="paint10_radial_307_201" cx="0" cy="0" r="1" gradientUnits="userSpaceOnUse" gradientTransform="translate(751.856 265.119) scale(41.898 41.8981)">
<stop offset="0.5" stop-color="#FDE030"/>
<stop offset="0.92" stop-color="#F7C02B"/>
<stop offset="1" stop-color="#F4A223"/>
</radialGradient>
<linearGradient id="paint11_linear_307_201" x1="751.856" y1="306.237" x2="751.856" y2="224" gradientUnits="userSpaceOnUse">
<stop offset="0.39" stop-color="#40C0E7" stop-opacity="0"/>
<stop offset="1" stop-color="#5F7AFF"/>
</linearGradient>
<linearGradient id="paint12_linear_307_201" x1="751.856" y1="306.237" x2="751.856" y2="224" gradientUnits="userSpaceOnUse">
<stop offset="0.16" stop-color="#F4A223"/>
<stop offset="0.33" stop-color="#F7C02B"/>
<stop offset="0.81" stop-color="#FDE030" stop-opacity="0"/>
</linearGradient>
<linearGradient id="paint13_linear_307_201" x1="777.378" y1="312.878" x2="777.378" y2="276.32" gradientUnits="userSpaceOnUse">
<stop stop-color="#ED6C30"/>
<stop offset="1" stop-color="#ED6C30" stop-opacity="0.2"/>
</linearGradient>
<radialGradient id="paint14_radial_307_201" cx="0" cy="0" r="1" gradientUnits="userSpaceOnUse" gradientTransform="translate(772.378 288.207) rotate(141.52) scale(32.8788 30.3023)">
<stop offset="0.27" stop-color="#FFF176"/>
<stop offset="1" stop-color="#FFC400"/>
</radialGradient>
<linearGradient id="paint15_linear_307_201" x1="726.517" y1="312.878" x2="726.517" y2="276.32" gradientUnits="userSpaceOnUse">
<stop stop-color="#ED6C30"/>
<stop offset="1" stop-color="#ED6C30" stop-opacity="0.2"/>
</linearGradient>
<radialGradient id="paint16_radial_307_201" cx="0" cy="0" r="1" gradientUnits="userSpaceOnUse" gradientTransform="translate(731.49 288.151) rotate(38.4803) scale(32.8788 30.3023)">
<stop offset="0.27" stop-color="#FFF176"/>
<stop offset="1" stop-color="#FFC400"/>
</radialGradient>
<radialGradient id="paint17_radial_307_201" cx="0" cy="0" r="1" gradientUnits="userSpaceOnUse" gradientTransform="translate(920.282 265.119) scale(41.898 41.8981)">
<stop offset="0.5" stop-color="#FDE030"/>
<stop offset="0.92" stop-color="#F7C02B"/>
<stop offset="1" stop-color="#F4A223"/>
</radialGradient>
<linearGradient id="paint18_linear_307_201" x1="920.282" y1="306.237" x2="920.282" y2="224" gradientUnits="userSpaceOnUse">
<stop offset="0.39" stop-color="#40C0E7" stop-opacity="0"/>
<stop offset="1" stop-color="#5F7AFF"/>
</linearGradient>
<linearGradient id="paint19_linear_307_201" x1="920.282" y1="306.237" x2="920.282" y2="224" gradientUnits="userSpaceOnUse">
<stop offset="0.16" stop-color="#F4A223"/>
<stop offset="0.33" stop-color="#F7C02B"/>
<stop offset="0.81" stop-color="#FDE030" stop-opacity="0"/>
</linearGradient>
<linearGradient id="paint20_linear_307_201" x1="945.804" y1="312.878" x2="945.804" y2="276.32" gradientUnits="userSpaceOnUse">
<stop stop-color="#ED6C30"/>
<stop offset="1" stop-color="#ED6C30" stop-opacity="0.2"/>
</linearGradient>
<radialGradient id="paint21_radial_307_201" cx="0" cy="0" r="1" gradientUnits="userSpaceOnUse" gradientTransform="translate(940.805 288.207) rotate(141.52) scale(32.8788 30.3023)">
<stop offset="0.27" stop-color="#FFF176"/>
<stop offset="1" stop-color="#FFC400"/>
</radialGradient>
<linearGradient id="paint22_linear_307_201" x1="894.943" y1="312.878" x2="894.943" y2="276.32" gradientUnits="userSpaceOnUse">
<stop stop-color="#ED6C30"/>
<stop offset="1" stop-color="#ED6C30" stop-opacity="0.2"/>
</linearGradient>
<radialGradient id="paint23_radial_307_201" cx="0" cy="0" r="1" gradientUnits="userSpaceOnUse" gradientTransform="translate(899.916 288.151) rotate(38.4803) scale(32.8788 30.3023)">
<stop offset="0.27" stop-color="#FFF176"/>
<stop offset="1" stop-color="#FFC400"/>
</radialGradient>
<radialGradient id="paint24_radial_307_201" cx="0" cy="0" r="1" gradientUnits="userSpaceOnUse" gradientTransform="translate(1098 259.119) scale(41.898 41.8981)">
<stop offset="0.5" stop-color="#FDE030"/>
<stop offset="0.92" stop-color="#F7C02B"/>
<stop offset="1" stop-color="#F4A223"/>
</radialGradient>
<linearGradient id="paint25_linear_307_201" x1="1098" y1="300.237" x2="1098" y2="218" gradientUnits="userSpaceOnUse">
<stop offset="0.39" stop-color="#40C0E7" stop-opacity="0"/>
<stop offset="1" stop-color="#5F7AFF"/>
</linearGradient>
<linearGradient id="paint26_linear_307_201" x1="1098" y1="300.237" x2="1098" y2="218" gradientUnits="userSpaceOnUse">
<stop offset="0.16" stop-color="#F4A223"/>
<stop offset="0.33" stop-color="#F7C02B"/>
<stop offset="0.81" stop-color="#FDE030" stop-opacity="0"/>
</linearGradient>
<linearGradient id="paint27_linear_307_201" x1="1123.52" y1="306.878" x2="1123.52" y2="270.32" gradientUnits="userSpaceOnUse">
<stop stop-color="#ED6C30"/>
<stop offset="1" stop-color="#ED6C30" stop-opacity="0.2"/>
</linearGradient>
<radialGradient id="paint28_radial_307_201" cx="0" cy="0" r="1" gradientUnits="userSpaceOnUse" gradientTransform="translate(1118.52 282.207) rotate(141.52) scale(32.8788 30.3023)">
<stop offset="0.27" stop-color="#FFF176"/>
<stop offset="1" stop-color="#FFC400"/>
</radialGradient>
<linearGradient id="paint29_linear_307_201" x1="1072.66" y1="306.878" x2="1072.66" y2="270.32" gradientUnits="userSpaceOnUse">
<stop stop-color="#ED6C30"/>
<stop offset="1" stop-color="#ED6C30" stop-opacity="0.2"/>
</linearGradient>
<radialGradient id="paint30_radial_307_201" cx="0" cy="0" r="1" gradientUnits="userSpaceOnUse" gradientTransform="translate(1077.63 282.151) rotate(38.4803) scale(32.8788 30.3023)">
<stop offset="0.27" stop-color="#FFF176"/>
<stop offset="1" stop-color="#FFC400"/>
</radialGradient>
<radialGradient id="paint31_radial_307_201" cx="0" cy="0" r="1" gradientUnits="userSpaceOnUse" gradientTransform="translate(1285 259.119) scale(41.898 41.8981)">
<stop offset="0.5" stop-color="#FDE030"/>
<stop offset="0.92" stop-color="#F7C02B"/>
<stop offset="1" stop-color="#F4A223"/>
</radialGradient>
<linearGradient id="paint32_linear_307_201" x1="1285" y1="300.237" x2="1285" y2="218" gradientUnits="userSpaceOnUse">
<stop offset="0.39" stop-color="#40C0E7" stop-opacity="0"/>
<stop offset="1" stop-color="#5F7AFF"/>
</linearGradient>
<linearGradient id="paint33_linear_307_201" x1="1285" y1="300.237" x2="1285" y2="218" gradientUnits="userSpaceOnUse">
<stop offset="0.16" stop-color="#F4A223"/>
<stop offset="0.33" stop-color="#F7C02B"/>
<stop offset="0.81" stop-color="#FDE030" stop-opacity="0"/>
</linearGradient>
<linearGradient id="paint34_linear_307_201" x1="1310.52" y1="306.878" x2="1310.52" y2="270.32" gradientUnits="userSpaceOnUse">
<stop stop-color="#ED6C30"/>
<stop offset="1" stop-color="#ED6C30" stop-opacity="0.2"/>
</linearGradient>
<radialGradient id="paint35_radial_307_201" cx="0" cy="0" r="1" gradientUnits="userSpaceOnUse" gradientTransform="translate(1305.52 282.207) rotate(141.52) scale(32.8788 30.3023)">
<stop offset="0.27" stop-color="#FFF176"/>
<stop offset="1" stop-color="#FFC400"/>
</radialGradient>
<linearGradient id="paint36_linear_307_201" x1="1259.66" y1="306.878" x2="1259.66" y2="270.32" gradientUnits="userSpaceOnUse">
<stop stop-color="#ED6C30"/>
<stop offset="1" stop-color="#ED6C30" stop-opacity="0.2"/>
</linearGradient>
<radialGradient id="paint37_radial_307_201" cx="0" cy="0" r="1" gradientUnits="userSpaceOnUse" gradientTransform="translate(1264.63 282.151) rotate(38.4803) scale(32.8788 30.3023)">
<stop offset="0.27" stop-color="#FFF176"/>
<stop offset="1" stop-color="#FFC400"/>
</radialGradient>
<clipPath id="clip0_307_201">
<rect width="1380" height="437" fill="white"/>
</clipPath>
</defs>
</svg>
