<svg width="354" height="437" viewBox="0 0 354 437" fill="none" xmlns="http://www.w3.org/2000/svg">
<rect width="354" height="437" fill="black"/>
<path d="M291 180.696C282.341 180.696 273 175.265 273 163.348C273 151.431 282.341 146 291 146C295.81 146 300.248 147.583 303.538 150.469C307.107 153.634 309 158.103 309 163.348C309 168.593 307.107 173.031 303.538 176.197C300.248 179.083 295.779 180.696 291 180.696Z" fill="url(#paint0_radial_309_231)"/>
<path d="M305.862 153.037C307.517 155.706 308.379 158.884 308.379 162.418C308.379 167.663 306.486 172.101 302.917 175.267C299.628 178.153 295.159 179.767 290.379 179.767C284.775 179.767 278.884 177.486 275.427 172.647C278.766 178.128 285.045 180.698 291 180.698C295.779 180.698 300.248 179.084 303.538 176.198C307.107 173.032 309 168.594 309 163.349C309 159.396 307.923 155.883 305.862 153.037Z" fill="#AC95CF"/>
<path opacity="0.8" d="M279.719 171.549C282.718 171.549 285.15 169.118 285.15 166.118C285.15 163.119 282.718 160.687 279.719 160.687C276.72 160.687 274.288 163.119 274.288 166.118C274.288 169.118 276.72 171.549 279.719 171.549Z" fill="url(#paint1_radial_309_231)"/>
<path opacity="0.8" d="M302.529 171.549C305.528 171.549 307.96 169.118 307.96 166.118C307.96 163.119 305.528 160.687 302.529 160.687C299.529 160.687 297.098 163.119 297.098 166.118C297.098 169.118 299.529 171.549 302.529 171.549Z" fill="url(#paint2_radial_309_231)"/>
<path d="M286.458 161.479C286.458 161.479 286.442 161.457 286.408 161.417C286.377 161.377 286.334 161.321 286.278 161.249C286.231 161.2 286.175 161.141 286.11 161.073C286.045 160.998 285.964 160.921 285.884 160.84C285.8 160.762 285.713 160.682 285.623 160.616C285.536 160.545 285.44 160.492 285.362 160.449C285.281 160.399 285.207 160.387 285.16 160.371C285.136 160.362 285.114 160.362 285.095 160.359C285.086 160.362 285.077 160.356 285.067 160.359L285.055 160.362H285.049H285.046C285.083 160.362 284.962 160.365 285.129 160.359L284.959 160.365C284.915 160.365 284.943 160.368 284.946 160.368C284.956 160.368 284.962 160.368 284.968 160.365C284.993 160.356 284.968 160.365 284.962 160.365C284.953 160.365 284.94 160.368 284.928 160.374C284.878 160.39 284.804 160.402 284.726 160.452C284.648 160.495 284.552 160.548 284.465 160.619C284.378 160.688 284.288 160.765 284.205 160.843C284.043 161.001 283.9 161.159 283.801 161.274C283.699 161.392 283.643 161.461 283.643 161.461L283.571 161.544C283.146 162.041 282.364 162.125 281.827 161.734C281.461 161.467 281.303 161.051 281.371 160.654C281.371 160.654 281.393 160.526 281.455 160.306C281.52 160.086 281.629 159.772 281.843 159.403C282.057 159.037 282.367 158.605 282.892 158.211C283.149 158.019 283.463 157.826 283.835 157.696C283.925 157.662 284.021 157.631 284.121 157.606C284.223 157.581 284.304 157.553 284.444 157.535L284.636 157.507C284.695 157.501 284.782 157.491 284.794 157.491L284.965 157.479L285.061 157.476H285.07H285.089L285.129 157.479H285.204L285.362 157.488C285.468 157.497 285.57 157.516 285.673 157.532C285.874 157.569 286.076 157.622 286.259 157.69C286.631 157.82 286.945 158.009 287.203 158.205C287.727 158.599 288.037 159.031 288.251 159.397C288.36 159.58 288.441 159.754 288.5 159.906C288.565 160.052 288.611 160.207 288.649 160.322C288.683 160.433 288.683 160.492 288.698 160.545C288.708 160.595 288.711 160.623 288.711 160.623C288.826 161.249 288.363 161.842 287.684 161.945C287.196 162.022 286.728 161.827 286.458 161.479Z" fill="#422B0D"/>
<path d="M298.715 161.479C298.715 161.479 298.699 161.457 298.665 161.417C298.634 161.377 298.591 161.321 298.535 161.249C298.488 161.2 298.432 161.141 298.367 161.073C298.302 160.998 298.221 160.921 298.141 160.84C298.057 160.762 297.97 160.682 297.88 160.616C297.793 160.545 297.697 160.492 297.619 160.449C297.539 160.399 297.464 160.387 297.418 160.371C297.393 160.362 297.371 160.362 297.352 160.359C297.343 160.362 297.334 160.356 297.325 160.359L297.312 160.362H297.306H297.303H297.3C297.337 160.362 297.216 160.365 297.384 160.359L297.213 160.365C297.169 160.365 297.197 160.368 297.2 160.368C297.21 160.368 297.216 160.368 297.222 160.365C297.247 160.356 297.222 160.365 297.216 160.365C297.207 160.365 297.194 160.368 297.182 160.374C297.132 160.39 297.058 160.402 296.98 160.452C296.902 160.495 296.806 160.548 296.719 160.619C296.632 160.688 296.542 160.765 296.459 160.843C296.297 161.001 296.155 161.159 296.055 161.274C295.953 161.392 295.897 161.461 295.897 161.461L295.826 161.544C295.4 162.041 294.618 162.125 294.081 161.734C293.715 161.467 293.557 161.051 293.625 160.654C293.625 160.654 293.647 160.526 293.709 160.306C293.774 160.086 293.883 159.772 294.097 159.403C294.311 159.037 294.621 158.605 295.146 158.211C295.404 158.019 295.717 157.826 296.089 157.696C296.179 157.662 296.276 157.631 296.375 157.606C296.477 157.581 296.558 157.553 296.698 157.535L296.89 157.507C296.949 157.501 297.036 157.491 297.048 157.491L297.219 157.479L297.315 157.476H297.325H297.343L297.384 157.479H297.458L297.616 157.488C297.722 157.497 297.824 157.516 297.927 157.532C298.128 157.569 298.33 157.622 298.513 157.69C298.886 157.82 299.199 158.009 299.457 158.205C299.981 158.599 300.291 159.031 300.506 159.397C300.614 159.58 300.695 159.754 300.754 159.906C300.819 160.052 300.866 160.207 300.903 160.322C300.937 160.433 300.937 160.492 300.952 160.545C300.962 160.595 300.965 160.623 300.965 160.623C301.08 161.249 300.617 161.842 299.938 161.945C299.45 162.022 298.982 161.827 298.715 161.479Z" fill="#422B0D"/>
<path d="M291.133 172.995C287.232 172.995 284.147 171.148 282.446 169.171C282.276 168.973 282.235 168.706 282.344 168.473C282.453 168.234 282.688 168.079 282.943 168.079C283.058 168.079 283.176 168.11 283.278 168.169C285.031 169.181 287.977 170.431 291.124 170.431H291.173C294.323 170.431 297.265 169.178 299.019 168.169C299.124 168.11 299.239 168.076 299.354 168.079C299.608 168.079 299.844 168.234 299.953 168.473C300.058 168.706 300.021 168.976 299.85 169.171C298.15 171.145 295.062 172.995 291.164 172.995" fill="#422B0D"/>
<path d="M269.627 207.247C271.515 207.247 272.875 206.271 273.595 204.671L272.347 203.919C271.931 205.071 271.003 205.855 269.627 205.855C267.803 205.855 266.699 204.495 266.699 202.319V200.623C266.699 198.447 267.803 197.087 269.627 197.087C270.971 197.087 271.835 197.807 272.251 198.911L273.531 198.175C272.811 196.575 271.515 195.695 269.627 195.695C266.779 195.695 265.035 197.743 265.035 201.471C265.035 205.199 266.779 207.247 269.627 207.247ZM278.026 207.247C280.282 207.247 281.802 205.551 281.802 202.911C281.802 200.271 280.282 198.575 278.026 198.575C275.77 198.575 274.25 200.271 274.25 202.911C274.25 205.551 275.77 207.247 278.026 207.247ZM278.026 205.967C276.73 205.967 275.834 205.151 275.834 203.535V202.287C275.834 200.671 276.73 199.855 278.026 199.855C279.322 199.855 280.218 200.671 280.218 202.287V203.535C280.218 205.151 279.322 205.967 278.026 205.967ZM284.674 207.055V201.375C284.674 200.367 285.618 199.871 286.594 199.871C287.762 199.871 288.338 200.591 288.338 201.983V207.055H289.826V201.759C289.826 199.743 288.786 198.575 287.09 198.575C285.842 198.575 285.138 199.215 284.754 200.127H284.674V198.767H283.186V207.055H284.674ZM295.318 207.055V205.791H293.67V200.031H295.446V198.767H293.67V196.479H292.326V197.999C292.326 198.559 292.15 198.767 291.59 198.767H290.854V200.031H292.182V205.487C292.182 206.447 292.726 207.055 293.75 207.055H295.318ZM299.903 207.247C301.455 207.247 302.655 206.527 303.231 205.455L302.271 204.639C301.823 205.487 301.071 205.983 300.031 205.983C298.543 205.983 297.695 204.991 297.695 203.615V203.279H303.535V202.655C303.535 200.335 302.223 198.575 299.903 198.575C297.599 198.575 296.143 200.287 296.143 202.911C296.143 205.535 297.599 207.247 299.903 207.247ZM299.903 199.775C301.151 199.775 301.951 200.703 301.951 202.079V202.239H297.695V202.127C297.695 200.767 298.607 199.775 299.903 199.775ZM306.411 207.055V201.375C306.411 200.367 307.355 199.871 308.331 199.871C309.499 199.871 310.075 200.591 310.075 201.983V207.055H311.563V201.759C311.563 199.743 310.523 198.575 308.827 198.575C307.579 198.575 306.875 199.215 306.491 200.127H306.411V198.767H304.923V207.055H306.411ZM317.055 207.055V205.791H315.407V200.031H317.183V198.767H315.407V196.479H314.063V197.999C314.063 198.559 313.887 198.767 313.327 198.767H312.591V200.031H313.919V205.487C313.919 206.447 314.463 207.055 315.487 207.055H317.055Z" fill="white"/>
<path d="M186.441 129.583C177.811 129.583 168.5 124.17 168.5 112.292C168.5 100.413 177.811 95 186.441 95C191.236 95 195.659 96.5776 198.938 99.4544C202.496 102.61 204.383 107.064 204.383 112.292C204.383 117.519 202.496 121.943 198.938 125.098C195.653 127.975 191.205 129.583 186.441 129.583Z" fill="url(#paint3_radial_309_231)"/>
<path d="M180.496 105.499C179.2 105.499 178.021 106.594 178.021 108.413C178.021 110.232 179.2 111.324 180.496 111.324C181.795 111.324 182.971 110.228 182.971 108.413C182.971 106.597 181.808 105.499 180.496 105.499Z" fill="#422B0D"/>
<path d="M180.388 106.714C179.949 106.504 179.42 106.69 179.207 107.129C179.043 107.472 179.117 107.884 179.392 108.15C179.831 108.36 180.36 108.175 180.574 107.735C180.738 107.392 180.664 106.981 180.388 106.714Z" fill="#896024"/>
<path d="M192.374 105.499C191.078 105.499 189.899 106.594 189.899 108.413C189.899 110.232 191.078 111.324 192.374 111.324C193.67 111.324 194.849 110.228 194.849 108.413C194.849 106.597 193.67 105.499 192.374 105.499Z" fill="#422B0D"/>
<path d="M192.251 106.714C191.811 106.504 191.282 106.69 191.069 107.129C190.905 107.472 190.979 107.884 191.254 108.15C191.694 108.36 192.223 108.175 192.436 107.735C192.6 107.392 192.526 106.981 192.251 106.714Z" fill="#896024"/>
<path d="M201.373 102.012C203.021 104.673 203.881 107.84 203.881 111.364C203.881 116.591 201.994 121.015 198.437 124.17C195.158 127.047 190.704 128.655 185.94 128.655C180.354 128.655 174.495 126.382 171.036 121.559C174.365 127.022 180.626 129.583 186.559 129.583C191.322 129.583 195.777 127.975 199.056 125.098C202.613 121.943 204.5 117.519 204.5 112.292C204.5 108.351 203.427 104.849 201.373 102.012Z" fill="#AC95CF"/>
<path d="M198.459 114.989C198.026 114.206 197.085 113.863 196.25 114.178C193.076 115.103 189.785 115.564 186.478 115.549C183.172 115.564 179.88 115.103 176.707 114.178C175.874 113.863 174.934 114.203 174.501 114.982C174.08 115.759 174.383 116.659 174.739 117.435C176.725 121.797 181.102 124.408 186.454 124.423H186.503C191.855 124.423 196.232 121.797 198.221 117.435C198.573 116.653 198.879 115.765 198.459 114.989Z" fill="#422B0D"/>
<path d="M191.431 123.193C191.316 123.087 191.199 122.992 191.081 122.883C189.819 121.773 188.186 121.176 186.503 121.21C184.771 121.182 183.085 121.757 181.733 122.84C181.616 122.936 181.492 123.029 181.378 123.149C181.263 123.27 181.201 123.357 181.127 123.459C182.828 124.124 184.641 124.464 186.469 124.455H186.519C188.27 124.455 190.005 124.142 191.644 123.527C191.583 123.409 191.511 123.298 191.431 123.193Z" fill="#ED7770"/>
<path d="M196.25 114.179C193.077 115.104 189.785 115.564 186.479 115.549C183.172 115.564 179.88 115.104 176.707 114.179C175.875 113.863 174.934 114.203 174.501 114.983C174.439 115.1 174.39 115.224 174.359 115.351C174.461 115.404 174.579 115.456 174.718 115.512C178.442 117.377 182.559 118.324 186.723 118.274C190.716 118.321 194.663 117.451 198.27 115.738C198.416 115.676 198.536 115.617 198.645 115.561C198.62 115.36 198.555 115.162 198.459 114.983C198.026 114.203 197.086 113.86 196.25 114.179Z" fill="white"/>
<path d="M198.471 114.992C198.032 114.209 197.088 113.863 196.247 114.178C193.073 115.103 189.782 115.564 186.478 115.549C183.172 115.564 179.88 115.103 176.707 114.178C175.874 113.863 174.934 114.203 174.501 114.982C174.08 115.759 174.383 116.659 174.739 117.435C174.897 117.785 175.073 118.128 175.268 118.459C175.268 118.459 174.619 116.053 175.181 115.354C175.373 115.057 175.695 114.871 176.048 114.853C176.193 114.853 176.335 114.877 176.475 114.921C179.704 115.87 183.054 116.35 186.423 116.344H186.531C189.9 116.35 193.25 115.87 196.479 114.921C196.618 114.877 196.761 114.853 196.906 114.853C197.259 114.871 197.583 115.057 197.775 115.354C198.347 116.053 197.689 118.469 197.689 118.469C197.88 118.138 198.072 117.797 198.233 117.445C198.586 116.668 198.892 115.771 198.471 114.992Z" fill="#AC95CF"/>
<path d="M172.781 155.941H174.333V144.773H172.781V149.605H167.405V144.773H165.853V155.941H167.405V150.981H172.781V155.941ZM183.324 155.941V154.677H182.396V150.309C182.396 148.517 181.212 147.461 179.148 147.461C177.612 147.461 176.636 148.181 176.14 149.077L177.036 149.893C177.468 149.189 178.092 148.709 179.068 148.709C180.316 148.709 180.908 149.333 180.908 150.437V151.189H179.34C176.972 151.189 175.804 152.053 175.804 153.653C175.804 155.173 176.812 156.133 178.54 156.133C179.724 156.133 180.604 155.589 180.94 154.565H181.02C181.132 155.365 181.564 155.941 182.476 155.941H183.324ZM178.876 154.933C177.948 154.933 177.356 154.501 177.356 153.733V153.413C177.356 152.645 177.964 152.229 179.324 152.229H180.908V153.509C180.908 154.341 180.044 154.933 178.876 154.933ZM184.46 159.141H185.948V154.581H186.012C186.396 155.605 187.26 156.133 188.396 156.133C190.476 156.133 191.724 154.485 191.724 151.797C191.724 149.109 190.476 147.461 188.396 147.461C187.26 147.461 186.396 147.989 186.012 149.013H185.948V147.653H184.46V159.141ZM187.964 154.837C186.844 154.837 185.948 154.197 185.948 153.317V150.277C185.948 149.397 186.844 148.757 187.964 148.757C189.292 148.757 190.14 149.701 190.14 151.093V152.501C190.14 153.893 189.292 154.837 187.964 154.837ZM193.18 159.141H194.668V154.581H194.732C195.116 155.605 195.98 156.133 197.116 156.133C199.196 156.133 200.444 154.485 200.444 151.797C200.444 149.109 199.196 147.461 197.116 147.461C195.98 147.461 195.116 147.989 194.732 149.013H194.668V147.653H193.18V159.141ZM196.684 154.837C195.564 154.837 194.668 154.197 194.668 153.317V150.277C194.668 149.397 195.564 148.757 196.684 148.757C198.012 148.757 198.86 149.701 198.86 151.093V152.501C198.86 153.893 198.012 154.837 196.684 154.837ZM205.053 152.949L204.573 154.501H204.493L204.061 152.949L202.221 147.653H200.733L203.805 156.277L203.245 157.877H201.885V159.141H202.701C203.965 159.141 204.365 158.789 204.749 157.749L208.349 147.653H206.909L205.053 152.949Z" fill="white"/>
<path d="M296.998 297.693C288.34 297.693 279 292.262 279 280.346C279 268.43 288.34 263 296.998 263C301.808 263 306.245 264.583 309.534 267.468C313.103 270.634 314.996 275.102 314.996 280.346C314.996 285.591 313.103 290.028 309.534 293.193C306.245 296.079 301.777 297.693 296.998 297.693Z" fill="url(#paint4_radial_309_231)"/>
<path d="M311.863 270.036C313.517 272.704 314.379 275.882 314.379 279.416C314.379 284.66 312.486 289.098 308.918 292.263C305.629 295.149 301.16 296.763 296.381 296.763C290.777 296.763 284.9 294.482 281.431 289.644C284.77 295.124 291.05 297.693 297.002 297.693C301.781 297.693 306.249 296.08 309.539 293.194C313.107 290.029 315 285.591 315 280.347C315 276.394 313.923 272.881 311.863 270.036Z" fill="#AC95CF"/>
<path d="M292.466 278.482L292.419 278.42L292.286 278.249L292.121 278.072C292.053 277.995 291.972 277.92 291.895 277.839C291.817 277.759 291.721 277.681 291.634 277.616C291.553 277.554 291.466 277.495 291.373 277.448C291.311 277.414 291.243 277.386 291.172 277.371C291.15 277.368 291.128 277.368 291.107 277.371C291.107 277.371 291.088 277.371 291.079 277.371H291.054H291.138H290.967C290.92 277.371 290.951 277.371 290.967 277.371H290.992H290.958C290.886 277.386 290.818 277.411 290.753 277.448C290.663 277.498 290.573 277.554 290.492 277.616C290.402 277.684 290.315 277.759 290.235 277.839C290.07 277.998 289.924 278.15 289.831 278.271L289.67 278.457L289.598 278.541C289.152 279.04 288.398 279.121 287.854 278.73C287.507 278.488 287.33 278.069 287.398 277.65C287.398 277.65 287.42 277.526 287.479 277.306C287.572 276.992 287.702 276.688 287.867 276.403C288.131 275.937 288.488 275.531 288.916 275.208C289.198 274.991 289.512 274.817 289.847 274.696C289.94 274.659 290.036 274.631 290.132 274.606C290.235 274.575 290.337 274.553 290.442 274.535L290.632 274.507L290.79 274.488H290.961H291.206H291.364C291.47 274.488 291.572 274.516 291.674 274.532C291.873 274.566 292.072 274.618 292.261 274.69C292.596 274.811 292.909 274.985 293.192 275.202C293.62 275.525 293.977 275.931 294.241 276.397C294.337 276.558 294.421 276.729 294.489 276.902C294.548 277.042 294.597 277.182 294.638 277.327C294.66 277.402 294.678 277.476 294.687 277.551V277.628C294.781 278.261 294.34 278.851 293.707 278.944C293.691 278.947 293.676 278.947 293.66 278.95C293.207 279.016 292.754 278.836 292.466 278.482Z" fill="#422B0D"/>
<path d="M304.71 278.482L304.66 278.42L304.527 278.249L304.362 278.072C304.294 277.995 304.213 277.92 304.136 277.839C304.058 277.759 303.962 277.681 303.875 277.616C303.794 277.554 303.708 277.495 303.614 277.448C303.552 277.414 303.484 277.386 303.413 277.371C303.391 277.368 303.369 277.368 303.348 277.371C303.348 277.371 303.329 277.371 303.32 277.371H303.295H303.379H303.208C303.161 277.371 303.192 277.371 303.208 277.371H303.233H303.199C303.127 277.386 303.059 277.411 302.994 277.448C302.904 277.495 302.817 277.554 302.736 277.616C302.643 277.684 302.556 277.759 302.476 277.839C302.311 277.998 302.165 278.15 302.072 278.271L301.911 278.457L301.843 278.541C301.393 279.04 300.642 279.121 300.095 278.73C299.748 278.488 299.571 278.069 299.639 277.65C299.639 277.65 299.661 277.526 299.723 277.306C299.816 276.989 299.943 276.685 300.111 276.403C300.375 275.937 300.729 275.531 301.157 275.208C301.439 274.991 301.753 274.817 302.088 274.696C302.181 274.659 302.277 274.631 302.373 274.606C302.476 274.575 302.578 274.553 302.683 274.535L302.876 274.507L303.031 274.488H303.202H303.447H303.605C303.711 274.488 303.813 274.516 303.915 274.532C304.117 274.566 304.313 274.618 304.502 274.69C304.837 274.811 305.15 274.985 305.433 275.202C305.861 275.525 306.218 275.931 306.482 276.397C306.578 276.558 306.662 276.729 306.73 276.902C306.789 277.039 306.839 277.178 306.879 277.321C306.901 277.396 306.919 277.47 306.929 277.545V277.622C307.028 278.255 306.593 278.848 305.96 278.947C305.951 278.947 305.942 278.95 305.932 278.95C305.47 279.028 305.001 278.848 304.71 278.482Z" fill="#422B0D"/>
<path d="M308.935 283.052C308.501 282.267 307.557 281.922 306.719 282.239C303.536 283.167 300.234 283.629 296.917 283.613C293.599 283.629 290.298 283.167 287.114 282.239C286.279 281.922 285.336 282.264 284.901 283.046C284.479 283.824 284.784 284.727 285.14 285.506C287.133 289.882 291.523 292.501 296.892 292.516H296.941C302.31 292.516 306.701 289.882 308.696 285.506C309.05 284.721 309.357 283.831 308.935 283.052Z" fill="#422B0D"/>
<path d="M301.884 291.282C301.769 291.177 301.651 291.08 301.533 290.972C300.267 289.858 298.629 289.259 296.941 289.293C295.203 289.265 293.512 289.842 292.156 290.928C292.038 291.024 291.914 291.118 291.799 291.239C291.684 291.36 291.622 291.446 291.547 291.549C293.254 292.216 295.073 292.557 296.907 292.548H296.956C298.713 292.548 300.453 292.235 302.098 291.617C302.036 291.499 301.965 291.388 301.884 291.282Z" fill="#ED7770"/>
<path d="M306.722 282.238C303.538 283.166 300.237 283.629 296.92 283.613C293.602 283.629 290.301 283.166 287.117 282.238C286.282 281.922 285.339 282.263 284.904 283.045C284.842 283.163 284.793 283.287 284.762 283.415C284.864 283.467 284.982 283.52 285.122 283.576C288.858 285.447 292.988 286.397 297.165 286.347C301.171 286.394 305.13 285.522 308.749 283.802C308.894 283.74 309.015 283.681 309.124 283.626C309.099 283.424 309.034 283.225 308.938 283.045C308.503 282.263 307.56 281.919 306.722 282.238Z" fill="white"/>
<path d="M308.949 283.053C308.508 282.268 307.562 281.921 306.718 282.237C303.534 283.165 300.233 283.627 296.918 283.612C293.601 283.627 290.3 283.165 287.116 282.237C286.281 281.921 285.338 282.262 284.903 283.044C284.481 283.823 284.785 284.726 285.142 285.505C285.3 285.855 285.477 286.2 285.673 286.532C285.673 286.532 285.021 284.118 285.586 283.416C285.778 283.118 286.101 282.932 286.455 282.914C286.601 282.914 286.743 282.938 286.883 282.982C290.123 283.935 293.483 284.416 296.863 284.409H296.971C300.35 284.416 303.711 283.935 306.951 282.982C307.09 282.938 307.233 282.914 307.379 282.914C307.733 282.932 308.059 283.118 308.251 283.416C308.825 284.118 308.164 286.541 308.164 286.541C308.356 286.209 308.549 285.868 308.71 285.514C309.064 284.735 309.371 283.835 308.949 283.053Z" fill="#AC95CF"/>
<path d="M258.843 324.051H260.347V315.027H260.427L261.339 316.867L263.899 321.555L266.459 316.867L267.371 315.027H267.451V324.051H268.955V312.883H267.067L263.963 318.755H263.899L260.795 312.883H258.843V324.051ZM271.812 314.035C272.436 314.035 272.708 313.699 272.708 313.219V312.995C272.708 312.515 272.436 312.179 271.812 312.179C271.188 312.179 270.916 312.515 270.916 312.995V313.219C270.916 313.699 271.188 314.035 271.812 314.035ZM271.06 324.051H272.548V315.763H271.06V324.051ZM276.017 324.051V318.371C276.017 317.363 276.961 316.867 277.937 316.867C279.105 316.867 279.681 317.587 279.681 318.979V324.051H281.169V318.755C281.169 316.739 280.129 315.571 278.433 315.571C277.185 315.571 276.481 316.211 276.097 317.123H276.017V315.763H274.529V324.051H276.017ZM288.309 324.051H289.797V312.211H288.309V317.123H288.245C287.861 316.099 286.997 315.571 285.861 315.571C283.781 315.571 282.533 317.219 282.533 319.907C282.533 322.595 283.781 324.243 285.861 324.243C286.997 324.243 287.861 323.715 288.245 322.691H288.309V324.051ZM286.293 322.947C284.965 322.947 284.117 322.003 284.117 320.611V319.203C284.117 317.811 284.965 316.867 286.293 316.867C287.413 316.867 288.309 317.507 288.309 318.387V321.427C288.309 322.307 287.413 322.947 286.293 322.947ZM295.05 324.051H300.282C301.93 324.051 303.178 322.659 303.178 320.835C303.178 318.963 301.754 318.275 300.906 318.227V318.131C301.722 318.035 302.794 317.427 302.794 315.763C302.794 314.019 301.642 312.883 299.802 312.883H295.05V324.051ZM296.602 318.979H299.818C300.874 318.979 301.514 319.523 301.514 320.563V321.123C301.514 322.163 300.874 322.707 299.818 322.707H296.602V318.979ZM296.602 314.227H299.562C300.538 314.227 301.13 314.755 301.13 315.683V316.211C301.13 317.139 300.538 317.667 299.562 317.667H296.602V314.227ZM307.469 324.051V322.787H306.285V312.211H304.797V322.531C304.797 323.443 305.325 324.051 306.349 324.051H307.469ZM311.794 324.243C314.05 324.243 315.57 322.547 315.57 319.907C315.57 317.267 314.05 315.571 311.794 315.571C309.538 315.571 308.018 317.267 308.018 319.907C308.018 322.547 309.538 324.243 311.794 324.243ZM311.794 322.963C310.498 322.963 309.602 322.147 309.602 320.531V319.283C309.602 317.667 310.498 316.851 311.794 316.851C313.09 316.851 313.986 317.667 313.986 319.283V320.531C313.986 322.147 313.09 322.963 311.794 322.963ZM318.237 324.051H319.965L321.085 320.163L321.773 317.731H321.805L322.509 320.163L323.629 324.051H325.389L327.597 315.763H326.205L325.325 319.299L324.541 322.707H324.493L323.533 319.299L322.477 315.763H321.149L320.125 319.299L319.181 322.707H319.149L318.317 319.299L317.453 315.763H316.013L318.237 324.051ZM330.225 324.051V318.371C330.225 317.363 331.169 316.867 332.145 316.867C333.313 316.867 333.889 317.587 333.889 318.979V324.051H335.377V318.755C335.377 316.739 334.337 315.571 332.641 315.571C331.393 315.571 330.689 316.211 330.305 317.123H330.225V315.763H328.737V324.051H330.225Z" fill="white"/>
<path d="M81 180.696C72.3414 180.696 63 175.265 63 163.348C63 151.431 72.3414 146 81 146C85.8103 146 90.2482 147.583 93.5379 150.469C97.1068 153.634 98.9999 158.103 98.9999 163.348C98.9999 168.593 97.1068 173.031 93.5379 176.197C90.2482 179.083 85.7793 180.696 81 180.696Z" fill="url(#paint5_radial_309_231)"/>
<path d="M95.8624 153.037C97.5165 155.706 98.3793 158.884 98.3793 162.418C98.3793 167.663 96.4862 172.101 92.9172 175.267C89.6276 178.153 85.1586 179.767 80.3793 179.767C74.7745 179.767 68.8842 177.486 65.4269 172.647C68.7662 178.128 75.0445 180.698 81 180.698C85.7793 180.698 90.2483 179.084 93.5379 176.198C97.1069 173.032 99 168.594 99 163.349C99 159.396 97.9231 155.883 95.8624 153.037Z" fill="#AC95CF"/>
<path opacity="0.8" d="M69.719 171.549C72.7185 171.549 75.15 169.118 75.15 166.118C75.15 163.119 72.7185 160.687 69.719 160.687C66.7195 160.687 64.288 163.119 64.288 166.118C64.288 169.118 66.7195 171.549 69.719 171.549Z" fill="url(#paint6_radial_309_231)"/>
<path opacity="0.8" d="M92.5287 171.549C95.5282 171.549 97.9598 169.118 97.9598 166.118C97.9598 163.119 95.5282 160.687 92.5287 160.687C89.5293 160.687 87.0977 163.119 87.0977 166.118C87.0977 169.118 89.5293 171.549 92.5287 171.549Z" fill="url(#paint7_radial_309_231)"/>
<path d="M76.4577 161.479C76.4577 161.479 76.4422 161.457 76.408 161.417C76.377 161.377 76.3336 161.321 76.2777 161.249C76.2311 161.2 76.1753 161.141 76.1101 161.073C76.0449 160.998 75.9642 160.921 75.8836 160.84C75.7998 160.762 75.7129 160.682 75.6229 160.616C75.536 160.545 75.4398 160.492 75.3622 160.449C75.2815 160.399 75.207 160.387 75.1605 160.371C75.1356 160.362 75.1139 160.362 75.0953 160.359C75.086 160.362 75.0767 160.356 75.0673 160.359L75.0549 160.362H75.0487H75.0456C75.0829 160.362 74.9618 160.365 75.1294 160.359L74.9587 160.365C74.9153 160.365 74.9432 160.368 74.9463 160.368C74.9556 160.368 74.9618 160.368 74.968 160.365C74.9929 160.356 74.968 160.365 74.9618 160.365C74.9525 160.365 74.9401 160.368 74.9277 160.374C74.878 160.39 74.8036 160.402 74.726 160.452C74.6484 160.495 74.5522 160.548 74.4653 160.619C74.3784 160.688 74.2884 160.765 74.2046 160.843C74.0432 161.001 73.9005 161.159 73.8011 161.274C73.6987 161.392 73.6429 161.461 73.6429 161.461L73.5715 161.544C73.1463 162.041 72.3643 162.125 71.8274 161.734C71.4611 161.467 71.3029 161.051 71.3711 160.654C71.3711 160.654 71.3929 160.526 71.4549 160.306C71.5201 160.086 71.6287 159.772 71.8429 159.403C72.057 159.037 72.3674 158.605 72.8918 158.211C73.1494 158.019 73.4629 157.826 73.8353 157.696C73.9253 157.662 74.0215 157.631 74.1208 157.606C74.2232 157.581 74.3039 157.553 74.4436 157.535L74.636 157.507C74.6949 157.501 74.7818 157.491 74.7942 157.491L74.9649 157.479L75.0611 157.476H75.0705H75.0891L75.1294 157.479H75.2039L75.3622 157.488C75.4677 157.497 75.5701 157.516 75.6725 157.532C75.8742 157.569 76.076 157.622 76.2591 157.69C76.6315 157.82 76.9449 158.009 77.2025 158.205C77.727 158.599 78.0373 159.031 78.2515 159.397C78.3601 159.58 78.4408 159.754 78.4998 159.906C78.5649 160.052 78.6115 160.207 78.6487 160.322C78.6829 160.433 78.6829 160.492 78.6984 160.545C78.7077 160.595 78.7108 160.623 78.7108 160.623C78.8256 161.249 78.3632 161.842 77.6836 161.945C77.1963 162.022 76.7277 161.827 76.4577 161.479Z" fill="#422B0D"/>
<path d="M88.7149 161.479C88.7149 161.479 88.6994 161.457 88.6652 161.417C88.6342 161.377 88.5907 161.321 88.5349 161.249C88.4883 161.2 88.4325 161.141 88.3673 161.073C88.3021 160.998 88.2214 160.921 88.1407 160.84C88.057 160.762 87.9701 160.682 87.8801 160.616C87.7932 160.545 87.697 160.492 87.6194 160.449C87.5387 160.399 87.4642 160.387 87.4176 160.371C87.3928 160.362 87.3711 160.362 87.3525 160.359C87.3432 160.362 87.3339 160.356 87.3245 160.359L87.3121 160.362H87.3059H87.3028H87.2997C87.337 160.362 87.2159 160.365 87.3835 160.359L87.2128 160.365C87.1694 160.365 87.1973 160.368 87.2004 160.368C87.2097 160.368 87.2159 160.368 87.2221 160.365C87.247 160.356 87.2221 160.365 87.2159 160.365C87.2066 160.365 87.1942 160.368 87.1818 160.374C87.1321 160.39 87.0576 160.402 86.9801 160.452C86.9025 160.495 86.8063 160.548 86.7194 160.619C86.6325 160.688 86.5425 160.765 86.4587 160.843C86.2973 161.001 86.1545 161.159 86.0552 161.274C85.9528 161.392 85.897 161.461 85.897 161.461L85.8256 161.544C85.4004 162.041 84.6183 162.125 84.0814 161.734C83.7152 161.467 83.557 161.051 83.6252 160.654C83.6252 160.654 83.647 160.526 83.709 160.306C83.7742 160.086 83.8828 159.772 84.097 159.403C84.3111 159.037 84.6214 158.605 85.1459 158.211C85.4035 158.019 85.717 157.826 86.0894 157.696C86.1794 157.662 86.2756 157.631 86.3749 157.606C86.4773 157.581 86.558 157.553 86.6976 157.535L86.8901 157.507C86.949 157.501 87.0359 157.491 87.0483 157.491L87.219 157.479L87.3152 157.476H87.3245H87.3432L87.3835 157.479H87.458L87.6163 157.488C87.7218 157.497 87.8242 157.516 87.9266 157.532C88.1283 157.569 88.3301 157.622 88.5132 157.69C88.8856 157.82 89.199 158.009 89.4566 158.205C89.9811 158.599 90.2914 159.031 90.5056 159.397C90.6142 159.58 90.6949 159.754 90.7538 159.906C90.819 160.052 90.8656 160.207 90.9028 160.322C90.937 160.433 90.9369 160.492 90.9525 160.545C90.9618 160.595 90.9649 160.623 90.9649 160.623C91.0797 161.249 90.6173 161.842 89.9376 161.945C89.4504 162.022 88.9818 161.827 88.7149 161.479Z" fill="#422B0D"/>
<path d="M81.1329 172.995C77.2318 172.995 74.147 171.148 72.4463 169.171C72.2756 168.973 72.2353 168.706 72.3439 168.473C72.4525 168.234 72.6884 168.079 72.9429 168.079C73.0577 168.079 73.1756 168.11 73.278 168.169C75.0315 169.181 77.9767 170.431 81.1235 170.431H81.1732C84.3232 170.431 87.2653 169.178 89.0187 168.169C89.1242 168.11 89.2391 168.076 89.3539 168.079C89.6084 168.079 89.8442 168.234 89.9528 168.473C90.0584 168.706 90.0211 168.976 89.8504 169.171C88.1497 171.145 85.0618 172.995 81.1639 172.995" fill="#422B0D"/>
<path d="M59.6268 207.247C61.5148 207.247 62.8748 206.271 63.5948 204.671L62.3468 203.919C61.9308 205.071 61.0028 205.855 59.6268 205.855C57.8028 205.855 56.6988 204.495 56.6988 202.319V200.623C56.6988 198.447 57.8028 197.087 59.6268 197.087C60.9708 197.087 61.8348 197.807 62.2508 198.911L63.5308 198.175C62.8108 196.575 61.5148 195.695 59.6268 195.695C56.7788 195.695 55.0348 197.743 55.0348 201.471C55.0348 205.199 56.7788 207.247 59.6268 207.247ZM68.026 207.247C70.282 207.247 71.802 205.551 71.802 202.911C71.802 200.271 70.282 198.575 68.026 198.575C65.77 198.575 64.25 200.271 64.25 202.911C64.25 205.551 65.77 207.247 68.026 207.247ZM68.026 205.967C66.73 205.967 65.834 205.151 65.834 203.535V202.287C65.834 200.671 66.73 199.855 68.026 199.855C69.322 199.855 70.218 200.671 70.218 202.287V203.535C70.218 205.151 69.322 205.967 68.026 205.967ZM74.6744 207.055V201.375C74.6744 200.367 75.6184 199.871 76.5944 199.871C77.7624 199.871 78.3384 200.591 78.3384 201.983V207.055H79.8264V201.759C79.8264 199.743 78.7864 198.575 77.0904 198.575C75.8424 198.575 75.1384 199.215 74.7544 200.127H74.6744V198.767H73.1864V207.055H74.6744ZM85.3183 207.055V205.791H83.6703V200.031H85.4463V198.767H83.6703V196.479H82.3263V197.999C82.3263 198.559 82.1503 198.767 81.5903 198.767H80.8543V200.031H82.1823V205.487C82.1823 206.447 82.7263 207.055 83.7503 207.055H85.3183ZM89.9025 207.247C91.4545 207.247 92.6545 206.527 93.2305 205.455L92.2705 204.639C91.8225 205.487 91.0705 205.983 90.0305 205.983C88.5425 205.983 87.6945 204.991 87.6945 203.615V203.279H93.5345V202.655C93.5345 200.335 92.2225 198.575 89.9025 198.575C87.5985 198.575 86.1425 200.287 86.1425 202.911C86.1425 205.535 87.5985 207.247 89.9025 207.247ZM89.9025 199.775C91.1505 199.775 91.9505 200.703 91.9505 202.079V202.239H87.6945V202.127C87.6945 200.767 88.6065 199.775 89.9025 199.775ZM96.4106 207.055V201.375C96.4106 200.367 97.3546 199.871 98.3306 199.871C99.4986 199.871 100.075 200.591 100.075 201.983V207.055H101.563V201.759C101.563 199.743 100.523 198.575 98.8266 198.575C97.5786 198.575 96.8746 199.215 96.4906 200.127H96.4106V198.767H94.9226V207.055H96.4106ZM107.055 207.055V205.791H105.407V200.031H107.183V198.767H105.407V196.479H104.063V197.999C104.063 198.559 103.887 198.767 103.327 198.767H102.591V200.031H103.919V205.487C103.919 206.447 104.463 207.055 105.487 207.055H107.055Z" fill="white"/>
<path d="M80.998 297.693C72.3403 297.693 63 292.262 63 280.346C63 268.43 72.3403 263 80.998 263C85.8078 263 90.2452 264.583 93.5345 267.468C97.103 270.634 98.9959 275.102 98.9959 280.346C98.9959 285.591 97.103 290.028 93.5345 293.193C90.2452 296.079 85.7767 297.693 80.998 297.693Z" fill="url(#paint8_radial_309_231)"/>
<path d="M95.8627 270.036C97.5167 272.704 98.3793 275.882 98.3793 279.416C98.3793 284.66 96.4864 289.098 92.9179 292.263C89.6286 295.149 85.1601 296.763 80.3814 296.763C74.7772 296.763 68.8999 294.482 65.4307 289.644C68.7696 295.124 75.0503 297.693 81.002 297.693C85.7808 297.693 90.2492 296.08 93.5385 293.194C97.1071 290.029 99 285.591 99 280.347C99 276.394 97.9232 272.881 95.8627 270.036Z" fill="#AC95CF"/>
<path d="M76.4657 278.482L76.4191 278.42L76.2857 278.249L76.1212 278.072C76.053 277.995 75.9723 277.92 75.8947 277.839C75.8171 277.759 75.7209 277.681 75.634 277.616C75.5534 277.554 75.4665 277.495 75.3734 277.448C75.3113 277.414 75.2431 277.386 75.1717 277.371C75.15 277.368 75.1282 277.368 75.1065 277.371C75.1065 277.371 75.0879 277.371 75.0786 277.371H75.0538H75.1375H74.9669C74.9514 277.371 74.9203 277.371 74.9669 277.371H74.9917H74.9576C74.8862 277.386 74.8179 277.411 74.7528 277.448C74.6628 277.498 74.5728 277.554 74.4921 277.616C74.4021 277.684 74.3152 277.759 74.2345 277.839C74.0701 277.998 73.9242 278.15 73.8311 278.271L73.6698 278.457L73.5984 278.541C73.1516 279.04 72.3975 279.121 71.8545 278.73C71.5069 278.488 71.33 278.069 71.3983 277.65C71.3983 277.65 71.42 277.526 71.479 277.306C71.5721 276.992 71.7024 276.688 71.8669 276.403C72.1306 275.937 72.4875 275.531 72.9157 275.208C73.1981 274.991 73.5115 274.817 73.8467 274.696C73.9398 274.659 74.0359 274.631 74.1321 274.606C74.2345 274.575 74.3369 274.553 74.4425 274.535L74.6317 274.507L74.79 274.488H74.9607H75.2058H75.3641C75.4696 274.488 75.572 274.516 75.6744 274.532C75.873 274.566 76.0716 274.618 76.2609 274.69C76.596 274.811 76.9094 274.985 77.1918 275.202C77.62 275.525 77.9769 275.931 78.2406 276.397C78.3368 276.558 78.4206 276.729 78.4889 276.902C78.5479 277.042 78.5975 277.182 78.6378 277.327C78.6596 277.402 78.6782 277.476 78.6875 277.551V277.628C78.7806 278.261 78.3399 278.851 77.7069 278.944C77.6914 278.947 77.6759 278.947 77.6604 278.95C77.2073 279.016 76.7543 278.836 76.4657 278.482Z" fill="#422B0D"/>
<path d="M88.7098 278.482L88.6602 278.42L88.5267 278.249L88.3623 278.072C88.294 277.995 88.2133 277.92 88.1357 277.839C88.0582 277.759 87.962 277.681 87.8751 277.616C87.7944 277.554 87.7075 277.495 87.6144 277.448C87.5523 277.414 87.4841 277.386 87.4127 277.371C87.391 277.368 87.3693 277.368 87.3475 277.371C87.3475 277.371 87.3289 277.371 87.3196 277.371H87.2948H87.3786H87.2079C87.1924 277.371 87.1614 277.371 87.2079 277.371H87.2327H87.1986C87.1272 277.386 87.059 277.411 86.9938 277.448C86.9038 277.495 86.8169 277.554 86.7362 277.616C86.6431 277.684 86.5563 277.759 86.4756 277.839C86.3111 277.998 86.1653 278.15 86.0722 278.271L85.9108 278.457L85.8425 278.541C85.3926 279.04 84.6416 279.121 84.0955 278.73C83.748 278.488 83.5711 278.069 83.6393 277.65C83.6393 277.65 83.6611 277.526 83.7231 277.306C83.8162 276.989 83.9434 276.685 84.111 276.403C84.3748 275.937 84.7285 275.531 85.1568 275.208C85.4391 274.991 85.7526 274.817 86.0877 274.696C86.1808 274.659 86.277 274.631 86.3732 274.606C86.4756 274.575 86.578 274.553 86.6835 274.535L86.8759 274.507L87.031 274.488H87.2017H87.4468H87.6051C87.7106 274.488 87.813 274.516 87.9154 274.532C88.1171 274.566 88.3126 274.618 88.5019 274.69C88.837 274.811 89.1504 274.985 89.4328 275.202C89.8611 275.525 90.2179 275.931 90.4817 276.397C90.5779 276.558 90.6616 276.729 90.7299 276.902C90.7889 277.039 90.8385 277.178 90.8789 277.321C90.9006 277.396 90.9192 277.47 90.9285 277.545V277.622C91.0278 278.255 90.5934 278.848 89.9603 278.947C89.951 278.947 89.9417 278.95 89.9324 278.95C89.4701 279.028 89.0015 278.848 88.7098 278.482Z" fill="#422B0D"/>
<path d="M92.9349 283.052C92.5005 282.267 91.5572 281.922 90.7193 282.239C87.5355 283.167 84.2339 283.629 80.9166 283.613C77.5994 283.629 74.2977 283.167 71.114 282.239C70.2792 281.922 69.3359 282.264 68.9015 283.046C68.4794 283.824 68.7835 284.727 69.1404 285.506C71.1326 289.882 75.5235 292.501 80.8918 292.516H80.9415C86.3098 292.516 90.7007 289.882 92.696 285.506C93.0498 284.721 93.357 283.831 92.9349 283.052Z" fill="#422B0D"/>
<path d="M85.8839 291.282C85.7691 291.177 85.6512 291.08 85.5332 290.972C84.2672 289.858 82.6287 289.259 80.9407 289.293C79.2029 289.265 77.5117 289.842 76.1557 290.928C76.0378 291.024 75.9136 291.118 75.7988 291.239C75.684 291.36 75.622 291.446 75.5475 291.549C77.2542 292.216 79.0726 292.557 80.9065 292.548H80.9562C82.7125 292.548 84.4534 292.235 86.098 291.617C86.0359 291.499 85.9646 291.388 85.8839 291.282Z" fill="#ED7770"/>
<path d="M90.7223 282.238C87.5385 283.166 84.2368 283.629 80.9196 283.613C77.6024 283.629 74.3007 283.166 71.1169 282.238C70.2822 281.922 69.3388 282.263 68.9044 283.045C68.8423 283.163 68.7927 283.287 68.7617 283.415C68.8641 283.467 68.982 283.52 69.1216 283.576C72.8577 285.447 76.988 286.397 81.1647 286.347C85.1708 286.394 89.1304 285.522 92.7486 283.802C92.8944 283.74 93.0154 283.681 93.1241 283.626C93.0992 283.424 93.0341 283.225 92.9379 283.045C92.5034 282.263 91.5601 281.919 90.7223 282.238Z" fill="white"/>
<path d="M92.9491 283.053C92.5085 282.268 91.562 281.921 90.718 282.237C87.5342 283.165 84.2325 283.627 80.9184 283.612C77.6012 283.627 74.2995 283.165 71.1157 282.237C70.281 281.921 69.3377 282.262 68.9032 283.044C68.4812 283.823 68.7853 284.726 69.1422 285.505C69.3004 285.855 69.4773 286.2 69.6728 286.532C69.6728 286.532 69.0211 284.118 69.5859 283.416C69.7783 283.118 70.101 282.932 70.4548 282.914C70.6006 282.914 70.7434 282.938 70.883 282.982C74.1226 283.935 77.4833 284.416 80.8626 284.409H80.9712C84.3504 284.416 87.7111 283.935 90.9507 282.982C91.0904 282.938 91.2331 282.914 91.379 282.914C91.7327 282.932 92.0585 283.118 92.2509 283.416C92.825 284.118 92.164 286.541 92.164 286.541C92.3564 286.209 92.5488 285.868 92.7102 285.514C93.0639 284.735 93.3711 283.835 92.9491 283.053Z" fill="#AC95CF"/>
<path d="M42.8434 324.051H44.3474V315.027H44.4274L45.3394 316.867L47.8994 321.555L50.4594 316.867L51.3714 315.027H51.4514V324.051H52.9554V312.883H51.0674L47.9634 318.755H47.8994L44.7954 312.883H42.8434V324.051ZM55.8118 314.035C56.4358 314.035 56.7078 313.699 56.7078 313.219V312.995C56.7078 312.515 56.4358 312.179 55.8118 312.179C55.1878 312.179 54.9158 312.515 54.9158 312.995V313.219C54.9158 313.699 55.1878 314.035 55.8118 314.035ZM55.0598 324.051H56.5478V315.763H55.0598V324.051ZM60.0172 324.051V318.371C60.0172 317.363 60.9612 316.867 61.9372 316.867C63.1052 316.867 63.6812 317.587 63.6812 318.979V324.051H65.1692V318.755C65.1692 316.739 64.1292 315.571 62.4332 315.571C61.1852 315.571 60.4812 316.211 60.0972 317.123H60.0172V315.763H58.5292V324.051H60.0172ZM72.3091 324.051H73.7971V312.211H72.3091V317.123H72.2451C71.8611 316.099 70.9971 315.571 69.8611 315.571C67.7811 315.571 66.5331 317.219 66.5331 319.907C66.5331 322.595 67.7811 324.243 69.8611 324.243C70.9971 324.243 71.8611 323.715 72.2451 322.691H72.3091V324.051ZM70.2931 322.947C68.9651 322.947 68.1171 322.003 68.1171 320.611V319.203C68.1171 317.811 68.9651 316.867 70.2931 316.867C71.4131 316.867 72.3091 317.507 72.3091 318.387V321.427C72.3091 322.307 71.4131 322.947 70.2931 322.947ZM79.0497 324.051H84.2817C85.9297 324.051 87.1777 322.659 87.1777 320.835C87.1777 318.963 85.7537 318.275 84.9057 318.227V318.131C85.7217 318.035 86.7937 317.427 86.7937 315.763C86.7937 314.019 85.6417 312.883 83.8017 312.883H79.0497V324.051ZM80.6017 318.979H83.8177C84.8737 318.979 85.5137 319.523 85.5137 320.563V321.123C85.5137 322.163 84.8737 322.707 83.8177 322.707H80.6017V318.979ZM80.6017 314.227H83.5617C84.5377 314.227 85.1297 314.755 85.1297 315.683V316.211C85.1297 317.139 84.5377 317.667 83.5617 317.667H80.6017V314.227ZM91.4693 324.051V322.787H90.2853V312.211H88.7973V322.531C88.7973 323.443 89.3253 324.051 90.3493 324.051H91.4693ZM95.7944 324.243C98.0504 324.243 99.5704 322.547 99.5704 319.907C99.5704 317.267 98.0504 315.571 95.7944 315.571C93.5384 315.571 92.0184 317.267 92.0184 319.907C92.0184 322.547 93.5384 324.243 95.7944 324.243ZM95.7944 322.963C94.4984 322.963 93.6024 322.147 93.6024 320.531V319.283C93.6024 317.667 94.4984 316.851 95.7944 316.851C97.0904 316.851 97.9864 317.667 97.9864 319.283V320.531C97.9864 322.147 97.0904 322.963 95.7944 322.963ZM102.237 324.051H103.965L105.085 320.163L105.773 317.731H105.805L106.509 320.163L107.629 324.051H109.389L111.597 315.763H110.205L109.325 319.299L108.541 322.707H108.493L107.533 319.299L106.477 315.763H105.149L104.125 319.299L103.181 322.707H103.149L102.317 319.299L101.453 315.763H100.013L102.237 324.051ZM114.225 324.051V318.371C114.225 317.363 115.169 316.867 116.145 316.867C117.313 316.867 117.889 317.587 117.889 318.979V324.051H119.377V318.755C119.377 316.739 118.337 315.571 116.641 315.571C115.393 315.571 114.689 316.211 114.305 317.123H114.225V315.763H112.737V324.051H114.225Z" fill="white"/>
<path d="M186.5 360.696C177.841 360.696 168.5 355.265 168.5 343.348C168.5 331.431 177.841 326 186.5 326C191.31 326 195.748 327.583 199.038 330.469C202.607 333.634 204.5 338.103 204.5 343.348C204.5 348.593 202.607 353.031 199.038 356.196C195.748 359.083 191.279 360.696 186.5 360.696Z" fill="url(#paint9_radial_309_231)"/>
<path d="M201.362 333.037C203.017 335.706 203.879 338.884 203.879 342.418C203.879 347.663 201.986 352.101 198.417 355.267C195.128 358.153 190.659 359.767 185.879 359.767C180.275 359.767 174.384 357.486 170.927 352.647C174.266 358.128 180.545 360.698 186.5 360.698C191.279 360.698 195.748 359.084 199.038 356.198C202.607 353.032 204.5 348.594 204.5 343.349C204.5 339.396 203.423 335.883 201.362 333.037Z" fill="#AC95CF"/>
<path opacity="0.8" d="M175.219 351.549C178.218 351.549 180.65 349.118 180.65 346.118C180.65 343.119 178.218 340.687 175.219 340.687C172.22 340.687 169.788 343.119 169.788 346.118C169.788 349.118 172.22 351.549 175.219 351.549Z" fill="url(#paint10_radial_309_231)"/>
<path opacity="0.8" d="M198.029 351.549C201.028 351.549 203.46 349.118 203.46 346.118C203.46 343.119 201.028 340.687 198.029 340.687C195.029 340.687 192.598 343.119 192.598 346.118C192.598 349.118 195.029 351.549 198.029 351.549Z" fill="url(#paint11_radial_309_231)"/>
<path d="M181.958 341.479C181.958 341.479 181.942 341.457 181.908 341.417C181.877 341.377 181.833 341.321 181.778 341.249C181.731 341.2 181.675 341.141 181.61 341.073C181.545 340.998 181.464 340.921 181.383 340.84C181.3 340.762 181.213 340.682 181.123 340.616C181.036 340.545 180.94 340.492 180.862 340.449C180.781 340.399 180.707 340.387 180.66 340.371C180.636 340.362 180.614 340.362 180.595 340.359C180.586 340.362 180.577 340.356 180.567 340.359L180.555 340.362H180.549H180.546C180.583 340.362 180.462 340.365 180.629 340.359L180.459 340.365C180.415 340.365 180.443 340.368 180.446 340.368C180.456 340.368 180.462 340.368 180.468 340.365C180.493 340.356 180.468 340.365 180.462 340.365C180.452 340.365 180.44 340.368 180.428 340.374C180.378 340.39 180.303 340.402 180.226 340.452C180.148 340.495 180.052 340.548 179.965 340.619C179.878 340.688 179.788 340.765 179.705 340.843C179.543 341.001 179.4 341.159 179.301 341.274C179.199 341.392 179.143 341.461 179.143 341.461L179.071 341.544C178.646 342.041 177.864 342.125 177.327 341.734C176.961 341.467 176.803 341.051 176.871 340.654C176.871 340.654 176.893 340.526 176.955 340.306C177.02 340.086 177.129 339.772 177.343 339.403C177.557 339.037 177.867 338.605 178.392 338.211C178.649 338.019 178.963 337.826 179.335 337.696C179.425 337.662 179.521 337.631 179.621 337.606C179.723 337.581 179.804 337.553 179.943 337.535L180.136 337.507C180.195 337.501 180.282 337.491 180.294 337.491L180.465 337.479L180.561 337.476H180.57H180.589L180.629 337.479H180.704L180.862 337.488C180.968 337.497 181.07 337.516 181.172 337.532C181.374 337.569 181.576 337.622 181.759 337.69C182.131 337.82 182.445 338.009 182.702 338.205C183.227 338.599 183.537 339.031 183.751 339.397C183.86 339.58 183.941 339.754 184 339.906C184.065 340.052 184.111 340.207 184.149 340.322C184.183 340.433 184.183 340.492 184.198 340.545C184.208 340.595 184.211 340.623 184.211 340.623C184.326 341.249 183.863 341.842 183.183 341.945C182.696 342.022 182.228 341.827 181.958 341.479Z" fill="#422B0D"/>
<path d="M194.215 341.479C194.215 341.479 194.199 341.457 194.165 341.417C194.134 341.377 194.091 341.321 194.035 341.249C193.988 341.2 193.932 341.141 193.867 341.073C193.802 340.998 193.721 340.921 193.641 340.84C193.557 340.762 193.47 340.682 193.38 340.616C193.293 340.545 193.197 340.492 193.119 340.449C193.039 340.399 192.964 340.387 192.918 340.371C192.893 340.362 192.871 340.362 192.852 340.359C192.843 340.362 192.834 340.356 192.825 340.359L192.812 340.362H192.806H192.803H192.8C192.837 340.362 192.716 340.365 192.884 340.359L192.713 340.365C192.669 340.365 192.697 340.368 192.7 340.368C192.71 340.368 192.716 340.368 192.722 340.365C192.747 340.356 192.722 340.365 192.716 340.365C192.707 340.365 192.694 340.368 192.682 340.374C192.632 340.39 192.558 340.402 192.48 340.452C192.402 340.495 192.306 340.548 192.219 340.619C192.132 340.688 192.042 340.765 191.959 340.843C191.797 341.001 191.655 341.159 191.555 341.274C191.453 341.392 191.397 341.461 191.397 341.461L191.326 341.544C190.9 342.041 190.118 342.125 189.581 341.734C189.215 341.467 189.057 341.051 189.125 340.654C189.125 340.654 189.147 340.526 189.209 340.306C189.274 340.086 189.383 339.772 189.597 339.403C189.811 339.037 190.121 338.605 190.646 338.211C190.904 338.019 191.217 337.826 191.589 337.696C191.679 337.662 191.776 337.631 191.875 337.606C191.977 337.581 192.058 337.553 192.198 337.535L192.39 337.507C192.449 337.501 192.536 337.491 192.548 337.491L192.719 337.479L192.815 337.476H192.825H192.843L192.884 337.479H192.958L193.116 337.488C193.222 337.497 193.324 337.516 193.427 337.532C193.628 337.569 193.83 337.622 194.013 337.69C194.386 337.82 194.699 338.009 194.957 338.205C195.481 338.599 195.791 339.031 196.006 339.397C196.114 339.58 196.195 339.754 196.254 339.906C196.319 340.052 196.366 340.207 196.403 340.322C196.437 340.433 196.437 340.492 196.452 340.545C196.462 340.595 196.465 340.623 196.465 340.623C196.58 341.249 196.117 341.842 195.438 341.945C194.95 342.022 194.482 341.827 194.215 341.479Z" fill="#422B0D"/>
<path d="M186.633 352.995C182.732 352.995 179.647 351.148 177.946 349.171C177.776 348.973 177.735 348.706 177.844 348.473C177.953 348.234 178.188 348.079 178.443 348.079C178.558 348.079 178.676 348.11 178.778 348.169C180.531 349.181 183.477 350.431 186.624 350.431H186.673C189.823 350.431 192.765 349.178 194.519 348.169C194.624 348.11 194.739 348.076 194.854 348.079C195.108 348.079 195.344 348.234 195.453 348.473C195.558 348.706 195.521 348.976 195.35 349.171C193.65 351.145 190.562 352.995 186.664 352.995" fill="#422B0D"/>
<path d="M162.248 382.415H164.696L167.016 387.055H168.76L166.28 382.255C167.72 381.887 168.472 380.783 168.472 379.167C168.472 377.119 167.272 375.887 165.304 375.887H160.696V387.055H162.248V382.415ZM162.248 381.071V377.263H165.24C166.232 377.263 166.824 377.807 166.824 378.767V379.567C166.824 380.527 166.232 381.071 165.24 381.071H162.248ZM173.221 387.247C174.773 387.247 175.973 386.527 176.549 385.455L175.589 384.639C175.141 385.487 174.389 385.983 173.349 385.983C171.861 385.983 171.013 384.991 171.013 383.615V383.279H176.853V382.655C176.853 380.335 175.541 378.575 173.221 378.575C170.917 378.575 169.461 380.287 169.461 382.911C169.461 385.535 170.917 387.247 173.221 387.247ZM173.221 379.775C174.469 379.775 175.269 380.703 175.269 382.079V382.239H171.013V382.127C171.013 380.767 171.925 379.775 173.221 379.775ZM180.913 387.055V385.791H179.729V375.215H178.241V385.535C178.241 386.447 178.769 387.055 179.793 387.055H180.913ZM188.934 387.055V385.791H188.006V381.423C188.006 379.631 186.822 378.575 184.758 378.575C183.222 378.575 182.246 379.295 181.75 380.191L182.646 381.007C183.078 380.303 183.702 379.823 184.678 379.823C185.926 379.823 186.518 380.447 186.518 381.551V382.303H184.95C182.582 382.303 181.414 383.167 181.414 384.767C181.414 386.287 182.422 387.247 184.15 387.247C185.334 387.247 186.214 386.703 186.55 385.679H186.63C186.742 386.479 187.174 387.055 188.086 387.055H188.934ZM184.486 386.047C183.558 386.047 182.966 385.615 182.966 384.847V384.527C182.966 383.759 183.574 383.343 184.934 383.343H186.518V384.623C186.518 385.455 185.654 386.047 184.486 386.047ZM189.094 387.055H190.726L192.886 383.919H192.934L194.982 387.055H196.71L193.766 382.815L196.662 378.767H195.03L192.982 381.759H192.934L190.934 378.767H189.206L192.102 382.879L189.094 387.055ZM200.677 387.247C202.229 387.247 203.429 386.527 204.005 385.455L203.045 384.639C202.597 385.487 201.845 385.983 200.805 385.983C199.317 385.983 198.469 384.991 198.469 383.615V383.279H204.309V382.655C204.309 380.335 202.997 378.575 200.677 378.575C198.373 378.575 196.917 380.287 196.917 382.911C196.917 385.535 198.373 387.247 200.677 387.247ZM200.677 379.775C201.925 379.775 202.725 380.703 202.725 382.079V382.239H198.469V382.127C198.469 380.767 199.381 379.775 200.677 379.775ZM210.945 387.055H212.433V375.215H210.945V380.127H210.881C210.497 379.103 209.633 378.575 208.497 378.575C206.417 378.575 205.169 380.223 205.169 382.911C205.169 385.599 206.417 387.247 208.497 387.247C209.633 387.247 210.497 386.719 210.881 385.695H210.945V387.055ZM208.929 385.951C207.601 385.951 206.753 385.007 206.753 383.615V382.207C206.753 380.815 207.601 379.871 208.929 379.871C210.049 379.871 210.945 380.511 210.945 381.391V384.431C210.945 385.311 210.049 385.951 208.929 385.951Z" fill="white"/>
<path d="M194.64 26.04V34.28C194.64 38.36 196.04 40.24 199.86 40.24C203.68 40.24 205.08 38.36 205.08 34.28V26.04H202.86V34.64C202.86 37 202.04 38.22 199.86 38.22C197.68 38.22 196.86 37 196.86 34.64V26.04H194.64ZM209.651 40V33.04C209.651 31.82 210.771 31.24 211.911 31.24C213.251 31.24 213.871 32.06 213.871 33.68V40H216.051V33.4C216.051 30.84 214.791 29.36 212.671 29.36C211.071 29.36 210.191 30.2 209.751 31.32H209.651V29.6H207.471V40H209.651ZM218.272 40H220.452V38.28H220.552C220.992 39.5 222.093 40.24 223.473 40.24C226.092 40.24 227.612 38.22 227.612 34.8C227.612 31.38 226.092 29.36 223.473 29.36C222.093 29.36 220.992 30.08 220.552 31.32H220.452V25.2H218.272V40ZM222.812 38.36C221.492 38.36 220.452 37.64 220.452 36.58V33.02C220.452 31.96 221.492 31.24 222.812 31.24C224.313 31.24 225.312 32.3 225.312 33.9V35.7C225.312 37.3 224.313 38.36 222.812 38.36ZM233.388 40.24C235.328 40.24 236.848 39.4 237.628 38.14L236.348 36.88C235.748 37.84 234.888 38.44 233.608 38.44C231.848 38.44 230.868 37.3 230.868 35.7V35.36H238.008V34.54C238.008 31.66 236.448 29.36 233.388 29.36C230.428 29.36 228.608 31.48 228.608 34.8C228.608 38.12 230.428 40.24 233.388 40.24ZM233.388 31.06C234.828 31.06 235.708 32.12 235.708 33.72V33.92H230.868V33.78C230.868 32.18 231.888 31.06 233.388 31.06ZM241.802 40V33.36C241.802 32.28 242.762 31.7 244.482 31.7H245.342V29.6H244.762C243.102 29.6 242.202 30.54 241.902 31.6H241.802V29.6H239.622V40H241.802ZM248.658 40V33.36C248.658 32.28 249.618 31.7 251.338 31.7H252.198V29.6H251.618C249.958 29.6 249.058 30.54 248.758 31.6H248.658V29.6H246.478V40H248.658ZM257.81 35.72L257.15 37.98H257.05L256.45 35.72L254.37 29.6H252.19L255.97 40.46L255.37 42.22H253.61V44H254.87C256.49 44 257.11 43.46 257.61 42.06L261.99 29.6H259.89L257.81 35.72Z" fill="white"/>
<defs>
<radialGradient id="paint0_radial_309_231" cx="0" cy="0" r="1" gradientUnits="userSpaceOnUse" gradientTransform="translate(291 163.348) scale(17.6771)">
<stop offset="0.5" stop-color="#FDE030"/>
<stop offset="0.9188" stop-color="#F7C02B"/>
<stop offset="1" stop-color="#F4A223"/>
</radialGradient>
<radialGradient id="paint1_radial_309_231" cx="0" cy="0" r="1" gradientUnits="userSpaceOnUse" gradientTransform="translate(279.719 166.118) scale(5.90834 5.61265)">
<stop stop-color="#ED7770"/>
<stop offset="0.9" stop-color="#ED7770" stop-opacity="0"/>
</radialGradient>
<radialGradient id="paint2_radial_309_231" cx="0" cy="0" r="1" gradientUnits="userSpaceOnUse" gradientTransform="translate(302.529 166.118) scale(5.90834 5.61265)">
<stop stop-color="#ED7770"/>
<stop offset="0.9" stop-color="#ED7770" stop-opacity="0"/>
</radialGradient>
<radialGradient id="paint3_radial_309_231" cx="0" cy="0" r="1" gradientUnits="userSpaceOnUse" gradientTransform="translate(186.441 112.292) scale(17.6195 17.6195)">
<stop offset="0.5" stop-color="#FDE030"/>
<stop offset="0.92" stop-color="#F7C02B"/>
<stop offset="1" stop-color="#F4A223"/>
</radialGradient>
<radialGradient id="paint4_radial_309_231" cx="0" cy="0" r="1" gradientUnits="userSpaceOnUse" gradientTransform="translate(296.998 280.346) scale(17.6751 17.6751)">
<stop offset="0.5" stop-color="#FDE030"/>
<stop offset="0.92" stop-color="#F7C02B"/>
<stop offset="1" stop-color="#F4A223"/>
</radialGradient>
<radialGradient id="paint5_radial_309_231" cx="0" cy="0" r="1" gradientUnits="userSpaceOnUse" gradientTransform="translate(81 163.348) scale(17.6771)">
<stop offset="0.5" stop-color="#FDE030"/>
<stop offset="0.9188" stop-color="#F7C02B"/>
<stop offset="1" stop-color="#F4A223"/>
</radialGradient>
<radialGradient id="paint6_radial_309_231" cx="0" cy="0" r="1" gradientUnits="userSpaceOnUse" gradientTransform="translate(69.7192 166.118) scale(5.90834 5.61265)">
<stop stop-color="#ED7770"/>
<stop offset="0.9" stop-color="#ED7770" stop-opacity="0"/>
</radialGradient>
<radialGradient id="paint7_radial_309_231" cx="0" cy="0" r="1" gradientUnits="userSpaceOnUse" gradientTransform="translate(92.5295 166.118) scale(5.90834 5.61265)">
<stop stop-color="#ED7770"/>
<stop offset="0.9" stop-color="#ED7770" stop-opacity="0"/>
</radialGradient>
<radialGradient id="paint8_radial_309_231" cx="0" cy="0" r="1" gradientUnits="userSpaceOnUse" gradientTransform="translate(80.998 280.346) scale(17.6751 17.6751)">
<stop offset="0.5" stop-color="#FDE030"/>
<stop offset="0.92" stop-color="#F7C02B"/>
<stop offset="1" stop-color="#F4A223"/>
</radialGradient>
<radialGradient id="paint9_radial_309_231" cx="0" cy="0" r="1" gradientUnits="userSpaceOnUse" gradientTransform="translate(186.5 343.348) scale(17.6771)">
<stop offset="0.5" stop-color="#FDE030"/>
<stop offset="0.9188" stop-color="#F7C02B"/>
<stop offset="1" stop-color="#F4A223"/>
</radialGradient>
<radialGradient id="paint10_radial_309_231" cx="0" cy="0" r="1" gradientUnits="userSpaceOnUse" gradientTransform="translate(175.219 346.118) scale(5.90834 5.61265)">
<stop stop-color="#ED7770"/>
<stop offset="0.9" stop-color="#ED7770" stop-opacity="0"/>
</radialGradient>
<radialGradient id="paint11_radial_309_231" cx="0" cy="0" r="1" gradientUnits="userSpaceOnUse" gradientTransform="translate(198.029 346.118) scale(5.90834 5.61265)">
<stop stop-color="#ED7770"/>
<stop offset="0.9" stop-color="#ED7770" stop-opacity="0"/>
</radialGradient>
</defs>
</svg>
