<svg width="358" height="437" viewBox="0 0 358 437" fill="none" xmlns="http://www.w3.org/2000/svg">
<path d="M287 1H299H358V437H0V0L281 1H287Z" fill="#F4F4F4"/>
<path d="M185.808 122.254C176.761 122.254 167 116.579 167 104.127C167 91.6748 176.761 86 185.808 86C190.834 86 195.471 87.6538 198.908 90.6695C202.637 93.9771 204.616 98.6466 204.616 104.127C204.616 109.607 202.637 114.244 198.908 117.552C195.471 120.567 190.802 122.254 185.808 122.254Z" fill="url(#paint0_radial_309_234)"/>
<path d="M201.337 93.3512C203.066 96.1399 203.967 99.4605 203.967 103.154C203.967 108.634 201.989 113.271 198.26 116.579C194.823 119.595 190.153 121.281 185.159 121.281C179.303 121.281 173.161 118.897 169.536 113.842C173.025 119.569 179.588 122.254 185.808 122.254C190.802 122.254 195.471 120.567 198.909 117.552C202.638 114.244 204.616 109.607 204.616 104.127C204.616 99.9955 203.491 96.3248 201.337 93.3512Z" fill="#AC95CF"/>
<path d="M177.507 101.565H182.371" stroke="#35220B" stroke-width="2.59417" stroke-linecap="round" stroke-linejoin="round"/>
<path d="M189.829 101.565H194.693" stroke="#35220B" stroke-width="2.59417" stroke-linecap="round" stroke-linejoin="round"/>
<path d="M194.044 112.266H177.831C177.114 112.266 176.534 111.686 176.534 110.969C176.534 110.252 177.114 109.672 177.831 109.672H194.044C194.761 109.672 195.341 110.252 195.341 110.969C195.341 111.686 194.761 112.266 194.044 112.266Z" fill="#422B0D"/>
<path d="M174.352 147.317H177.904C180.768 147.317 182.416 145.445 182.416 141.733C182.416 138.021 180.768 136.149 177.904 136.149H174.352V147.317ZM175.312 146.469V136.997H177.92C180.112 136.997 181.392 138.517 181.392 140.997V142.469C181.392 144.949 180.112 146.469 177.92 146.469H175.312ZM189.392 147.317H190.304V139.125H189.392V144.869C189.392 146.101 188.32 146.693 187.184 146.693C185.824 146.693 185.072 145.893 185.072 144.213V139.125H184.16V144.389C184.16 146.389 185.2 147.509 186.944 147.509C188.352 147.509 189.024 146.789 189.328 146.021H189.392V147.317ZM194.824 147.317V146.517H193.56V135.477H192.648V146.325C192.648 146.917 193 147.317 193.656 147.317H194.824ZM198.293 147.317V146.517H197.029V135.477H196.117V146.325C196.117 146.917 196.469 147.317 197.125 147.317H198.293Z" fill="black"/>
<path d="M72.1744 166.174C63.147 166.174 53.4077 160.512 53.4077 148.087C53.4077 135.662 63.147 130 72.1744 130C77.1896 130 81.8166 131.65 85.2464 134.659C88.9674 137.96 90.9411 142.619 90.9411 148.087C90.9411 153.555 88.9674 158.182 85.2464 161.483C81.8166 164.492 77.1573 166.174 72.1744 166.174Z" fill="url(#paint1_radial_309_234)"/>
<path d="M87.6702 137.335C89.3948 140.118 90.2943 143.431 90.2943 147.117C90.2943 152.585 88.3206 157.212 84.5996 160.512C81.1699 163.521 76.5105 165.204 71.5277 165.204C65.6841 165.204 59.5558 162.826 55.9384 157.781C59.4199 163.495 65.9688 166.174 72.1748 166.174C77.1577 166.174 81.817 164.492 85.2468 161.483C88.9677 158.182 90.9415 153.555 90.9415 148.087C90.9415 143.965 89.8187 140.302 87.6702 137.335Z" fill="#AC95CF"/>
<path d="M72.1744 166.174C63.147 166.174 53.4077 160.512 53.4077 148.087C53.4077 135.662 63.147 130 72.1744 130C77.1896 130 81.8166 131.65 85.2464 134.659C88.9674 137.96 90.9411 142.619 90.9411 148.087C90.9411 153.555 88.9674 158.182 85.2464 161.483C81.8166 164.492 77.1573 166.174 72.1744 166.174Z" fill="url(#paint2_linear_309_234)"/>
<path d="M72.304 160.059C73.5497 160.059 74.7857 160.272 75.9602 160.683C78.4517 161.554 80.6099 158.742 79.1635 156.542C77.6557 154.267 75.3099 153.62 72.304 153.62C69.2981 153.62 66.9555 154.238 65.4477 156.532C63.9981 158.735 66.1595 161.541 68.6509 160.674C69.8255 160.263 71.0615 160.056 72.304 160.059Z" fill="#422B0D"/>
<path d="M57.912 162.356C55.1746 162.356 53.0585 159.7 53.0585 157.425C53.0585 155.827 53.7736 153.973 54.7864 151.404C54.9126 151.025 55.0808 150.643 55.2491 150.223C55.7312 149.019 56.155 147.715 56.8022 146.586C57.1095 146.036 57.8052 145.842 58.352 146.149C58.5332 146.253 58.6853 146.401 58.7888 146.586C59.3907 147.696 59.8048 148.896 60.4293 150.297C62.1992 154.257 62.6943 155.859 62.6943 157.458C62.7557 159.713 60.6073 162.356 57.912 162.356Z" fill="url(#paint3_radial_309_234)"/>
<path d="M60.8727 159.331C60.2547 160.302 58.8505 160.108 58.8505 158.519C58.8505 157.503 59.0575 152.287 59.9312 153.018C61.3484 154.206 61.7528 157.979 60.8727 159.331Z" fill="#81D4FA"/>
<path d="M60.4589 140.603C59.747 140.73 59.7114 141.765 60.488 141.801C62.2029 141.826 63.8595 141.192 65.1214 140.031C65.6003 139.616 66.008 139.128 66.3218 138.578C66.5095 138.309 66.4448 137.94 66.1795 137.75C65.9142 137.559 65.5421 137.627 65.3512 137.892L65.3188 137.924C64.0472 139.345 62.3355 140.286 60.4589 140.603Z" fill="#422B0D"/>
<path d="M79.4618 137.934L79.4294 137.902C79.2418 137.633 78.8697 137.569 78.6011 137.756C78.3325 137.944 78.2678 138.316 78.4587 138.585C78.7758 139.131 79.1835 139.62 79.6656 140.031C80.9275 141.192 82.5842 141.823 84.2991 141.794C85.0756 141.759 85.04 140.723 84.3249 140.597C82.4483 140.283 80.7366 139.345 79.4618 137.934Z" fill="#422B0D"/>
<path d="M65.8332 143.894C64.4775 143.894 63.2447 145.039 63.2447 146.942C63.2447 148.845 64.4775 149.987 65.8332 149.987C67.1922 149.987 68.4217 148.841 68.4217 146.942C68.4217 145.043 67.2051 143.894 65.8332 143.894Z" fill="#422B0D"/>
<path d="M65.7196 145.165C65.2601 144.945 64.7068 145.139 64.4836 145.599C64.3121 145.958 64.3897 146.388 64.6777 146.667C65.1371 146.887 65.6904 146.693 65.9137 146.233C66.0852 145.874 66.0075 145.444 65.7196 145.165Z" fill="#896024"/>
<path d="M78.2579 143.894C76.9022 143.894 75.6694 145.039 75.6694 146.942C75.6694 148.845 76.9022 149.987 78.2579 149.987C79.6136 149.987 80.8464 148.841 80.8464 146.942C80.8464 145.043 79.6136 143.894 78.2579 143.894Z" fill="#422B0D"/>
<path d="M78.1279 145.165C77.6684 144.945 77.1151 145.139 76.8919 145.599C76.7204 145.958 76.798 146.388 77.086 146.667C77.5455 146.887 78.0988 146.693 78.322 146.233C78.4935 145.874 78.4159 145.444 78.1279 145.165Z" fill="#896024"/>
<path d="M47.8465 191.43C50.1185 191.43 51.5105 190.23 51.5105 188.198C51.5105 186.662 50.7265 185.622 48.5025 185.142L47.5105 184.934C46.1185 184.646 45.2225 184.134 45.2225 182.806C45.2225 181.43 46.2145 180.726 47.8145 180.726C49.1585 180.726 50.0545 181.238 50.6785 182.118L51.3985 181.59C50.6625 180.518 49.5265 179.878 47.8625 179.878C45.7185 179.878 44.2785 180.886 44.2785 182.838C44.2785 184.39 45.2065 185.398 47.3185 185.83L48.3105 186.038C49.7345 186.342 50.5665 186.87 50.5665 188.246C50.5665 189.718 49.6065 190.582 47.8785 190.582C46.4225 190.582 45.4785 189.974 44.6945 188.934L43.9745 189.526C44.8385 190.678 46.0225 191.43 47.8465 191.43ZM56.3467 191.238V190.438H54.6187V183.846H56.4747V183.046H54.6187V180.758H53.7867V182.422C53.7867 182.886 53.6587 183.046 53.2107 183.046H52.2827V183.846H53.7067V190.23C53.7067 190.838 54.0587 191.238 54.7147 191.238H56.3467ZM58.9381 191.238V185.638C58.9381 184.582 59.9141 183.942 61.2741 183.942H61.9941V183.046H61.4501C60.0421 183.046 59.3221 183.75 59.0021 184.518H58.9381V183.046H58.0261V191.238H58.9381ZM65.986 191.43C67.538 191.43 68.674 190.63 69.186 189.43L68.514 188.982C68.066 190.054 67.202 190.63 66.034 190.63C64.354 190.63 63.362 189.43 63.362 187.718V187.318H69.426V186.886C69.426 184.486 68.066 182.854 65.97 182.854C63.794 182.854 62.402 184.454 62.402 187.142C62.402 189.83 63.794 191.43 65.986 191.43ZM65.97 183.622C67.442 183.622 68.434 184.758 68.434 186.486V186.614H63.362V186.534C63.362 184.806 64.386 183.622 65.97 183.622ZM73.4255 191.43C75.2335 191.43 76.3375 190.518 76.3375 188.998C76.3375 187.686 75.5535 186.966 73.8895 186.71L73.2335 186.614C72.0655 186.422 71.4735 186.054 71.4735 185.11C71.4735 184.182 72.1615 183.638 73.3295 183.638C74.4655 183.638 75.1375 184.166 75.5695 184.678L76.1775 184.118C75.5695 183.382 74.7375 182.854 73.3775 182.854C71.7935 182.854 70.5935 183.622 70.5935 185.158C70.5935 186.63 71.6175 187.222 73.1055 187.446L73.7775 187.558C74.9615 187.734 75.4575 188.23 75.4575 189.094C75.4575 190.086 74.7375 190.646 73.4895 190.646C72.4015 190.646 71.6175 190.214 70.9455 189.334L70.2735 189.862C71.0095 190.87 72.0015 191.43 73.4255 191.43ZM80.2855 191.43C82.0935 191.43 83.1975 190.518 83.1975 188.998C83.1975 187.686 82.4135 186.966 80.7495 186.71L80.0935 186.614C78.9255 186.422 78.3335 186.054 78.3335 185.11C78.3335 184.182 79.0215 183.638 80.1895 183.638C81.3255 183.638 81.9975 184.166 82.4295 184.678L83.0375 184.118C82.4295 183.382 81.5975 182.854 80.2375 182.854C78.6535 182.854 77.4535 183.622 77.4535 185.158C77.4535 186.63 78.4775 187.222 79.9655 187.446L80.6375 187.558C81.8215 187.734 82.3175 188.23 82.3175 189.094C82.3175 190.086 81.5975 190.646 80.3495 190.646C79.2615 190.646 78.4775 190.214 77.8055 189.334L77.1335 189.862C77.8695 190.87 78.8615 191.43 80.2855 191.43ZM87.8785 191.43C89.4305 191.43 90.5665 190.63 91.0785 189.43L90.4065 188.982C89.9585 190.054 89.0945 190.63 87.9265 190.63C86.2465 190.63 85.2545 189.43 85.2545 187.718V187.318H91.3185V186.886C91.3185 184.486 89.9585 182.854 87.8625 182.854C85.6865 182.854 84.2945 184.454 84.2945 187.142C84.2945 189.83 85.6865 191.43 87.8785 191.43ZM87.8625 183.622C89.3345 183.622 90.3265 184.758 90.3265 186.486V186.614H85.2545V186.534C85.2545 184.806 86.2785 183.622 87.8625 183.622ZM98.294 191.238H99.206V179.398H98.294V184.358H98.246C97.846 183.446 96.998 182.854 95.75 182.854C93.654 182.854 92.374 184.438 92.374 187.142C92.374 189.846 93.654 191.43 95.75 191.43C96.998 191.43 97.814 190.838 98.246 189.926H98.294V191.238ZM95.958 190.614C94.326 190.614 93.35 189.478 93.35 187.718V186.566C93.35 184.806 94.326 183.67 95.958 183.67C97.222 183.67 98.294 184.422 98.294 185.494V188.742C98.294 189.894 97.222 190.614 95.958 190.614Z" fill="black"/>
<path d="M293.457 288.393C284.375 288.393 274.577 282.696 274.577 270.196C274.577 257.697 284.375 252 293.457 252C298.503 252 303.158 253.66 306.608 256.687C310.352 260.008 312.337 264.695 312.337 270.196C312.337 275.698 310.352 280.353 306.608 283.673C303.158 286.7 298.47 288.393 293.457 288.393Z" fill="url(#paint4_radial_309_234)"/>
<path d="M309.043 259.38C310.778 262.179 311.683 265.512 311.683 269.22C311.683 274.721 309.697 279.376 305.954 282.697C302.503 285.724 297.816 287.417 292.803 287.417C286.924 287.417 280.758 285.024 277.119 279.949C280.622 285.698 287.21 288.393 293.454 288.393C298.467 288.393 303.154 286.7 306.605 283.673C310.348 280.353 312.334 275.698 312.334 270.197C312.334 266.05 311.204 262.365 309.043 259.38Z" fill="#AC95CF"/>
<path d="M293.457 288.393C284.375 288.393 274.577 282.696 274.577 270.196C274.577 257.697 284.375 252 293.457 252C298.503 252 303.158 253.66 306.608 256.687C310.352 260.008 312.337 264.695 312.337 270.196C312.337 275.698 310.352 280.353 306.608 283.673C303.158 286.7 298.47 288.393 293.457 288.393Z" fill="url(#paint5_linear_309_234)"/>
<path d="M293.457 288.393C284.375 288.393 274.577 282.696 274.577 270.196C274.577 257.697 284.375 252 293.457 252C298.503 252 303.158 253.66 306.608 256.687C310.352 260.008 312.337 264.695 312.337 270.196C312.337 275.698 310.352 280.353 306.608 283.673C303.158 286.7 298.47 288.393 293.457 288.393Z" fill="url(#paint6_linear_309_234)"/>
<path d="M309.043 259.38C310.778 262.179 311.683 265.512 311.683 269.22C311.683 274.721 309.697 279.376 305.954 282.697C302.503 285.724 297.816 287.417 292.803 287.417C286.924 287.417 280.758 285.024 277.119 279.949C280.622 285.698 287.21 288.393 293.454 288.393C298.467 288.393 303.154 286.7 306.605 283.673C310.348 280.353 312.334 275.698 312.334 270.197C312.334 266.05 311.204 262.365 309.043 259.38Z" fill="#AC95CF"/>
<path d="M293.585 285.442C291.625 285.429 290.04 283.844 290.027 281.884V277.782C290.027 275.816 291.619 274.224 293.585 274.224C295.551 274.224 297.143 275.816 297.143 277.782V281.887C297.13 283.847 295.545 285.429 293.585 285.442Z" fill="#422B0D"/>
<path d="M286.843 263.336C287.507 263.336 288.158 263.528 288.718 263.886C290.554 265.048 291.322 267.792 289.841 270.628C288.819 272.581 287.283 273.483 285.828 273.483C285.164 273.483 284.513 273.29 283.953 272.932C282.117 271.77 281.348 269.026 282.83 266.191C283.852 264.238 285.385 263.336 286.843 263.336Z" fill="white"/>
<path opacity="0.66" d="M311.47 273.487C311.024 273.161 311.08 272.8 309.843 273.298C309.332 273.506 308.746 274.678 308.746 274.678C308.746 274.678 307.863 272.914 306.119 275.261C302.948 279.519 301.561 279.323 299.696 281.276C298.495 282.526 297.457 283.718 297.857 286.084C298.082 287.406 298.71 287.767 298.71 287.767C298.71 287.767 299.094 287.767 302.863 285.814C306.633 283.861 309.924 281.097 311.734 276.67" fill="url(#paint7_linear_309_234)"/>
<path d="M301.315 282.119C302.731 281.045 304.098 280.058 304.743 279.209C305.387 278.359 306.081 276.579 306.497 275.413C306.914 274.248 308.125 273.678 308.776 274.674C308.945 274.941 308.812 275.976 308.776 276.373C309.131 275.784 309.381 275.136 309.518 274.463C309.844 272.874 311.504 272.36 311.797 274.495C311.797 274.495 313.031 274.544 312.484 278.372C312.21 279.863 311.719 281.308 311.019 282.653C309.264 285.96 307.891 287.493 306.113 288.711C303.333 290.612 300.7 290.159 299.876 289.078C298.47 287.22 298.848 283.991 301.315 282.119Z" fill="url(#paint8_radial_309_234)"/>
<path d="M308.76 274.672C308.76 275.307 308.148 277.517 307.917 278.084C307.119 280.183 305.664 281.16 306.071 281.492C306.478 281.824 307.256 281.118 308.379 278.452C308.724 277.543 308.926 276.59 308.972 275.62C308.968 275.291 308.897 274.968 308.76 274.672Z" fill="#AC95CF"/>
<path d="M310.903 273.065C311.316 273.244 311.931 274.422 311.01 277.723C310.441 280.216 308.546 282.156 309.002 282.374C309.539 282.736 310.766 280.701 311.635 277.882C311.863 277.029 312.006 276.157 312.055 275.278C312.068 274.835 311.918 273.185 310.903 273.065Z" fill="#AC95CF"/>
<path opacity="0.66" d="M275.527 273.487C275.973 273.161 275.918 272.8 277.155 273.298C277.666 273.506 278.252 274.678 278.252 274.678C278.252 274.678 279.134 272.914 280.879 275.261C284.049 279.519 285.436 279.323 287.301 281.276C288.499 282.526 289.538 283.718 289.137 286.084C288.916 287.406 288.288 287.767 288.288 287.767C288.288 287.767 287.663 287.767 284.665 286.237C284.407 286.107 284.43 285.974 284.134 285.817C280.364 283.864 277.073 281.101 275.264 276.674" fill="url(#paint9_linear_309_234)"/>
<path d="M285.685 282.119C284.269 281.045 282.902 280.058 282.257 279.209C281.613 278.359 280.919 276.579 280.499 275.413C280.08 274.248 278.872 273.678 278.237 274.674C278.068 274.941 278.201 275.976 278.237 276.373C277.879 275.784 277.622 275.136 277.482 274.463C277.156 272.874 275.496 272.36 275.203 274.495C275.203 274.495 273.97 274.544 274.516 278.372C274.79 279.863 275.281 281.308 275.981 282.653C277.733 285.96 279.109 287.493 280.887 288.711C283.663 290.612 286.297 290.159 287.124 289.078C288.52 287.22 288.152 283.991 285.685 282.119Z" fill="url(#paint10_radial_309_234)"/>
<path d="M278.236 274.672C278.236 275.307 278.848 277.517 279.08 278.084C279.877 280.183 281.329 281.16 280.925 281.492C280.522 281.824 279.737 281.118 278.614 278.452C278.269 277.543 278.07 276.59 278.025 275.62C278.025 275.291 278.097 274.968 278.236 274.672Z" fill="#AC95CF"/>
<path d="M276.092 273.065C275.682 273.244 275.066 274.422 275.988 277.716C276.557 280.21 278.452 282.15 277.996 282.368C277.459 282.729 276.232 280.695 275.363 277.876C275.135 277.023 274.991 276.15 274.943 275.272C274.93 274.835 275.079 273.185 276.092 273.065Z" fill="#AC95CF"/>
<path d="M289.883 270.647C289.642 271.497 289.196 272.272 288.581 272.907C287.917 273.593 287.041 274.036 286.097 274.166C285.085 274.293 284.06 274.03 283.233 273.434C282.419 272.841 281.807 272.008 281.485 271.054C281.41 270.823 281.348 270.586 281.302 270.345C281.26 270.107 281.231 269.866 281.215 269.625L281.192 269.251L281.208 268.893C281.218 268.655 281.244 268.421 281.289 268.186C281.468 267.288 281.823 266.432 282.331 265.67C282.823 264.892 283.493 264.244 284.284 263.776C285.056 263.31 285.97 263.141 286.859 263.297V263.392C286.035 263.408 285.235 263.688 284.58 264.189C283.929 264.687 283.392 265.322 283.005 266.045C282.598 266.754 282.325 267.529 282.191 268.336C282.067 269.144 282.136 269.967 282.393 270.742C282.64 271.517 283.119 272.2 283.767 272.695C284.414 273.199 285.225 273.45 286.045 273.398C286.859 273.339 287.637 273.027 288.265 272.506C288.9 271.982 289.421 271.338 289.798 270.605L289.883 270.647Z" fill="#AC95CF"/>
<path d="M300.359 263.336C301.817 263.336 303.35 264.248 304.373 266.191C305.86 269.013 305.086 271.77 303.25 272.932C302.69 273.294 302.039 273.486 301.375 273.486C299.92 273.486 298.383 272.574 297.361 270.631C295.864 267.805 296.648 265.048 298.484 263.886C299.044 263.528 299.695 263.336 300.359 263.336Z" fill="white"/>
<path d="M300.36 263.285C301.249 263.129 302.164 263.298 302.935 263.764C303.726 264.232 304.397 264.88 304.888 265.658C305.399 266.43 305.754 267.292 305.93 268.2C305.972 268.435 306.002 268.669 306.011 268.907V269.265V269.626C305.992 270.111 305.901 270.593 305.744 271.055C305.422 272.009 304.813 272.839 303.996 273.432C303.17 274.03 302.147 274.291 301.135 274.164C300.181 274.037 299.299 273.594 298.632 272.904C298.017 272.273 297.567 271.498 297.33 270.648L297.414 270.603C297.789 271.332 298.306 271.98 298.938 272.507C299.569 273.031 300.347 273.344 301.164 273.402C301.985 273.454 302.795 273.204 303.443 272.699C304.087 272.201 304.566 271.521 304.813 270.746C305.071 269.971 305.139 269.148 305.015 268.34C304.888 267.533 304.618 266.752 304.214 266.039C303.827 265.316 303.29 264.682 302.639 264.184C301.985 263.682 301.184 263.402 300.36 263.386V263.285Z" fill="#AC95CF"/>
<path d="M276.887 314.191L272.919 303.023H271.687L267.735 314.191H268.695L269.911 310.719H274.663L275.879 314.191H276.887ZM274.407 309.887H270.151L272.247 303.935H272.311L274.407 309.887ZM279.063 314.191V308.431C279.063 307.215 280.135 306.623 281.287 306.623C282.647 306.623 283.383 307.423 283.383 309.087V314.191H284.295V308.927C284.295 306.927 283.271 305.807 281.527 305.807C280.215 305.807 279.479 306.447 279.111 307.295H279.063V305.999H278.151V314.191H279.063ZM285.454 314.191H286.478L288.99 310.735H289.022L291.438 314.191H292.51L289.518 309.999L292.43 305.999H291.406L289.022 309.343H288.974L286.638 305.999H285.566L288.494 310.063L285.454 314.191ZM294.225 303.775C294.657 303.775 294.849 303.535 294.849 303.199V303.039C294.849 302.703 294.657 302.463 294.225 302.463C293.793 302.463 293.601 302.703 293.601 303.039V303.199C293.601 303.535 293.793 303.775 294.225 303.775ZM293.777 314.191H294.689V305.999H293.777V314.191ZM299.94 314.383C302.1 314.383 303.508 312.783 303.508 310.095C303.508 307.407 302.1 305.807 299.94 305.807C297.78 305.807 296.372 307.407 296.372 310.095C296.372 312.783 297.78 314.383 299.94 314.383ZM299.94 313.567C298.356 313.567 297.348 312.511 297.348 310.607V309.583C297.348 307.663 298.356 306.623 299.94 306.623C301.524 306.623 302.532 307.679 302.532 309.583V310.607C302.532 312.527 301.524 313.567 299.94 313.567ZM310.305 314.191H311.217V305.999H310.305V311.743C310.305 312.975 309.233 313.567 308.097 313.567C306.737 313.567 305.985 312.767 305.985 311.087V305.999H305.073V311.263C305.073 313.263 306.113 314.383 307.857 314.383C309.265 314.383 309.937 313.663 310.241 312.895H310.305V314.191ZM315.88 314.383C317.688 314.383 318.792 313.471 318.792 311.951C318.792 310.639 318.008 309.919 316.344 309.663L315.688 309.567C314.52 309.375 313.928 309.007 313.928 308.063C313.928 307.135 314.616 306.591 315.784 306.591C316.92 306.591 317.592 307.119 318.024 307.631L318.632 307.071C318.024 306.335 317.192 305.807 315.832 305.807C314.248 305.807 313.048 306.575 313.048 308.111C313.048 309.583 314.072 310.175 315.56 310.399L316.232 310.511C317.416 310.687 317.912 311.183 317.912 312.047C317.912 313.039 317.192 313.599 315.944 313.599C314.856 313.599 314.072 313.167 313.4 312.287L312.728 312.815C313.464 313.823 314.456 314.383 315.88 314.383Z" fill="black"/>
<path d="M69.4571 281.393C60.3752 281.393 50.5771 275.696 50.5771 263.197C50.5771 250.697 60.3752 245 69.4571 245C74.5027 245 79.1576 246.66 82.6081 249.687C86.3515 253.008 88.3372 257.695 88.3372 263.197C88.3372 268.698 86.3515 273.353 82.6081 276.673C79.1576 279.7 74.4701 281.393 69.4571 281.393Z" fill="url(#paint11_radial_309_234)"/>
<path d="M85.0427 252.38C86.7777 255.179 87.6826 258.512 87.6826 262.22C87.6826 267.721 85.6969 272.376 81.9535 275.697C78.503 278.724 73.8155 280.417 68.8025 280.417C62.9237 280.417 56.7584 278.024 53.1191 272.949C56.6217 278.698 63.2101 281.393 69.4536 281.393C74.4666 281.393 79.154 279.701 82.6045 276.673C86.348 273.353 88.3336 268.698 88.3336 263.197C88.3336 259.05 87.2041 255.365 85.0427 252.38Z" fill="#AC95CF"/>
<path d="M69.4571 281.393C60.3752 281.393 50.5771 275.696 50.5771 263.197C50.5771 250.697 60.3752 245 69.4571 245C74.5027 245 79.1576 246.66 82.6081 249.687C86.3515 253.008 88.3372 257.695 88.3372 263.197C88.3372 268.698 86.3515 273.353 82.6081 276.673C79.1576 279.7 74.4701 281.393 69.4571 281.393Z" fill="url(#paint12_linear_309_234)"/>
<path d="M69.4571 281.393C60.3752 281.393 50.5771 275.696 50.5771 263.197C50.5771 250.697 60.3752 245 69.4571 245C74.5027 245 79.1576 246.66 82.6081 249.687C86.3515 253.008 88.3372 257.695 88.3372 263.197C88.3372 268.698 86.3515 273.353 82.6081 276.673C79.1576 279.7 74.4701 281.393 69.4571 281.393Z" fill="url(#paint13_linear_309_234)"/>
<path d="M85.0427 252.38C86.7777 255.179 87.6826 258.512 87.6826 262.22C87.6826 267.721 85.6969 272.376 81.9535 275.697C78.503 278.724 73.8155 280.417 68.8025 280.417C62.9237 280.417 56.7584 278.024 53.1191 272.949C56.6217 278.698 63.2101 281.393 69.4536 281.393C74.4666 281.393 79.154 279.701 82.6045 276.673C86.348 273.353 88.3336 268.698 88.3336 263.197C88.3336 259.05 87.2041 255.365 85.0427 252.38Z" fill="#AC95CF"/>
<path d="M69.5849 278.442C67.6253 278.429 66.04 276.844 66.027 274.884V270.782C66.027 268.816 67.6188 267.224 69.5849 267.224C71.551 267.224 73.1428 268.816 73.1428 270.782V274.887C73.1298 276.847 71.5445 278.429 69.5849 278.442Z" fill="#422B0D"/>
<path d="M62.8431 256.336C63.5072 256.336 64.1582 256.528 64.7181 256.886C66.554 258.048 67.3222 260.792 65.8411 263.628C64.819 265.581 63.2826 266.483 61.8275 266.483C61.1634 266.483 60.5124 266.29 59.9525 265.932C58.1166 264.77 57.3484 262.026 58.8295 259.191C59.8516 257.238 61.3848 256.336 62.8431 256.336Z" fill="white"/>
<path opacity="0.66" d="M87.4702 266.487C87.0242 266.161 87.0796 265.8 85.8426 266.298C85.3315 266.506 84.7456 267.678 84.7456 267.678C84.7456 267.678 83.8635 265.914 82.1187 268.261C78.9481 272.519 77.5614 272.323 75.6962 274.277C74.495 275.527 73.4566 276.718 73.857 279.084C74.0816 280.406 74.7099 280.767 74.7099 280.767C74.7099 280.767 75.094 280.767 78.8635 278.814C82.633 276.861 85.924 274.097 87.7339 269.67" fill="url(#paint14_linear_309_234)"/>
<path d="M77.3151 275.119C78.7311 274.045 80.0982 273.058 80.7428 272.209C81.3873 271.359 82.0806 269.579 82.4973 268.413C82.914 267.248 84.1249 266.678 84.7759 267.674C84.9452 267.941 84.8117 268.976 84.7759 269.373C85.1307 268.784 85.3814 268.136 85.5181 267.463C85.8436 265.874 87.5038 265.36 87.7967 267.495C87.7967 267.495 89.0305 267.544 88.4836 271.372C88.2101 272.863 87.7186 274.308 87.0188 275.653C85.2642 278.96 83.8905 280.493 82.1132 281.711C79.3333 283.612 76.6998 283.159 75.8763 282.078C74.47 280.22 74.8476 276.991 77.3151 275.119Z" fill="url(#paint15_radial_309_234)"/>
<path d="M84.7599 267.672C84.7599 268.307 84.1479 270.517 83.9168 271.084C83.1192 273.183 81.6642 274.16 82.0711 274.492C82.478 274.824 83.256 274.117 84.379 271.451C84.7241 270.543 84.9259 269.589 84.9714 268.619C84.9682 268.291 84.8966 267.968 84.7599 267.672Z" fill="#AC95CF"/>
<path d="M86.9027 266.065C87.3161 266.244 87.9313 267.422 87.0101 270.723C86.4404 273.216 84.5459 275.156 85.0017 275.374C85.5388 275.736 86.766 273.701 87.6351 270.882C87.863 270.029 88.0062 269.157 88.055 268.278C88.068 267.835 87.9183 266.185 86.9027 266.065Z" fill="#AC95CF"/>
<path opacity="0.66" d="M51.5271 266.487C51.9731 266.161 51.9177 265.8 53.1547 266.298C53.6658 266.506 54.2517 267.678 54.2517 267.678C54.2517 267.678 55.1338 265.914 56.8786 268.261C60.0492 272.519 61.4359 272.323 63.3011 274.276C64.499 275.526 65.5374 276.718 65.137 279.084C64.9157 280.406 64.2874 280.767 64.2874 280.767C64.2874 280.767 63.6624 280.767 60.6644 279.237C60.4072 279.107 60.43 278.974 60.1338 278.817C56.3643 276.864 53.0733 274.101 51.2634 269.674" fill="url(#paint16_linear_309_234)"/>
<path d="M61.6849 275.119C60.2689 274.045 58.9018 273.058 58.2572 272.209C57.6127 271.359 56.9194 269.579 56.4994 268.413C56.0795 267.248 54.8718 266.678 54.2371 267.674C54.0678 267.941 54.2013 268.976 54.2371 269.373C53.879 268.784 53.6219 268.136 53.4819 267.463C53.1564 265.874 51.4962 265.36 51.2033 267.495C51.2033 267.495 49.9695 267.544 50.5164 271.372C50.7898 272.863 51.2814 274.308 51.9812 275.653C53.7325 278.96 55.1095 280.493 56.8868 281.711C59.6635 283.612 62.2969 283.159 63.1237 282.078C64.5202 280.22 64.1524 276.991 61.6849 275.119Z" fill="url(#paint17_radial_309_234)"/>
<path d="M54.2365 267.672C54.2365 268.307 54.8485 270.517 55.0796 271.084C55.8771 273.183 57.3289 274.16 56.9253 274.492C56.5216 274.824 55.7371 274.117 54.6141 271.451C54.269 270.543 54.0705 269.589 54.0249 268.619C54.0249 268.291 54.0965 267.968 54.2365 267.672Z" fill="#AC95CF"/>
<path d="M52.0917 266.065C51.6815 266.244 51.0663 267.422 51.9875 270.716C52.5571 273.21 54.4517 275.15 53.9959 275.368C53.4588 275.729 52.2316 273.695 51.3625 270.876C51.1346 270.023 50.9914 269.15 50.9426 268.272C50.9296 267.835 51.0793 266.185 52.0917 266.065Z" fill="#AC95CF"/>
<path d="M65.8832 263.647C65.6423 264.497 65.1963 265.272 64.5811 265.907C63.917 266.593 63.0414 267.036 62.0974 267.166C61.085 267.293 60.0596 267.03 59.2328 266.434C58.419 265.841 57.8071 265.008 57.4848 264.054C57.4099 263.823 57.3481 263.586 57.3025 263.345C57.2602 263.107 57.2309 262.866 57.2146 262.625L57.1918 262.251L57.2081 261.893C57.2179 261.655 57.2439 261.421 57.2895 261.187C57.4685 260.288 57.8233 259.432 58.3311 258.67C58.8227 257.892 59.4932 257.245 60.2843 256.776C61.0557 256.31 61.9704 256.141 62.8591 256.297V256.392C62.0355 256.408 61.2348 256.688 60.5805 257.189C59.9294 257.687 59.3923 258.322 59.005 259.045C58.5981 259.754 58.3246 260.529 58.1912 261.336C58.0675 262.144 58.1358 262.967 58.393 263.742C58.6404 264.517 59.1189 265.2 59.7667 265.695C60.4145 266.2 61.225 266.45 62.0453 266.398C62.8591 266.34 63.6371 266.027 64.2653 265.506C64.9001 264.982 65.4209 264.338 65.7985 263.605L65.8832 263.647Z" fill="#AC95CF"/>
<path d="M76.3589 256.336C77.8172 256.336 79.3504 257.248 80.3726 259.191C81.8602 262.013 81.0854 264.77 79.2495 265.932C78.6896 266.294 78.0386 266.486 77.3745 266.486C75.9195 266.486 74.383 265.574 73.3609 263.631C71.8635 260.805 72.648 258.048 74.4839 256.886C75.0438 256.528 75.6949 256.336 76.3589 256.336Z" fill="white"/>
<path d="M76.3603 256.285C77.249 256.129 78.1637 256.298 78.9351 256.764C79.7261 257.232 80.3967 257.88 80.8882 258.658C81.3993 259.43 81.7541 260.292 81.9299 261.201C81.9722 261.435 82.0015 261.669 82.0113 261.907V262.265V262.626C81.9918 263.111 81.9006 263.593 81.7444 264.055C81.4221 265.009 80.8134 265.839 79.9963 266.432C79.1695 267.031 78.1474 267.291 77.135 267.164C76.1813 267.037 75.2991 266.594 74.6318 265.904C74.0166 265.273 73.5673 264.498 73.3297 263.648L73.4143 263.603C73.7887 264.332 74.3063 264.98 74.9378 265.507C75.5693 266.031 76.3473 266.344 77.1643 266.402C77.9846 266.454 78.7952 266.204 79.4429 265.699C80.0875 265.201 80.566 264.521 80.8134 263.746C81.0705 262.971 81.1389 262.148 81.0152 261.34C80.8882 260.533 80.6181 259.752 80.2144 259.039C79.8271 258.316 79.29 257.682 78.6389 257.184C77.9846 256.682 77.1838 256.402 76.3603 256.386V256.285Z" fill="#AC95CF"/>
<path d="M52.8868 307.191L48.9188 296.023H47.6868L43.7348 307.191H44.6948L45.9108 303.719H50.6628L51.8788 307.191H52.8868ZM50.4068 302.887H46.1508L48.2468 296.935H48.3108L50.4068 302.887ZM55.0628 307.191V301.431C55.0628 300.215 56.1348 299.623 57.2868 299.623C58.6468 299.623 59.3828 300.423 59.3828 302.087V307.191H60.2948V301.927C60.2948 299.927 59.2708 298.807 57.5268 298.807C56.2148 298.807 55.4788 299.447 55.1108 300.295H55.0628V298.999H54.1508V307.191H55.0628ZM61.4544 307.191H62.4784L64.9904 303.735H65.0224L67.4384 307.191H68.5104L65.5184 302.999L68.4304 298.999H67.4064L65.0224 302.343H64.9744L62.6384 298.999H61.5664L64.4944 303.063L61.4544 307.191ZM70.2251 296.775C70.6571 296.775 70.8491 296.535 70.8491 296.199V296.039C70.8491 295.703 70.6571 295.463 70.2251 295.463C69.7931 295.463 69.6011 295.703 69.6011 296.039V296.199C69.6011 296.535 69.7931 296.775 70.2251 296.775ZM69.7771 307.191H70.6891V298.999H69.7771V307.191ZM75.9397 307.383C78.0997 307.383 79.5077 305.783 79.5077 303.095C79.5077 300.407 78.0997 298.807 75.9397 298.807C73.7797 298.807 72.3717 300.407 72.3717 303.095C72.3717 305.783 73.7797 307.383 75.9397 307.383ZM75.9397 306.567C74.3557 306.567 73.3477 305.511 73.3477 303.607V302.583C73.3477 300.663 74.3557 299.623 75.9397 299.623C77.5237 299.623 78.5317 300.679 78.5317 302.583V303.607C78.5317 305.527 77.5237 306.567 75.9397 306.567ZM86.3046 307.191H87.2166V298.999H86.3046V304.743C86.3046 305.975 85.2326 306.567 84.0966 306.567C82.7366 306.567 81.9846 305.767 81.9846 304.087V298.999H81.0726V304.263C81.0726 306.263 82.1126 307.383 83.8566 307.383C85.2646 307.383 85.9366 306.663 86.2406 305.895H86.3046V307.191ZM91.8802 307.383C93.6882 307.383 94.7922 306.471 94.7922 304.951C94.7922 303.639 94.0082 302.919 92.3442 302.663L91.6882 302.567C90.5202 302.375 89.9282 302.007 89.9282 301.063C89.9282 300.135 90.6162 299.591 91.7842 299.591C92.9202 299.591 93.5922 300.119 94.0242 300.631L94.6322 300.071C94.0242 299.335 93.1922 298.807 91.8322 298.807C90.2482 298.807 89.0482 299.575 89.0482 301.111C89.0482 302.583 90.0722 303.175 91.5602 303.399L92.2322 303.511C93.4162 303.687 93.9122 304.183 93.9122 305.047C93.9122 306.039 93.1922 306.599 91.9442 306.599C90.8562 306.599 90.0722 306.167 89.4002 305.287L88.7282 305.815C89.4642 306.823 90.4562 307.383 91.8802 307.383Z" fill="black"/>
<path d="M294.457 166.393C285.375 166.393 275.577 160.696 275.577 148.197C275.577 135.697 285.375 130 294.457 130C299.503 130 304.158 131.66 307.608 134.687C311.352 138.008 313.337 142.695 313.337 148.197C313.337 153.698 311.352 158.353 307.608 161.673C304.158 164.7 299.47 166.393 294.457 166.393Z" fill="url(#paint18_radial_309_234)"/>
<path d="M310.043 137.38C311.778 140.179 312.683 143.513 312.683 147.22C312.683 152.721 310.697 157.376 306.954 160.697C303.503 163.724 298.816 165.417 293.803 165.417C287.924 165.417 281.758 163.024 278.119 157.949C281.622 163.698 288.21 166.393 294.454 166.393C299.467 166.393 304.154 164.701 307.605 161.673C311.348 158.353 313.334 153.698 313.334 148.197C313.334 144.05 312.204 140.365 310.043 137.38Z" fill="#AC95CF"/>
<path d="M294.457 166.393C285.375 166.393 275.577 160.696 275.577 148.197C275.577 135.697 285.375 130 294.457 130C299.503 130 304.158 131.66 307.608 134.687C311.352 138.008 313.337 142.695 313.337 148.197C313.337 153.698 311.352 158.353 307.608 161.673C304.158 164.7 299.47 166.393 294.457 166.393Z" fill="url(#paint19_linear_309_234)"/>
<path d="M294.457 166.393C285.375 166.393 275.577 160.696 275.577 148.197C275.577 135.697 285.375 130 294.457 130C299.503 130 304.158 131.66 307.608 134.687C311.352 138.008 313.337 142.695 313.337 148.197C313.337 153.698 311.352 158.353 307.608 161.673C304.158 164.7 299.47 166.393 294.457 166.393Z" fill="url(#paint20_linear_309_234)"/>
<path d="M310.043 137.38C311.778 140.179 312.683 143.513 312.683 147.22C312.683 152.721 310.697 157.376 306.954 160.697C303.503 163.724 298.816 165.417 293.803 165.417C287.924 165.417 281.758 163.024 278.119 157.949C281.622 163.698 288.21 166.393 294.454 166.393C299.467 166.393 304.154 164.701 307.605 161.673C311.348 158.353 313.334 153.698 313.334 148.197C313.334 144.05 312.204 140.365 310.043 137.38Z" fill="#AC95CF"/>
<path d="M294.585 163.442C292.625 163.429 291.04 161.844 291.027 159.884V155.783C291.027 153.816 292.619 152.225 294.585 152.225C296.551 152.225 298.143 153.816 298.143 155.783V159.887C298.13 161.847 296.545 163.429 294.585 163.442Z" fill="#422B0D"/>
<path d="M287.843 141.336C288.507 141.336 289.158 141.528 289.718 141.886C291.554 143.048 292.322 145.793 290.841 148.628C289.819 150.581 288.283 151.483 286.828 151.483C286.164 151.483 285.513 151.291 284.953 150.932C283.117 149.77 282.348 147.026 283.83 144.191C284.852 142.238 286.385 141.336 287.843 141.336Z" fill="white"/>
<path opacity="0.66" d="M312.47 151.487C312.024 151.161 312.08 150.8 310.843 151.298C310.332 151.506 309.746 152.678 309.746 152.678C309.746 152.678 308.863 150.914 307.119 153.261C303.948 157.519 302.561 157.323 300.696 159.277C299.495 160.527 298.457 161.718 298.857 164.084C299.082 165.406 299.71 165.767 299.71 165.767C299.71 165.767 300.094 165.767 303.863 163.814C307.633 161.861 310.924 159.097 312.734 154.67" fill="url(#paint21_linear_309_234)"/>
<path d="M302.315 160.119C303.731 159.045 305.098 158.058 305.743 157.209C306.387 156.359 307.081 154.579 307.497 153.413C307.914 152.248 309.125 151.678 309.776 152.674C309.945 152.941 309.812 153.976 309.776 154.374C310.131 153.784 310.381 153.137 310.518 152.463C310.844 150.874 312.504 150.36 312.797 152.495C312.797 152.495 314.031 152.544 313.484 156.372C313.21 157.863 312.719 159.308 312.019 160.653C310.264 163.96 308.891 165.493 307.113 166.711C304.333 168.612 301.7 168.159 300.876 167.079C299.47 165.22 299.848 161.991 302.315 160.119Z" fill="url(#paint22_radial_309_234)"/>
<path d="M309.76 152.672C309.76 153.307 309.148 155.517 308.917 156.084C308.119 158.183 306.664 159.16 307.071 159.492C307.478 159.824 308.256 159.118 309.379 156.452C309.724 155.543 309.926 154.59 309.972 153.62C309.968 153.291 309.897 152.969 309.76 152.672Z" fill="#AC95CF"/>
<path d="M311.903 151.065C312.316 151.244 312.931 152.422 312.01 155.723C311.441 158.216 309.546 160.156 310.002 160.374C310.539 160.736 311.766 158.701 312.635 155.882C312.863 155.029 313.006 154.157 313.055 153.278C313.068 152.835 312.918 151.185 311.903 151.065Z" fill="#AC95CF"/>
<path opacity="0.66" d="M276.527 151.487C276.973 151.161 276.918 150.8 278.155 151.298C278.666 151.506 279.252 152.678 279.252 152.678C279.252 152.678 280.134 150.914 281.879 153.261C285.049 157.519 286.436 157.323 288.301 159.276C289.499 160.526 290.538 161.718 290.137 164.084C289.916 165.406 289.288 165.767 289.288 165.767C289.288 165.767 288.663 165.767 285.665 164.237C285.407 164.107 285.43 163.974 285.134 163.817C281.364 161.864 278.073 159.101 276.264 154.674" fill="url(#paint23_linear_309_234)"/>
<path d="M286.685 160.119C285.269 159.045 283.902 158.058 283.257 157.209C282.613 156.359 281.919 154.579 281.499 153.413C281.08 152.248 279.872 151.678 279.237 152.674C279.068 152.941 279.201 153.976 279.237 154.374C278.879 153.784 278.622 153.137 278.482 152.463C278.156 150.874 276.496 150.36 276.203 152.495C276.203 152.495 274.97 152.544 275.516 156.372C275.79 157.863 276.281 159.308 276.981 160.653C278.733 163.96 280.109 165.493 281.887 166.711C284.663 168.612 287.297 168.159 288.124 167.079C289.52 165.22 289.152 161.991 286.685 160.119Z" fill="url(#paint24_radial_309_234)"/>
<path d="M279.236 152.672C279.236 153.307 279.848 155.517 280.08 156.084C280.877 158.183 282.329 159.16 281.925 159.492C281.522 159.824 280.737 159.118 279.614 156.452C279.269 155.543 279.07 154.59 279.025 153.62C279.025 153.291 279.097 152.969 279.236 152.672Z" fill="#AC95CF"/>
<path d="M277.092 151.065C276.682 151.244 276.066 152.422 276.988 155.716C277.557 158.21 279.452 160.15 278.996 160.368C278.459 160.729 277.232 158.695 276.363 155.876C276.135 155.023 275.991 154.15 275.943 153.272C275.93 152.835 276.079 151.185 277.092 151.065Z" fill="#AC95CF"/>
<path d="M290.883 148.647C290.642 149.497 290.196 150.272 289.581 150.907C288.917 151.593 288.041 152.036 287.097 152.166C286.085 152.293 285.06 152.03 284.233 151.434C283.419 150.841 282.807 150.008 282.485 149.054C282.41 148.823 282.348 148.586 282.302 148.345C282.26 148.107 282.231 147.866 282.215 147.625L282.192 147.251L282.208 146.893C282.218 146.655 282.244 146.421 282.289 146.187C282.468 145.288 282.823 144.432 283.331 143.67C283.823 142.892 284.493 142.245 285.284 141.776C286.056 141.31 286.97 141.141 287.859 141.297V141.392C287.035 141.408 286.235 141.688 285.58 142.189C284.929 142.687 284.392 143.322 284.005 144.045C283.598 144.754 283.325 145.529 283.191 146.336C283.067 147.144 283.136 147.967 283.393 148.742C283.64 149.517 284.119 150.2 284.767 150.695C285.414 151.2 286.225 151.45 287.045 151.398C287.859 151.34 288.637 151.027 289.265 150.506C289.9 149.982 290.421 149.338 290.798 148.605L290.883 148.647Z" fill="#AC95CF"/>
<path d="M301.359 141.336C302.817 141.336 304.35 142.248 305.373 144.191C306.86 147.013 306.086 149.77 304.25 150.932C303.69 151.294 303.039 151.486 302.375 151.486C300.92 151.486 299.383 150.574 298.361 148.631C296.864 145.806 297.648 143.048 299.484 141.886C300.044 141.528 300.695 141.336 301.359 141.336Z" fill="white"/>
<path d="M301.36 141.285C302.249 141.129 303.164 141.298 303.935 141.764C304.726 142.232 305.397 142.88 305.888 143.658C306.399 144.43 306.754 145.292 306.93 146.201C306.972 146.435 307.002 146.669 307.011 146.907V147.265V147.626C306.992 148.111 306.901 148.593 306.744 149.055C306.422 150.009 305.813 150.839 304.996 151.432C304.17 152.031 303.147 152.291 302.135 152.164C301.181 152.037 300.299 151.594 299.632 150.904C299.017 150.273 298.567 149.498 298.33 148.648L298.414 148.603C298.789 149.332 299.306 149.98 299.938 150.507C300.569 151.031 301.347 151.344 302.164 151.402C302.985 151.454 303.795 151.204 304.443 150.699C305.087 150.201 305.566 149.521 305.813 148.746C306.071 147.971 306.139 147.148 306.015 146.34C305.888 145.533 305.618 144.752 305.214 144.039C304.827 143.316 304.29 142.682 303.639 142.184C302.985 141.682 302.184 141.402 301.36 141.386V141.285Z" fill="#AC95CF"/>
<path d="M276.879 192.191L275.663 188.719H270.911L269.695 192.191H268.735L272.687 181.023H273.919L277.887 192.191H276.879ZM273.311 181.935H273.247L271.151 187.887H275.407L273.311 181.935ZM279.151 192.191V183.999H280.063V185.295H280.111C280.292 184.869 280.575 184.517 280.959 184.239C281.343 183.951 281.865 183.807 282.527 183.807C283.401 183.807 284.079 184.079 284.559 184.623C285.049 185.157 285.295 185.925 285.295 186.927V192.191H284.383V187.087C284.383 186.255 284.201 185.637 283.839 185.231C283.487 184.826 282.969 184.623 282.287 184.623C281.999 184.623 281.721 184.661 281.455 184.735C281.188 184.81 280.948 184.922 280.735 185.071C280.532 185.221 280.367 185.413 280.239 185.647C280.121 185.871 280.063 186.133 280.063 186.431V192.191H279.151ZM286.454 192.191L289.494 188.063L286.566 183.999H287.638L289.974 187.343H290.022L292.406 183.999H293.43L290.518 187.999L293.51 192.191H292.438L290.022 188.735H289.99L287.478 192.191H286.454ZM295.225 181.775C295.012 181.775 294.852 181.722 294.745 181.615C294.649 181.509 294.601 181.37 294.601 181.199V181.039C294.601 180.869 294.649 180.73 294.745 180.623C294.852 180.517 295.012 180.463 295.225 180.463C295.438 180.463 295.593 180.517 295.689 180.623C295.796 180.73 295.849 180.869 295.849 181.039V181.199C295.849 181.37 295.796 181.509 295.689 181.615C295.593 181.722 295.438 181.775 295.225 181.775ZM294.777 183.999H295.689V192.191H294.777V183.999ZM300.94 192.383C300.396 192.383 299.905 192.287 299.468 192.095C299.03 191.903 298.657 191.626 298.348 191.263C298.038 190.89 297.798 190.437 297.628 189.903C297.457 189.37 297.372 188.767 297.372 188.095C297.372 187.423 297.457 186.826 297.628 186.303C297.798 185.77 298.038 185.322 298.348 184.959C298.657 184.586 299.03 184.303 299.468 184.111C299.905 183.909 300.396 183.807 300.94 183.807C301.484 183.807 301.974 183.909 302.412 184.111C302.849 184.303 303.222 184.586 303.532 184.959C303.841 185.322 304.081 185.77 304.252 186.303C304.422 186.826 304.508 187.423 304.508 188.095C304.508 188.767 304.422 189.37 304.252 189.903C304.081 190.437 303.841 190.89 303.532 191.263C303.222 191.626 302.849 191.903 302.412 192.095C301.974 192.287 301.484 192.383 300.94 192.383ZM300.94 191.567C301.74 191.567 302.369 191.317 302.828 190.815C303.297 190.314 303.532 189.578 303.532 188.607V187.583C303.532 186.623 303.297 185.893 302.828 185.391C302.369 184.879 301.74 184.623 300.94 184.623C300.14 184.623 299.505 184.874 299.036 185.375C298.577 185.877 298.348 186.613 298.348 187.583V188.607C298.348 189.567 298.577 190.303 299.036 190.815C299.505 191.317 300.14 191.567 300.94 191.567ZM311.305 190.895H311.241C311.166 191.087 311.065 191.274 310.937 191.455C310.809 191.637 310.649 191.797 310.457 191.935C310.265 192.063 310.035 192.17 309.769 192.255C309.513 192.341 309.209 192.383 308.857 192.383C307.982 192.383 307.299 192.117 306.809 191.583C306.318 191.039 306.073 190.266 306.073 189.263V183.999H306.985V189.087C306.985 189.93 307.166 190.554 307.529 190.959C307.891 191.365 308.414 191.567 309.097 191.567C309.385 191.567 309.657 191.53 309.913 191.455C310.179 191.381 310.414 191.269 310.617 191.119C310.83 190.97 310.995 190.783 311.113 190.559C311.241 190.325 311.305 190.053 311.305 189.743V183.999H312.217V192.191H311.305V190.895ZM316.88 192.383C316.166 192.383 315.552 192.25 315.04 191.983C314.539 191.717 314.102 191.327 313.728 190.815L314.4 190.287C314.742 190.735 315.115 191.066 315.52 191.279C315.926 191.493 316.4 191.599 316.944 191.599C317.574 191.599 318.059 191.466 318.4 191.199C318.742 190.933 318.912 190.549 318.912 190.047C318.912 189.61 318.779 189.269 318.512 189.023C318.256 188.767 317.83 188.597 317.232 188.511L316.56 188.399C316.187 188.346 315.846 188.266 315.536 188.159C315.227 188.053 314.96 187.909 314.736 187.727C314.523 187.546 314.352 187.327 314.224 187.071C314.107 186.805 314.048 186.485 314.048 186.111C314.048 185.727 314.118 185.391 314.256 185.103C314.406 184.815 314.603 184.575 314.848 184.383C315.094 184.191 315.387 184.047 315.728 183.951C316.07 183.855 316.438 183.807 316.832 183.807C317.515 183.807 318.075 183.925 318.512 184.159C318.95 184.394 319.323 184.698 319.632 185.071L319.024 185.631C318.811 185.375 318.523 185.141 318.16 184.927C317.808 184.703 317.35 184.591 316.784 184.591C316.198 184.591 315.739 184.719 315.408 184.975C315.088 185.231 314.928 185.594 314.928 186.063C314.928 186.543 315.072 186.89 315.36 187.103C315.659 187.317 316.102 187.471 316.688 187.567L317.344 187.663C318.176 187.791 318.79 188.042 319.184 188.415C319.59 188.778 319.792 189.29 319.792 189.951C319.792 190.719 319.531 191.317 319.008 191.743C318.496 192.17 317.787 192.383 316.88 192.383Z" fill="black"/>
<path d="M179.5 345.479C170.147 345.479 160.056 339.613 160.056 326.74C160.056 313.867 170.147 308 179.5 308C184.696 308 189.49 309.71 193.044 312.827C196.899 316.247 198.944 321.074 198.944 326.74C198.944 332.405 196.899 337.199 193.044 340.618C189.49 343.736 184.663 345.479 179.5 345.479Z" fill="url(#paint25_radial_309_234)"/>
<path d="M195.554 315.601C197.341 318.484 198.273 321.917 198.273 325.736C198.273 331.401 196.228 336.195 192.373 339.614C188.82 342.732 183.992 344.475 178.83 344.475C172.775 344.475 166.412 342.011 162.678 336.785C166.285 342.705 173.067 345.481 179.5 345.481C184.663 345.481 189.49 343.738 193.043 340.62C196.899 337.201 198.944 332.407 198.944 326.741C198.944 322.47 197.78 318.676 195.554 315.601Z" fill="#AC95CF"/>
<path d="M179.5 345.479C170.147 345.479 160.056 339.613 160.056 326.74C160.056 313.867 170.147 308 179.5 308C184.696 308 189.49 309.71 193.044 312.827C196.899 316.247 198.944 321.074 198.944 326.74C198.944 332.405 196.899 337.199 193.044 340.618C189.49 343.736 184.663 345.479 179.5 345.479Z" fill="url(#paint26_radial_309_234)"/>
<path d="M195.554 315.601C197.341 318.484 198.273 321.917 198.273 325.736C198.273 331.401 196.228 336.195 192.373 339.614C188.82 342.732 183.992 344.475 178.83 344.475C172.775 344.475 166.412 342.011 162.678 336.785C166.285 342.705 173.067 345.481 179.5 345.481C184.663 345.481 189.49 343.738 193.043 340.62C196.899 337.201 198.944 332.407 198.944 326.741C198.944 322.47 197.78 318.676 195.554 315.601Z" fill="#AC95CF"/>
<path d="M185.567 317.283C182.734 318.057 181.189 320.464 181.672 323.541C181.967 325.439 183.867 329.116 188.909 328.003C191.916 327.34 193.438 325.151 193.381 322.284C193.378 322.107 193.264 322.003 193.231 321.996C193.231 321.996 193.16 322.063 193.046 322.489C192.47 324.631 190.964 326.632 188.272 326.931C184.903 327.306 183.187 324.966 182.925 323.29C182.58 321.061 183.713 319.11 185.906 318.51C187.203 318.154 188.464 318.523 189.365 319.522C189.788 319.991 190.244 320.86 190.089 321.718C189.664 324.061 187.488 324.027 186.74 323.471C186.171 323.042 185.969 322.15 187.159 321.859C187.592 321.755 187.964 321.654 188.081 321.081C188.158 320.715 187.857 320.343 187.532 320.179C186.814 319.814 185.906 320.152 185.366 320.621C184.786 321.124 184.545 321.912 184.699 322.78C184.82 323.458 185.369 324.343 186.318 324.815C187.488 325.399 190.572 325.328 191.296 322.304C191.628 320.913 191.021 319.475 190.371 318.734C188.537 316.659 186.03 317.155 185.567 317.283Z" fill="#422B0D"/>
<path d="M173.432 328.065C176.265 327.291 177.811 324.884 177.328 321.806C177.033 319.909 175.132 316.231 170.09 317.344C167.083 318.008 165.561 320.197 165.618 323.063C165.621 323.241 165.735 323.345 165.769 323.352C165.769 323.352 165.839 323.285 165.953 322.859C166.53 320.717 168.035 318.715 170.727 318.417C174.096 318.042 175.813 320.382 176.074 322.058C176.419 324.287 175.286 326.238 173.094 326.838C171.797 327.194 170.536 326.825 169.634 325.826C169.212 325.356 168.756 324.488 168.91 323.63C169.336 321.287 171.512 321.32 172.259 321.877C172.829 322.306 173.03 323.198 171.84 323.489C171.408 323.593 171.036 323.694 170.918 324.267C170.841 324.632 171.143 325.004 171.468 325.169C172.185 325.534 173.094 325.196 173.634 324.726C174.214 324.223 174.455 323.436 174.301 322.567C174.18 321.89 173.63 321.005 172.682 320.532C171.512 319.949 168.427 320.02 167.703 323.043C167.371 324.435 167.978 325.873 168.629 326.614C170.462 328.685 172.97 328.193 173.432 328.065Z" fill="#422B0D"/>
<path d="M191.397 334.905C190.897 334.329 189.368 333.293 186.593 334.651C185.976 334.952 185.651 335.294 184.534 335.214C183.8 335.164 183.25 334.808 182.62 334.403C181.819 333.886 180.91 333.31 179.502 333.253C178.094 333.31 177.186 333.886 176.385 334.403C175.751 334.812 175.205 335.164 174.471 335.214C173.354 335.294 172.999 335.006 172.382 334.704C169.606 333.347 168.108 334.329 167.608 334.905C167.162 335.422 167.464 335.971 168.285 335.385C168.792 335.023 169.7 334.563 171.755 335.723C172.416 336.095 173.039 336.659 174.564 336.551C175.644 336.474 176.391 335.995 177.112 335.529C177.816 335.073 178.49 334.647 179.502 334.594C180.518 334.647 181.189 335.073 181.893 335.529C182.613 335.995 183.361 336.478 184.44 336.551C185.966 336.659 186.559 336.042 187.22 335.67C189.275 334.51 190.213 335.023 190.719 335.385C191.537 335.971 191.842 335.422 191.397 334.905Z" fill="#422B0D"/>
<path d="M162.756 369.659L165.46 359.563H165.492L168.164 369.659H169.284L172.196 358.491H171.204L168.74 368.475H168.692L166.084 358.491H164.916L162.276 368.475H162.228L159.844 358.491H158.82L161.636 369.659H162.756ZM176.181 369.851C177.733 369.851 178.869 369.051 179.381 367.851L178.709 367.403C178.261 368.475 177.397 369.051 176.229 369.051C174.549 369.051 173.557 367.851 173.557 366.139V365.739H179.621V365.307C179.621 362.907 178.261 361.275 176.165 361.275C173.989 361.275 172.597 362.875 172.597 365.563C172.597 368.251 173.989 369.851 176.181 369.851ZM176.165 362.043C177.637 362.043 178.629 363.179 178.629 364.907V365.035H173.557V364.955C173.557 363.227 174.581 362.043 176.165 362.043ZM187.861 369.659V368.859H186.757V364.011C186.757 362.283 185.685 361.275 183.781 361.275C182.293 361.275 181.381 361.979 180.933 362.923L181.509 363.403C181.957 362.555 182.661 362.075 183.749 362.075C185.141 362.075 185.845 362.763 185.845 364.107V365.067H183.957C181.589 365.067 180.629 365.979 180.629 367.435C180.629 368.955 181.621 369.851 183.333 369.851C184.613 369.851 185.445 369.275 185.813 368.363H185.893V368.651C185.941 369.259 186.229 369.659 186.933 369.659H187.861ZM183.461 369.067C182.341 369.067 181.589 368.555 181.589 367.611V367.227C181.589 366.315 182.293 365.755 183.924 365.755H185.845V367.275C185.845 368.379 184.789 369.067 183.461 369.067ZM190.01 369.659V364.059C190.01 363.003 190.986 362.363 192.346 362.363H193.066V361.467H192.522C191.114 361.467 190.394 362.171 190.074 362.939H190.01V361.467H189.098V369.659H190.01ZM196.796 368.683H196.732L194.22 361.467H193.26L196.3 369.899L195.516 372.059H194.14V372.859H195.068C195.9 372.859 196.172 372.651 196.428 371.963L200.22 361.467H199.292L196.796 368.683Z" fill="black"/>
<path d="M22.64 40H24.9V28.04H29.06V26.04H18.48V28.04H22.64V40ZM31.5845 40V33.36C31.5845 32.28 32.5445 31.7 34.2645 31.7H35.1245V29.6H34.5445C32.8845 29.6 31.9845 30.54 31.6845 31.6H31.5845V29.6H29.4045V40H31.5845ZM44.9445 40V38.22H43.8445V33C43.8445 30.68 42.3445 29.36 39.6645 29.36C37.6445 29.36 36.4245 30.22 35.7445 31.38L37.0445 32.56C37.5645 31.74 38.3045 31.14 39.5245 31.14C40.9845 31.14 41.6645 31.88 41.6645 33.14V34.02H39.7845C36.8845 34.02 35.3445 35.08 35.3445 37.14C35.3445 39.02 36.5645 40.24 38.7045 40.24C40.2245 40.24 41.3445 39.56 41.7445 38.26H41.8445C41.9845 39.28 42.5845 40 43.7245 40H44.9445ZM39.3245 38.58C38.2445 38.58 37.5645 38.1 37.5645 37.18V36.82C37.5645 35.92 38.3045 35.42 39.8245 35.42H41.6645V36.92C41.6645 37.94 40.6645 38.58 39.3245 38.58ZM52.8211 40H55.0011V25.2H52.8211V31.32H52.7211C52.2811 30.08 51.1811 29.36 49.8011 29.36C47.1811 29.36 45.6611 31.38 45.6611 34.8C45.6611 38.22 47.1811 40.24 49.8011 40.24C51.1811 40.24 52.2811 39.5 52.7211 38.28H52.8211V40ZM50.4611 38.36C48.9611 38.36 47.9611 37.3 47.9611 35.7V33.9C47.9611 32.3 48.9611 31.24 50.4611 31.24C51.7811 31.24 52.8211 31.96 52.8211 33.02V36.58C52.8211 37.64 51.7811 38.36 50.4611 38.36ZM58.417 27.74C59.317 27.74 59.697 27.26 59.697 26.6V26.26C59.697 25.6 59.317 25.12 58.417 25.12C57.517 25.12 57.117 25.6 57.117 26.26V26.6C57.117 27.26 57.517 27.74 58.417 27.74ZM57.317 40H59.497V29.6H57.317V40ZM66.59 40V38.22H64.57V31.38H66.75V29.6H64.57V26.76H62.61V28.58C62.61 29.3 62.37 29.6 61.65 29.6H60.77V31.38H62.39V37.74C62.39 39.16 63.19 40 64.69 40H66.59ZM69.4147 27.74C70.3147 27.74 70.6947 27.26 70.6947 26.6V26.26C70.6947 25.6 70.3147 25.12 69.4147 25.12C68.5147 25.12 68.1147 25.6 68.1147 26.26V26.6C68.1147 27.26 68.5147 27.74 69.4147 27.74ZM68.3147 40H70.4947V29.6H68.3147V40ZM76.8877 40.24C79.7877 40.24 81.6677 38.12 81.6677 34.8C81.6677 31.48 79.7877 29.36 76.8877 29.36C73.9877 29.36 72.1077 31.48 72.1077 34.8C72.1077 38.12 73.9877 40.24 76.8877 40.24ZM76.8877 38.44C75.4077 38.44 74.4077 37.52 74.4077 35.68V33.92C74.4077 32.08 75.4077 31.16 76.8877 31.16C78.3677 31.16 79.3677 32.08 79.3677 33.92V35.68C79.3677 37.52 78.3677 38.44 76.8877 38.44ZM85.4767 40V33.04C85.4767 31.82 86.5967 31.24 87.7367 31.24C89.0767 31.24 89.6967 32.06 89.6967 33.68V40H91.8767V33.4C91.8767 30.84 90.6167 29.36 88.4967 29.36C86.8967 29.36 86.0167 30.2 85.5767 31.32H85.4767V29.6H83.2967V40H85.4767ZM102.938 40V38.22H101.838V33C101.838 30.68 100.338 29.36 97.6583 29.36C95.6383 29.36 94.4183 30.22 93.7383 31.38L95.0383 32.56C95.5583 31.74 96.2983 31.14 97.5183 31.14C98.9783 31.14 99.6583 31.88 99.6583 33.14V34.02H97.7783C94.8783 34.02 93.3383 35.08 93.3383 37.14C93.3383 39.02 94.5583 40.24 96.6983 40.24C98.2183 40.24 99.3383 39.56 99.7383 38.26H99.8383C99.9783 39.28 100.578 40 101.718 40H102.938ZM97.3183 38.58C96.2383 38.58 95.5583 38.1 95.5583 37.18V36.82C95.5583 35.92 96.2983 35.42 97.8183 35.42H99.6583V36.92C99.6583 37.94 98.6583 38.58 97.3183 38.58ZM107.895 40V38.22H106.455V25.2H104.275V37.84C104.275 39.18 105.015 40 106.495 40H107.895Z" fill="black"/>
<defs>
<radialGradient id="paint0_radial_309_234" cx="0" cy="0" r="1" gradientUnits="userSpaceOnUse" gradientTransform="translate(185.808 104.127) scale(18.4704 18.4704)">
<stop offset="0.5" stop-color="#FDE030"/>
<stop offset="0.92" stop-color="#F7C02B"/>
<stop offset="1" stop-color="#F4A223"/>
</radialGradient>
<radialGradient id="paint1_radial_309_234" cx="0" cy="0" r="1" gradientUnits="userSpaceOnUse" gradientTransform="translate(72.1744 148.087) scale(18.4301)">
<stop offset="0.5" stop-color="#FDE030"/>
<stop offset="0.92" stop-color="#F7C02B"/>
<stop offset="1" stop-color="#F4A223"/>
</radialGradient>
<linearGradient id="paint2_linear_309_234" x1="72.1744" y1="166.174" x2="72.1744" y2="130" gradientUnits="userSpaceOnUse">
<stop offset="0.39" stop-color="#40C0E7" stop-opacity="0"/>
<stop offset="1" stop-color="#5F7AFF"/>
</linearGradient>
<radialGradient id="paint3_radial_309_234" cx="0" cy="0" r="1" gradientUnits="userSpaceOnUse" gradientTransform="translate(58.2582 148.102) scale(10.807 16.6428)">
<stop offset="0.46" stop-color="#29B6F6"/>
<stop offset="1" stop-color="#1E88E5"/>
</radialGradient>
<radialGradient id="paint4_radial_309_234" cx="0" cy="0" r="1" gradientUnits="userSpaceOnUse" gradientTransform="translate(293.457 270.196) scale(18.5414 18.5415)">
<stop offset="0.5" stop-color="#FDE030"/>
<stop offset="0.92" stop-color="#F7C02B"/>
<stop offset="1" stop-color="#F4A223"/>
</radialGradient>
<linearGradient id="paint5_linear_309_234" x1="293.457" y1="288.393" x2="293.457" y2="252" gradientUnits="userSpaceOnUse">
<stop offset="0.39" stop-color="#40C0E7" stop-opacity="0"/>
<stop offset="1" stop-color="#5F7AFF"/>
</linearGradient>
<linearGradient id="paint6_linear_309_234" x1="293.457" y1="288.393" x2="293.457" y2="252" gradientUnits="userSpaceOnUse">
<stop offset="0.16" stop-color="#F4A223"/>
<stop offset="0.33" stop-color="#F7C02B"/>
<stop offset="0.81" stop-color="#FDE030" stop-opacity="0"/>
</linearGradient>
<linearGradient id="paint7_linear_309_234" x1="304.752" y1="291.332" x2="304.752" y2="275.153" gradientUnits="userSpaceOnUse">
<stop stop-color="#ED6C30"/>
<stop offset="1" stop-color="#ED6C30" stop-opacity="0.2"/>
</linearGradient>
<radialGradient id="paint8_radial_309_234" cx="0" cy="0" r="1" gradientUnits="userSpaceOnUse" gradientTransform="translate(302.539 280.414) rotate(141.52) scale(14.5501 13.4099)">
<stop offset="0.27" stop-color="#FFF176"/>
<stop offset="1" stop-color="#FFC400"/>
</radialGradient>
<linearGradient id="paint9_linear_309_234" x1="282.244" y1="291.332" x2="282.244" y2="275.153" gradientUnits="userSpaceOnUse">
<stop stop-color="#ED6C30"/>
<stop offset="1" stop-color="#ED6C30" stop-opacity="0.2"/>
</linearGradient>
<radialGradient id="paint10_radial_309_234" cx="0" cy="0" r="1" gradientUnits="userSpaceOnUse" gradientTransform="translate(284.444 280.389) rotate(38.4803) scale(14.5501 13.4099)">
<stop offset="0.27" stop-color="#FFF176"/>
<stop offset="1" stop-color="#FFC400"/>
</radialGradient>
<radialGradient id="paint11_radial_309_234" cx="0" cy="0" r="1" gradientUnits="userSpaceOnUse" gradientTransform="translate(69.4571 263.197) scale(18.5414 18.5415)">
<stop offset="0.5" stop-color="#FDE030"/>
<stop offset="0.92" stop-color="#F7C02B"/>
<stop offset="1" stop-color="#F4A223"/>
</radialGradient>
<linearGradient id="paint12_linear_309_234" x1="69.4571" y1="281.393" x2="69.4571" y2="245" gradientUnits="userSpaceOnUse">
<stop offset="0.39" stop-color="#40C0E7" stop-opacity="0"/>
<stop offset="1" stop-color="#5F7AFF"/>
</linearGradient>
<linearGradient id="paint13_linear_309_234" x1="69.4571" y1="281.393" x2="69.4571" y2="245" gradientUnits="userSpaceOnUse">
<stop offset="0.16" stop-color="#F4A223"/>
<stop offset="0.33" stop-color="#F7C02B"/>
<stop offset="0.81" stop-color="#FDE030" stop-opacity="0"/>
</linearGradient>
<linearGradient id="paint14_linear_309_234" x1="80.7518" y1="284.332" x2="80.7518" y2="268.154" gradientUnits="userSpaceOnUse">
<stop stop-color="#ED6C30"/>
<stop offset="1" stop-color="#ED6C30" stop-opacity="0.2"/>
</linearGradient>
<radialGradient id="paint15_radial_309_234" cx="0" cy="0" r="1" gradientUnits="userSpaceOnUse" gradientTransform="translate(78.5392 273.414) rotate(141.52) scale(14.5501 13.4099)">
<stop offset="0.27" stop-color="#FFF176"/>
<stop offset="1" stop-color="#FFC400"/>
</radialGradient>
<linearGradient id="paint16_linear_309_234" x1="58.2439" y1="284.332" x2="58.2439" y2="268.153" gradientUnits="userSpaceOnUse">
<stop stop-color="#ED6C30"/>
<stop offset="1" stop-color="#ED6C30" stop-opacity="0.2"/>
</linearGradient>
<radialGradient id="paint17_radial_309_234" cx="0" cy="0" r="1" gradientUnits="userSpaceOnUse" gradientTransform="translate(60.4445 273.389) rotate(38.4803) scale(14.5501 13.4099)">
<stop offset="0.27" stop-color="#FFF176"/>
<stop offset="1" stop-color="#FFC400"/>
</radialGradient>
<radialGradient id="paint18_radial_309_234" cx="0" cy="0" r="1" gradientUnits="userSpaceOnUse" gradientTransform="translate(294.457 148.197) scale(18.5414 18.5415)">
<stop offset="0.5" stop-color="#FDE030"/>
<stop offset="0.92" stop-color="#F7C02B"/>
<stop offset="1" stop-color="#F4A223"/>
</radialGradient>
<linearGradient id="paint19_linear_309_234" x1="294.457" y1="166.393" x2="294.457" y2="130" gradientUnits="userSpaceOnUse">
<stop offset="0.39" stop-color="#40C0E7" stop-opacity="0"/>
<stop offset="1" stop-color="#5F7AFF"/>
</linearGradient>
<linearGradient id="paint20_linear_309_234" x1="294.457" y1="166.393" x2="294.457" y2="130" gradientUnits="userSpaceOnUse">
<stop offset="0.16" stop-color="#F4A223"/>
<stop offset="0.33" stop-color="#F7C02B"/>
<stop offset="0.81" stop-color="#FDE030" stop-opacity="0"/>
</linearGradient>
<linearGradient id="paint21_linear_309_234" x1="305.752" y1="169.332" x2="305.752" y2="153.154" gradientUnits="userSpaceOnUse">
<stop stop-color="#ED6C30"/>
<stop offset="1" stop-color="#ED6C30" stop-opacity="0.2"/>
</linearGradient>
<radialGradient id="paint22_radial_309_234" cx="0" cy="0" r="1" gradientUnits="userSpaceOnUse" gradientTransform="translate(303.539 158.414) rotate(141.52) scale(14.5501 13.4099)">
<stop offset="0.27" stop-color="#FFF176"/>
<stop offset="1" stop-color="#FFC400"/>
</radialGradient>
<linearGradient id="paint23_linear_309_234" x1="283.244" y1="169.332" x2="283.244" y2="153.153" gradientUnits="userSpaceOnUse">
<stop stop-color="#ED6C30"/>
<stop offset="1" stop-color="#ED6C30" stop-opacity="0.2"/>
</linearGradient>
<radialGradient id="paint24_radial_309_234" cx="0" cy="0" r="1" gradientUnits="userSpaceOnUse" gradientTransform="translate(285.444 158.389) rotate(38.4803) scale(14.5501 13.4099)">
<stop offset="0.27" stop-color="#FFF176"/>
<stop offset="1" stop-color="#FFC400"/>
</radialGradient>
<radialGradient id="paint25_radial_309_234" cx="0" cy="0" r="1" gradientUnits="userSpaceOnUse" gradientTransform="translate(179.5 326.74) scale(19.0949 19.095)">
<stop offset="0.5" stop-color="#FDE030"/>
<stop offset="0.9188" stop-color="#F7C02B"/>
<stop offset="1" stop-color="#F4A223"/>
</radialGradient>
<radialGradient id="paint26_radial_309_234" cx="0" cy="0" r="1" gradientUnits="userSpaceOnUse" gradientTransform="translate(179.5 326.74) scale(19.0949 19.095)">
<stop offset="0.5" stop-color="#FDE030"/>
<stop offset="0.9188" stop-color="#F7C02B"/>
<stop offset="1" stop-color="#F4A223"/>
</radialGradient>
</defs>
</svg>
