<svg width="1440" height="1932" viewBox="0 0 1440 1932" fill="none" xmlns="http://www.w3.org/2000/svg">
<g filter="url(#filter0_f_511_108)">
<path d="M1122.14 1266.46C1175.33 1034.7 1360.43 1070.88 1446.33 1117.94L1597.42 1495.52C1459.02 1584.09 1197.03 1717.26 1256.28 1541.43C1330.36 1321.64 1055.65 1556.16 1122.14 1266.46Z" fill="#FBEFE6"/>
</g>
<g filter="url(#filter1_f_511_108)">
<path d="M106.136 834.456C-127.367 884.695 -173.092 700.846 -166.767 602.641L112.627 304.428C252.028 392.687 484.535 574.431 299.353 595.343C67.8762 621.482 398.016 771.657 106.136 834.456Z" fill="#E4DDEF"/>
</g>
<path d="M230.5 1390H230.25V1390.25H230.5V1390ZM230.5 1257.5H230.75V1257.25H230.5V1257.5ZM231.5 1390V1390.25H231.75V1390H231.5ZM231.5 1257.5V1257.25H231.25V1257.5H231.5ZM483.5 1257.5H483.75V1257.25H483.5V1257.5ZM483.5 1390H483.25V1390.25H483.5V1390ZM484.5 1390V1390.25H484.75V1390H484.5ZM484.5 1257.5V1257.25H484.25V1257.5H484.5ZM736.5 1257.5H736.75V1257.25H736.5V1257.5ZM736.5 1390H736.25V1390.25H736.5V1390ZM737.5 1390V1390.25H737.75V1390H737.5ZM737.5 1257.5V1257.25H737.25V1257.5H737.5ZM989.5 1257.5H989.75V1257.25H989.5V1257.5ZM989.5 1390H989.25V1390.25H989.5V1390ZM990.5 1390V1390.25H990.75V1390H990.5ZM990.5 1257.5V1257.25H990.25V1257.5H990.5ZM1242.5 1257.5H1242.75V1257.25H1242.5V1257.5ZM1242.5 1390H1242.25V1390.25H1242.5V1390ZM1243.5 1390V1390.25H1243.75V1390H1243.5ZM1243.5 1257.5V1257.25H1243.25V1257.5H1243.5ZM1456 1257.5V1257.75H1456.25V1257.5H1456ZM1456 1256.5H1456.25V1256.25H1456V1256.5ZM1243.5 1256.5H1243.25V1256.75H1243.5V1256.5ZM1243.5 1004.5V1004.25H1243.25V1004.5H1243.5ZM1456 1004.5V1004.75H1456.25V1004.5H1456ZM1456 1003.5H1456.25V1003.25H1456V1003.5ZM1243.5 1003.5H1243.25V1003.75H1243.5V1003.5ZM1243.5 751.5V751.25H1243.25V751.5H1243.5ZM1456 751.5V751.75H1456.25V751.5H1456ZM1456 750.5H1456.25V750.25H1456V750.5ZM1243.5 750.5H1243.25V750.75H1243.5V750.5ZM1243.5 549.5H1243.75V549.25H1243.5V549.5ZM1242.5 549.5V549.25H1242.25V549.5H1242.5ZM1242.5 750.5V750.75H1242.75V750.5H1242.5ZM990.5 750.5H990.25V750.75H990.5V750.5ZM990.5 549.5H990.75V549.25H990.5V549.5ZM989.5 549.5V549.25H989.25V549.5H989.5ZM989.5 750.5V750.75H989.75V750.5H989.5ZM737.5 750.5H737.25V750.75H737.5V750.5ZM737.5 549.5H737.75V549.25H737.5V549.5ZM736.5 549.5V549.25H736.25V549.5H736.5ZM736.5 750.5V750.75H736.75V750.5H736.5ZM484.5 750.5H484.25V750.75H484.5V750.5ZM484.5 549.5H484.75V549.25H484.5V549.5ZM483.5 549.5V549.25H483.25V549.5H483.5ZM483.5 750.5V750.75H483.75V750.5H483.5ZM231.5 750.5H231.25V750.75H231.5V750.5ZM231.5 549.5H231.75V549.25H231.5V549.5ZM230.5 549.5V549.25H230.25V549.5H230.5ZM230.5 750.5V750.75H230.75V750.5H230.5ZM17 750.5V750.25H16.75V750.5H17ZM17 751.5H16.75V751.75H17V751.5ZM230.5 751.5H230.75V751.25H230.5V751.5ZM230.5 1003.5V1003.75H230.75V1003.5H230.5ZM17 1003.5V1003.25H16.75V1003.5H17ZM17 1004.5H16.75V1004.75H17V1004.5ZM230.5 1004.5H230.75V1004.25H230.5V1004.5ZM230.5 1256.5V1256.75H230.75V1256.5H230.5ZM17 1256.5V1256.25H16.75V1256.5H17ZM17 1257.5H16.75V1257.75H17V1257.5ZM483.5 1256.5V1256.75H483.75V1256.5H483.5ZM231.5 1256.5H231.25V1256.75H231.5V1256.5ZM483.5 1004.5H483.75V1004.25H483.5V1004.5ZM231.5 1004.5V1004.25H231.25V1004.5H231.5ZM231.5 1003.5H231.25V1003.75H231.5V1003.5ZM483.5 1003.5V1003.75H483.75V1003.5H483.5ZM483.5 751.5H483.75V751.25H483.5V751.5ZM231.5 751.5V751.25H231.25V751.5H231.5ZM484.5 751.5V751.25H484.25V751.5H484.5ZM484.5 1003.5H484.25V1003.75H484.5V1003.5ZM736.5 1003.5V1003.75H736.75V1003.5H736.5ZM736.5 751.5H736.75V751.25H736.5V751.5ZM737.5 1003.5H737.25V1003.75H737.5V1003.5ZM737.5 751.5V751.25H737.25V751.5H737.5ZM989.5 1003.5V1003.75H989.75V1003.5H989.5ZM989.5 751.5H989.75V751.25H989.5V751.5ZM990.5 751.5V751.25H990.25V751.5H990.5ZM990.5 1003.5H990.25V1003.75H990.5V1003.5ZM1242.5 1003.5V1003.75H1242.75V1003.5H1242.5ZM1242.5 751.5H1242.75V751.25H1242.5V751.5ZM1242.5 1004.5H1242.75V1004.25H1242.5V1004.5ZM990.5 1004.5V1004.25H990.25V1004.5H990.5ZM990.5 1256.5H990.25V1256.75H990.5V1256.5ZM1242.5 1256.5V1256.75H1242.75V1256.5H1242.5ZM989.5 1256.5V1256.75H989.75V1256.5H989.5ZM989.5 1004.5H989.75V1004.25H989.5V1004.5ZM737.5 1004.5V1004.25H737.25V1004.5H737.5ZM737.5 1256.5H737.25V1256.75H737.5V1256.5ZM736.5 1004.5H736.75V1004.25H736.5V1004.5ZM736.5 1256.5V1256.75H736.75V1256.5H736.5ZM484.5 1004.5V1004.25H484.25V1004.5H484.5ZM484.5 1256.5H484.25V1256.75H484.5V1256.5ZM230.75 1390V1384.48H230.25V1390H230.75ZM230.75 1373.44V1362.4H230.25V1373.44H230.75ZM230.75 1351.35V1340.31H230.25V1351.35H230.75ZM230.75 1329.27V1318.23H230.25V1329.27H230.75ZM230.75 1307.19V1296.15H230.25V1307.19H230.75ZM230.75 1285.1V1274.06H230.25V1285.1H230.75ZM230.75 1263.02V1257.5H230.25V1263.02H230.75ZM230.5 1257.25H224.569V1257.75H230.5V1257.25ZM212.708 1257.25H200.847V1257.75H212.708V1257.25ZM188.986 1257.25H177.125V1257.75H188.986V1257.25ZM165.264 1257.25H153.403V1257.75H165.264V1257.25ZM141.542 1257.25H129.681V1257.75H141.542V1257.25ZM117.819 1257.25H105.958V1257.75H117.819V1257.25ZM94.0972 1257.25H82.2361V1257.75H94.0972V1257.25ZM70.375 1257.25H58.5139V1257.75H70.375V1257.25ZM46.6528 1257.25H34.7916V1257.75H46.6528V1257.25ZM22.9305 1257.25H17V1257.75H22.9305V1257.25ZM17.25 1257.5V1257.25H16.75V1257.5H17.25ZM17.25 1256.75V1256.5H16.75V1256.75H17.25ZM17 1256.75H22.9306V1256.25H17V1256.75ZM34.7917 1256.75H46.6528V1256.25H34.7917V1256.75ZM58.5139 1256.75H70.375V1256.25H58.5139V1256.75ZM82.2361 1256.75H94.0972V1256.25H82.2361V1256.75ZM105.958 1256.75H117.819V1256.25H105.958V1256.75ZM129.681 1256.75H141.542V1256.25H129.681V1256.75ZM153.403 1256.75H165.264V1256.25H153.403V1256.75ZM177.125 1256.75H188.986V1256.25H177.125V1256.75ZM200.847 1256.75H212.708V1256.25H200.847V1256.75ZM224.569 1256.75H230.5V1256.25H224.569V1256.75ZM230.75 1256.5V1250.77H230.25V1256.5H230.75ZM230.75 1239.32V1227.86H230.25V1239.32H230.75ZM230.75 1216.41V1204.95H230.25V1216.41H230.75ZM230.75 1193.5V1182.05H230.25V1193.5H230.75ZM230.75 1170.59V1159.14H230.25V1170.59H230.75ZM230.75 1147.68V1136.23H230.25V1147.68H230.75ZM230.75 1124.77V1113.32H230.25V1124.77H230.75ZM230.75 1101.86V1090.41H230.25V1101.86H230.75ZM230.75 1078.95V1067.5H230.25V1078.95H230.75ZM230.75 1056.05V1044.59H230.25V1056.05H230.75ZM230.75 1033.14V1021.68H230.25V1033.14H230.75ZM230.75 1010.23V1004.5H230.25V1010.23H230.75ZM230.5 1004.25H224.569V1004.75H230.5V1004.25ZM212.708 1004.25H200.847V1004.75H212.708V1004.25ZM188.986 1004.25H177.125V1004.75H188.986V1004.25ZM165.264 1004.25H153.403V1004.75H165.264V1004.25ZM141.542 1004.25H129.681V1004.75H141.542V1004.25ZM117.819 1004.25H105.958V1004.75H117.819V1004.25ZM94.0972 1004.25H82.2361V1004.75H94.0972V1004.25ZM70.375 1004.25H58.5139V1004.75H70.375V1004.25ZM46.6528 1004.25H34.7916V1004.75H46.6528V1004.25ZM22.9305 1004.25H17V1004.75H22.9305V1004.25ZM17.25 1004.5V1004.25H16.75V1004.5H17.25ZM17.25 1003.75V1003.5H16.75V1003.75H17.25ZM17 1003.75H22.9306V1003.25H17V1003.75ZM34.7917 1003.75H46.6528V1003.25H34.7917V1003.75ZM58.5139 1003.75H70.375V1003.25H58.5139V1003.75ZM82.2361 1003.75H94.0972V1003.25H82.2361V1003.75ZM105.958 1003.75H117.819V1003.25H105.958V1003.75ZM129.681 1003.75H141.542V1003.25H129.681V1003.75ZM153.403 1003.75H165.264V1003.25H153.403V1003.75ZM177.125 1003.75H188.986V1003.25H177.125V1003.75ZM200.847 1003.75H212.708V1003.25H200.847V1003.75ZM224.569 1003.75H230.5V1003.25H224.569V1003.75ZM230.75 1003.5V997.773H230.25V1003.5H230.75ZM230.75 986.318V974.864H230.25V986.318H230.75ZM230.75 963.409V951.955H230.25V963.409H230.75ZM230.75 940.5V929.046H230.25V940.5H230.75ZM230.75 917.591V906.137H230.25V917.591H230.75ZM230.75 894.682V883.228H230.25V894.682H230.75ZM230.75 871.773V860.318H230.25V871.773H230.75ZM230.75 848.864V837.409H230.25V848.864H230.75ZM230.75 825.955V814.5H230.25V825.955H230.75ZM230.75 803.046V791.591H230.25V803.046H230.75ZM230.75 780.137V768.682H230.25V780.137H230.75ZM230.75 757.228V751.5H230.25V757.228H230.75ZM230.5 751.25H224.569V751.75H230.5V751.25ZM212.708 751.25H200.847V751.75H212.708V751.25ZM188.986 751.25H177.125V751.75H188.986V751.25ZM165.264 751.25H153.403V751.75H165.264V751.25ZM141.542 751.25H129.681V751.75H141.542V751.25ZM117.819 751.25H105.958V751.75H117.819V751.25ZM94.0972 751.25H82.2361V751.75H94.0972V751.25ZM70.375 751.25H58.5139V751.75H70.375V751.25ZM46.6528 751.25H34.7916V751.75H46.6528V751.25ZM22.9305 751.25H17V751.75H22.9305V751.25ZM17.25 751.5V751.25H16.75V751.5H17.25ZM17.25 750.75V750.5H16.75V750.75H17.25ZM17 750.75H22.9306V750.25H17V750.75ZM34.7917 750.75H46.6528V750.25H34.7917V750.75ZM58.5139 750.75H70.375V750.25H58.5139V750.75ZM82.2361 750.75H94.0972V750.25H82.2361V750.75ZM105.958 750.75H117.819V750.25H105.958V750.75ZM129.681 750.75H141.542V750.25H129.681V750.75ZM153.403 750.75H165.264V750.25H153.403V750.75ZM177.125 750.75H188.986V750.25H177.125V750.75ZM200.847 750.75H212.708V750.25H200.847V750.75ZM224.569 750.75H230.5V750.25H224.569V750.75ZM230.75 750.5V744.219H230.25V750.5H230.75ZM230.75 731.656V719.094H230.25V731.656H230.75ZM230.75 706.531V693.969H230.25V706.531H230.75ZM230.75 681.406V668.844H230.25V681.406H230.75ZM230.75 656.281V643.719H230.25V656.281H230.75ZM230.75 631.156V618.594H230.25V631.156H230.75ZM230.75 606.031V593.469H230.25V606.031H230.75ZM230.75 580.906V568.344H230.25V580.906H230.75ZM230.75 555.781V549.5H230.25V555.781H230.75ZM230.5 549.75H230.75V549.25H230.5V549.75ZM231.25 549.75H231.5V549.25H231.25V549.75ZM231.25 549.5V555.781H231.75V549.5H231.25ZM231.25 568.344V580.906H231.75V568.344H231.25ZM231.25 593.469V606.031H231.75V593.469H231.25ZM231.25 618.594V631.156H231.75V618.594H231.25ZM231.25 643.719V656.281H231.75V643.719H231.25ZM231.25 668.844V681.406H231.75V668.844H231.25ZM231.25 693.969V706.531H231.75V693.969H231.25ZM231.25 719.094V731.656H231.75V719.094H231.25ZM231.25 744.219V750.5H231.75V744.219H231.25ZM231.5 750.75H237.227V750.25H231.5V750.75ZM248.682 750.75H260.136V750.25H248.682V750.75ZM271.591 750.75H283.045V750.25H271.591V750.75ZM294.5 750.75H305.955V750.25H294.5V750.75ZM317.409 750.75H328.864V750.25H317.409V750.75ZM340.318 750.75H351.773V750.25H340.318V750.75ZM363.227 750.75H374.682V750.25H363.227V750.75ZM386.136 750.75H397.591V750.25H386.136V750.75ZM409.045 750.75H420.5V750.25H409.045V750.75ZM431.955 750.75H443.409V750.25H431.955V750.75ZM454.864 750.75H466.318V750.25H454.864V750.75ZM477.773 750.75H483.5V750.25H477.773V750.75ZM483.75 750.5V744.219H483.25V750.5H483.75ZM483.75 731.656V719.094H483.25V731.656H483.75ZM483.75 706.531V693.969H483.25V706.531H483.75ZM483.75 681.406V668.844H483.25V681.406H483.75ZM483.75 656.281V643.719H483.25V656.281H483.75ZM483.75 631.156V618.594H483.25V631.156H483.75ZM483.75 606.031V593.469H483.25V606.031H483.75ZM483.75 580.906V568.344H483.25V580.906H483.75ZM483.75 555.781V549.5H483.25V555.781H483.75ZM483.5 549.75H483.75V549.25H483.5V549.75ZM484.25 549.75H484.5V549.25H484.25V549.75ZM484.25 549.5V555.781H484.75V549.5H484.25ZM484.25 568.344V580.906H484.75V568.344H484.25ZM484.25 593.469V606.031H484.75V593.469H484.25ZM484.25 618.594V631.156H484.75V618.594H484.25ZM484.25 643.719V656.281H484.75V643.719H484.25ZM484.25 668.844V681.406H484.75V668.844H484.25ZM484.25 693.969V706.531H484.75V693.969H484.25ZM484.25 719.094V731.656H484.75V719.094H484.25ZM484.25 744.219V750.5H484.75V744.219H484.25ZM484.5 750.75H490.227V750.25H484.5V750.75ZM501.682 750.75H513.136V750.25H501.682V750.75ZM524.591 750.75H536.045V750.25H524.591V750.75ZM547.5 750.75H558.955V750.25H547.5V750.75ZM570.409 750.75H581.864V750.25H570.409V750.75ZM593.318 750.75H604.773V750.25H593.318V750.75ZM616.227 750.75H627.682V750.25H616.227V750.75ZM639.136 750.75H650.591V750.25H639.136V750.75ZM662.045 750.75H673.5V750.25H662.045V750.75ZM684.955 750.75H696.409V750.25H684.955V750.75ZM707.864 750.75H719.318V750.25H707.864V750.75ZM730.773 750.75H736.5V750.25H730.773V750.75ZM736.75 750.5V744.219H736.25V750.5H736.75ZM736.75 731.656V719.094H736.25V731.656H736.75ZM736.75 706.531V693.969H736.25V706.531H736.75ZM736.75 681.406V668.844H736.25V681.406H736.75ZM736.75 656.281V643.719H736.25V656.281H736.75ZM736.75 631.156V618.594H736.25V631.156H736.75ZM736.75 606.031V593.469H736.25V606.031H736.75ZM736.75 580.906V568.344H736.25V580.906H736.75ZM736.75 555.781V549.5H736.25V555.781H736.75ZM736.5 549.75H736.75V549.25H736.5V549.75ZM737.25 549.75H737.5V549.25H737.25V549.75ZM737.25 549.5V555.781H737.75V549.5H737.25ZM737.25 568.344V580.906H737.75V568.344H737.25ZM737.25 593.469V606.031H737.75V593.469H737.25ZM737.25 618.594V631.156H737.75V618.594H737.25ZM737.25 643.719V656.281H737.75V643.719H737.25ZM737.25 668.844V681.406H737.75V668.844H737.25ZM737.25 693.969V706.531H737.75V693.969H737.25ZM737.25 719.094V731.656H737.75V719.094H737.25ZM737.25 744.219V750.5H737.75V744.219H737.25ZM737.5 750.75H743.227V750.25H737.5V750.75ZM754.682 750.75H766.136V750.25H754.682V750.75ZM777.591 750.75H789.045V750.25H777.591V750.75ZM800.5 750.75H811.955V750.25H800.5V750.75ZM823.409 750.75H834.864V750.25H823.409V750.75ZM846.318 750.75H857.773V750.25H846.318V750.75ZM869.227 750.75H880.682V750.25H869.227V750.75ZM892.136 750.75H903.591V750.25H892.136V750.75ZM915.045 750.75H926.5V750.25H915.045V750.75ZM937.955 750.75H949.409V750.25H937.955V750.75ZM960.864 750.75H972.318V750.25H960.864V750.75ZM983.773 750.75H989.5V750.25H983.773V750.75ZM989.75 750.5V744.219H989.25V750.5H989.75ZM989.75 731.656V719.094H989.25V731.656H989.75ZM989.75 706.531V693.969H989.25V706.531H989.75ZM989.75 681.406V668.844H989.25V681.406H989.75ZM989.75 656.281V643.719H989.25V656.281H989.75ZM989.75 631.156V618.594H989.25V631.156H989.75ZM989.75 606.031V593.469H989.25V606.031H989.75ZM989.75 580.906V568.344H989.25V580.906H989.75ZM989.75 555.781V549.5H989.25V555.781H989.75ZM989.5 549.75H989.75V549.25H989.5V549.75ZM990.25 549.75H990.5V549.25H990.25V549.75ZM990.25 549.5V555.781H990.75V549.5H990.25ZM990.25 568.344V580.906H990.75V568.344H990.25ZM990.25 593.469V606.031H990.75V593.469H990.25ZM990.25 618.594V631.156H990.75V618.594H990.25ZM990.25 643.719V656.281H990.75V643.719H990.25ZM990.25 668.844V681.406H990.75V668.844H990.25ZM990.25 693.969V706.531H990.75V693.969H990.25ZM990.25 719.094V731.656H990.75V719.094H990.25ZM990.25 744.219V750.5H990.75V744.219H990.25ZM990.5 750.75H996.227V750.25H990.5V750.75ZM1007.68 750.75H1019.14V750.25H1007.68V750.75ZM1030.59 750.75H1042.05V750.25H1030.59V750.75ZM1053.5 750.75H1064.95V750.25H1053.5V750.75ZM1076.41 750.75H1087.86V750.25H1076.41V750.75ZM1099.32 750.75H1110.77V750.25H1099.32V750.75ZM1122.23 750.75H1133.68V750.25H1122.23V750.75ZM1145.14 750.75H1156.59V750.25H1145.14V750.75ZM1168.05 750.75H1179.5V750.25H1168.05V750.75ZM1190.95 750.75H1202.41V750.25H1190.95V750.75ZM1213.86 750.75H1225.32V750.25H1213.86V750.75ZM1236.77 750.75H1242.5V750.25H1236.77V750.75ZM1242.75 750.5V744.219H1242.25V750.5H1242.75ZM1242.75 731.656V719.094H1242.25V731.656H1242.75ZM1242.75 706.531V693.969H1242.25V706.531H1242.75ZM1242.75 681.406V668.844H1242.25V681.406H1242.75ZM1242.75 656.281V643.719H1242.25V656.281H1242.75ZM1242.75 631.156V618.594H1242.25V631.156H1242.75ZM1242.75 606.031V593.469H1242.25V606.031H1242.75ZM1242.75 580.906V568.344H1242.25V580.906H1242.75ZM1242.75 555.781V549.5H1242.25V555.781H1242.75ZM1242.5 549.75H1242.75V549.25H1242.5V549.75ZM1243.25 549.75H1243.5V549.25H1243.25V549.75ZM1243.25 549.5V555.781H1243.75V549.5H1243.25ZM1243.25 568.344V580.906H1243.75V568.344H1243.25ZM1243.25 593.469V606.031H1243.75V593.469H1243.25ZM1243.25 618.594V631.156H1243.75V618.594H1243.25ZM1243.25 643.719V656.281H1243.75V643.719H1243.25ZM1243.25 668.844V681.406H1243.75V668.844H1243.25ZM1243.25 693.969V706.531H1243.75V693.969H1243.25ZM1243.25 719.094V731.656H1243.75V719.094H1243.25ZM1243.25 744.219V750.5H1243.75V744.219H1243.25ZM1243.5 750.75H1249.4V750.25H1243.5V750.75ZM1261.21 750.75H1273.01V750.25H1261.21V750.75ZM1284.82 750.75H1296.62V750.25H1284.82V750.75ZM1308.43 750.75H1320.24V750.25H1308.43V750.75ZM1332.04 750.75H1343.85V750.25H1332.04V750.75ZM1355.65 750.75H1367.46V750.25H1355.65V750.75ZM1379.26 750.75H1391.07V750.25H1379.26V750.75ZM1402.88 750.75H1414.68V750.25H1402.88V750.75ZM1426.49 750.75H1438.29V750.25H1426.49V750.75ZM1450.1 750.75H1456V750.25H1450.1V750.75ZM1455.75 750.5V750.75H1456.25V750.5H1455.75ZM1455.75 751.25V751.5H1456.25V751.25H1455.75ZM1456 751.25H1450.1V751.75H1456V751.25ZM1438.29 751.25H1426.49V751.75H1438.29V751.25ZM1414.68 751.25H1402.88V751.75H1414.68V751.25ZM1391.07 751.25H1379.26V751.75H1391.07V751.25ZM1367.46 751.25H1355.65V751.75H1367.46V751.25ZM1343.85 751.25H1332.04V751.75H1343.85V751.25ZM1320.24 751.25H1308.43V751.75H1320.24V751.25ZM1296.62 751.25H1284.82V751.75H1296.62V751.25ZM1273.01 751.25H1261.21V751.75H1273.01V751.25ZM1249.4 751.25H1243.5V751.75H1249.4V751.25ZM1243.25 751.5V757.228H1243.75V751.5H1243.25ZM1243.25 768.682V780.137H1243.75V768.682H1243.25ZM1243.25 791.591V803.046H1243.75V791.591H1243.25ZM1243.25 814.5V825.955H1243.75V814.5H1243.25ZM1243.25 837.409V848.864H1243.75V837.409H1243.25ZM1243.25 860.318V871.773H1243.75V860.318H1243.25ZM1243.25 883.228V894.682H1243.75V883.228H1243.25ZM1243.25 906.137V917.591H1243.75V906.137H1243.25ZM1243.25 929.046V940.5H1243.75V929.046H1243.25ZM1243.25 951.955V963.409H1243.75V951.955H1243.25ZM1243.25 974.864V986.318H1243.75V974.864H1243.25ZM1243.25 997.773V1003.5H1243.75V997.773H1243.25ZM1243.5 1003.75H1249.4V1003.25H1243.5V1003.75ZM1261.21 1003.75H1273.01V1003.25H1261.21V1003.75ZM1284.82 1003.75H1296.62V1003.25H1284.82V1003.75ZM1308.43 1003.75H1320.24V1003.25H1308.43V1003.75ZM1332.04 1003.75H1343.85V1003.25H1332.04V1003.75ZM1355.65 1003.75H1367.46V1003.25H1355.65V1003.75ZM1379.26 1003.75H1391.07V1003.25H1379.26V1003.75ZM1402.88 1003.75H1414.68V1003.25H1402.88V1003.75ZM1426.49 1003.75H1438.29V1003.25H1426.49V1003.75ZM1450.1 1003.75H1456V1003.25H1450.1V1003.75ZM1455.75 1003.5V1003.75H1456.25V1003.5H1455.75ZM1455.75 1004.25V1004.5H1456.25V1004.25H1455.75ZM1456 1004.25H1450.1V1004.75H1456V1004.25ZM1438.29 1004.25H1426.49V1004.75H1438.29V1004.25ZM1414.68 1004.25H1402.88V1004.75H1414.68V1004.25ZM1391.07 1004.25H1379.26V1004.75H1391.07V1004.25ZM1367.46 1004.25H1355.65V1004.75H1367.46V1004.25ZM1343.85 1004.25H1332.04V1004.75H1343.85V1004.25ZM1320.24 1004.25H1308.43V1004.75H1320.24V1004.25ZM1296.62 1004.25H1284.82V1004.75H1296.62V1004.25ZM1273.01 1004.25H1261.21V1004.75H1273.01V1004.25ZM1249.4 1004.25H1243.5V1004.75H1249.4V1004.25ZM1243.25 1004.5V1010.23H1243.75V1004.5H1243.25ZM1243.25 1021.68V1033.14H1243.75V1021.68H1243.25ZM1243.25 1044.59V1056.05H1243.75V1044.59H1243.25ZM1243.25 1067.5V1078.95H1243.75V1067.5H1243.25ZM1243.25 1090.41V1101.86H1243.75V1090.41H1243.25ZM1243.25 1113.32V1124.77H1243.75V1113.32H1243.25ZM1243.25 1136.23V1147.68H1243.75V1136.23H1243.25ZM1243.25 1159.14V1170.59H1243.75V1159.14H1243.25ZM1243.25 1182.05V1193.5H1243.75V1182.05H1243.25ZM1243.25 1204.95V1216.41H1243.75V1204.95H1243.25ZM1243.25 1227.86V1239.32H1243.75V1227.86H1243.25ZM1243.25 1250.77V1256.5H1243.75V1250.77H1243.25ZM1243.5 1256.75H1249.4V1256.25H1243.5V1256.75ZM1261.21 1256.75H1273.01V1256.25H1261.21V1256.75ZM1284.82 1256.75H1296.62V1256.25H1284.82V1256.75ZM1308.43 1256.75H1320.24V1256.25H1308.43V1256.75ZM1332.04 1256.75H1343.85V1256.25H1332.04V1256.75ZM1355.65 1256.75H1367.46V1256.25H1355.65V1256.75ZM1379.26 1256.75H1391.07V1256.25H1379.26V1256.75ZM1402.88 1256.75H1414.68V1256.25H1402.88V1256.75ZM1426.49 1256.75H1438.29V1256.25H1426.49V1256.75ZM1450.1 1256.75H1456V1256.25H1450.1V1256.75ZM1455.75 1256.5V1256.75H1456.25V1256.5H1455.75ZM1455.75 1257.25V1257.5H1456.25V1257.25H1455.75ZM1456 1257.25H1450.1V1257.75H1456V1257.25ZM1438.29 1257.25H1426.49V1257.75H1438.29V1257.25ZM1414.68 1257.25H1402.88V1257.75H1414.68V1257.25ZM1391.07 1257.25H1379.26V1257.75H1391.07V1257.25ZM1367.46 1257.25H1355.65V1257.75H1367.46V1257.25ZM1343.85 1257.25H1332.04V1257.75H1343.85V1257.25ZM1320.24 1257.25H1308.43V1257.75H1320.24V1257.25ZM1296.62 1257.25H1284.82V1257.75H1296.62V1257.25ZM1273.01 1257.25H1261.21V1257.75H1273.01V1257.25ZM1249.4 1257.25H1243.5V1257.75H1249.4V1257.25ZM1243.25 1257.5V1263.02H1243.75V1257.5H1243.25ZM1243.25 1274.06V1285.1H1243.75V1274.06H1243.25ZM1243.25 1296.15V1307.19H1243.75V1296.15H1243.25ZM1243.25 1318.23V1329.27H1243.75V1318.23H1243.25ZM1243.25 1340.31V1351.35H1243.75V1340.31H1243.25ZM1243.25 1362.4V1373.44H1243.75V1362.4H1243.25ZM1243.25 1384.48V1390H1243.75V1384.48H1243.25ZM1243.5 1389.75H1243.25V1390.25H1243.5V1389.75ZM1242.75 1389.75H1242.5V1390.25H1242.75V1389.75ZM1242.75 1390V1384.48H1242.25V1390H1242.75ZM1242.75 1373.44V1362.4H1242.25V1373.44H1242.75ZM1242.75 1351.35V1340.31H1242.25V1351.35H1242.75ZM1242.75 1329.27V1318.23H1242.25V1329.27H1242.75ZM1242.75 1307.19V1296.15H1242.25V1307.19H1242.75ZM1242.75 1285.1V1274.06H1242.25V1285.1H1242.75ZM1242.75 1263.02V1257.5H1242.25V1263.02H1242.75ZM1242.5 1257.25H1236.77V1257.75H1242.5V1257.25ZM1225.32 1257.25H1213.86V1257.75H1225.32V1257.25ZM1202.41 1257.25H1190.95V1257.75H1202.41V1257.25ZM1179.5 1257.25H1168.05V1257.75H1179.5V1257.25ZM1156.59 1257.25H1145.14V1257.75H1156.59V1257.25ZM1133.68 1257.25H1122.23V1257.75H1133.68V1257.25ZM1110.77 1257.25H1099.32V1257.75H1110.77V1257.25ZM1087.86 1257.25H1076.41V1257.75H1087.86V1257.25ZM1064.95 1257.25H1053.5V1257.75H1064.95V1257.25ZM1042.05 1257.25H1030.59V1257.75H1042.05V1257.25ZM1019.14 1257.25H1007.68V1257.75H1019.14V1257.25ZM996.227 1257.25H990.5V1257.75H996.227V1257.25ZM990.25 1257.5V1263.02H990.75V1257.5H990.25ZM990.25 1274.06V1285.1H990.75V1274.06H990.25ZM990.25 1296.15V1307.19H990.75V1296.15H990.25ZM990.25 1318.23V1329.27H990.75V1318.23H990.25ZM990.25 1340.31V1351.35H990.75V1340.31H990.25ZM990.25 1362.4V1373.44H990.75V1362.4H990.25ZM990.25 1384.48V1390H990.75V1384.48H990.25ZM990.5 1389.75H990.25V1390.25H990.5V1389.75ZM989.75 1389.75H989.5V1390.25H989.75V1389.75ZM989.75 1390V1384.48H989.25V1390H989.75ZM989.75 1373.44V1362.4H989.25V1373.44H989.75ZM989.75 1351.35V1340.31H989.25V1351.35H989.75ZM989.75 1329.27V1318.23H989.25V1329.27H989.75ZM989.75 1307.19V1296.15H989.25V1307.19H989.75ZM989.75 1285.1V1274.06H989.25V1285.1H989.75ZM989.75 1263.02V1257.5H989.25V1263.02H989.75ZM989.5 1257.25H983.773V1257.75H989.5V1257.25ZM972.318 1257.25H960.864V1257.75H972.318V1257.25ZM949.409 1257.25H937.955V1257.75H949.409V1257.25ZM926.5 1257.25H915.045V1257.75H926.5V1257.25ZM903.591 1257.25H892.136V1257.75H903.591V1257.25ZM880.682 1257.25H869.227V1257.75H880.682V1257.25ZM857.773 1257.25H846.318V1257.75H857.773V1257.25ZM834.864 1257.25H823.409V1257.75H834.864V1257.25ZM811.955 1257.25H800.5V1257.75H811.955V1257.25ZM789.045 1257.25H777.591V1257.75H789.045V1257.25ZM766.136 1257.25H754.682V1257.75H766.136V1257.25ZM743.227 1257.25H737.5V1257.75H743.227V1257.25ZM737.25 1257.5V1263.02H737.75V1257.5H737.25ZM737.25 1274.06V1285.1H737.75V1274.06H737.25ZM737.25 1296.15V1307.19H737.75V1296.15H737.25ZM737.25 1318.23V1329.27H737.75V1318.23H737.25ZM737.25 1340.31V1351.35H737.75V1340.31H737.25ZM737.25 1362.4V1373.44H737.75V1362.4H737.25ZM737.25 1384.48V1390H737.75V1384.48H737.25ZM737.5 1389.75H737.25V1390.25H737.5V1389.75ZM736.75 1389.75H736.5V1390.25H736.75V1389.75ZM736.75 1390V1384.48H736.25V1390H736.75ZM736.75 1373.44V1362.4H736.25V1373.44H736.75ZM736.75 1351.35V1340.31H736.25V1351.35H736.75ZM736.75 1329.27V1318.23H736.25V1329.27H736.75ZM736.75 1307.19V1296.15H736.25V1307.19H736.75ZM736.75 1285.1V1274.06H736.25V1285.1H736.75ZM736.75 1263.02V1257.5H736.25V1263.02H736.75ZM736.5 1257.25H730.773V1257.75H736.5V1257.25ZM719.318 1257.25H707.864V1257.75H719.318V1257.25ZM696.409 1257.25H684.955V1257.75H696.409V1257.25ZM673.5 1257.25H662.045V1257.75H673.5V1257.25ZM650.591 1257.25H639.136V1257.75H650.591V1257.25ZM627.682 1257.25H616.227V1257.75H627.682V1257.25ZM604.773 1257.25H593.318V1257.75H604.773V1257.25ZM581.864 1257.25H570.409V1257.75H581.864V1257.25ZM558.955 1257.25H547.5V1257.75H558.955V1257.25ZM536.045 1257.25H524.591V1257.75H536.045V1257.25ZM513.136 1257.25H501.682V1257.75H513.136V1257.25ZM490.227 1257.25H484.5V1257.75H490.227V1257.25ZM484.25 1257.5V1263.02H484.75V1257.5H484.25ZM484.25 1274.06V1285.1H484.75V1274.06H484.25ZM484.25 1296.15V1307.19H484.75V1296.15H484.25ZM484.25 1318.23V1329.27H484.75V1318.23H484.25ZM484.25 1340.31V1351.35H484.75V1340.31H484.25ZM484.25 1362.4V1373.44H484.75V1362.4H484.25ZM484.25 1384.48V1390H484.75V1384.48H484.25ZM484.5 1389.75H484.25V1390.25H484.5V1389.75ZM483.75 1389.75H483.5V1390.25H483.75V1389.75ZM483.75 1390V1384.48H483.25V1390H483.75ZM483.75 1373.44V1362.4H483.25V1373.44H483.75ZM483.75 1351.35V1340.31H483.25V1351.35H483.75ZM483.75 1329.27V1318.23H483.25V1329.27H483.75ZM483.75 1307.19V1296.15H483.25V1307.19H483.75ZM483.75 1285.1V1274.06H483.25V1285.1H483.75ZM483.75 1263.02V1257.5H483.25V1263.02H483.75ZM483.5 1257.25H477.773V1257.75H483.5V1257.25ZM466.318 1257.25H454.864V1257.75H466.318V1257.25ZM443.409 1257.25H431.955V1257.75H443.409V1257.25ZM420.5 1257.25H409.045V1257.75H420.5V1257.25ZM397.591 1257.25H386.136V1257.75H397.591V1257.25ZM374.682 1257.25H363.227V1257.75H374.682V1257.25ZM351.773 1257.25H340.318V1257.75H351.773V1257.25ZM328.864 1257.25H317.409V1257.75H328.864V1257.25ZM305.955 1257.25H294.5V1257.75H305.955V1257.25ZM283.045 1257.25H271.591V1257.75H283.045V1257.25ZM260.136 1257.25H248.682V1257.75H260.136V1257.25ZM237.227 1257.25H231.5V1257.75H237.227V1257.25ZM231.25 1257.5V1263.02H231.75V1257.5H231.25ZM231.25 1274.06V1285.1H231.75V1274.06H231.25ZM231.25 1296.15V1307.19H231.75V1296.15H231.25ZM231.25 1318.23V1329.27H231.75V1318.23H231.25ZM231.25 1340.31V1351.35H231.75V1340.31H231.25ZM231.25 1362.4V1373.44H231.75V1362.4H231.25ZM231.25 1384.48V1390H231.75V1384.48H231.25ZM231.5 1389.75H231.25V1390.25H231.5V1389.75ZM230.75 1389.75H230.5V1390.25H230.75V1389.75ZM483.5 1256.25H477.773V1256.75H483.5V1256.25ZM466.318 1256.25H454.864V1256.75H466.318V1256.25ZM443.409 1256.25H431.955V1256.75H443.409V1256.25ZM420.5 1256.25H409.045V1256.75H420.5V1256.25ZM397.591 1256.25H386.136V1256.75H397.591V1256.25ZM374.682 1256.25H363.227V1256.75H374.682V1256.25ZM351.773 1256.25H340.318V1256.75H351.773V1256.25ZM328.864 1256.25H317.409V1256.75H328.864V1256.25ZM305.955 1256.25H294.5V1256.75H305.955V1256.25ZM283.045 1256.25H271.591V1256.75H283.045V1256.25ZM260.136 1256.25H248.682V1256.75H260.136V1256.25ZM237.227 1256.25H231.5V1256.75H237.227V1256.25ZM231.75 1256.5V1250.77H231.25V1256.5H231.75ZM231.75 1239.32V1227.86H231.25V1239.32H231.75ZM231.75 1216.41V1204.95H231.25V1216.41H231.75ZM231.75 1193.5V1182.05H231.25V1193.5H231.75ZM231.75 1170.59V1159.14H231.25V1170.59H231.75ZM231.75 1147.68V1136.23H231.25V1147.68H231.75ZM231.75 1124.77V1113.32H231.25V1124.77H231.75ZM231.75 1101.86V1090.41H231.25V1101.86H231.75ZM231.75 1078.95V1067.5H231.25V1078.95H231.75ZM231.75 1056.05V1044.59H231.25V1056.05H231.75ZM231.75 1033.14V1021.68H231.25V1033.14H231.75ZM231.75 1010.23V1004.5H231.25V1010.23H231.75ZM231.5 1004.75H237.227V1004.25H231.5V1004.75ZM248.682 1004.75H260.136V1004.25H248.682V1004.75ZM271.591 1004.75H283.045V1004.25H271.591V1004.75ZM294.5 1004.75H305.955V1004.25H294.5V1004.75ZM317.409 1004.75H328.864V1004.25H317.409V1004.75ZM340.318 1004.75H351.773V1004.25H340.318V1004.75ZM363.227 1004.75H374.682V1004.25H363.227V1004.75ZM386.136 1004.75H397.591V1004.25H386.136V1004.75ZM409.045 1004.75H420.5V1004.25H409.045V1004.75ZM431.955 1004.75H443.409V1004.25H431.955V1004.75ZM454.864 1004.75H466.318V1004.25H454.864V1004.75ZM477.773 1004.75H483.5V1004.25H477.773V1004.75ZM483.25 1004.5V1010.23H483.75V1004.5H483.25ZM483.25 1021.68V1033.14H483.75V1021.68H483.25ZM483.25 1044.59V1056.05H483.75V1044.59H483.25ZM483.25 1067.5V1078.95H483.75V1067.5H483.25ZM483.25 1090.41V1101.86H483.75V1090.41H483.25ZM483.25 1113.32V1124.77H483.75V1113.32H483.25ZM483.25 1136.23V1147.68H483.75V1136.23H483.25ZM483.25 1159.14V1170.59H483.75V1159.14H483.25ZM483.25 1182.05V1193.5H483.75V1182.05H483.25ZM483.25 1204.95V1216.41H483.75V1204.95H483.25ZM483.25 1227.86V1239.32H483.75V1227.86H483.25ZM483.25 1250.77V1256.5H483.75V1250.77H483.25ZM231.75 1003.5V997.773H231.25V1003.5H231.75ZM231.75 986.318V974.864H231.25V986.318H231.75ZM231.75 963.409V951.955H231.25V963.409H231.75ZM231.75 940.5V929.046H231.25V940.5H231.75ZM231.75 917.591V906.137H231.25V917.591H231.75ZM231.75 894.682V883.228H231.25V894.682H231.75ZM231.75 871.773V860.318H231.25V871.773H231.75ZM231.75 848.864V837.409H231.25V848.864H231.75ZM231.75 825.955V814.5H231.25V825.955H231.75ZM231.75 803.046V791.591H231.25V803.046H231.75ZM231.75 780.137V768.682H231.25V780.137H231.75ZM231.75 757.228V751.5H231.25V757.228H231.75ZM231.5 751.75H237.227V751.25H231.5V751.75ZM248.682 751.75H260.136V751.25H248.682V751.75ZM271.591 751.75H283.045V751.25H271.591V751.75ZM294.5 751.75H305.955V751.25H294.5V751.75ZM317.409 751.75H328.864V751.25H317.409V751.75ZM340.318 751.75H351.773V751.25H340.318V751.75ZM363.227 751.75H374.682V751.25H363.227V751.75ZM386.136 751.75H397.591V751.25H386.136V751.75ZM409.045 751.75H420.5V751.25H409.045V751.75ZM431.955 751.75H443.409V751.25H431.955V751.75ZM454.864 751.75H466.318V751.25H454.864V751.75ZM477.773 751.75H483.5V751.25H477.773V751.75ZM483.25 751.5V757.228H483.75V751.5H483.25ZM483.25 768.682V780.137H483.75V768.682H483.25ZM483.25 791.591V803.046H483.75V791.591H483.25ZM483.25 814.5V825.955H483.75V814.5H483.25ZM483.25 837.409V848.864H483.75V837.409H483.25ZM483.25 860.318V871.773H483.75V860.318H483.25ZM483.25 883.228V894.682H483.75V883.228H483.25ZM483.25 906.137V917.591H483.75V906.137H483.25ZM483.25 929.046V940.5H483.75V929.046H483.25ZM483.25 951.955V963.409H483.75V951.955H483.25ZM483.25 974.864V986.318H483.75V974.864H483.25ZM483.25 997.773V1003.5H483.75V997.773H483.25ZM483.5 1003.25H477.773V1003.75H483.5V1003.25ZM466.318 1003.25H454.864V1003.75H466.318V1003.25ZM443.409 1003.25H431.955V1003.75H443.409V1003.25ZM420.5 1003.25H409.045V1003.75H420.5V1003.25ZM397.591 1003.25H386.136V1003.75H397.591V1003.25ZM374.682 1003.25H363.227V1003.75H374.682V1003.25ZM351.773 1003.25H340.318V1003.75H351.773V1003.25ZM328.864 1003.25H317.409V1003.75H328.864V1003.25ZM305.955 1003.25H294.5V1003.75H305.955V1003.25ZM283.045 1003.25H271.591V1003.75H283.045V1003.25ZM260.136 1003.25H248.682V1003.75H260.136V1003.25ZM237.227 1003.25H231.5V1003.75H237.227V1003.25ZM484.25 751.5V757.228H484.75V751.5H484.25ZM484.25 768.682V780.137H484.75V768.682H484.25ZM484.25 791.591V803.046H484.75V791.591H484.25ZM484.25 814.5V825.955H484.75V814.5H484.25ZM484.25 837.409V848.864H484.75V837.409H484.25ZM484.25 860.318V871.773H484.75V860.318H484.25ZM484.25 883.228V894.682H484.75V883.228H484.25ZM484.25 906.137V917.591H484.75V906.137H484.25ZM484.25 929.046V940.5H484.75V929.046H484.25ZM484.25 951.955V963.409H484.75V951.955H484.25ZM484.25 974.864V986.318H484.75V974.864H484.25ZM484.25 997.773V1003.5H484.75V997.773H484.25ZM484.5 1003.75H490.227V1003.25H484.5V1003.75ZM501.682 1003.75H513.136V1003.25H501.682V1003.75ZM524.591 1003.75H536.045V1003.25H524.591V1003.75ZM547.5 1003.75H558.955V1003.25H547.5V1003.75ZM570.409 1003.75H581.864V1003.25H570.409V1003.75ZM593.318 1003.75H604.773V1003.25H593.318V1003.75ZM616.227 1003.75H627.682V1003.25H616.227V1003.75ZM639.136 1003.75H650.591V1003.25H639.136V1003.75ZM662.045 1003.75H673.5V1003.25H662.045V1003.75ZM684.955 1003.75H696.409V1003.25H684.955V1003.75ZM707.864 1003.75H719.318V1003.25H707.864V1003.75ZM730.773 1003.75H736.5V1003.25H730.773V1003.75ZM736.75 1003.5V997.773H736.25V1003.5H736.75ZM736.75 986.318V974.864H736.25V986.318H736.75ZM736.75 963.409V951.955H736.25V963.409H736.75ZM736.75 940.5V929.046H736.25V940.5H736.75ZM736.75 917.591V906.137H736.25V917.591H736.75ZM736.75 894.682V883.228H736.25V894.682H736.75ZM736.75 871.773V860.318H736.25V871.773H736.75ZM736.75 848.864V837.409H736.25V848.864H736.75ZM736.75 825.955V814.5H736.25V825.955H736.75ZM736.75 803.046V791.591H736.25V803.046H736.75ZM736.75 780.137V768.682H736.25V780.137H736.75ZM736.75 757.228V751.5H736.25V757.228H736.75ZM736.5 751.25H730.773V751.75H736.5V751.25ZM719.318 751.25H707.864V751.75H719.318V751.25ZM696.409 751.25H684.955V751.75H696.409V751.25ZM673.5 751.25H662.045V751.75H673.5V751.25ZM650.591 751.25H639.136V751.75H650.591V751.25ZM627.682 751.25H616.227V751.75H627.682V751.25ZM604.773 751.25H593.318V751.75H604.773V751.25ZM581.864 751.25H570.409V751.75H581.864V751.25ZM558.955 751.25H547.5V751.75H558.955V751.25ZM536.045 751.25H524.591V751.75H536.045V751.25ZM513.136 751.25H501.682V751.75H513.136V751.25ZM490.227 751.25H484.5V751.75H490.227V751.25ZM737.75 1003.5V997.773H737.25V1003.5H737.75ZM737.75 986.318V974.864H737.25V986.318H737.75ZM737.75 963.409V951.955H737.25V963.409H737.75ZM737.75 940.5V929.046H737.25V940.5H737.75ZM737.75 917.591V906.137H737.25V917.591H737.75ZM737.75 894.682V883.228H737.25V894.682H737.75ZM737.75 871.773V860.318H737.25V871.773H737.75ZM737.75 848.864V837.409H737.25V848.864H737.75ZM737.75 825.955V814.5H737.25V825.955H737.75ZM737.75 803.046V791.591H737.25V803.046H737.75ZM737.75 780.137V768.682H737.25V780.137H737.75ZM737.75 757.228V751.5H737.25V757.228H737.75ZM737.5 751.75H743.227V751.25H737.5V751.75ZM754.682 751.75H766.136V751.25H754.682V751.75ZM777.591 751.75H789.045V751.25H777.591V751.75ZM800.5 751.75H811.955V751.25H800.5V751.75ZM823.409 751.75H834.864V751.25H823.409V751.75ZM846.318 751.75H857.773V751.25H846.318V751.75ZM869.227 751.75H880.682V751.25H869.227V751.75ZM892.136 751.75H903.591V751.25H892.136V751.75ZM915.045 751.75H926.5V751.25H915.045V751.75ZM937.955 751.75H949.409V751.25H937.955V751.75ZM960.864 751.75H972.318V751.25H960.864V751.75ZM983.773 751.75H989.5V751.25H983.773V751.75ZM989.25 751.5V757.228H989.75V751.5H989.25ZM989.25 768.682V780.137H989.75V768.682H989.25ZM989.25 791.591V803.046H989.75V791.591H989.25ZM989.25 814.5V825.955H989.75V814.5H989.25ZM989.25 837.409V848.864H989.75V837.409H989.25ZM989.25 860.318V871.773H989.75V860.318H989.25ZM989.25 883.228V894.682H989.75V883.228H989.25ZM989.25 906.137V917.591H989.75V906.137H989.25ZM989.25 929.046V940.5H989.75V929.046H989.25ZM989.25 951.955V963.409H989.75V951.955H989.25ZM989.25 974.864V986.318H989.75V974.864H989.25ZM989.25 997.773V1003.5H989.75V997.773H989.25ZM989.5 1003.25H983.773V1003.75H989.5V1003.25ZM972.318 1003.25H960.864V1003.75H972.318V1003.25ZM949.409 1003.25H937.955V1003.75H949.409V1003.25ZM926.5 1003.25H915.045V1003.75H926.5V1003.25ZM903.591 1003.25H892.136V1003.75H903.591V1003.25ZM880.682 1003.25H869.227V1003.75H880.682V1003.25ZM857.773 1003.25H846.318V1003.75H857.773V1003.25ZM834.864 1003.25H823.409V1003.75H834.864V1003.25ZM811.955 1003.25H800.5V1003.75H811.955V1003.25ZM789.045 1003.25H777.591V1003.75H789.045V1003.25ZM766.136 1003.25H754.682V1003.75H766.136V1003.25ZM743.227 1003.25H737.5V1003.75H743.227V1003.25ZM990.25 751.5V757.228H990.75V751.5H990.25ZM990.25 768.682V780.137H990.75V768.682H990.25ZM990.25 791.591V803.046H990.75V791.591H990.25ZM990.25 814.5V825.955H990.75V814.5H990.25ZM990.25 837.409V848.864H990.75V837.409H990.25ZM990.25 860.318V871.773H990.75V860.318H990.25ZM990.25 883.228V894.682H990.75V883.228H990.25ZM990.25 906.137V917.591H990.75V906.137H990.25ZM990.25 929.046V940.5H990.75V929.046H990.25ZM990.25 951.955V963.409H990.75V951.955H990.25ZM990.25 974.864V986.318H990.75V974.864H990.25ZM990.25 997.773V1003.5H990.75V997.773H990.25ZM990.5 1003.75H996.227V1003.25H990.5V1003.75ZM1007.68 1003.75H1019.14V1003.25H1007.68V1003.75ZM1030.59 1003.75H1042.05V1003.25H1030.59V1003.75ZM1053.5 1003.75H1064.95V1003.25H1053.5V1003.75ZM1076.41 1003.75H1087.86V1003.25H1076.41V1003.75ZM1099.32 1003.75H1110.77V1003.25H1099.32V1003.75ZM1122.23 1003.75H1133.68V1003.25H1122.23V1003.75ZM1145.14 1003.75H1156.59V1003.25H1145.14V1003.75ZM1168.05 1003.75H1179.5V1003.25H1168.05V1003.75ZM1190.95 1003.75H1202.41V1003.25H1190.95V1003.75ZM1213.86 1003.75H1225.32V1003.25H1213.86V1003.75ZM1236.77 1003.75H1242.5V1003.25H1236.77V1003.75ZM1242.75 1003.5V997.773H1242.25V1003.5H1242.75ZM1242.75 986.318V974.864H1242.25V986.318H1242.75ZM1242.75 963.409V951.955H1242.25V963.409H1242.75ZM1242.75 940.5V929.046H1242.25V940.5H1242.75ZM1242.75 917.591V906.137H1242.25V917.591H1242.75ZM1242.75 894.682V883.228H1242.25V894.682H1242.75ZM1242.75 871.773V860.318H1242.25V871.773H1242.75ZM1242.75 848.864V837.409H1242.25V848.864H1242.75ZM1242.75 825.955V814.5H1242.25V825.955H1242.75ZM1242.75 803.046V791.591H1242.25V803.046H1242.75ZM1242.75 780.137V768.682H1242.25V780.137H1242.75ZM1242.75 757.228V751.5H1242.25V757.228H1242.75ZM1242.5 751.25H1236.77V751.75H1242.5V751.25ZM1225.32 751.25H1213.86V751.75H1225.32V751.25ZM1202.41 751.25H1190.95V751.75H1202.41V751.25ZM1179.5 751.25H1168.05V751.75H1179.5V751.25ZM1156.59 751.25H1145.14V751.75H1156.59V751.25ZM1133.68 751.25H1122.23V751.75H1133.68V751.25ZM1110.77 751.25H1099.32V751.75H1110.77V751.25ZM1087.86 751.25H1076.41V751.75H1087.86V751.25ZM1064.95 751.25H1053.5V751.75H1064.95V751.25ZM1042.05 751.25H1030.59V751.75H1042.05V751.25ZM1019.14 751.25H1007.68V751.75H1019.14V751.25ZM996.227 751.25H990.5V751.75H996.227V751.25ZM1242.5 1004.25H1236.77V1004.75H1242.5V1004.25ZM1225.32 1004.25H1213.86V1004.75H1225.32V1004.25ZM1202.41 1004.25H1190.95V1004.75H1202.41V1004.25ZM1179.5 1004.25H1168.05V1004.75H1179.5V1004.25ZM1156.59 1004.25H1145.14V1004.75H1156.59V1004.25ZM1133.68 1004.25H1122.23V1004.75H1133.68V1004.25ZM1110.77 1004.25H1099.32V1004.75H1110.77V1004.25ZM1087.86 1004.25H1076.41V1004.75H1087.86V1004.25ZM1064.95 1004.25H1053.5V1004.75H1064.95V1004.25ZM1042.05 1004.25H1030.59V1004.75H1042.05V1004.25ZM1019.14 1004.25H1007.68V1004.75H1019.14V1004.25ZM996.227 1004.25H990.5V1004.75H996.227V1004.25ZM990.25 1004.5V1010.23H990.75V1004.5H990.25ZM990.25 1021.68V1033.14H990.75V1021.68H990.25ZM990.25 1044.59V1056.05H990.75V1044.59H990.25ZM990.25 1067.5V1078.95H990.75V1067.5H990.25ZM990.25 1090.41V1101.86H990.75V1090.41H990.25ZM990.25 1113.32V1124.77H990.75V1113.32H990.25ZM990.25 1136.23V1147.68H990.75V1136.23H990.25ZM990.25 1159.14V1170.59H990.75V1159.14H990.25ZM990.25 1182.05V1193.5H990.75V1182.05H990.25ZM990.25 1204.95V1216.41H990.75V1204.95H990.25ZM990.25 1227.86V1239.32H990.75V1227.86H990.25ZM990.25 1250.77V1256.5H990.75V1250.77H990.25ZM990.5 1256.75H996.227V1256.25H990.5V1256.75ZM1007.68 1256.75H1019.14V1256.25H1007.68V1256.75ZM1030.59 1256.75H1042.05V1256.25H1030.59V1256.75ZM1053.5 1256.75H1064.95V1256.25H1053.5V1256.75ZM1076.41 1256.75H1087.86V1256.25H1076.41V1256.75ZM1099.32 1256.75H1110.77V1256.25H1099.32V1256.75ZM1122.23 1256.75H1133.68V1256.25H1122.23V1256.75ZM1145.14 1256.75H1156.59V1256.25H1145.14V1256.75ZM1168.05 1256.75H1179.5V1256.25H1168.05V1256.75ZM1190.95 1256.75H1202.41V1256.25H1190.95V1256.75ZM1213.86 1256.75H1225.32V1256.25H1213.86V1256.75ZM1236.77 1256.75H1242.5V1256.25H1236.77V1256.75ZM1242.75 1256.5V1250.77H1242.25V1256.5H1242.75ZM1242.75 1239.32V1227.86H1242.25V1239.32H1242.75ZM1242.75 1216.41V1204.95H1242.25V1216.41H1242.75ZM1242.75 1193.5V1182.05H1242.25V1193.5H1242.75ZM1242.75 1170.59V1159.14H1242.25V1170.59H1242.75ZM1242.75 1147.68V1136.23H1242.25V1147.68H1242.75ZM1242.75 1124.77V1113.32H1242.25V1124.77H1242.75ZM1242.75 1101.86V1090.41H1242.25V1101.86H1242.75ZM1242.75 1078.95V1067.5H1242.25V1078.95H1242.75ZM1242.75 1056.05V1044.59H1242.25V1056.05H1242.75ZM1242.75 1033.14V1021.68H1242.25V1033.14H1242.75ZM1242.75 1010.23V1004.5H1242.25V1010.23H1242.75ZM989.5 1256.25H983.773V1256.75H989.5V1256.25ZM972.318 1256.25H960.864V1256.75H972.318V1256.25ZM949.409 1256.25H937.955V1256.75H949.409V1256.25ZM926.5 1256.25H915.045V1256.75H926.5V1256.25ZM903.591 1256.25H892.136V1256.75H903.591V1256.25ZM880.682 1256.25H869.227V1256.75H880.682V1256.25ZM857.773 1256.25H846.318V1256.75H857.773V1256.25ZM834.864 1256.25H823.409V1256.75H834.864V1256.25ZM811.955 1256.25H800.5V1256.75H811.955V1256.25ZM789.045 1256.25H777.591V1256.75H789.045V1256.25ZM766.136 1256.25H754.682V1256.75H766.136V1256.25ZM743.227 1256.25H737.5V1256.75H743.227V1256.25ZM737.75 1256.5V1250.77H737.25V1256.5H737.75ZM737.75 1239.32V1227.86H737.25V1239.32H737.75ZM737.75 1216.41V1204.95H737.25V1216.41H737.75ZM737.75 1193.5V1182.05H737.25V1193.5H737.75ZM737.75 1170.59V1159.14H737.25V1170.59H737.75ZM737.75 1147.68V1136.23H737.25V1147.68H737.75ZM737.75 1124.77V1113.32H737.25V1124.77H737.75ZM737.75 1101.86V1090.41H737.25V1101.86H737.75ZM737.75 1078.95V1067.5H737.25V1078.95H737.75ZM737.75 1056.05V1044.59H737.25V1056.05H737.75ZM737.75 1033.14V1021.68H737.25V1033.14H737.75ZM737.75 1010.23V1004.5H737.25V1010.23H737.75ZM737.5 1004.75H743.227V1004.25H737.5V1004.75ZM754.682 1004.75H766.136V1004.25H754.682V1004.75ZM777.591 1004.75H789.045V1004.25H777.591V1004.75ZM800.5 1004.75H811.955V1004.25H800.5V1004.75ZM823.409 1004.75H834.864V1004.25H823.409V1004.75ZM846.318 1004.75H857.773V1004.25H846.318V1004.75ZM869.227 1004.75H880.682V1004.25H869.227V1004.75ZM892.136 1004.75H903.591V1004.25H892.136V1004.75ZM915.045 1004.75H926.5V1004.25H915.045V1004.75ZM937.955 1004.75H949.409V1004.25H937.955V1004.75ZM960.864 1004.75H972.318V1004.25H960.864V1004.75ZM983.773 1004.75H989.5V1004.25H983.773V1004.75ZM989.25 1004.5V1010.23H989.75V1004.5H989.25ZM989.25 1021.68V1033.14H989.75V1021.68H989.25ZM989.25 1044.59V1056.05H989.75V1044.59H989.25ZM989.25 1067.5V1078.95H989.75V1067.5H989.25ZM989.25 1090.41V1101.86H989.75V1090.41H989.25ZM989.25 1113.32V1124.77H989.75V1113.32H989.25ZM989.25 1136.23V1147.68H989.75V1136.23H989.25ZM989.25 1159.14V1170.59H989.75V1159.14H989.25ZM989.25 1182.05V1193.5H989.75V1182.05H989.25ZM989.25 1204.95V1216.41H989.75V1204.95H989.25ZM989.25 1227.86V1239.32H989.75V1227.86H989.25ZM989.25 1250.77V1256.5H989.75V1250.77H989.25ZM736.5 1004.25H730.773V1004.75H736.5V1004.25ZM719.318 1004.25H707.864V1004.75H719.318V1004.25ZM696.409 1004.25H684.955V1004.75H696.409V1004.25ZM673.5 1004.25H662.045V1004.75H673.5V1004.25ZM650.591 1004.25H639.136V1004.75H650.591V1004.25ZM627.682 1004.25H616.227V1004.75H627.682V1004.25ZM604.773 1004.25H593.318V1004.75H604.773V1004.25ZM581.864 1004.25H570.409V1004.75H581.864V1004.25ZM558.955 1004.25H547.5V1004.75H558.955V1004.25ZM536.045 1004.25H524.591V1004.75H536.045V1004.25ZM513.136 1004.25H501.682V1004.75H513.136V1004.25ZM490.227 1004.25H484.5V1004.75H490.227V1004.25ZM484.25 1004.5V1010.23H484.75V1004.5H484.25ZM484.25 1021.68V1033.14H484.75V1021.68H484.25ZM484.25 1044.59V1056.05H484.75V1044.59H484.25ZM484.25 1067.5V1078.95H484.75V1067.5H484.25ZM484.25 1090.41V1101.86H484.75V1090.41H484.25ZM484.25 1113.32V1124.77H484.75V1113.32H484.25ZM484.25 1136.23V1147.68H484.75V1136.23H484.25ZM484.25 1159.14V1170.59H484.75V1159.14H484.25ZM484.25 1182.05V1193.5H484.75V1182.05H484.25ZM484.25 1204.95V1216.41H484.75V1204.95H484.25ZM484.25 1227.86V1239.32H484.75V1227.86H484.25ZM484.25 1250.77V1256.5H484.75V1250.77H484.25ZM484.5 1256.75H490.227V1256.25H484.5V1256.75ZM501.682 1256.75H513.136V1256.25H501.682V1256.75ZM524.591 1256.75H536.045V1256.25H524.591V1256.75ZM547.5 1256.75H558.955V1256.25H547.5V1256.75ZM570.409 1256.75H581.864V1256.25H570.409V1256.75ZM593.318 1256.75H604.773V1256.25H593.318V1256.75ZM616.227 1256.75H627.682V1256.25H616.227V1256.75ZM639.136 1256.75H650.591V1256.25H639.136V1256.75ZM662.045 1256.75H673.5V1256.25H662.045V1256.75ZM684.955 1256.75H696.409V1256.25H684.955V1256.75ZM707.864 1256.75H719.318V1256.25H707.864V1256.75ZM730.773 1256.75H736.5V1256.25H730.773V1256.75ZM736.75 1256.5V1250.77H736.25V1256.5H736.75ZM736.75 1239.32V1227.86H736.25V1239.32H736.75ZM736.75 1216.41V1204.95H736.25V1216.41H736.75ZM736.75 1193.5V1182.05H736.25V1193.5H736.75ZM736.75 1170.59V1159.14H736.25V1170.59H736.75ZM736.75 1147.68V1136.23H736.25V1147.68H736.75ZM736.75 1124.77V1113.32H736.25V1124.77H736.75ZM736.75 1101.86V1090.41H736.25V1101.86H736.75ZM736.75 1078.95V1067.5H736.25V1078.95H736.75ZM736.75 1056.05V1044.59H736.25V1056.05H736.75ZM736.75 1033.14V1021.68H736.25V1033.14H736.75ZM736.75 1010.23V1004.5H736.25V1010.23H736.75Z" fill="url(#paint0_radial_511_108)"/>
<defs>
<filter id="filter0_f_511_108" x="807.667" y="779.092" width="1093.76" height="1152.59" filterUnits="userSpaceOnUse" color-interpolation-filters="sRGB">
<feFlood flood-opacity="0" result="BackgroundImageFix"/>
<feBlend mode="normal" in="SourceGraphic" in2="BackgroundImageFix" result="shape"/>
<feGaussianBlur stdDeviation="152" result="effect1_foregroundBlur_511_108"/>
</filter>
<filter id="filter1_f_511_108" x="-471.316" y="0.428223" width="1143.4" height="1146.56" filterUnits="userSpaceOnUse" color-interpolation-filters="sRGB">
<feFlood flood-opacity="0" result="BackgroundImageFix"/>
<feBlend mode="normal" in="SourceGraphic" in2="BackgroundImageFix" result="shape"/>
<feGaussianBlur stdDeviation="152" result="effect1_foregroundBlur_511_108"/>
</filter>
<radialGradient id="paint0_radial_511_108" cx="0" cy="0" r="1" gradientUnits="userSpaceOnUse" gradientTransform="translate(736 498.5) rotate(90.3934) scale(1019.52 1745.5)">
<stop stop-color="#E8E8E8" stop-opacity="0.35"/>
<stop offset="0.54765" stop-color="#D7D7D7"/>
<stop offset="1" stop-color="#EBEBEB" stop-opacity="0"/>
</radialGradient>
</defs>
</svg>
