<svg width="379" height="385" viewBox="0 0 379 385" fill="none" xmlns="http://www.w3.org/2000/svg">
<circle cx="173.133" cy="191.565" r="93.1651" stroke="#606060" stroke-width="2"/>
<circle opacity="0.5" cx="173.133" cy="191.565" r="119.582" stroke="#606060" stroke-width="2"/>
<circle opacity="0.3" cx="173.133" cy="191.565" r="146" stroke="#606060" stroke-width="2"/>
<circle opacity="0.1" cx="173.133" cy="191.565" r="171.565" stroke="#606060" stroke-width="2"/>
<g filter="url(#filter0_f_1475_16019)">
<circle cx="104.527" cy="102.845" r="76.6242" fill="#232323" fill-opacity="0.3"/>
</g>
<path d="M62.7126 138.992C72.1567 141.195 81.6008 129.679 85.1423 123.645L123.312 123.251C125.28 126.662 130.789 134.348 137.085 137.811C144.955 142.14 154.399 138.205 158.334 127.58C162.269 116.955 154.399 99.2477 150.464 89.0166C146.529 78.7855 142.2 71.309 130.002 68.5544C117.803 65.7999 87.8969 66.5869 75.6983 69.3415C65.9394 71.5451 60.3516 82.0647 58.7776 87.0491C57.3348 91.1153 53.5047 101.766 49.727 111.84C46.579 125.219 50.9075 136.237 62.7126 138.992Z" fill="#2C2627"/>
<path d="M85.1896 123.428V121.928H84.2954L83.8701 122.714L85.1896 123.428ZM57.5138 137.207L56.7877 138.52H56.7877L57.5138 137.207ZM52.3246 104.481L53.7024 105.074L53.7191 105.035L53.7336 104.995L52.3246 104.481ZM59.2443 85.5339L60.6532 86.0485L60.6602 86.0293L60.6667 86.01L59.2443 85.5339ZM80.0011 68.3094L80.166 69.8003L80.0011 68.3094ZM123.245 123.428L124.564 122.714L124.139 121.928H123.245V123.428ZM150.921 137.207L151.647 138.52L150.921 137.207ZM156.11 104.481L154.701 104.995L154.715 105.035L154.732 105.074L156.11 104.481ZM149.19 85.5339L147.768 86.01L147.774 86.0293L147.781 86.0485L149.19 85.5339ZM128.433 68.3094L128.598 66.8185L128.433 68.3094ZM104.217 121.928H85.1896V124.928H104.217V121.928ZM83.8701 122.714C81.9254 126.311 78.2604 131.269 73.6529 134.468C69.0929 137.635 63.8078 138.975 58.2399 135.895L56.7877 138.52C63.6739 142.33 70.2087 140.512 75.364 136.932C80.4719 133.386 84.4177 128.009 86.509 124.141L83.8701 122.714ZM58.2399 135.895C52.6524 132.804 50.616 127.254 50.4511 121.234C50.2856 115.193 52.0328 108.953 53.7024 105.074L50.9468 103.888C49.157 108.047 47.2717 114.725 47.4522 121.316C47.6333 127.926 49.9212 134.721 56.7877 138.52L58.2399 135.895ZM53.7336 104.995L60.6532 86.0485L57.8353 85.0193L50.9156 103.966L53.7336 104.995ZM60.6667 86.01C62.3067 81.1108 68.5429 71.0863 80.166 69.8003L79.8361 66.8185C66.5511 68.2884 59.6413 79.6223 57.8218 85.0578L60.6667 86.01ZM80.166 69.8003C92.5808 68.4267 101.403 68.0869 104.217 68.0869V65.0869C101.265 65.0869 92.3296 65.4362 79.8361 66.8185L80.166 69.8003ZM104.218 124.928H123.245V121.928H104.218V124.928ZM121.926 124.141C124.017 128.009 127.963 133.386 133.071 136.932C138.226 140.512 144.761 142.33 151.647 138.52L150.195 135.895C144.627 138.975 139.342 137.635 134.782 134.468C130.174 131.269 126.509 126.311 124.564 122.714L121.926 124.141ZM151.647 138.52C158.513 134.721 160.801 127.926 160.982 121.316C161.163 114.725 159.278 108.047 157.488 103.888L154.732 105.074C156.402 108.953 158.149 115.193 157.983 121.234C157.819 127.254 155.782 132.804 150.195 135.895L151.647 138.52ZM157.519 103.966L150.599 85.0193L147.781 86.0485L154.701 104.995L157.519 103.966ZM150.613 85.0578C148.793 79.6223 141.883 68.2884 128.598 66.8185L128.269 69.8003C139.892 71.0863 146.128 81.1108 147.768 86.01L150.613 85.0578ZM128.598 66.8185C116.105 65.4362 107.169 65.0869 104.218 65.0869V68.0869C107.032 68.0869 115.854 68.4267 128.269 69.8003L128.598 66.8185Z" fill="#FFD3B9"/>
<rect x="73.4181" y="124.615" width="62.154" height="9.47151" fill="url(#paint0_linear_1475_16019)"/>
<path d="M79.7628 91.8807V93.3807H81.2628V91.8807H79.7628ZM69.7427 96.3341H71.2427H69.7427ZM79.7628 100.788H81.2628V99.2876H79.7628V100.788ZM88.6697 100.788V99.2876H87.1697V100.788H88.6697ZM88.6697 91.8807H87.1697V93.3807H88.6697V91.8807ZM81.2628 86.314C81.2628 84.6829 82.5851 83.3606 84.2162 83.3606V80.3606C80.9283 80.3606 78.2628 83.026 78.2628 86.314H81.2628ZM81.2628 91.8807V86.314H78.2628V91.8807H81.2628ZM74.1961 93.3807H79.7628V90.3807H74.1961V93.3807ZM71.2427 96.3341C71.2427 94.703 72.565 93.3807 74.1961 93.3807V90.3807C70.9081 90.3807 68.2427 93.0461 68.2427 96.3341H71.2427ZM74.1961 99.2876C72.565 99.2876 71.2427 97.9653 71.2427 96.3341H68.2427C68.2427 99.6221 70.9081 102.288 74.1961 102.288V99.2876ZM79.7628 99.2876H74.1961V102.288H79.7628V99.2876ZM81.2628 106.354V100.788H78.2628V106.354H81.2628ZM84.2162 109.308C82.5851 109.308 81.2628 107.986 81.2628 106.354H78.2628C78.2628 109.642 80.9283 112.308 84.2162 112.308V109.308ZM87.1697 106.354C87.1697 107.986 85.8474 109.308 84.2162 109.308V112.308C87.5042 112.308 90.1697 109.642 90.1697 106.354H87.1697ZM87.1697 100.788V106.354H90.1697V100.788H87.1697ZM94.2365 99.2876H88.6697V102.288H94.2365V99.2876ZM97.19 96.3341C97.19 97.9653 95.8677 99.2876 94.2365 99.2876V102.288C97.5245 102.288 100.19 99.6221 100.19 96.3341H97.19ZM94.2365 93.3807C95.8677 93.3807 97.19 94.703 97.19 96.3341H100.19C100.19 93.0461 97.5245 90.3807 94.2365 90.3807V93.3807ZM88.6697 93.3807H94.2365V90.3807H88.6697V93.3807ZM87.1697 86.314V91.8807H90.1697V86.314H87.1697ZM84.2162 83.3606C85.8474 83.3606 87.1697 84.6829 87.1697 86.314H90.1697C90.1697 83.026 87.5042 80.3606 84.2162 80.3606V83.3606Z" fill="#FFD3B9"/>
<circle cx="115.579" cy="87.3403" r="5.47971" stroke="#FFD3B9" stroke-width="3"/>
<circle cx="130.92" cy="100.492" r="5.47971" stroke="#FFD3B9" stroke-width="3"/>
<rect x="85.4888" y="102.29" width="12.1095" height="6.71416" fill="url(#paint1_linear_1475_16019)"/>
<rect x="83.6978" y="90.3673" width="12.1095" height="6.71416" transform="rotate(-180 83.6978 90.3673)" fill="url(#paint2_linear_1475_16019)"/>
<g filter="url(#filter1_f_1475_16019)">
<circle cx="110.58" cy="281.649" r="76.6242" fill="#232323" fill-opacity="0.3"/>
</g>
<path d="M84.0366 248.31L147.889 273.173L71.6051 301.427L132.632 320.639" stroke="#F39B87" stroke-width="3"/>
<path d="M84.0366 248.31L147.889 273.173L71.6051 301.427L132.632 320.639" stroke="url(#paint3_linear_1475_16019)" stroke-width="3"/>
<path d="M84.0366 248.31L147.889 273.173L71.6051 301.427L132.632 320.639" stroke="url(#paint4_linear_1475_16019)" stroke-width="3"/>
<circle cx="84.6012" cy="248.875" r="16.5822" fill="#2D2728" stroke="#F39B87" stroke-width="3"/>
<circle cx="147.889" cy="273.738" r="13.1918" fill="#262323" stroke="#F39B87" stroke-width="3"/>
<circle cx="71.605" cy="301.427" r="11.4966" fill="#2A2425" stroke="#F39B87" stroke-width="3"/>
<circle cx="132.633" cy="319.509" r="11.4966" fill="#242223" stroke="#F39B87" stroke-width="3"/>
<g filter="url(#filter2_f_1475_16019)">
<circle cx="276.376" cy="182.836" r="76.6242" fill="#232323" fill-opacity="0.3"/>
</g>
<path d="M260.715 233.54H303.807V224.277C303.807 220.377 302.338 211.114 310.663 199.413C318.987 187.712 320.456 177.961 320.456 172.11C320.456 166.26 318.498 132.132 278.344 132.132C246.221 132.132 240.149 156.834 241.128 169.185L230.092 189.403C229.475 190.533 230.071 191.942 231.31 192.288L241.128 195.025V210.427C241.128 214.845 244.71 218.427 249.128 218.427H260.715V233.54Z" fill="#262324" stroke="#FF85B3" stroke-width="3"/>
<rect x="255.362" y="219.7" width="9.3739" height="10.2558" fill="url(#paint5_linear_1475_16019)"/>
<path d="M291.483 175.028C296.624 169.887 300.299 164.355 302.121 159.619C303.032 157.25 303.454 155.147 303.411 153.429C303.369 151.723 302.876 150.488 302.054 149.666C301.231 148.844 299.997 148.351 298.29 148.308C296.573 148.266 294.47 148.687 292.1 149.599C287.364 151.42 281.832 155.095 276.691 160.237C271.55 165.378 267.875 170.91 266.053 175.646C265.142 178.015 264.72 180.118 264.763 181.836C264.805 183.542 265.298 184.776 266.121 185.599C266.943 186.421 268.177 186.914 269.884 186.957C271.601 186.999 273.704 186.578 276.074 185.666C280.81 183.845 286.342 180.17 291.483 175.028Z" stroke="#FF85B3" stroke-width="3"/>
<path d="M276.693 175.028C281.834 180.17 287.366 183.845 292.102 185.666C294.472 186.578 296.575 186.999 298.292 186.956C299.999 186.914 301.233 186.421 302.056 185.599C302.878 184.776 303.371 183.542 303.413 181.835C303.456 180.118 303.034 178.015 302.123 175.645C300.301 170.91 296.626 165.378 291.485 160.236C286.344 155.095 280.812 151.42 276.076 149.598C273.706 148.687 271.603 148.266 269.886 148.308C268.179 148.351 266.945 148.843 266.123 149.666C265.3 150.488 264.807 151.722 264.765 153.429C264.722 155.147 265.144 157.25 266.055 159.619C267.877 164.355 271.552 169.887 276.693 175.028Z" stroke="#FF85B3" stroke-width="3"/>
<path d="M292.378 177.124L300.882 165.714L310.355 173.198L301.385 184.552L292.378 177.124Z" fill="url(#paint6_linear_1475_16019)"/>
<path d="M283.198 156.599C283.198 156.599 284.255 155.61 285.533 154.757C286.812 153.905 288.311 153.19 288.311 153.19L295.96 162.947L290.735 166.755L283.198 156.599Z" fill="url(#paint7_linear_1475_16019)"/>
<path d="M285.535 178.083C285.535 178.083 284.371 179.29 282.917 180.307C281.462 181.324 279.718 182.153 279.718 182.153L273.449 175.659L279.35 171.084L285.535 178.083Z" fill="url(#paint8_linear_1475_16019)"/>
<path d="M272.286 162.771C272.286 162.771 270.522 164.94 269.49 166.378C268.459 167.815 267.549 169.248 267.549 169.248L257.59 158.629L264.018 153.201L272.286 162.771Z" fill="url(#paint9_linear_1475_16019)"/>
<defs>
<filter id="filter0_f_1475_16019" x="1.90234" y="0.221191" width="205.248" height="205.248" filterUnits="userSpaceOnUse" color-interpolation-filters="sRGB">
<feFlood flood-opacity="0" result="BackgroundImageFix"/>
<feBlend mode="normal" in="SourceGraphic" in2="BackgroundImageFix" result="shape"/>
<feGaussianBlur stdDeviation="13" result="effect1_foregroundBlur_1475_16019"/>
</filter>
<filter id="filter1_f_1475_16019" x="7.95605" y="179.025" width="205.248" height="205.248" filterUnits="userSpaceOnUse" color-interpolation-filters="sRGB">
<feFlood flood-opacity="0" result="BackgroundImageFix"/>
<feBlend mode="normal" in="SourceGraphic" in2="BackgroundImageFix" result="shape"/>
<feGaussianBlur stdDeviation="13" result="effect1_foregroundBlur_1475_16019"/>
</filter>
<filter id="filter2_f_1475_16019" x="173.752" y="80.212" width="205.248" height="205.248" filterUnits="userSpaceOnUse" color-interpolation-filters="sRGB">
<feFlood flood-opacity="0" result="BackgroundImageFix"/>
<feBlend mode="normal" in="SourceGraphic" in2="BackgroundImageFix" result="shape"/>
<feGaussianBlur stdDeviation="13" result="effect1_foregroundBlur_1475_16019"/>
</filter>
<linearGradient id="paint0_linear_1475_16019" x1="104.495" y1="125.799" x2="104.495" y2="134.087" gradientUnits="userSpaceOnUse">
<stop stop-color="#1C1C1C"/>
<stop offset="1" stop-color="#1C1C1C" stop-opacity="0"/>
</linearGradient>
<linearGradient id="paint1_linear_1475_16019" x1="91.5435" y1="103.129" x2="91.5435" y2="109.004" gradientUnits="userSpaceOnUse">
<stop stop-color="#1C1C1C"/>
<stop offset="1" stop-color="#1C1C1C" stop-opacity="0"/>
</linearGradient>
<linearGradient id="paint2_linear_1475_16019" x1="89.7525" y1="91.2066" x2="89.7525" y2="97.0815" gradientUnits="userSpaceOnUse">
<stop stop-color="#1C1C1C"/>
<stop offset="1" stop-color="#1C1C1C" stop-opacity="0"/>
</linearGradient>
<linearGradient id="paint3_linear_1475_16019" x1="138.159" y1="281.544" x2="119.537" y2="276.112" gradientUnits="userSpaceOnUse">
<stop stop-color="#2E2E2E"/>
<stop offset="1" stop-color="#2E2E2E" stop-opacity="0"/>
</linearGradient>
<linearGradient id="paint4_linear_1475_16019" x1="76.4743" y1="305.209" x2="93.5444" y2="311.416" gradientUnits="userSpaceOnUse">
<stop stop-color="#2E2E2E"/>
<stop offset="1" stop-color="#2E2E2E" stop-opacity="0"/>
</linearGradient>
<linearGradient id="paint5_linear_1475_16019" x1="259.209" y1="220.36" x2="260.011" y2="229.776" gradientUnits="userSpaceOnUse">
<stop stop-color="#2E2E2E"/>
<stop offset="1" stop-color="#2E2E2E" stop-opacity="0"/>
</linearGradient>
<linearGradient id="paint6_linear_1475_16019" x1="297.581" y1="172.326" x2="305.87" y2="178.875" gradientUnits="userSpaceOnUse">
<stop stop-color="#1C1C1C"/>
<stop offset="1" stop-color="#1C1C1C" stop-opacity="0"/>
</linearGradient>
<linearGradient id="paint7_linear_1475_16019" x1="286.721" y1="155.851" x2="293.304" y2="164.883" gradientUnits="userSpaceOnUse">
<stop stop-color="#1C1C1C"/>
<stop offset="1" stop-color="#1C1C1C" stop-opacity="0"/>
</linearGradient>
<linearGradient id="paint8_linear_1475_16019" x1="281.726" y1="179.753" x2="276.636" y2="173.188" gradientUnits="userSpaceOnUse">
<stop stop-color="#1C1C1C"/>
<stop offset="1" stop-color="#1C1C1C" stop-opacity="0"/>
</linearGradient>
<linearGradient id="paint9_linear_1475_16019" x1="269.066" y1="165.588" x2="260.858" y2="155.869" gradientUnits="userSpaceOnUse">
<stop stop-color="#1C1C1C"/>
<stop offset="1" stop-color="#1C1C1C" stop-opacity="0"/>
</linearGradient>
</defs>
</svg>
