<svg width="576" height="663" viewBox="0 0 576 663" fill="none" xmlns="http://www.w3.org/2000/svg">
<path opacity="0.5" d="M228 334.5C228 359.322 235.36 383.586 249.151 404.224C262.941 424.862 282.541 440.948 305.473 450.447C328.405 459.946 353.639 462.431 377.984 457.589C402.328 452.746 424.69 440.793 442.242 423.242C459.793 405.69 471.746 383.328 476.589 358.984C481.431 334.639 478.946 309.405 469.447 286.473C459.948 263.541 443.862 243.941 423.224 230.151C402.586 216.36 378.322 209 353.5 209" stroke="#FF864E" stroke-width="4.46226" stroke-linecap="round"/>
<path opacity="0.5" d="M188 334.5C188 367.233 197.706 399.231 215.892 426.447C234.077 453.663 259.925 474.876 290.166 487.402C320.407 499.928 353.684 503.206 385.787 496.82C417.891 490.434 447.381 474.672 470.526 451.526C493.672 428.381 509.434 398.891 515.82 366.787C522.206 334.684 518.928 301.407 506.402 271.166C493.876 240.925 472.663 215.077 445.447 196.892C418.231 178.706 386.233 169 353.5 169" stroke="#FF864E" stroke-width="4.46226" stroke-linecap="round"/>
<path d="M148 334.5C148 375.144 160.052 414.875 182.633 448.67C205.214 482.464 237.308 508.803 274.859 524.357C312.409 539.911 353.728 543.981 393.591 536.051C433.454 528.122 470.071 508.55 498.81 479.81C527.55 451.071 547.122 414.454 555.051 374.591C562.981 334.728 558.911 293.409 543.357 255.859C527.803 218.308 501.464 186.214 467.67 163.633C433.875 141.052 394.144 129 353.5 129" stroke="#C95632" stroke-width="4.46226" stroke-linecap="round"/>
<path opacity="0.5" d="M68 334.5C68 390.967 84.7443 446.165 116.115 493.115C147.487 540.066 192.076 576.659 244.244 598.268C296.412 619.876 353.817 625.53 409.198 614.514C464.58 603.498 515.451 576.307 555.379 536.379C595.307 496.451 622.498 445.58 633.514 390.198C644.53 334.817 638.876 277.412 617.268 225.244C595.659 173.076 559.066 128.487 512.115 97.1154C465.165 65.7443 409.967 49 353.5 49" stroke="#FF864E" stroke-width="4.46226" stroke-linecap="round"/>
<path opacity="0.5" d="M108 334.5C108 383.055 122.398 430.52 149.374 470.892C176.35 511.265 214.692 542.731 259.551 561.312C304.41 579.894 353.772 584.755 401.395 575.283C449.017 565.81 492.761 542.429 527.095 508.095C561.428 473.761 584.81 430.017 594.283 382.395C603.755 334.772 598.894 285.411 580.312 240.551C561.731 195.692 530.265 157.35 489.893 130.374C449.52 103.398 402.055 89 353.5 89" stroke="#FF864E" stroke-width="4.46226" stroke-linecap="round"/>
<path opacity="0.5" d="M28 334.5C28 398.878 47.0902 461.81 82.8566 515.338C118.623 568.866 169.459 610.586 228.937 635.223C288.414 659.859 353.861 666.305 417.002 653.746C480.143 641.186 538.141 610.185 583.663 564.663C629.185 519.141 660.186 461.143 672.746 398.002C685.305 334.861 678.859 269.414 654.223 209.937C629.586 150.459 587.866 99.6231 534.338 63.8567C480.81 28.0902 417.878 9 353.5 9" stroke="#FF864E" stroke-width="4.46226" stroke-linecap="round"/>
<path opacity="0.3" d="M193.667 163.4V176H192.389V163.4H193.667ZM204.384 169.826V176H203.16V169.97C203.16 169.346 202.962 168.848 202.566 168.476C202.182 168.104 201.66 167.918 201 167.918C200.184 167.918 199.5 168.218 198.948 168.818C198.396 169.418 198.12 170.234 198.12 171.266V176H196.896V166.982H198.12V168.656C198.744 167.432 199.782 166.82 201.234 166.82C202.194 166.82 202.956 167.084 203.52 167.612C204.096 168.14 204.384 168.878 204.384 169.826ZM211.439 174.884V176H210.125C209.393 176 208.835 175.85 208.451 175.55C208.055 175.25 207.857 174.638 207.857 173.714V168.08H206.075V166.982H207.857V164.426L209.081 164.084V166.982H211.259V168.08H209.081V173.624C209.081 174.068 209.171 174.392 209.351 174.596C209.531 174.788 209.855 174.884 210.323 174.884H211.439ZM221.038 171.788H214.162C214.162 172.868 214.45 173.684 215.026 174.236C215.614 174.8 216.328 175.082 217.168 175.082C217.78 175.082 218.314 174.938 218.77 174.65C219.226 174.35 219.538 173.936 219.706 173.408H220.912C220.708 174.308 220.252 174.998 219.544 175.478C218.848 175.958 218.032 176.198 217.096 176.198C215.92 176.198 214.936 175.79 214.144 174.974C213.352 174.158 212.956 173.006 212.956 171.518C212.956 170.018 213.352 168.86 214.144 168.044C214.948 167.228 215.95 166.82 217.15 166.82C218.302 166.82 219.238 167.198 219.958 167.954C220.678 168.698 221.038 169.772 221.038 171.176V171.788ZM214.198 170.744H219.796C219.796 169.868 219.544 169.178 219.04 168.674C218.548 168.158 217.9 167.9 217.096 167.9C216.316 167.9 215.656 168.152 215.116 168.656C214.576 169.148 214.27 169.844 214.198 170.744ZM224.58 163.202V176H223.356V163.202H224.58ZM228.759 163.202V176H227.535V163.202H228.759ZM231.588 164.84V163.22H232.974V164.84H231.588ZM231.678 176V166.982H232.902V176H231.678ZM243.528 166.982V175.604C243.528 176.912 243.156 177.914 242.412 178.61C241.68 179.306 240.69 179.654 239.442 179.654C238.386 179.654 237.474 179.384 236.706 178.844C235.95 178.316 235.506 177.548 235.374 176.54H236.616C236.724 177.176 237.012 177.668 237.48 178.016C237.96 178.376 238.614 178.556 239.442 178.556C240.342 178.556 241.05 178.31 241.566 177.818C242.082 177.338 242.34 176.618 242.34 175.658V173.876C242.04 174.476 241.608 174.926 241.044 175.226C240.48 175.514 239.85 175.658 239.154 175.658C237.99 175.658 237.036 175.268 236.292 174.488C235.548 173.708 235.176 172.628 235.176 171.248C235.176 169.868 235.554 168.788 236.31 168.008C237.078 167.216 238.044 166.82 239.208 166.82C239.904 166.82 240.522 166.964 241.062 167.252C241.614 167.54 242.034 167.936 242.322 168.44V166.982H243.528ZM242.268 171.248C242.268 170.192 241.998 169.37 241.458 168.782C240.918 168.182 240.222 167.882 239.37 167.882C238.53 167.882 237.822 168.182 237.246 168.782C236.67 169.37 236.382 170.186 236.382 171.23C236.382 172.274 236.664 173.09 237.228 173.678C237.792 174.266 238.5 174.56 239.352 174.56C240.18 174.56 240.87 174.284 241.422 173.732C241.986 173.168 242.268 172.34 242.268 171.248ZM253.836 171.788H246.96C246.96 172.868 247.248 173.684 247.824 174.236C248.412 174.8 249.126 175.082 249.966 175.082C250.578 175.082 251.112 174.938 251.568 174.65C252.024 174.35 252.336 173.936 252.504 173.408H253.71C253.506 174.308 253.05 174.998 252.342 175.478C251.646 175.958 250.83 176.198 249.894 176.198C248.718 176.198 247.734 175.79 246.942 174.974C246.15 174.158 245.754 173.006 245.754 171.518C245.754 170.018 246.15 168.86 246.942 168.044C247.746 167.228 248.748 166.82 249.948 166.82C251.1 166.82 252.036 167.198 252.756 167.954C253.476 168.698 253.836 169.772 253.836 171.176V171.788ZM246.996 170.744H252.594C252.594 169.868 252.342 169.178 251.838 168.674C251.346 168.158 250.698 167.9 249.894 167.9C249.114 167.9 248.454 168.152 247.914 168.656C247.374 169.148 247.068 169.844 246.996 170.744ZM263.641 169.826V176H262.417V169.97C262.417 169.346 262.219 168.848 261.823 168.476C261.439 168.104 260.917 167.918 260.257 167.918C259.441 167.918 258.757 168.218 258.205 168.818C257.653 169.418 257.377 170.234 257.377 171.266V176H256.153V166.982H257.377V168.656C258.001 167.432 259.039 166.82 260.491 166.82C261.451 166.82 262.213 167.084 262.777 167.612C263.353 168.14 263.641 168.878 263.641 169.826ZM269.994 176.198C268.734 176.198 267.732 175.778 266.988 174.938C266.244 174.098 265.872 172.97 265.872 171.554C265.872 170.138 266.256 168.998 267.024 168.134C267.804 167.258 268.836 166.82 270.12 166.82C271.164 166.82 272.034 167.096 272.73 167.648C273.45 168.212 273.834 168.986 273.882 169.97H272.694C272.622 169.334 272.346 168.83 271.866 168.458C271.386 168.086 270.798 167.9 270.102 167.9C269.19 167.9 268.464 168.23 267.924 168.89C267.384 169.538 267.114 170.414 267.114 171.518C267.114 172.61 267.378 173.474 267.906 174.11C268.434 174.746 269.154 175.064 270.066 175.064C270.774 175.064 271.368 174.866 271.848 174.47C272.34 174.062 272.616 173.522 272.676 172.85H273.882C273.81 173.846 273.396 174.656 272.64 175.28C271.896 175.892 271.014 176.198 269.994 176.198ZM283.653 171.788H276.777C276.777 172.868 277.065 173.684 277.641 174.236C278.229 174.8 278.943 175.082 279.783 175.082C280.395 175.082 280.929 174.938 281.385 174.65C281.841 174.35 282.153 173.936 282.321 173.408H283.527C283.323 174.308 282.867 174.998 282.159 175.478C281.463 175.958 280.647 176.198 279.711 176.198C278.535 176.198 277.551 175.79 276.759 174.974C275.967 174.158 275.571 173.006 275.571 171.518C275.571 170.018 275.967 168.86 276.759 168.044C277.563 167.228 278.565 166.82 279.765 166.82C280.917 166.82 281.853 167.198 282.573 167.954C283.293 168.698 283.653 169.772 283.653 171.176V171.788ZM276.813 170.744H282.411C282.411 169.868 282.159 169.178 281.655 168.674C281.163 168.158 280.515 167.9 279.711 167.9C278.931 167.9 278.271 168.152 277.731 168.656C277.191 169.148 276.885 169.844 276.813 170.744ZM298.37 163.4V164.534H294.05V176H292.772V164.534H288.47V163.4H298.37ZM303.751 166.874V168.044H303.463C302.491 168.044 301.747 168.314 301.231 168.854C300.727 169.382 300.475 170.168 300.475 171.212V176H299.251V166.982H300.457V168.638C300.661 168.062 301.015 167.624 301.519 167.324C302.023 167.024 302.635 166.874 303.355 166.874H303.751ZM311.014 176V174.362C310.69 174.95 310.222 175.406 309.61 175.73C309.01 176.042 308.368 176.198 307.684 176.198C306.844 176.198 306.154 175.964 305.614 175.496C305.086 175.016 304.822 174.368 304.822 173.552C304.822 172.052 305.77 171.164 307.666 170.888L309.7 170.582C310.144 170.51 310.474 170.396 310.69 170.24C310.906 170.072 311.014 169.802 311.014 169.43C311.014 168.95 310.828 168.578 310.456 168.314C310.096 168.05 309.574 167.918 308.89 167.918C307.438 167.918 306.604 168.47 306.388 169.574H305.128C305.284 168.698 305.692 168.02 306.352 167.54C307.024 167.06 307.9 166.82 308.98 166.82C310.012 166.82 310.804 167.066 311.356 167.558C311.92 168.038 312.202 168.734 312.202 169.646V176H311.014ZM309.448 171.608L308.08 171.824C307.48 171.92 307.006 172.076 306.658 172.292C306.274 172.508 306.082 172.916 306.082 173.516C306.082 174.032 306.244 174.422 306.568 174.686C306.892 174.95 307.336 175.082 307.9 175.082C308.716 175.082 309.43 174.812 310.042 174.272C310.666 173.732 310.978 173.006 310.978 172.094V171.194C310.69 171.35 310.18 171.488 309.448 171.608ZM314.937 164.84V163.22H316.323V164.84H314.937ZM315.027 176V166.982H316.251V176H315.027ZM323.348 174.884V176H322.034C321.302 176 320.744 175.85 320.36 175.55C319.964 175.25 319.766 174.638 319.766 173.714V168.08H317.984V166.982H319.766V164.426L320.99 164.084V166.982H323.168V168.08H320.99V173.624C320.99 174.068 321.08 174.392 321.26 174.596C321.44 174.788 321.764 174.884 322.232 174.884H323.348ZM332.156 173.444C332.156 174.344 331.82 175.028 331.148 175.496C330.488 175.964 329.666 176.198 328.682 176.198C327.638 176.198 326.75 175.94 326.018 175.424C325.286 174.908 324.872 174.176 324.776 173.228H326.09C326.186 173.828 326.468 174.29 326.936 174.614C327.416 174.938 328.004 175.1 328.7 175.1C329.336 175.1 329.858 174.968 330.266 174.704C330.674 174.44 330.878 174.074 330.878 173.606C330.878 173.174 330.71 172.856 330.374 172.652C330.038 172.436 329.504 172.268 328.772 172.148C327.968 172.028 327.308 171.89 326.792 171.734C325.592 171.374 324.992 170.624 324.992 169.484C324.992 168.644 325.304 167.99 325.928 167.522C326.564 167.054 327.386 166.82 328.394 166.82C329.414 166.82 330.242 167.06 330.878 167.54C331.526 168.008 331.874 168.668 331.922 169.52H330.644C330.596 169.004 330.362 168.608 329.942 168.332C329.522 168.044 328.988 167.9 328.34 167.9C327.716 167.9 327.212 168.038 326.828 168.314C326.456 168.578 326.27 168.944 326.27 169.412C326.306 169.928 326.492 170.276 326.828 170.456C327.164 170.624 327.8 170.792 328.736 170.96C329.468 171.08 330.062 171.206 330.518 171.338C331.61 171.662 332.156 172.364 332.156 173.444Z" fill="#2E1500"/>
<path d="M161.648 137.324C160.424 137.348 159.344 137.048 158.408 136.424C157.484 135.788 156.788 134.966 156.32 133.958C155.864 132.938 155.642 131.828 155.654 130.628C155.63 128.78 156.17 127.226 157.274 125.966C158.39 124.694 159.89 124.07 161.774 124.094C163.226 124.094 164.414 124.466 165.338 125.21C166.262 125.954 166.796 127.004 166.94 128.36H165.302C165.194 127.496 164.81 126.812 164.15 126.308C163.502 125.792 162.686 125.534 161.702 125.534C160.322 125.534 159.23 126.026 158.426 127.01C157.634 127.982 157.238 129.182 157.238 130.61C157.238 132.086 157.64 133.334 158.444 134.354C159.26 135.362 160.376 135.866 161.792 135.866C162.86 135.866 163.718 135.578 164.366 135.002C165.026 134.414 165.368 133.604 165.392 132.572H167.012C167 133.988 166.478 135.134 165.446 136.01C164.426 136.886 163.16 137.324 161.648 137.324ZM176.266 129.026C177.082 129.878 177.49 131.024 177.49 132.464C177.49 133.904 177.082 135.056 176.266 135.92C175.45 136.772 174.394 137.198 173.098 137.198C171.802 137.198 170.746 136.766 169.93 135.902C169.126 135.038 168.724 133.892 168.724 132.464C168.724 131.036 169.126 129.89 169.93 129.026C170.746 128.162 171.802 127.73 173.098 127.73C174.394 127.73 175.45 128.162 176.266 129.026ZM175.168 129.998C174.64 129.398 173.944 129.098 173.08 129.098C172.216 129.098 171.526 129.404 171.01 130.016C170.506 130.616 170.254 131.432 170.254 132.464C170.254 133.52 170.512 134.348 171.028 134.948C171.556 135.536 172.258 135.83 173.134 135.83C173.998 135.83 174.682 135.53 175.186 134.93C175.702 134.318 175.96 133.496 175.96 132.464C175.96 131.408 175.696 130.586 175.168 129.998ZM192.338 130.592V137H190.844V131.078C190.844 130.43 190.682 129.938 190.358 129.602C190.034 129.266 189.59 129.098 189.026 129.098C188.33 129.098 187.778 129.362 187.37 129.89C186.974 130.418 186.776 131.15 186.776 132.086V137H185.3V131.078C185.3 130.43 185.138 129.938 184.814 129.602C184.49 129.266 184.046 129.098 183.482 129.098C182.786 129.098 182.234 129.362 181.826 129.89C181.43 130.406 181.232 131.132 181.232 132.068V137H179.738V127.892H181.196V129.368C181.664 128.276 182.504 127.73 183.716 127.73C184.4 127.73 184.982 127.91 185.462 128.27C185.942 128.63 186.254 129.092 186.398 129.656C186.854 128.372 187.82 127.73 189.296 127.73C190.22 127.73 190.958 127.982 191.51 128.486C192.062 128.978 192.338 129.68 192.338 130.592ZM207.733 130.592V137H206.239V131.078C206.239 130.43 206.077 129.938 205.753 129.602C205.429 129.266 204.985 129.098 204.421 129.098C203.725 129.098 203.173 129.362 202.765 129.89C202.369 130.418 202.171 131.15 202.171 132.086V137H200.695V131.078C200.695 130.43 200.533 129.938 200.209 129.602C199.885 129.266 199.441 129.098 198.877 129.098C198.181 129.098 197.629 129.362 197.221 129.89C196.825 130.406 196.627 131.132 196.627 132.068V137H195.133V127.892H196.591V129.368C197.059 128.276 197.899 127.73 199.111 127.73C199.795 127.73 200.377 127.91 200.857 128.27C201.337 128.63 201.649 129.092 201.793 129.656C202.249 128.372 203.215 127.73 204.691 127.73C205.615 127.73 206.353 127.982 206.905 128.486C207.457 128.978 207.733 129.68 207.733 130.592ZM217.925 127.892V137H216.467V135.398C215.867 136.538 214.913 137.108 213.605 137.108C212.693 137.108 211.937 136.82 211.337 136.244C210.737 135.668 210.437 134.864 210.437 133.832V127.892H211.931V133.58C211.931 134.276 212.111 134.816 212.471 135.2C212.843 135.584 213.329 135.776 213.929 135.776C214.625 135.776 215.213 135.488 215.693 134.912C216.185 134.324 216.431 133.52 216.431 132.5V127.892H217.925ZM228.456 130.826V137H226.962V130.97C226.962 130.406 226.788 129.95 226.44 129.602C226.092 129.254 225.606 129.08 224.982 129.08C224.166 129.08 223.512 129.374 223.02 129.962C222.54 130.538 222.3 131.33 222.3 132.338V137H220.806V127.892H222.282V129.476C222.894 128.312 223.884 127.73 225.252 127.73C226.224 127.73 226.998 128.006 227.574 128.558C228.162 129.11 228.456 129.866 228.456 130.826ZM231.117 125.84V124.04H232.791V125.84H231.117ZM231.207 137V127.892H232.701V137H231.207ZM241.611 133.742H243.087C243.015 134.81 242.607 135.656 241.863 136.28C241.119 136.892 240.219 137.198 239.163 137.198C237.915 137.198 236.895 136.79 236.103 135.974C235.311 135.158 234.915 134.006 234.915 132.518C234.915 131.018 235.317 129.848 236.121 129.008C236.937 128.156 238.005 127.73 239.325 127.73C240.429 127.73 241.323 128.03 242.007 128.63C242.703 129.218 243.069 130.028 243.105 131.06H241.647C241.611 130.448 241.377 129.956 240.945 129.584C240.525 129.212 239.961 129.026 239.253 129.026C238.389 129.026 237.699 129.32 237.183 129.908C236.679 130.496 236.427 131.336 236.427 132.428C236.427 133.532 236.685 134.378 237.201 134.966C237.729 135.554 238.395 135.848 239.199 135.848C239.871 135.848 240.435 135.656 240.891 135.272C241.347 134.876 241.587 134.366 241.611 133.742ZM252.298 130.628V137H250.84V135.524C250.156 136.64 249.082 137.198 247.618 137.198C246.766 137.198 246.07 136.964 245.53 136.496C244.99 136.016 244.72 135.368 244.72 134.552C244.72 133.616 244.996 132.968 245.548 132.608C246.124 132.236 246.766 131.99 247.474 131.87L249.274 131.564C249.85 131.456 250.252 131.324 250.48 131.168C250.708 131 250.822 130.73 250.822 130.358C250.822 129.482 250.204 129.044 248.968 129.044C247.588 129.044 246.772 129.578 246.52 130.646H245.008C245.14 129.734 245.572 129.02 246.304 128.504C247.036 127.988 247.948 127.73 249.04 127.73C251.212 127.73 252.298 128.696 252.298 130.628ZM249.256 132.68L248.158 132.86C247.486 132.968 246.994 133.13 246.682 133.346C246.382 133.562 246.232 133.922 246.232 134.426C246.232 135.386 246.796 135.866 247.924 135.866C248.728 135.866 249.406 135.62 249.958 135.128C250.522 134.636 250.804 133.958 250.804 133.094V132.266C250.444 132.434 249.928 132.572 249.256 132.68ZM259.512 135.668V137H258.198C257.406 137 256.782 136.838 256.326 136.514C255.882 136.178 255.66 135.53 255.66 134.57V129.224H253.914V127.892H255.66V125.462L257.154 125.048V127.892H259.296V129.224H257.154V134.39C257.154 134.846 257.238 135.176 257.406 135.38C257.586 135.572 257.904 135.668 258.36 135.668H259.512ZM261.458 125.84V124.04H263.132V125.84H261.458ZM261.548 137V127.892H263.042V137H261.548ZM272.798 129.026C273.614 129.878 274.022 131.024 274.022 132.464C274.022 133.904 273.614 135.056 272.798 135.92C271.982 136.772 270.926 137.198 269.63 137.198C268.334 137.198 267.278 136.766 266.462 135.902C265.658 135.038 265.256 133.892 265.256 132.464C265.256 131.036 265.658 129.89 266.462 129.026C267.278 128.162 268.334 127.73 269.63 127.73C270.926 127.73 271.982 128.162 272.798 129.026ZM271.7 129.998C271.172 129.398 270.476 129.098 269.612 129.098C268.748 129.098 268.058 129.404 267.542 130.016C267.038 130.616 266.786 131.432 266.786 132.464C266.786 133.52 267.044 134.348 267.56 134.948C268.088 135.536 268.79 135.83 269.666 135.83C270.53 135.83 271.214 135.53 271.718 134.93C272.234 134.318 272.492 133.496 272.492 132.464C272.492 131.408 272.228 130.586 271.7 129.998ZM283.92 130.826V137H282.426V130.97C282.426 130.406 282.252 129.95 281.904 129.602C281.556 129.254 281.07 129.08 280.446 129.08C279.63 129.08 278.976 129.374 278.484 129.962C278.004 130.538 277.764 131.33 277.764 132.338V137H276.27V127.892H277.746V129.476C278.358 128.312 279.348 127.73 280.716 127.73C281.688 127.73 282.462 128.006 283.038 128.558C283.626 129.11 283.92 129.866 283.92 130.826ZM295.789 137.324C294.445 137.324 293.293 136.934 292.333 136.154C291.373 135.374 290.875 134.282 290.839 132.878H292.495C292.507 133.862 292.837 134.612 293.485 135.128C294.145 135.644 294.937 135.902 295.861 135.902C296.677 135.902 297.337 135.71 297.841 135.326C298.357 134.942 298.615 134.432 298.615 133.796C298.615 133.256 298.441 132.83 298.093 132.518C297.721 132.194 297.349 131.972 296.977 131.852C296.509 131.708 295.933 131.552 295.249 131.384C294.433 131.192 293.749 130.976 293.197 130.736C291.877 130.148 291.217 129.158 291.217 127.766C291.217 126.578 291.619 125.672 292.423 125.048C293.239 124.412 294.283 124.094 295.555 124.094C296.815 124.094 297.865 124.412 298.705 125.048C299.533 125.672 299.977 126.566 300.037 127.73H298.453C298.429 127.01 298.165 126.458 297.661 126.074C297.157 125.69 296.473 125.498 295.609 125.498C294.733 125.498 294.037 125.69 293.521 126.074C293.005 126.446 292.747 126.986 292.747 127.694C292.747 128.186 292.885 128.588 293.161 128.9C293.425 129.176 293.749 129.392 294.133 129.548C294.517 129.704 295.075 129.866 295.807 130.034C296.803 130.274 297.565 130.49 298.093 130.682C298.657 130.886 299.155 131.222 299.587 131.69C300.019 132.158 300.235 132.8 300.235 133.616C300.235 134.756 299.803 135.662 298.939 136.334C298.087 136.994 297.037 137.324 295.789 137.324ZM310.528 137H308.728L305.578 132.86L304.066 134.426V137H302.572V124.202H304.066V132.5L308.422 127.892H310.384L306.604 131.798L310.528 137ZM312.11 125.84V124.04H313.784V125.84H312.11ZM312.2 137V127.892H313.694V137H312.2ZM318.032 124.202V137H316.538V124.202H318.032ZM322.405 124.202V137H320.911V124.202H322.405ZM332.196 134.336C332.196 135.26 331.842 135.968 331.134 136.46C330.426 136.952 329.556 137.198 328.524 137.198C327.456 137.198 326.55 136.94 325.806 136.424C325.062 135.896 324.648 135.14 324.564 134.156H326.112C326.196 134.72 326.46 135.146 326.904 135.434C327.36 135.722 327.936 135.866 328.632 135.866C329.232 135.866 329.712 135.752 330.072 135.524C330.432 135.284 330.612 134.954 330.612 134.534C330.612 134.15 330.468 133.868 330.18 133.688C329.904 133.496 329.466 133.358 328.866 133.274C327.894 133.118 327.198 132.986 326.778 132.878C326.274 132.746 325.818 132.494 325.41 132.122C325.002 131.75 324.798 131.198 324.798 130.466C324.798 129.614 325.116 128.948 325.752 128.468C326.4 127.976 327.24 127.73 328.272 127.73C329.292 127.73 330.156 127.976 330.864 128.468C331.572 128.96 331.932 129.674 331.944 130.61H330.414C330.402 130.118 330.198 129.74 329.802 129.476C329.406 129.2 328.896 129.062 328.272 129.062C327.696 129.062 327.228 129.176 326.868 129.404C326.52 129.632 326.346 129.962 326.346 130.394C326.346 130.838 326.526 131.156 326.886 131.348C327.246 131.54 327.858 131.702 328.722 131.834C329.514 131.942 330.108 132.056 330.504 132.176C330.996 132.308 331.398 132.554 331.71 132.914C332.034 133.274 332.196 133.748 332.196 134.336Z" fill="#2E1500"/>
<path opacity="0.3" d="M193.667 82.4V95H192.389V82.4H193.667ZM204.384 88.826V95H203.16V88.97C203.16 88.346 202.962 87.848 202.566 87.476C202.182 87.104 201.66 86.918 201 86.918C200.184 86.918 199.5 87.218 198.948 87.818C198.396 88.418 198.12 89.234 198.12 90.266V95H196.896V85.982H198.12V87.656C198.744 86.432 199.782 85.82 201.234 85.82C202.194 85.82 202.956 86.084 203.52 86.612C204.096 87.14 204.384 87.878 204.384 88.826ZM211.439 93.884V95H210.125C209.393 95 208.835 94.85 208.451 94.55C208.055 94.25 207.857 93.638 207.857 92.714V87.08H206.075V85.982H207.857V83.426L209.081 83.084V85.982H211.259V87.08H209.081V92.624C209.081 93.068 209.171 93.392 209.351 93.596C209.531 93.788 209.855 93.884 210.323 93.884H211.439ZM221.038 90.788H214.162C214.162 91.868 214.45 92.684 215.026 93.236C215.614 93.8 216.328 94.082 217.168 94.082C217.78 94.082 218.314 93.938 218.77 93.65C219.226 93.35 219.538 92.936 219.706 92.408H220.912C220.708 93.308 220.252 93.998 219.544 94.478C218.848 94.958 218.032 95.198 217.096 95.198C215.92 95.198 214.936 94.79 214.144 93.974C213.352 93.158 212.956 92.006 212.956 90.518C212.956 89.018 213.352 87.86 214.144 87.044C214.948 86.228 215.95 85.82 217.15 85.82C218.302 85.82 219.238 86.198 219.958 86.954C220.678 87.698 221.038 88.772 221.038 90.176V90.788ZM214.198 89.744H219.796C219.796 88.868 219.544 88.178 219.04 87.674C218.548 87.158 217.9 86.9 217.096 86.9C216.316 86.9 215.656 87.152 215.116 87.656C214.576 88.148 214.27 88.844 214.198 89.744ZM224.58 82.202V95H223.356V82.202H224.58ZM228.759 82.202V95H227.535V82.202H228.759ZM231.588 83.84V82.22H232.974V83.84H231.588ZM231.678 95V85.982H232.902V95H231.678ZM243.528 85.982V94.604C243.528 95.912 243.156 96.914 242.412 97.61C241.68 98.306 240.69 98.654 239.442 98.654C238.386 98.654 237.474 98.384 236.706 97.844C235.95 97.316 235.506 96.548 235.374 95.54H236.616C236.724 96.176 237.012 96.668 237.48 97.016C237.96 97.376 238.614 97.556 239.442 97.556C240.342 97.556 241.05 97.31 241.566 96.818C242.082 96.338 242.34 95.618 242.34 94.658V92.876C242.04 93.476 241.608 93.926 241.044 94.226C240.48 94.514 239.85 94.658 239.154 94.658C237.99 94.658 237.036 94.268 236.292 93.488C235.548 92.708 235.176 91.628 235.176 90.248C235.176 88.868 235.554 87.788 236.31 87.008C237.078 86.216 238.044 85.82 239.208 85.82C239.904 85.82 240.522 85.964 241.062 86.252C241.614 86.54 242.034 86.936 242.322 87.44V85.982H243.528ZM242.268 90.248C242.268 89.192 241.998 88.37 241.458 87.782C240.918 87.182 240.222 86.882 239.37 86.882C238.53 86.882 237.822 87.182 237.246 87.782C236.67 88.37 236.382 89.186 236.382 90.23C236.382 91.274 236.664 92.09 237.228 92.678C237.792 93.266 238.5 93.56 239.352 93.56C240.18 93.56 240.87 93.284 241.422 92.732C241.986 92.168 242.268 91.34 242.268 90.248ZM253.836 90.788H246.96C246.96 91.868 247.248 92.684 247.824 93.236C248.412 93.8 249.126 94.082 249.966 94.082C250.578 94.082 251.112 93.938 251.568 93.65C252.024 93.35 252.336 92.936 252.504 92.408H253.71C253.506 93.308 253.05 93.998 252.342 94.478C251.646 94.958 250.83 95.198 249.894 95.198C248.718 95.198 247.734 94.79 246.942 93.974C246.15 93.158 245.754 92.006 245.754 90.518C245.754 89.018 246.15 87.86 246.942 87.044C247.746 86.228 248.748 85.82 249.948 85.82C251.1 85.82 252.036 86.198 252.756 86.954C253.476 87.698 253.836 88.772 253.836 90.176V90.788ZM246.996 89.744H252.594C252.594 88.868 252.342 88.178 251.838 87.674C251.346 87.158 250.698 86.9 249.894 86.9C249.114 86.9 248.454 87.152 247.914 87.656C247.374 88.148 247.068 88.844 246.996 89.744ZM263.641 88.826V95H262.417V88.97C262.417 88.346 262.219 87.848 261.823 87.476C261.439 87.104 260.917 86.918 260.257 86.918C259.441 86.918 258.757 87.218 258.205 87.818C257.653 88.418 257.377 89.234 257.377 90.266V95H256.153V85.982H257.377V87.656C258.001 86.432 259.039 85.82 260.491 85.82C261.451 85.82 262.213 86.084 262.777 86.612C263.353 87.14 263.641 87.878 263.641 88.826ZM269.994 95.198C268.734 95.198 267.732 94.778 266.988 93.938C266.244 93.098 265.872 91.97 265.872 90.554C265.872 89.138 266.256 87.998 267.024 87.134C267.804 86.258 268.836 85.82 270.12 85.82C271.164 85.82 272.034 86.096 272.73 86.648C273.45 87.212 273.834 87.986 273.882 88.97H272.694C272.622 88.334 272.346 87.83 271.866 87.458C271.386 87.086 270.798 86.9 270.102 86.9C269.19 86.9 268.464 87.23 267.924 87.89C267.384 88.538 267.114 89.414 267.114 90.518C267.114 91.61 267.378 92.474 267.906 93.11C268.434 93.746 269.154 94.064 270.066 94.064C270.774 94.064 271.368 93.866 271.848 93.47C272.34 93.062 272.616 92.522 272.676 91.85H273.882C273.81 92.846 273.396 93.656 272.64 94.28C271.896 94.892 271.014 95.198 269.994 95.198ZM283.653 90.788H276.777C276.777 91.868 277.065 92.684 277.641 93.236C278.229 93.8 278.943 94.082 279.783 94.082C280.395 94.082 280.929 93.938 281.385 93.65C281.841 93.35 282.153 92.936 282.321 92.408H283.527C283.323 93.308 282.867 93.998 282.159 94.478C281.463 94.958 280.647 95.198 279.711 95.198C278.535 95.198 277.551 94.79 276.759 93.974C275.967 93.158 275.571 92.006 275.571 90.518C275.571 89.018 275.967 87.86 276.759 87.044C277.563 86.228 278.565 85.82 279.765 85.82C280.917 85.82 281.853 86.198 282.573 86.954C283.293 87.698 283.653 88.772 283.653 90.176V90.788ZM276.813 89.744H282.411C282.411 88.868 282.159 88.178 281.655 87.674C281.163 87.158 280.515 86.9 279.711 86.9C278.931 86.9 278.271 87.152 277.731 87.656C277.191 88.148 276.885 88.844 276.813 89.744ZM298.37 82.4V83.534H294.05V95H292.772V83.534H288.47V82.4H298.37ZM303.751 85.874V87.044H303.463C302.491 87.044 301.747 87.314 301.231 87.854C300.727 88.382 300.475 89.168 300.475 90.212V95H299.251V85.982H300.457V87.638C300.661 87.062 301.015 86.624 301.519 86.324C302.023 86.024 302.635 85.874 303.355 85.874H303.751ZM311.014 95V93.362C310.69 93.95 310.222 94.406 309.61 94.73C309.01 95.042 308.368 95.198 307.684 95.198C306.844 95.198 306.154 94.964 305.614 94.496C305.086 94.016 304.822 93.368 304.822 92.552C304.822 91.052 305.77 90.164 307.666 89.888L309.7 89.582C310.144 89.51 310.474 89.396 310.69 89.24C310.906 89.072 311.014 88.802 311.014 88.43C311.014 87.95 310.828 87.578 310.456 87.314C310.096 87.05 309.574 86.918 308.89 86.918C307.438 86.918 306.604 87.47 306.388 88.574H305.128C305.284 87.698 305.692 87.02 306.352 86.54C307.024 86.06 307.9 85.82 308.98 85.82C310.012 85.82 310.804 86.066 311.356 86.558C311.92 87.038 312.202 87.734 312.202 88.646V95H311.014ZM309.448 90.608L308.08 90.824C307.48 90.92 307.006 91.076 306.658 91.292C306.274 91.508 306.082 91.916 306.082 92.516C306.082 93.032 306.244 93.422 306.568 93.686C306.892 93.95 307.336 94.082 307.9 94.082C308.716 94.082 309.43 93.812 310.042 93.272C310.666 92.732 310.978 92.006 310.978 91.094V90.194C310.69 90.35 310.18 90.488 309.448 90.608ZM314.937 83.84V82.22H316.323V83.84H314.937ZM315.027 95V85.982H316.251V95H315.027ZM323.348 93.884V95H322.034C321.302 95 320.744 94.85 320.36 94.55C319.964 94.25 319.766 93.638 319.766 92.714V87.08H317.984V85.982H319.766V83.426L320.99 83.084V85.982H323.168V87.08H320.99V92.624C320.99 93.068 321.08 93.392 321.26 93.596C321.44 93.788 321.764 93.884 322.232 93.884H323.348ZM332.156 92.444C332.156 93.344 331.82 94.028 331.148 94.496C330.488 94.964 329.666 95.198 328.682 95.198C327.638 95.198 326.75 94.94 326.018 94.424C325.286 93.908 324.872 93.176 324.776 92.228H326.09C326.186 92.828 326.468 93.29 326.936 93.614C327.416 93.938 328.004 94.1 328.7 94.1C329.336 94.1 329.858 93.968 330.266 93.704C330.674 93.44 330.878 93.074 330.878 92.606C330.878 92.174 330.71 91.856 330.374 91.652C330.038 91.436 329.504 91.268 328.772 91.148C327.968 91.028 327.308 90.89 326.792 90.734C325.592 90.374 324.992 89.624 324.992 88.484C324.992 87.644 325.304 86.99 325.928 86.522C326.564 86.054 327.386 85.82 328.394 85.82C329.414 85.82 330.242 86.06 330.878 86.54C331.526 87.008 331.874 87.668 331.922 88.52H330.644C330.596 88.004 330.362 87.608 329.942 87.332C329.522 87.044 328.988 86.9 328.34 86.9C327.716 86.9 327.212 87.038 326.828 87.314C326.456 87.578 326.27 87.944 326.27 88.412C326.306 88.928 326.492 89.276 326.828 89.456C327.164 89.624 327.8 89.792 328.736 89.96C329.468 90.08 330.062 90.206 330.518 90.338C331.61 90.662 332.156 91.364 332.156 92.444Z" fill="#2E1500"/>
<path opacity="0.3" d="M241.027 56.324C239.659 56.324 238.507 55.934 237.571 55.154C236.647 54.362 236.167 53.306 236.131 51.986H237.499C237.535 53.03 237.889 53.816 238.561 54.344C239.257 54.872 240.079 55.136 241.027 55.136C241.903 55.136 242.611 54.932 243.151 54.524C243.703 54.104 243.979 53.546 243.979 52.85C243.979 52.334 243.823 51.908 243.511 51.572C243.223 51.272 242.869 51.044 242.449 50.888C242.041 50.72 241.411 50.534 240.559 50.33C239.899 50.174 239.347 50.012 238.903 49.844C238.459 49.676 238.039 49.454 237.643 49.178C237.259 48.902 236.971 48.56 236.779 48.152C236.587 47.732 236.485 47.234 236.473 46.658C236.473 45.542 236.869 44.666 237.661 44.03C238.441 43.406 239.473 43.094 240.757 43.094C241.981 43.094 243.001 43.394 243.817 43.994C244.633 44.582 245.071 45.458 245.131 46.622H243.799C243.775 45.854 243.487 45.266 242.935 44.858C242.383 44.45 241.657 44.246 240.757 44.246C239.845 44.246 239.113 44.456 238.561 44.876C238.021 45.284 237.751 45.866 237.751 46.622C237.751 47.162 237.889 47.6 238.165 47.936C238.441 48.236 238.783 48.47 239.191 48.638C239.611 48.806 240.235 48.986 241.063 49.178C242.011 49.406 242.749 49.628 243.277 49.844C244.633 50.372 245.311 51.332 245.311 52.724C245.311 53.852 244.909 54.734 244.105 55.37C243.301 56.006 242.275 56.324 241.027 56.324ZM247.094 51.5C247.094 50.084 247.49 48.95 248.282 48.098C249.086 47.246 250.124 46.82 251.396 46.82C252.68 46.82 253.718 47.246 254.51 48.098C255.314 48.95 255.716 50.09 255.716 51.518C255.716 52.934 255.314 54.068 254.51 54.92C253.718 55.772 252.686 56.198 251.414 56.198C250.13 56.198 249.086 55.772 248.282 54.92C247.49 54.068 247.094 52.928 247.094 51.5ZM254.456 51.446C254.456 50.366 254.162 49.514 253.574 48.89C252.998 48.266 252.266 47.954 251.378 47.954C250.466 47.954 249.734 48.278 249.182 48.926C248.63 49.574 248.354 50.438 248.354 51.518C248.354 52.586 248.642 53.444 249.218 54.092C249.806 54.728 250.544 55.046 251.432 55.046C252.344 55.046 253.076 54.722 253.628 54.074C254.18 53.426 254.456 52.55 254.456 51.446ZM261.53 56.198C260.27 56.198 259.268 55.778 258.524 54.938C257.78 54.098 257.408 52.97 257.408 51.554C257.408 50.138 257.792 48.998 258.56 48.134C259.34 47.258 260.372 46.82 261.656 46.82C262.7 46.82 263.57 47.096 264.266 47.648C264.986 48.212 265.37 48.986 265.418 49.97H264.23C264.158 49.334 263.882 48.83 263.402 48.458C262.922 48.086 262.334 47.9 261.638 47.9C260.726 47.9 260 48.23 259.46 48.89C258.92 49.538 258.65 50.414 258.65 51.518C258.65 52.61 258.914 53.474 259.442 54.11C259.97 54.746 260.69 55.064 261.602 55.064C262.31 55.064 262.904 54.866 263.384 54.47C263.876 54.062 264.152 53.522 264.212 52.85H265.418C265.346 53.846 264.932 54.656 264.176 55.28C263.432 55.892 262.55 56.198 261.53 56.198ZM267.611 44.84V43.22H268.997V44.84H267.611ZM267.701 56V46.982H268.925V56H267.701ZM277.39 56V54.362C277.066 54.95 276.598 55.406 275.986 55.73C275.386 56.042 274.744 56.198 274.06 56.198C273.22 56.198 272.53 55.964 271.99 55.496C271.462 55.016 271.198 54.368 271.198 53.552C271.198 52.052 272.146 51.164 274.042 50.888L276.076 50.582C276.52 50.51 276.85 50.396 277.066 50.24C277.282 50.072 277.39 49.802 277.39 49.43C277.39 48.95 277.204 48.578 276.832 48.314C276.472 48.05 275.95 47.918 275.266 47.918C273.814 47.918 272.98 48.47 272.764 49.574H271.504C271.66 48.698 272.068 48.02 272.728 47.54C273.4 47.06 274.276 46.82 275.356 46.82C276.388 46.82 277.18 47.066 277.732 47.558C278.296 48.038 278.578 48.734 278.578 49.646V56H277.39ZM275.824 51.608L274.456 51.824C273.856 51.92 273.382 52.076 273.034 52.292C272.65 52.508 272.458 52.916 272.458 53.516C272.458 54.032 272.62 54.422 272.944 54.686C273.268 54.95 273.712 55.082 274.276 55.082C275.092 55.082 275.806 54.812 276.418 54.272C277.042 53.732 277.354 53.006 277.354 52.094V51.194C277.066 51.35 276.556 51.488 275.824 51.608ZM282.663 43.202V56H281.439V43.202H282.663ZM298.37 43.4V44.534H294.05V56H292.772V44.534H288.47V43.4H298.37ZM303.751 46.874V48.044H303.463C302.491 48.044 301.747 48.314 301.231 48.854C300.727 49.382 300.475 50.168 300.475 51.212V56H299.251V46.982H300.457V48.638C300.661 48.062 301.015 47.624 301.519 47.324C302.023 47.024 302.635 46.874 303.355 46.874H303.751ZM311.014 56V54.362C310.69 54.95 310.222 55.406 309.61 55.73C309.01 56.042 308.368 56.198 307.684 56.198C306.844 56.198 306.154 55.964 305.614 55.496C305.086 55.016 304.822 54.368 304.822 53.552C304.822 52.052 305.77 51.164 307.666 50.888L309.7 50.582C310.144 50.51 310.474 50.396 310.69 50.24C310.906 50.072 311.014 49.802 311.014 49.43C311.014 48.95 310.828 48.578 310.456 48.314C310.096 48.05 309.574 47.918 308.89 47.918C307.438 47.918 306.604 48.47 306.388 49.574H305.128C305.284 48.698 305.692 48.02 306.352 47.54C307.024 47.06 307.9 46.82 308.98 46.82C310.012 46.82 310.804 47.066 311.356 47.558C311.92 48.038 312.202 48.734 312.202 49.646V56H311.014ZM309.448 51.608L308.08 51.824C307.48 51.92 307.006 52.076 306.658 52.292C306.274 52.508 306.082 52.916 306.082 53.516C306.082 54.032 306.244 54.422 306.568 54.686C306.892 54.95 307.336 55.082 307.9 55.082C308.716 55.082 309.43 54.812 310.042 54.272C310.666 53.732 310.978 53.006 310.978 52.094V51.194C310.69 51.35 310.18 51.488 309.448 51.608ZM314.937 44.84V43.22H316.323V44.84H314.937ZM315.027 56V46.982H316.251V56H315.027ZM323.348 54.884V56H322.034C321.302 56 320.744 55.85 320.36 55.55C319.964 55.25 319.766 54.638 319.766 53.714V48.08H317.984V46.982H319.766V44.426L320.99 44.084V46.982H323.168V48.08H320.99V53.624C320.99 54.068 321.08 54.392 321.26 54.596C321.44 54.788 321.764 54.884 322.232 54.884H323.348ZM332.156 53.444C332.156 54.344 331.82 55.028 331.148 55.496C330.488 55.964 329.666 56.198 328.682 56.198C327.638 56.198 326.75 55.94 326.018 55.424C325.286 54.908 324.872 54.176 324.776 53.228H326.09C326.186 53.828 326.468 54.29 326.936 54.614C327.416 54.938 328.004 55.1 328.7 55.1C329.336 55.1 329.858 54.968 330.266 54.704C330.674 54.44 330.878 54.074 330.878 53.606C330.878 53.174 330.71 52.856 330.374 52.652C330.038 52.436 329.504 52.268 328.772 52.148C327.968 52.028 327.308 51.89 326.792 51.734C325.592 51.374 324.992 50.624 324.992 49.484C324.992 48.644 325.304 47.99 325.928 47.522C326.564 47.054 327.386 46.82 328.394 46.82C329.414 46.82 330.242 47.06 330.878 47.54C331.526 48.008 331.874 48.668 331.922 49.52H330.644C330.596 49.004 330.362 48.608 329.942 48.332C329.522 48.044 328.988 47.9 328.34 47.9C327.716 47.9 327.212 48.038 326.828 48.314C326.456 48.578 326.27 48.944 326.27 49.412C326.306 49.928 326.492 50.276 326.828 50.456C327.164 50.624 327.8 50.792 328.736 50.96C329.468 51.08 330.062 51.206 330.518 51.338C331.61 51.662 332.156 52.364 332.156 53.444Z" fill="#2E1500"/>
<path opacity="0.3" d="M219.111 8.18H217.761C217.653 7.316 217.227 6.62 216.483 6.092C215.739 5.564 214.869 5.3 213.873 5.3C212.493 5.3 211.377 5.792 210.525 6.776C209.685 7.76 209.265 9.056 209.265 10.664C209.265 12.272 209.667 13.586 210.471 14.606C211.275 15.614 212.421 16.118 213.909 16.118C215.013 16.118 215.931 15.824 216.663 15.236C217.419 14.636 217.821 13.808 217.869 12.752H219.201C219.129 14.132 218.583 15.242 217.563 16.082C216.543 16.91 215.289 17.324 213.801 17.324C211.965 17.348 210.519 16.724 209.463 15.452C208.419 14.18 207.909 12.59 207.933 10.682C207.933 8.714 208.485 7.124 209.589 5.912C210.705 4.7 212.151 4.094 213.927 4.094C215.319 4.094 216.495 4.46 217.455 5.192C218.415 5.924 218.967 6.92 219.111 8.18ZM220.985 12.5C220.985 11.084 221.381 9.95 222.173 9.098C222.977 8.246 224.015 7.82 225.287 7.82C226.571 7.82 227.609 8.246 228.401 9.098C229.205 9.95 229.607 11.09 229.607 12.518C229.607 13.934 229.205 15.068 228.401 15.92C227.609 16.772 226.577 17.198 225.305 17.198C224.021 17.198 222.977 16.772 222.173 15.92C221.381 15.068 220.985 13.928 220.985 12.5ZM228.347 12.446C228.347 11.366 228.053 10.514 227.465 9.89C226.889 9.266 226.157 8.954 225.269 8.954C224.357 8.954 223.625 9.278 223.073 9.926C222.521 10.574 222.245 11.438 222.245 12.518C222.245 13.586 222.533 14.444 223.109 15.092C223.697 15.728 224.435 16.046 225.323 16.046C226.235 16.046 226.967 15.722 227.519 15.074C228.071 14.426 228.347 13.55 228.347 12.446ZM239.651 7.982V16.604C239.651 17.912 239.279 18.914 238.535 19.61C237.803 20.306 236.813 20.654 235.565 20.654C234.509 20.654 233.597 20.384 232.829 19.844C232.073 19.316 231.629 18.548 231.497 17.54H232.739C232.847 18.176 233.135 18.668 233.603 19.016C234.083 19.376 234.737 19.556 235.565 19.556C236.465 19.556 237.173 19.31 237.689 18.818C238.205 18.338 238.463 17.618 238.463 16.658V14.876C238.163 15.476 237.731 15.926 237.167 16.226C236.603 16.514 235.973 16.658 235.277 16.658C234.113 16.658 233.159 16.268 232.415 15.488C231.671 14.708 231.299 13.628 231.299 12.248C231.299 10.868 231.677 9.788 232.433 9.008C233.201 8.216 234.167 7.82 235.331 7.82C236.027 7.82 236.645 7.964 237.185 8.252C237.737 8.54 238.157 8.936 238.445 9.44V7.982H239.651ZM238.391 12.248C238.391 11.192 238.121 10.37 237.581 9.782C237.041 9.182 236.345 8.882 235.493 8.882C234.653 8.882 233.945 9.182 233.369 9.782C232.793 10.37 232.505 11.186 232.505 12.23C232.505 13.274 232.787 14.09 233.351 14.678C233.915 15.266 234.623 15.56 235.475 15.56C236.303 15.56 236.993 15.284 237.545 14.732C238.109 14.168 238.391 13.34 238.391 12.248ZM249.995 10.826V17H248.771V10.97C248.771 10.346 248.573 9.848 248.177 9.476C247.793 9.104 247.271 8.918 246.611 8.918C245.795 8.918 245.111 9.218 244.559 9.818C244.007 10.418 243.731 11.234 243.731 12.266V17H242.507V7.982H243.731V9.656C244.355 8.432 245.393 7.82 246.845 7.82C247.805 7.82 248.567 8.084 249.131 8.612C249.707 9.14 249.995 9.878 249.995 10.826ZM252.731 5.84V4.22H254.117V5.84H252.731ZM252.821 17V7.982H254.045V17H252.821ZM261.142 15.884V17H259.828C259.096 17 258.538 16.85 258.154 16.55C257.758 16.25 257.56 15.638 257.56 14.714V9.08H255.778V7.982H257.56V5.426L258.784 5.084V7.982H260.962V9.08H258.784V14.624C258.784 15.068 258.874 15.392 259.054 15.596C259.234 15.788 259.558 15.884 260.026 15.884H261.142ZM263.164 5.84V4.22H264.55V5.84H263.164ZM263.254 17V7.982H264.478V17H263.254ZM273.303 7.982H274.599L271.071 17H269.739L266.211 7.982H267.543L270.423 15.74L273.303 7.982ZM283.653 12.788H276.777C276.777 13.868 277.065 14.684 277.641 15.236C278.229 15.8 278.943 16.082 279.783 16.082C280.395 16.082 280.929 15.938 281.385 15.65C281.841 15.35 282.153 14.936 282.321 14.408H283.527C283.323 15.308 282.867 15.998 282.159 16.478C281.463 16.958 280.647 17.198 279.711 17.198C278.535 17.198 277.551 16.79 276.759 15.974C275.967 15.158 275.571 14.006 275.571 12.518C275.571 11.018 275.967 9.86 276.759 9.044C277.563 8.228 278.565 7.82 279.765 7.82C280.917 7.82 281.853 8.198 282.573 8.954C283.293 9.698 283.653 10.772 283.653 12.176V12.788ZM276.813 11.744H282.411C282.411 10.868 282.159 10.178 281.655 9.674C281.163 9.158 280.515 8.9 279.711 8.9C278.931 8.9 278.271 9.152 277.731 9.656C277.191 10.148 276.885 10.844 276.813 11.744ZM298.37 4.4V5.534H294.05V17H292.772V5.534H288.47V4.4H298.37ZM303.751 7.874V9.044H303.463C302.491 9.044 301.747 9.314 301.231 9.854C300.727 10.382 300.475 11.168 300.475 12.212V17H299.251V7.982H300.457V9.638C300.661 9.062 301.015 8.624 301.519 8.324C302.023 8.024 302.635 7.874 303.355 7.874H303.751ZM311.014 17V15.362C310.69 15.95 310.222 16.406 309.61 16.73C309.01 17.042 308.368 17.198 307.684 17.198C306.844 17.198 306.154 16.964 305.614 16.496C305.086 16.016 304.822 15.368 304.822 14.552C304.822 13.052 305.77 12.164 307.666 11.888L309.7 11.582C310.144 11.51 310.474 11.396 310.69 11.24C310.906 11.072 311.014 10.802 311.014 10.43C311.014 9.95 310.828 9.578 310.456 9.314C310.096 9.05 309.574 8.918 308.89 8.918C307.438 8.918 306.604 9.47 306.388 10.574H305.128C305.284 9.698 305.692 9.02 306.352 8.54C307.024 8.06 307.9 7.82 308.98 7.82C310.012 7.82 310.804 8.066 311.356 8.558C311.92 9.038 312.202 9.734 312.202 10.646V17H311.014ZM309.448 12.608L308.08 12.824C307.48 12.92 307.006 13.076 306.658 13.292C306.274 13.508 306.082 13.916 306.082 14.516C306.082 15.032 306.244 15.422 306.568 15.686C306.892 15.95 307.336 16.082 307.9 16.082C308.716 16.082 309.43 15.812 310.042 15.272C310.666 14.732 310.978 14.006 310.978 13.094V12.194C310.69 12.35 310.18 12.488 309.448 12.608ZM314.937 5.84V4.22H316.323V5.84H314.937ZM315.027 17V7.982H316.251V17H315.027ZM323.348 15.884V17H322.034C321.302 17 320.744 16.85 320.36 16.55C319.964 16.25 319.766 15.638 319.766 14.714V9.08H317.984V7.982H319.766V5.426L320.99 5.084V7.982H323.168V9.08H320.99V14.624C320.99 15.068 321.08 15.392 321.26 15.596C321.44 15.788 321.764 15.884 322.232 15.884H323.348ZM332.156 14.444C332.156 15.344 331.82 16.028 331.148 16.496C330.488 16.964 329.666 17.198 328.682 17.198C327.638 17.198 326.75 16.94 326.018 16.424C325.286 15.908 324.872 15.176 324.776 14.228H326.09C326.186 14.828 326.468 15.29 326.936 15.614C327.416 15.938 328.004 16.1 328.7 16.1C329.336 16.1 329.858 15.968 330.266 15.704C330.674 15.44 330.878 15.074 330.878 14.606C330.878 14.174 330.71 13.856 330.374 13.652C330.038 13.436 329.504 13.268 328.772 13.148C327.968 13.028 327.308 12.89 326.792 12.734C325.592 12.374 324.992 11.624 324.992 10.484C324.992 9.644 325.304 8.99 325.928 8.522C326.564 8.054 327.386 7.82 328.394 7.82C329.414 7.82 330.242 8.06 330.878 8.54C331.526 9.008 331.874 9.668 331.922 10.52H330.644C330.596 10.004 330.362 9.608 329.942 9.332C329.522 9.044 328.988 8.9 328.34 8.9C327.716 8.9 327.212 9.038 326.828 9.314C326.456 9.578 326.27 9.944 326.27 10.412C326.306 10.928 326.492 11.276 326.828 11.456C327.164 11.624 327.8 11.792 328.736 11.96C329.468 12.08 330.062 12.206 330.518 12.338C331.61 12.662 332.156 13.364 332.156 14.444Z" fill="#2E1500"/>
<path opacity="0.3" d="M199.911 211.382C199.911 212.366 199.539 213.218 198.795 213.938C198.063 214.646 197.073 215 195.825 215H190.695V202.4H196.041C197.085 202.4 197.895 202.682 198.471 203.246C199.059 203.798 199.353 204.482 199.353 205.298C199.353 205.898 199.185 206.462 198.849 206.99C198.525 207.518 198.075 207.926 197.499 208.214C198.267 208.454 198.861 208.862 199.281 209.438C199.701 210.014 199.911 210.662 199.911 211.382ZM191.973 207.782H195.465C196.269 207.782 196.905 207.56 197.373 207.116C197.841 206.672 198.075 206.144 198.075 205.532C198.075 204.956 197.871 204.482 197.463 204.11C197.067 203.726 196.515 203.534 195.807 203.534H191.973V207.782ZM197.823 213.146C198.315 212.666 198.561 212.072 198.561 211.364C198.561 210.656 198.327 210.068 197.859 209.6C197.391 209.132 196.755 208.898 195.951 208.898H191.973V213.848H195.825C196.665 213.848 197.331 213.614 197.823 213.146ZM209.775 210.788H202.899C202.899 211.868 203.187 212.684 203.763 213.236C204.351 213.8 205.065 214.082 205.905 214.082C206.517 214.082 207.051 213.938 207.507 213.65C207.963 213.35 208.275 212.936 208.443 212.408H209.649C209.445 213.308 208.989 213.998 208.281 214.478C207.585 214.958 206.769 215.198 205.833 215.198C204.657 215.198 203.673 214.79 202.881 213.974C202.089 213.158 201.693 212.006 201.693 210.518C201.693 209.018 202.089 207.86 202.881 207.044C203.685 206.228 204.687 205.82 205.887 205.82C207.039 205.82 207.975 206.198 208.695 206.954C209.415 207.698 209.775 208.772 209.775 210.176V210.788ZM202.935 209.744H208.533C208.533 208.868 208.281 208.178 207.777 207.674C207.285 207.158 206.637 206.9 205.833 206.9C205.053 206.9 204.393 207.152 203.853 207.656C203.313 208.148 203.007 208.844 202.935 209.744ZM219.58 208.826V215H218.356V208.97C218.356 208.346 218.158 207.848 217.762 207.476C217.378 207.104 216.856 206.918 216.196 206.918C215.38 206.918 214.696 207.218 214.144 207.818C213.592 208.418 213.316 209.234 213.316 210.266V215H212.092V202.202H213.316V207.728C213.94 206.456 214.978 205.82 216.43 205.82C217.39 205.82 218.152 206.084 218.716 206.612C219.292 207.14 219.58 207.878 219.58 208.826ZM228.003 215V213.362C227.679 213.95 227.211 214.406 226.599 214.73C225.999 215.042 225.357 215.198 224.673 215.198C223.833 215.198 223.143 214.964 222.603 214.496C222.075 214.016 221.811 213.368 221.811 212.552C221.811 211.052 222.759 210.164 224.655 209.888L226.689 209.582C227.133 209.51 227.463 209.396 227.679 209.24C227.895 209.072 228.003 208.802 228.003 208.43C228.003 207.95 227.817 207.578 227.445 207.314C227.085 207.05 226.563 206.918 225.879 206.918C224.427 206.918 223.593 207.47 223.377 208.574H222.117C222.273 207.698 222.681 207.02 223.341 206.54C224.013 206.06 224.889 205.82 225.969 205.82C227.001 205.82 227.793 206.066 228.345 206.558C228.909 207.038 229.191 207.734 229.191 208.646V215H228.003ZM226.437 210.608L225.069 210.824C224.469 210.92 223.995 211.076 223.647 211.292C223.263 211.508 223.071 211.916 223.071 212.516C223.071 213.032 223.233 213.422 223.557 213.686C223.881 213.95 224.325 214.082 224.889 214.082C225.705 214.082 226.419 213.812 227.031 213.272C227.655 212.732 227.967 212.006 227.967 211.094V210.194C227.679 210.35 227.169 210.488 226.437 210.608ZM237.974 205.982H239.27L235.742 215H234.41L230.882 205.982H232.214L235.094 213.74L237.974 205.982ZM240.922 203.84V202.22H242.308V203.84H240.922ZM241.012 215V205.982H242.236V215H241.012ZM244.51 210.5C244.51 209.084 244.906 207.95 245.698 207.098C246.502 206.246 247.54 205.82 248.812 205.82C250.096 205.82 251.134 206.246 251.926 207.098C252.73 207.95 253.132 209.09 253.132 210.518C253.132 211.934 252.73 213.068 251.926 213.92C251.134 214.772 250.102 215.198 248.83 215.198C247.546 215.198 246.502 214.772 245.698 213.92C244.906 213.068 244.51 211.928 244.51 210.5ZM251.872 210.446C251.872 209.366 251.578 208.514 250.99 207.89C250.414 207.266 249.682 206.954 248.794 206.954C247.882 206.954 247.15 207.278 246.598 207.926C246.046 208.574 245.77 209.438 245.77 210.518C245.77 211.586 246.058 212.444 246.634 213.092C247.222 213.728 247.96 214.046 248.848 214.046C249.76 214.046 250.492 213.722 251.044 213.074C251.596 212.426 251.872 211.55 251.872 210.446ZM262.672 215H261.502V213.29C260.866 214.502 259.864 215.108 258.496 215.108C257.572 215.108 256.816 214.826 256.228 214.262C255.652 213.698 255.364 212.924 255.364 211.94V205.982H256.588V211.796C256.588 212.492 256.78 213.038 257.164 213.434C257.56 213.83 258.076 214.028 258.712 214.028C259.492 214.028 260.14 213.734 260.656 213.146C261.184 212.546 261.448 211.712 261.448 210.644V205.982H262.672V215ZM270.127 205.874V207.044H269.839C268.867 207.044 268.123 207.314 267.607 207.854C267.103 208.382 266.851 209.168 266.851 210.212V215H265.627V205.982H266.833V207.638C267.037 207.062 267.391 206.624 267.895 206.324C268.399 206.024 269.011 205.874 269.731 205.874H270.127ZM277.39 215V213.362C277.066 213.95 276.598 214.406 275.986 214.73C275.386 215.042 274.744 215.198 274.06 215.198C273.22 215.198 272.53 214.964 271.99 214.496C271.462 214.016 271.198 213.368 271.198 212.552C271.198 211.052 272.146 210.164 274.042 209.888L276.076 209.582C276.52 209.51 276.85 209.396 277.066 209.24C277.282 209.072 277.39 208.802 277.39 208.43C277.39 207.95 277.204 207.578 276.832 207.314C276.472 207.05 275.95 206.918 275.266 206.918C273.814 206.918 272.98 207.47 272.764 208.574H271.504C271.66 207.698 272.068 207.02 272.728 206.54C273.4 206.06 274.276 205.82 275.356 205.82C276.388 205.82 277.18 206.066 277.732 206.558C278.296 207.038 278.578 207.734 278.578 208.646V215H277.39ZM275.824 210.608L274.456 210.824C273.856 210.92 273.382 211.076 273.034 211.292C272.65 211.508 272.458 211.916 272.458 212.516C272.458 213.032 272.62 213.422 272.944 213.686C273.268 213.95 273.712 214.082 274.276 214.082C275.092 214.082 275.806 213.812 276.418 213.272C277.042 212.732 277.354 212.006 277.354 211.094V210.194C277.066 210.35 276.556 210.488 275.824 210.608ZM282.663 202.202V215H281.439V202.202H282.663ZM298.37 202.4V203.534H294.05V215H292.772V203.534H288.47V202.4H298.37ZM303.751 205.874V207.044H303.463C302.491 207.044 301.747 207.314 301.231 207.854C300.727 208.382 300.475 209.168 300.475 210.212V215H299.251V205.982H300.457V207.638C300.661 207.062 301.015 206.624 301.519 206.324C302.023 206.024 302.635 205.874 303.355 205.874H303.751ZM311.014 215V213.362C310.69 213.95 310.222 214.406 309.61 214.73C309.01 215.042 308.368 215.198 307.684 215.198C306.844 215.198 306.154 214.964 305.614 214.496C305.086 214.016 304.822 213.368 304.822 212.552C304.822 211.052 305.77 210.164 307.666 209.888L309.7 209.582C310.144 209.51 310.474 209.396 310.69 209.24C310.906 209.072 311.014 208.802 311.014 208.43C311.014 207.95 310.828 207.578 310.456 207.314C310.096 207.05 309.574 206.918 308.89 206.918C307.438 206.918 306.604 207.47 306.388 208.574H305.128C305.284 207.698 305.692 207.02 306.352 206.54C307.024 206.06 307.9 205.82 308.98 205.82C310.012 205.82 310.804 206.066 311.356 206.558C311.92 207.038 312.202 207.734 312.202 208.646V215H311.014ZM309.448 210.608L308.08 210.824C307.48 210.92 307.006 211.076 306.658 211.292C306.274 211.508 306.082 211.916 306.082 212.516C306.082 213.032 306.244 213.422 306.568 213.686C306.892 213.95 307.336 214.082 307.9 214.082C308.716 214.082 309.43 213.812 310.042 213.272C310.666 212.732 310.978 212.006 310.978 211.094V210.194C310.69 210.35 310.18 210.488 309.448 210.608ZM314.937 203.84V202.22H316.323V203.84H314.937ZM315.027 215V205.982H316.251V215H315.027ZM323.348 213.884V215H322.034C321.302 215 320.744 214.85 320.36 214.55C319.964 214.25 319.766 213.638 319.766 212.714V207.08H317.984V205.982H319.766V203.426L320.99 203.084V205.982H323.168V207.08H320.99V212.624C320.99 213.068 321.08 213.392 321.26 213.596C321.44 213.788 321.764 213.884 322.232 213.884H323.348ZM332.156 212.444C332.156 213.344 331.82 214.028 331.148 214.496C330.488 214.964 329.666 215.198 328.682 215.198C327.638 215.198 326.75 214.94 326.018 214.424C325.286 213.908 324.872 213.176 324.776 212.228H326.09C326.186 212.828 326.468 213.29 326.936 213.614C327.416 213.938 328.004 214.1 328.7 214.1C329.336 214.1 329.858 213.968 330.266 213.704C330.674 213.44 330.878 213.074 330.878 212.606C330.878 212.174 330.71 211.856 330.374 211.652C330.038 211.436 329.504 211.268 328.772 211.148C327.968 211.028 327.308 210.89 326.792 210.734C325.592 210.374 324.992 209.624 324.992 208.484C324.992 207.644 325.304 206.99 325.928 206.522C326.564 206.054 327.386 205.82 328.394 205.82C329.414 205.82 330.242 206.06 330.878 206.54C331.526 207.008 331.874 207.668 331.922 208.52H330.644C330.596 208.004 330.362 207.608 329.942 207.332C329.522 207.044 328.988 206.9 328.34 206.9C327.716 206.9 327.212 207.038 326.828 207.314C326.456 207.578 326.27 207.944 326.27 208.412C326.306 208.928 326.492 209.276 326.828 209.456C327.164 209.624 327.8 209.792 328.736 209.96C329.468 210.08 330.062 210.206 330.518 210.338C331.61 210.662 332.156 211.364 332.156 212.444Z" fill="#2E1500"/>
<path d="M11.2966 309.8V321H9.52063V316.184H3.90463V321H2.12863V309.8H3.90463V314.536H9.52063V309.8H11.2966ZM24.2973 315.416C24.3186 317.144 23.8013 318.563 22.7453 319.672C21.6893 320.771 20.3613 321.309 18.7613 321.288C17.1506 321.309 15.8173 320.771 14.7613 319.672C13.7053 318.563 13.1879 317.144 13.2093 315.416C13.2093 313.677 13.7266 312.264 14.7613 311.176C15.8066 310.077 17.1399 309.528 18.7613 309.528C20.3613 309.507 21.6893 310.051 22.7453 311.16C23.8013 312.269 24.3186 313.688 24.2973 315.416ZM21.4813 318.488C22.1533 317.752 22.4893 316.728 22.4893 315.416C22.4893 314.104 22.1533 313.08 21.4813 312.344C20.8199 311.597 19.9133 311.224 18.7613 311.224C17.6093 311.224 16.6973 311.597 16.0253 312.344C15.3639 313.08 15.0333 314.104 15.0333 315.416C15.0333 316.728 15.3639 317.752 16.0253 318.488C16.6973 319.224 17.6093 319.592 18.7613 319.592C19.9133 319.592 20.8199 319.224 21.4813 318.488ZM33.4708 319.336V321H26.2068V309.8H27.9828V319.336H33.4708ZM36.844 309.8V321H35.068V309.8H36.844ZM43.3463 321.288C42.0023 321.288 40.8983 320.92 40.0343 320.184C39.1809 319.448 38.7543 318.483 38.7543 317.288H40.5303C40.5836 318.067 40.8663 318.68 41.3783 319.128C41.8903 319.576 42.5623 319.8 43.3943 319.8C44.0876 319.8 44.6316 319.651 45.0263 319.352C45.4209 319.043 45.6183 318.627 45.6183 318.104C45.6183 317.731 45.5116 317.427 45.2983 317.192C45.0956 316.979 44.8449 316.813 44.5463 316.696C44.2583 316.579 43.8209 316.451 43.2343 316.312L42.8023 316.2C41.9916 315.997 41.3623 315.8 40.9143 315.608C39.6876 315.085 39.0743 314.173 39.0743 312.872C39.0743 311.859 39.4369 311.053 40.1623 310.456C40.8876 309.848 41.8529 309.544 43.0583 309.544C44.2743 309.544 45.2716 309.848 46.0503 310.456C46.8289 311.064 47.2183 311.864 47.2183 312.856H45.3943C45.3623 312.28 45.1383 311.843 44.7223 311.544C44.3063 311.235 43.7303 311.08 42.9943 311.08C42.3116 311.08 41.7729 311.224 41.3783 311.512C40.9943 311.8 40.8023 312.2 40.8023 312.712C40.8023 313.256 41.0049 313.667 41.4103 313.944C41.8263 314.211 42.4823 314.445 43.3783 314.648C44.1996 314.819 44.8609 314.995 45.3623 315.176C45.8636 315.357 46.3276 315.667 46.7543 316.104C47.1809 316.531 47.3943 317.144 47.3943 317.944C47.3943 318.947 47.0209 319.757 46.2743 320.376C45.5383 320.984 44.5623 321.288 43.3463 321.288ZM57.1938 309.8V311.448H53.4018V321H51.6258V311.448H47.8818V309.8H57.1938ZM60.3284 309.8V321H58.5524V309.8H60.3284ZM70.8946 316.968H72.6866C72.6226 318.259 72.132 319.304 71.2146 320.104C70.2973 320.893 69.1506 321.288 67.7746 321.288C66.132 321.288 64.8093 320.739 63.8066 319.64C62.8146 318.541 62.3186 317.112 62.3186 315.352C62.3186 313.613 62.82 312.211 63.8226 311.144C64.836 310.077 66.1746 309.544 67.8386 309.544C69.1826 309.544 70.2866 309.901 71.1506 310.616C72.0146 311.32 72.5106 312.264 72.6386 313.448H70.8306C70.7453 312.776 70.42 312.232 69.8546 311.816C69.2893 311.4 68.596 311.192 67.7746 311.192C66.676 311.192 65.7906 311.571 65.1186 312.328C64.4466 313.085 64.1106 314.083 64.1106 315.32C64.1106 316.568 64.4466 317.592 65.1186 318.392C65.7906 319.181 66.676 319.576 67.7746 319.576C68.628 319.576 69.3426 319.341 69.9186 318.872C70.4946 318.403 70.82 317.768 70.8946 316.968ZM91.616 309.8L88.576 321H86.72L84.08 312.072L81.408 321H79.568L76.528 309.8H78.416L80.56 318.584L83.184 309.8H85.024L87.648 318.6L89.792 309.8H91.616ZM103.344 315.416C103.365 317.144 102.848 318.563 101.792 319.672C100.736 320.771 99.4081 321.309 97.8081 321.288C96.1975 321.309 94.8641 320.771 93.8081 319.672C92.7521 318.563 92.2348 317.144 92.2561 315.416C92.2561 313.677 92.7735 312.264 93.8081 311.176C94.8535 310.077 96.1868 309.528 97.8081 309.528C99.4081 309.507 100.736 310.051 101.792 311.16C102.848 312.269 103.365 313.688 103.344 315.416ZM100.528 318.488C101.2 317.752 101.536 316.728 101.536 315.416C101.536 314.104 101.2 313.08 100.528 312.344C99.8668 311.597 98.9601 311.224 97.8081 311.224C96.6561 311.224 95.7441 311.597 95.0721 312.344C94.4108 313.08 94.0801 314.104 94.0801 315.416C94.0801 316.728 94.4108 317.752 95.0721 318.488C95.7441 319.224 96.6561 319.592 97.8081 319.592C98.9601 319.592 99.8668 319.224 100.528 318.488ZM114.166 321H112.118L109.238 316.392H107.014V321H105.254V309.8H109.75C110.838 309.8 111.718 310.099 112.39 310.696C113.062 311.283 113.398 312.045 113.398 312.984C113.398 313.72 113.184 314.371 112.758 314.936C112.331 315.501 111.766 315.875 111.062 316.056L114.166 321ZM111.622 313.048C111.622 312.557 111.462 312.168 111.142 311.88C110.822 311.592 110.39 311.448 109.846 311.448H107.014V314.792H109.67C110.256 314.792 110.726 314.632 111.078 314.312C111.44 313.981 111.622 313.56 111.622 313.048ZM122.461 321L118.781 315.752L117.373 317.224V321H115.597V309.8H117.373V315.032L122.157 309.8H124.541L120.109 314.376L124.781 321H122.461ZM134.432 313.08C134.432 314.104 134.075 314.947 133.36 315.608C132.656 316.259 131.744 316.584 130.624 316.584H127.92V321H126.144V309.8H130.816C131.904 309.8 132.779 310.104 133.44 310.712C134.102 311.309 134.432 312.099 134.432 313.08ZM132.64 313.176C132.64 312.653 132.47 312.237 132.128 311.928C131.787 311.608 131.334 311.448 130.768 311.448H127.92V314.936H130.688C131.286 314.936 131.76 314.781 132.112 314.472C132.464 314.152 132.64 313.72 132.64 313.176ZM143.299 319.336V321H136.035V309.8H137.811V319.336H143.299ZM152.816 321L151.808 318.296H146.752L145.744 321H143.856L148.224 309.8H150.384L154.752 321H152.816ZM147.376 316.648H151.184L149.28 311.528L147.376 316.648ZM163.488 316.968H165.28C165.216 318.259 164.726 319.304 163.808 320.104C162.891 320.893 161.744 321.288 160.368 321.288C158.726 321.288 157.403 320.739 156.4 319.64C155.408 318.541 154.912 317.112 154.912 315.352C154.912 313.613 155.414 312.211 156.416 311.144C157.43 310.077 158.768 309.544 160.432 309.544C161.776 309.544 162.88 309.901 163.744 310.616C164.608 311.32 165.104 312.264 165.232 313.448H163.424C163.339 312.776 163.014 312.232 162.448 311.816C161.883 311.4 161.19 311.192 160.368 311.192C159.27 311.192 158.384 311.571 157.712 312.328C157.04 313.085 156.704 314.083 156.704 315.32C156.704 316.568 157.04 317.592 157.712 318.392C158.384 319.181 159.27 319.576 160.368 319.576C161.222 319.576 161.936 319.341 162.512 318.872C163.088 318.403 163.414 317.768 163.488 316.968ZM174.809 321H167.113V309.8H174.505V311.448H168.889V314.504H174.073V316.168H168.889V319.336H174.809V321ZM181.795 316.168V321H180.019V309.8H187.411V311.448H181.795V314.504H186.979V316.168H181.795ZM199.219 315.416C199.24 317.144 198.723 318.563 197.667 319.672C196.611 320.771 195.283 321.309 193.683 321.288C192.072 321.309 190.739 320.771 189.683 319.672C188.627 318.563 188.11 317.144 188.131 315.416C188.131 313.677 188.648 312.264 189.683 311.176C190.728 310.077 192.062 309.528 193.683 309.528C195.283 309.507 196.611 310.051 197.667 311.16C198.723 312.269 199.24 313.688 199.219 315.416ZM196.403 318.488C197.075 317.752 197.411 316.728 197.411 315.416C197.411 314.104 197.075 313.08 196.403 312.344C195.742 311.597 194.835 311.224 193.683 311.224C192.531 311.224 191.619 311.597 190.947 312.344C190.286 313.08 189.955 314.104 189.955 315.416C189.955 316.728 190.286 317.752 190.947 318.488C191.619 319.224 192.531 319.592 193.683 319.592C194.835 319.592 195.742 319.224 196.403 318.488ZM211.657 315.416C211.678 317.144 211.161 318.563 210.105 319.672C209.049 320.771 207.721 321.309 206.121 321.288C204.51 321.309 203.177 320.771 202.121 319.672C201.065 318.563 200.547 317.144 200.569 315.416C200.569 313.677 201.086 312.264 202.121 311.176C203.166 310.077 204.499 309.528 206.121 309.528C207.721 309.507 209.049 310.051 210.105 311.16C211.161 312.269 211.678 313.688 211.657 315.416ZM208.841 318.488C209.513 317.752 209.849 316.728 209.849 315.416C209.849 314.104 209.513 313.08 208.841 312.344C208.179 311.597 207.273 311.224 206.121 311.224C204.969 311.224 204.057 311.597 203.385 312.344C202.723 313.08 202.393 314.104 202.393 315.416C202.393 316.728 202.723 317.752 203.385 318.488C204.057 319.224 204.969 319.592 206.121 319.592C207.273 319.592 208.179 319.224 208.841 318.488ZM221.038 309.8V311.448H217.246V321H215.47V311.448H211.726V309.8H221.038ZM230.604 313.08C230.604 314.104 230.247 314.947 229.532 315.608C228.828 316.259 227.916 316.584 226.796 316.584H224.092V321H222.316V309.8H226.988C228.076 309.8 228.951 310.104 229.612 310.712C230.273 311.309 230.604 312.099 230.604 313.08ZM228.812 313.176C228.812 312.653 228.641 312.237 228.3 311.928C227.959 311.608 227.505 311.448 226.94 311.448H224.092V314.936H226.86C227.457 314.936 227.932 314.781 228.284 314.472C228.636 314.152 228.812 313.72 228.812 313.176ZM241.119 321H239.071L236.191 316.392H233.967V321H232.207V309.8H236.703C237.791 309.8 238.671 310.099 239.343 310.696C240.015 311.283 240.351 312.045 240.351 312.984C240.351 313.72 240.137 314.371 239.711 314.936C239.284 315.501 238.719 315.875 238.015 316.056L241.119 321ZM238.575 313.048C238.575 312.557 238.415 312.168 238.095 311.88C237.775 311.592 237.343 311.448 236.799 311.448H233.967V314.792H236.623C237.209 314.792 237.679 314.632 238.031 314.312C238.393 313.981 238.575 313.56 238.575 313.048ZM244.407 309.8V321H242.631V309.8H244.407ZM256.125 309.8V321H254.125L248.701 312.424V321H246.957V309.8H249.149L254.381 318.184V309.8H256.125ZM266.709 309.8V311.448H262.917V321H261.141V311.448H257.397V309.8H266.709Z" fill="#2E1500"/>
</svg>
