<svg width="784" height="508" viewBox="0 0 784 508" fill="none" xmlns="http://www.w3.org/2000/svg">
<path d="M771.026 508V226" stroke="#FFC640" stroke-miterlimit="10"/>
<path d="M701.271 492.688V226" stroke="#FFC640" stroke-width="1.6364" stroke-miterlimit="10"/>
<path d="M631.516 477.503V226" stroke="#FFC640" stroke-width="2.2727" stroke-miterlimit="10"/>
<path d="M561.761 462.191V226" stroke="#FFC640" stroke-width="2.9091" stroke-miterlimit="10"/>
<path d="M492.006 446.879V226" stroke="#FFC640" stroke-width="3.5455" stroke-miterlimit="10"/>
<path d="M422.25 431.566V226" stroke="#FFC640" stroke-width="4.1818" stroke-miterlimit="10"/>
<path d="M352.495 416.382V226" stroke="#FFC640" stroke-width="4.8182" stroke-miterlimit="10"/>
<path d="M283.021 401.07V226" stroke="#FFC640" stroke-width="5.4545" stroke-miterlimit="10"/>
<path d="M213.266 385.758V226" stroke="#FFC640" stroke-width="6.0909" stroke-miterlimit="10"/>
<path d="M143.511 370.445V226" stroke="#FFC640" stroke-width="6.7273" stroke-miterlimit="10"/>
<path d="M74 359.423L74 226" stroke="#FFC640" stroke-width="7.3636" stroke-miterlimit="10"/>
<path d="M4 351.662V226" stroke="#FFC640" stroke-width="8" stroke-miterlimit="10"/>
<path d="M13 0V243.693" stroke="#FF864E" stroke-miterlimit="10"/>
<path d="M82.6982 13.3896V243.693" stroke="#FF864E" stroke-width="1.6364" stroke-miterlimit="10"/>
<path d="M152.397 26.7793V243.693" stroke="#FF864E" stroke-width="2.2727" stroke-miterlimit="10"/>
<path d="M222.095 40.0352V243.693" stroke="#FF864E" stroke-width="2.9091" stroke-miterlimit="10"/>
<path d="M292.111 53.4248V243.693" stroke="#FF864E" stroke-width="3.5455" stroke-miterlimit="10"/>
<path d="M361.811 66.8147V243.693" stroke="#FF864E" stroke-width="4.1818" stroke-miterlimit="10"/>
<path d="M431.51 80.2046V243.693" stroke="#FF864E" stroke-width="4.8182" stroke-miterlimit="10"/>
<path d="M501.206 93.5942V243.693" stroke="#FF864E" stroke-width="5.4545" stroke-miterlimit="10"/>
<path d="M570.906 106.984V243.693" stroke="#FF864E" stroke-width="6.0909" stroke-miterlimit="10"/>
<path d="M640.604 120.374V243.693" stroke="#FF864E" stroke-width="6.7273" stroke-miterlimit="10"/>
<path d="M710.304 133.629V243.693" stroke="#FF864E" stroke-width="7.3636" stroke-miterlimit="10"/>
<path d="M780 147.019V243.693" stroke="#FF864E" stroke-width="8" stroke-miterlimit="10"/>
</svg>
