<svg width="596" height="508" viewBox="0 0 596 508" fill="none" xmlns="http://www.w3.org/2000/svg">
<path d="M585.018 508V226" stroke="#7B60BD" stroke-miterlimit="10"/>
<path d="M532.243 492.688V226" stroke="#7B60BD" stroke-width="1.6364" stroke-miterlimit="10"/>
<path d="M479.467 477.503V226" stroke="#7B60BD" stroke-width="2.2727" stroke-miterlimit="10"/>
<path d="M426.692 462.191V226" stroke="#7B60BD" stroke-width="2.9091" stroke-miterlimit="10"/>
<path d="M373.917 446.879V226" stroke="#7B60BD" stroke-width="3.5455" stroke-miterlimit="10"/>
<path d="M321.142 431.566V226" stroke="#7B60BD" stroke-width="4.1818" stroke-miterlimit="10"/>
<path d="M268.367 416.382V226" stroke="#7B60BD" stroke-width="4.8182" stroke-miterlimit="10"/>
<path d="M215.805 401.07V226" stroke="#7B60BD" stroke-width="5.4545" stroke-miterlimit="10"/>
<path d="M163.029 385.757V226" stroke="#7B60BD" stroke-width="6.0909" stroke-miterlimit="10"/>
<path d="M110.254 370.445V226" stroke="#7B60BD" stroke-width="6.7273" stroke-miterlimit="10"/>
<path d="M57.6636 359.423L57.6636 226" stroke="#7B60BD" stroke-width="7.3636" stroke-miterlimit="10"/>
<path d="M4.70312 351.662V226" stroke="#7B60BD" stroke-width="8" stroke-miterlimit="10"/>
<path d="M11.5117 -0.00012207V243.693" stroke="#F67336" stroke-miterlimit="10"/>
<path d="M64.2437 13.3895V243.693" stroke="#F67336" stroke-width="1.6364" stroke-miterlimit="10"/>
<path d="M116.977 26.7792V243.693" stroke="#F67336" stroke-width="2.2727" stroke-miterlimit="10"/>
<path d="M169.708 40.0352V243.693" stroke="#F67336" stroke-width="2.9091" stroke-miterlimit="10"/>
<path d="M222.681 53.4248V243.693" stroke="#F67336" stroke-width="3.5455" stroke-miterlimit="10"/>
<path d="M275.414 66.8146V243.693" stroke="#F67336" stroke-width="4.1818" stroke-miterlimit="10"/>
<path d="M328.147 80.2043V243.693" stroke="#F67336" stroke-width="4.8182" stroke-miterlimit="10"/>
<path d="M380.877 93.5941V243.693" stroke="#F67336" stroke-width="5.4545" stroke-miterlimit="10"/>
<path d="M433.611 106.984V243.693" stroke="#F67336" stroke-width="6.0909" stroke-miterlimit="10"/>
<path d="M486.343 120.373V243.693" stroke="#F67336" stroke-width="6.7273" stroke-miterlimit="10"/>
<path d="M539.076 133.629V243.693" stroke="#F67336" stroke-width="7.3636" stroke-miterlimit="10"/>
<path d="M591.807 147.019V243.693" stroke="#F67336" stroke-width="8" stroke-miterlimit="10"/>
</svg>
