<svg width="75" height="79" viewBox="0 0 75 79" fill="none" xmlns="http://www.w3.org/2000/svg">
<path d="M46.3434 37.9999C46.3434 40.9512 43.9509 43.3436 40.9996 43.3436C38.0483 43.3436 35.6559 40.9512 35.6559 37.9999C35.6559 35.0486 38.0483 32.6561 40.9996 32.6561C43.9509 32.6561 46.3434 35.0486 46.3434 37.9999Z" fill="url(#paint0_linear_4959_19759)"/>
<path fill-rule="evenodd" clip-rule="evenodd" d="M25.4877 74.7648C30.3481 72.5776 35.6238 69.4314 41.006 65.4719C46.3881 69.4314 51.6639 72.5776 56.5243 74.7648C61.1638 76.8526 65.4876 78.095 69.2012 78.297C72.914 78.4991 76.1638 77.6628 78.4163 75.4103C80.6688 73.1578 81.5051 69.9079 81.3031 66.1951C81.1011 62.4815 79.8587 58.1577 77.7709 53.5182C75.5837 48.6578 72.4375 43.382 68.478 37.9999C72.4375 32.6177 75.5837 27.342 77.7709 22.4816C79.8587 17.8421 81.1011 13.5183 81.3031 9.80468C81.5051 6.09188 80.6688 2.842 78.4163 0.589507C76.1638 -1.66299 72.914 -2.4993 69.2012 -2.29728C65.4876 -2.0952 61.1638 -0.852797 56.5243 1.23497C51.6639 3.42216 46.3881 6.5684 41.006 10.5278C35.6238 6.56841 30.3481 3.42218 25.4877 1.23499C20.8482 -0.852775 16.5244 -2.09518 12.8108 -2.29725C9.09798 -2.49928 5.8481 -1.66297 3.59561 0.589528C1.34312 2.84202 0.506805 6.0919 0.708829 9.8047C0.910896 13.5183 2.15331 17.8421 4.24107 22.4816C6.42826 27.342 9.5745 32.6177 13.5339 37.9999C9.5745 43.382 6.42826 48.6578 4.24107 53.5182C2.15331 58.1577 0.910896 62.4815 0.708829 66.1951C0.506805 69.9079 1.34312 73.1578 3.59561 75.4102C5.8481 77.6627 9.09798 78.499 12.8108 78.297C16.5244 78.095 20.8482 76.8525 25.4877 74.7648ZM3.20514 66.3309C3.02563 69.6299 3.78995 72.0691 5.36338 73.6425C6.9368 75.2159 9.37592 75.9802 12.675 75.8007C15.9732 75.6213 19.984 74.5 24.4618 72.485C28.9643 70.4588 33.8756 67.5578 38.9194 63.9001C34.6935 60.6421 30.4269 56.8983 26.2672 52.7387C22.1075 48.579 18.3638 44.3123 15.1057 40.0864C11.448 45.1302 8.54703 50.0415 6.52088 54.5441C4.50589 59.0218 3.3846 63.0327 3.20514 66.3309ZM75.4911 54.5441C73.4649 50.0415 70.5639 45.1302 66.9062 40.0864C63.6482 44.3123 59.9044 48.5789 55.7447 52.7386C51.585 56.8983 47.3184 60.6421 43.0925 63.9001C48.1363 67.5578 53.0476 70.4588 57.5502 72.485C62.0279 74.5 66.0388 75.6213 69.337 75.8007C72.636 75.9802 75.0751 75.2159 76.6486 73.6425C78.222 72.0691 78.9863 69.6299 78.8068 66.3309C78.6274 63.0327 77.5061 59.0219 75.4911 54.5441ZM53.977 50.9709C58.256 46.6919 62.0729 42.3117 65.3554 37.9999C62.0729 33.688 58.256 29.3079 53.977 25.0289C49.698 20.7499 45.3178 16.9329 41.006 13.6504C36.6941 16.9329 32.314 20.7499 28.035 25.0289C23.756 29.3079 19.939 33.688 16.6565 37.9999C19.939 42.3117 23.756 46.6919 28.035 50.9709C32.314 55.2499 36.6941 59.0669 41.006 62.3493C45.3178 59.0669 49.698 55.2499 53.977 50.9709ZM75.4911 21.4557C73.4649 25.9582 70.5639 30.8695 66.9062 35.9133C63.6482 31.6875 59.9044 27.4208 55.7447 23.2611C51.585 19.1014 47.3184 15.3577 43.0925 12.0996C48.1363 8.44194 53.0476 5.54093 57.5502 3.51478C62.0279 1.49979 66.0388 0.378497 69.337 0.199034C72.636 0.0195272 75.0751 0.783849 76.6486 2.35727C78.222 3.9307 78.9863 6.36982 78.8068 9.66885C78.6274 12.9671 77.5061 16.9779 75.4911 21.4557ZM24.4618 3.5148C28.9643 5.54095 33.8756 8.44195 38.9194 12.0996C34.6935 15.3577 30.4269 19.1014 26.2672 23.2611C22.1075 27.4208 18.3638 31.6874 15.1057 35.9133C11.448 30.8695 8.54703 25.9582 6.52088 21.4557C4.50589 16.9779 3.3846 12.9671 3.20514 9.66887C3.02563 6.36984 3.78995 3.93072 5.36338 2.3573C6.9368 0.78387 9.37592 0.0195465 12.675 0.199055C15.9732 0.37852 19.984 1.49981 24.4618 3.5148Z" fill="url(#paint1_linear_4959_19759)"/>
<defs>
<linearGradient id="paint0_linear_4959_19759" x1="10.0034" y1="77.0978" x2="74.9892" y2="-6.12358" gradientUnits="userSpaceOnUse">
<stop stop-color="#D8869E"/>
<stop offset="1" stop-color="white" stop-opacity="0"/>
</linearGradient>
<linearGradient id="paint1_linear_4959_19759" x1="10.0034" y1="77.0978" x2="74.9892" y2="-6.12358" gradientUnits="userSpaceOnUse">
<stop stop-color="#D8869E"/>
<stop offset="1" stop-color="white" stop-opacity="0"/>
</linearGradient>
</defs>
</svg>
