<?xml version="1.0" encoding="UTF-8"?>
<svg width="81px" height="81px" viewBox="0 0 81 81" version="1.1" xmlns="http://www.w3.org/2000/svg" xmlns:xlink="http://www.w3.org/1999/xlink">
    <title>behavioural</title>
    <defs>
        <linearGradient x1="-240.023392%" y1="415.828772%" x2="368.030877%" y2="-362.850807%" id="linearGradient-1">
            <stop stop-color="#D8869E" offset="0%"></stop>
            <stop stop-color="#FFFFFF" stop-opacity="0" offset="100%"></stop>
        </linearGradient>
        <linearGradient x1="11.5603442%" y1="98.4769722%" x2="92.1353566%" y2="-4.70804499%" id="linearGradient-2">
            <stop stop-color="#D8869E" offset="0%"></stop>
            <stop stop-color="#FFFFFF" stop-opacity="0" offset="100%"></stop>
        </linearGradient>
    </defs>
    <g id="Page-1" stroke="none" stroke-width="1" fill="none" fill-rule="evenodd">
        <g id="behavioural">
            <path d="M45.6637121,40.3263202 C45.6637121,43.2776202 43.2712121,45.6700202 40.3199121,45.6700202 C37.3686121,45.6700202 34.9762121,43.2776202 34.9762121,40.3263202 C34.9762121,37.3750202 37.3686121,34.9825202 40.3199121,34.9825202 C43.2712121,34.9825202 45.6637121,37.3750202 45.6637121,40.3263202 Z" id="Path" fill="url(#linearGradient-1)" fill-rule="nonzero"></path>
            <path d="M24.8080121,77.0912202 C29.6684121,74.9040202 34.9441121,71.7578202 40.3263121,67.7983202 C45.7084121,71.7578202 50.9842121,74.9040202 55.8446121,77.0912202 C60.4841121,79.1790202 64.8079121,80.4214202 68.5215121,80.6234202 C72.2343121,80.8255202 75.4841121,79.9892202 77.7366121,77.7367202 C79.9891121,75.4842202 80.8254121,72.2343202 80.6234121,68.5215202 C80.4214121,64.8079202 79.1790121,60.4841202 77.0912121,55.8446202 C74.9040121,50.9842202 71.7578121,45.7084202 67.7983121,40.3263202 C71.7578121,34.9441202 74.9040121,29.6684202 77.0912121,24.8080202 C79.1790121,20.1685202 80.4214121,15.8447202 80.6234121,12.1311002 C80.8254121,8.41830018 79.9891121,5.16842018 77.7366121,2.91592718 C75.4841121,0.66343018 72.2343121,-0.17287982 68.5215121,0.0291401797 C64.8079121,0.23122018 60.4841121,1.47362318 55.8446121,3.56139018 C50.9842121,5.74858018 45.7084121,8.89482018 40.3263121,12.8542202 C34.9441121,8.89483018 29.6684121,5.74860018 24.8080121,3.56141018 C20.1685121,1.47364518 15.8447121,0.23124018 12.1311121,0.0291701797 C8.4182921,-0.17285982 5.1684121,0.66345018 2.9159221,2.91594818 C0.663432099,5.16844018 -0.172882901,8.41832018 0.0291410986,12.1311202 C0.231208099,15.8447202 1.4736221,20.1685202 3.5613821,24.8080202 C5.7485721,29.6684202 8.8948121,34.9441202 12.8542121,40.3263202 C8.8948121,45.7084202 5.7485721,50.9842202 3.5613821,55.8446202 C1.4736221,60.4841202 0.231208099,64.8079202 0.0291410986,68.5215202 C-0.172882901,72.2343202 0.663432099,75.4842202 2.9159221,77.7366202 C5.1684121,79.9891202 8.4182921,80.8254202 12.1311121,80.6234202 C15.8447121,80.4214202 20.1685121,79.1789202 24.8080121,77.0912202 Z M2.5254521,68.6573202 C2.3459421,71.9563202 3.1102621,74.3955202 4.6836921,75.9689202 C6.2571121,77.5423202 8.6962321,78.3066202 11.9953121,78.1271202 C15.2935121,77.9477202 19.3043121,76.8264202 23.7821121,74.8114202 C28.2846121,72.7852202 33.1959121,69.8842202 38.2397121,66.2265202 C34.0138121,62.9685202 29.7472121,59.2247202 25.5875121,55.0651202 C21.4278121,50.9054202 17.6841121,46.6387202 14.4260121,42.4128202 C10.7683121,47.4566202 7.8673421,52.3679202 5.8411921,56.8705202 C3.8262021,61.3482202 2.7049121,65.3591202 2.5254521,68.6573202 Z M74.8114121,56.8705202 C72.7852121,52.3679202 69.8842121,47.4566202 66.2265121,42.4128202 C62.9685121,46.6387202 59.2247121,50.9053202 55.0650121,55.0650202 C50.9053121,59.2247202 46.6387121,62.9685202 42.4128121,66.2265202 C47.4566121,69.8842202 52.3679121,72.7852202 56.8705121,74.8114202 C61.3482121,76.8264202 65.3591121,77.9477202 68.6573121,78.1271202 C71.9563121,78.3066202 74.3954121,77.5423202 75.9689121,75.9689202 C77.5423121,74.3955202 78.3066121,71.9563202 78.1271121,68.6573202 C77.9477121,65.3591202 76.8264121,61.3483202 74.8114121,56.8705202 Z M53.2973121,53.2973202 C57.5763121,49.0183202 61.3932121,44.6381202 64.6757121,40.3263202 C61.3932121,36.0144202 57.5763121,31.6343202 53.2973121,27.3553202 C49.0183121,23.0763202 44.6381121,19.2593202 40.3263121,15.9768202 C36.0144121,19.2593202 31.6343121,23.0763202 27.3553121,27.3553202 C23.0763121,31.6343202 19.2593121,36.0144202 15.9768121,40.3263202 C19.2593121,44.6381202 23.0763121,49.0183202 27.3553121,53.2973202 C31.6343121,57.5763202 36.0144121,61.3933202 40.3263121,64.6757202 C44.6381121,61.3933202 49.0183121,57.5763202 53.2973121,53.2973202 Z M74.8114121,23.7821202 C72.7852121,28.2846202 69.8842121,33.1959202 66.2265121,38.2397202 C62.9685121,34.0139202 59.2247121,29.7472202 55.0650121,25.5875202 C50.9053121,21.4278202 46.6387121,17.6841202 42.4128121,14.4260202 C47.4566121,10.7683602 52.3679121,7.86735018 56.8705121,5.84120018 C61.3482121,3.82621018 65.3591121,2.70491718 68.6573121,2.52545418 C71.9563121,2.34594738 74.3954121,3.11026918 75.9689121,4.68369018 C77.5423121,6.25712018 78.3066121,8.69624018 78.1271121,11.9952702 C77.9477121,15.2935202 76.8264121,19.3043202 74.8114121,23.7821202 Z M23.7821121,5.84122018 C28.2846121,7.86737018 33.1959121,10.7683702 38.2397121,14.4260202 C34.0138121,17.6841202 29.7472121,21.4278202 25.5875121,25.5875202 C21.4278121,29.7472202 17.6841121,34.0138202 14.4260121,38.2397202 C10.7683121,33.1959202 7.8673421,28.2846202 5.8411921,23.7821202 C3.8262021,19.3043202 2.7049121,15.2935202 2.5254521,11.9952902 C2.3459421,8.69626018 3.1102621,6.25714018 4.6836921,4.68372018 C6.2571121,3.11029018 8.6962321,2.34596668 11.9953121,2.52547518 C15.2935121,2.70494018 19.3043121,3.82623018 23.7821121,5.84122018 Z" id="Shape" fill="url(#linearGradient-2)"></path>
        </g>
    </g>
</svg>