<?xml version="1.0" encoding="UTF-8"?>
<svg width="81px" height="89px" viewBox="0 0 81 89" version="1.1" xmlns="http://www.w3.org/2000/svg" xmlns:xlink="http://www.w3.org/1999/xlink">
    <title>cognitive</title>
    <defs>
        <linearGradient x1="18.7852586%" y1="98.4768983%" x2="92.8652032%" y2="3.60955572%" id="linearGradient-1">
            <stop stop-color="#D8869E" offset="0%"></stop>
            <stop stop-color="#FFFFFF" stop-opacity="0" offset="100%"></stop>
        </linearGradient>
    </defs>
    <g id="Page-1" stroke="none" stroke-width="1" fill="none" fill-rule="evenodd">
        <g id="cognitive" transform="translate(0.941406, 0.437300)" fill="url(#linearGradient-1)">
            <path d="M39.9034936,0 C39.1514936,0 38.4126936,0.1974 37.7608936,0.57226 L19.7755936,10.688994 C19.6259936,10.736323 19.4858936,10.814172 19.3654936,10.91969 L2.24069363,20.55237 L2.23661363,20.55468 C1.63424363,20.8967 1.12179363,21.3751 0.739483625,21.9499 C0.681103625,22.014 0.629123625,22.0858 0.585083625,22.1648 C0.550893625,22.2262 0.522933625,22.2893 0.500983625,22.3534 C0.176163625,22.9762 0.00400362517,23.6685 3.44169138e-15,24.3729 L3.44169138e-15,24.3791 L3.44169138e-15,43.8146 C3.44169138e-15,43.829 3.44169138e-15,43.8434 3.44169138e-15,43.8578 L3.44169138e-15,64.1836 L3.44169138e-15,64.1898 C0.00439262517,64.9667 0.213333625,65.7287 0.605973625,66.3991 C0.998613625,67.0694 1.56106363,67.6244 2.23661363,68.008 L2.24069363,68.0103 L19.8999936,77.9437 C19.9415936,77.9707 19.9848936,77.9952 20.0299936,78.0168 L37.7548936,87.987 L37.7612936,87.9907 C38.4128936,88.3654 39.1515936,88.5627 39.9034936,88.5627 C40.6552936,88.5627 41.3939936,88.3654 42.0456936,87.9907 L42.0519936,87.987 L59.7768936,78.0168 C59.8219936,77.9952 59.8653936,77.9707 59.9068936,77.9437 L77.5661936,68.0103 L77.5702936,68.008 C78.2457936,67.6244 78.8082936,67.0694 79.2008936,66.3991 C79.5935936,65.7287 79.8024936,64.9667 79.8069186,64.1898 L78.6583936,64.1836 L79.8069186,64.1836 L79.8069186,43.8574 C79.8069186,43.8433 79.8069186,43.8292 79.8069186,43.8151 L79.8069186,24.3791 L79.8069186,24.3729 C79.8027936,23.6471 79.6201936,22.9343 79.2759936,22.2971 C79.2568936,22.2494 79.2342936,22.2026 79.2082936,22.1567 C79.1748936,22.098 79.1371936,22.0433 79.0955936,21.9929 C78.7104936,21.3989 78.1875936,20.9052 77.5702936,20.55467 L60.4415936,10.919812 C60.3209936,10.814189 60.1807936,10.736278 60.0310936,10.688937 L42.0519936,0.57572 L42.0459936,0.57227 C41.3941936,0.1974 40.6554936,0 39.9034936,0 Z M21.6742936,76.3067 L38.7674936,85.9217 L39.1127936,44.9552 L2.29679363,24.4336 L2.29679363,43.1657 L21.0888936,53.7363 C21.4504936,53.9397 21.6742936,54.3223 21.6742936,54.7371 L21.6742936,76.3067 Z M2.29679363,45.8007 L2.29679363,64.1802 C2.29927363,64.5523 2.39957363,64.9173 2.58766363,65.2384 C2.77587363,65.5597 3.04536363,65.8259 3.36900363,66.01 L3.37070363,66.011 L19.3776936,75.0149 L19.3776936,55.4087 L2.29679363,45.8007 Z M76.4361936,66.011 L60.4291936,75.0149 L60.4291936,55.4087 L77.5100936,45.8007 L77.5100936,64.1804 C77.5075936,64.5524 77.4072936,64.9173 77.2191936,65.2384 C77.0310936,65.5596 76.7616936,65.8257 76.4382936,66.0098 L76.4361936,66.011 Z M58.7179936,53.7363 L77.5100936,43.1657 L77.5100936,24.4421 L41.4094936,44.9503 L41.0642936,85.9077 L58.1325936,76.3067 L58.1325936,54.7371 C58.1325936,54.3223 58.3563936,53.9397 58.7179936,53.7363 Z M57.3189936,11.79828 L40.9036936,2.56469 C40.5995936,2.38911 40.2545936,2.29661 39.9034936,2.29661 C39.5522936,2.29661 39.2072936,2.38904 38.9031936,2.56463 L38.8919936,2.57106 L22.4878936,11.79828 L39.9034936,21.6078 L57.3189936,11.79828 Z M20.1465936,13.1153 L3.50356363,22.477 L40.2568936,42.9637 L76.3115936,22.4816 L59.6602936,13.1153 L40.4669936,23.9263 C40.1170936,24.1233 39.6897936,24.1233 39.3398936,23.9263 L20.1465936,13.1153 Z" id="Shape"></path>
        </g>
    </g>
</svg>