<?xml version="1.0" encoding="UTF-8"?>
<svg width="80px" height="73px" viewBox="0 0 80 73" version="1.1" xmlns="http://www.w3.org/2000/svg" xmlns:xlink="http://www.w3.org/1999/xlink">
    <title>communication</title>
    <defs>
        <linearGradient x1="-266.33324%" y1="478.093342%" x2="323.229447%" y2="-349.210803%" id="linearGradient-1">
            <stop stop-color="#D8869E" offset="0%"></stop>
            <stop stop-color="#FFFFFF" stop-opacity="0" offset="100%"></stop>
        </linearGradient>
        <linearGradient x1="-66.3342721%" y1="478.093342%" x2="523.228416%" y2="-349.210803%" id="linearGradient-2">
            <stop stop-color="#D8869E" offset="0%"></stop>
            <stop stop-color="#FFFFFF" stop-opacity="0" offset="100%"></stop>
        </linearGradient>
        <linearGradient x1="-466.33702%" y1="478.102175%" x2="123.23175%" y2="-349.21904%" id="linearGradient-3">
            <stop stop-color="#D8869E" offset="0%"></stop>
            <stop stop-color="#FFFFFF" stop-opacity="0" offset="100%"></stop>
        </linearGradient>
        <linearGradient x1="11.5603332%" y1="90.3728052%" x2="83.2018503%" y2="-1.37200677%" id="linearGradient-4">
            <stop stop-color="#D8869E" offset="0%"></stop>
            <stop stop-color="#FFFFFF" stop-opacity="0" offset="100%"></stop>
        </linearGradient>
    </defs>
    <g id="Page-1" stroke="none" stroke-width="1" fill="none" fill-rule="evenodd">
        <g id="communication">
            <path d="M44.7314,30.1915 C44.7314,32.8682 42.5614,35.0381 39.8847,35.0381 C37.208,35.0381 35.0381,32.8682 35.0381,30.1915 C35.0381,27.5148 37.208,25.3449 39.8847,25.3449 C42.5614,25.3449 44.7314,27.5148 44.7314,30.1915 Z" id="Path" fill="url(#linearGradient-1)" fill-rule="nonzero"></path>
            <path d="M20.4983,35.0381 C23.175,35.0381 25.3449,32.8682 25.3449,30.1915 C25.3449,27.5148 23.175,25.3449 20.4983,25.3449 C17.8215,25.3449 15.6516,27.5148 15.6516,30.1915 C15.6516,32.8682 17.8215,35.0381 20.4983,35.0381 Z" id="Path" fill="url(#linearGradient-2)" fill-rule="nonzero"></path>
            <path d="M64.1178,30.1915 C64.1178,32.8682 61.9479,35.0381 59.2712,35.0381 C56.5945,35.0381 54.4246,32.8682 54.4246,30.1915 C54.4246,27.5148 56.5945,25.3449 59.2712,25.3449 C61.9479,25.3449 64.1178,27.5148 64.1178,30.1915 Z" id="Path" fill="url(#linearGradient-3)" fill-rule="nonzero"></path>
            <path d="M20.1612,60.8916 L19.4482,60.0387 L20.1754,60.8796 C20.5456,60.5594 21.0186,60.3832 21.508,60.383 L75.4266,60.383 C76.5784,60.383 77.683,59.9254 78.4975,59.111 C79.3119,58.2966 79.7695,57.1919 79.7695,56.0401 L79.7695,4.34285 C79.7695,3.19106 79.3119,2.08644 78.4975,1.27199 C77.683,0.45755 76.5784,0 75.4266,0 L4.34285,0 C3.19105,0 2.08643,0.45755 1.27199,1.27199 C0.45755,2.08643 0,3.19105 0,4.34285 L0,68.4798 L0,68.4886 C0.00654264,69.3098 0.245762,70.1123 0.689937,70.8031 C1.13411,71.4938 1.76504,72.0445 2.50951,72.3911 C3.25398,72.7378 4.08149,72.8663 4.89604,72.7617 C5.71058,72.657 6.47876,72.3236 7.11145,71.8 L7.1157,71.7965 L20.1612,60.8916 Z M2.84427,2.84427 C3.24172,2.44682 3.78077,2.22354 4.34285,2.22354 L75.4266,2.22354 C75.9887,2.22354 76.5277,2.44682 76.9252,2.84427 C77.3226,3.24172 77.5459,3.78077 77.5459,4.34285 L77.5459,56.0401 C77.5459,56.6022 77.3226,57.1413 76.9252,57.5387 C76.5277,57.9362 75.9887,58.1594 75.4266,58.1594 L21.508,58.1594 C20.4879,58.1597 19.5016,58.5258 18.7285,59.1911 L5.69387,70.087 L5.69199,70.0885 C5.38359,70.3431 5.00943,70.5053 4.61275,70.5562 C4.21526,70.6073 3.81144,70.5446 3.44813,70.3754 C3.08482,70.2062 2.77693,69.9375 2.56018,69.6004 C2.34413,69.2645 2.22745,68.8743 2.22354,68.4749 L2.22354,4.34285 C2.22354,3.78077 2.44682,3.24172 2.84427,2.84427 Z" id="Shape" fill="url(#linearGradient-4)"></path>
        </g>
    </g>
</svg>