<svg width="65" height="65" viewBox="0 0 65 65" fill="none" xmlns="http://www.w3.org/2000/svg">
<path d="M44.7314 22.1915C44.7314 24.8682 42.5614 27.0381 39.8847 27.0381C37.208 27.0381 35.0381 24.8682 35.0381 22.1915C35.0381 19.5148 37.208 17.3449 39.8847 17.3449C42.5614 17.3449 44.7314 19.5148 44.7314 22.1915Z" fill="url(#paint0_linear_4959_19548)"/>
<path d="M20.4983 27.0381C23.175 27.0381 25.3449 24.8682 25.3449 22.1915C25.3449 19.5148 23.175 17.3449 20.4983 17.3449C17.8215 17.3449 15.6516 19.5148 15.6516 22.1915C15.6516 24.8682 17.8215 27.0381 20.4983 27.0381Z" fill="url(#paint1_linear_4959_19548)"/>
<path d="M64.1178 22.1915C64.1178 24.8682 61.9479 27.0381 59.2712 27.0381C56.5945 27.0381 54.4246 24.8682 54.4246 22.1915C54.4246 19.5148 56.5945 17.3449 59.2712 17.3449C61.9479 17.3449 64.1178 19.5148 64.1178 22.1915Z" fill="url(#paint2_linear_4959_19548)"/>
<path fill-rule="evenodd" clip-rule="evenodd" d="M20.1612 52.8916L19.4482 52.0387L20.1754 52.8796C20.5456 52.5594 21.0186 52.3832 21.508 52.383H75.4266C76.5784 52.383 77.683 51.9254 78.4975 51.111C79.3119 50.2966 79.7695 49.1919 79.7695 48.0401V-3.65715C79.7695 -4.80894 79.3119 -5.91356 78.4975 -6.72801C77.683 -7.54245 76.5784 -8 75.4266 -8H4.34285C3.19105 -8 2.08643 -7.54245 1.27199 -6.72801C0.45755 -5.91357 0 -4.80895 0 -3.65715V60.4798L3.49225e-05 60.4886C0.00654264 61.3098 0.245762 62.1123 0.689937 62.8031C1.13411 63.4938 1.76504 64.0445 2.50951 64.3911C3.25398 64.7378 4.08149 64.8663 4.89604 64.7617C5.71058 64.657 6.47876 64.3236 7.11145 63.8L7.1157 63.7965L20.1612 52.8916ZM2.84427 -5.15573C3.24172 -5.55318 3.78077 -5.77646 4.34285 -5.77646H75.4266C75.9887 -5.77646 76.5277 -5.55318 76.9252 -5.15573C77.3226 -4.75828 77.5459 -4.21923 77.5459 -3.65715V48.0401C77.5459 48.6022 77.3226 49.1413 76.9252 49.5387C76.5277 49.9362 75.9887 50.1594 75.4266 50.1594H21.508C20.4879 50.1597 19.5016 50.5258 18.7285 51.1911L5.69387 62.087L5.69199 62.0885C5.38359 62.3431 5.00943 62.5053 4.61275 62.5562C4.21526 62.6073 3.81144 62.5446 3.44813 62.3754C3.08482 62.2062 2.77693 61.9375 2.56018 61.6004C2.34413 61.2645 2.22745 60.8743 2.22354 60.4749V-3.65715C2.22354 -4.21923 2.44682 -4.75828 2.84427 -5.15573Z" fill="url(#paint3_linear_4959_19548)"/>
<defs>
<linearGradient id="paint0_linear_4959_19548" x1="9.22162" y1="63.6883" x2="66.3697" y2="-16.5056" gradientUnits="userSpaceOnUse">
<stop stop-color="#D8869E"/>
<stop offset="1" stop-color="white" stop-opacity="0"/>
</linearGradient>
<linearGradient id="paint1_linear_4959_19548" x1="9.22162" y1="63.6883" x2="66.3697" y2="-16.5056" gradientUnits="userSpaceOnUse">
<stop stop-color="#D8869E"/>
<stop offset="1" stop-color="white" stop-opacity="0"/>
</linearGradient>
<linearGradient id="paint2_linear_4959_19548" x1="9.22162" y1="63.6883" x2="66.3697" y2="-16.5056" gradientUnits="userSpaceOnUse">
<stop stop-color="#D8869E"/>
<stop offset="1" stop-color="white" stop-opacity="0"/>
</linearGradient>
<linearGradient id="paint3_linear_4959_19548" x1="9.22162" y1="63.6883" x2="66.3697" y2="-16.5056" gradientUnits="userSpaceOnUse">
<stop stop-color="#D8869E"/>
<stop offset="1" stop-color="white" stop-opacity="0"/>
</linearGradient>
</defs>
</svg>
