<svg width="85" height="77" viewBox="0 0 85 77" fill="none" xmlns="http://www.w3.org/2000/svg">
<path fill-rule="evenodd" clip-rule="evenodd" d="M61 12.3126V21.75C61 24.4079 63.1546 26.5625 65.8125 26.5625H87.1875C89.8454 26.5625 92 24.4079 92 21.75V0.375C92 -2.28287 89.8454 -4.4375 87.1875 -4.4375H65.8125C63.1546 -4.4375 61 -2.28287 61 0.375V9.81259H55.1276C53.5584 9.80637 52.0034 10.1108 50.5523 10.7083C49.1003 11.3061 47.7812 12.1856 46.6709 13.2959C45.5606 14.4062 44.6811 15.7253 44.0833 17.1773C43.4858 18.6284 43.1814 20.1834 43.1876 21.7526V34.75H27.875V27.0938C27.875 24.4359 25.7204 22.2812 23.0625 22.2812H5.25C2.59213 22.2812 0.4375 24.4359 0.4375 27.0938V44.9062C0.4375 47.5641 2.59213 49.7188 5.25 49.7188H23.0625C25.7204 49.7188 27.875 47.5641 27.875 44.9062V37.25H43.1876V50.2475C43.1814 51.8168 43.4858 53.3718 44.0833 54.8229C44.6811 56.2748 45.5606 57.594 46.6709 58.7043C47.7812 59.8146 49.1003 60.6941 50.5523 61.2919C52.0033 61.8894 53.5583 62.1938 55.1275 62.1876H61V71.625C61 74.2829 63.1546 76.4375 65.8125 76.4375H87.1875C89.8454 76.4375 92 74.2829 92 71.625V50.25C92 47.5921 89.8454 45.4375 87.1875 45.4375H65.8125C63.1546 45.4375 61 47.5921 61 50.25V59.6876L55.1251 59.6876L55.1199 59.6876C53.8797 59.6928 52.6509 59.4524 51.5041 58.9802C50.3574 58.508 49.3155 57.8135 48.4386 56.9366C47.5617 56.0596 46.8672 55.0178 46.395 53.8711C45.9228 52.7243 45.6824 51.4955 45.6876 50.2553L45.6876 50.2501L45.6876 21.7501L45.6876 21.7449C45.6824 20.5047 45.9228 19.2759 46.395 18.1291C46.8672 16.9824 47.5617 15.9405 48.4386 15.0636C49.3155 14.1867 50.3574 13.4922 51.5041 13.02M65.8125 -1.9375C64.5353 -1.9375 63.5 -0.902158 63.5 0.375V11.0473C63.5001 11.0524 63.5001 11.0575 63.5001 11.0626C63.5001 11.0677 63.5001 11.0728 63.5 11.0779V21.75C63.5 23.0272 64.5353 24.0625 65.8125 24.0625H87.1875C88.4647 24.0625 89.5 23.0272 89.5 21.75V0.375C89.5 -0.902158 88.4647 -1.9375 87.1875 -1.9375H65.8125ZM63.5 60.9529C63.5001 60.9478 63.5001 60.9427 63.5001 60.9376C63.5001 60.9325 63.5001 60.9274 63.5 60.9223V50.25C63.5 48.9728 64.5353 47.9375 65.8125 47.9375H87.1875C88.4647 47.9375 89.5 48.9728 89.5 50.25V71.625C89.5 72.9022 88.4647 73.9375 87.1875 73.9375H65.8125C64.5353 73.9375 63.5 72.9022 63.5 71.625V60.9529ZM61 12.3126H55.1251H61ZM5.25 24.7812C3.97284 24.7812 2.9375 25.8166 2.9375 27.0938V44.9062C2.9375 46.1834 3.97284 47.2188 5.25 47.2188H23.0625C24.3397 47.2188 25.375 46.1834 25.375 44.9062V27.0938C25.375 25.8166 24.3397 24.7812 23.0625 24.7812H5.25Z" fill="url(#paint0_linear_4959_19805)"/>
<defs>
<linearGradient id="paint0_linear_4959_19805" x1="11.0224" y1="75.2057" x2="73.8093" y2="-15.8251" gradientUnits="userSpaceOnUse">
<stop stop-color="#D8869E"/>
<stop offset="1" stop-color="white" stop-opacity="0"/>
</linearGradient>
</defs>
</svg>
