<svg width="76" height="76" viewBox="0 0 76 76" fill="none" xmlns="http://www.w3.org/2000/svg">
<path fill-rule="evenodd" clip-rule="evenodd" d="M72.9684 24.2213C70.455 14.8412 64.3183 6.84377 55.9084 1.9883C47.4984 -2.86718 37.5041 -4.18296 28.1241 -1.66958C19.5524 0.627202 12.2441 6.23502 7.80707 13.9202C3.37003 21.6054 2.16764 30.7384 4.46442 39.3101C5.49443 43.1541 7.27148 46.7576 9.69412 49.9149C12.1168 53.0721 15.1375 55.7213 18.584 57.7111C22.0305 59.7009 25.8351 60.9924 29.7807 61.5119C33.7262 62.0313 37.7355 61.7685 41.5795 60.7385C48.5345 58.8749 54.4643 54.3248 58.0645 48.0891C61.6646 41.8537 62.6402 34.4435 60.7769 27.4887C59.1208 21.3476 55.0978 16.1134 49.5894 12.9332C44.081 9.75288 37.5365 8.88594 31.3901 10.5223C26.0521 11.9528 21.501 15.4451 18.7378 20.2311C15.9745 25.0172 15.2257 30.7051 16.6561 36.0434C17.8699 40.5733 20.8335 44.4355 24.8949 46.7804C28.9563 49.1252 33.7828 49.7607 38.3128 48.5469C42.0343 47.5497 45.2073 45.1149 47.1338 41.7783C49.0602 38.4416 49.5822 34.4763 48.585 30.7548C47.8044 27.8416 45.8986 25.3578 43.2866 23.8498C40.6747 22.3418 37.5708 21.9332 34.6576 22.7137L34.6525 22.7151C33.6085 22.9901 32.6294 23.4692 31.7715 24.1246C30.9137 24.78 30.1941 25.5988 29.6543 26.5337C29.1145 27.4686 28.7652 28.5012 28.6266 29.5718C28.4879 30.6425 28.5626 31.73 28.8464 32.7716L28.8477 32.7766C29.1951 34.0731 30.0433 35.1785 31.2057 35.8496C32.3681 36.5207 33.7495 36.7026 35.046 36.3552C35.5342 36.2244 35.9503 35.9051 36.203 35.4674C36.4557 35.0298 36.5242 34.5097 36.3934 34.0215C36.2147 33.3547 36.6104 32.6693 37.2773 32.4906C37.9441 32.3119 38.6295 32.7076 38.8082 33.3745C39.1106 34.5031 38.9523 35.7055 38.3681 36.7174C37.7839 37.7293 36.8217 38.4676 35.6931 38.77C33.7561 39.289 31.6924 39.0173 29.9557 38.0147C28.2199 37.0125 26.953 35.362 26.4336 33.4262L26.4329 33.4237L27.6403 33.1001L26.4343 33.4287L26.4336 33.4262C26.0636 32.0669 25.9663 30.6478 26.1473 29.2507C26.3283 27.8528 26.7844 26.5045 27.4893 25.2837C28.1941 24.0629 29.1337 22.9938 30.2538 22.138C31.3732 21.2828 32.6508 20.6575 34.0129 20.2983L34.0105 20.2989L34.334 21.5063L34.0156 20.2976L34.0129 20.2983C37.5659 19.347 41.3512 19.8456 44.5366 21.6847C47.7228 23.5242 50.0476 26.5541 50.9998 30.1077C52.1686 34.4697 51.5568 39.1174 49.2988 43.0283C47.0409 46.9391 43.3218 49.7929 38.9598 50.9617C33.7895 52.3471 28.2805 51.6218 23.6449 48.9454C19.0092 46.269 15.6267 41.8608 14.2413 36.6904C12.6393 30.7117 13.4779 24.3414 16.5728 18.9811C19.6676 13.6207 24.765 9.70926 30.7438 8.10727L30.7456 8.10677C37.5318 6.29975 44.7576 7.25677 50.8394 10.7681C56.9212 14.2794 61.3628 20.0586 63.191 26.8391L63.1915 26.841C65.2267 34.4364 64.1613 42.5293 60.2296 49.3391C56.2979 56.149 49.822 61.1181 42.2266 63.1533C38.0654 64.2683 33.7254 64.5528 29.4543 63.9905C25.1833 63.4282 21.0648 62.0301 17.334 59.8762C13.6032 57.7222 10.3332 54.8545 7.71073 51.4368C5.08824 48.0191 3.16458 44.1183 2.04961 39.9572C-0.41878 30.745 0.873443 20.9296 5.64201 12.6702C10.4106 4.4108 18.2649 -1.616 27.477 -4.08439C37.4975 -6.76938 48.1742 -5.36377 57.1584 -0.176768C66.1425 5.01023 72.6982 13.5537 75.3832 23.5742C76.8199 28.9361 77.1864 34.5285 76.4619 40.0321C75.7373 45.5357 73.9359 50.8427 71.1603 55.65C68.3848 60.4574 64.6896 64.671 60.2856 68.0502C55.8817 71.4295 50.8552 73.9083 45.4933 75.345C44.8265 75.5237 44.1411 75.1279 43.9624 74.4611C43.7837 73.7943 44.1794 73.1089 44.8463 72.9302C49.8911 71.5784 54.6202 69.2463 58.7637 66.0669C62.9072 62.8875 66.3839 58.923 68.9953 54.4C71.6066 49.877 73.3016 44.8839 73.9833 39.7058C74.665 34.5277 74.3201 29.2661 72.9684 24.2213Z" fill="url(#paint0_linear_4959_19719)"/>
<defs>
<linearGradient id="paint0_linear_4959_19719" x1="9.60999" y1="74.1572" x2="75.5759" y2="-5.29501" gradientUnits="userSpaceOnUse">
<stop stop-color="#D8869E"/>
<stop offset="1" stop-color="white" stop-opacity="0"/>
</linearGradient>
</defs>
</svg>
