<?xml version="1.0" encoding="UTF-8"?>
<svg width="76px" height="81px" viewBox="0 0 76 81" version="1.1" xmlns="http://www.w3.org/2000/svg" xmlns:xlink="http://www.w3.org/1999/xlink">
    <title>intelligence</title>
    <defs>
        <linearGradient x1="15.9967982%" y1="98.4769456%" x2="92.7771783%" y2="0.151351644%" id="linearGradient-1">
            <stop stop-color="#D8869E" offset="0%"></stop>
            <stop stop-color="#FFFFFF" stop-opacity="0" offset="100%"></stop>
        </linearGradient>
    </defs>
    <g id="Page-1" stroke="none" stroke-width="1" fill="none" fill-rule="evenodd">
        <g id="intelligence" fill="url(#linearGradient-1)">
            <path d="M72.1441811,29.63861 C69.6307811,20.25851 63.4940811,12.26108 55.0841811,7.40561002 C46.6741811,2.55013002 36.6798811,1.23435002 27.2998811,3.74773002 C18.7281811,6.04451202 11.4198811,11.65233 6.98285113,19.33751 C2.54581113,27.02271 1.34342113,36.15571 3.64020113,44.72741 C4.67021113,48.57141 6.44726113,52.17491 8.86990113,55.33221 C11.2925811,58.48941 14.3132811,61.13861 17.7597811,63.12841 C21.2062811,65.11821 25.0108811,66.40971 28.9564811,66.92921 C32.9019811,67.44861 36.9112811,67.18581 40.7552811,66.15581 C47.7102811,64.29221 53.6400811,59.74211 57.2402811,53.50641 C60.8403811,47.27101 61.8159811,39.86081 59.9526811,32.90601 C58.2965811,26.76491 54.2735811,21.53071 48.7651811,18.35051 C43.2567811,15.17019 36.7122811,14.30325 30.5658811,15.93961 C25.2278811,17.37011 20.6767811,20.86241 17.9135811,25.64841 C15.1502811,30.43451 14.4014811,36.12241 15.8318811,41.46071 C17.0456811,45.99061 20.0092811,49.85281 24.0706811,52.19771 C28.1320811,54.54251 32.9585811,55.17801 37.4885811,53.96421 C41.2100811,52.96701 44.3830811,50.53221 46.3095811,47.19561 C48.2359811,43.85891 48.7579811,39.89361 47.7607811,36.17211 C46.9801811,33.25891 45.0743811,30.77511 42.4623811,29.26711 C39.8504811,27.75911 36.7465811,27.35051 33.8333811,28.13101 L33.8282811,28.13241 C32.7842811,28.40741 31.8051811,28.88651 30.9472811,29.54191 C30.0894811,30.19731 29.3698811,31.01611 28.8300811,31.95101 C28.2902811,32.88591 27.9409811,33.91851 27.8023811,34.98911 C27.6636811,36.05981 27.7383811,37.14731 28.0221811,38.18891 L28.0234811,38.19391 C28.3708811,39.49041 29.2190811,40.59581 30.3814811,41.26691 C31.5438811,41.93801 32.9252811,42.11991 34.2217811,41.77251 C34.7099811,41.64171 35.1260811,41.32241 35.3787811,40.88471 C35.6314811,40.44711 35.6999811,39.92701 35.5691811,39.43881 C35.3904811,38.77201 35.7861811,38.08661 36.4530811,37.90791 C37.1198811,37.72921 37.8052811,38.12491 37.9839811,38.79181 C38.2863811,39.92041 38.1280811,41.12281 37.5438811,42.13471 C36.9596811,43.14661 35.9974811,43.88491 34.8688811,44.18731 C32.9318811,44.70631 30.8681811,44.43461 29.1314811,43.43201 C27.3956811,42.42981 26.1287811,40.77931 25.6093811,38.84351 L25.6086811,38.84101 L26.8160811,38.51741 L25.6100811,38.84601 L25.6093811,38.84351 C25.2393811,37.48421 25.1420811,36.06511 25.3230811,34.66801 C25.5040811,33.27011 25.9601811,31.92181 26.6650811,30.70101 C27.3698811,29.48021 28.3094811,28.41111 29.4295811,27.55531 C30.5489811,26.70011 31.8265811,26.07481 33.1886811,25.71561 L33.1862811,25.71621 L33.5097811,26.92361 L33.1913811,25.71491 L33.1886811,25.71561 C36.7416811,24.76431 40.5269811,25.26291 43.7123811,27.10201 C46.8985811,28.94151 49.2233811,31.97141 50.1755811,35.52501 C51.3443811,39.88701 50.7325811,44.53471 48.4745811,48.44561 C46.2166811,52.35641 42.4975811,55.21021 38.1355811,56.37901 C32.9652811,57.76441 27.4562811,57.03911 22.8206811,54.36271 C18.1849811,51.68631 14.8024811,47.27811 13.4170811,42.10771 C11.8150811,36.12901 12.6536811,29.75871 15.7485811,24.39841 C18.8433811,19.03801 23.9407811,15.12657 29.9195811,13.52458 L29.9213811,13.52408 C36.7075811,11.71706 43.9333811,12.67408 50.0151811,16.18541 C56.0969811,19.69671 60.5385811,25.47591 62.3667811,32.25641 L62.3672811,32.25831 C64.4024811,39.85371 63.3370811,47.94661 59.4053811,54.75641 C55.4736811,61.56631 48.9977811,66.53541 41.4023811,68.57061 C37.2411811,69.68561 32.9011811,69.97011 28.6300811,69.40781 C24.3590811,68.84551 20.2405811,67.44741 16.5097811,65.29351 C12.7789811,63.13951 9.50898113,60.27181 6.88651113,56.85411 C4.26402113,53.43641 2.34036113,49.53561 1.22539113,45.37451 C-1.24299887,36.16231 0.0492241276,26.34691 4.81779113,18.08751 C9.58638113,9.82811002 17.4406811,3.80131002 26.6527811,1.33292002 C36.6732811,-1.35206998 47.3499811,0.0535400248 56.3341811,5.24054202 C65.3182811,10.42754 71.8739811,18.97101 74.5589811,28.99151 C75.9956811,34.35341 76.3621811,39.94581 75.6376811,45.44941 C74.9130811,50.95301 73.1116811,56.26001 70.3360811,61.06731 C67.5605811,65.87471 63.8653811,70.08831 59.4613811,73.46751 C55.0574811,76.84681 50.0309811,79.32561 44.6690811,80.76231 C44.0022811,80.94101 43.3168811,80.54521 43.1381811,79.87841 C42.9594811,79.21161 43.3551811,78.52621 44.0220811,78.34751 C49.0668811,76.99571 53.7959811,74.66361 57.9394811,71.48421 C62.0829811,68.30481 65.5596811,64.34031 68.1710811,59.81731 C70.7823811,55.29431 72.4773811,50.30121 73.1590811,45.12311 C73.8407811,39.94501 73.4958811,34.68341 72.1441811,29.63861 Z" id="Path"></path>
        </g>
    </g>
</svg>