<?xml version="1.0" encoding="UTF-8"?>
<svg width="80px" height="80px" viewBox="0 0 80 80" version="1.1" xmlns="http://www.w3.org/2000/svg" xmlns:xlink="http://www.w3.org/1999/xlink">
    <title>social</title>
    <defs>
        <linearGradient x1="-0.273846508%" y1="148.565266%" x2="118.354907%" y2="-52.3854028%" id="linearGradient-1">
            <stop stop-color="#D8869E" offset="0%"></stop>
            <stop stop-color="#FFFFFF" stop-opacity="0" offset="100%"></stop>
        </linearGradient>
        <linearGradient x1="32.1543606%" y1="89.9389643%" x2="69.9007505%" y2="28.4263067%" id="linearGradient-2">
            <stop stop-color="#D8869E" offset="0%"></stop>
            <stop stop-color="#FFFFFF" stop-opacity="0" offset="100%"></stop>
        </linearGradient>
    </defs>
    <g id="Page-1" stroke="none" stroke-width="1" fill="none" fill-rule="evenodd">
        <g id="social" transform="translate(-0.000000, -0.000014)">
            <path d="M39.6476004,25.2127136 C31.6804004,25.2127136 25.2218004,31.6714136 25.2218004,39.6386136 C25.2218004,47.6057136 31.6804004,54.0644136 39.6476004,54.0644136 C47.6148004,54.0644136 54.0735004,47.6057136 54.0735004,39.6386136 C54.0735004,31.6714136 47.6148004,25.2127136 39.6476004,25.2127136 Z M22.2656004,39.6386136 C22.2656004,30.0387136 30.0478004,22.2565736 39.6476004,22.2565736 C49.2474004,22.2565736 57.0296004,30.0387136 57.0296004,39.6386136 C57.0296004,49.2384136 49.2474004,57.0205136 39.6476004,57.0205136 C30.0478004,57.0205136 22.2656004,49.2384136 22.2656004,39.6386136 Z" id="Shape" fill="url(#linearGradient-1)"></path>
            <path d="M48.5827004,4.06076364 C40.6539004,2.07001364 32.2874004,2.78411364 24.8107004,6.08976364 C17.3340004,9.39541364 11.1754004,15.1032636 7.31207041,22.3076236 C3.44874041,29.5120136 2.10197041,37.8002136 3.48548041,45.8571136 C4.86898041,53.9140136 8.90351041,61.2782136 14.9489004,66.7811136 C20.9943004,72.2839136 28.7042004,75.6103136 36.8554004,76.2324136 C45.0065004,76.8545136 53.1320004,74.7367136 59.9424004,70.2150136 C60.6225004,69.7634136 61.5398004,69.9487136 61.9914004,70.6288136 C62.4429004,71.3089136 62.2576004,72.2262136 61.5775004,72.6777136 C54.2184004,77.5637136 45.4383004,79.8522136 36.6304004,79.1800136 C27.8225004,78.5078136 19.4914004,74.9134136 12.9590004,68.9672136 C6.42653041,63.0209136 2.06694041,55.0635136 0.571971406,46.3574136 C-0.923000594,37.6513136 0.532269406,28.6954136 4.70687041,20.9105836 C8.88147041,13.1257796 15.5363004,6.95805364 23.6153004,3.38611364 C31.6944004,-0.185886357 40.7350004,-0.957586357 49.3025004,1.19361364 C57.8701004,3.34471364 65.4739004,8.29546364 70.9074004,15.2601836 C76.3409004,22.2249036 79.2929004,30.8047136 79.2950004,39.6382136 C79.2950004,44.1725136 78.4804004,48.4612136 76.4878004,51.6660136 C74.4400004,54.9595136 71.1918004,57.0205136 66.6842004,57.0205136 C62.1766004,57.0205136 58.9284004,54.9595136 56.8806004,51.6660136 C56.1257004,50.4519136 55.5399004,49.0822136 55.1034004,47.6026136 C54.3877004,45.1766136 55.5,48.8165136 55.5,46.0000136 C55.5,45.1837136 56,45.5000136 56,43.5000136 C56,42.5000136 57.0295004,38.8222136 57.0295004,39.6385136 C57.0295004,43.8911136 57.8053004,47.5547136 59.3911004,50.1051136 C60.9216004,52.5668136 63.2398004,54.0644136 66.6842004,54.0644136 C70.1286004,54.0644136 72.4467004,52.5668136 73.9773004,50.1051136 C75.5630004,47.5548136 76.3388004,43.8913136 76.3388004,39.6389136 M48.5827004,4.06076364 C56.5114004,6.05151364 63.5483004,10.6330936 68.5766004,17.0785236 L48.5827004,4.06076364 Z M68.5766004,17.0785236 C73.6049004,23.5238536 76.3368004,31.4641136 76.3388004,39.6389136 L68.5766004,17.0785236 Z" id="Shape" fill="url(#linearGradient-2)"></path>
        </g>
    </g>
</svg>