<svg width="108" height="106" viewBox="0 0 108 106" fill="none" xmlns="http://www.w3.org/2000/svg">
<g filter="url(#filter0_d_4587_21855)">
<path fill-rule="evenodd" clip-rule="evenodd" d="M25.2555 -3.43977C33.0964 -9.53188 42.8918 -12.5518 52.802 -11.9322C62.7121 -11.3127 72.0551 -7.09641 79.0763 -0.0752048C83.3287 4.17712 86.5521 9.28109 88.5709 14.8469C88.5537 14.902 88.543 14.96 88.5399 15.0203C88.5264 15.2763 88.6516 15.5076 88.8497 15.6413C89.9994 19.0276 90.7068 22.5755 90.9334 26.1992C91.5529 36.1093 88.533 45.9047 82.4409 53.7457C76.3488 61.5866 67.6036 66.9337 57.8478 68.7826C48.092 70.6315 37.9967 68.8551 29.4581 63.787C29.2916 63.6882 29.0919 63.6623 28.9057 63.7153L14.5907 67.7971L14.5898 67.7974C14.1205 67.9292 13.6246 67.9336 13.1531 67.8104C12.6812 67.687 12.2507 67.4402 11.9058 67.0953C11.5609 66.7505 11.3141 66.3199 11.1907 65.8481C11.0675 65.3766 11.072 64.8808 11.2036 64.4117L11.204 64.4104L15.2858 50.0954C15.3389 49.9093 15.3129 49.7095 15.2142 49.543C10.146 41.0044 8.36958 30.9092 10.2185 21.1533C12.0674 11.3975 17.4145 2.65233 25.2555 -3.43977ZM90.3984 15.8404C91.461 19.1461 92.1187 22.5942 92.3386 26.1113C92.9795 36.3638 89.8553 46.4977 83.5527 54.6095C77.2502 62.7214 68.2028 68.2532 58.11 70.166C55.08 70.7402 52.0184 70.9764 48.9782 70.884C50.989 76.18 54.0864 81.0009 58.0751 85.0343C62.3073 89.3138 67.4371 92.5998 73.0941 94.6549C78.7511 96.71 84.794 97.4829 90.7861 96.9178C96.7783 96.3527 102.57 94.4636 107.743 91.3871L108.103 91.9922L108.296 91.3151L122.611 95.3969L122.612 95.3972C123.081 95.529 123.577 95.5334 124.049 95.4102C124.52 95.2868 124.951 95.04 125.296 94.6951C125.641 94.3503 125.888 93.9197 126.011 93.4479C126.134 92.9763 126.13 92.4804 125.998 92.0112L125.998 92.0102L121.916 77.6952C121.863 77.5087 121.889 77.3085 121.988 77.1419C125.571 71.1281 127.539 64.2909 127.703 57.2928C127.867 50.2946 126.22 43.3729 122.922 37.1983C119.624 31.0236 114.788 25.8055 108.881 22.0496C103.31 18.5076 96.9657 16.3792 90.3984 15.8404ZM47.4487 70.8096C40.991 70.3781 34.671 68.4621 29.0016 65.1521L14.9743 69.1519L14.9718 69.1526C14.2615 69.3523 13.5109 69.3592 12.797 69.1726C12.0832 68.986 11.4319 68.6127 10.9102 68.0909C10.3884 67.5692 10.0151 66.918 9.82851 66.2041C9.64193 65.4903 9.64884 64.7396 9.84854 64.0293L9.84925 64.0268L13.849 49.9995C8.72419 41.2218 6.94122 30.8844 8.83513 20.8912C10.7479 10.7983 16.2797 1.75096 24.3916 -4.55162C32.5035 -10.8542 42.6373 -13.9784 52.8898 -13.3375C63.1423 -12.6966 72.8082 -8.33459 80.0719 -1.07081C84.4775 3.33471 87.8156 8.62383 89.9035 14.3915C96.9151 14.8642 103.7 17.0871 109.636 20.8614C115.748 24.7475 120.752 30.1464 124.164 36.535C127.576 42.9235 129.28 50.0851 129.111 57.3257C128.944 64.4646 126.961 71.4417 123.353 77.5999L127.352 91.6266L127.353 91.6291C127.553 92.3394 127.56 93.0901 127.373 93.8039C127.187 94.5178 126.813 95.169 126.291 95.6908C125.77 96.2125 125.119 96.5858 124.405 96.7724C123.691 96.959 122.94 96.9521 122.23 96.7524L122.227 96.7517L108.2 92.752C102.915 95.8437 97.0169 97.7444 90.9183 98.3196C84.7186 98.9043 78.4664 98.1046 72.6134 95.9783C66.7604 93.852 61.4528 90.4521 57.074 86.0243C52.8034 81.7059 49.5203 76.515 47.4487 70.8096Z" fill="white"/>
</g>
<defs>
<filter id="filter0_d_4587_21855" x="0.897656" y="-20.6197" width="135.423" height="126.325" filterUnits="userSpaceOnUse" color-interpolation-filters="sRGB">
<feFlood flood-opacity="0" result="BackgroundImageFix"/>
<feColorMatrix in="SourceAlpha" type="matrix" values="0 0 0 0 0 0 0 0 0 0 0 0 0 0 0 0 0 0 127 0" result="hardAlpha"/>
<feOffset/>
<feGaussianBlur stdDeviation="3.6"/>
<feComposite in2="hardAlpha" operator="out"/>
<feColorMatrix type="matrix" values="0 0 0 0 1 0 0 0 0 1 0 0 0 0 1 0 0 0 0.3 0"/>
<feBlend mode="normal" in2="BackgroundImageFix" result="effect1_dropShadow_4587_21855"/>
<feBlend mode="normal" in="SourceGraphic" in2="effect1_dropShadow_4587_21855" result="shape"/>
</filter>
</defs>
</svg>
