<svg width="105" height="86" viewBox="0 0 105 86" fill="none" xmlns="http://www.w3.org/2000/svg">
<g filter="url(#filter0_d_4587_21829)">
<path fill-rule="evenodd" clip-rule="evenodd" d="M81.384 -11.1118C81.5017 -11.4355 81.3347 -11.7934 81.011 -11.9111C80.6873 -12.0288 80.3295 -11.8618 80.2118 -11.5381L47.6118 78.1119C47.4941 78.4356 47.661 78.7934 47.9847 78.9111C48.3084 79.0289 48.6663 78.8619 48.784 78.5382L81.384 -11.1118ZM32.377 12.7257C32.5975 12.9903 32.5617 13.3836 32.2971 13.6041L8.42205 33.5L32.2971 53.3959C32.5617 53.6164 32.5975 54.0096 32.377 54.2742C32.1565 54.5388 31.7632 54.5746 31.4986 54.3541L7.04862 33.9791C6.90643 33.8606 6.82422 33.6851 6.82422 33.5C6.82422 33.3149 6.90643 33.1394 7.04862 33.0209L31.4986 12.6459C31.7632 12.4254 32.1565 12.4611 32.377 12.7257ZM96.6172 12.7257C96.8377 12.4611 97.231 12.4254 97.4956 12.6459L121.946 33.0209C122.088 33.1394 122.17 33.3149 122.17 33.5C122.17 33.6851 122.088 33.8606 121.946 33.9791L97.4956 54.3541C97.231 54.5746 96.8377 54.5388 96.6172 54.2742C96.3967 54.0096 96.4324 53.6164 96.6971 53.3959L120.572 33.5L96.6971 13.6041C96.4324 13.3836 96.3967 12.9903 96.6172 12.7257Z" fill="white"/>
</g>
<defs>
<filter id="filter0_d_4587_21829" x="0.445958" y="-18.3271" width="128.104" height="103.654" filterUnits="userSpaceOnUse" color-interpolation-filters="sRGB">
<feFlood flood-opacity="0" result="BackgroundImageFix"/>
<feColorMatrix in="SourceAlpha" type="matrix" values="0 0 0 0 0 0 0 0 0 0 0 0 0 0 0 0 0 0 127 0" result="hardAlpha"/>
<feOffset/>
<feGaussianBlur stdDeviation="3.18913"/>
<feComposite in2="hardAlpha" operator="out"/>
<feColorMatrix type="matrix" values="0 0 0 0 1 0 0 0 0 1 0 0 0 0 1 0 0 0 0.3 0"/>
<feBlend mode="normal" in2="BackgroundImageFix" result="effect1_dropShadow_4587_21829"/>
<feBlend mode="normal" in="SourceGraphic" in2="effect1_dropShadow_4587_21829" result="shape"/>
</filter>
</defs>
</svg>
