<svg width="90" height="93" viewBox="0 0 90 93" fill="none" xmlns="http://www.w3.org/2000/svg">
<g filter="url(#filter0_d_4587_21819)">
<path fill-rule="evenodd" clip-rule="evenodd" d="M51.6767 -20.1736C52.3832 -20.5806 53.1842 -20.7949 53.9997 -20.7949C54.8151 -20.7949 55.6161 -20.5806 56.3226 -20.1736L56.3262 -20.1715L100.869 4.88394L100.872 4.88535C101.552 5.27146 102.126 5.81717 102.547 6.47423C102.588 6.51642 102.624 6.56447 102.655 6.61806C102.681 6.66398 102.701 6.71157 102.716 6.76005C103.097 7.45817 103.3 8.2408 103.304 9.0378L103.304 9.04158V58.9578H102.6L103.304 58.9616C103.299 59.8065 103.072 60.6352 102.645 61.3643C102.218 62.0933 101.607 62.6968 100.872 63.1141L100.869 63.1155L56.3262 88.1709L56.3223 88.1732C55.6159 88.5801 54.8149 88.7943 53.9997 88.7943C53.1844 88.7943 52.3834 88.5801 51.677 88.1732L51.6731 88.1709L7.12997 63.1155L7.12747 63.1141C6.39279 62.6968 5.7811 62.0933 5.35409 61.3643C4.92709 60.6352 4.69986 59.8065 4.69532 58.9616L4.69531 58.9578V9.04158L4.69532 9.0378C4.69959 8.24275 4.90106 7.46198 5.28064 6.76515C5.2951 6.71669 5.31504 6.66905 5.34069 6.62304C5.37254 6.5659 5.41116 6.51492 5.455 6.47055C5.87513 5.81513 6.44882 5.27074 7.12747 4.88535L7.12997 4.88394L51.6731 -20.1715L51.6767 -20.1736ZM100.177 6.11089C100.48 6.28322 100.754 6.50047 100.989 6.75406L54.4514 33.1915L7.0143 6.74955C7.24853 6.49791 7.52061 6.28224 7.82199 6.11094L7.8231 6.11031L52.3706 -18.9476L52.3706 -18.9476L52.3775 -18.9516C52.8707 -19.2363 53.4301 -19.3862 53.9997 -19.3862C54.5692 -19.3862 55.1286 -19.2363 55.6219 -18.9516L55.6218 -18.9515L55.6287 -18.9476L100.176 6.11031L100.177 6.11089ZM6.10401 9.04356C6.1062 8.67256 6.16914 8.30598 6.28895 7.95799L53.7474 34.4119L53.3017 87.3097C52.9784 87.2384 52.6665 87.1179 52.3775 86.9509L52.3706 86.9471L7.8231 61.8891L7.82232 61.8887C7.30337 61.5938 6.8713 61.1673 6.56963 60.6523C6.26812 60.1375 6.10753 59.5524 6.10401 58.9558V9.04356ZM54.7104 87.3068C55.0292 87.2353 55.3366 87.1157 55.6219 86.951L55.6287 86.9471L100.176 61.8891L100.177 61.8887C100.696 61.5938 101.128 61.1674 101.43 60.6523C101.731 60.1378 101.892 59.553 101.895 58.9567V9.04272C101.893 8.67394 101.831 8.30955 101.712 7.96345L55.1562 34.4113L54.7104 87.3068Z" fill="white"/>
</g>
<defs>
<filter id="filter0_d_4587_21819" x="0.695312" y="-24.7949" width="106.609" height="117.589" filterUnits="userSpaceOnUse" color-interpolation-filters="sRGB">
<feFlood flood-opacity="0" result="BackgroundImageFix"/>
<feColorMatrix in="SourceAlpha" type="matrix" values="0 0 0 0 0 0 0 0 0 0 0 0 0 0 0 0 0 0 127 0" result="hardAlpha"/>
<feOffset/>
<feGaussianBlur stdDeviation="2"/>
<feComposite in2="hardAlpha" operator="out"/>
<feColorMatrix type="matrix" values="0 0 0 0 1 0 0 0 0 1 0 0 0 0 1 0 0 0 0.3 0"/>
<feBlend mode="normal" in2="BackgroundImageFix" result="effect1_dropShadow_4587_21819"/>
<feBlend mode="normal" in="SourceGraphic" in2="effect1_dropShadow_4587_21819" result="shape"/>
</filter>
</defs>
</svg>
