<svg width="86" height="80" viewBox="0 0 86 80" fill="none" xmlns="http://www.w3.org/2000/svg">
<g filter="url(#filter0_d_4587_21804)">
<path fill-rule="evenodd" clip-rule="evenodd" d="M83.4352 -6C90.3103 -6 96.9037 -3.26889 101.765 1.59253C105.621 5.44882 108.137 10.395 109.013 15.7071L116.92 56.4019L116.922 56.4115L116.922 56.4115C117.459 59.4046 117.025 62.4909 115.685 65.2204C114.344 67.9498 112.167 70.1797 109.47 71.5849C106.774 72.9902 103.699 73.4972 100.694 73.0322C97.6886 72.5672 94.9107 71.1544 92.7649 68.9998L93.2436 68.5231L92.7415 68.975L71.9722 45.8979L52.1779 45.9893L31.4035 68.9759L30.9024 68.523L31.381 68.9996C29.2352 71.1542 26.4573 72.567 23.4523 73.0321C20.4472 73.4971 17.3722 72.9901 14.6756 71.5848C11.9789 70.1796 9.80166 67.9497 8.46124 65.2202C7.12083 62.4908 6.68735 59.4045 7.22401 56.4114L7.22582 56.4013L7.22589 56.4014L15.1873 15.5748C16.2524 9.57792 19.3914 4.14612 24.0555 0.228971C28.7211 -3.68943 34.6158 -5.84275 40.7085 -5.85434L83.4329 -6L83.4352 -5.3245V-6ZM72.3283 44.5452C72.2868 44.5416 72.2451 44.5418 72.2036 44.5458L51.8736 44.6397C51.6836 44.6405 51.5029 44.7213 51.3755 44.8622L30.4123 68.0578C28.4713 70.0019 25.9609 71.2768 23.2457 71.697C20.5251 72.118 17.7412 71.6589 15.2999 70.3867C12.8585 69.1145 10.8874 67.0958 9.67391 64.6247C8.46114 62.1552 8.06844 59.363 8.55292 56.6548L16.5144 15.8278L15.8514 15.6985L16.5165 15.8165C17.5253 10.1294 20.5015 4.97808 24.9243 1.26352C29.3472 -2.45104 34.9353 -4.49235 40.7111 -4.50334L40.7121 -4.50334L83.4352 -4.64899H83.4364C89.9527 -4.64869 96.202 -2.05995 100.81 2.54783C104.38 6.1184 106.739 10.6747 107.619 15.5771C107.621 15.6117 107.625 15.6467 107.631 15.6818L107.683 15.9454C107.897 17.2518 108.007 18.5815 108.007 19.9225C108.007 26.4393 105.418 32.6891 100.81 37.2972C96.2018 41.9052 89.952 44.494 83.4352 44.494L83.4321 44.494L72.3283 44.5452ZM73.7823 45.8896L93.7341 68.0584C95.6751 70.0022 98.1853 71.2769 100.9 71.6971C103.621 72.1181 106.405 71.659 108.846 70.3868C111.287 69.1147 113.259 67.0959 114.472 64.6248C115.685 62.1552 116.078 59.3629 115.593 56.6547L109.127 23.3762C108.374 28.9762 105.805 34.2124 101.765 38.2525C96.9041 43.1135 90.3112 45.8446 83.4367 45.845H83.4352L73.7823 45.8896ZM43.3276 12.3003C43.3276 11.9272 43.0251 11.6248 42.6521 11.6248C42.279 11.6248 41.9766 11.9272 41.9766 12.3003V19.3931H34.8864C34.5134 19.3931 34.2109 19.6955 34.2109 20.0686C34.2109 20.4416 34.5134 20.7441 34.8864 20.7441H41.9766V27.8369C41.9766 28.2099 42.279 28.5124 42.6521 28.5124C43.0251 28.5124 43.3276 28.2099 43.3276 27.8369V20.7441H50.423C50.796 20.7441 51.0985 20.4416 51.0985 20.0686C51.0985 19.6955 50.796 19.3931 50.423 19.3931H43.3276V12.3003ZM73.0508 20.0686C73.0508 19.6955 73.3532 19.3931 73.7263 19.3931H89.2628C89.6359 19.3931 89.9383 19.6955 89.9383 20.0686C89.9383 20.4416 89.6359 20.7441 89.2628 20.7441H73.7263C73.3532 20.7441 73.0508 20.4416 73.0508 20.0686Z" fill="white"/>
</g>
<defs>
<filter id="filter0_d_4587_21804" x="0.920475" y="-12.0795" width="122.304" height="91.3591" filterUnits="userSpaceOnUse" color-interpolation-filters="sRGB">
<feFlood flood-opacity="0" result="BackgroundImageFix"/>
<feColorMatrix in="SourceAlpha" type="matrix" values="0 0 0 0 0 0 0 0 0 0 0 0 0 0 0 0 0 0 127 0" result="hardAlpha"/>
<feOffset/>
<feGaussianBlur stdDeviation="3.03976"/>
<feComposite in2="hardAlpha" operator="out"/>
<feColorMatrix type="matrix" values="0 0 0 0 1 0 0 0 0 1 0 0 0 0 1 0 0 0 0.3 0"/>
<feBlend mode="normal" in2="BackgroundImageFix" result="effect1_dropShadow_4587_21804"/>
<feBlend mode="normal" in="SourceGraphic" in2="effect1_dropShadow_4587_21804" result="shape"/>
</filter>
</defs>
</svg>
