<svg width="86" height="80" viewBox="0 0 86 80" fill="none" xmlns="http://www.w3.org/2000/svg">
<g opacity="0.4" filter="url(#filter0_d_4587_21804)">
<path fill-rule="evenodd" clip-rule="evenodd" d="M83.4352 -6C90.3103 -6 96.9037 -3.26889 101.765 1.59253C105.613 5.44086 108.127 10.3746 109.007 15.6742L116.921 56.4019L116.923 56.4116L116.923 56.4116C117.46 59.4047 117.026 62.4909 115.686 65.2204C114.345 67.9498 112.168 70.1797 109.471 71.585C106.775 72.9902 103.7 73.4973 100.695 73.0322C97.6896 72.5672 94.9116 71.1544 92.7659 68.9998L93.2445 68.5231L92.7424 68.975L71.9731 45.8979L52.1779 45.9893L31.4035 68.9759L30.9024 68.523L31.381 68.9996C29.2352 71.1542 26.4573 72.567 23.4523 73.0321C20.4472 73.4971 17.3722 72.9901 14.6756 71.5848C11.9789 70.1796 9.80166 67.9497 8.46124 65.2202C7.12083 62.4908 6.68735 59.4045 7.22401 56.4114L7.22582 56.4013L7.22589 56.4014L15.1873 15.5748C16.2524 9.57792 19.3914 4.14612 24.0555 0.228971C28.7211 -3.68943 34.6158 -5.84275 40.7085 -5.85434L83.4329 -6L83.4352 -5.3245V-6ZM72.3289 44.5452C72.2877 44.5417 72.2461 44.5418 72.2048 44.5458L51.8736 44.6397C51.6836 44.6405 51.5029 44.7213 51.3755 44.8622L30.4123 68.0578C28.4713 70.0019 25.9609 71.2768 23.2457 71.697C20.5251 72.118 17.7412 71.6589 15.2999 70.3867C12.8585 69.1145 10.8874 67.0958 9.67391 64.6247C8.46114 62.1552 8.06844 59.363 8.55292 56.6548L16.5144 15.8278L15.8514 15.6985L16.5165 15.8165C17.5253 10.1294 20.5015 4.97808 24.9243 1.26352C29.3472 -2.45104 34.9353 -4.49235 40.7111 -4.50334L40.7121 -4.50334L83.4352 -4.64899H83.4364C89.9527 -4.64869 96.202 -2.05995 100.81 2.54783C104.382 6.12008 106.741 10.679 107.621 15.584C107.622 15.6164 107.626 15.6491 107.632 15.6818L107.677 15.9134C107.895 17.2301 108.007 18.5705 108.007 19.9225C108.007 26.4393 105.418 32.6891 100.81 37.2972C96.2018 41.9052 89.9519 44.494 83.4352 44.494L83.4321 44.494L72.3289 44.5452ZM73.7832 45.8895L93.735 68.0584C95.676 70.0023 98.1862 71.277 100.901 71.6971C103.622 72.1181 106.406 71.6591 108.847 70.3869C111.288 69.1147 113.259 67.0959 114.473 64.6249C115.686 62.1552 116.078 59.363 115.594 56.6547L109.127 23.3733C108.375 28.9744 105.806 34.2118 101.765 38.2525C96.9041 43.1135 90.3112 45.8446 83.4367 45.845H83.4352L73.7832 45.8895ZM43.3289 12.3003C43.3289 11.9272 43.0265 11.6248 42.6534 11.6248C42.2803 11.6248 41.9779 11.9272 41.9779 12.3003V19.3931H34.8851C34.512 19.3931 34.2096 19.6956 34.2096 20.0686C34.2096 20.4417 34.512 20.7441 34.8851 20.7441H41.9779V27.8369C41.9779 28.21 42.2803 28.5124 42.6534 28.5124C43.0265 28.5124 43.3289 28.21 43.3289 27.8369V20.7441H50.4216C50.7947 20.7441 51.0971 20.4417 51.0971 20.0686C51.0971 19.6956 50.7947 19.3931 50.4216 19.3931H43.3289V12.3003ZM73.051 20.0686C73.051 19.6956 73.3534 19.3931 73.7265 19.3931H89.263C89.6361 19.3931 89.9385 19.6956 89.9385 20.0686C89.9385 20.4417 89.6361 20.7441 89.263 20.7441H73.7265C73.3534 20.7441 73.051 20.4417 73.051 20.0686Z" fill="white"/>
</g>
<defs>
<filter id="filter0_d_4587_21804" x="0.920475" y="-12.0795" width="122.307" height="91.3591" filterUnits="userSpaceOnUse" color-interpolation-filters="sRGB">
<feFlood flood-opacity="0" result="BackgroundImageFix"/>
<feColorMatrix in="SourceAlpha" type="matrix" values="0 0 0 0 0 0 0 0 0 0 0 0 0 0 0 0 0 0 127 0" result="hardAlpha"/>
<feOffset/>
<feGaussianBlur stdDeviation="3.03976"/>
<feComposite in2="hardAlpha" operator="out"/>
<feColorMatrix type="matrix" values="0 0 0 0 1 0 0 0 0 1 0 0 0 0 1 0 0 0 0.3 0"/>
<feBlend mode="normal" in2="BackgroundImageFix" result="effect1_dropShadow_4587_21804"/>
<feBlend mode="normal" in="SourceGraphic" in2="effect1_dropShadow_4587_21804" result="shape"/>
</filter>
</defs>
</svg>
