<svg width="78" height="75" viewBox="0 0 78 75" fill="none" xmlns="http://www.w3.org/2000/svg">
<g filter="url(#filter0_d_4672_18657)">
<path fill-rule="evenodd" clip-rule="evenodd" d="M31.4009 4.81252C31.4009 11.5623 26.0862 17.0709 19.4133 17.3818V43.6182C26.0862 43.9292 31.4009 49.4377 31.4009 56.1875C31.4009 63.137 25.7671 68.7707 18.8176 68.7707C11.8681 68.7707 6.23438 63.137 6.23438 56.1875C6.23438 49.4377 11.549 43.9292 18.222 43.6182V17.3818C11.549 17.0709 6.23438 11.5623 6.23438 4.81252C6.23438 -2.13696 11.8681 -7.77063 18.8176 -7.77063C25.7671 -7.77063 31.4009 -2.13696 31.4009 4.81252ZM7.42569 4.81252C7.42569 -1.47902 12.526 -6.57933 18.8176 -6.57933C25.1092 -6.57933 30.2095 -1.47902 30.2095 4.81252C30.2095 11.1041 25.1092 16.2044 18.8176 16.2044C12.526 16.2044 7.42569 11.1041 7.42569 4.81252ZM7.42569 56.1875C7.42569 49.896 12.526 44.7957 18.8176 44.7957C25.1092 44.7957 30.2095 49.896 30.2095 56.1875C30.2095 62.4791 25.1092 67.5794 18.8176 67.5794C12.526 67.5794 7.42569 62.4791 7.42569 56.1875Z" fill="white"/>
<path fill-rule="evenodd" clip-rule="evenodd" d="M47.7042 -4.30044C47.6345 -4.27158 47.5691 -4.22891 47.5123 -4.17243L47.511 -4.17117L47.5098 -4.1699C47.4027 -4.06221 47.3366 -3.91382 47.3366 -3.74998V13.375C47.3366 13.704 47.6033 13.9707 47.9322 13.9707C48.2612 13.9707 48.5279 13.704 48.5279 13.375V-2.31195L63.7369 12.8969C67.4841 16.6479 69.5921 21.731 69.5992 27.033V43.6181C62.9248 43.9275 57.6085 49.4366 57.6085 56.1875C57.6085 63.137 63.2422 68.7707 70.1918 68.7707C77.1413 68.7707 82.775 63.137 82.775 56.1875C82.775 49.4388 77.462 43.9309 70.7905 43.6184V27.0314C70.7829 21.4142 68.5496 16.029 64.5797 12.055L49.3703 -3.15433H65.0573C65.3863 -3.15433 65.653 -3.42101 65.653 -3.74998C65.653 -4.07895 65.3863 -4.34563 65.0573 -4.34563H47.9322C47.8515 -4.34563 47.7744 -4.32956 47.7042 -4.30044ZM70.1918 44.7957C63.9002 44.7957 58.7998 49.896 58.7998 56.1875C58.7998 62.4791 63.9002 67.5794 70.1918 67.5794C76.4833 67.5794 81.5837 62.4791 81.5837 56.1875C81.5837 49.896 76.4833 44.7957 70.1918 44.7957Z" fill="white"/>
</g>
<defs>
<filter id="filter0_d_4672_18657" x="0.873487" y="-13.1315" width="87.2608" height="87.2631" filterUnits="userSpaceOnUse" color-interpolation-filters="sRGB">
<feFlood flood-opacity="0" result="BackgroundImageFix"/>
<feColorMatrix in="SourceAlpha" type="matrix" values="0 0 0 0 0 0 0 0 0 0 0 0 0 0 0 0 0 0 127 0" result="hardAlpha"/>
<feOffset/>
<feGaussianBlur stdDeviation="2.68044"/>
<feComposite in2="hardAlpha" operator="out"/>
<feColorMatrix type="matrix" values="0 0 0 0 1 0 0 0 0 1 0 0 0 0 1 0 0 0 0.3 0"/>
<feBlend mode="normal" in2="BackgroundImageFix" result="effect1_dropShadow_4672_18657"/>
<feBlend mode="normal" in="SourceGraphic" in2="effect1_dropShadow_4672_18657" result="shape"/>
</filter>
</defs>
</svg>
