<svg width="76" height="81" viewBox="0 0 76 81" fill="none" xmlns="http://www.w3.org/2000/svg">
<g filter="url(#filter0_d_4587_21841)">
<path fill-rule="evenodd" clip-rule="evenodd" d="M50.5285 -8.45118C50.4451 -8.41682 50.3669 -8.36574 50.2991 -8.29795C50.2311 -8.22991 50.1799 -8.15142 50.1455 -8.06764C50.1191 -8.0033 50.1027 -7.93585 50.0961 -7.86762C50.094 -7.84519 50.0929 -7.82266 50.0929 -7.80014M52.4966 -7.09614H69.7972C70.1861 -7.09614 70.5012 -7.41133 70.5012 -7.80014C70.5012 -8.18896 70.1861 -8.50415 69.7972 -8.50415H50.7969C50.7019 -8.50415 50.6112 -8.48532 50.5285 -8.45118M51.5009 -6.10054L57.8993 0.297667C67.1998 9.59803 68.0911 19.7519 64.866 28.0447C61.6178 36.3971 54.1891 42.8762 46.8261 44.7169C46.4489 44.8112 46.2196 45.1934 46.3139 45.5706C46.4082 45.9478 46.7904 46.1771 47.1676 46.0828C55.0049 44.1236 62.7764 37.3026 66.1783 28.555C69.6034 19.7478 68.5947 9.00168 58.8949 -0.697955L52.4966 -7.09614M50.0929 -7.7983V11.1999C50.0929 11.5887 50.4081 11.9039 50.7969 11.9039C51.1857 11.9039 51.5009 11.5887 51.5009 11.1999V-6.10054M4.69838 6.90205C4.97331 6.62712 5.41906 6.62711 5.694 6.90204L14.6963 15.9042L23.6987 6.90204C23.9736 6.62711 24.4194 6.62712 24.6943 6.90205C24.9692 7.17698 24.9692 7.62274 24.6943 7.89767L15.692 16.8999L24.6943 25.902C24.9692 26.177 24.9692 26.6227 24.6943 26.8977C24.4194 27.1726 23.9736 27.1726 23.6987 26.8977L14.6963 17.8955L5.694 26.8977C5.41906 27.1726 4.97331 27.1726 4.69838 26.8977C4.42345 26.6227 4.42346 26.177 4.69839 25.902L13.7007 16.8999L4.69839 7.89767C4.42346 7.62274 4.42345 7.17698 4.69838 6.90205ZM18.4964 49.9039C11.5397 49.9039 5.9002 55.5433 5.9002 62.4999C5.9002 69.4564 11.5397 75.0959 18.4964 75.0959C25.4531 75.0959 31.0926 69.4564 31.0926 62.4999C31.0926 55.5433 25.4531 49.9039 18.4964 49.9039ZM4.49219 62.4999C4.49219 54.7656 10.7621 48.4958 18.4964 48.4958C26.2307 48.4958 32.5006 54.7656 32.5006 62.4999C32.5006 70.2341 26.2307 76.5039 18.4964 76.5039C10.7621 76.5039 4.49219 70.2341 4.49219 62.4999ZM69.2994 52.5021C69.5744 52.2271 70.0201 52.2271 70.295 52.502L79.2974 61.5043L88.2997 52.502C88.5747 52.2271 89.0204 52.2271 89.2954 52.5021C89.5703 52.777 89.5703 53.2227 89.2953 53.4977L80.293 62.4999L89.2953 71.5021C89.5703 71.777 89.5703 72.2227 89.2954 72.4977C89.0204 72.7726 88.5747 72.7726 88.2997 72.4977L79.2974 63.4955L70.295 72.4977C70.0201 72.7726 69.5744 72.7726 69.2994 72.4977C69.0245 72.2227 69.0245 71.777 69.2994 71.5021L78.3018 62.4999L69.2994 53.4977C69.0245 53.2227 69.0245 52.777 69.2994 52.5021Z" fill="white"/>
</g>
<defs>
<filter id="filter0_d_4587_21841" x="0.492155" y="-12.5042" width="93.0079" height="93.0081" filterUnits="userSpaceOnUse" color-interpolation-filters="sRGB">
<feFlood flood-opacity="0" result="BackgroundImageFix"/>
<feColorMatrix in="SourceAlpha" type="matrix" values="0 0 0 0 0 0 0 0 0 0 0 0 0 0 0 0 0 0 127 0" result="hardAlpha"/>
<feOffset/>
<feGaussianBlur stdDeviation="2.00002"/>
<feComposite in2="hardAlpha" operator="out"/>
<feColorMatrix type="matrix" values="0 0 0 0 1 0 0 0 0 1 0 0 0 0 1 0 0 0 0.3 0"/>
<feBlend mode="normal" in2="BackgroundImageFix" result="effect1_dropShadow_4587_21841"/>
<feBlend mode="normal" in="SourceGraphic" in2="effect1_dropShadow_4587_21841" result="shape"/>
</filter>
</defs>
</svg>
