<svg width="76" height="78" viewBox="0 0 76 78" fill="none" xmlns="http://www.w3.org/2000/svg">
<path fill-rule="evenodd" clip-rule="evenodd" d="M40.8449 -10.5627C40.0929 -10.5627 39.3541 -10.3653 38.7023 -9.99044L20.717 0.126294C20.5674 0.173623 20.4273 0.251472 20.3069 0.35699L3.1821 9.98967L3.17802 9.99198C2.57565 10.334 2.0632 10.8124 1.68089 11.3872C1.62251 11.4513 1.57053 11.5231 1.52649 11.6021C1.4923 11.6635 1.46434 11.7266 1.44239 11.7907C1.11757 12.4135 0.94541 13.1058 0.941626 13.8102L0.94161 13.8164V33.2519C0.941338 33.2663 0.941339 33.2807 0.94161 33.2951V53.6209L0.941626 53.6271C0.945799 54.404 1.15474 55.166 1.54738 55.8364C1.94002 56.5067 2.50247 57.0617 3.17802 57.4453L3.1821 57.4476L20.8414 67.381C20.883 67.408 20.9263 67.4325 20.9714 67.4541L38.6963 77.4243L38.7027 77.428C39.3543 77.8027 40.093 78 40.8449 78C41.5967 78 42.3354 77.8027 42.9871 77.428L42.9934 77.4243L60.7183 67.4541C60.7634 67.4325 60.8068 67.408 60.8483 67.381L78.5076 57.4476L78.5117 57.4453C79.1872 57.0617 79.7497 56.5067 80.1423 55.8364C80.535 55.166 80.7439 54.404 80.7481 53.6271L79.5998 53.6209H80.7481L80.7481 33.2947C80.7484 33.2806 80.7484 33.2665 80.7481 33.2524L80.7481 13.8164L80.7481 13.8102C80.7442 13.0844 80.5616 12.3716 80.2174 11.7344C80.1983 11.6867 80.1757 11.6399 80.1497 11.594C80.1163 11.5353 80.0786 11.4806 80.037 11.4302C79.6519 10.8362 79.129 10.3425 78.5117 9.99197L61.383 0.357112C61.2624 0.251489 61.1222 0.173578 60.9725 0.126237L42.9934 -9.98698L42.9874 -9.99043C42.3356 -10.3653 41.5969 -10.5627 40.8449 -10.5627ZM22.6157 65.744L39.7089 75.359L40.0542 34.3925L3.2382 13.8709V32.603L22.0303 43.1736C22.3919 43.377 22.6157 43.7596 22.6157 44.1744V65.744ZM3.2382 35.238V53.6175C3.24068 53.9896 3.34098 54.3546 3.52907 54.6757C3.71728 54.997 3.98677 55.2632 4.31041 55.4473L4.31211 55.4483L20.3191 64.4522V44.846L3.2382 35.238ZM77.3776 55.4483L61.3706 64.4522V44.846L78.4515 35.238V53.6177C78.449 53.9897 78.3487 54.3546 78.1606 54.6757C77.9725 54.9969 77.7031 55.263 77.3797 55.4471L77.3776 55.4483ZM59.6594 43.1736L78.4515 32.603V13.8794L42.3509 34.3876L42.0057 75.345L59.074 65.744V44.1744C59.074 43.7596 59.2978 43.377 59.6594 43.1736ZM58.2604 1.23558L41.8451 -7.99801C41.541 -8.17359 41.196 -8.26609 40.8449 -8.26609C40.4937 -8.26609 40.1487 -8.17366 39.8446 -7.99807L39.8334 -7.99164L23.4293 1.23558L40.8449 11.0451L58.2604 1.23558ZM21.088 2.5526L4.44497 11.9143L41.1983 32.401L77.253 11.9189L60.6017 2.5526L41.4084 13.3636C41.0585 13.5606 40.6312 13.5606 40.2813 13.3636L21.088 2.5526Z" fill="url(#paint0_linear_4959_19675)"/>
<defs>
<linearGradient id="paint0_linear_4959_19675" x1="10.1673" y1="76.6511" x2="82.9724" y2="-7.36598" gradientUnits="userSpaceOnUse">
<stop stop-color="#D8869E"/>
<stop offset="1" stop-color="white" stop-opacity="0"/>
</linearGradient>
</defs>
</svg>
