<svg width="69" height="66" viewBox="0 0 69 66" fill="none" xmlns="http://www.w3.org/2000/svg">
<path fill-rule="evenodd" clip-rule="evenodd" d="M39.6476 11.2127C31.6804 11.2127 25.2218 17.6714 25.2218 25.6386C25.2218 33.6057 31.6804 40.0644 39.6476 40.0644C47.6148 40.0644 54.0735 33.6057 54.0735 25.6386C54.0735 17.6714 47.6148 11.2127 39.6476 11.2127ZM22.2656 25.6386C22.2656 16.0387 30.0478 8.25656 39.6476 8.25656C49.2474 8.25656 57.0296 16.0387 57.0296 25.6386C57.0296 35.2384 49.2474 43.0205 39.6476 43.0205C30.0478 43.0205 22.2656 35.2384 22.2656 25.6386Z" fill="url(#paint0_linear_4959_19591)"/>
<path fill-rule="evenodd" clip-rule="evenodd" d="M48.5827 -9.93925C40.6539 -11.93 32.2874 -11.2159 24.8107 -7.91025C17.334 -4.6046 11.1754 1.10325 7.31207 8.30761C3.44874 15.512 2.10197 23.8002 3.48548 31.8571C4.86898 39.914 8.90351 47.2782 14.9489 52.7811C20.9943 58.2839 28.7042 61.6103 36.8554 62.2324C45.0065 62.8545 53.132 60.7367 59.9424 56.215C60.6225 55.7634 61.5398 55.9487 61.9914 56.6288C62.4429 57.3089 62.2576 58.2262 61.5775 58.6777C54.2184 63.5637 45.4383 65.8522 36.6304 65.18C27.8225 64.5078 19.4914 60.9134 12.959 54.9672C6.42653 49.0209 2.06694 41.0635 0.571971 32.3574C-0.923001 23.6513 0.532269 14.6954 4.70687 6.91057C8.88147 -0.874234 15.5363 -7.04196 23.6153 -10.6139C31.6944 -14.1859 40.735 -14.9576 49.3025 -12.8064C57.8701 -10.6553 65.4739 -5.70455 70.9074 1.26017C76.3409 8.22489 79.2929 16.8047 79.295 25.6382C79.295 30.1725 78.4804 34.4612 76.4878 37.666C74.44 40.9595 71.1918 43.0205 66.6842 43.0205C62.1766 43.0205 58.9284 40.9595 56.8806 37.666C56.1257 36.4519 55.5399 35.0822 55.1034 33.6026C54.3877 31.1766 55.5 34.8165 55.5 32C55.5 31.1837 56 31.5 56 29.5C56 28.5 57.0295 24.8222 57.0295 25.6385C57.0295 29.8911 57.8053 33.5547 59.3911 36.1051C60.9216 38.5668 63.2398 40.0644 66.6842 40.0644C70.1286 40.0644 72.4467 38.5668 73.9773 36.1051C75.563 33.5548 76.3388 29.8913 76.3388 25.6389M48.5827 -9.93925C56.5114 -7.9485 63.5483 -3.36692 68.5766 3.07851L48.5827 -9.93925ZM68.5766 3.07851C73.6049 9.52384 76.3368 17.4641 76.3388 25.6389L68.5766 3.07851Z" fill="url(#paint1_linear_4959_19591)"/>
<defs>
<linearGradient id="paint0_linear_4959_19591" x1="22.1704" y1="59.9037" x2="63.4105" y2="-9.95467" gradientUnits="userSpaceOnUse">
<stop stop-color="#D8869E"/>
<stop offset="1" stop-color="white" stop-opacity="0"/>
</linearGradient>
<linearGradient id="paint1_linear_4959_19591" x1="25.4968" y1="57.3171" x2="55.4278" y2="8.54063" gradientUnits="userSpaceOnUse">
<stop stop-color="#D8869E"/>
<stop offset="1" stop-color="white" stop-opacity="0"/>
</linearGradient>
</defs>
</svg>
