<svg width="1385" height="518" viewBox="0 0 1385 518" fill="none" xmlns="http://www.w3.org/2000/svg">
<path d="M625.965 0C653.042 0 674.993 21.9505 674.993 49.0278V84.5729C674.993 95.4038 683.773 104.184 694.604 104.184C705.435 104.184 714.215 95.4038 714.215 84.5729V49.0277C714.215 21.9504 736.165 0 763.243 0H1022.99C1050.07 0 1072.02 21.9505 1072.02 49.0278V171.597C1072.02 198.674 1093.97 220.625 1121.05 220.625H1335.65C1362.72 220.625 1384.67 242.575 1384.67 269.653V468.972C1384.67 496.049 1362.72 518 1335.65 518H1065.06C1037.98 518 1016.03 496.05 1016.03 468.972V346.403C1016.03 319.326 994.079 297.375 967.001 297.375H763.243C736.165 297.375 714.215 275.425 714.215 248.347V163.017C714.215 152.186 705.435 143.406 694.604 143.406C683.773 143.406 674.993 152.186 674.993 163.017V248.347C674.993 275.425 653.042 297.375 625.965 297.375H416.489C389.412 297.375 367.461 319.326 367.461 346.403V468.972C367.461 496.05 345.511 518 318.433 518H49.0278C21.9505 518 0 496.05 0 468.972V269.653C0 242.575 21.9505 220.625 49.0278 220.625H268.357C295.434 220.625 317.384 198.674 317.384 171.597V49.0277C317.384 21.9505 339.335 0 366.412 0H625.965Z" fill="#F4F4F4"/>
</svg>
