<svg width="1131" height="478" viewBox="0 0 1131 478" fill="none" xmlns="http://www.w3.org/2000/svg">
<path fill-rule="evenodd" clip-rule="evenodd" d="M387 40C387 17.9086 404.909 0 427 0H704C726.091 0 744 17.9086 744 40V226C744 234.284 750.716 241 759 241C767.284 241 774 234.284 774 226V171C774 148.909 791.909 131 814 131H1091C1113.09 131 1131 148.909 1131 171V438C1131 460.091 1113.09 478 1091 478H814C791.909 478 774 460.091 774 438V296C774 287.716 767.284 281 759 281C750.716 281 744 287.716 744 296V314C744 332.225 729.225 347 711 347H427C404.909 347 387 329.091 387 307V241C387 232.716 380.284 226 372 226C363.716 226 357 232.716 357 241V418C357 440.091 339.091 458 317 458H40C17.9086 458 0 440.091 0 418V151C0 128.909 17.9086 111 40 111H319.5C340.211 111 357 127.789 357 148.5V171C357 179.284 363.716 186 372 186C380.284 186 387 179.284 387 171V40Z" fill="#F4F4F4"/>
</svg>
