<svg width="317" height="44" viewBox="0 0 317 44" fill="none" xmlns="http://www.w3.org/2000/svg">
<path d="M70.326 19.75H82.714V34H78.116V30.96C77.4827 32.0493 76.4947 32.9487 75.152 33.658C73.8093 34.342 72.2007 34.684 70.326 34.684C66.7033 34.684 63.752 33.392 61.472 30.808C59.2173 28.1987 58.09 24.9053 58.09 20.928C58.0393 16.9507 59.1793 13.594 61.51 10.858C63.8407 8.09666 67.0453 6.74133 71.124 6.792C74.316 6.792 76.9633 7.628 79.066 9.3C81.1687 10.9213 82.3847 13.2393 82.714 16.254H77.66C77.508 14.81 76.8113 13.6447 75.57 12.758C74.3287 11.8713 72.796 11.428 70.972 11.428C68.388 11.428 66.412 12.3147 65.044 14.088C63.7013 15.8613 63.03 18.0907 63.03 20.776C63.03 23.5373 63.7393 25.7793 65.158 27.502C66.5513 29.1993 68.5273 30.048 71.086 30.048C73.0113 30.048 74.582 29.5667 75.798 28.604C77.014 27.616 77.736 26.1973 77.964 24.348H70.326V19.75ZM98.0453 14.202V18.8H96.7913C93.3966 18.8 91.6993 20.6747 91.6993 24.424V34H86.9873V14.43H91.6613V17.318C92.5986 15.2407 94.2959 14.202 96.7533 14.202H98.0453ZM115.415 20.434V34H110.817V31.15C109.499 33.3287 107.447 34.418 104.661 34.418C102.938 34.418 101.443 33.9367 100.177 32.974C98.9606 31.986 98.3526 30.5293 98.3526 28.604C98.3526 25.2093 100.43 23.208 104.585 22.6L108.537 22.03C110.057 21.802 110.817 21.118 110.817 19.978C110.817 19.3193 110.513 18.8253 109.905 18.496C109.322 18.1413 108.549 17.964 107.587 17.964C106.345 17.964 105.395 18.2047 104.737 18.686C104.103 19.1673 103.66 19.8893 103.407 20.852H98.9226C99.3026 18.648 100.278 16.976 101.849 15.836C103.445 14.6707 105.497 14.088 108.005 14.088C110.361 14.088 112.185 14.62 113.477 15.684C114.769 16.7227 115.415 18.306 115.415 20.434ZM110.703 25.792V24.728C110.247 24.9053 109.411 25.0953 108.195 25.298L106.219 25.602C104.116 25.8807 103.065 26.7547 103.065 28.224C103.065 29.744 104.002 30.504 105.877 30.504C107.321 30.504 108.473 30.048 109.335 29.136C110.247 28.224 110.703 27.1093 110.703 25.792ZM138.849 23.968C138.849 27.2107 137.975 29.7187 136.227 31.492C134.479 33.2653 132.313 34.152 129.729 34.152C127.221 34.152 125.321 33.316 124.029 31.644V41.296H119.317V14.43H123.915V17.546C124.397 16.482 125.195 15.646 126.309 15.038C127.449 14.4047 128.741 14.088 130.185 14.088C132.693 14.088 134.758 14.962 136.379 16.71C138.026 18.4327 138.849 20.852 138.849 23.968ZM134.061 24.196C134.061 22.3467 133.593 20.9153 132.655 19.902C131.743 18.8887 130.54 18.382 129.045 18.382C127.551 18.382 126.309 18.9013 125.321 19.94C124.359 20.9533 123.877 22.372 123.877 24.196C123.877 26.02 124.359 27.4387 125.321 28.452C126.309 29.4653 127.551 29.972 129.045 29.972C130.54 29.972 131.743 29.4653 132.655 28.452C133.593 27.4387 134.061 26.02 134.061 24.196ZM161.119 23.968C161.119 27.2107 160.245 29.7187 158.497 31.492C156.749 33.2653 154.583 34.152 151.999 34.152C149.491 34.152 147.591 33.316 146.299 31.644V41.296H141.587V14.43H146.185V17.546C146.666 16.482 147.464 15.646 148.579 15.038C149.719 14.4047 151.011 14.088 152.455 14.088C154.963 14.088 157.028 14.962 158.649 16.71C160.296 18.4327 161.119 20.852 161.119 23.968ZM156.331 24.196C156.331 22.3467 155.862 20.9153 154.925 19.902C154.013 18.8887 152.81 18.382 151.315 18.382C149.82 18.382 148.579 18.9013 147.591 19.94C146.628 20.9533 146.147 22.372 146.147 24.196C146.147 26.02 146.628 27.4387 147.591 28.452C148.579 29.4653 149.82 29.972 151.315 29.972C152.81 29.972 154.013 29.4653 154.925 28.452C155.862 27.4387 156.331 26.02 156.331 24.196ZM180.728 14.43V34H176.13V31.226C174.864 33.2273 173.052 34.228 170.696 34.228C168.543 34.228 166.833 33.5567 165.566 32.214C164.3 30.8713 163.666 28.9967 163.666 26.59V14.43H168.378V26.248C168.378 28.7813 169.518 30.048 171.798 30.048C173.065 30.048 174.078 29.5287 174.838 28.49C175.624 27.4513 176.016 25.9187 176.016 23.892V14.43H180.728ZM200.332 27.92C200.332 30.048 199.534 31.6567 197.938 32.746C196.317 33.8607 194.353 34.418 192.048 34.418C189.743 34.418 187.741 33.8733 186.044 32.784C184.347 31.6947 183.422 30.01 183.27 27.73H188.02C188.172 28.642 188.615 29.3387 189.35 29.82C190.11 30.3013 191.085 30.542 192.276 30.542C194.556 30.542 195.696 29.8327 195.696 28.414C195.696 27.8313 195.455 27.426 194.974 27.198C194.518 26.9447 193.555 26.6913 192.086 26.438C190.186 26.1087 188.755 25.792 187.792 25.488C185.183 24.7027 183.878 22.98 183.878 20.32C183.878 18.2173 184.613 16.6593 186.082 15.646C187.577 14.6073 189.439 14.088 191.668 14.088C194.049 14.088 195.975 14.6707 197.444 15.836C198.939 16.976 199.749 18.5973 199.876 20.7H195.278C195.075 18.9013 193.885 18.002 191.706 18.002C190.667 18.002 189.869 18.2047 189.312 18.61C188.755 18.99 188.476 19.5093 188.476 20.168C188.476 20.8267 188.767 21.2953 189.35 21.574C189.958 21.8527 191.035 22.106 192.58 22.334C194.252 22.5873 195.595 22.8533 196.608 23.132C199.091 23.8413 200.332 25.4373 200.332 27.92ZM220.022 34.684C216.982 34.684 214.398 33.8227 212.27 32.1C210.142 30.3773 209.078 27.996 209.078 24.956H214.018C214.094 26.7293 214.689 28.0973 215.804 29.06C216.918 29.9973 218.312 30.466 219.984 30.466C221.352 30.466 222.504 30.1367 223.442 29.478C224.379 28.794 224.848 27.92 224.848 26.856C224.848 26.02 224.569 25.3613 224.012 24.88C223.505 24.3987 222.872 24.044 222.112 23.816C221.276 23.5627 220.148 23.2713 218.73 22.942C217.083 22.5367 215.614 22.0807 214.322 21.574C211.307 20.3073 209.8 18.0907 209.8 14.924C209.8 12.3653 210.737 10.364 212.612 8.92C214.486 7.476 216.842 6.754 219.68 6.754C222.517 6.754 224.848 7.476 226.672 8.92C228.521 10.364 229.446 12.4667 229.446 15.228H224.468C224.316 12.4667 222.669 11.086 219.528 11.086C218.008 11.086 216.817 11.39 215.956 11.998C215.094 12.5807 214.664 13.4293 214.664 14.544C214.74 15.7347 215.183 16.5833 215.994 17.09C216.83 17.5967 218.248 18.078 220.25 18.534C221.998 18.914 223.556 19.3447 224.924 19.826C226.14 20.2567 227.242 21.004 228.23 22.068C229.268 23.1827 229.788 24.6773 229.788 26.552C229.788 29.06 228.85 31.0487 226.976 32.518C225.126 33.962 222.808 34.684 220.022 34.684ZM242.894 29.82V34H239.816C237.739 34 236.219 33.5567 235.256 32.67C234.293 31.758 233.812 30.086 233.812 27.654V18.686H230.24V14.43H233.812V10.022L238.524 8.73V14.43H242.438V18.686H238.524V27.464C238.524 28.2747 238.689 28.87 239.018 29.25C239.373 29.63 239.993 29.82 240.88 29.82H242.894ZM262.129 14.43V34H257.531V31.226C256.264 33.2273 254.453 34.228 252.097 34.228C249.943 34.228 248.233 33.5567 246.967 32.214C245.7 30.8713 245.067 28.9967 245.067 26.59V14.43H249.779V26.248C249.779 28.7813 250.919 30.048 253.199 30.048C254.465 30.048 255.479 29.5287 256.239 28.49C257.024 27.4513 257.417 25.9187 257.417 23.892V14.43H262.129ZM284.468 6.982V34H279.832V30.998C279.3 32.062 278.477 32.898 277.362 33.506C276.273 34.114 275.032 34.418 273.638 34.418C271.08 34.418 268.977 33.5313 267.33 31.758C265.684 29.9593 264.86 27.4387 264.86 24.196C264.86 21.004 265.684 18.5213 267.33 16.748C268.977 14.9747 271.08 14.088 273.638 14.088C274.956 14.088 276.159 14.354 277.248 14.886C278.338 15.3927 279.174 16.102 279.756 17.014V6.982H284.468ZM279.87 24.196C279.87 22.3213 279.364 20.8647 278.35 19.826C277.362 18.7873 276.159 18.268 274.74 18.268C273.246 18.268 272.017 18.8 271.054 19.864C270.117 20.9027 269.648 22.3467 269.648 24.196C269.648 26.02 270.117 27.464 271.054 28.528C272.017 29.5667 273.246 30.086 274.74 30.086C276.159 30.086 277.362 29.5667 278.35 28.528C279.364 27.464 279.87 26.02 279.87 24.196ZM288.268 11.846V6.488H293.284V11.846H288.268ZM288.42 34V14.43H293.132V34H288.42ZM315.198 24.234C315.198 27.3753 314.299 29.858 312.5 31.682C310.727 33.506 308.384 34.418 305.47 34.418C302.557 34.418 300.214 33.506 298.44 31.682C296.667 29.858 295.78 27.3753 295.78 24.234C295.78 21.118 296.667 18.648 298.44 16.824C300.239 15 302.582 14.088 305.47 14.088C308.358 14.088 310.702 15.0127 312.5 16.862C314.299 18.686 315.198 21.1433 315.198 24.234ZM300.606 24.234C300.606 26.1087 301.05 27.5527 301.936 28.566C302.823 29.554 304.026 30.048 305.546 30.048C307.066 30.048 308.244 29.5413 309.08 28.528C309.942 27.5147 310.372 26.0833 310.372 24.234C310.372 22.3593 309.929 20.928 309.042 19.94C308.156 18.952 306.952 18.458 305.432 18.458C303.912 18.458 302.722 18.9647 301.86 19.978C301.024 20.9913 300.606 22.41 300.606 24.234Z" fill="black"/>
<circle cx="22" cy="22" r="22" fill="black"/>
<path d="M14.3667 27.6341L18.2293 26.5303C18.3831 27.2468 18.729 27.8278 19.267 28.2732C19.8243 28.7186 20.5065 28.9413 21.3137 28.9413C23.6773 28.9413 24.8592 27.7116 24.8592 25.2522V24.5841C24.1482 25.6686 22.8702 26.2108 21.0254 26.2108C19.1229 26.2108 17.5375 25.5427 16.2692 24.2065C15.0009 22.8703 14.3667 21.1952 14.3667 19.1812C14.3667 17.2447 14.9913 15.5889 16.2404 14.214C17.5087 12.8197 19.1037 12.1226 21.0254 12.1226C22.0823 12.1226 22.9471 12.3065 23.6197 12.6745C24.2923 13.0424 24.7535 13.4588 25.0033 13.9235V12.384H29.183V25.0198C29.183 27.2662 28.5393 29.1156 27.2517 30.568C25.9642 32.0397 24.0521 32.7756 21.5154 32.7756C19.5553 32.7756 17.9218 32.2624 16.6151 31.2361C15.3276 30.2291 14.5781 29.0284 14.3667 27.6341ZM19.6129 21.505C20.1895 22.086 20.9293 22.3765 21.8325 22.3765C22.7357 22.3765 23.466 22.086 24.0233 21.505C24.5998 20.9241 24.888 20.1495 24.888 19.1812C24.888 18.2323 24.5902 17.4674 23.9944 16.8864C23.3987 16.2861 22.6781 15.9859 21.8325 15.9859C20.987 15.9859 20.2567 16.2861 19.6418 16.8864C19.046 17.4674 18.7482 18.2323 18.7482 19.1812C18.7482 20.1495 19.0364 20.9241 19.6129 21.505Z" fill="white"/>
</svg>
