<svg width="83" height="24" viewBox="0 0 83 24" fill="none" xmlns="http://www.w3.org/2000/svg">
<path d="M8.432 16.4724H8.336C8.224 16.7764 8.072 17.0724 7.88 17.3604C7.704 17.6484 7.472 17.9044 7.184 18.1284C6.912 18.3364 6.576 18.5044 6.176 18.6324C5.792 18.7604 5.344 18.8244 4.832 18.8244C3.536 18.8244 2.528 18.4084 1.808 17.5764C1.104 16.7444 0.752 15.5524 0.752 14.0004L0.752 6.05638H3.368L3.368 13.6644C3.368 15.6004 4.168 16.5684 5.768 16.5684C6.104 16.5684 6.432 16.5284 6.752 16.4484C7.072 16.3524 7.352 16.2164 7.592 16.0404C7.848 15.8644 8.048 15.6404 8.192 15.3684C8.352 15.0964 8.432 14.7764 8.432 14.4084L8.432 6.05638H11.048L11.048 18.5364L8.432 18.5364V16.4724ZM13.7939 18.5364L13.7939 6.05638L16.4099 6.05638V8.12038H16.5299C16.8019 7.44838 17.2099 6.88838 17.7539 6.44038C18.3139 5.99238 19.0739 5.76838 20.0339 5.76838C21.3139 5.76838 22.3059 6.19238 23.0099 7.04038C23.7299 7.87238 24.0899 9.06438 24.0899 10.6164V18.5364H21.4739V10.9524C21.4739 9.00038 20.6899 8.02438 19.1219 8.02438C18.7859 8.02438 18.4499 8.07238 18.1139 8.16838C17.7939 8.24838 17.5059 8.37638 17.2499 8.55238C16.9939 8.72838 16.7859 8.95238 16.6259 9.22438C16.4819 9.49638 16.4099 9.81638 16.4099 10.1844V18.5364H13.7939ZM26.7158 0.776377H29.3318L29.3318 8.12038H29.4518C29.7238 7.36838 30.1638 6.79238 30.7718 6.39238C31.3958 5.97638 32.1238 5.76838 32.9558 5.76838C34.5398 5.76838 35.7638 6.34438 36.6278 7.49638C37.4918 8.63238 37.9238 10.2324 37.9238 12.2964C37.9238 14.3604 37.4918 15.9684 36.6278 17.1204C35.7638 18.2564 34.5398 18.8244 32.9558 18.8244C32.1238 18.8244 31.3958 18.6164 30.7718 18.2004C30.1638 17.7844 29.7238 17.2084 29.4518 16.4724H29.3318V18.5364H26.7158L26.7158 0.776377ZM32.1638 16.5684C33.0758 16.5684 33.8038 16.2804 34.3478 15.7044C34.8918 15.1124 35.1638 14.3364 35.1638 13.3764V11.2164C35.1638 10.2564 34.8918 9.48838 34.3478 8.91238C33.8038 8.32038 33.0758 8.02438 32.1638 8.02438C31.3638 8.02438 30.6918 8.22438 30.1478 8.62438C29.6038 9.00838 29.3318 9.52038 29.3318 10.1604V14.4324C29.3318 15.0724 29.6038 15.5924 30.1478 15.9924C30.6918 16.3764 31.3638 16.5684 32.1638 16.5684ZM44.8149 18.8244C43.9189 18.8244 43.1189 18.6724 42.4149 18.3684C41.7109 18.0644 41.1109 17.6324 40.6149 17.0724C40.1189 16.4964 39.7349 15.8084 39.4629 15.0084C39.2069 14.1924 39.0789 13.2884 39.0789 12.2964C39.0789 11.3044 39.2069 10.4084 39.4629 9.60838C39.7349 8.79238 40.1189 8.10438 40.6149 7.54438C41.1109 6.96838 41.7109 6.52838 42.4149 6.22438C43.1189 5.92038 43.9189 5.76838 44.8149 5.76838C45.7269 5.76838 46.5269 5.92838 47.2149 6.24838C47.9189 6.56838 48.5029 7.01638 48.9669 7.59238C49.4309 8.15238 49.7749 8.80838 49.9989 9.56038C50.2389 10.3124 50.3589 11.1204 50.3589 11.9844V12.9684H41.7909V13.3764C41.7909 14.3364 42.0709 15.1284 42.6309 15.7524C43.2069 16.3604 44.0229 16.6644 45.0789 16.6644C45.8469 16.6644 46.4949 16.4964 47.0229 16.1604C47.5509 15.8244 47.9989 15.3684 48.3669 14.7924L49.9029 16.3044C49.4389 17.0724 48.7669 17.6884 47.8869 18.1524C47.0069 18.6004 45.9829 18.8244 44.8149 18.8244ZM44.8149 7.80838C44.3669 7.80838 43.9509 7.88838 43.5669 8.04838C43.1989 8.20838 42.8789 8.43238 42.6069 8.72038C42.3509 9.00838 42.1509 9.35238 42.0069 9.75238C41.8629 10.1524 41.7909 10.5924 41.7909 11.0724V11.2404H47.5989V11.0004C47.5989 10.0404 47.3509 9.27238 46.8549 8.69638C46.3589 8.10438 45.6789 7.80838 44.8149 7.80838ZM52.2548 18.5364L52.2548 6.05638H54.8708V8.45638H54.9908C55.1668 7.81638 55.5348 7.25638 56.0948 6.77638C56.6548 6.29638 57.4308 6.05638 58.4228 6.05638H59.1188V8.57638H58.0868C57.0468 8.57638 56.2468 8.74438 55.6868 9.08038C55.1428 9.41638 54.8708 9.91238 54.8708 10.5684L54.8708 18.5364L52.2548 18.5364ZM60.4423 18.5364L60.4423 6.05638H63.0583V8.45638H63.1783C63.3543 7.81638 63.7223 7.25638 64.2823 6.77638C64.8423 6.29638 65.6183 6.05638 66.6103 6.05638H67.3063V8.57638H66.2743C65.2343 8.57638 64.4343 8.74438 63.8743 9.08038C63.3303 9.41638 63.0583 9.91238 63.0583 10.5684V18.5364H60.4423ZM76.4968 6.05638H79.0168L73.7608 21.0084C73.6168 21.4244 73.4488 21.7764 73.2568 22.0644C73.0808 22.3684 72.8648 22.6084 72.6088 22.7844C72.3688 22.9764 72.0728 23.1124 71.7208 23.1924C71.3688 23.2884 70.9528 23.3364 70.4728 23.3364H68.9608V21.2004H71.0728L71.7928 19.0884L67.2568 6.05638H69.8728L72.3688 13.4004L73.0888 16.1124H73.2088L74.0008 13.4004L76.4968 6.05638ZM80.5581 18.8244C79.9661 18.8244 79.5261 18.6724 79.2381 18.3684C78.9501 18.0484 78.8061 17.6564 78.8061 17.1924V16.8324C78.8061 16.3684 78.9501 15.9844 79.2381 15.6804C79.5261 15.3604 79.9661 15.2004 80.5581 15.2004C81.1501 15.2004 81.5901 15.3604 81.8781 15.6804C82.1661 15.9844 82.3101 16.3684 82.3101 16.8324V17.1924C82.3101 17.6564 82.1661 18.0484 81.8781 18.3684C81.5901 18.6724 81.1501 18.8244 80.5581 18.8244Z" fill="#301702"/>
</svg>
