<svg width="84" height="22" viewBox="0 0 84 22" fill="none" xmlns="http://www.w3.org/2000/svg">
<path d="M8.01214 5.5725H10.5321L10.5321 17.8125L8.08414 17.8125V15.7485C7.41214 17.2205 6.24414 17.9565 4.58014 17.9565C3.22014 17.9565 2.13214 17.5325 1.31614 16.6845C0.516141 15.8365 0.116141 14.6925 0.116141 13.2525L0.116141 5.5725H2.63614L2.63614 13.0125C2.63614 13.9085 2.84414 14.5965 3.26014 15.0765C3.69214 15.5405 4.30014 15.7725 5.08414 15.7725C6.04414 15.7725 6.77214 15.4045 7.26814 14.6685C7.76414 13.9165 8.01214 12.8605 8.01214 11.5005L8.01214 5.5725ZM24.0696 9.8925V17.8125H21.5496V10.1565C21.5496 9.3725 21.3336 8.7485 20.9016 8.2845C20.4696 7.8205 19.8776 7.5885 19.1256 7.5885C18.1816 7.5885 17.4296 7.9165 16.8696 8.5725C16.3256 9.2285 16.0536 10.1245 16.0536 11.2605V17.8125H13.5096L13.5096 5.5725L16.0536 5.5725L16.0536 7.3965C16.4696 6.6765 16.9736 6.1565 17.5656 5.8365C18.1576 5.5005 18.9016 5.3325 19.7976 5.3325C21.1736 5.3325 22.2296 5.7245 22.9656 6.5085C23.7016 7.2765 24.0696 8.4045 24.0696 9.8925ZM38.8996 11.6685C38.8996 13.6045 38.4036 15.1565 37.4116 16.3245C36.4356 17.4925 35.1316 18.0765 33.4996 18.0765C32.5236 18.0765 31.6836 17.8765 30.9796 17.4765C30.2756 17.0765 29.7476 16.5245 29.3956 15.8205V17.8125H26.9236L26.9236 0.748499L29.4676 0.748499L29.4676 7.6845C29.8196 6.9325 30.3556 6.3565 31.0756 5.9565C31.8116 5.5405 32.6596 5.3325 33.6196 5.3325C35.2196 5.3325 36.4996 5.9165 37.4596 7.0845C38.4196 8.2365 38.8996 9.7645 38.8996 11.6685ZM35.3956 14.7885C36.0356 14.0205 36.3556 13.0125 36.3556 11.7645C36.3556 10.5165 36.0356 9.5165 35.3956 8.7645C34.7716 7.9965 33.9396 7.6125 32.8996 7.6125C31.8596 7.6125 31.0116 7.9965 30.3556 8.7645C29.6996 9.5325 29.3716 10.5325 29.3716 11.7645C29.3716 12.9965 29.6996 13.9965 30.3556 14.7645C31.0116 15.5325 31.8596 15.9165 32.8996 15.9165C33.9396 15.9165 34.7716 15.5405 35.3956 14.7885ZM51.5048 11.3565V12.4125H42.5768C42.5768 13.5165 42.8968 14.3885 43.5368 15.0285C44.1768 15.6525 45.0488 15.9645 46.1528 15.9645C47.6728 15.9645 48.6728 15.3805 49.1528 14.2125H51.3848C51.0808 15.3805 50.4408 16.3165 49.4648 17.0205C48.5048 17.7245 47.3368 18.0765 45.9608 18.0765C44.2168 18.0765 42.8168 17.5085 41.7608 16.3725C40.7208 15.2205 40.2008 13.6925 40.2008 11.7885C40.2008 9.8525 40.7368 8.2925 41.8088 7.1085C42.8968 5.9245 44.3128 5.3325 46.0568 5.3325C47.7048 5.3325 49.0248 5.8845 50.0168 6.9885C51.0088 8.0765 51.5048 9.5325 51.5048 11.3565ZM48.2648 8.2845C47.7208 7.7245 46.9688 7.4445 46.0088 7.4445C45.0488 7.4445 44.2568 7.7245 43.6328 8.2845C43.0248 8.8445 42.6808 9.6045 42.6008 10.5645L49.0808 10.5645C49.0808 9.6045 48.8088 8.8445 48.2648 8.2845ZM60.282 5.4525V7.9005H59.802C57.402 7.9005 56.202 9.1725 56.202 11.7165L56.202 17.8125H53.658L53.658 5.5725H56.178V7.5165C56.802 6.1405 57.938 5.4525 59.586 5.4525H60.282ZM68.493 5.4525V7.9005H68.013C65.613 7.9005 64.413 9.1725 64.413 11.7165V17.8125H61.869L61.869 5.5725H64.389V7.5165C65.013 6.1405 66.149 5.4525 67.797 5.4525H68.493ZM78.3006 5.5725H80.8686L75.7326 19.0365C75.0446 20.8445 73.5326 21.7485 71.1966 21.7485H70.2126V19.5885H71.0766C71.7166 19.5885 72.2686 19.4525 72.7326 19.1805C73.1966 18.9245 73.5166 18.5485 73.6926 18.0525L73.7886 17.7645L68.9886 5.5725L71.6526 5.5725L74.9886 14.7645L78.3006 5.5725ZM80.3777 17.8125V14.8125H83.2817V17.8125H80.3777Z" fill="#793700"/>
</svg>
