<svg width="124" height="35" viewBox="0 0 124 35" fill="none" xmlns="http://www.w3.org/2000/svg">
<path d="M12.8043 8.01976H16.8908V27.8369H12.9211V24.4952C11.8313 26.8784 9.93728 28.07 7.23891 28.07C5.03351 28.07 3.26918 27.3836 1.94594 26.0106C0.648648 24.6377 0 22.7855 0 20.454V8.01976H4.08648V20.0655C4.08648 21.5161 4.42378 22.63 5.09837 23.4072C5.79891 24.1584 6.78485 24.534 8.0562 24.534C9.61296 24.534 10.7935 23.9382 11.5978 22.7466C12.4021 21.5291 12.8043 19.8194 12.8043 17.6175V8.01976Z" fill="black"/>
<path d="M36.2951 15.014V27.8369H32.2086V15.4415C32.2086 14.1721 31.8583 13.1619 31.1578 12.4106C30.4573 11.6594 29.4973 11.2838 28.2778 11.2838C26.747 11.2838 25.5275 11.8148 24.6194 12.8769C23.7373 13.939 23.2962 15.3897 23.2962 17.2289V27.8369H19.1708V8.01976H23.2962V10.9729C23.9708 9.80719 24.7881 8.96528 25.7481 8.44719C26.7081 7.90319 27.9146 7.63119 29.3675 7.63119C31.5989 7.63119 33.3113 8.26585 34.5048 9.53519C35.6983 10.7786 36.2951 12.6049 36.2951 15.014Z" fill="black"/>
<path d="M57.7955 17.8895C57.7955 21.0239 56.9912 23.5367 55.3826 25.4278C53.7999 27.3188 51.6853 28.2643 49.0388 28.2643C47.4561 28.2643 46.0939 27.9405 44.9523 27.2929C43.8107 26.6453 42.9545 25.7516 42.3837 24.6118V27.8369H38.375V0.209473H42.5004V11.4392C43.0712 10.2217 43.9404 9.28909 45.108 8.64147C46.3015 7.96795 47.6766 7.63119 49.2334 7.63119C51.828 7.63119 53.9037 8.57671 55.4604 10.4678C57.0172 12.3329 57.7955 14.8068 57.7955 17.8895ZM52.1134 22.9409C53.1512 21.6975 53.6701 20.0655 53.6701 18.0449C53.6701 16.0243 53.1512 14.4053 52.1134 13.1878C51.1015 11.9443 49.7523 11.3226 48.0658 11.3226C46.3793 11.3226 45.0042 11.9443 43.9404 13.1878C42.8766 14.4312 42.3448 16.0502 42.3448 18.0449C42.3448 20.0396 42.8766 21.6586 43.9404 22.902C45.0042 24.1455 46.3793 24.7672 48.0658 24.7672C49.7523 24.7672 51.1015 24.1584 52.1134 22.9409Z" fill="black"/>
<path d="M77.773 17.3843V19.094H63.2952C63.2952 20.8815 63.8141 22.2933 64.852 23.3295C65.8898 24.3398 67.3039 24.8449 69.0941 24.8449C71.559 24.8449 73.1806 23.8994 73.959 22.0083H77.5784C77.0855 23.8994 76.0476 25.4148 74.4649 26.5546C72.9082 27.6944 71.0141 28.2643 68.7828 28.2643C65.9547 28.2643 63.6844 27.3447 61.972 25.5055C60.2855 23.6403 59.4423 21.1664 59.4423 18.0838C59.4423 14.9493 60.3115 12.4236 62.0498 10.5066C63.8141 8.58966 66.1104 7.63119 68.9385 7.63119C71.6109 7.63119 73.7514 8.5249 75.3601 10.3123C76.9687 12.0739 77.773 14.4312 77.773 17.3843ZM72.519 12.4106C71.6368 11.5039 70.4174 11.0506 68.8606 11.0506C67.3039 11.0506 66.0195 11.5039 65.0077 12.4106C64.0217 13.3173 63.4639 14.5478 63.3341 16.102H73.8422C73.8422 14.5478 73.4012 13.3173 72.519 12.4106Z" fill="black"/>
<path d="M90.848 7.82547V11.7889H90.0696C86.1777 11.7889 84.2318 13.8483 84.2318 17.9672V27.8369H80.1064V8.01976H84.1929V11.1672C85.2048 8.93938 87.0469 7.82547 89.7193 7.82547H90.848Z" fill="black"/>
<path d="M103.7 7.82547V11.7889H102.921C99.0294 11.7889 97.0835 13.8483 97.0835 17.9672V27.8369H92.9581V8.01976H97.0446V11.1672C98.0565 8.93938 99.8986 7.82547 102.571 7.82547H103.7Z" fill="black"/>
<path d="M119.836 8.01976H124L115.671 29.8186C114.556 32.7459 112.104 34.2095 108.316 34.2095H106.72V30.7123H108.121C109.159 30.7123 110.054 30.4921 110.807 30.0518C111.559 29.6373 112.078 29.0285 112.363 28.2255L112.519 27.7592L104.735 8.01976H109.055L114.465 22.902L119.836 8.01976Z" fill="black"/>
</svg>
