<svg width="25" height="19" viewBox="0 0 25 19" fill="none" xmlns="http://www.w3.org/2000/svg">
<path d="M24.7081 2.20757L8.70806 18.2076C8.61518 18.3005 8.50489 18.3743 8.3835 18.4246C8.2621 18.475 8.13197 18.5009 8.00056 18.5009C7.86914 18.5009 7.73901 18.475 7.61762 18.4246C7.49622 18.3743 7.38593 18.3005 7.29306 18.2076L0.293056 11.2076C0.105415 11.0199 0 10.7654 0 10.5001C0 10.2347 0.105415 9.98021 0.293056 9.79257C0.480697 9.60493 0.735192 9.49951 1.00056 9.49951C1.26592 9.49951 1.52042 9.60493 1.70806 9.79257L8.00056 16.0863L23.2931 0.792567C23.4807 0.604927 23.7352 0.499512 24.0006 0.499512C24.2659 0.499512 24.5204 0.604927 24.7081 0.792567C24.8957 0.980208 25.0011 1.2347 25.0011 1.50007C25.0011 1.76543 24.8957 2.01993 24.7081 2.20757Z" fill="#27A308"/>
</svg>
