<svg width="33" height="33" viewBox="0 0 33 33" fill="none" xmlns="http://www.w3.org/2000/svg">
<g clip-path="url(#clip0_949_937)">
<path d="M12.75 22.25H4.5C4.30109 22.25 4.11032 22.171 3.96967 22.0303C3.82902 21.8897 3.75 21.6989 3.75 21.5V13.25C3.75 10.8631 4.69821 8.57387 6.38604 6.88604C8.07387 5.19821 10.3631 4.25 12.75 4.25C15.1369 4.25 17.4261 5.19821 19.114 6.88604C20.8018 8.57387 21.75 10.8631 21.75 13.25C21.75 15.6369 20.8018 17.9261 19.114 19.614C17.4261 21.3018 15.1369 22.25 12.75 22.25Z" stroke="#AC95CF" stroke-width="2" stroke-linecap="round" stroke-linejoin="round"/>
<path d="M12.2617 22.2499C12.8822 24.005 14.0317 25.5245 15.5518 26.599C17.0718 27.6736 18.8877 28.2504 20.7492 28.2499H28.9992C29.1981 28.2499 29.3889 28.1709 29.5295 28.0303C29.6702 27.8896 29.7492 27.6988 29.7492 27.4999V19.2499C29.7492 16.9483 28.8673 14.7341 27.2849 13.0627C25.7025 11.3913 23.5399 10.3896 21.2417 10.2637" stroke="#AC95CF" stroke-width="2" stroke-linecap="round" stroke-linejoin="round"/>
</g>
<defs>
<clipPath id="clip0_949_937">
<rect width="32" height="32" fill="white" transform="translate(0.75 0.25)"/>
</clipPath>
</defs>
</svg>
