<svg width="33" height="33" viewBox="0 0 33 33" fill="none" xmlns="http://www.w3.org/2000/svg">
<g clip-path="url(#clip0_949_884)">
<path d="M12.75 12.75H20.75" stroke="#AC95CF" stroke-width="2" stroke-linecap="round" stroke-linejoin="round"/>
<path d="M12.75 16.75H20.75" stroke="#AC95CF" stroke-width="2" stroke-linecap="round" stroke-linejoin="round"/>
<path d="M12.75 20.75H16.75" stroke="#AC95CF" stroke-width="2" stroke-linecap="round" stroke-linejoin="round"/>
<path d="M20.3363 27.75H6.75C6.48478 27.75 6.23043 27.6446 6.04289 27.4571C5.85536 27.2696 5.75 27.0152 5.75 26.75V6.75C5.75 6.48478 5.85536 6.23043 6.04289 6.04289C6.23043 5.85536 6.48478 5.75 6.75 5.75H26.75C27.0152 5.75 27.2696 5.85536 27.4571 6.04289C27.6446 6.23043 27.75 6.48478 27.75 6.75V20.3363C27.7499 20.6011 27.6447 20.8551 27.4575 21.0425L21.0425 27.4575C20.8551 27.6447 20.6011 27.7499 20.3363 27.75Z" stroke="#AC95CF" stroke-width="2" stroke-linecap="round" stroke-linejoin="round"/>
<path d="M27.66 20.7485H20.75V27.6585" stroke="#AC95CF" stroke-width="2" stroke-linecap="round" stroke-linejoin="round"/>
</g>
<defs>
<clipPath id="clip0_949_884">
<rect width="32" height="32" fill="white" transform="translate(0.75 0.75)"/>
</clipPath>
</defs>
</svg>
