<svg width="55" height="55" viewBox="0 0 55 55" fill="none" xmlns="http://www.w3.org/2000/svg">
<path d="M35.3422 34.3422C40.2448 29.4397 43.7646 24.1507 45.5159 19.5974C46.392 17.3195 46.8082 15.2707 46.7661 13.5714C46.7242 11.8792 46.2329 10.5948 45.3568 9.71871C44.4807 8.84262 43.1963 8.3513 41.504 8.3094C39.8047 8.26732 37.756 8.68348 35.478 9.55962C30.9247 11.3109 25.6358 14.8307 20.7332 19.7332C15.8307 24.6357 12.3109 29.9247 10.5596 34.478C9.68349 36.756 9.26733 38.8047 9.30941 40.504C9.35131 42.1962 9.84263 43.4807 10.7187 44.3568C11.5948 45.2328 12.8792 45.7242 14.5714 45.7661C16.2708 45.8081 18.3195 45.392 20.5974 44.5158C25.1507 42.7646 30.4397 39.2448 35.3422 34.3422Z" stroke="url(#paint0_linear_949_1050)" stroke-width="2"/>
<path d="M20.7354 34.3422C25.6379 39.2448 30.9269 42.7646 35.4802 44.5159C37.7582 45.392 39.8069 45.8082 41.5062 45.7661C43.1984 45.7242 44.4828 45.2329 45.3589 44.3568C46.235 43.4807 46.7263 42.1963 46.7682 40.504C46.8103 38.8047 46.3942 36.756 45.518 34.478C43.7668 29.9247 40.2469 24.6358 35.3444 19.7332C30.4419 14.8307 25.1529 11.3109 20.5996 9.55962C18.3217 8.68349 16.2729 8.26733 14.5736 8.30941C12.8814 8.35131 11.597 8.84263 10.7209 9.71872C9.84479 10.5948 9.35348 11.8792 9.31157 13.5714C9.26949 15.2708 9.68566 17.3195 10.5618 19.5974C12.3131 24.1507 15.8329 29.4397 20.7354 34.3422Z" stroke="url(#paint1_linear_949_1050)" stroke-width="2"/>
<circle cx="19.761" cy="33.2937" r="3.84404" fill="#442712" stroke="#442712" stroke-width="2"/>
<defs>
<linearGradient id="paint0_linear_949_1050" x1="27" y1="25.5776" x2="41.5" y2="39.5776" gradientUnits="userSpaceOnUse">
<stop stop-color="#FE9245"/>
<stop offset="0.300705" stop-color="#FE9346"/>
<stop offset="1" stop-color="#FF9346" stop-opacity="0"/>
</linearGradient>
<linearGradient id="paint1_linear_949_1050" x1="29.5" y1="26" x2="15.5" y2="40.5" gradientUnits="userSpaceOnUse">
<stop stop-color="#FE9245"/>
<stop offset="0.300705" stop-color="#FE9346"/>
<stop offset="1" stop-color="#FF9346" stop-opacity="0"/>
</linearGradient>
</defs>
</svg>
