<svg width="20" height="21" viewBox="0 0 20 21" fill="none" xmlns="http://www.w3.org/2000/svg">
<path d="M19.7081 18.7926C19.801 18.8855 19.8747 18.9958 19.9249 19.1172C19.9752 19.2386 20.0011 19.3687 20.0011 19.5001C20.0011 19.6315 19.9752 19.7616 19.9249 19.883C19.8747 20.0044 19.801 20.1147 19.7081 20.2076C19.6151 20.3005 19.5048 20.3742 19.3835 20.4245C19.2621 20.4747 19.132 20.5006 19.0006 20.5006C18.8692 20.5006 18.7391 20.4747 18.6177 20.4245C18.4963 20.3742 18.386 20.3005 18.2931 20.2076L10.0006 11.9138L1.70806 20.2076C1.52042 20.3952 1.26592 20.5006 1.00056 20.5006C0.735192 20.5006 0.480697 20.3952 0.293056 20.2076C0.105415 20.0199 5.23096e-09 19.7654 0 19.5001C-5.23096e-09 19.2347 0.105415 18.9802 0.293056 18.7926L8.58681 10.5001L0.293056 2.20757C0.105415 2.01993 0 1.76543 0 1.50007C0 1.2347 0.105415 0.980208 0.293056 0.792568C0.480697 0.604927 0.735192 0.499512 1.00056 0.499512C1.26592 0.499512 1.52042 0.604927 1.70806 0.792568L10.0006 9.08632L18.2931 0.792568C18.4807 0.604927 18.7352 0.499512 19.0006 0.499512C19.2659 0.499512 19.5204 0.604927 19.7081 0.792568C19.8957 0.980208 20.0011 1.2347 20.0011 1.50007C20.0011 1.76543 19.8957 2.01993 19.7081 2.20757L11.4143 10.5001L19.7081 18.7926Z" fill="#FF1818"/>
</svg>
