<svg width="88" height="86" viewBox="0 0 88 86" fill="none" xmlns="http://www.w3.org/2000/svg">
<path d="M43.8556 82.2373C23.3331 82.2373 1.19238 69.3647 1.19238 41.1186C1.19238 12.8726 23.3331 0 43.8556 0C55.257 0 65.7757 3.75143 73.5728 10.5923C82.0319 18.0951 86.5189 28.6874 86.5189 41.1186C86.5189 53.5499 82.0319 64.0686 73.5728 71.5714C65.7757 78.4123 55.1835 82.2373 43.8556 82.2373Z" fill="url(#paint0_radial_4_5135)"/>
<path d="M79.0742 16.6758C82.9948 23.0017 85.0397 30.534 85.0397 38.9122C85.0397 51.3434 80.5527 61.8621 72.0936 69.365C64.2965 76.2059 53.7043 80.0308 42.3764 80.0308C29.092 80.0308 15.1602 74.6244 6.93652 63.1568C14.8513 76.147 29.7393 82.2376 43.8476 82.2376C55.1754 82.2376 65.7677 78.4126 73.5647 71.5717C82.0238 64.0689 86.5108 53.5501 86.5108 41.1189C86.5108 31.7477 83.9584 23.421 79.0742 16.6758Z" fill="#AC95CF"/>
<path d="M43.8556 82.2373C23.3331 82.2373 1.19238 69.3647 1.19238 41.1186C1.19238 12.8726 23.3331 0 43.8556 0C55.257 0 65.7757 3.75143 73.5728 10.5923C82.0319 18.0951 86.5189 28.6874 86.5189 41.1186C86.5189 53.5499 82.0319 64.0686 73.5728 71.5714C65.7757 78.4123 55.1835 82.2373 43.8556 82.2373Z" fill="url(#paint1_linear_4_5135)"/>
<path d="M43.8556 82.2373C23.3331 82.2373 1.19238 69.3647 1.19238 41.1186C1.19238 12.8726 23.3331 0 43.8556 0C55.257 0 65.7757 3.75143 73.5728 10.5923C82.0319 18.0951 86.5189 28.6874 86.5189 41.1186C86.5189 53.5499 82.0319 64.0686 73.5728 71.5714C65.7757 78.4123 55.1835 82.2373 43.8556 82.2373Z" fill="url(#paint2_linear_4_5135)"/>
<path d="M79.0742 16.6758C82.9948 23.0017 85.0397 30.534 85.0397 38.9122C85.0397 51.3434 80.5527 61.8621 72.0936 69.365C64.2965 76.2059 53.7043 80.0308 42.3764 80.0308C29.092 80.0308 15.1602 74.6244 6.93652 63.1568C14.8513 76.147 29.7393 82.2376 43.8476 82.2376C55.1754 82.2376 65.7677 78.4126 73.5647 71.5717C82.0238 64.0689 86.5108 53.5501 86.5108 41.1189C86.5108 31.7477 83.9584 23.421 79.0742 16.6758Z" fill="#AC95CF"/>
<path d="M44.1443 75.5686C39.7162 75.5392 36.1339 71.9569 36.1045 67.5288V58.2605C36.1045 53.8177 39.7014 50.2207 44.1443 50.2207C48.5872 50.2207 52.1841 53.8177 52.1841 58.2605V67.5361C52.1547 71.9643 48.5725 75.5392 44.1443 75.5686Z" fill="#422B0D"/>
<path d="M28.91 25.6162C30.4105 25.6162 31.8817 26.0502 33.1469 26.8593C37.2955 29.4853 39.0314 35.6862 35.6846 42.0931C33.3749 46.5065 29.903 48.5441 26.615 48.5441C25.1144 48.5441 23.6433 48.1101 22.3781 47.301C18.2294 44.675 16.4935 38.4741 19.8403 32.0672C22.15 27.6538 25.6146 25.6162 28.91 25.6162Z" fill="white"/>
<path opacity="0.66" d="M84.5597 48.5538C83.5519 47.8182 83.677 47.0017 80.8818 48.1272C79.727 48.5979 78.4029 51.246 78.4029 51.246C78.4029 51.246 76.4095 47.2592 72.4669 52.5627C65.3024 62.184 62.1688 61.7426 57.954 66.1561C55.2397 68.9807 52.8933 71.6729 53.798 77.0205C54.3056 80.007 55.7252 80.8235 55.7252 80.8235C55.7252 80.8235 56.5932 80.8235 65.1111 76.41C73.6291 71.9966 81.0657 65.7515 85.1555 55.7477" fill="url(#paint3_linear_4_5135)"/>
<path d="M61.6121 68.0596C64.8119 65.6322 67.9013 63.4034 69.3577 61.4836C70.8142 59.5637 72.3809 55.5401 73.3225 52.9068C74.264 50.2734 77.0003 48.9861 78.4715 51.237C78.854 51.8402 78.5524 54.1793 78.4715 55.0767C79.2733 53.7453 79.8396 52.2815 80.1486 50.7589C80.8842 47.1693 84.6356 46.0071 85.2976 50.8324C85.2976 50.8324 88.0854 50.9428 86.8497 59.5931C86.2318 62.9621 85.1211 66.228 83.5396 69.2659C79.5748 76.7394 76.4707 80.2039 72.4545 82.955C66.1727 87.2507 60.2219 86.2283 58.3609 83.7862C55.1832 79.5861 56.0365 72.2892 61.6121 68.0596Z" fill="url(#paint4_radial_4_5135)"/>
<path d="M78.4351 51.2324C78.4351 52.6668 77.0522 57.6613 76.53 58.9412C74.7278 63.6857 71.4398 65.8924 72.3593 66.6427C73.2788 67.393 75.0368 65.7968 77.5745 59.7724C78.3542 57.7202 78.8103 55.565 78.9132 53.3729C78.9059 52.63 78.7441 51.9018 78.4351 51.2324Z" fill="#AC95CF"/>
<path d="M83.2773 47.5996C84.2115 48.0042 85.6018 50.667 83.5201 58.1257C82.2328 63.7602 77.9518 68.1442 78.9816 68.6371C80.1953 69.4535 82.9684 64.8562 84.9324 58.4861C85.4473 56.5589 85.7709 54.5876 85.8813 52.6015C85.9107 51.6011 85.5723 47.8718 83.2773 47.5996Z" fill="#AC95CF"/>
<path opacity="0.66" d="M3.33898 48.5536C4.34671 47.818 4.22167 47.0015 7.01684 48.1269C8.17169 48.5977 9.49573 51.2458 9.49573 51.2458C9.49573 51.2458 11.4891 47.259 15.4318 52.5625C22.5963 62.1838 25.7298 61.7424 29.9447 66.1559C32.6516 68.9805 34.998 71.6727 34.0933 77.0203C33.5931 80.0068 32.1734 80.8232 32.1734 80.8232C32.1734 80.8232 30.7611 80.8232 23.9865 77.366C23.4054 77.0718 23.4569 76.7702 22.7875 76.4171C14.2696 72.0037 6.83295 65.7587 2.74316 55.7549" fill="url(#paint5_linear_4_5135)"/>
<path d="M26.2927 68.0596C23.093 65.6322 20.0036 63.4034 18.5471 61.4836C17.0907 59.5637 15.5239 55.5401 14.575 52.9068C13.6262 50.2734 10.8972 48.9861 9.46282 51.237C9.08032 51.8402 9.38191 54.1793 9.46282 55.0767C8.65369 53.7453 8.07259 52.2815 7.75629 50.7589C7.02072 47.1693 3.26929 46.0071 2.60728 50.8324C2.60728 50.8324 -0.180544 50.9428 1.05522 59.5931C1.6731 62.9621 2.78382 66.228 4.3653 69.2659C8.32268 76.7394 11.4342 80.2039 15.4504 82.955C21.7248 87.2507 27.6756 86.2283 29.544 83.7862C32.6996 79.5861 31.8684 72.2892 26.2927 68.0596Z" fill="url(#paint6_radial_4_5135)"/>
<path d="M9.46152 51.2324C9.46152 52.6668 10.8444 57.6613 11.3667 58.9412C13.1688 63.6857 16.4495 65.8924 15.5374 66.6427C14.6252 67.393 12.8525 65.7968 10.3148 59.7724C9.53508 57.7202 9.08638 55.565 8.9834 53.3729C8.9834 52.63 9.14522 51.9018 9.46152 51.2324Z" fill="#AC95CF"/>
<path d="M4.61485 47.5996C3.68803 48.0042 2.29779 50.667 4.37947 58.111C5.66672 63.7455 9.94776 68.1295 8.91795 68.6223C7.70426 69.4388 4.93115 64.8415 2.96717 58.4714C2.45227 56.5442 2.12861 54.5729 2.01828 52.5868C1.98885 51.6011 2.32722 47.8718 4.61485 47.5996Z" fill="#AC95CF"/>
<path d="M35.7795 42.1377C35.2351 44.0576 34.2274 45.8082 32.8372 47.2426C31.3366 48.7947 29.3579 49.795 27.2247 50.0893C24.9371 50.3762 22.62 49.7803 20.7517 48.4342C18.9128 47.0955 17.5299 45.2124 16.8017 43.0572C16.6325 42.5349 16.4927 41.998 16.3897 41.4536C16.2941 40.9167 16.2279 40.3723 16.1911 39.828L16.1396 38.9821L16.1764 38.173C16.1985 37.636 16.2573 37.1064 16.3603 36.5768C16.7649 34.5466 17.5667 32.612 18.7142 30.8908C19.8249 29.1327 21.3402 27.669 23.1276 26.6097C24.8709 25.5579 26.9379 25.1754 28.946 25.5284V25.7417C27.085 25.7785 25.2755 26.4111 23.797 27.5439C22.3258 28.6693 21.1121 30.1037 20.2368 31.7367C19.3173 33.3402 18.6994 35.0909 18.3979 36.9151C18.1183 38.7394 18.2728 40.6004 18.8539 42.351C19.4129 44.1017 20.4942 45.6464 21.958 46.7645C23.4218 47.9046 25.2534 48.471 27.107 48.3533C28.946 48.2209 30.704 47.5148 32.1237 46.3378C33.558 45.1536 34.7349 43.6971 35.5882 42.0421L35.7795 42.1377Z" fill="#AC95CF"/>
<path d="M59.4515 25.6162C62.7469 25.6162 66.2114 27.6758 68.5211 32.0672C71.8827 38.4446 70.132 44.675 65.9834 47.301C64.7182 48.1174 63.2471 48.5514 61.7465 48.5514C58.4585 48.5514 54.9866 46.4918 52.6769 42.1004C49.2933 35.7157 51.066 29.4853 55.2146 26.8593C56.4798 26.0502 57.951 25.6162 59.4515 25.6162Z" fill="white"/>
<path d="M59.4546 25.5011C61.4627 25.148 63.5297 25.5305 65.273 26.5824C67.0605 27.6416 68.5757 29.1054 69.6865 30.8634C70.8413 32.6067 71.6431 34.556 72.0403 36.6083C72.1359 37.1379 72.2021 37.6675 72.2242 38.2045V39.0136V39.8301C72.18 40.9261 71.9741 42.0147 71.621 43.0593C70.8928 45.2145 69.5173 47.0902 67.671 48.429C65.8026 49.7824 63.4929 50.3709 61.2053 50.084C59.0501 49.7971 57.0567 48.7967 55.5487 47.2373C54.1585 45.8103 53.1434 44.0596 52.6064 42.1398L52.7977 42.0368C53.6436 43.6845 54.8132 45.1483 56.2402 46.3399C57.6672 47.5242 59.4252 48.2303 61.2715 48.3628C63.1251 48.4804 64.9567 47.914 66.4205 46.7739C67.8769 45.6485 68.9582 44.1111 69.5173 42.3605C70.0984 40.6098 70.2528 38.7488 69.9733 36.9246C69.6865 35.1003 69.0759 33.335 68.1638 31.724C67.2885 30.0911 66.0748 28.6567 64.6036 27.5313C63.1251 26.3985 61.3156 25.7659 59.4546 25.7291V25.5011Z" fill="#AC95CF"/>
<defs>
<radialGradient id="paint0_radial_4_5135" cx="0" cy="0" r="1" gradientUnits="userSpaceOnUse" gradientTransform="translate(43.8556 41.1186) scale(41.898 41.8981)">
<stop offset="0.5" stop-color="#FDE030"/>
<stop offset="0.92" stop-color="#F7C02B"/>
<stop offset="1" stop-color="#F4A223"/>
</radialGradient>
<linearGradient id="paint1_linear_4_5135" x1="43.8556" y1="82.2373" x2="43.8556" y2="0" gradientUnits="userSpaceOnUse">
<stop offset="0.39" stop-color="#40C0E7" stop-opacity="0"/>
<stop offset="1" stop-color="#5F7AFF"/>
</linearGradient>
<linearGradient id="paint2_linear_4_5135" x1="43.8556" y1="82.2373" x2="43.8556" y2="0" gradientUnits="userSpaceOnUse">
<stop offset="0.16" stop-color="#F4A223"/>
<stop offset="0.33" stop-color="#F7C02B"/>
<stop offset="0.81" stop-color="#FDE030" stop-opacity="0"/>
</linearGradient>
<linearGradient id="paint3_linear_4_5135" x1="69.378" y1="88.878" x2="69.378" y2="52.3199" gradientUnits="userSpaceOnUse">
<stop stop-color="#ED6C30"/>
<stop offset="1" stop-color="#ED6C30" stop-opacity="0.2"/>
</linearGradient>
<radialGradient id="paint4_radial_4_5135" cx="0" cy="0" r="1" gradientUnits="userSpaceOnUse" gradientTransform="translate(64.3784 64.2068) rotate(141.52) scale(32.8788 30.3023)">
<stop offset="0.27" stop-color="#FFF176"/>
<stop offset="1" stop-color="#FFC400"/>
</radialGradient>
<linearGradient id="paint5_linear_4_5135" x1="18.5169" y1="88.8778" x2="18.5169" y2="52.3197" gradientUnits="userSpaceOnUse">
<stop stop-color="#ED6C30"/>
<stop offset="1" stop-color="#ED6C30" stop-opacity="0.2"/>
</linearGradient>
<radialGradient id="paint6_radial_4_5135" cx="0" cy="0" r="1" gradientUnits="userSpaceOnUse" gradientTransform="translate(23.4896 64.1514) rotate(38.4803) scale(32.8788 30.3023)">
<stop offset="0.27" stop-color="#FFF176"/>
<stop offset="1" stop-color="#FFC400"/>
</radialGradient>
</defs>
</svg>
