<svg width="88" height="89" viewBox="0 0 88 89" fill="none" xmlns="http://www.w3.org/2000/svg">
<path d="M44.3063 83.8585C23.4137 83.8585 0.873535 70.7537 0.873535 41.9982C0.873535 13.2428 23.4137 0.138031 44.3063 0.138031C55.9134 0.138031 66.6218 3.95712 74.5595 10.9213C83.1712 18.5595 87.7391 29.3428 87.7391 41.9982C87.7391 54.6537 83.1712 65.3621 74.5595 73.0003C66.6218 79.9645 55.8385 83.8585 44.3063 83.8585Z" fill="url(#paint0_radial_4_5118)"/>
<path d="M44.3063 83.8585C23.4137 83.8585 0.873535 70.7537 0.873535 41.9982C0.873535 13.2428 23.4137 0.138031 44.3063 0.138031C55.9134 0.138031 66.6218 3.95712 74.5595 10.9213C83.1712 18.5595 87.7391 29.3428 87.7391 41.9982C87.7391 54.6537 83.1712 65.3621 74.5595 73.0003C66.6218 79.9645 55.8385 83.8585 44.3063 83.8585Z" fill="url(#paint1_linear_4_5118)"/>
<path d="M80.1679 17.1146C84.1592 23.5546 86.241 31.2228 86.241 39.7521C86.241 52.4075 81.673 63.1159 73.0613 70.7541C65.1236 77.7183 54.3403 81.6123 42.8082 81.6123C29.2841 81.6123 15.101 76.1083 6.729 64.4339C14.7865 77.6584 29.9431 83.8588 44.3059 83.8588C55.838 83.8588 66.6213 79.9648 74.559 73.0006C83.1707 65.3624 87.7386 54.654 87.7386 41.9986C87.7386 32.4584 85.1402 23.9815 80.1679 17.1146Z" fill="#AC95CF"/>
<path d="M43.7825 78.0478C55.4618 78.0478 64.9298 69.7566 64.9298 59.5289C64.9298 49.3013 55.4618 41.0101 43.7825 41.0101C32.1032 41.0101 22.6353 49.3013 22.6353 59.5289C22.6353 69.7566 32.1032 78.0478 43.7825 78.0478Z" fill="#422B0D"/>
<path d="M68.4261 31.642C68.4261 31.642 63.7758 23.3523 54.1606 25.1196" stroke="#35220B" stroke-width="4.49305" stroke-miterlimit="10" stroke-linecap="round"/>
<path d="M20.4634 31.642C20.4634 31.642 25.1361 23.3523 34.7288 25.1196" stroke="#35220B" stroke-width="4.49305" stroke-miterlimit="10" stroke-linecap="round"/>
<path opacity="0.66" d="M49.9764 57.0501C50.3133 55.5524 50.568 56.2338 50.7851 54.7436C50.9499 53.6204 52.792 51.1342 52.8145 50.0035C52.8145 49.1723 53.2189 47.8543 52.7471 47.1728C51.0996 44.8215 49.3324 47.8693 48.4937 48.1538C45.6031 49.1123 43.8434 52.0253 41.1625 53.4182C37.7553 55.163 30.7686 58.7724 27.0319 59.6186C28.6344 56.5034 32.3187 42.4626 27.1517 43.6683C24.7928 44.2149 23.2577 47.8992 22.7186 48.9701C19.7906 54.811 15.7244 57.5892 12.5643 63.1157C9.40416 68.6421 9.28435 74.6029 12.7814 80.1443C14.0545 82.271 15.8068 84.0682 17.9035 85.3862C20.1051 86.6742 22.4789 85.7157 24.5457 84.6374C29.6378 82.0389 34.408 78.8638 38.7737 75.172C43.0571 71.4278 46.6964 66.7476 48.6884 61.3859C49.2126 59.9631 49.6469 58.5178 49.9764 57.0501Z" fill="url(#paint2_linear_4_5118)"/>
<path d="M61.6797 59.933C60.0173 57.5517 55.6889 59.9855 55.6889 59.9855C55.6889 59.9855 57.9355 58.031 59.8076 56.2413C61.0057 55.0955 62.0541 52.6543 61.0731 50.9994C60.0921 49.3444 57.239 49.4493 55.8387 50.3104L50.3497 53.6802C50.3497 53.6802 52.409 52.7816 53.0306 49.2471C53.42 47.8168 52.5813 46.3416 51.151 45.9522C50.8814 45.8773 50.6043 45.8473 50.3272 45.8623C49.0317 45.9746 47.7962 46.4539 46.7553 47.2402C42.7864 50.0558 32.1903 57.2372 29.8165 57.05C28.8954 56.9751 28.813 56.8328 30.7525 52.6843C32.0555 50.1981 32.1753 47.2552 31.082 44.6717C30.4455 43.174 27.5101 42.7621 26.589 44.2074C25.8926 45.2707 25.3908 47.8767 24.1777 50.4976C22.1409 54.8035 17.4456 60.5845 17.0637 61.1537C14.2705 65.2873 9.0661 72.9928 14.5177 81.6345C19.3402 89.2876 30.3482 89.6471 35.9869 87.6252C46.7628 83.8061 56.6849 76.4675 56.8721 76.3177C58.8341 74.7601 60.6163 72.4761 59.8076 70.3944C58.8116 67.8183 55.5092 69.346 55.5092 69.346C57.4188 68.1853 59.1336 66.725 60.5789 65.0177C61.9493 63.2504 62.7955 61.543 61.6797 59.933Z" fill="url(#paint3_radial_4_5118)"/>
<path d="M37.1629 62.4797C36.414 61.6709 40.1582 60.2331 41.6559 59.1398L46.3437 56.1445C47.8863 55.1485 49.3166 53.9953 50.6195 52.7073C51.9675 51.4717 52.8136 49.7868 52.9934 47.9671C53.1956 48.9256 53.1431 49.9216 52.8436 50.8502C52.5291 51.7862 52.0573 52.6624 51.4358 53.4262C50.1927 54.8939 48.7474 56.1744 47.1374 57.2303C45.6098 58.3386 44.0148 59.3345 42.3523 60.2257C40.6899 61.1018 37.5897 63.3034 37.1629 62.4797Z" fill="#AC95CF"/>
<path d="M46.3901 74.0865C45.9707 73.48 49.318 72.4765 50.7408 71.6378C52.1561 70.8141 53.5265 69.923 54.8445 68.9645C56.1699 67.9835 57.4954 67.0325 58.7235 65.9691C59.9965 64.9207 61.1572 63.745 62.1981 62.472C61.6814 64.1195 60.7828 65.6246 59.5847 66.8677C58.4165 68.1108 57.106 69.2116 55.6907 70.1626C54.3428 71.1436 47.1614 75.427 46.3901 74.0865Z" fill="#AC95CF"/>
<path d="M42.36 68.2828C41.7235 67.5339 46.1042 65.9089 47.879 64.7333C49.6537 63.5576 51.4285 62.4418 53.2332 61.1912C55.0154 60.0081 56.7078 58.7051 58.2954 57.2823C59.0667 56.5709 59.7481 55.7696 60.3322 54.901C60.9388 54.0099 61.3057 52.9765 61.3956 51.9056C61.5828 53.0214 61.418 54.1746 60.9238 55.193C60.452 56.2264 59.823 57.1775 59.0667 58.0162C58.3403 58.8623 57.539 59.6411 56.6779 60.3525C55.8317 61.1014 54.948 61.7379 54.0569 62.3744C52.2972 63.6924 50.4325 64.8606 48.4855 65.8865C46.5086 66.8974 43.019 69.1439 42.36 68.2828Z" fill="#AC95CF"/>
<path d="M19.5806 86.2553C21.4676 86.9742 23.4446 87.4385 25.459 87.6332C27.4509 87.8578 29.4578 87.8578 31.4497 87.6332C33.4192 87.4085 35.3586 86.9742 37.2382 86.3377C39.1253 85.6862 40.96 84.8924 42.7272 83.9563C46.3591 82.1816 49.961 80.3469 53.4057 78.2652C55.1281 77.2617 56.7381 76.0636 58.1983 74.7007C58.9172 74.0267 59.4564 73.188 59.7784 72.252C60.1004 71.2934 59.8832 70.2301 59.2167 69.4738C60.003 70.1926 60.34 71.286 60.0854 72.3194C59.8233 73.3453 59.3365 74.2963 58.6551 75.105C58.0036 75.9288 57.2697 76.6776 56.4685 77.3516C55.6822 78.018 54.866 78.6471 54.0198 79.2312C50.6275 81.5226 47.078 83.5669 43.3862 85.3342C41.5516 86.2927 39.642 87.094 37.6801 87.738C35.6881 88.352 33.6288 88.7265 31.547 88.8463C27.391 89.1308 23.2424 88.2322 19.5806 86.2553Z" fill="#AC95CF"/>
<defs>
<radialGradient id="paint0_radial_4_5118" cx="0" cy="0" r="1" gradientUnits="userSpaceOnUse" gradientTransform="translate(44.3063 41.9982) scale(42.6538 42.6538)">
<stop offset="0.5" stop-color="#FDE030"/>
<stop offset="0.92" stop-color="#F7C02B"/>
<stop offset="1" stop-color="#F4A223"/>
</radialGradient>
<linearGradient id="paint1_linear_4_5118" x1="44.3063" y1="83.8585" x2="44.3063" y2="0.138031" gradientUnits="userSpaceOnUse">
<stop offset="0.16" stop-color="#F4A223"/>
<stop offset="0.33" stop-color="#F7C02B"/>
<stop offset="0.81" stop-color="#FDE030" stop-opacity="0"/>
</linearGradient>
<linearGradient id="paint2_linear_4_5118" x1="31.576" y1="82.701" x2="31.576" y2="40.1473" gradientUnits="userSpaceOnUse">
<stop offset="0.08" stop-color="#ED6C30"/>
<stop offset="1" stop-color="#BF360C" stop-opacity="0.2"/>
</linearGradient>
<radialGradient id="paint3_radial_4_5118" cx="0" cy="0" r="1" gradientUnits="userSpaceOnUse" gradientTransform="translate(37.9115 56.2562) scale(48.7196 48.7196)">
<stop offset="0.27" stop-color="#FFF176"/>
<stop offset="1" stop-color="#FFC400"/>
</radialGradient>
</defs>
</svg>
