<svg width="88" height="85" viewBox="0 0 88 85" fill="none" xmlns="http://www.w3.org/2000/svg">
<path d="M43.9335 84.6857C22.8 84.6857 0 71.4299 0 42.3428C0 13.2558 22.8 0 43.9335 0C55.6744 0 66.5063 3.86312 74.5355 10.9076C83.2465 18.6339 87.8671 29.5415 87.8671 42.3428C87.8671 55.1442 83.2465 65.9761 74.5355 73.7023C66.5063 80.7468 55.5986 84.6857 43.9335 84.6857Z" fill="url(#paint0_radial_4_5261)"/>
<path d="M80.2094 17.1747C84.2467 23.689 86.3525 31.4455 86.3525 40.0731C86.3525 52.8745 81.7319 63.7064 73.0209 71.4326C64.9917 78.4771 54.0841 82.416 42.419 82.416C28.739 82.416 14.3621 76.8485 5.92383 65.0395C14.0743 78.4165 29.398 84.6884 43.9339 84.6884C55.599 84.6884 66.5067 80.7495 74.5359 73.705C83.2468 65.9788 87.8674 55.1469 87.8674 42.3456C87.8674 32.6953 85.239 24.1207 80.2094 17.1747Z" fill="#AC95CF"/>
<path opacity="0.8" d="M16.3994 62.3597C23.7203 62.3597 29.6552 56.4249 29.6552 49.1039C29.6552 41.7829 23.7203 35.8481 16.3994 35.8481C9.07838 35.8481 3.14355 41.7829 3.14355 49.1039C3.14355 56.4249 9.07838 62.3597 16.3994 62.3597Z" fill="url(#paint1_radial_4_5261)"/>
<path opacity="0.8" d="M72.0722 62.3597C79.3932 62.3597 85.328 56.4249 85.328 49.1039C85.328 41.7829 79.3932 35.8481 72.0722 35.8481C64.7512 35.8481 58.8164 41.7829 58.8164 49.1039C58.8164 56.4249 64.7512 62.3597 72.0722 62.3597Z" fill="url(#paint2_radial_4_5261)"/>
<path d="M32.8469 37.7808C32.8469 37.7808 32.809 37.7278 32.7257 37.6293C32.6499 37.5309 32.5439 37.3945 32.4075 37.2203C32.2939 37.0991 32.1576 36.9552 31.9985 36.7885C31.8394 36.6067 31.6425 36.4174 31.4455 36.2204C31.241 36.0311 31.0289 35.8341 30.8093 35.675C30.5972 35.5008 30.3624 35.3721 30.173 35.266C29.976 35.1448 29.7943 35.1145 29.6806 35.0766C29.62 35.0539 29.567 35.0539 29.5216 35.0463C29.4988 35.0539 29.4761 35.0388 29.4534 35.0463L29.4231 35.0539H29.4079H29.4004C29.4913 35.0539 29.1958 35.0615 29.6049 35.0463L29.1883 35.0615C29.0822 35.0615 29.1504 35.0691 29.158 35.0691C29.1807 35.0691 29.1958 35.0691 29.211 35.0615C29.2716 35.0388 29.211 35.0615 29.1958 35.0615C29.1731 35.0615 29.1428 35.0691 29.1125 35.0842C28.9913 35.1221 28.8095 35.1524 28.6202 35.2736C28.4308 35.3796 28.196 35.5084 27.9839 35.6826C27.7718 35.8493 27.5521 36.0386 27.3476 36.228C26.9537 36.6143 26.6053 37.0006 26.3629 37.2809C26.1129 37.5687 25.9766 37.7354 25.9766 37.7354L25.8024 37.9399C24.7646 39.1519 22.8558 39.3564 21.5454 38.402C20.6515 37.7505 20.2652 36.7355 20.4319 35.7659C20.4319 35.7659 20.4849 35.4554 20.6364 34.9176C20.7955 34.3798 21.0606 33.6147 21.5832 32.7133C22.1059 31.8195 22.8634 30.7666 24.1435 29.8046C24.7722 29.335 25.5372 28.8653 26.4462 28.5472C26.6659 28.4639 26.9007 28.3881 27.1431 28.3275C27.3931 28.2669 27.59 28.1988 27.9309 28.1533L28.4005 28.0851C28.5444 28.07 28.7565 28.0473 28.7868 28.0473L29.2034 28.017L29.4382 28.0094H29.461H29.5064L29.6049 28.017H29.7867L30.173 28.0397C30.4305 28.0624 30.6805 28.1079 30.9305 28.1457C31.4228 28.2366 31.9152 28.3654 32.3621 28.5321C33.2711 28.8502 34.0361 29.3123 34.6648 29.7895C35.9449 30.7515 36.7024 31.8043 37.2251 32.6982C37.4902 33.1451 37.6871 33.5693 37.8311 33.9404C37.9901 34.2964 38.1038 34.6752 38.1946 34.9554C38.278 35.2281 38.278 35.3721 38.3158 35.5008C38.3386 35.622 38.3461 35.6902 38.3461 35.6902C38.6264 37.2203 37.4978 38.6671 35.8389 38.917C34.6497 39.1064 33.5059 38.6292 32.8469 37.7808Z" fill="#422B0D"/>
<path d="M62.7636 37.7808C62.7636 37.7808 62.7258 37.7278 62.6424 37.6293C62.5667 37.5309 62.4606 37.3945 62.3243 37.2203C62.2107 37.0991 62.0743 36.9552 61.9153 36.7885C61.7562 36.6067 61.5592 36.4174 61.3623 36.2204C61.1578 36.0311 60.9457 35.8341 60.726 35.675C60.5139 35.5008 60.2791 35.3721 60.0897 35.266C59.8928 35.1448 59.711 35.1145 59.5974 35.0766C59.5368 35.0539 59.4838 35.0539 59.4383 35.0463C59.4156 35.0539 59.3929 35.0388 59.3701 35.0463L59.3398 35.0539H59.3247H59.3171H59.3095C59.4004 35.0539 59.105 35.0615 59.5141 35.0463L59.0975 35.0615C58.9914 35.0615 59.0596 35.0691 59.0672 35.0691C59.0899 35.0691 59.105 35.0691 59.1202 35.0615C59.1808 35.0388 59.1202 35.0615 59.105 35.0615C59.0823 35.0615 59.052 35.0691 59.0217 35.0842C58.9005 35.1221 58.7187 35.1524 58.5294 35.2736C58.34 35.3796 58.1052 35.5084 57.8931 35.6826C57.681 35.8493 57.4613 36.0386 57.2568 36.228C56.8629 36.6143 56.5145 37.0006 56.2721 37.2809C56.0221 37.5687 55.8858 37.7354 55.8858 37.7354L55.7115 37.9399C54.6738 39.1519 52.765 39.3564 51.4545 38.402C50.5607 37.7505 50.1744 36.7355 50.341 35.7659C50.341 35.7659 50.3941 35.4554 50.5456 34.9176C50.7046 34.3798 50.9698 33.6147 51.4924 32.7133C52.0151 31.8195 52.7725 30.7666 54.0527 29.8046C54.6814 29.335 55.4464 28.8653 56.3554 28.5472C56.5751 28.4639 56.8099 28.3881 57.0523 28.3275C57.3022 28.2669 57.4992 28.1988 57.84 28.1533L58.3097 28.0851C58.4536 28.07 58.6657 28.0473 58.696 28.0473L59.1126 28.017L59.3474 28.0094H59.3701H59.4156L59.5141 28.017H59.6959L60.0822 28.0397C60.3397 28.0624 60.5897 28.1079 60.8396 28.1457C61.332 28.2366 61.8244 28.3654 62.2713 28.5321C63.1802 28.8502 63.9453 29.3123 64.574 29.7895C65.8541 30.7515 66.6116 31.8043 67.1343 32.6982C67.3994 33.1451 67.5963 33.5693 67.7402 33.9404C67.8993 34.2964 68.0129 34.6752 68.1038 34.9554C68.1872 35.2281 68.1871 35.3721 68.225 35.5008C68.2477 35.622 68.2553 35.6902 68.2553 35.6902C68.5356 37.2203 67.407 38.6671 65.7481 38.917C64.5588 39.1064 63.4151 38.6292 62.7636 37.7808Z" fill="#422B0D"/>
<path d="M44.2581 65.8877C34.7367 65.8877 27.2074 61.3807 23.0564 56.5556C22.6398 56.0708 22.5413 55.4194 22.8064 54.8513C23.0716 54.268 23.6472 53.8893 24.2684 53.8893C24.5486 53.8893 24.8365 53.965 25.0864 54.109C29.3662 56.5783 36.5546 59.631 44.2354 59.631H44.3566C52.045 59.631 59.2258 56.5708 63.5056 54.109C63.7631 53.965 64.0434 53.8817 64.3236 53.8893C64.9448 53.8893 65.5204 54.268 65.7856 54.8513C66.0431 55.4194 65.9522 56.0784 65.5356 56.5556C61.3846 61.3731 53.8478 65.8877 44.3339 65.8877" fill="#422B0D"/>
<defs>
<radialGradient id="paint0_radial_4_5261" cx="0" cy="0" r="1" gradientUnits="userSpaceOnUse" gradientTransform="translate(43.9335 42.3428) scale(43.1455 43.1455)">
<stop offset="0.5" stop-color="#FDE030"/>
<stop offset="0.9188" stop-color="#F7C02B"/>
<stop offset="1" stop-color="#F4A223"/>
</radialGradient>
<radialGradient id="paint1_radial_4_5261" cx="0" cy="0" r="1" gradientUnits="userSpaceOnUse" gradientTransform="translate(16.3998 49.1029) scale(14.4208 13.6991)">
<stop stop-color="#ED7770"/>
<stop offset="0.9" stop-color="#ED7770" stop-opacity="0"/>
</radialGradient>
<radialGradient id="paint2_radial_4_5261" cx="0" cy="0" r="1" gradientUnits="userSpaceOnUse" gradientTransform="translate(72.074 49.1029) scale(14.4208 13.6991)">
<stop stop-color="#ED7770"/>
<stop offset="0.9" stop-color="#ED7770" stop-opacity="0"/>
</radialGradient>
</defs>
</svg>
