<svg width="85" height="83" viewBox="0 0 85 83" fill="none" xmlns="http://www.w3.org/2000/svg">
<path d="M42.4999 82.8978C22.056 82.8978 0 70.0745 0 41.9367C0 13.7988 22.056 0.975586 42.4999 0.975586C53.8576 0.975586 64.336 4.71264 72.1033 11.5273C80.53 19.0014 84.9998 29.5531 84.9998 41.9367C84.9998 54.3203 80.53 64.7987 72.1033 72.2728C64.336 79.0875 53.7843 82.8978 42.4999 82.8978Z" fill="url(#paint0_radial_4_5076)"/>
<path d="M77.5919 17.5869C81.4975 23.8886 83.5346 31.3921 83.5346 39.7381C83.5346 52.1217 79.0647 62.6002 70.638 70.0743C62.8708 76.8889 52.3191 80.6992 41.0347 80.6992C27.8011 80.6992 13.9227 75.3135 5.73047 63.8898C13.6149 76.8303 28.4459 82.8975 42.5002 82.8975C53.7846 82.8975 64.3363 79.0872 72.1036 72.2725C80.5303 64.7984 85.0001 54.32 85.0001 41.9364C85.0001 32.6011 82.4574 24.3063 77.5919 17.5869Z" fill="#AC95CF"/>
<path d="M23.7422 36.1484H34.7335" stroke="#35220B" stroke-width="5.86205" stroke-linecap="round" stroke-linejoin="round"/>
<path d="M51.5859 36.1484H62.5773" stroke="#35220B" stroke-width="5.86205" stroke-linecap="round" stroke-linejoin="round"/>
<path d="M61.1118 60.3288H24.474C22.8546 60.3288 21.543 59.0172 21.543 57.3978C21.543 55.7784 22.8546 54.4667 24.474 54.4667H61.1118C62.7312 54.4667 64.0429 55.7784 64.0429 57.3978C64.0429 59.0172 62.7312 60.3288 61.1118 60.3288Z" fill="#422B0D"/>
<defs>
<radialGradient id="paint0_radial_4_5076" cx="0" cy="0" r="1" gradientUnits="userSpaceOnUse" gradientTransform="translate(42.4999 41.9366) scale(41.7376 41.7376)">
<stop offset="0.5" stop-color="#FDE030"/>
<stop offset="0.92" stop-color="#F7C02B"/>
<stop offset="1" stop-color="#F4A223"/>
</radialGradient>
</defs>
</svg>
