<svg width="87" height="83" viewBox="0 0 87 83" fill="none" xmlns="http://www.w3.org/2000/svg">
<path d="M43.5293 82.6884C23.0074 82.6884 0.867188 69.8162 0.867188 41.5709C0.867188 13.3257 23.0074 0.453461 43.5293 0.453461C54.9304 0.453461 65.4488 4.20479 73.2457 11.0454C81.7046 18.5481 86.1915 29.1401 86.1915 41.5709C86.1915 54.0018 81.7046 64.5202 73.2457 72.0229C65.4341 78.8635 54.8569 82.6884 43.5293 82.6884Z" fill="url(#paint0_radial_4_5273)"/>
<path d="M29.3922 25.4183C26.3103 25.4183 23.5078 28.0222 23.5078 32.3472C23.5078 36.6723 26.3103 39.2688 29.3922 39.2688C32.4816 39.2688 35.2767 36.6649 35.2767 32.3472C35.2767 28.0295 32.511 25.4183 29.3922 25.4183Z" fill="#422B0D"/>
<path d="M29.1359 28.309C28.0914 27.8088 26.8336 28.2502 26.3261 29.2947C25.9363 30.1111 26.1128 31.0894 26.7674 31.722C27.8119 32.2222 29.0697 31.7808 29.5772 30.7363C29.9671 29.9199 29.7906 28.9416 29.1359 28.309Z" fill="#896024"/>
<path d="M57.6364 25.4183C54.5544 25.4183 51.752 28.0222 51.752 32.3472C51.752 36.6723 54.5544 39.2688 57.6364 39.2688C60.7184 39.2688 63.5208 36.6649 63.5208 32.3472C63.5208 28.0295 60.7184 25.4183 57.6364 25.4183Z" fill="#422B0D"/>
<path d="M57.3429 28.309C56.2985 27.8088 55.0407 28.2502 54.5331 29.2947C54.1433 30.1111 54.3198 31.0894 54.9745 31.722C56.0189 32.2222 57.2767 31.7808 57.7843 30.7363C58.1741 29.9199 57.9976 28.9416 57.3429 28.309Z" fill="#896024"/>
<path d="M79.0342 17.1283C82.9547 23.454 84.9996 30.9861 84.9996 39.3641C84.9996 51.7949 80.5127 62.3134 72.0538 69.816C64.257 76.6567 53.665 80.4816 42.3374 80.4816C29.0533 80.4816 15.1219 75.0752 6.89844 63.6079C14.813 76.5978 29.7006 82.6882 43.8085 82.6882C55.1361 82.6882 65.7281 78.8633 73.5249 72.0227C81.9838 64.52 86.4707 54.0016 86.4707 41.5707C86.4707 32.1998 83.9183 23.8733 79.0342 17.1283Z" fill="#AC95CF"/>
<path d="M72.1054 47.9842C71.0756 46.1232 68.8395 45.3068 66.8535 46.057C59.3067 48.2563 51.4804 49.3523 43.6174 49.3155C35.7543 49.3523 27.928 48.2563 20.3812 46.057C18.4026 45.3068 16.1665 46.1159 15.1367 47.9695C14.1364 49.8157 14.8572 51.9562 15.7031 53.8024C20.4253 64.1737 30.8334 70.3818 43.5585 70.4186H43.6762C56.4013 70.4186 66.8094 64.1737 71.539 53.8024C72.3775 51.9415 73.1057 49.8304 72.1054 47.9842Z" fill="#422B0D"/>
<path d="M55.3939 67.4919C55.1217 67.2418 54.8422 67.0138 54.5627 66.7563C51.5617 64.1157 47.6779 62.6961 43.6765 62.777C39.5574 62.7108 35.5486 64.0789 32.3343 66.6534C32.0548 66.8814 31.7605 67.102 31.4884 67.3889C31.2162 67.6758 31.0691 67.8817 30.8926 68.1245C34.9381 69.7059 39.2485 70.515 43.5956 70.493H43.7133C47.8765 70.493 52.003 69.75 55.9014 68.2863C55.7543 68.0068 55.5851 67.742 55.3939 67.4919Z" fill="#ED7770"/>
<path d="M66.854 46.0582C59.3072 48.2575 51.4809 49.3535 43.6178 49.3167C35.7548 49.3535 27.9285 48.2575 20.3817 46.0582C18.403 45.3079 16.167 46.117 15.1372 47.9706C14.9901 48.2501 14.8724 48.5443 14.7988 48.8459C15.0416 48.971 15.3211 49.096 15.6521 49.2284C24.5081 53.6638 34.2984 55.9146 44.1989 55.7969C53.6949 55.9072 63.0806 53.8403 71.6572 49.7654C72.0029 49.6183 72.2897 49.4785 72.5472 49.3461C72.4883 48.868 72.3339 48.3972 72.1059 47.9706C71.0761 46.117 68.84 45.3006 66.854 46.0582Z" fill="white"/>
<path d="M72.1348 47.9915C71.0903 46.1306 68.8469 45.3068 66.8462 46.057C59.2994 48.2563 51.4731 49.3523 43.6174 49.3155C35.7543 49.3523 27.928 48.2563 20.3812 46.057C18.4026 45.3068 16.1665 46.1159 15.1367 47.9695C14.1364 49.8157 14.8572 51.9562 15.7031 53.8024C16.0782 54.6336 16.4975 55.45 16.9609 56.2371C16.9609 56.2371 15.4162 50.5145 16.7549 48.8521C17.211 48.146 17.9759 47.7047 18.8145 47.6605C19.1602 47.6605 19.4985 47.7194 19.8295 47.8224C27.5087 50.0805 35.4748 51.2206 43.485 51.2059H43.7424C51.7526 51.2206 59.7187 50.0805 67.3978 47.8224C67.7288 47.7194 68.0672 47.6605 68.4129 47.6605C69.2514 47.7047 70.0238 48.146 70.4798 48.8521C71.8406 50.5145 70.2739 56.2592 70.2739 56.2592C70.7299 55.4721 71.1859 54.663 71.5684 53.8245C72.407 51.9782 73.1352 49.8451 72.1348 47.9915Z" fill="#AC95CF"/>
<defs>
<radialGradient id="paint0_radial_4_5273" cx="0" cy="0" r="1" gradientUnits="userSpaceOnUse" gradientTransform="translate(43.5293 41.5709) scale(41.8969 41.8969)">
<stop offset="0.5" stop-color="#FDE030"/>
<stop offset="0.92" stop-color="#F7C02B"/>
<stop offset="1" stop-color="#F4A223"/>
</radialGradient>
</defs>
</svg>
