<svg width="88" height="85" viewBox="0 0 88 85" fill="none" xmlns="http://www.w3.org/2000/svg">
<path d="M43.9368 84.8943C22.8017 84.8943 0 71.6375 0 42.5482C0 13.4589 22.8017 0.202118 43.9368 0.202118C55.6785 0.202118 66.5112 4.06553 74.5411 11.1106C83.2527 18.8374 87.8736 29.7459 87.8736 42.5482C87.8736 55.3505 83.2527 66.1832 74.5411 73.9101C66.5112 80.9551 55.6028 84.8943 43.9368 84.8943Z" fill="url(#paint0_radial_4_5102)"/>
<path d="M80.2149 17.3789C84.2525 23.8937 86.3585 31.6508 86.3585 40.2791C86.3585 53.0814 81.7375 63.9141 73.0259 71.641C64.9961 78.686 54.0877 82.6252 42.4217 82.6252C28.7407 82.6252 14.3627 77.0573 5.92383 65.2474C14.0749 78.6254 29.3997 84.8978 43.9367 84.8978C55.6027 84.8978 66.5112 80.9586 74.541 73.9136C83.2526 66.1867 87.8735 55.354 87.8735 42.5517C87.8735 32.9007 85.2449 24.3255 80.2149 17.3789Z" fill="#AC95CF"/>
<path d="M43.9368 84.8943C22.8017 84.8943 0 71.6375 0 42.5482C0 13.4589 22.8017 0.202118 43.9368 0.202118C55.6785 0.202118 66.5112 4.06553 74.5411 11.1106C83.2527 18.8374 87.8736 29.7459 87.8736 42.5482C87.8736 55.3505 83.2527 66.1832 74.5411 73.9101C66.5112 80.9551 55.6028 84.8943 43.9368 84.8943Z" fill="url(#paint1_radial_4_5102)"/>
<path d="M80.2149 17.3789C84.2525 23.8937 86.3585 31.6508 86.3585 40.2791C86.3585 53.0814 81.7375 63.9141 73.0259 71.641C64.9961 78.686 54.0877 82.6252 42.4217 82.6252C28.7407 82.6252 14.3627 77.0573 5.92383 65.2474C14.0749 78.6254 29.3997 84.8978 43.9367 84.8978C55.6027 84.8978 66.5112 80.9586 74.541 73.9136C83.2526 66.1867 87.8735 55.354 87.8735 42.5517C87.8735 32.9007 85.2449 24.3255 80.2149 17.3789Z" fill="#AC95CF"/>
<path d="M57.6466 21.1778C51.2455 22.9277 47.7533 28.3667 48.8441 35.3209C49.5108 39.6085 53.806 47.9187 65.1992 45.4037C71.9943 43.9037 75.4335 38.9571 75.3047 32.4801C75.2971 32.0787 75.0396 31.8438 74.9638 31.8287C74.9638 31.8287 74.8047 31.9802 74.5472 32.9422C73.2442 37.7829 69.8429 42.3053 63.7599 42.9796C56.1467 43.828 52.2682 38.5404 51.6773 34.7527C50.897 29.7152 53.4575 25.3063 58.4117 23.9503C61.3434 23.1473 64.1917 23.9806 66.2295 26.2381C67.184 27.2986 68.2142 29.2606 67.8657 31.1999C66.9037 36.4951 61.9873 36.4193 60.298 35.1618C59.0102 34.1922 58.5557 32.1771 61.2449 31.5181C62.2221 31.2832 63.063 31.056 63.3281 29.7606C63.5024 28.9349 62.8206 28.094 62.0858 27.7228C60.4647 26.8971 58.4117 27.6622 57.1921 28.7228C55.8816 29.8591 55.3362 31.6393 55.6846 33.6013C55.9573 35.1315 57.1997 37.1314 59.3435 38.1995C61.9873 39.5176 68.9566 39.3585 70.5928 32.5256C71.3428 29.3818 69.9717 26.132 68.5021 24.4579C64.3584 19.7687 58.692 20.8899 57.6466 21.1778Z" fill="#422B0D"/>
<path d="M30.226 45.5432C36.6271 43.7933 40.1193 38.3543 39.0285 31.4001C38.3619 27.1125 34.0667 18.8023 22.6734 21.3173C15.8784 22.8173 12.4392 27.764 12.5679 34.2409C12.5755 34.6424 12.8331 34.8772 12.9088 34.8923C12.9088 34.8923 13.0679 34.7408 13.3255 33.7788C14.6284 28.9381 18.0297 24.4157 24.1127 23.7415C31.7259 22.893 35.6045 28.1806 36.1953 31.9683C36.9756 37.0059 34.4151 41.4147 29.4609 42.7707C26.5292 43.5737 23.6809 42.7404 21.6432 40.4829C20.6887 39.4224 19.6584 37.4604 20.0069 35.5211C20.969 30.2259 25.8853 30.3017 27.5746 31.5592C28.8624 32.5288 29.317 34.5439 26.6277 35.2029C25.6505 35.4378 24.8096 35.665 24.5445 36.9604C24.3703 37.7861 25.0521 38.627 25.7869 38.9982C27.408 39.8239 29.4609 39.0588 30.6805 37.9982C31.991 36.8619 32.5365 35.0817 32.188 33.1197C31.9153 31.5895 30.6729 29.5896 28.5291 28.5215C25.8853 27.2034 18.9161 27.3625 17.2798 34.1954C16.5298 37.3392 17.901 40.589 19.3706 42.2631C23.5143 46.9447 29.1806 45.8311 30.226 45.5432Z" fill="#422B0D"/>
<path d="M70.8194 61.0002C69.6906 59.6973 66.2363 57.3565 59.964 60.4245C58.5701 61.1063 57.8353 61.879 55.3127 61.6972C53.6537 61.5835 52.4114 60.7805 50.9872 59.8639C49.1767 58.6973 47.1238 57.3944 43.9422 57.2656C40.7605 57.3944 38.7076 58.6973 36.8971 59.8639C35.4654 60.7881 34.2306 61.5835 32.5716 61.6972C30.049 61.879 29.2461 61.2275 27.8522 60.5457C21.5799 57.4777 18.1937 59.6973 17.065 61.0002C16.0575 62.1668 16.7392 63.4092 18.5952 62.0835C19.7391 61.2654 21.792 60.2275 26.4356 62.8486C27.928 63.6895 29.337 64.9621 32.7837 64.7197C35.223 64.5455 36.9123 63.4622 38.541 62.4092C40.1318 61.379 41.6544 60.4169 43.9422 60.2957C46.2375 60.4169 47.7525 61.379 49.3434 62.4092C50.9721 63.4622 52.6613 64.5531 55.1006 64.7197C58.5474 64.9621 59.8882 63.5683 61.3805 62.7274C66.0242 60.1063 68.1453 61.2654 69.2892 62.0835C71.1375 63.4092 71.8269 62.1668 70.8194 61.0002Z" fill="#422B0D"/>
<defs>
<radialGradient id="paint0_radial_4_5102" cx="0" cy="0" r="1" gradientUnits="userSpaceOnUse" gradientTransform="translate(43.9368 42.5481) scale(43.1487 43.1488)">
<stop offset="0.5" stop-color="#FDE030"/>
<stop offset="0.9188" stop-color="#F7C02B"/>
<stop offset="1" stop-color="#F4A223"/>
</radialGradient>
<radialGradient id="paint1_radial_4_5102" cx="0" cy="0" r="1" gradientUnits="userSpaceOnUse" gradientTransform="translate(43.9368 42.5481) scale(43.1487 43.1488)">
<stop offset="0.5" stop-color="#FDE030"/>
<stop offset="0.9188" stop-color="#F7C02B"/>
<stop offset="1" stop-color="#F4A223"/>
</radialGradient>
</defs>
</svg>
