<svg width="86" height="83" viewBox="0 0 86 83" fill="none" xmlns="http://www.w3.org/2000/svg">
<path d="M42.5611 82.0402C22.0877 82.0402 0 69.1985 0 41.0201C0 12.8417 22.0877 0 42.5611 0C53.9352 0 64.4287 3.74244 72.2071 10.5669C80.646 18.0518 85.1222 28.6187 85.1222 41.0201C85.1222 53.4215 80.646 63.9151 72.2071 71.3999C64.4287 78.2244 53.8618 82.0402 42.5611 82.0402Z" fill="url(#paint0_radial_4_5249)"/>
<path d="M77.713 16.6377C81.6242 22.9485 83.6642 30.4627 83.6642 38.8208C83.6642 51.2223 79.188 61.7158 70.7491 69.2007C62.9707 76.0251 52.4038 79.8409 41.1031 79.8409C27.8505 79.8409 13.9521 74.4474 5.74805 63.0073C13.6439 75.9664 28.4962 82.0424 42.5707 82.0424C53.8714 82.0424 64.4383 78.2266 72.2168 71.4021C80.6556 63.9172 85.1318 53.4237 85.1318 41.0223C85.1318 31.6735 82.5855 23.3668 77.713 16.6377Z" fill="#AC95CF"/>
<path d="M31.8435 36.6111L31.7335 36.4643L31.4179 36.0607L31.029 35.6425C30.8676 35.459 30.6768 35.2829 30.4933 35.0921C30.3099 34.9013 30.0824 34.7179 29.8769 34.5638C29.6861 34.417 29.4807 34.2776 29.2605 34.1675C29.1138 34.0868 28.9523 34.0207 28.7835 33.984C28.7322 33.9767 28.6808 33.9767 28.6294 33.984C28.6294 33.984 28.5854 33.984 28.5634 33.984H28.5047H28.7028H28.2992C28.1891 33.984 28.2625 33.984 28.2992 33.984H28.3579H28.2772C28.1084 34.0207 27.947 34.0794 27.7929 34.1675C27.5801 34.2849 27.3673 34.417 27.1765 34.5638C26.9637 34.7252 26.7582 34.9013 26.5674 35.0921C26.1785 35.4663 25.8336 35.8259 25.6135 36.1121L25.2319 36.5524L25.0631 36.7505C24.0064 37.932 22.2233 38.1227 20.9391 37.1981C20.1172 36.6258 19.6989 35.6351 19.8604 34.6445C19.8604 34.6445 19.9117 34.351 20.0512 33.8299C20.2713 33.0888 20.5795 32.3697 20.9684 31.6946C21.5922 30.5938 22.4361 29.6325 23.4487 28.8694C24.1165 28.3557 24.8576 27.9448 25.6502 27.6586C25.8703 27.5705 26.0978 27.5045 26.3253 27.4458C26.5674 27.3724 26.8096 27.321 27.0591 27.277L27.5067 27.211L27.8809 27.1669H28.2845H28.8643H29.2385C29.488 27.1669 29.7302 27.233 29.9723 27.2697C30.442 27.3504 30.9116 27.4751 31.3592 27.6439C32.1517 27.9301 32.8929 28.341 33.5607 28.8547C34.5733 29.6179 35.4172 30.5792 36.0409 31.6799C36.2684 32.0615 36.4666 32.4651 36.628 32.876C36.7674 33.2062 36.8848 33.5364 36.9802 33.8813C37.0316 34.0574 37.0756 34.2335 37.0976 34.4097V34.5931C37.3178 36.0901 36.2758 37.4843 34.7788 37.7045C34.7421 37.7118 34.7054 37.7118 34.6687 37.7192C33.5973 37.8733 32.526 37.4476 31.8435 36.6111Z" fill="#422B0D"/>
<path d="M60.7981 36.6111L60.6807 36.4643L60.3652 36.0607L59.9763 35.6425C59.8148 35.459 59.624 35.2829 59.4406 35.0921C59.2571 34.9013 59.0296 34.7179 58.8242 34.5638C58.6334 34.417 58.4279 34.2776 58.2078 34.1675C58.061 34.0868 57.8996 34.0207 57.7308 33.984C57.6794 33.9767 57.6281 33.9767 57.5767 33.984C57.5767 33.984 57.5327 33.984 57.5107 33.984H57.452H57.6501H57.2465C57.1364 33.984 57.2098 33.984 57.2465 33.984H57.3052H57.2245C57.0557 34.0207 56.8943 34.0794 56.7402 34.1675C56.5273 34.2776 56.3219 34.417 56.1311 34.5638C55.9109 34.7252 55.7055 34.9013 55.5147 35.0921C55.1258 35.4663 54.7809 35.8259 54.5607 36.1121L54.1792 36.5524L54.0177 36.7505C52.9537 37.932 51.1779 38.1227 49.8863 37.1981C49.0645 36.6258 48.6462 35.6351 48.8076 34.6445C48.8076 34.6445 48.859 34.351 49.0058 33.8299C49.2259 33.0815 49.5268 32.3623 49.923 31.6946C50.5468 30.5938 51.3833 29.6325 52.396 28.8694C53.0638 28.3557 53.8049 27.9448 54.5974 27.6586C54.8176 27.5705 55.045 27.5045 55.2725 27.4458C55.5147 27.3724 55.7568 27.321 56.0063 27.277L56.4613 27.211L56.8282 27.1669H57.2318H57.8115H58.1858C58.4353 27.1669 58.6774 27.233 58.9196 27.2697C59.3966 27.3504 59.8589 27.4751 60.3065 27.6439C61.099 27.9301 61.8402 28.341 62.5079 28.8547C63.5206 29.6179 64.3645 30.5792 64.9882 31.6799C65.2157 32.0615 65.4138 32.4651 65.5753 32.876C65.7147 33.1989 65.8321 33.5291 65.9275 33.8666C65.9788 34.0428 66.0229 34.2189 66.0449 34.395V34.5784C66.2797 36.0754 65.2524 37.477 63.7554 37.7118C63.7334 37.7118 63.7114 37.7192 63.6894 37.7192C62.596 37.9026 61.4879 37.477 60.7981 36.6111Z" fill="#422B0D"/>
<path d="M70.7896 47.4179C69.7623 45.5614 67.5315 44.7468 65.5502 45.4953C58.0213 47.6894 50.2135 48.7828 42.3691 48.7461C34.5246 48.7828 26.7169 47.6894 19.188 45.4953C17.214 44.7468 14.9832 45.554 13.9559 47.4032C12.9579 49.2451 13.677 51.3805 14.5209 53.2224C19.232 63.5691 29.6154 69.7625 42.3104 69.7992H42.4278C55.1227 69.7992 65.5062 63.5691 70.2246 53.2224C71.0611 51.3658 71.7876 49.2598 70.7896 47.4179Z" fill="#422B0D"/>
<path d="M54.1152 66.8808C53.8436 66.6313 53.5648 66.4039 53.2859 66.147C50.292 63.5126 46.4175 62.0964 42.4255 62.1771C38.3162 62.1111 34.3169 63.4759 31.1101 66.0443C30.8313 66.2718 30.5378 66.4919 30.2663 66.7781C29.9948 67.0643 29.848 67.2698 29.6719 67.5119C33.7078 69.0896 38.008 69.8968 42.3448 69.8748H42.4622C46.6156 69.8748 50.7323 69.1336 54.6215 67.6733C54.4747 67.3945 54.3059 67.1303 54.1152 66.8808Z" fill="#ED7770"/>
<path d="M65.5569 45.4947C58.028 47.6888 50.2202 48.7822 42.3758 48.7455C34.5313 48.7822 26.7235 47.6888 19.1946 45.4947C17.2207 44.7462 14.9899 45.5534 13.9626 47.4026C13.8158 47.6814 13.6984 47.975 13.625 48.2758C13.8672 48.4006 14.146 48.5253 14.4762 48.6574C23.3113 53.0823 33.0784 55.3278 42.9555 55.2103C52.429 55.3204 61.7924 53.2584 70.3487 49.1931C70.6936 49.0463 70.9797 48.9069 71.2366 48.7748C71.1779 48.2978 71.0238 47.8282 70.7963 47.4026C69.769 45.5534 67.5382 44.7388 65.5569 45.4947Z" fill="white"/>
<path d="M70.8229 47.4215C69.7809 45.565 67.5427 44.7431 65.5468 45.4916C58.0179 47.6857 50.2101 48.7791 42.373 48.7424C34.5285 48.7791 26.7208 47.6857 19.1919 45.4916C17.2179 44.7431 14.9871 45.5503 13.9598 47.3995C12.9618 49.2414 13.6809 51.3767 14.5248 53.2186C14.8991 54.0478 15.3173 54.8624 15.7796 55.6475C15.7796 55.6475 14.2386 49.9385 15.5742 48.2801C16.0291 47.5756 16.7923 47.1353 17.6288 47.0913C17.9737 47.0913 18.3113 47.15 18.6415 47.2527C26.3025 49.5055 34.2497 50.6429 42.2409 50.6283H42.4977C50.4889 50.6429 58.4361 49.5055 66.0971 47.2527C66.4274 47.15 66.7649 47.0913 67.1098 47.0913C67.9464 47.1353 68.7169 47.5756 69.1718 48.2801C70.5294 49.9385 68.9663 55.6696 68.9663 55.6696C69.4213 54.8844 69.8763 54.0772 70.2579 53.2406C71.0944 51.3988 71.8209 49.2707 70.8229 47.4215Z" fill="#AC95CF"/>
<defs>
<radialGradient id="paint0_radial_4_5249" cx="0" cy="0" r="1" gradientUnits="userSpaceOnUse" gradientTransform="translate(42.5611 41.0201) scale(41.7977 41.7977)">
<stop offset="0.5" stop-color="#FDE030"/>
<stop offset="0.92" stop-color="#F7C02B"/>
<stop offset="1" stop-color="#F4A223"/>
</radialGradient>
</defs>
</svg>
