<svg width="86" height="82" viewBox="0 0 86 82" fill="none" xmlns="http://www.w3.org/2000/svg">
<path d="M43.3939 81.8978C22.9946 81.8978 0.986816 69.1026 0.986816 41.0262C0.986816 12.9497 22.9946 0.15451 43.3939 0.15451C54.7268 0.15451 65.1824 3.88341 72.9326 10.6832C81.3409 18.141 85.801 28.6696 85.801 41.0262C85.801 53.3827 81.3409 63.8382 72.9326 71.296C65.1824 78.0958 54.6537 81.8978 43.3939 81.8978Z" fill="url(#paint0_radial_4_5085)"/>
<path d="M78.4101 16.7298C82.3071 23.0177 84.3398 30.5048 84.3398 38.8326C84.3398 51.1892 79.8797 61.6447 71.4714 69.1025C63.7211 75.9023 53.1925 79.7043 41.9327 79.7043C28.728 79.7043 14.8799 74.3303 6.70557 62.9315C14.5728 75.8438 29.3714 81.8977 43.395 81.8977C54.6548 81.8977 65.1835 78.0957 72.9337 71.296C81.342 63.8382 85.8021 53.3826 85.8021 41.0261C85.8021 31.7112 83.265 23.4345 78.4101 16.7298Z" fill="#AC95CF"/>
<path d="M43.3939 81.8978C22.9946 81.8978 0.986816 69.1026 0.986816 41.0262C0.986816 12.9497 22.9946 0.15451 43.3939 0.15451C54.7268 0.15451 65.1824 3.88341 72.9326 10.6832C81.3409 18.141 85.801 28.6696 85.801 41.0262C85.801 53.3827 81.3409 63.8382 72.9326 71.296C65.1824 78.0958 54.6537 81.8978 43.3939 81.8978Z" fill="url(#paint1_linear_4_5085)"/>
<path d="M43.6867 68.0785C46.5016 68.0785 49.2946 68.5611 51.9487 69.4897C57.5786 71.4565 62.4555 65.1027 59.1872 60.1309C55.78 54.9908 50.4791 53.5285 43.6867 53.5285C36.8942 53.5285 31.6007 54.925 28.1935 60.1089C24.9179 65.0881 29.802 71.4272 35.4319 69.4677C38.086 68.5392 40.879 68.0712 43.6867 68.0785Z" fill="#422B0D"/>
<path d="M11.1651 73.2699C4.97952 73.2699 0.197754 67.2671 0.197754 62.127C0.197754 58.5151 1.81361 54.3256 4.10213 48.5202C4.38728 47.6648 4.76748 46.802 5.14768 45.8515C6.23711 43.1316 7.19492 40.185 8.65723 37.6333C9.35183 36.3903 10.9238 35.9516 12.1595 36.6462C12.5689 36.8802 12.9126 37.2165 13.1465 37.6333C14.5065 40.1412 15.4424 42.8537 16.8535 46.0197C20.8529 54.969 21.9716 58.5882 21.9716 62.2001C22.1105 67.2963 17.2556 73.2699 11.1651 73.2699Z" fill="url(#paint2_radial_4_5085)"/>
<path d="M17.8554 66.434C16.4589 68.6274 13.2856 68.1887 13.2856 64.5988C13.2856 62.3029 13.7536 50.5167 15.7277 52.1691C18.9302 54.8525 19.8441 63.3777 17.8554 66.434Z" fill="#81D4FA"/>
<path d="M16.9202 24.115C15.3117 24.4002 15.2313 26.7399 16.986 26.8203C20.8612 26.8788 24.6047 25.4457 27.4562 22.8209C28.5383 21.885 29.4596 20.7809 30.1688 19.538C30.5929 18.9311 30.4466 18.0976 29.8471 17.6662C29.2475 17.2348 28.4067 17.3884 27.9753 17.9879L27.9022 18.061C25.0288 21.2708 21.161 23.3985 16.9202 24.115Z" fill="#422B0D"/>
<path d="M59.8609 18.0833L59.7878 18.0102C59.3637 17.4033 58.5229 17.2571 57.916 17.6812C57.3091 18.1052 57.1629 18.9461 57.5943 19.5529C58.3108 20.7886 59.2321 21.8926 60.3215 22.8212C63.173 25.446 66.9165 26.8718 70.7917 26.806C72.5464 26.7256 72.466 24.3859 70.8502 24.1007C66.6094 23.3915 62.7416 21.2711 59.8609 18.0833Z" fill="#422B0D"/>
<path d="M29.0646 31.551C26.001 31.551 23.2153 34.1393 23.2153 38.4385C23.2153 42.7377 26.001 45.3187 29.0646 45.3187C32.1354 45.3187 34.9138 42.7304 34.9138 38.4385C34.9138 34.1466 32.1647 31.551 29.0646 31.551Z" fill="#422B0D"/>
<path d="M28.8078 34.4239C27.7696 33.9267 26.5193 34.3654 26.0148 35.4036C25.6273 36.2152 25.8028 37.1876 26.4535 37.8164C27.4917 38.3136 28.742 37.8749 29.2465 36.8367C29.634 36.0251 29.4586 35.0527 28.8078 34.4239Z" fill="#896024"/>
<path d="M57.1408 31.551C54.0772 31.551 51.2915 34.1393 51.2915 38.4385C51.2915 42.7377 54.0772 45.3187 57.1408 45.3187C60.2043 45.3187 62.99 42.7304 62.99 38.4385C62.99 34.1466 60.2043 31.551 57.1408 31.551Z" fill="#422B0D"/>
<path d="M56.8469 34.4239C55.8086 33.9267 54.5584 34.3654 54.0539 35.4036C53.6664 36.2152 53.8418 37.1876 54.4926 37.8164C55.5308 38.3136 56.7811 37.8749 57.2856 36.8367C57.6731 36.0251 57.4976 35.0527 56.8469 34.4239Z" fill="#896024"/>
<defs>
<radialGradient id="paint0_radial_4_5085" cx="0" cy="0" r="1" gradientUnits="userSpaceOnUse" gradientTransform="translate(43.3939 41.0262) scale(41.6465 41.6465)">
<stop offset="0.5" stop-color="#FDE030"/>
<stop offset="0.92" stop-color="#F7C02B"/>
<stop offset="1" stop-color="#F4A223"/>
</radialGradient>
<linearGradient id="paint1_linear_4_5085" x1="43.3939" y1="81.8978" x2="43.3939" y2="0.15451" gradientUnits="userSpaceOnUse">
<stop offset="0.39" stop-color="#40C0E7" stop-opacity="0"/>
<stop offset="1" stop-color="#5F7AFF"/>
</linearGradient>
<radialGradient id="paint2_radial_4_5085" cx="0" cy="0" r="1" gradientUnits="userSpaceOnUse" gradientTransform="translate(11.9474 41.0597) scale(24.4206 37.6078)">
<stop offset="0.46" stop-color="#29B6F6"/>
<stop offset="1" stop-color="#1E88E5"/>
</radialGradient>
</defs>
</svg>
