<svg width="60" height="92" viewBox="0 0 60 92" fill="none" xmlns="http://www.w3.org/2000/svg">
<path d="M39.9752 38.5859H0.938477L14.6928 91.9972H27.016L39.9752 38.5859Z" fill="url(#paint0_linear_1_3600)"/>
<path d="M59.5612 38.5859H20.5244L34.2787 91.9972H46.6019L59.5612 38.5859Z" fill="url(#paint1_linear_1_3600)"/>
<path d="M30.5134 77.7636L20.5244 38.5859H40.1133L30.5134 77.7636Z" fill="url(#paint2_linear_1_3600)" fill-opacity="0.8"/>
<circle cx="37.1177" cy="18.312" r="14.312" fill="url(#paint3_radial_1_3600)"/>
<circle cx="22.7349" cy="18.312" r="14.312" fill="url(#paint4_radial_1_3600)"/>
<g filter="url(#filter0_d_1_3600)">
<path fill-rule="evenodd" clip-rule="evenodd" d="M29.9273 30.7102C34.1856 28.2305 37.0479 23.6162 37.0479 18.3334C37.0479 13.0505 34.1856 8.43616 29.9273 5.95654C25.6689 8.43616 22.8066 13.0505 22.8066 18.3334C22.8066 23.6162 25.6689 28.2305 29.9273 30.7102Z" fill="url(#paint5_radial_1_3600)"/>
</g>
<defs>
<filter id="filter0_d_1_3600" x="16.284" y="0.607965" width="27.2865" height="37.799" filterUnits="userSpaceOnUse" color-interpolation-filters="sRGB">
<feFlood flood-opacity="0" result="BackgroundImageFix"/>
<feColorMatrix in="SourceAlpha" type="matrix" values="0 0 0 0 0 0 0 0 0 0 0 0 0 0 0 0 0 0 127 0" result="hardAlpha"/>
<feOffset dy="1.17408"/>
<feGaussianBlur stdDeviation="3.26133"/>
<feComposite in2="hardAlpha" operator="out"/>
<feColorMatrix type="matrix" values="0 0 0 0 0.968627 0 0 0 0 0.945098 0 0 0 0 0.894118 0 0 0 1 0"/>
<feBlend mode="normal" in2="BackgroundImageFix" result="effect1_dropShadow_1_3600"/>
<feBlend mode="normal" in="SourceGraphic" in2="effect1_dropShadow_1_3600" result="shape"/>
</filter>
<linearGradient id="paint0_linear_1_3600" x1="20.312" y1="26.3931" x2="20.4568" y2="91.9972" gradientUnits="userSpaceOnUse">
<stop stop-color="#C280D2" stop-opacity="0.7"/>
<stop offset="1" stop-color="#DBB2DD" stop-opacity="0.25"/>
</linearGradient>
<linearGradient id="paint1_linear_1_3600" x1="39.8979" y1="26.3931" x2="40.0428" y2="91.9972" gradientUnits="userSpaceOnUse">
<stop stop-color="#C280D2" stop-opacity="0.7"/>
<stop offset="1" stop-color="#DBB2DD" stop-opacity="0.25"/>
</linearGradient>
<linearGradient id="paint2_linear_1_3600" x1="30.4304" y1="38.5916" x2="30.3188" y2="77.5687" gradientUnits="userSpaceOnUse">
<stop stop-color="#C280D2"/>
<stop offset="1" stop-color="#F4F4F4"/>
</linearGradient>
<radialGradient id="paint3_radial_1_3600" cx="0" cy="0" r="1" gradientUnits="userSpaceOnUse" gradientTransform="translate(37.1399 18.3342) rotate(90) scale(32.019)">
<stop stop-color="#F4F4F4"/>
<stop offset="0.558529" stop-color="#C280D2"/>
</radialGradient>
<radialGradient id="paint4_radial_1_3600" cx="0" cy="0" r="1" gradientUnits="userSpaceOnUse" gradientTransform="translate(22.7571 18.3342) rotate(90) scale(32.019)">
<stop stop-color="#F4F4F4"/>
<stop offset="0.558529" stop-color="#C280D2"/>
</radialGradient>
<radialGradient id="paint5_radial_1_3600" cx="0" cy="0" r="1" gradientUnits="userSpaceOnUse" gradientTransform="translate(29.9495 18.3369) rotate(90) scale(13.8447 13.842)">
<stop stop-color="#F4F4F4"/>
<stop offset="1" stop-color="#C280D2"/>
</radialGradient>
</defs>
</svg>
