<svg width="3149" height="1398" viewBox="0 0 3149 1398" fill="none" xmlns="http://www.w3.org/2000/svg">
<g filter="url(#filter0_f_342_108)">
<path d="M2669 698.027C2669 460.62 2178.98 480.404 1574.5 480.404C970.024 480.404 480 577.838 480 698.027C480 818.217 970.024 915.65 1574.5 915.65C2178.98 915.65 2669 956.454 2669 698.027Z" fill="url(#paint0_linear_342_108)"/>
</g>
<g filter="url(#filter1_f_342_108)">
<ellipse cx="348" cy="83" rx="348" ry="83" transform="matrix(-1 3.39506e-09 -3.53224e-09 1 2471 197)" fill="#1C1C1C"/>
</g>
<g filter="url(#filter2_f_342_108)">
<ellipse cx="571.5" cy="135.5" rx="571.5" ry="135.5" transform="matrix(-1 3.39506e-09 -3.53224e-09 1 1930 132)" fill="#1C1C1C" fill-opacity="0.7"/>
</g>
<defs>
<filter id="filter0_f_342_108" x="0" y="0.000488281" width="3149" height="1398" filterUnits="userSpaceOnUse" color-interpolation-filters="sRGB">
<feFlood flood-opacity="0" result="BackgroundImageFix"/>
<feBlend mode="normal" in="SourceGraphic" in2="BackgroundImageFix" result="shape"/>
<feGaussianBlur stdDeviation="240" result="effect1_foregroundBlur_342_108"/>
</filter>
<filter id="filter1_f_342_108" x="1705" y="127" width="836" height="306" filterUnits="userSpaceOnUse" color-interpolation-filters="sRGB">
<feFlood flood-opacity="0" result="BackgroundImageFix"/>
<feBlend mode="normal" in="SourceGraphic" in2="BackgroundImageFix" result="shape"/>
<feGaussianBlur stdDeviation="35" result="effect1_foregroundBlur_342_108"/>
</filter>
<filter id="filter2_f_342_108" x="717" y="62.0005" width="1283" height="411" filterUnits="userSpaceOnUse" color-interpolation-filters="sRGB">
<feFlood flood-opacity="0" result="BackgroundImageFix"/>
<feBlend mode="normal" in="SourceGraphic" in2="BackgroundImageFix" result="shape"/>
<feGaussianBlur stdDeviation="35" result="effect1_foregroundBlur_342_108"/>
</filter>
<linearGradient id="paint0_linear_342_108" x1="2430" y1="1021" x2="1871.17" y2="421.835" gradientUnits="userSpaceOnUse">
<stop stop-color="#FF7A1A"/>
<stop offset="1" stop-color="#AC95CF"/>
</linearGradient>
</defs>
</svg>
