<svg width="250" height="56" viewBox="0 0 250 56" fill="none" xmlns="http://www.w3.org/2000/svg">
<rect width="249.651" height="56" rx="28" fill="white"/>
<path d="M28.5 12.9531C25.5271 12.9531 22.621 13.8347 20.1491 15.4863C17.6772 17.138 15.7506 19.4856 14.6129 22.2322C13.4753 24.9788 13.1776 28.001 13.7576 30.9168C14.3376 33.8326 15.7691 36.5109 17.8713 38.6131C19.9735 40.7152 22.6518 42.1468 25.5676 42.7268C28.4833 43.3068 31.5056 43.0091 34.2522 41.8714C36.9988 40.7338 39.3464 38.8072 40.998 36.3353C42.6497 33.8634 43.5313 30.9573 43.5313 27.9844C43.5236 24.0002 41.9375 20.1814 39.1203 17.3641C36.303 14.5469 32.4842 12.9608 28.5 12.9531ZM33.7609 28.9527L26.8234 33.5777C26.6321 33.6961 26.4125 33.761 26.1875 33.7656C25.9968 33.7655 25.8088 33.7209 25.6383 33.6355C25.4534 33.5358 25.2993 33.3875 25.1923 33.2067C25.0854 33.0259 25.0297 32.8194 25.0313 32.6094V23.3594C25.0297 23.1493 25.0854 22.9428 25.1923 22.762C25.2993 22.5812 25.4534 22.433 25.6383 22.3332C25.8239 22.2393 26.0307 22.1952 26.2385 22.2053C26.4463 22.2155 26.6479 22.2794 26.8234 22.391L33.7609 27.016C33.922 27.1211 34.0543 27.2647 34.1458 27.4338C34.2374 27.6028 34.2854 27.7921 34.2854 27.9844C34.2854 28.1767 34.2374 28.3659 34.1458 28.535C34.0543 28.7041 33.922 28.8477 33.7609 28.9527Z" fill="black"/>
<path d="M64 23.22V21.04H54.48V23.22H57.98V35H60.48V23.22H64ZM75.0364 35L70.9564 21.04H67.7964L63.7164 35H66.1164L67.0964 31.36H71.5964L72.5764 35H75.0364ZM70.9964 29.34H67.6964L68.7564 25.52L69.1964 23.3H69.4764L69.9164 25.52L70.9964 29.34ZM84.5653 35H87.4853L82.8053 26.9L87.1453 21.04H84.3253L81.1453 25.6L79.5653 28.02H79.2853L79.4053 25.6V21.04H76.9053V35H79.4053V30.82L81.0853 28.6L84.5653 35ZM97.5705 35V32.82H91.6905V28.98H96.8305V26.86H91.6905V23.22H97.5705V21.04H89.1905V35H97.5705ZM114.568 35L110.488 21.04H107.328L103.248 35H105.648L106.628 31.36H111.128L112.108 35H114.568ZM110.528 29.34H107.228L108.288 25.52L108.728 23.3H109.008L109.448 25.52L110.528 29.34ZM124.595 35.24C127.635 35.24 129.355 33.68 129.355 30.82C129.355 28.48 128.295 27.4 125.595 26.82L124.375 26.56C123.215 26.3 122.715 25.78 122.715 24.74C122.715 23.5 123.375 22.96 124.775 22.96C126.035 22.96 126.875 23.42 127.575 24.36L129.215 22.82C128.195 21.44 126.795 20.8 124.815 20.8C121.895 20.8 120.235 22.2 120.235 24.84C120.235 27.12 121.415 28.36 123.935 28.88L125.155 29.12C126.375 29.38 126.875 29.94 126.875 31.04C126.875 32.4 126.115 33.08 124.635 33.08C123.315 33.08 122.235 32.48 121.435 31.4L119.795 32.98C120.935 34.46 122.515 35.24 124.595 35.24ZM138.913 35H141.693V21.04H139.333V28.9L139.493 31.4H139.213L138.233 28.98L134.373 21.04H131.593V35H133.953V27.14L133.793 24.64H134.073L135.053 27.06L138.913 35ZM153 35V32.82H147.12V28.98H152.26V26.86H147.12V23.22H153V21.04H144.62V35H153ZM165.759 35L161.679 21.04H158.519L154.439 35H156.839L157.819 31.36H162.319L163.299 35H165.759ZM161.719 29.34H158.419L159.479 25.52L159.919 23.3H160.199L160.639 25.52L161.719 29.34ZM175.288 35H178.208L173.528 26.9L177.868 21.04H175.048L171.868 25.6L170.288 28.02H170.008L170.128 25.6V21.04H167.628V35H170.128V30.82L171.808 28.6L175.288 35ZM186.651 35V29.6H189.931C192.371 29.6 193.671 27.98 193.671 25.32C193.671 22.66 192.371 21.04 189.931 21.04H184.151V35H186.651ZM186.651 23.22H189.671C190.531 23.22 191.051 23.66 191.051 24.7V25.94C191.051 26.98 190.531 27.42 189.671 27.42H186.651V23.22ZM204.192 35V32.82H198.312V28.98H203.452V26.86H198.312V23.22H204.192V21.04H195.812V35H204.192ZM216.95 35L212.87 21.04H209.71L205.63 35H208.03L209.01 31.36H213.51L214.49 35H216.95ZM212.91 29.34H209.61L210.67 25.52L211.11 23.3H211.39L211.83 25.52L212.91 29.34ZM226.479 35H229.399L224.719 26.9L229.059 21.04H226.239L223.059 25.6L221.479 28.02H221.199L221.319 25.6V21.04H218.819V35H221.319V30.82L222.999 28.6L226.479 35Z" fill="black"/>
</svg>
