<svg width="122" height="122" viewBox="0 0 122 122" fill="none" xmlns="http://www.w3.org/2000/svg">
<g clip-path="url(#clip0_704_2815)">
<path d="M0 61C0 94.6894 27.3106 122 61 122C94.6894 122 122 94.6894 122 61C122 27.3106 94.6894 0 61 0C27.3106 0 0 27.3106 0 61Z" fill="#AC95CF"/>
<path d="M35.5793 83.5955L50.4289 42.7654C50.5552 42.4166 50.7675 42.1053 51.0462 41.8604C51.3248 41.6155 51.6608 41.445 52.023 41.3646C52.3852 41.2842 52.7618 41.2966 53.1179 41.4006C53.474 41.5046 53.798 41.6968 54.06 41.9594L80.0433 67.9427C80.3053 68.205 80.4968 68.529 80.6002 68.885C80.7036 69.2409 80.7155 69.6171 80.6349 69.9789C80.5543 70.3406 80.3836 70.6762 80.1389 70.9545C79.8941 71.2328 79.583 71.4448 79.2345 71.571L38.4044 86.4206C38.0101 86.5647 37.5829 86.593 37.173 86.5024C36.7631 86.4118 36.3876 86.206 36.0908 85.9091C35.794 85.6123 35.5881 85.2368 35.4975 84.8269C35.4069 84.417 35.4353 83.9898 35.5793 83.5955Z" stroke="white" stroke-width="2.37363" stroke-linecap="round" stroke-linejoin="round"/>
<path d="M71.6387 45.8367C71.6387 45.8367 71.6387 39.0496 78.4258 39.0496C85.2129 39.0496 85.2129 32.2625 85.2129 32.2625" stroke="white" stroke-width="2.37363" stroke-linecap="round" stroke-linejoin="round"/>
<path d="M64.8516 30V36.7871" stroke="white" stroke-width="2.37363" stroke-linecap="round" stroke-linejoin="round"/>
<path d="M85.2129 57.1484L89.7376 61.6732" stroke="white" stroke-width="2.37363" stroke-linecap="round" stroke-linejoin="round"/>
<path d="M85.2129 48.099L92 45.8367" stroke="white" stroke-width="2.37363" stroke-linecap="round" stroke-linejoin="round"/>
<path d="M46.2126 54.3459L67.6543 75.7876" stroke="white" stroke-width="2.37363" stroke-linecap="round" stroke-linejoin="round"/>
<path d="M52.7224 81.2172L40.7827 69.2776" stroke="white" stroke-width="2.37363" stroke-linecap="round" stroke-linejoin="round"/>
</g>
<defs>
<clipPath id="clip0_704_2815">
<rect width="122" height="122" fill="white"/>
</clipPath>
</defs>
</svg>
