<svg width="26" height="26" viewBox="0 0 26 26" fill="none" xmlns="http://www.w3.org/2000/svg">
<path d="M13 0.000976562C10.4288 0.000976563 7.91543 0.763413 5.77759 2.19187C3.63975 3.62033 1.97351 5.65065 0.989572 8.02609C0.0056327 10.4015 -0.251811 13.0154 0.249797 15.5372C0.751405 18.0589 1.98953 20.3753 3.80762 22.1934C5.6257 24.0114 7.94208 25.2496 10.4638 25.7512C12.9856 26.2528 15.5995 25.9953 17.9749 25.0114C20.3503 24.0275 22.3807 22.3612 23.8091 20.2234C25.2376 18.0856 26 15.5721 26 13.001C25.9964 9.55428 24.6256 6.24979 22.1884 3.81261C19.7512 1.37542 16.4467 0.00461634 13 0.000976562ZM18 14.001H10.4138L12.7075 16.2935C12.8004 16.3864 12.8741 16.4967 12.9244 16.6181C12.9747 16.7395 13.0006 16.8696 13.0006 17.001C13.0006 17.1324 12.9747 17.2625 12.9244 17.3839C12.8741 17.5053 12.8004 17.6156 12.7075 17.7085C12.6146 17.8014 12.5043 17.8751 12.3829 17.9254C12.2615 17.9757 12.1314 18.0015 12 18.0015C11.8686 18.0015 11.7385 17.9757 11.6171 17.9254C11.4957 17.8751 11.3854 17.8014 11.2925 17.7085L7.29251 13.7085C7.19953 13.6156 7.12577 13.5053 7.07545 13.3839C7.02512 13.2625 6.99922 13.1324 6.99922 13.001C6.99922 12.8696 7.02512 12.7394 7.07545 12.618C7.12577 12.4966 7.19953 12.3863 7.29251 12.2935L11.2925 8.29348C11.4801 8.10583 11.7346 8.00042 12 8.00042C12.2654 8.00042 12.5199 8.10583 12.7075 8.29348C12.8951 8.48112 13.0006 8.73561 13.0006 9.00098C13.0006 9.26634 12.8951 9.52084 12.7075 9.70848L10.4138 12.001H18C18.2652 12.001 18.5196 12.1063 18.7071 12.2939C18.8946 12.4814 19 12.7358 19 13.001C19 13.2662 18.8946 13.5205 18.7071 13.7081C18.5196 13.8956 18.2652 14.001 18 14.001Z" fill="black"/>
</svg>
