<svg width="33" height="33" viewBox="0 0 33 33" fill="none" xmlns="http://www.w3.org/2000/svg">
<g clip-path="url(#clip0_459_503)">
<path d="M12.25 22.25H4C3.80109 22.25 3.61032 22.171 3.46967 22.0303C3.32902 21.8897 3.25 21.6989 3.25 21.5V13.25C3.25 10.8631 4.19821 8.57387 5.88604 6.88604C7.57387 5.19821 9.86305 4.25 12.25 4.25C14.6369 4.25 16.9261 5.19821 18.614 6.88604C20.3018 8.57387 21.25 10.8631 21.25 13.25C21.25 15.6369 20.3018 17.9261 18.614 19.614C16.9261 21.3018 14.6369 22.25 12.25 22.25Z" stroke="#442712" stroke-width="2" stroke-linecap="round" stroke-linejoin="round"/>
<path d="M11.7625 22.2499C12.383 24.005 13.5324 25.5245 15.0525 26.599C16.5726 27.6736 18.3884 28.2504 20.25 28.2499H28.5C28.6989 28.2499 28.8896 28.1709 29.0303 28.0303C29.1709 27.8896 29.25 27.6988 29.25 27.4999V19.2499C29.2499 16.9483 28.368 14.7341 26.7856 13.0627C25.2033 11.3913 23.0406 10.3896 20.7425 10.2637" stroke="#442712" stroke-width="2" stroke-linecap="round" stroke-linejoin="round"/>
</g>
<defs>
<clipPath id="clip0_459_503">
<rect width="32" height="32" fill="white" transform="translate(0.25 0.25)"/>
</clipPath>
</defs>
</svg>
