<svg width="36" height="36" viewBox="0 0 36 36" fill="none" xmlns="http://www.w3.org/2000/svg">
<path d="M30.1339 29.5738H6.37109C5.12109 29.5723 3.9227 29.0751 3.03882 28.1912C2.15493 27.3073 1.65772 26.1089 1.65625 24.8589V10.6367C1.65772 9.38672 2.15493 8.18833 3.03882 7.30444C3.9227 6.42056 5.12109 5.92334 6.37109 5.92188H30.1339C31.3839 5.92334 32.5823 6.42056 33.4662 7.30444C34.35 8.18833 34.8473 9.38672 34.8487 10.6367V24.8589C34.8473 26.1089 34.35 27.3073 33.4662 28.1912C32.5823 29.0751 31.3839 29.5723 30.1339 29.5738ZM6.37109 7.58594C5.56197 7.58594 4.786 7.90736 4.21386 8.47949C3.64173 9.05162 3.32031 9.8276 3.32031 10.6367V24.8589C3.32031 25.668 3.64173 26.444 4.21386 27.0161C4.786 27.5883 5.56197 27.9097 6.37109 27.9097H30.1339C30.943 27.9097 31.719 27.5883 32.2911 27.0161C32.8632 26.444 33.1847 25.668 33.1847 24.8589V10.6367C33.1847 9.8276 32.8632 9.05162 32.2911 8.47949C31.719 7.90736 30.943 7.58594 30.1339 7.58594H6.37109Z" fill="black"/>
<path d="M18.2492 21.1246C17.2228 21.1262 16.2238 20.7932 15.4036 20.176L2.45171 10.3803C2.3602 10.316 2.28257 10.234 2.22346 10.1391C2.16435 10.0442 2.12497 9.9384 2.10767 9.82794C2.09038 9.71749 2.09552 9.60468 2.12279 9.49626C2.15006 9.38784 2.1989 9.28602 2.2664 9.1969C2.3339 9.10777 2.41866 9.03316 2.51564 8.97753C2.61261 8.92189 2.7198 8.88637 2.83081 8.87308C2.94182 8.8598 3.05436 8.86902 3.16173 8.9002C3.26909 8.93138 3.36907 8.98388 3.45569 9.05456L16.4076 18.8614C16.9395 19.2585 17.5855 19.473 18.2492 19.473C18.9129 19.473 19.5589 19.2585 20.0907 18.8614L33.0427 9.05456C33.1293 8.98388 33.2293 8.93138 33.3366 8.9002C33.444 8.86902 33.5566 8.8598 33.6676 8.87308C33.7786 8.88637 33.8858 8.92189 33.9827 8.97753C34.0797 9.03316 34.1645 9.10777 34.232 9.1969C34.2995 9.28602 34.3483 9.38784 34.3756 9.49626C34.4029 9.60468 34.408 9.71749 34.3907 9.82794C34.3734 9.9384 34.334 10.0442 34.2749 10.1391C34.2158 10.234 34.1382 10.316 34.0467 10.3803L21.0947 20.176C20.2746 20.7932 19.2756 21.1262 18.2492 21.1246Z" fill="black"/>
<path d="M2.81372 27.2556C2.64497 27.2558 2.48013 27.2048 2.34108 27.1091C2.20203 27.0135 2.09534 26.8779 2.03517 26.7202C1.97499 26.5626 1.96418 26.3904 2.00416 26.2264C2.04414 26.0625 2.13303 25.9145 2.25904 25.8023L12.4653 16.6999C12.63 16.5528 12.8465 16.4771 13.067 16.4896C13.2876 16.5021 13.4941 16.6017 13.6412 16.7664C13.7883 16.9312 13.864 17.1477 13.8515 17.3682C13.839 17.5887 13.7394 17.7953 13.5747 17.9424L3.36841 27.0448C3.21684 27.1827 3.01863 27.258 2.81372 27.2556ZM33.6876 27.2556C33.4827 27.258 33.2845 27.1827 33.1329 27.0448L22.9267 17.9424C22.7619 17.7953 22.6623 17.5887 22.6499 17.3682C22.6374 17.1477 22.713 16.9312 22.8601 16.7664C23.0072 16.6017 23.2138 16.5021 23.4343 16.4896C23.6548 16.4771 23.8713 16.5528 24.0361 16.6999L34.2367 25.8023C34.3627 25.9145 34.4516 26.0625 34.4916 26.2264C34.5316 26.3904 34.5208 26.5626 34.4606 26.7202C34.4004 26.8779 34.2938 27.0135 34.1547 27.1091C34.0157 27.2048 33.8508 27.2558 33.6821 27.2556H33.6876Z" fill="black"/>
</svg>
