<svg width="32" height="26" viewBox="0 0 32 26" fill="none" xmlns="http://www.w3.org/2000/svg">
<path d="M31.1191 3.75844H20.1991V1.23844C20.1991 0.776438 19.8211 0.398438 19.3591 0.398438H12.6391C12.1771 0.398438 11.7991 0.776438 11.7991 1.23844V3.75844H0.879062C0.417062 3.75844 0.0390625 4.13644 0.0390625 4.59844V24.7585C0.0390625 25.2205 0.417062 25.5985 0.879062 25.5985H31.1191C31.5811 25.5985 31.9591 25.2205 31.9591 24.7585V4.59844C31.9591 4.13644 31.5811 3.75844 31.1191 3.75844ZM13.4791 2.07844H18.5191V3.75844H13.4791V2.07844ZM30.2791 23.9185H1.71906V15.5185H13.4791V17.9965C13.4791 18.4585 13.8571 18.8365 14.3191 18.8365H17.6791C18.1411 18.8365 18.5191 18.4585 18.5191 17.9965V15.5185H30.2791V23.9185ZM15.1591 17.1565V12.1164H16.8391V17.1565H15.1591ZM30.2791 13.8384H18.5191V11.3184C18.5191 10.8564 18.1411 10.4784 17.6791 10.4784H14.3191C13.8571 10.4784 13.4791 10.8564 13.4791 11.3184V13.8384H1.71906V5.43844H30.2791V13.8384Z" fill="black"/>
</svg>
