<svg width="24" height="24" viewBox="0 0 24 24" fill="none" xmlns="http://www.w3.org/2000/svg">
<g clip-path="url(#clip0_460_736)">
<path d="M2.4695 12.0824L5.15638 14.7693C5.22649 14.8394 5.30979 14.8949 5.40148 14.9325C5.49316 14.9702 5.5914 14.9893 5.69052 14.9888C5.78964 14.9883 5.88768 14.9681 5.97896 14.9295C6.07024 14.8908 6.15295 14.8345 6.22232 14.7637L11.9336 8.90619C12.3501 8.48949 12.9135 8.25282 13.5027 8.24704C14.0919 8.24125 14.6598 8.46681 15.0845 8.87525C15.9929 9.75088 15.9714 11.2321 15.0798 12.1237L9.23825 17.7749C9.1669 17.8442 9.11004 17.927 9.07098 18.0185C9.03192 18.11 9.01145 18.2083 9.01075 18.3077C9.01005 18.4072 9.02914 18.5058 9.06691 18.5978C9.10468 18.6898 9.16038 18.7734 9.23075 18.8437L11.9176 21.5306C12.0575 21.6703 12.2468 21.7492 12.4445 21.7501C12.6422 21.751 12.8322 21.6737 12.9733 21.5352L18.7614 15.8699C21.6854 12.9459 21.7708 8.18244 18.8683 5.23681C18.1737 4.53163 17.3465 3.97088 16.4343 3.58691C15.522 3.20293 14.5428 3.00331 13.5531 2.99957C12.5633 2.99582 11.5826 3.18801 10.6675 3.56507C9.75234 3.94213 8.9209 4.4966 8.22107 5.1965L2.46669 11.0249C2.32738 11.1658 2.24948 11.3561 2.25 11.5543C2.25053 11.7524 2.32944 11.9423 2.4695 12.0824Z" stroke="#3D2F52" stroke-width="2" stroke-linecap="round" stroke-linejoin="round"/>
<path d="M12.0532 15.0532L15.7835 18.7835" stroke="#3D2F52" stroke-width="2" stroke-linecap="round" stroke-linejoin="round"/>
<path d="M5.22852 8.22852L8.95883 11.9588" stroke="#3D2F52" stroke-width="2" stroke-linecap="round" stroke-linejoin="round"/>
</g>
<defs>
<clipPath id="clip0_460_736">
<rect width="24" height="24" fill="white"/>
</clipPath>
</defs>
</svg>
