<svg width="33" height="33" viewBox="0 0 33 33" fill="none" xmlns="http://www.w3.org/2000/svg">
<g clip-path="url(#clip0_459_492)">
<path d="M12.25 12.75H20.25" stroke="#442712" stroke-width="2" stroke-linecap="round" stroke-linejoin="round"/>
<path d="M12.25 16.75H20.25" stroke="#442712" stroke-width="2" stroke-linecap="round" stroke-linejoin="round"/>
<path d="M12.25 20.75H16.25" stroke="#442712" stroke-width="2" stroke-linecap="round" stroke-linejoin="round"/>
<path d="M19.8363 27.75H6.25C5.98478 27.75 5.73043 27.6446 5.54289 27.4571C5.35536 27.2696 5.25 27.0152 5.25 26.75V6.75C5.25 6.48478 5.35536 6.23043 5.54289 6.04289C5.73043 5.85536 5.98478 5.75 6.25 5.75H26.25C26.5152 5.75 26.7696 5.85536 26.9571 6.04289C27.1446 6.23043 27.25 6.48478 27.25 6.75V20.3363C27.2499 20.6011 27.1447 20.8551 26.9575 21.0425L20.5425 27.4575C20.3551 27.6447 20.1011 27.7499 19.8363 27.75Z" stroke="#442712" stroke-width="2" stroke-linecap="round" stroke-linejoin="round"/>
<path d="M27.16 20.7488H20.25V27.6588" stroke="#442712" stroke-width="2" stroke-linecap="round" stroke-linejoin="round"/>
</g>
<defs>
<clipPath id="clip0_459_492">
<rect width="32" height="32" fill="white" transform="translate(0.25 0.75)"/>
</clipPath>
</defs>
</svg>
