<svg width="37" height="38" viewBox="0 0 37 38" fill="none" xmlns="http://www.w3.org/2000/svg">
<path d="M19.4224 24.0901L17.4182 22.3943C17.2641 22.086 17.1099 22.086 16.9557 22.086C16.8016 22.086 16.4932 22.2401 16.4932 22.3943L12.6391 27.0193C12.3307 27.1735 12.3307 27.3276 12.3307 27.4818C12.3307 27.9443 12.6391 28.2526 13.1016 28.2526C13.2557 28.2526 13.5641 28.0985 13.7182 27.9443L17.1099 23.936L19.1141 25.786C19.2682 25.9401 19.4224 25.9401 19.7307 25.9401C19.8849 25.9401 20.1932 25.786 20.1932 25.6318L24.5099 20.236C24.8182 19.9276 24.6641 19.4651 24.3557 19.1568C24.0474 18.8485 23.5849 19.0026 23.2766 19.311L19.4224 24.0901ZM30.8307 13.2984C30.8307 13.1443 30.6766 13.1443 30.6766 12.9901L21.4266 3.7401C21.4266 3.7401 21.2724 3.58594 21.1182 3.58594C20.9641 3.58594 20.9641 3.58594 20.8099 3.58594H10.7891C8.16823 3.58594 6.16406 5.59011 6.16406 8.21094V29.7943C6.16406 32.4151 8.16823 34.4193 10.7891 34.4193H26.2057C28.8266 34.4193 30.8307 32.4151 30.8307 29.7943V13.6068C30.8307 13.4526 30.8307 13.4526 30.8307 13.2984ZM21.5807 6.20677L28.2099 12.8359H23.5849C22.5057 12.8359 21.5807 11.9109 21.5807 10.8318V6.20677ZM29.2891 29.7943C29.2891 31.4901 27.9016 32.8776 26.2057 32.8776H10.7891C9.09323 32.8776 7.70573 31.4901 7.70573 29.7943V8.21094C7.70573 6.51511 9.09323 5.12761 10.7891 5.12761H20.0391V10.8318C20.0391 12.8359 21.5807 14.3776 23.5849 14.3776H29.2891V29.7943ZM13.1016 14.3776H16.1849C16.6474 14.3776 16.9557 14.0693 16.9557 13.6068C16.9557 13.1443 16.6474 12.8359 16.1849 12.8359H13.1016C12.6391 12.8359 12.3307 13.1443 12.3307 13.6068C12.3307 14.0693 12.6391 14.3776 13.1016 14.3776Z" fill="#3D2F52"/>
</svg>
