<svg width="25" height="32" viewBox="0 0 25 32" fill="none" xmlns="http://www.w3.org/2000/svg">
<path d="M13.4224 21.0901L11.4182 19.3943C11.2641 19.086 11.1099 19.086 10.9557 19.086C10.8016 19.086 10.4932 19.2401 10.4932 19.3943L6.63906 24.0193C6.33073 24.1735 6.33073 24.3276 6.33073 24.4818C6.33073 24.9443 6.63906 25.2526 7.10156 25.2526C7.25573 25.2526 7.56406 25.0985 7.71823 24.9443L11.1099 20.936L13.1141 22.786C13.2682 22.9401 13.4224 22.9401 13.7307 22.9401C13.8849 22.9401 14.1932 22.786 14.1932 22.6318L18.5099 17.236C18.8182 16.9276 18.6641 16.4651 18.3557 16.1568C18.0474 15.8485 17.5849 16.0026 17.2766 16.311L13.4224 21.0901ZM24.8307 10.2984C24.8307 10.1443 24.6766 10.1443 24.6766 9.99011L15.4266 0.740104C15.4266 0.740104 15.2724 0.585938 15.1182 0.585938C14.9641 0.585938 14.9641 0.585938 14.8099 0.585938H4.78906C2.16823 0.585937 0.164062 2.59011 0.164062 5.21094V26.7943C0.164062 29.4151 2.16823 31.4193 4.78906 31.4193H20.2057C22.8266 31.4193 24.8307 29.4151 24.8307 26.7943V10.6068C24.8307 10.4526 24.8307 10.4526 24.8307 10.2984ZM15.5807 3.20677L22.2099 9.83595H17.5849C16.5057 9.83595 15.5807 8.91094 15.5807 7.83178V3.20677ZM23.2891 26.7943C23.2891 28.4901 21.9016 29.8776 20.2057 29.8776H4.78906C3.09323 29.8776 1.70573 28.4901 1.70573 26.7943V5.21094C1.70573 3.51511 3.09323 2.12761 4.78906 2.12761H14.0391V7.83178C14.0391 9.83595 15.5807 11.3776 17.5849 11.3776H23.2891V26.7943ZM7.10156 11.3776H10.1849C10.6474 11.3776 10.9557 11.0693 10.9557 10.6068C10.9557 10.1443 10.6474 9.83595 10.1849 9.83595H7.10156C6.63906 9.83595 6.33073 10.1443 6.33073 10.6068C6.33073 11.0693 6.63906 11.3776 7.10156 11.3776Z" fill="black"/>
</svg>
