<svg width="42" height="42" viewBox="0 0 42 42" fill="none" xmlns="http://www.w3.org/2000/svg">
<g clip-path="url(#clip0_450_180)">
<path d="M35.4375 7.875H11.8125C11.0876 7.875 10.5 8.46263 10.5 9.1875V27.5625C10.5 28.2874 11.0876 28.875 11.8125 28.875H35.4375C36.1624 28.875 36.75 28.2874 36.75 27.5625V9.1875C36.75 8.46263 36.1624 7.875 35.4375 7.875Z" stroke="#FF7A1A" stroke-width="2" stroke-linecap="round" stroke-linejoin="round"/>
<path d="M28.2188 15.75C29.3061 15.75 30.1875 14.8686 30.1875 13.7812C30.1875 12.6939 29.3061 11.8125 28.2188 11.8125C27.1314 11.8125 26.25 12.6939 26.25 13.7812C26.25 14.8686 27.1314 15.75 28.2188 15.75Z" fill="#FF7A1A"/>
<path d="M10.5 21.1133L16.7902 14.8215C16.9121 14.6994 17.0568 14.6026 17.2161 14.5366C17.3755 14.4705 17.5463 14.4365 17.7188 14.4365C17.8912 14.4365 18.062 14.4705 18.2214 14.5366C18.3807 14.6026 18.5254 14.6994 18.6473 14.8215L26.793 22.9688L31.0078 18.759C31.2539 18.513 31.5876 18.3748 31.9356 18.3748C32.2835 18.3748 32.6172 18.513 32.8634 18.759L36.75 22.6505" stroke="#FF7A1A" stroke-width="2" stroke-linecap="round" stroke-linejoin="round"/>
<path d="M31.5 28.875V32.8125C31.5 33.1606 31.3617 33.4944 31.1156 33.7406C30.8694 33.9867 30.5356 34.125 30.1875 34.125H6.5625C6.2144 34.125 5.88056 33.9867 5.63442 33.7406C5.38828 33.4944 5.25 33.1606 5.25 32.8125V14.4375C5.25 14.0894 5.38828 13.7556 5.63442 13.5094C5.88056 13.2633 6.2144 13.125 6.5625 13.125H10.5" stroke="#FF7A1A" stroke-width="2" stroke-linecap="round" stroke-linejoin="round"/>
</g>
<defs>
<clipPath id="clip0_450_180">
<rect width="42" height="42" fill="white"/>
</clipPath>
</defs>
</svg>
