<svg width="38" height="30" viewBox="0 0 38 30" fill="none" xmlns="http://www.w3.org/2000/svg">
<path d="M37.0616 10.7987H32.8616V6.59875C32.8616 6.13675 32.4836 5.75875 32.0216 5.75875H27.8216V1.55875C27.8216 1.09675 27.4436 0.71875 26.9816 0.71875H0.941562C0.479562 0.71875 0.101562 1.09675 0.101562 1.55875V18.3587C0.101562 18.8207 0.479562 19.1987 0.941562 19.1987H5.14156V23.3987C5.14156 23.8608 5.51956 24.2387 5.98156 24.2387H10.1816V28.4387C10.1816 28.9007 10.5596 29.2787 11.0216 29.2787H37.0616C37.5236 29.2787 37.9016 28.9007 37.9016 28.4387V11.6388C37.9016 11.1767 37.5236 10.7987 37.0616 10.7987ZM5.14156 6.59875V17.5187H1.78156V2.39875H26.1416V5.75875H5.98156C5.51956 5.75875 5.14156 6.13675 5.14156 6.59875ZM10.1816 11.6388V22.5588H6.82156V7.43875H31.1816V10.7987H11.0216C10.5596 10.7987 10.1816 11.1767 10.1816 11.6388ZM36.2216 27.5987H11.8616V12.4787H36.2216V27.5987Z" fill="#FF864E"/>
</svg>
