<svg width="36" height="22" viewBox="0 0 36 22" fill="none" xmlns="http://www.w3.org/2000/svg">
<path d="M35.4073 2.73225C35.1909 2.30052 34.6655 2.12589 34.2336 2.34229L26.75 6.08411V5.75C26.7468 2.85178 24.3982 0.503204 21.5 0.5H5.75C2.85178 0.503204 0.503204 2.85178 0.5 5.75V16.25C0.503204 19.1482 2.85178 21.4968 5.75 21.5H21.5C24.3982 21.4968 26.7468 19.1482 26.75 16.25V15.9159L34.2336 19.6577C34.3552 19.7184 34.4891 19.7499 34.625 19.75H34.6278C35.1102 19.7493 35.5007 19.3575 35.5 18.875V3.125C35.5001 2.98871 35.4684 2.85413 35.4073 2.73225ZM25 7.5V14.5V16.25C24.9975 18.182 23.432 19.7475 21.5 19.75H5.75C3.81799 19.7475 2.25246 18.182 2.25 16.25V5.75C2.25246 3.81799 3.81799 2.25246 5.75 2.25H21.5C23.432 2.25246 24.9975 3.81799 25 5.75V7.5ZM33.75 17.46L26.75 13.96V8.04004L33.75 4.54004V17.46Z" fill="#FF864E"/>
</svg>
