<svg width="30" height="30" viewBox="0 0 30 30" fill="none" xmlns="http://www.w3.org/2000/svg">
<path d="M21.8625 17.6258C21.575 17.482 19.7062 16.6195 19.4187 16.4758C19.1312 16.332 18.8437 16.332 18.5562 16.6195C18.2687 16.907 17.6937 17.7695 17.4062 18.057C17.2625 18.3445 16.975 18.3445 16.6875 18.2008C15.6812 17.7695 14.675 17.1945 13.8125 16.4758C13.0937 15.757 12.375 14.8945 11.8 14.032C11.6562 13.7445 11.8 13.457 11.9437 13.3133C12.0875 13.1695 12.2312 12.882 12.5187 12.7383C12.6625 12.5945 12.8062 12.307 12.8062 12.1633C12.95 12.0195 12.95 11.732 12.8062 11.5883C12.6625 11.4445 11.9437 9.71953 11.6562 9.00078C11.5125 7.99453 11.225 7.99453 10.9375 7.99453H10.2187C9.93124 7.99453 9.49999 8.28203 9.35624 8.42578C8.49374 9.28828 8.06249 10.2945 8.06249 11.4445C8.20624 12.7383 8.63749 14.032 9.49999 15.182C11.0812 17.482 13.0937 19.3508 15.5375 20.5008C16.2562 20.7883 16.8312 21.0758 17.55 21.2195C18.2687 21.507 18.9875 21.507 19.85 21.3633C20.8562 21.2195 21.7187 20.5008 22.2937 19.6383C22.5812 19.0633 22.5812 18.4883 22.4375 17.9133L21.8625 17.6258ZM25.4562 4.54453C19.85 -1.06172 10.7937 -1.06172 5.18749 4.54453C0.5875 9.14453 -0.274999 16.1883 2.8875 21.7945L0.875 29.1258L8.49374 27.1133C10.65 28.2633 12.95 28.8383 15.25 28.8383C23.1562 28.8383 29.4812 22.5133 29.4812 14.607C29.625 10.8695 28.0437 7.27578 25.4562 4.54453ZM21.575 24.6695C19.7062 25.8195 17.55 26.5383 15.25 26.5383C13.0937 26.5383 11.0812 25.9633 9.21249 24.957L8.78124 24.6695L4.325 25.8195L5.47499 21.507L5.18749 21.0758C1.7375 15.3258 3.4625 8.13828 9.06874 4.54453C14.675 0.950782 21.8625 2.81953 25.3125 8.28203C28.7625 13.8883 27.1812 21.2195 21.575 24.6695Z" fill="black"/>
</svg>
