<svg width="45" height="45" viewBox="0 0 45 45" fill="none" xmlns="http://www.w3.org/2000/svg">
<path d="M1.00037 1.00049H19.5444V19.5445H1.00037V1.00049Z" stroke="#FF864E" stroke-width="2"/>
<path d="M19.5443 34.2405C19.5443 39.3613 15.3931 43.5129 10.2725 43.5129C5.15176 43.5129 1 39.3612 1 34.2405C1 29.1199 5.15168 24.9686 10.2725 24.9686C15.3932 24.9686 19.5443 29.1198 19.5443 34.2405Z" stroke="#C95632" stroke-width="2"/>
<path d="M24.9683 24.9685H43.5123V43.5125H24.9683V24.9685Z" stroke="#FF864E" stroke-width="2"/>
<mask id="path-4-inside-1_2456_16528" fill="white">
<path d="M44.5443 10.2725C44.5443 15.9454 39.9448 20.5443 34.2718 20.5443C28.5989 20.5443 24 15.9454 24 10.2725C24 4.59947 28.5989 0 34.2718 0C39.9448 0 44.5443 4.59947 44.5443 10.2725"/>
</mask>
<path d="M42.5443 10.2725C42.5443 14.8407 38.8404 18.5443 34.2718 18.5443V22.5443C41.0492 22.5443 46.5443 17.0502 46.5443 10.2725H42.5443ZM34.2718 18.5443C29.7034 18.5443 26 14.8409 26 10.2725H22C22 17.05 27.4943 22.5443 34.2718 22.5443V18.5443ZM26 10.2725C26 5.70388 29.7036 2 34.2718 2V-2C27.4941 -2 22 3.49506 22 10.2725H26ZM34.2718 2C38.8402 2 42.5443 5.70404 42.5443 10.2725H46.5443C46.5443 3.4949 41.0494 -2 34.2718 -2V2Z" fill="#C95632" mask="url(#path-4-inside-1_2456_16528)"/>
</svg>
