<svg width="21" height="21" viewBox="0 0 21 21" fill="none" xmlns="http://www.w3.org/2000/svg">
<path d="M10.6991 0.09375C8.70442 0.09375 6.75452 0.685244 5.096 1.79343C3.43747 2.90163 2.14481 4.47674 1.38147 6.31959C0.618139 8.16245 0.418416 10.1903 0.807561 12.1466C1.19671 14.103 2.15724 15.9 3.5677 17.3105C4.97816 18.7209 6.77519 19.6815 8.73156 20.0706C10.6879 20.4598 12.7157 20.26 14.5586 19.4967C16.4014 18.7334 17.9766 17.4407 19.0848 15.7822C20.1929 14.1237 20.7844 12.1738 20.7844 10.1791C20.7816 7.50515 19.7181 4.94155 17.8274 3.05079C15.9366 1.16004 13.373 0.0965737 10.6991 0.09375ZM8.14189 14.0581H13.2563C12.7356 15.8366 11.8628 17.4396 10.6991 18.7022C9.53541 17.4396 8.66264 15.8366 8.14189 14.0581ZM7.78988 12.5065C7.53257 10.9655 7.53257 9.39262 7.78988 7.8517H13.6083C13.8656 9.39262 13.8656 10.9655 13.6083 12.5065H7.78988ZM2.16536 10.1791C2.16469 9.39208 2.27337 8.60879 2.48829 7.8517H6.21792C5.98648 9.39466 5.98648 10.9635 6.21792 12.5065H2.48829C2.27337 11.7494 2.16469 10.9661 2.16536 10.1791ZM13.2563 6.30011H8.14189C8.66264 4.5216 9.53541 2.91861 10.6991 1.65601C11.8628 2.91861 12.7356 4.5216 13.2563 6.30011ZM15.1803 7.8517H18.9099C19.3405 9.37342 19.3405 10.9847 18.9099 12.5065H15.1803C15.4117 10.9635 15.4117 9.39466 15.1803 7.8517ZM18.299 6.30011H14.8632C14.4673 4.74223 13.8024 3.26544 12.8985 1.93626C14.0533 2.2466 15.1304 2.79519 16.0605 3.54674C16.9906 4.2983 17.7531 5.23619 18.299 6.30011ZM8.49973 1.93626C7.59582 3.26544 6.93094 4.74223 6.53503 6.30011H3.09923C3.64512 5.23619 4.40763 4.2983 5.33773 3.54674C6.26782 2.79519 7.34491 2.2466 8.49973 1.93626ZM3.09923 14.0581H6.53503C6.93094 15.6159 7.59582 17.0927 8.49973 18.4219C7.34491 18.1116 6.26782 17.563 5.33773 16.8114C4.40763 16.0599 3.64512 15.122 3.09923 14.0581ZM12.8985 18.4219C13.8024 17.0927 14.4673 15.6159 14.8632 14.0581H18.299C17.7531 15.122 16.9906 16.0599 16.0605 16.8114C15.1304 17.563 14.0533 18.1116 12.8985 18.4219Z" fill="#AC95CF"/>
</svg>
