<svg width="20" height="14" viewBox="0 0 20 14" fill="none" xmlns="http://www.w3.org/2000/svg">
<path d="M6.90198 10.2331V9.53313H6.48471L6.28624 9.90017L6.90198 10.2331ZM2.39593 12.4767L2.73478 11.8642H2.73478L2.39593 12.4767ZM1.55104 7.14826L2.19402 7.42499L2.20181 7.40689L2.20856 7.38839L1.55104 7.14826ZM2.67767 4.06339L3.33519 4.30352L3.33845 4.2946L3.34147 4.28559L2.67767 4.06339ZM6.05721 1.25896L6.13419 1.95471L6.05721 1.25896ZM13.098 10.2331L13.7138 9.90017L13.5153 9.53313H13.098V10.2331ZM17.6041 12.4767L17.9429 13.0892L17.6041 12.4767ZM18.449 7.14826L17.7914 7.38839L17.7982 7.40689L17.806 7.42499L18.449 7.14826ZM17.3223 4.06339L16.6585 4.28559L16.6615 4.2946L16.6648 4.30352L17.3223 4.06339ZM13.9428 1.25896L14.0198 0.563204L13.9428 1.25896ZM9.99989 9.53313H6.90198V10.9331H9.99989V9.53313ZM6.28624 9.90017C5.99188 10.4445 5.4378 11.1882 4.76367 11.6563C4.11166 12.1091 3.44103 12.2549 2.73478 11.8642L2.05707 13.0892C3.37855 13.8203 4.63238 13.4519 5.56218 12.8063C6.46986 12.176 7.15495 11.237 7.51772 10.5661L6.28624 9.90017ZM2.73478 11.8642C2.01935 11.4684 1.726 10.754 1.7016 9.86341C1.67695 8.96344 1.94044 8.01418 2.19402 7.42499L0.908062 6.87153C0.598384 7.59107 0.27045 8.74513 0.302128 9.90174C0.334061 11.0677 0.744781 12.3632 2.05707 13.0892L2.73478 11.8642ZM2.20856 7.38839L3.33519 4.30352L2.02015 3.82325L0.893519 6.90812L2.20856 7.38839ZM3.34147 4.28559C3.58122 3.56937 4.49422 2.13616 6.13419 1.95471L5.98023 0.563204C3.56475 0.830461 2.33738 2.87475 2.01387 3.84119L3.34147 4.28559ZM6.13419 1.95471C8.14356 1.73239 9.56262 1.67852 9.99989 1.67852V0.278516C9.49848 0.278516 8.02631 0.336819 5.98023 0.563204L6.13419 1.95471ZM10.0001 10.9331H13.098V9.53313H10.0001V10.9331ZM12.4823 10.5661C12.845 11.237 13.5301 12.176 14.4378 12.8063C15.3676 13.4519 16.6214 13.8203 17.9429 13.0892L17.2652 11.8642C16.559 12.2549 15.8883 12.1091 15.2363 11.6563C14.5622 11.1882 14.0081 10.4445 13.7138 9.90017L12.4823 10.5661ZM17.9429 13.0892C19.2552 12.3632 19.6659 11.0677 19.6979 9.90174C19.7295 8.74513 19.4016 7.59107 19.0919 6.87153L17.806 7.42499C18.0596 8.01418 18.323 8.96344 18.2984 9.86341C18.274 10.754 17.9807 11.4684 17.2652 11.8642L17.9429 13.0892ZM19.1065 6.90812L17.9799 3.82325L16.6648 4.30352L17.7914 7.38839L19.1065 6.90812ZM17.9861 3.84119C17.6626 2.87475 16.4352 0.830461 14.0198 0.563204L13.8658 1.95471C15.5058 2.13616 16.4188 3.56937 16.6585 4.28559L17.9861 3.84119ZM14.0198 0.563204C11.9737 0.336819 10.5015 0.278516 10.0001 0.278516V1.67852C10.4374 1.67852 11.8564 1.73239 13.8658 1.95471L14.0198 0.563204Z" fill="#FF864E"/>
<path fill-rule="evenodd" clip-rule="evenodd" d="M6.74286 3.46484C6.3424 3.46484 6.01777 3.78948 6.01777 4.18993V5.0957H5.11181C4.71135 5.0957 4.38672 5.42034 4.38672 5.82079C4.38672 6.22125 4.71135 6.54588 5.11181 6.54588H6.01777V7.45283C6.01777 7.85329 6.3424 8.17792 6.74286 8.17792C7.14331 8.17792 7.46795 7.85329 7.46795 7.45283V6.54588H8.37471C8.77516 6.54588 9.0998 6.22125 9.0998 5.82079C9.0998 5.42034 8.77516 5.0957 8.37471 5.0957H7.46795V4.18993C7.46795 3.78948 7.14331 3.46484 6.74286 3.46484Z" fill="#FF864E"/>
<circle cx="11.8492" cy="4.35703" r="0.892184" fill="#FF864E"/>
<circle cx="14.3473" cy="6.49961" r="0.892184" fill="#FF864E"/>
</svg>
