<svg width="110" height="110" viewBox="0 0 110 110" fill="none" xmlns="http://www.w3.org/2000/svg">
<g filter="url(#filter0_f_1475_16147)">
<circle cx="54.5989" cy="54.5989" r="39.5989" fill="#161616"/>
</g>
<path d="M61.7026 62.9152C66.6051 58.0127 70.1249 52.7237 71.8762 48.1704C72.7523 45.8925 73.1685 43.8437 73.1264 42.1444C73.0845 40.4522 72.5932 39.1678 71.7171 38.2917C70.841 37.4156 69.5566 36.9243 67.8644 36.8824C66.1651 36.8403 64.1163 37.2565 61.8384 38.1326C57.2851 39.8839 51.9961 43.4037 47.0936 48.3062C42.1911 53.2087 38.6712 58.4977 36.92 63.051C36.0438 65.329 35.6277 67.3777 35.6698 69.077C35.7117 70.7692 36.203 72.0537 37.0791 72.9298C37.9552 73.8058 39.2396 74.2972 40.9318 74.3391C42.6311 74.3811 44.6798 73.965 46.9578 73.0888C51.5111 71.3376 56.8001 67.8178 61.7026 62.9152Z" stroke="#F7F1E4" stroke-width="2"/>
<path d="M47.0957 62.9152C51.9983 67.8177 57.2873 71.3375 61.8406 73.0888C64.1185 73.9649 66.1672 74.3811 67.8666 74.339C69.5588 74.2971 70.8432 73.8058 71.7193 72.9297C72.5954 72.0536 73.0867 70.7692 73.1286 69.077C73.1707 67.3777 72.7545 65.3289 71.8784 63.051C70.1271 58.4977 66.6073 53.2087 61.7048 48.3062C56.8022 43.4036 51.5133 39.8838 46.9599 38.1326C44.682 37.2564 42.6333 36.8403 40.9339 36.8823C39.2417 36.9243 37.9573 37.4156 37.0812 38.2917C36.2051 39.1678 35.7138 40.4522 35.6719 42.1444C35.6298 43.8437 36.046 45.8924 36.9221 48.1704C38.6734 52.7237 42.1932 58.0127 47.0957 62.9152Z" stroke="#F7F1E4" stroke-width="2"/>
<path d="M62.2527 64.6025L70.3093 53.7931L79.2844 60.8837L70.7866 71.6399L62.2527 64.6025Z" fill="url(#paint0_linear_1475_16147)"/>
<path d="M52.9844 44.105C52.9844 44.105 53.9855 43.1678 55.1965 42.3605C56.4075 41.5532 57.8283 40.8756 57.8283 40.8756L65.0748 50.1194L60.1246 53.727L52.9844 44.105Z" fill="url(#paint1_linear_1475_16147)"/>
<path d="M56.1475 66.7658C56.1475 66.7658 55.0081 67.8615 53.6436 68.8425C52.279 69.8236 50.6896 70.69 50.6896 70.69L46.122 66.3068L51.7127 61.9721L56.1475 66.7658Z" fill="url(#paint2_linear_1475_16147)"/>
<path d="M43.2191 51.0054C43.2191 51.0054 41.5476 53.0598 40.5705 54.4219C39.5934 55.784 38.7314 57.1412 38.7314 57.1412L29.296 47.081L35.3858 41.9382L43.2191 51.0054Z" fill="url(#paint3_linear_1475_16147)"/>
<circle cx="46.1219" cy="61.8665" r="3.84404" fill="#161616" stroke="#F7F1E4" stroke-width="2"/>
<defs>
<filter id="filter0_f_1475_16147" x="0" y="0" width="109.198" height="109.198" filterUnits="userSpaceOnUse" color-interpolation-filters="sRGB">
<feFlood flood-opacity="0" result="BackgroundImageFix"/>
<feBlend mode="normal" in="SourceGraphic" in2="BackgroundImageFix" result="shape"/>
<feGaussianBlur stdDeviation="7.5" result="effect1_foregroundBlur_1475_16147"/>
</filter>
<linearGradient id="paint0_linear_1475_16147" x1="67.1823" y1="60.0575" x2="75.0355" y2="66.2618" gradientUnits="userSpaceOnUse">
<stop stop-color="#161616"/>
<stop offset="1" stop-color="#161616" stop-opacity="0"/>
</linearGradient>
<linearGradient id="paint1_linear_1475_16147" x1="56.3214" y1="43.3961" x2="62.5579" y2="51.9537" gradientUnits="userSpaceOnUse">
<stop stop-color="#161616"/>
<stop offset="1" stop-color="#161616" stop-opacity="0"/>
</linearGradient>
<linearGradient id="paint2_linear_1475_16147" x1="52.6941" y1="68.5475" x2="49.1416" y2="63.9656" gradientUnits="userSpaceOnUse">
<stop stop-color="#161616"/>
<stop offset="1" stop-color="#161616" stop-opacity="0"/>
</linearGradient>
<linearGradient id="paint3_linear_1475_16147" x1="40.1683" y1="53.6741" x2="32.3923" y2="44.4662" gradientUnits="userSpaceOnUse">
<stop stop-color="#161616"/>
<stop offset="1" stop-color="#161616" stop-opacity="0"/>
</linearGradient>
</defs>
</svg>
