<?xml version="1.0" encoding="UTF-8"?>
<svg width="46px" height="46px" viewBox="0 0 46 46" version="1.1" xmlns="http://www.w3.org/2000/svg" xmlns:xlink="http://www.w3.org/1999/xlink">
    <title>instagram</title>
    <g id="Page-1" stroke="none" stroke-width="1" fill="none" fill-rule="evenodd">
        <g id="instagram" transform="translate(1.000000, 1.000000)" fill="#C95632" fill-rule="nonzero" stroke="#C95632">
            <path d="M13,0 C5.8324839,0 0,5.8324839 0,13 L0,31 C0,38.167516 5.8324839,44 13,44 L31,44 C38.167516,44 44,38.167516 44,31 L44,13 C44,5.8324839 38.167516,0 31,0 L13,0 Z M13,2 L31,2 C37.086484,2 42,6.9135161 42,13 L42,31 C42,37.086484 37.086484,42 31,42 L13,42 C6.9135161,42 2,37.086484 2,31 L2,13 C2,6.9135161 6.9135161,2 13,2 Z M34,8 C32.8954305,8 32,8.8954305 32,10 C32,11.1045695 32.8954305,12 34,12 C35.1045695,12 36,11.1045695 36,10 C36,8.8954305 35.1045695,8 34,8 Z M22,11 C15.936712,11 11,15.936712 11,22 C11,28.063288 15.936712,33 22,33 C28.063288,33 33,28.063288 33,22 C33,15.936712 28.063288,11 22,11 Z M22,13 C26.982407,13 31,17.017593 31,22 C31,26.982407 26.982407,31 22,31 C17.017593,31 13,26.982407 13,22 C13,17.017593 17.017593,13 22,13 Z" id="Shape"></path>
        </g>
    </g>
</svg>