<?xml version="1.0" encoding="UTF-8"?>
<svg width="44px" height="44px" viewBox="0 0 44 44" version="1.1" xmlns="http://www.w3.org/2000/svg" xmlns:xlink="http://www.w3.org/1999/xlink">
    <title>Shape</title>
    <g id="Page-1" stroke="none" stroke-width="1" fill="none" fill-rule="evenodd">
        <g id="linkedin" transform="translate(0.002000, 0.000000)" fill="#C95632" fill-rule="nonzero">
            <path d="M40,0 L4,0 C1.79,0 0,1.79 0,4 L0,40 C0,42.21 1.79,44 4,44 L40,44 C42.21,44 44,42.21 44,40 L44,4 C44,1.79 42.21,0 40,0 Z M13.908,36 L8.008,36 L8.008,17.016 L13.908,17.016 L13.908,36 Z M10.898,14.302 C8.996,14.302 7.458,12.76 7.458,10.862 C7.458,8.964 8.998,7.424 10.898,7.424 C12.794,7.424 14.336,8.966 14.336,10.862 C14.336,12.76 12.794,14.302 10.898,14.302 Z M36.008,36 L30.112,36 L30.112,26.768 C30.112,24.566 30.072,21.734 27.046,21.734 C23.976,21.734 23.504,24.132 23.504,26.608 L23.504,36 L17.608,36 L17.608,17.016 L23.268,17.016 L23.268,19.61 L23.348,19.61 C24.136,18.118 26.06,16.544 28.93,16.544 C34.904,16.544 36.008,20.476 36.008,25.588 L36.008,36 L36.008,36 Z" id="Shape"></path>
        </g>
    </g>
</svg>