<svg width="73" height="82" viewBox="0 0 73 82" fill="none" xmlns="http://www.w3.org/2000/svg">
<g filter="url(#filter0_d_1475_16179)">
<path fill-rule="evenodd" clip-rule="evenodd" d="M34.689 4.13672C27.7017 4.13755 21.0384 7.14931 16.8332 14.3012C12.1644 22.2406 13.2844 32.2205 20.0562 38.8454C23.3177 42.0358 22.4107 45.2497 21.7509 49.4141C21.5086 50.9416 22.2937 52.2061 24.2414 53.4397C28.1661 55.9253 35.2478 57.6408 40.2749 57.0027C41.9854 56.7856 42.9993 55.9345 43.3142 53.9258C43.68 51.5856 43.9456 50.1014 46.8037 50.1507C49.4538 50.1966 51.9243 50.5123 52.3094 46.8967C52.3987 46.0599 52.3394 45.7258 53.0285 44.8313C53.2702 44.5174 53.475 44.2341 53.6396 43.9735C54.1903 43.1018 55.4163 40.4699 54.8977 39.5787L53.6925 37.5082C53.3383 36.9002 53.9455 36.6513 54.2554 36.5118L57.6079 34.9984C58.4105 34.6359 58.7196 33.5301 58.1508 32.8336C56.5681 30.895 54.9703 29.3165 54.0316 27.17C52.9182 24.6226 54.4107 24.0848 54.4183 21.306C54.4299 16.9813 51.9009 13.4693 49.6258 10.8985C46.265 7.10003 40.5622 4.13588 34.689 4.13672Z" fill="url(#paint0_linear_1475_16179)"/>
<path d="M17.0487 14.4279L17.0487 14.4279C21.204 7.36099 27.7799 4.38754 34.6891 4.38672C40.4844 4.38589 46.121 7.31453 49.4386 11.0642L49.4386 11.0642C51.7069 13.6273 54.1797 17.0787 54.1683 21.3054C54.1653 22.3867 53.933 23.1034 53.7161 23.7723C53.6636 23.9343 53.6119 24.0935 53.5647 24.2544C53.4435 24.6672 53.3535 25.0891 53.3714 25.579C53.3893 26.0688 53.5144 26.611 53.8025 27.2701L53.8025 27.2702C54.5512 28.9822 55.7164 30.3477 56.9354 31.7763C57.2744 32.1736 57.6176 32.5758 57.9571 32.9917L58.1508 32.8336L57.9571 32.9917C58.4138 33.551 58.17 34.4702 57.505 34.7705C57.505 34.7705 57.505 34.7706 57.505 34.7706L54.1528 36.2838C54.1426 36.2884 54.1316 36.2933 54.12 36.2984C53.9728 36.3639 53.7168 36.4779 53.5427 36.6631C53.4423 36.77 53.3581 36.9109 53.3389 37.0888C53.3198 37.266 53.3686 37.4489 53.4764 37.634L54.6816 39.7044C54.7678 39.8527 54.7983 40.1136 54.7494 40.4862C54.702 40.8479 54.5862 41.2694 54.4339 41.7001C54.1292 42.5619 53.693 43.4209 53.4282 43.84C53.2695 44.0913 53.0699 44.3678 52.8304 44.6788C52.4744 45.1409 52.297 45.4773 52.203 45.8193C52.1353 46.0655 52.1127 46.3149 52.0876 46.5915C52.0795 46.6813 52.0711 46.7739 52.0608 46.8702L52.0608 46.8703C51.9674 47.7474 51.7498 48.362 51.453 48.7958C51.1589 49.2256 50.7759 49.4941 50.3195 49.6622C49.8576 49.8324 49.3191 49.9002 48.7194 49.9202C48.278 49.935 47.8171 49.9239 47.3377 49.9123C47.1636 49.9081 46.987 49.9038 46.808 49.9007C45.3355 49.8754 44.4569 50.2462 43.9209 50.9969C43.6612 51.3607 43.4946 51.797 43.3698 52.2791C43.2452 52.7605 43.1583 53.3044 43.0672 53.8871C42.9151 54.8573 42.5995 55.5151 42.1439 55.9566C41.6885 56.3979 41.0652 56.6504 40.2434 56.7547C37.7674 57.069 34.771 56.8044 31.9004 56.1489C29.0296 55.4933 26.3067 54.4518 24.3752 53.2285C23.4182 52.6224 22.7694 52.0223 22.3875 51.4055C22.0101 50.796 21.8859 50.1587 21.9978 49.4532L21.7509 49.4141L21.9978 49.4532C22.0554 49.0892 22.1154 48.7307 22.1745 48.3774C22.4499 46.7307 22.7063 45.1976 22.6236 43.7502C22.5218 41.9679 21.9082 40.3073 20.231 38.6667C13.5435 32.1243 12.4366 22.271 17.0487 14.4279Z" stroke="url(#paint1_linear_1475_16179)" stroke-width="0.5"/>
</g>
<g filter="url(#filter1_d_1475_16179)">
<path d="M38.286 18.402C37.7492 15.6203 36.2743 12.7814 35.0028 10.2716C34.9286 10.1251 34.7194 10.1251 34.6452 10.2716C33.3736 12.7814 31.8972 15.6203 31.3613 18.402C30.8242 21.2885 31.829 26.9061 34.824 26.9061C37.8199 26.9061 38.823 21.2885 38.286 18.402Z" fill="#D8869E"/>
<path d="M29.6792 11.6711C29.06 11.2096 28.3191 10.8956 27.3326 10.6183C27.2261 10.5884 27.1161 10.6517 27.0893 10.759C26.4673 13.2474 26.407 16.5196 27.3389 19.4602C27.9152 21.2824 28.7914 22.9039 30.0093 24.0884C30.1636 24.2385 30.399 24.0533 30.3201 23.853C29.3178 21.3063 29.664 18.2487 30.5979 15.4604C31.1934 13.7816 30.7132 12.4829 29.6792 11.6711Z" fill="#D8869E"/>
<path d="M42.3083 19.4602C43.2394 16.5196 43.1791 13.2466 42.5571 10.759C42.5303 10.6517 42.4203 10.5884 42.3138 10.6183C41.3273 10.8956 40.5865 11.2096 39.9681 11.6711C38.9341 12.4829 38.453 13.7816 39.0493 15.4604C39.9833 18.2487 40.3294 21.3063 39.3271 23.853C39.2483 24.0533 39.4836 24.2384 39.6379 24.0884C40.8556 22.9037 41.7313 21.2817 42.3083 19.4602Z" fill="#D8869E"/>
<path d="M26.1847 20.4658C25.3395 18.2457 24.2532 16.9946 21.7868 16.9243C21.6678 16.9209 21.5746 17.0245 21.5896 17.1426C21.8681 19.3474 22.7487 21.8916 24.561 23.8292C25.9413 25.3043 28.5633 26.4174 31.1113 26.7394C31.343 26.7686 31.4094 26.4231 31.1978 26.3247C28.6076 25.1197 27.1575 22.809 26.1847 20.4658Z" fill="#D8869E"/>
<path d="M45.0829 23.8292C46.896 21.8924 47.7766 19.3474 48.0552 17.1426C48.0701 17.0245 47.9769 16.9209 47.8579 16.9243C45.3915 16.9946 44.3052 18.2449 43.4592 20.4658C42.4871 22.8089 41.0384 25.1197 38.4481 26.3246C38.2365 26.4231 38.3029 26.7686 38.5346 26.7393C41.0821 26.4173 43.7027 25.3042 45.0829 23.8292Z" fill="#D8869E"/>
</g>
<defs>
<filter id="filter0_d_1475_16179" x="0" y="0.136719" width="72.4419" height="81" filterUnits="userSpaceOnUse" color-interpolation-filters="sRGB">
<feFlood flood-opacity="0" result="BackgroundImageFix"/>
<feColorMatrix in="SourceAlpha" type="matrix" values="0 0 0 0 0 0 0 0 0 0 0 0 0 0 0 0 0 0 127 0" result="hardAlpha"/>
<feOffset dy="10"/>
<feGaussianBlur stdDeviation="7"/>
<feComposite in2="hardAlpha" operator="out"/>
<feColorMatrix type="matrix" values="0 0 0 0 0 0 0 0 0 0 0 0 0 0 0 0 0 0 0.25 0"/>
<feBlend mode="normal" in2="BackgroundImageFix" result="effect1_dropShadow_1475_16179"/>
<feBlend mode="normal" in="SourceGraphic" in2="effect1_dropShadow_1475_16179" result="shape"/>
</filter>
<filter id="filter1_d_1475_16179" x="18.588" y="9.16175" width="32.4688" height="22.7443" filterUnits="userSpaceOnUse" color-interpolation-filters="sRGB">
<feFlood flood-opacity="0" result="BackgroundImageFix"/>
<feColorMatrix in="SourceAlpha" type="matrix" values="0 0 0 0 0 0 0 0 0 0 0 0 0 0 0 0 0 0 127 0" result="hardAlpha"/>
<feOffset dy="2"/>
<feGaussianBlur stdDeviation="1.5"/>
<feComposite in2="hardAlpha" operator="out"/>
<feColorMatrix type="matrix" values="0 0 0 0 0.821106 0 0 0 0 0.428592 0 0 0 0 0.72765 0 0 0 0.4 0"/>
<feBlend mode="normal" in2="BackgroundImageFix" result="effect1_dropShadow_1475_16179"/>
<feBlend mode="normal" in="SourceGraphic" in2="effect1_dropShadow_1475_16179" result="shape"/>
</filter>
<linearGradient id="paint0_linear_1475_16179" x1="36" y1="-0.363281" x2="36.2209" y2="57.1367" gradientUnits="userSpaceOnUse">
<stop stop-color="#FFFCF6"/>
<stop offset="1" stop-color="#FEC794"/>
</linearGradient>
<linearGradient id="paint1_linear_1475_16179" x1="36.2209" y1="4.13672" x2="36.2209" y2="57.1367" gradientUnits="userSpaceOnUse">
<stop stop-color="white"/>
<stop offset="1" stop-color="white" stop-opacity="0"/>
</linearGradient>
</defs>
</svg>
