<svg width="73" height="82" viewBox="0 0 73 82" fill="none" xmlns="http://www.w3.org/2000/svg">
<g filter="url(#filter0_d_1475_16173)">
<path fill-rule="evenodd" clip-rule="evenodd" d="M35.8328 4.13672C35.3799 4.13749 34.9492 4.32432 34.6403 4.65094C34.5941 4.69984 34.531 4.7263 34.4637 4.7263C33.1223 4.71966 31.7932 4.84795 30.4946 5.10157C29.6313 5.27019 28.7142 4.77409 27.8397 4.67876C27.7809 4.67235 27.7215 4.66908 27.6616 4.66908C26.7536 4.66908 26.0172 5.40544 26.0172 6.31262C26.0187 6.44139 25.9531 6.56517 25.8362 6.61927C24.318 7.32215 22.8839 8.20895 21.5736 9.271C21.1591 9.60695 20.5703 9.60881 20.0368 9.60881C19.1288 9.60881 18.3924 10.3452 18.3924 11.2532C18.3924 11.831 18.4195 12.474 18.0736 12.9369C17.5827 13.5939 17.1261 14.2845 16.7141 15.0129C14.9918 18.0827 14 20.8275 14 24.1792C14 29.541 15.8036 34.8788 19.9721 38.9561C23.2136 42.1271 22.313 45.3229 21.6571 49.4624C21.4166 50.9807 22.1978 52.2378 24.134 53.4634C28.0347 55.9337 35.074 57.6378 40.0702 57.0034C41.7701 56.7878 42.7768 55.9428 43.0894 53.9469C43.4534 51.6209 43.7188 50.1457 46.5589 50.1955C49.1933 50.2411 51.6479 50.5529 52.0301 46.959C52.1189 46.1273 52.06 45.7964 52.7449 44.9075C52.9853 44.5952 53.1889 44.3135 53.3526 44.0544C53.9001 43.188 55.1192 40.5742 54.6041 39.6883L53.4075 37.6301C53.0559 37.0265 53.6571 36.7777 53.9647 36.6392L57.2966 35.1358C58.0943 34.7759 58.4028 33.6747 57.8372 32.9823C56.2642 31.0552 54.6754 29.4879 53.7425 27.3535C52.6363 24.8219 54.0875 24.2878 54.1281 21.5257C54.1463 20.2785 53.7815 19.0255 53.3552 17.8961C52.8296 16.5015 52.1547 15.2123 51.3742 14.0311C51.0537 13.5461 51.0981 12.9051 51.0981 12.3237C51.0981 11.4157 50.3617 10.6793 49.4537 10.6793C49.0248 10.6808 48.5612 10.6302 48.2493 10.3357C47.5452 9.67084 46.8108 9.06577 46.06 8.52252C45.5115 8.12572 45.2346 7.43506 44.8187 6.90098C44.5179 6.51469 44.0484 6.26618 43.5206 6.26618C42.9545 6.26773 42.3535 6.36615 41.8276 6.15644C40.6186 5.67428 39.419 5.33495 38.1857 5.10071C37.5924 4.98803 37.095 4.56937 36.5526 4.3039C36.3319 4.19588 36.0864 4.13708 35.8328 4.13672Z" fill="url(#paint0_linear_1475_16173)"/>
<path d="M34.4637 4.9763H34.4625C33.1378 4.96974 31.8252 5.09643 30.5425 5.34694C30.0523 5.44269 29.5605 5.34739 29.1091 5.23126C28.9867 5.19978 28.8681 5.16712 28.7524 5.13525C28.424 5.04479 28.1184 4.96062 27.8127 4.92729C27.7628 4.92185 27.7124 4.91908 27.6616 4.91908C26.892 4.91908 26.2679 5.54293 26.2672 6.31139C26.2672 6.3118 26.2672 6.31221 26.2672 6.31262H26.0172C26.0187 6.44139 25.9531 6.56517 25.8362 6.61927C24.318 7.32215 22.8839 8.20895 21.5736 9.271C21.1591 9.60695 20.5703 9.60881 20.0368 9.60881C19.1288 9.60881 18.3924 10.3452 18.3924 11.2532C18.3924 11.292 18.3926 11.3311 18.3927 11.3705C18.3944 11.9166 18.3962 12.5051 18.0736 12.9369C17.5827 13.5939 17.1261 14.2845 16.7141 15.0129L34.4637 4.9763ZM34.4637 4.9763C34.598 4.9763 34.7273 4.92283 34.822 4.8227C35.0837 4.54596 35.4488 4.38748 35.8328 4.38672C36.0478 4.38709 36.2557 4.43693 36.4427 4.52845C36.6136 4.61206 36.7722 4.70727 36.9409 4.80849C37.0319 4.86311 37.1259 4.91949 37.2262 4.97675C37.4993 5.13252 37.8009 5.2821 38.1391 5.34632C39.3577 5.57777 40.5418 5.91279 41.735 6.38865C42.0402 6.51034 42.358 6.53905 42.6578 6.54053C42.8079 6.54127 42.9582 6.53509 43.1019 6.52895L43.1205 6.52815C43.2591 6.52221 43.3913 6.51655 43.5209 6.51618L34.4637 4.9763ZM57.2966 35.1358L57.1938 34.9079C57.8539 34.6101 58.0969 33.6955 57.6436 33.1405L57.6436 33.1404C57.3048 32.7253 56.9623 32.3241 56.624 31.9277C55.4137 30.5097 54.2567 29.1542 53.5134 27.4536L53.7425 27.3535L53.5134 27.4536C53.2273 26.7989 53.101 26.2603 53.0806 25.7738C53.0601 25.287 53.1464 24.8676 53.265 24.4567C53.3138 24.2878 53.3676 24.1209 53.4224 23.9507C53.6345 23.2923 53.8625 22.5846 53.8781 21.522C53.8957 20.3224 53.5442 19.1048 53.1213 17.9844L53.1213 17.9843C52.6027 16.6082 51.9366 15.3356 51.1657 14.169C50.9742 13.8793 50.8982 13.5526 50.8672 13.2381C50.843 12.9931 50.8451 12.7374 50.8471 12.5037C50.8476 12.442 50.8481 12.3818 50.8481 12.3237C50.8481 11.5539 50.2239 10.9296 49.4541 10.9293C49.454 10.9293 49.4539 10.9293 49.4537 10.9293L57.2966 35.1358ZM57.2966 35.1358L57.1938 34.9079L53.8621 36.4112M57.2966 35.1358L53.8621 36.4112M53.8621 36.4112C53.8525 36.4156 53.8422 36.4202 53.8313 36.425M53.8621 36.4112L53.8313 36.425M53.8313 36.425C53.6851 36.4901 53.4297 36.6039 53.2562 36.7895M53.8313 36.425L53.2562 36.7895M53.2562 36.7895C53.1566 36.8961 53.0732 37.0366 53.0544 37.2137M53.2562 36.7895L53.0544 37.2137M53.0544 37.2137C53.0356 37.39 53.0842 37.5718 53.1914 37.7558L53.0544 37.2137ZM14.25 24.1792C14.25 20.8849 15.2222 18.1829 16.9319 15.1356L52.0301 46.959C51.6729 50.3173 49.5063 50.2652 47.0741 50.2067C46.9035 50.2026 46.7316 50.1984 46.5589 50.1955C43.7188 50.1457 43.4534 51.6209 43.0894 53.9469L42.8424 53.9082C42.8424 53.9082 42.8424 53.9082 42.8424 53.9082C42.6914 54.8721 42.3782 55.5251 41.926 55.9633C41.4741 56.4012 40.8552 56.6519 40.0387 56.7554C37.5782 57.0678 34.6001 56.8052 31.7469 56.1539C28.8936 55.5027 26.1873 54.4679 24.2678 53.2522L24.2677 53.2522C23.3165 52.6501 22.6715 52.0538 22.2918 51.441C21.9166 50.8355 21.793 50.2024 21.904 49.5015C21.9612 49.1407 22.0206 48.7852 22.0792 48.4349C22.3531 46.7969 22.6082 45.2716 22.5257 43.8318C22.4243 42.0595 21.8141 40.4083 20.1469 38.7774L19.9721 38.9561L20.1469 38.7774C16.0338 34.7542 14.25 29.4847 14.25 24.1792ZM53.1413 43.9209C52.9834 44.1707 52.785 44.4456 52.5469 44.7549L53.1915 37.756L54.3879 39.8139L54.6041 39.6883L54.3879 39.814C54.4734 39.9609 54.5037 40.2197 54.455 40.5898C54.4077 40.9489 54.2926 41.3675 54.1411 41.7953C53.8382 42.6512 53.4045 43.5043 53.1413 43.9209Z" stroke="url(#paint1_linear_1475_16173)" stroke-width="0.5"/>
</g>
<g filter="url(#filter1_d_1475_16173)">
<path fill-rule="evenodd" clip-rule="evenodd" d="M33.5354 5.9201C33.9013 5.90447 34.1943 6.1991 34.3607 6.5253C34.5179 6.83327 34.5833 7.21372 34.3915 7.50138L30.8074 12.8765C30.7135 13.0173 30.5267 13.0567 30.3677 12.9987C30.262 12.9601 30.1738 12.8799 30.1411 12.7721L28.7926 8.32544C28.6724 7.92894 28.8486 7.51179 29.0613 7.15625C29.2514 6.83863 29.498 6.5257 29.8578 6.4385C31.0568 6.14783 32.288 5.97341 33.5354 5.9201ZM37.2093 6.66038C37.3765 6.39674 37.6605 6.18814 37.9672 6.24581C39.1855 6.47483 40.4442 6.85117 41.5252 7.2996C41.7584 7.39632 41.8692 7.65514 41.8677 7.90757C41.8678 7.96366 41.8708 8.01935 41.8765 8.07447C41.9674 8.95218 42.4721 9.87673 42.2355 10.7268L41.4533 13.5383C41.4154 13.6748 41.2915 13.7669 41.1516 13.7894C41.0038 13.8133 40.8483 13.7581 40.772 13.6292L37.1344 7.47835C36.9853 7.22615 37.0525 6.90785 37.2093 6.66038ZM35.3455 7.65107C35.4493 7.49537 35.6364 7.4233 35.8235 7.4233C35.9708 7.42179 36.1156 7.48656 36.1906 7.6134L40.0029 14.0597C40.1004 14.2246 40.076 14.4308 39.9811 14.5972C39.8769 14.78 39.6887 14.915 39.4791 14.897L31.6654 14.2273C31.5151 14.2144 31.3944 14.103 31.342 13.9614C31.299 13.8453 31.3037 13.7137 31.3724 13.6107L35.3455 7.65107ZM26.0513 7.80581C26.3752 7.64972 26.7765 7.74749 27.1185 7.85834C27.5066 7.98411 27.8414 8.21512 27.9598 8.60551L29.1215 12.4354C29.2139 12.7397 29.0365 13.0548 28.7866 13.2515C28.593 13.4039 28.3424 13.4938 28.1074 13.42L21.7929 11.4355C21.7135 11.4106 21.6702 11.3343 21.6702 11.251C21.6702 10.9624 21.7327 10.662 21.9523 10.4748C23.2052 9.40692 24.5837 8.51312 26.0513 7.80581ZM44.1344 9.42802C44.5304 9.27565 44.9717 9.21475 45.3153 9.46372C46.0531 9.99836 46.7762 10.5956 47.4687 11.2552C47.7477 11.521 47.8007 11.9345 47.7992 12.3199C47.7992 12.4639 47.7226 12.603 47.588 12.6544L43.1186 14.3598C42.9148 14.4375 42.6887 14.3589 42.529 14.2102C42.3723 14.0642 42.2776 13.8501 42.3349 13.6437L43.304 10.1545C43.4036 9.79606 43.7872 9.56161 44.1344 9.42802ZM21.1764 12.4209C21.2938 12.3048 21.4621 12.2447 21.6196 12.2943L27.9946 14.3019C28.0969 14.3341 28.1597 14.4341 28.1597 14.5414C28.1611 15.2774 28.285 16.1492 27.809 16.7105L24.5159 20.5944C24.3079 20.8398 23.9474 20.8711 23.6376 20.7842C23.3634 20.7072 23.1059 20.53 23.0319 20.255L21.0407 12.8514C20.9989 12.696 21.0619 12.534 21.1764 12.4209ZM19.4781 13.027C19.5681 12.9155 19.7307 12.8856 19.8737 12.8944C20.0345 12.9043 20.1734 12.9972 20.2152 13.1527L22.1633 20.4025C22.2547 20.7426 22.0949 21.0924 21.882 21.3728C21.6284 21.7068 21.2582 22.0065 20.8421 21.9541C19.5365 21.7896 18.146 21.5781 16.9834 21.1867C16.1483 20.9055 15.789 19.9882 16.0903 19.1601C16.5364 17.9337 17.1293 16.6426 17.728 15.5862C18.2447 14.6728 18.8356 13.8228 19.4781 13.027ZM47.9391 13.4647C48.0842 13.4093 48.2458 13.4551 48.363 13.5569C48.4885 13.6659 48.5578 13.8342 48.51 13.9934L46.655 20.1763C46.606 20.3397 46.4678 20.457 46.308 20.5165C46.0758 20.6029 45.7967 20.5695 45.6461 20.3728L43.3632 17.3896C42.954 16.8549 43.0519 16.0862 43.0519 15.4129C43.0519 15.3645 43.0794 15.3199 43.1246 15.3027L47.9391 13.4647ZM49.4436 13.9643C49.6772 13.9628 49.9167 14.04 50.0513 14.231C51.0568 15.6572 51.898 17.2592 52.4839 19.0225C52.7378 19.7868 52.4338 20.6277 51.6791 20.9088C50.901 21.1986 50.0112 21.3797 49.2355 21.5139C48.8032 21.5887 48.4019 21.2916 48.1105 20.9635C47.8154 20.631 47.567 20.19 47.6947 19.7641L49.4297 13.9746C49.4315 13.9685 49.4372 13.9643 49.4436 13.9643ZM31.2466 15.3253C31.3211 15.1881 31.4627 15.0922 31.6183 15.1055L39.518 15.7815C39.6948 15.7966 39.8377 15.925 39.911 16.0866C39.9893 16.2595 39.9869 16.4675 39.8648 16.6128L36.2097 20.9606C35.9795 21.2344 35.564 21.2431 35.2298 21.1155C34.4894 20.8348 33.5136 20.6165 33.1808 19.8981L31.2247 15.6752C31.1729 15.5633 31.1878 15.4337 31.2466 15.3253ZM29.8033 16.1858C30.1662 16.1844 30.5575 16.3185 30.7098 16.6479L33.0732 21.7616C33.1298 21.884 33.1259 22.0242 33.085 22.1527C33.0107 22.3856 32.8156 22.5816 32.5711 22.5809C29.9251 22.5725 27.4388 22.4945 25.2017 22.3535C24.9924 22.3404 24.834 22.1665 24.7831 21.9631C24.7462 21.8158 24.767 21.6554 24.8651 21.5396L29.2017 16.4222C29.3475 16.2501 29.5778 16.1842 29.8033 16.1858ZM40.3108 17.4375C40.5696 17.1291 41.0048 17.055 41.4075 17.0565C41.7264 17.055 42.0623 17.1379 42.2559 17.3912L45.2109 21.2581C45.3006 21.3754 45.3179 21.5306 45.2833 21.6742C45.2329 21.8831 45.0757 22.0649 44.8617 22.0853C42.3975 22.3208 39.5306 22.473 36.4643 22.5421C36.3655 22.5443 36.2833 22.4686 36.2661 22.3713C36.2559 22.3135 36.2694 22.2533 36.3071 22.2084L40.3108 17.4375Z" fill="#D8869E"/>
</g>
<defs>
<filter id="filter0_d_1475_16173" x="0" y="0.136719" width="72.1263" height="81" filterUnits="userSpaceOnUse" color-interpolation-filters="sRGB">
<feFlood flood-opacity="0" result="BackgroundImageFix"/>
<feColorMatrix in="SourceAlpha" type="matrix" values="0 0 0 0 0 0 0 0 0 0 0 0 0 0 0 0 0 0 127 0" result="hardAlpha"/>
<feOffset dy="10"/>
<feGaussianBlur stdDeviation="7"/>
<feComposite in2="hardAlpha" operator="out"/>
<feColorMatrix type="matrix" values="0 0 0 0 0 0 0 0 0 0 0 0 0 0 0 0 0 0 0.25 0"/>
<feBlend mode="normal" in2="BackgroundImageFix" result="effect1_dropShadow_1475_16173"/>
<feBlend mode="normal" in="SourceGraphic" in2="effect1_dropShadow_1475_16173" result="shape"/>
</filter>
<filter id="filter1_d_1475_16173" x="12.9849" y="4.91951" width="42.587" height="22.6614" filterUnits="userSpaceOnUse" color-interpolation-filters="sRGB">
<feFlood flood-opacity="0" result="BackgroundImageFix"/>
<feColorMatrix in="SourceAlpha" type="matrix" values="0 0 0 0 0 0 0 0 0 0 0 0 0 0 0 0 0 0 127 0" result="hardAlpha"/>
<feOffset dy="2"/>
<feGaussianBlur stdDeviation="1.5"/>
<feComposite in2="hardAlpha" operator="out"/>
<feColorMatrix type="matrix" values="0 0 0 0 0.821106 0 0 0 0 0.428592 0 0 0 0 0.72765 0 0 0 0.4 0"/>
<feBlend mode="normal" in2="BackgroundImageFix" result="effect1_dropShadow_1475_16173"/>
<feBlend mode="normal" in="SourceGraphic" in2="effect1_dropShadow_1475_16173" result="shape"/>
</filter>
<linearGradient id="paint0_linear_1475_16173" x1="35.8438" y1="-0.363281" x2="36.0663" y2="57.1367" gradientUnits="userSpaceOnUse">
<stop stop-color="#FFFCF6"/>
<stop offset="1" stop-color="#FEC794"/>
</linearGradient>
<linearGradient id="paint1_linear_1475_16173" x1="36.0632" y1="4.13672" x2="36.0632" y2="57.1367" gradientUnits="userSpaceOnUse">
<stop stop-color="white"/>
<stop offset="1" stop-color="white" stop-opacity="0"/>
</linearGradient>
</defs>
</svg>
