<svg width="73" height="82" viewBox="0 0 73 82" fill="none" xmlns="http://www.w3.org/2000/svg">
<g filter="url(#filter0_d_1475_16176)">
<path fill-rule="evenodd" clip-rule="evenodd" d="M34.689 4.13672C27.7017 4.13755 21.0384 7.14931 16.8332 14.3012C12.1644 22.2406 13.2844 32.2205 20.0562 38.8454C23.3177 42.0358 22.4107 45.2497 21.7509 49.4141C21.5086 50.9416 22.2937 52.2061 24.2414 53.4397C28.1661 55.9253 35.2494 57.6408 40.2766 57.0027C41.9871 56.7856 42.9993 55.9345 43.3142 53.9258C43.6809 51.5856 43.9456 50.1014 46.8037 50.1507C49.4538 50.1966 51.9243 50.5123 52.3094 46.8967C52.3987 46.0599 52.3403 45.7258 53.0285 44.8313C53.2702 44.5174 53.475 44.2341 53.6396 43.9735C54.1903 43.1018 55.4163 40.4699 54.8977 39.5787L53.6941 37.5082C53.34 36.9002 53.9455 36.6513 54.2554 36.5118L57.6079 34.9984C58.4105 34.6359 58.7196 33.5301 58.1508 32.8336C56.5681 30.895 54.9703 29.3165 54.0316 27.17C52.9182 24.6226 54.4107 24.0848 54.4183 21.306C54.4299 16.9813 51.9009 13.4693 49.6258 10.8985C46.265 7.10003 40.5622 4.13588 34.689 4.13672Z" fill="url(#paint0_linear_1475_16176)"/>
<path d="M17.0487 14.4279L17.0487 14.4279C12.4366 22.271 13.5435 32.1243 20.231 38.6667C21.9082 40.3073 22.5218 41.9679 22.6236 43.7502C22.7063 45.1976 22.4499 46.7307 22.1745 48.3774C22.1154 48.7307 22.0554 49.0892 21.9978 49.4532L21.7509 49.4141L21.9978 49.4532C21.8859 50.1587 22.0101 50.796 22.3875 51.4055C22.7694 52.0223 23.4182 52.6224 24.3752 53.2285C26.3067 54.4518 29.03 55.4933 31.9012 56.1489C34.7722 56.8044 37.7691 57.069 40.2451 56.7547C41.0668 56.6504 41.6897 56.3979 42.1447 55.9566C42.5999 55.5152 42.9151 54.8574 43.0672 53.8871C43.1585 53.3044 43.2455 52.7605 43.3702 52.2791C43.495 51.797 43.6615 51.3607 43.9212 50.997C44.4571 50.2462 45.3355 49.8754 46.808 49.9007C46.987 49.9038 47.1636 49.9081 47.3377 49.9123C47.8171 49.9239 48.278 49.935 48.7194 49.9202C49.3191 49.9002 49.8576 49.8324 50.3195 49.6622C50.7759 49.4941 51.1589 49.2256 51.453 48.7958C51.7498 48.362 51.9674 47.7474 52.0608 46.8703L52.0608 46.8702C52.071 46.7744 52.0794 46.6822 52.0875 46.5929C52.1127 46.3157 52.1354 46.0659 52.2033 45.8193C52.2975 45.4773 52.4748 45.141 52.8303 44.6788L52.8304 44.6788C53.0699 44.3678 53.2694 44.0913 53.4282 43.84C53.693 43.4209 54.1292 42.5619 54.4339 41.7001C54.5862 41.2694 54.702 40.8479 54.7494 40.4862C54.7983 40.1136 54.7678 39.8527 54.6816 39.7044L54.6815 39.7043L53.4781 37.634L17.0487 14.4279ZM17.0487 14.4279C21.204 7.36099 27.7799 4.38754 34.6891 4.38672C40.4844 4.38589 46.121 7.31453 49.4386 11.0642L49.4386 11.0642C51.7069 13.6273 54.1797 17.0787 54.1683 21.3054C54.1653 22.3868 53.933 23.1034 53.7161 23.7723C53.6636 23.9343 53.6119 24.0935 53.5647 24.2544C53.4435 24.6672 53.3535 25.0891 53.3714 25.579C53.3893 26.0688 53.5144 26.611 53.8025 27.2701L53.8025 27.2702C54.5512 28.9822 55.7164 30.3477 56.9354 31.7763C57.2744 32.1736 57.6176 32.5758 57.9571 32.9917L58.1508 32.8336M17.0487 14.4279L58.1508 32.8336M58.1508 32.8336L57.9571 32.9917C58.4138 33.551 58.17 34.4702 57.505 34.7705C57.505 34.7705 57.505 34.7706 57.505 34.7706L54.1528 36.2838C54.1427 36.2883 54.132 36.2931 54.1206 36.2982C53.9734 36.3637 53.7173 36.4777 53.5433 36.6634C53.4431 36.7703 53.3592 36.9113 53.3403 37.0892C53.3214 37.2662 53.3703 37.4488 53.478 37.6338L58.1508 32.8336Z" stroke="url(#paint1_linear_1475_16176)" stroke-width="0.5"/>
</g>
<g filter="url(#filter1_d_1475_16176)">
<path d="M45.9576 17.7948C44.6104 12.295 39.5048 8.35614 33.9649 8.53738C33.1731 8.56411 32.3747 8.67352 31.5771 8.87564C25.9077 10.3047 22.0841 16.1519 23.5933 21.9324C24.9121 26.9837 30.153 30.3897 35.3188 28.9824C39.7529 27.7747 42.7412 23.1284 41.4325 18.5782C40.335 14.7622 36.2868 12.1914 32.3513 13.4058C29.1524 14.393 26.9968 17.8499 28.126 21.1707C29.0029 23.749 31.8802 25.4904 34.5855 24.4313C35.5652 24.048 36.3653 23.3021 36.8221 22.3759C37.279 21.4505 37.3759 20.3029 36.8631 19.2606C36.5315 18.5882 35.9569 18.0579 35.2511 17.7748C34.5454 17.4916 33.6292 17.5067 32.9134 18.0604C32.8875 18.0788 32.8624 18.098 32.8382 18.1189C32.51 18.4053 32.4766 18.904 32.7639 19.2322C33.0504 19.5604 33.549 19.5938 33.8772 19.3065C34.1228 19.1161 34.3508 19.1136 34.6648 19.2397C34.9797 19.3658 35.3071 19.6732 35.4482 19.9605C35.7305 20.5351 35.6821 21.1189 35.4056 21.6802C35.1292 22.2414 34.6005 22.7359 34.0092 22.9672C32.2235 23.6663 30.2307 22.4552 29.6227 20.6671C28.8017 18.2542 30.4178 15.6508 32.8132 14.9117C35.8491 13.9746 39.0496 16.0058 39.9141 19.0109C40.9656 22.6666 38.521 26.4718 34.9045 27.4573C30.6291 28.6216 26.2242 25.7627 25.1201 21.534C23.8422 16.6405 27.1162 11.626 31.9579 10.4032C37.4694 9.01428 43.0912 12.7167 44.4275 18.1715C45.9292 24.3002 41.8125 30.5183 35.7431 31.9691C30.6508 33.1868 25.2145 30.8958 22.3681 26.5194C22.3547 26.496 22.3397 26.4726 22.3238 26.4509C22.0674 26.0984 21.5738 26.0207 21.2213 26.2771C20.8689 26.5336 20.7912 27.0272 21.0476 27.3796C24.2548 32.3115 30.3376 34.8831 36.1089 33.5033C41.2855 32.2656 45.2034 27.9902 46.1146 22.9722C46.4178 21.2993 46.3869 19.5479 45.9576 17.7948Z" fill="#D8869E"/>
<path d="M45.9576 17.7948C44.6104 12.295 39.5048 8.35614 33.9649 8.53738C33.1731 8.56411 32.3747 8.67352 31.5771 8.87564C25.9077 10.3047 22.0841 16.1519 23.5933 21.9324C24.9121 26.9837 30.153 30.3897 35.3188 28.9824C39.7529 27.7747 42.7412 23.1284 41.4325 18.5782C40.335 14.7622 36.2868 12.1914 32.3513 13.4058C29.1524 14.393 26.9968 17.8499 28.126 21.1707C29.0029 23.749 31.8802 25.4904 34.5855 24.4313C35.5652 24.048 36.3653 23.3021 36.8221 22.3759C37.279 21.4505 37.3759 20.3029 36.8631 19.2606C36.5315 18.5882 35.9569 18.0579 35.2511 17.7748C34.5454 17.4916 33.6292 17.5067 32.9134 18.0604C32.8875 18.0788 32.8624 18.098 32.8382 18.1189C32.51 18.4053 32.4766 18.904 32.7639 19.2322C33.0504 19.5604 33.549 19.5938 33.8772 19.3065C34.1228 19.1161 34.3508 19.1136 34.6648 19.2397C34.9797 19.3658 35.3071 19.6732 35.4482 19.9605C35.7305 20.5351 35.6821 21.1189 35.4056 21.6802C35.1292 22.2414 34.6005 22.7359 34.0092 22.9672C32.2235 23.6663 30.2307 22.4552 29.6227 20.6671C28.8017 18.2542 30.4178 15.6508 32.8132 14.9117C35.8491 13.9746 39.0496 16.0058 39.9141 19.0109C40.9656 22.6666 38.521 26.4718 34.9045 27.4573C30.6291 28.6216 26.2242 25.7627 25.1201 21.534C23.8422 16.6405 27.1162 11.626 31.9579 10.4032C37.4694 9.01428 43.0912 12.7167 44.4275 18.1715C45.9292 24.3002 41.8125 30.5183 35.7431 31.9691C30.6508 33.1868 25.2145 30.8958 22.3681 26.5194C22.3547 26.496 22.3397 26.4726 22.3238 26.4509C22.0674 26.0984 21.5738 26.0207 21.2213 26.2771C20.8689 26.5336 20.7912 27.0272 21.0476 27.3796C24.2548 32.3115 30.3376 34.8831 36.1089 33.5033C41.2855 32.2656 45.2034 27.9902 46.1146 22.9722C46.4178 21.2993 46.3869 19.5479 45.9576 17.7948Z" stroke="url(#paint2_linear_1475_16176)"/>
</g>
<defs>
<filter id="filter0_d_1475_16176" x="0" y="0.136719" width="72.4419" height="81" filterUnits="userSpaceOnUse" color-interpolation-filters="sRGB">
<feFlood flood-opacity="0" result="BackgroundImageFix"/>
<feColorMatrix in="SourceAlpha" type="matrix" values="0 0 0 0 0 0 0 0 0 0 0 0 0 0 0 0 0 0 127 0" result="hardAlpha"/>
<feOffset dy="10"/>
<feGaussianBlur stdDeviation="7"/>
<feComposite in2="hardAlpha" operator="out"/>
<feColorMatrix type="matrix" values="0 0 0 0 0 0 0 0 0 0 0 0 0 0 0 0 0 0 0.25 0"/>
<feBlend mode="normal" in2="BackgroundImageFix" result="effect1_dropShadow_1475_16176"/>
<feBlend mode="normal" in="SourceGraphic" in2="effect1_dropShadow_1475_16176" result="shape"/>
</filter>
<filter id="filter1_d_1475_16176" x="17.3965" y="7.03137" width="32.4188" height="32.3424" filterUnits="userSpaceOnUse" color-interpolation-filters="sRGB">
<feFlood flood-opacity="0" result="BackgroundImageFix"/>
<feColorMatrix in="SourceAlpha" type="matrix" values="0 0 0 0 0 0 0 0 0 0 0 0 0 0 0 0 0 0 127 0" result="hardAlpha"/>
<feOffset dy="2"/>
<feGaussianBlur stdDeviation="1.5"/>
<feComposite in2="hardAlpha" operator="out"/>
<feColorMatrix type="matrix" values="0 0 0 0 0.821106 0 0 0 0 0.428592 0 0 0 0 0.72765 0 0 0 0.4 0"/>
<feBlend mode="normal" in2="BackgroundImageFix" result="effect1_dropShadow_1475_16176"/>
<feBlend mode="normal" in="SourceGraphic" in2="effect1_dropShadow_1475_16176" result="shape"/>
</filter>
<linearGradient id="paint0_linear_1475_16176" x1="36" y1="-0.363281" x2="36.2209" y2="57.1367" gradientUnits="userSpaceOnUse">
<stop stop-color="#FFFCF6"/>
<stop offset="1" stop-color="#FEC794"/>
</linearGradient>
<linearGradient id="paint1_linear_1475_16176" x1="36.2209" y1="4.13672" x2="36.2209" y2="57.1367" gradientUnits="userSpaceOnUse">
<stop stop-color="white"/>
<stop offset="1" stop-color="white" stop-opacity="0"/>
</linearGradient>
<linearGradient id="paint2_linear_1475_16176" x1="33" y1="-3.36328" x2="34" y2="45.6367" gradientUnits="userSpaceOnUse">
<stop stop-color="#D8869E"/>
<stop offset="1" stop-color="#FF85B3"/>
</linearGradient>
</defs>
</svg>
