<svg width="74" height="82" viewBox="0 0 74 82" fill="none" xmlns="http://www.w3.org/2000/svg">
<g filter="url(#filter0_d_1475_16182)">
<path fill-rule="evenodd" clip-rule="evenodd" d="M35.4586 4.06445C28.4712 4.06529 21.808 7.07704 17.6027 14.2289C12.9339 22.1684 14.0539 32.1482 20.8258 38.7731C24.0872 41.9636 23.1802 45.1774 22.5204 49.3418C22.2782 50.8694 23.0633 52.1339 25.011 53.3675C28.9356 55.8531 36.0173 57.5686 41.0444 56.9305C42.7549 56.7133 43.7689 55.8622 44.0837 53.8536C44.4495 51.5133 44.7151 50.0292 47.5732 50.0784C50.2233 50.1244 52.6939 50.4401 53.0789 46.8245C53.1683 45.9876 53.109 45.6535 53.798 44.759C54.0397 44.4451 54.2445 44.1618 54.4091 43.9012C54.9598 43.0295 56.1858 40.3976 55.6672 39.5064L54.462 37.4359C54.1079 36.8279 54.7151 36.579 55.0249 36.4395L58.3774 34.9261C59.1801 34.5637 59.4891 33.4578 58.9203 32.7613C57.3376 30.8228 55.7399 29.2442 54.8011 27.0978C53.6878 24.5504 55.1803 24.0125 55.1878 21.2338C55.1995 16.9091 52.6705 13.397 50.3954 10.8263C47.0345 7.02776 41.3317 4.06362 35.4586 4.06445Z" fill="url(#paint0_linear_1475_16182)"/>
<path d="M17.8182 14.3556L17.8182 14.3556C21.9735 7.28872 28.5494 4.31528 35.4586 4.31445C41.254 4.31363 46.8905 7.24226 50.2081 10.9919L50.2082 10.992C52.4765 13.555 54.9492 17.0064 54.9378 21.2331C54.9349 22.3145 54.7025 23.0311 54.4856 23.7C54.4331 23.862 54.3815 24.0212 54.3342 24.1821C54.2131 24.5949 54.123 25.0169 54.1409 25.5067C54.1588 25.9965 54.2839 26.5387 54.572 27.1979L54.572 27.1979C55.3208 28.9099 56.4859 30.2754 57.705 31.7041C58.044 32.1014 58.3871 32.5035 58.7267 32.9194L58.9203 32.7613L58.7267 32.9194C59.1834 33.4787 58.9395 34.398 58.2746 34.6983C58.2746 34.6983 58.2745 34.6983 58.2745 34.6983L54.9223 36.2116C54.9121 36.2161 54.9012 36.221 54.8896 36.2262C54.7423 36.2917 54.4863 36.4056 54.3123 36.5908C54.2119 36.6977 54.1276 36.8386 54.1084 37.0166C54.0893 37.1938 54.1381 37.3766 54.246 37.5618L55.4511 39.6321C55.5374 39.7804 55.5679 40.0413 55.519 40.414C55.4715 40.7756 55.3557 41.1971 55.2034 41.6278C54.8988 42.4897 54.4626 43.3486 54.1978 43.7677C54.039 44.019 53.8394 44.2955 53.5999 44.6065C53.2439 45.0687 53.0666 45.405 52.9725 45.7471C52.9048 45.9932 52.8822 46.2427 52.8571 46.5193C52.849 46.609 52.8406 46.7016 52.8303 46.7979L52.8303 46.798C52.7369 47.6751 52.5194 48.2897 52.2225 48.7235C51.9284 49.1534 51.5454 49.4218 51.089 49.5899C50.6271 49.7601 50.0886 49.8279 49.489 49.848C49.0475 49.8628 48.5867 49.8516 48.1073 49.84C47.9331 49.8358 47.7565 49.8316 47.5775 49.8285C46.105 49.8031 45.2264 50.1739 44.6904 50.9247C44.4307 51.2884 44.2641 51.7247 44.1393 52.2068C44.0147 52.6882 43.9278 53.2322 43.8367 53.8149C43.6847 54.785 43.369 55.4428 42.9135 55.8843C42.4581 56.3256 41.8347 56.5781 41.0129 56.6825C38.537 56.9967 35.5405 56.7321 32.6699 56.0766C29.7991 55.4211 27.0763 54.3796 25.1447 53.1563C24.1878 52.5502 23.5389 51.9501 23.157 51.3333C22.7796 50.7238 22.6554 50.0865 22.7673 49.3809L22.5204 49.3418L22.7673 49.3809C22.825 49.0169 22.8849 48.6584 22.944 48.3052C23.2194 46.6584 23.4759 45.1253 23.3931 43.678C23.2913 41.8956 22.6777 40.235 21.0006 38.5944C14.3131 32.052 13.2061 22.1987 17.8182 14.3556Z" stroke="url(#paint1_linear_1475_16182)" stroke-width="0.5"/>
</g>
<g filter="url(#filter1_d_1475_16182)">
<path fill-rule="evenodd" clip-rule="evenodd" d="M38.8375 6.17419C38.8284 6.00654 38.7028 5.87051 38.5385 5.83608C36.7994 5.47179 34.9987 5.3636 33.2198 5.58043C26.9208 6.34809 21.2676 9.9853 18.3166 17.3474C18.272 17.4587 18.3669 17.5748 18.4851 17.5545C19.322 17.4106 20.3702 17.2309 20.9701 17.128C21.2516 17.0798 21.4344 17.0484 21.4504 17.0456L24.7945 16.4632C25.1852 16.3952 25.254 16.2372 25.2757 16.0229C25.2981 15.8084 25.1848 15.5498 24.9853 15.4354C23.836 14.7743 23.2607 13.5381 23.4469 12.3651C23.633 11.1922 24.6249 10.1338 26.2777 9.8464C27.9304 9.55895 29.2212 10.2191 29.7924 11.2603C30.3636 12.3015 30.2379 13.6646 29.3793 14.6749C29.2302 14.8499 29.2101 15.1274 29.3035 15.3217C29.397 15.5161 29.5165 15.6462 29.9073 15.5783L32.6203 15.1064C33.3901 14.9726 33.9056 14.24 33.7717 13.4701L33.0531 9.33831C32.9171 8.55624 33.325 7.86905 33.8933 7.59689C34.4609 7.32424 35.1723 7.37507 35.692 7.81644C36.386 8.40642 37.2629 8.46202 37.9049 8.10995C38.4671 7.80168 38.8936 7.20123 38.8375 6.17419ZM18.0506 18.7076C17.9037 18.7329 17.7832 18.8377 17.7394 18.9802C17.2504 20.5709 16.9587 22.1979 16.8592 23.8248C16.8287 24.3237 17.1909 24.7548 17.686 24.8232C20.7582 25.247 24.7175 25.5056 29.0491 25.3135C29.2798 25.3033 29.4506 25.0988 29.4467 24.8679C29.4248 23.5495 30.0367 22.534 30.9276 22.0453C31.9688 21.4741 33.3318 21.5998 34.3422 22.4584C34.5172 22.6075 34.794 22.6308 34.9884 22.538C35.1828 22.4445 35.3141 22.3248 35.2462 21.934L34.4404 17.3009C34.3065 16.531 33.5736 16.0154 32.8037 16.1495L30.0906 16.6222C29.3085 16.7582 28.6217 16.349 28.349 15.7808C28.0762 15.2126 28.1292 14.5064 28.5706 13.9867C29.1606 13.2927 29.2148 12.4154 28.8629 11.774C28.5102 11.1322 27.7762 10.6622 26.4617 10.8908C25.1472 11.1194 24.6111 11.809 24.4965 12.5322C24.3819 13.2554 24.7283 14.0648 25.5179 14.5189C26.1088 14.859 26.4021 15.5057 26.3371 16.132C26.272 16.7583 25.76 17.3754 24.9779 17.5114L21.96 18.0355C21.8981 18.0462 21.4445 18.1241 20.8464 18.2269C19.9651 18.3783 18.7699 18.5837 18.0506 18.7076ZM30.5008 24.8587C30.5084 25.0687 30.6958 25.2197 30.9053 25.2044C37.9136 24.6897 45.6724 22.9446 52.1375 18.8366C52.4968 18.6083 52.6661 18.1708 52.535 17.7658C51.9803 16.0514 51.072 14.5481 50.0453 13.2388C49.9535 13.1217 49.8033 13.0674 49.6573 13.0962L44.3659 14.1407C43.9751 14.2087 43.905 14.3662 43.8832 14.58C43.8608 14.7945 43.9741 15.0531 44.1736 15.1675C45.3229 15.8286 45.8994 17.0646 45.7133 18.2375C45.5271 19.4104 44.5352 20.4688 42.8825 20.7563C41.2297 21.0437 39.9391 20.3848 39.3679 19.3436C38.7967 18.3024 38.9231 16.9429 39.7817 15.9326C39.9308 15.7575 39.9502 15.4765 39.8569 15.2827C39.7634 15.0884 39.6439 14.9582 39.2532 15.0262L36.6361 15.4813C35.8665 15.6152 35.351 16.3474 35.4845 17.1171L36.2888 21.7527C36.4248 22.5347 36.0157 23.2221 35.4474 23.4943C34.8792 23.7671 34.1724 23.7105 33.6527 23.2691C32.9587 22.6791 32.0814 22.6248 31.44 22.9768C30.8886 23.2792 30.4645 23.8661 30.5008 24.8587ZM48.4156 12.2616C48.7205 12.2018 48.8427 11.8333 48.6285 11.6083C48.2438 11.2041 47.8574 10.8234 47.4798 10.4653C45.5988 8.68172 43.1284 7.20908 40.4183 6.33539C40.1605 6.25227 39.9023 6.45269 39.8718 6.72186C39.7504 7.7944 39.1856 8.61728 38.4116 9.04174C37.3704 9.61295 36.0107 9.48539 35.0003 8.62678C34.8253 8.47768 34.5452 8.45994 34.3507 8.55277C34.1564 8.64621 34.0308 8.76371 34.0988 9.15444L34.8166 13.2873C34.9504 14.0573 35.6831 14.573 36.453 14.4391L39.0686 13.9842C39.8507 13.8482 40.5391 14.2559 40.8113 14.8242C41.0839 15.3917 41.031 16.0986 40.5897 16.6183C40.0003 17.3122 39.9448 18.1934 40.2968 18.8348C40.6488 19.4768 41.3834 19.9429 42.6979 19.7143C44.0124 19.4857 44.5485 18.796 44.6631 18.0729C44.7778 17.3497 44.4308 16.5441 43.6411 16.0894C43.0501 15.7493 42.7575 15.0988 42.8225 14.4725C42.8873 13.8479 43.3952 13.2316 44.1736 13.0932L48.4156 12.2616Z" fill="#D8869E"/>
</g>
<defs>
<filter id="filter0_d_1475_16182" x="0.769531" y="0.0644531" width="72.4419" height="81" filterUnits="userSpaceOnUse" color-interpolation-filters="sRGB">
<feFlood flood-opacity="0" result="BackgroundImageFix"/>
<feColorMatrix in="SourceAlpha" type="matrix" values="0 0 0 0 0 0 0 0 0 0 0 0 0 0 0 0 0 0 127 0" result="hardAlpha"/>
<feOffset dy="10"/>
<feGaussianBlur stdDeviation="7"/>
<feComposite in2="hardAlpha" operator="out"/>
<feColorMatrix type="matrix" values="0 0 0 0 0 0 0 0 0 0 0 0 0 0 0 0 0 0 0.25 0"/>
<feBlend mode="normal" in2="BackgroundImageFix" result="effect1_dropShadow_1475_16182"/>
<feBlend mode="normal" in="SourceGraphic" in2="effect1_dropShadow_1475_16182" result="shape"/>
</filter>
<filter id="filter1_d_1475_16182" x="13.8574" y="4.46924" width="41.7217" height="25.9088" filterUnits="userSpaceOnUse" color-interpolation-filters="sRGB">
<feFlood flood-opacity="0" result="BackgroundImageFix"/>
<feColorMatrix in="SourceAlpha" type="matrix" values="0 0 0 0 0 0 0 0 0 0 0 0 0 0 0 0 0 0 127 0" result="hardAlpha"/>
<feOffset dy="2"/>
<feGaussianBlur stdDeviation="1.5"/>
<feComposite in2="hardAlpha" operator="out"/>
<feColorMatrix type="matrix" values="0 0 0 0 0.821106 0 0 0 0 0.428592 0 0 0 0 0.72765 0 0 0 0.4 0"/>
<feBlend mode="normal" in2="BackgroundImageFix" result="effect1_dropShadow_1475_16182"/>
<feBlend mode="normal" in="SourceGraphic" in2="effect1_dropShadow_1475_16182" result="shape"/>
</filter>
<linearGradient id="paint0_linear_1475_16182" x1="36.7695" y1="-0.435547" x2="36.9905" y2="57.0645" gradientUnits="userSpaceOnUse">
<stop stop-color="#FFFCF6"/>
<stop offset="1" stop-color="#FEC794"/>
</linearGradient>
<linearGradient id="paint1_linear_1475_16182" x1="36.9905" y1="4.06445" x2="36.9905" y2="57.0645" gradientUnits="userSpaceOnUse">
<stop stop-color="white"/>
<stop offset="1" stop-color="white" stop-opacity="0"/>
</linearGradient>
</defs>
</svg>
