<?xml version="1.0" encoding="UTF-8"?>
<svg width="52px" height="44px" viewBox="0 0 52 44" version="1.1" xmlns="http://www.w3.org/2000/svg" xmlns:xlink="http://www.w3.org/1999/xlink">
    <title>Path</title>
    <g id="Page-1" stroke="none" stroke-width="1" fill="none" fill-rule="evenodd">
        <g id="twitter" transform="translate(0.000000, 0.872000)" fill="#C95632" fill-rule="nonzero">
            <path d="M52.002,5.002 C50.088,5.852 48.032,6.424 45.874,6.682 C48.078,5.362 49.768,3.272 50.564,0.78 C48.504,2.002 46.22,2.89 43.788,3.37 C41.842,1.296 39.07,0 36.002,0 C30.11,0 25.334,4.778 25.334,10.668 C25.334,11.504 25.43,12.32 25.61,13.098 C16.744,12.654 8.884,8.406 3.62,1.95 C2.704,3.526 2.178,5.358 2.178,7.316 C2.178,11.016 4.06,14.282 6.922,16.194 C5.174,16.138 3.528,15.658 2.09,14.86 C2.09,14.906 2.09,14.948 2.09,14.994 C2.09,20.164 5.766,24.476 10.648,25.454 C9.754,25.698 8.81,25.828 7.836,25.828 C7.15,25.828 6.48,25.76 5.83,25.638 C7.188,29.876 11.128,32.962 15.796,33.048 C12.146,35.91 7.546,37.616 2.546,37.616 C1.686,37.616 0.836,37.566 0,37.466 C4.722,40.492 10.328,42.258 16.354,42.258 C35.978,42.258 46.706,26.002 46.706,11.904 C46.706,11.442 46.696,10.982 46.676,10.524 C48.762,9.018 50.572,7.14 52.002,5.002 Z" id="Path"></path>
        </g>
    </g>
</svg>