<svg width="45" height="46" viewBox="0 0 45 46" fill="none" xmlns="http://www.w3.org/2000/svg">
<path d="M1 1.75928H19.544V20.3033H1V1.75928Z" stroke="#FF864E" stroke-width="2"/>
<path d="M19.5443 34.9993C19.5443 40.12 15.3931 44.2717 10.2725 44.2717C5.15176 44.2717 1 40.12 1 34.9993C1 29.8786 5.15168 25.7274 10.2725 25.7274C15.3932 25.7274 19.5443 29.8786 19.5443 34.9993Z" stroke="#C95632" stroke-width="2"/>
<path d="M24.9688 25.7273H43.5127V44.2713H24.9688V25.7273Z" stroke="#FF864E" stroke-width="2"/>
<mask id="path-4-inside-1_4587_21600" fill="white">
<path d="M44.5443 11.0312C44.5443 16.7042 39.9448 21.3031 34.2718 21.3031C28.5989 21.3031 24 16.7042 24 11.0312C24 5.35826 28.5989 0.758789 34.2718 0.758789C39.9448 0.758789 44.5443 5.35826 44.5443 11.0312Z"/>
</mask>
<path d="M42.5443 11.0312C42.5443 15.5995 38.8404 19.3031 34.2718 19.3031V23.3031C41.0492 23.3031 46.5443 17.809 46.5443 11.0312H42.5443ZM34.2718 19.3031C29.7034 19.3031 26 15.5997 26 11.0312H22C22 17.8088 27.4943 23.3031 34.2718 23.3031V19.3031ZM26 11.0312C26 6.46267 29.7036 2.75879 34.2718 2.75879V-1.24121C27.4941 -1.24121 22 4.25385 22 11.0312H26ZM34.2718 2.75879C38.8402 2.75879 42.5443 6.46283 42.5443 11.0312H46.5443C46.5443 4.25369 41.0494 -1.24121 34.2718 -1.24121V2.75879Z" fill="#C95632" mask="url(#path-4-inside-1_4587_21600)"/>
</svg>
