<svg width="316" height="253" viewBox="0 0 316 253" fill="none" xmlns="http://www.w3.org/2000/svg">
<path fill-rule="evenodd" clip-rule="evenodd" d="M44 0H0V19L22 57L44 19V0Z" fill="#FF864E"/>
<path d="M22 57L0 19L22 19V57Z" fill="url(#paint0_radial_1475_15910)"/>
<path d="M22 38L0 0L44 3.83599e-06L22 38Z" fill="url(#paint1_linear_1475_15910)"/>
<path fill-rule="evenodd" clip-rule="evenodd" d="M44 71H0V90L22 128L44 90V71Z" fill="#FF864E"/>
<path d="M22 128L0 90L22 90V128Z" fill="url(#paint2_radial_1475_15910)"/>
<path d="M22 109L0 71L44 71L22 109Z" fill="url(#paint3_linear_1475_15910)"/>
<path fill-rule="evenodd" clip-rule="evenodd" d="M112 0H68V19L90 57L112 19V0Z" fill="#FF864E"/>
<path d="M90 57L68 19L90 19V57Z" fill="url(#paint4_radial_1475_15910)"/>
<path d="M90 38L68 0L112 3.83599e-06L90 38Z" fill="url(#paint5_linear_1475_15910)"/>
<path fill-rule="evenodd" clip-rule="evenodd" d="M112 71H68V90L90 128L112 90V71Z" fill="#FF864E"/>
<path d="M90 128L68 90L90 90V128Z" fill="url(#paint6_radial_1475_15910)"/>
<path d="M90 109L68 71L112 71L90 109Z" fill="url(#paint7_linear_1475_15910)"/>
<path fill-rule="evenodd" clip-rule="evenodd" d="M180 0H136V19L158 57L180 19V0Z" fill="#FF864E"/>
<path d="M158 57L136 19L158 19V57Z" fill="url(#paint8_radial_1475_15910)"/>
<path d="M158 38L136 0L180 3.83599e-06L158 38Z" fill="url(#paint9_linear_1475_15910)"/>
<path fill-rule="evenodd" clip-rule="evenodd" d="M180 71H136V90L158 128L180 90V71Z" fill="#FF864E"/>
<path d="M158 128L136 90L158 90V128Z" fill="url(#paint10_radial_1475_15910)"/>
<path d="M158 109L136 71L180 71L158 109Z" fill="url(#paint11_linear_1475_15910)"/>
<path fill-rule="evenodd" clip-rule="evenodd" d="M248 0H204V19L226 57L248 19V0Z" fill="#FF864E"/>
<path d="M226 57L204 19L226 19V57Z" fill="url(#paint12_radial_1475_15910)"/>
<path d="M226 38L204 0L248 3.83599e-06L226 38Z" fill="url(#paint13_linear_1475_15910)"/>
<path fill-rule="evenodd" clip-rule="evenodd" d="M316 0H272V19L294 57L316 19V0Z" fill="#FF864E"/>
<path d="M294 57L272 19L294 19V57Z" fill="url(#paint14_radial_1475_15910)"/>
<path d="M294 38L272 0L316 3.83599e-06L294 38Z" fill="url(#paint15_linear_1475_15910)"/>
<path fill-rule="evenodd" clip-rule="evenodd" d="M316 71H272V90L294 128L316 90V71Z" fill="#FF864E"/>
<path d="M294 128L272 90L294 90V128Z" fill="url(#paint16_radial_1475_15910)"/>
<path d="M294 109L272 71L316 71L294 109Z" fill="url(#paint17_linear_1475_15910)"/>
<path d="M226.445 191L255.89 242H197L226.445 191Z" fill="url(#paint18_linear_1475_15910)"/>
<rect x="197.445" y="242" width="58" height="11" fill="#CF5F2B"/>
<defs>
<radialGradient id="paint0_radial_1475_15910" cx="0" cy="0" r="1" gradientUnits="userSpaceOnUse" gradientTransform="translate(22 52.5) rotate(-114.6) scale(45.6426 40.5474)">
<stop stop-color="#DD5617"/>
<stop offset="1" stop-color="#FF864E" stop-opacity="0"/>
</radialGradient>
<linearGradient id="paint1_linear_1475_15910" x1="22" y1="0" x2="22" y2="38" gradientUnits="userSpaceOnUse">
<stop stop-color="#FFC5AA"/>
<stop offset="1" stop-color="#FF9D6F"/>
</linearGradient>
<radialGradient id="paint2_radial_1475_15910" cx="0" cy="0" r="1" gradientUnits="userSpaceOnUse" gradientTransform="translate(22 123.5) rotate(-114.6) scale(45.6426 40.5474)">
<stop stop-color="#DD5617"/>
<stop offset="1" stop-color="#FF864E" stop-opacity="0"/>
</radialGradient>
<linearGradient id="paint3_linear_1475_15910" x1="22" y1="71" x2="22" y2="109" gradientUnits="userSpaceOnUse">
<stop stop-color="#FFC5AA"/>
<stop offset="1" stop-color="#FF9D6F"/>
</linearGradient>
<radialGradient id="paint4_radial_1475_15910" cx="0" cy="0" r="1" gradientUnits="userSpaceOnUse" gradientTransform="translate(90 52.5) rotate(-114.6) scale(45.6426 40.5474)">
<stop stop-color="#DD5617"/>
<stop offset="1" stop-color="#FF864E" stop-opacity="0"/>
</radialGradient>
<linearGradient id="paint5_linear_1475_15910" x1="90" y1="0" x2="90" y2="38" gradientUnits="userSpaceOnUse">
<stop stop-color="#FFC5AA"/>
<stop offset="1" stop-color="#FF9D6F"/>
</linearGradient>
<radialGradient id="paint6_radial_1475_15910" cx="0" cy="0" r="1" gradientUnits="userSpaceOnUse" gradientTransform="translate(90 123.5) rotate(-114.6) scale(45.6426 40.5474)">
<stop stop-color="#DD5617"/>
<stop offset="1" stop-color="#FF864E" stop-opacity="0"/>
</radialGradient>
<linearGradient id="paint7_linear_1475_15910" x1="90" y1="71" x2="90" y2="109" gradientUnits="userSpaceOnUse">
<stop stop-color="#FFC5AA"/>
<stop offset="1" stop-color="#FF9D6F"/>
</linearGradient>
<radialGradient id="paint8_radial_1475_15910" cx="0" cy="0" r="1" gradientUnits="userSpaceOnUse" gradientTransform="translate(158 52.5) rotate(-114.6) scale(45.6426 40.5474)">
<stop stop-color="#DD5617"/>
<stop offset="1" stop-color="#FF864E" stop-opacity="0"/>
</radialGradient>
<linearGradient id="paint9_linear_1475_15910" x1="158" y1="0" x2="158" y2="38" gradientUnits="userSpaceOnUse">
<stop stop-color="#FFC5AA"/>
<stop offset="1" stop-color="#FF9D6F"/>
</linearGradient>
<radialGradient id="paint10_radial_1475_15910" cx="0" cy="0" r="1" gradientUnits="userSpaceOnUse" gradientTransform="translate(158 123.5) rotate(-114.6) scale(45.6426 40.5474)">
<stop stop-color="#DD5617"/>
<stop offset="1" stop-color="#FF864E" stop-opacity="0"/>
</radialGradient>
<linearGradient id="paint11_linear_1475_15910" x1="158" y1="71" x2="158" y2="109" gradientUnits="userSpaceOnUse">
<stop stop-color="#FFC5AA"/>
<stop offset="1" stop-color="#FF9D6F"/>
</linearGradient>
<radialGradient id="paint12_radial_1475_15910" cx="0" cy="0" r="1" gradientUnits="userSpaceOnUse" gradientTransform="translate(226 52.5) rotate(-114.6) scale(45.6426 40.5474)">
<stop stop-color="#DD5617"/>
<stop offset="1" stop-color="#FF864E" stop-opacity="0"/>
</radialGradient>
<linearGradient id="paint13_linear_1475_15910" x1="226" y1="0" x2="226" y2="38" gradientUnits="userSpaceOnUse">
<stop stop-color="#FFC5AA"/>
<stop offset="1" stop-color="#FF9D6F"/>
</linearGradient>
<radialGradient id="paint14_radial_1475_15910" cx="0" cy="0" r="1" gradientUnits="userSpaceOnUse" gradientTransform="translate(294 52.5) rotate(-114.6) scale(45.6426 40.5474)">
<stop stop-color="#DD5617"/>
<stop offset="1" stop-color="#FF864E" stop-opacity="0"/>
</radialGradient>
<linearGradient id="paint15_linear_1475_15910" x1="294" y1="0" x2="294" y2="38" gradientUnits="userSpaceOnUse">
<stop stop-color="#FFC5AA"/>
<stop offset="1" stop-color="#FF9D6F"/>
</linearGradient>
<radialGradient id="paint16_radial_1475_15910" cx="0" cy="0" r="1" gradientUnits="userSpaceOnUse" gradientTransform="translate(294 123.5) rotate(-114.6) scale(45.6426 40.5474)">
<stop stop-color="#DD5617"/>
<stop offset="1" stop-color="#FF864E" stop-opacity="0"/>
</radialGradient>
<linearGradient id="paint17_linear_1475_15910" x1="294" y1="71" x2="294" y2="109" gradientUnits="userSpaceOnUse">
<stop stop-color="#FFC5AA"/>
<stop offset="1" stop-color="#FF9D6F"/>
</linearGradient>
<linearGradient id="paint18_linear_1475_15910" x1="226.445" y1="191" x2="226.445" y2="242" gradientUnits="userSpaceOnUse">
<stop stop-color="#FFAB84"/>
<stop offset="1" stop-color="#E86B31"/>
</linearGradient>
</defs>
</svg>
