<svg width="381" height="236" viewBox="0 0 381 236" fill="none" xmlns="http://www.w3.org/2000/svg">
<path fill-rule="evenodd" clip-rule="evenodd" d="M163.503 15.0825H73.0059V166.797H73.0605L73.0059 166.834L95.4551 181.88H140.731L163.196 166.797H163.503V166.59V15.0825Z" fill="#FF864E"/>
<rect x="95.4561" y="30.1655" width="45.2724" height="151.714" fill="url(#paint0_radial_1475_15876)"/>
<path d="M73.0059 15.1192L95.4551 0H140.731L163.503 14.8761L140.731 30.1654H95.4551L73.0059 15.1192Z" fill="url(#paint1_linear_1475_15876)"/>
<path fill-rule="evenodd" clip-rule="evenodd" d="M307.233 56.7822H216.736V166.797H216.79L216.736 166.834L239.186 181.88H284.461L306.925 166.797H307.233V166.59V56.7822Z" fill="#FF864E"/>
<rect x="239.349" y="71.8647" width="45.2724" height="110.015" fill="url(#paint2_radial_1475_15876)"/>
<path d="M216.736 56.8185L239.186 41.6993H284.461L307.233 56.5754L284.461 71.8647H239.186L216.736 56.8185Z" fill="url(#paint3_linear_1475_15876)"/>
<path fill-rule="evenodd" clip-rule="evenodd" d="M22.4492 169.458L0 184.578L22.4492 199.624H67.725L90.497 184.335L67.725 169.458H22.4492ZM290.503 184.578L312.952 169.458H358.228L381 184.335L358.228 199.624H312.952L290.503 184.578ZM216.736 203.21L239.186 188.09H284.461L307.233 202.966L284.461 218.256H239.186L216.736 203.21ZM144.491 220.954L166.94 205.834H212.216L234.988 220.711L212.216 236H166.94L144.491 220.954ZM95.4551 188.09L73.0059 203.21L95.4551 218.256H140.731L163.503 202.966L140.731 188.09H95.4551Z" fill="url(#paint4_radial_1475_15876)"/>
<path fill-rule="evenodd" clip-rule="evenodd" d="M234.988 97.5938H144.491V185.428H144.546L144.491 185.465L166.94 200.511H212.216L234.681 185.428H234.988V185.222V97.5938Z" fill="#CF5F2B"/>
<rect x="167.306" y="112.677" width="44.8683" height="85.1729" fill="url(#paint5_radial_1475_15876)"/>
<path d="M144.491 97.6304L166.94 82.5112H212.216L234.988 97.3873L212.216 112.677H166.94L144.491 97.6304Z" fill="url(#paint6_linear_1475_15876)"/>
<defs>
<radialGradient id="paint0_radial_1475_15876" cx="0" cy="0" r="1" gradientUnits="userSpaceOnUse" gradientTransform="translate(118.092 32.531) rotate(90) scale(149.349 68.3851)">
<stop stop-color="#DD5617"/>
<stop offset="1" stop-color="#FF864E" stop-opacity="0"/>
</radialGradient>
<linearGradient id="paint1_linear_1475_15876" x1="118.254" y1="0" x2="118.254" y2="30.1654" gradientUnits="userSpaceOnUse">
<stop stop-color="#FFC5AA"/>
<stop offset="1" stop-color="#FF9D6F"/>
</linearGradient>
<radialGradient id="paint2_radial_1475_15876" cx="0" cy="0" r="1" gradientUnits="userSpaceOnUse" gradientTransform="translate(261.985 73.5801) rotate(90) scale(108.3 68.3851)">
<stop stop-color="#DD5617"/>
<stop offset="1" stop-color="#FF864E" stop-opacity="0"/>
</radialGradient>
<linearGradient id="paint3_linear_1475_15876" x1="261.985" y1="41.6993" x2="261.985" y2="71.8647" gradientUnits="userSpaceOnUse">
<stop stop-color="#FFC5AA"/>
<stop offset="1" stop-color="#FF9D6F"/>
</linearGradient>
<radialGradient id="paint4_radial_1475_15876" cx="0" cy="0" r="1" gradientUnits="userSpaceOnUse" gradientTransform="translate(190.88 169.458) rotate(90) scale(72.3083 163.601)">
<stop stop-color="#FFAF8A"/>
<stop offset="1" stop-color="#FFAF8A" stop-opacity="0"/>
</radialGradient>
<radialGradient id="paint5_radial_1475_15876" cx="0" cy="0" r="1" gradientUnits="userSpaceOnUse" gradientTransform="translate(189.74 114.005) rotate(90) scale(83.8449 67.7747)">
<stop stop-color="#AD410F"/>
<stop offset="1" stop-color="#CF5F2B" stop-opacity="0"/>
</radialGradient>
<linearGradient id="paint6_linear_1475_15876" x1="189.74" y1="82.5112" x2="189.74" y2="112.677" gradientUnits="userSpaceOnUse">
<stop stop-color="#FFAB84"/>
<stop offset="1" stop-color="#E86B31"/>
</linearGradient>
</defs>
</svg>
